<svg width="308" height="483" viewBox="0 0 308 483" fill="none" xmlns="http://www.w3.org/2000/svg">
<g clip-path="url(#clip0_5660_148575)">
<path d="M144.75 6.75391V300.521L296.279 387.751V93.9837L144.75 6.75391Z" fill="url(#paint0_linear_5660_148575)"/>
<path d="M307.999 395.067L296.277 401.821V93.9838L307.999 87.2305V395.067Z" fill="url(#paint1_linear_5660_148575)"/>
<path d="M156.612 0L144.891 6.75328L296.278 93.9831L307.999 87.2298L156.612 0Z" fill="url(#paint2_linear_5660_148575)"/>
<path d="M144.75 6.75391V314.591L156.33 321.203V26.7324L284.699 100.596V395.208L296.279 401.821V93.9837L144.75 6.75391Z" fill="url(#paint3_linear_5660_148575)"/>
<path d="M37.2852 107.067V394.926L166.501 320.78V32.9219L37.2852 107.067Z" fill="#2763D1"/>
<path d="M50.6992 114.806L153.083 55.9961V70.4875L50.6992 129.297V114.806Z" fill="url(#paint4_linear_5660_148575)"/>
<path d="M150.398 57.5437V68.9399L153.082 70.4875V55.9961L150.398 57.5437Z" fill="url(#paint5_linear_5660_148575)"/>
<path opacity="0.5" d="M150.4 68.9395L50.6992 126.202V129.297L153.083 70.4871L150.4 68.9395Z" fill="url(#paint6_linear_5660_148575)"/>
<path d="M50.6992 163.626L153.083 104.816V119.308L50.6992 178.118V163.626Z" fill="url(#paint7_linear_5660_148575)"/>
<path d="M150.398 106.364V117.901L153.082 119.308V104.816L150.398 106.364Z" fill="url(#paint8_linear_5660_148575)"/>
<path opacity="0.5" d="M150.4 117.9L50.6992 175.163V178.117L153.083 119.307L150.4 117.9Z" fill="url(#paint9_linear_5660_148575)"/>
<path d="M50.6992 212.446L153.083 153.777V168.269L50.6992 226.938V212.446Z" fill="url(#paint10_linear_5660_148575)"/>
<path d="M150.398 155.184V166.721L153.082 168.269V153.777L150.398 155.184Z" fill="url(#paint11_linear_5660_148575)"/>
<path opacity="0.5" d="M150.4 166.721L50.6992 223.983V226.937L153.083 168.268L150.4 166.721Z" fill="url(#paint12_linear_5660_148575)"/>
<path d="M50.6992 261.407L153.083 202.598V217.089L50.6992 275.899V261.407Z" fill="url(#paint13_linear_5660_148575)"/>
<path d="M150.398 204.145V215.541L153.082 217.089V202.598L150.398 204.145Z" fill="url(#paint14_linear_5660_148575)"/>
<path opacity="0.5" d="M150.4 215.541L50.6992 272.803V275.898L153.083 217.089L150.4 215.541Z" fill="url(#paint15_linear_5660_148575)"/>
<path d="M50.6992 310.23L153.083 251.42V265.911L50.6992 324.721V310.23Z" fill="url(#paint16_linear_5660_148575)"/>
<path d="M150.398 252.968V264.504L153.082 265.911V251.42L150.398 252.968Z" fill="url(#paint17_linear_5660_148575)"/>
<path opacity="0.5" d="M150.4 264.504L50.6992 321.766V324.721L153.083 265.911L150.4 264.504Z" fill="url(#paint18_linear_5660_148575)"/>
<path d="M50.6992 359.05L153.083 300.381V314.872L50.6992 373.541V359.05Z" fill="url(#paint19_linear_5660_148575)"/>
<path d="M150.398 301.788V313.325L153.082 314.872V300.381L150.398 301.788Z" fill="url(#paint20_linear_5660_148575)"/>
<path opacity="0.5" d="M150.4 313.324L50.6992 370.586V373.541L153.083 314.872L150.4 313.324Z" fill="url(#paint21_linear_5660_148575)"/>
<path d="M37.425 107.067V394.926L27.3984 389.157V101.299L37.425 107.067Z" fill="url(#paint22_linear_5660_148575)"/>
<path d="M27.3984 101.3L37.425 107.068L166.5 32.9227L156.473 27.1543L27.3984 101.3Z" fill="url(#paint23_linear_5660_148575)"/>
<path d="M41.6602 239.459V267.176L50.2746 262.252V234.535L41.6602 239.459Z" fill="url(#paint24_linear_5660_148575)"/>
<path d="M41.6616 239.459V267.176L40.3906 266.472V238.756L41.6616 239.459Z" fill="url(#paint25_linear_5660_148575)"/>
<path d="M40.3906 238.756L41.6616 239.46L50.276 234.535L48.8638 233.832L40.3906 238.756Z" fill="url(#paint26_linear_5660_148575)"/>
<path d="M47.8736 255.781C47.8736 254.796 47.1675 254.374 46.179 254.796C45.3317 255.359 44.4844 256.625 44.4844 257.61C44.4844 258.454 44.908 258.876 45.6141 258.735V261.83L46.7439 261.268V258.172C47.45 257.61 47.8736 256.625 47.8736 255.781Z" fill="url(#paint27_linear_5660_148575)"/>
<path d="M45.7551 247.761C48.5795 247.902 56.629 244.385 59.8771 241.149C62.9839 238.054 63.2663 234.958 63.9724 236.084C64.8197 237.209 61.8541 243.963 57.7588 246.636C51.9688 250.575 47.5909 251.56 45.8963 251.419C43.4956 251.279 43.778 247.621 45.7551 247.761Z" fill="url(#paint28_linear_5660_148575)"/>
<path d="M63.9727 236.082C63.8315 235.801 63.6902 235.801 63.549 235.801C63.6902 237.77 60.8658 243.398 57.3354 245.79C51.5454 249.729 47.1675 250.714 45.4729 250.574C45.0493 250.574 44.6256 250.433 44.4844 250.151C44.7668 250.714 45.1905 251.136 46.0378 251.277C47.7324 251.418 52.2515 250.292 57.9002 246.493C61.8544 243.961 64.82 237.208 63.9727 236.082Z" fill="url(#paint29_linear_5660_148575)"/>
<path d="M143.48 427.425C143.621 427.425 143.762 427.425 143.903 427.285L145.174 426.581C145.457 426.441 145.598 426.018 145.457 425.596C145.316 425.315 144.892 425.174 144.468 425.315L143.197 426.018C142.915 426.159 142.774 426.581 142.915 427.003C142.915 427.285 143.197 427.425 143.48 427.425Z" fill="url(#paint30_radial_5660_148575)"/>
<path opacity="0.2" d="M173.134 326.83L169.039 324.579L172.993 322.188L177.089 324.579L173.134 326.83Z" fill="#4B61B8"/>
<path opacity="0.5" d="M180.759 331.192L176.664 328.941L180.618 326.549L184.714 328.941L180.759 331.192Z" fill="#4B61B8"/>
<path d="M188.384 335.694L184.289 333.302L188.243 331.051L192.339 333.302L188.384 335.694Z" fill="#4B61B8"/>
<path d="M196.013 340.055L191.918 337.663L195.872 335.412L199.968 337.663L196.013 340.055Z" fill="#4B61B8"/>
<path opacity="0.5" d="M203.638 344.416L199.543 342.025L203.497 339.773L207.592 342.165L203.638 344.416Z" fill="#4B61B8"/>
<path d="M218.888 353.141L214.793 350.89L218.747 348.498L222.842 350.89L218.888 353.141Z" fill="#4B61B8"/>
<path opacity="0.5" d="M226.517 357.643L222.422 355.251L226.376 352.859L230.471 355.251L226.517 357.643Z" fill="#4B61B8"/>
<path d="M234.142 362.004L230.047 359.612L234.001 357.361L238.096 359.612L234.142 362.004Z" fill="#4B61B8"/>
<path opacity="0.5" d="M249.392 370.727L245.297 368.335L249.251 366.084L253.346 368.476L249.392 370.727Z" fill="#4B61B8"/>
<path opacity="0.5" d="M257.017 375.088L252.922 372.837L256.876 370.445L260.971 372.837L257.017 375.088Z" fill="#4B61B8"/>
<path d="M264.646 379.45L260.551 377.198L264.505 374.807L268.6 377.198L264.646 379.45Z" fill="#4B61B8"/>
<path d="M272.271 383.951L268.176 381.56L272.13 379.309L276.225 381.56L272.271 383.951Z" fill="#4B61B8"/>
<path opacity="0.5" d="M279.896 388.313L275.801 385.921L279.755 383.67L283.85 385.921L279.896 388.313Z" fill="#4B61B8"/>
<path opacity="0.5" d="M165.79 331.051L161.836 328.659L165.79 326.408L169.885 328.659L165.79 331.051Z" fill="#4B61B8"/>
<path d="M173.415 335.412L169.461 333.021L173.415 330.77L177.51 333.021L173.415 335.412Z" fill="#4B61B8"/>
<path opacity="0.5" d="M181.04 339.774L177.086 337.523L181.04 335.131L185.135 337.523L181.04 339.774Z" fill="#4B61B8"/>
<path opacity="0.5" d="M188.669 344.135L184.715 341.884L188.669 339.492L192.764 341.884L188.669 344.135Z" fill="#4B61B8"/>
<path opacity="0.5" d="M204.06 352.998L199.965 350.607L203.919 348.355L208.014 350.607L204.06 352.998Z" fill="#4B61B8"/>
<path d="M211.685 357.362L207.59 354.97L211.544 352.719L215.639 354.97L211.685 357.362Z" fill="#4B61B8"/>
<path opacity="0.5" d="M226.939 366.084L222.844 363.833L226.798 361.441L230.893 363.833L226.939 366.084Z" fill="#4B61B8"/>
<path d="M234.564 370.446L230.469 368.195L234.423 365.803L238.518 368.195L234.564 370.446Z" fill="#4B61B8"/>
<path opacity="0.5" d="M242.189 374.948L238.094 372.556L242.048 370.164L246.143 372.556L242.189 374.948Z" fill="#4B61B8"/>
<path d="M249.814 379.309L245.719 376.917L249.673 374.666L253.768 376.917L249.814 379.309Z" fill="#4B61B8"/>
<path opacity="0.5" d="M257.443 383.67L253.348 381.278L257.302 379.027L261.397 381.278L257.443 383.67Z" fill="#4B61B8"/>
<path opacity="0.5" d="M272.693 392.393L268.598 390.142L272.552 387.75L276.647 390.142L272.693 392.393Z" fill="#4B61B8"/>
<path d="M158.591 335.131L154.637 332.88L158.591 330.488L162.686 332.88L158.591 335.131Z" fill="#4B61B8"/>
<path d="M166.216 339.492L162.262 337.241L166.216 334.85L170.311 337.241L166.216 339.492Z" fill="#4B61B8"/>
<path d="M181.47 348.356L177.516 345.964L181.47 343.713L185.565 345.964L181.47 348.356Z" fill="#4B61B8"/>
<path opacity="0.5" d="M196.72 357.078L192.766 354.827L196.72 352.436L200.815 354.827L196.72 357.078Z" fill="#4B61B8"/>
<path opacity="0.5" d="M204.345 361.442L200.391 359.191L204.345 356.799L208.44 359.191L204.345 361.442Z" fill="#4B61B8"/>
<path opacity="0.5" d="M211.974 365.803L208.02 363.552L211.974 361.16L216.069 363.552L211.974 365.803Z" fill="#4B61B8"/>
<path d="M227.224 374.666L223.27 372.275L227.224 370.023L231.319 372.275L227.224 374.666Z" fill="#4B61B8"/>
<path opacity="0.5" d="M234.849 379.028L230.895 376.636L234.849 374.385L238.944 376.777L234.849 379.028Z" fill="#4B61B8"/>
<path opacity="0.5" d="M257.728 392.252L253.773 389.861L257.728 387.469L261.823 389.861L257.728 392.252Z" fill="#4B61B8"/>
<path opacity="0.5" d="M151.388 339.352L147.434 336.96L151.388 334.709L155.483 336.96L151.388 339.352Z" fill="#4B61B8"/>
<path opacity="0.5" d="M166.638 348.075L162.684 345.683L166.638 343.432L170.733 345.823L166.638 348.075Z" fill="#4B61B8"/>
<path d="M174.267 352.436L170.312 350.185L174.267 347.793L178.362 350.185L174.267 352.436Z" fill="#4B61B8"/>
<path opacity="0.5" d="M181.892 356.797L177.938 354.546L181.892 352.154L185.987 354.546L181.892 356.797Z" fill="#4B61B8"/>
<path d="M189.517 361.299L185.562 358.907L189.517 356.656L193.612 358.907L189.517 361.299Z" fill="#4B61B8"/>
<path d="M204.771 370.024L200.816 367.632L204.771 365.381L208.866 367.632L204.771 370.024Z" fill="#4B61B8"/>
<path opacity="0.5" d="M212.396 374.385L208.441 372.134L212.396 369.742L216.491 372.134L212.396 374.385Z" fill="#4B61B8"/>
<path opacity="0.5" d="M220.021 378.746L216.066 376.495L220.021 374.104L224.116 376.495L220.021 378.746Z" fill="#4B61B8"/>
<path d="M235.271 387.61L231.316 385.218L235.271 382.967L239.366 385.218L235.271 387.61Z" fill="#4B61B8"/>
<path opacity="0.5" d="M242.899 391.971L238.945 389.579L242.899 387.328L246.995 389.579L242.899 391.971Z" fill="#4B61B8"/>
<path d="M258.149 400.694L254.195 398.443L258.149 396.051L262.245 398.443L258.149 400.694Z" fill="#4B61B8"/>
<path d="M151.81 347.793L147.855 345.542L151.81 343.15L155.905 345.542L151.81 347.793Z" fill="#4B61B8"/>
<path opacity="0.5" d="M159.435 352.295L155.48 349.904L159.435 347.512L163.53 349.904L159.435 352.295Z" fill="#4B61B8"/>
<path opacity="0.5" d="M182.314 365.379L178.359 362.987L182.314 360.736L186.409 363.128L182.314 365.379Z" fill="#4B61B8"/>
<path opacity="0.5" d="M189.939 369.742L185.984 367.491L189.939 365.1L194.034 367.491L189.939 369.742Z" fill="#4B61B8"/>
<path opacity="0.5" d="M205.192 378.606L201.238 376.214L205.192 373.963L209.288 376.214L205.192 378.606Z" fill="#4B61B8"/>
<path opacity="0.5" d="M220.442 387.328L216.488 384.937L220.442 382.686L224.538 384.937L220.442 387.328Z" fill="#4B61B8"/>
<path opacity="0.5" d="M235.696 396.051L231.742 393.8L235.696 391.408L239.792 393.8L235.696 396.051Z" fill="#4B61B8"/>
<path opacity="0.5" d="M250.946 404.914L246.992 402.523L250.946 400.271L255.042 402.523L250.946 404.914Z" fill="#4B61B8"/>
<path opacity="0.5" d="M136.981 347.653L133.027 345.261L136.981 343.01L141.077 345.261L136.981 347.653Z" fill="#4B61B8"/>
<path opacity="0.5" d="M144.606 352.014L140.652 349.622L144.606 347.371L148.702 349.622L144.606 352.014Z" fill="#4B61B8"/>
<path opacity="0.5" d="M152.231 356.375L148.277 353.984L152.231 351.732L156.327 354.124L152.231 356.375Z" fill="#4B61B8"/>
<path opacity="0.5" d="M159.86 360.737L155.906 358.486L159.86 356.094L163.956 358.486L159.86 360.737Z" fill="#4B61B8"/>
<path opacity="0.5" d="M167.485 365.098L163.531 362.847L167.485 360.455L171.581 362.847L167.485 365.098Z" fill="#4B61B8"/>
<path opacity="0.5" d="M182.735 373.963L178.781 371.571L182.735 369.32L186.831 371.571L182.735 373.963Z" fill="#4B61B8"/>
<path opacity="0.5" d="M190.364 378.325L186.41 375.933L190.364 373.682L194.46 375.933L190.364 378.325Z" fill="#4B61B8"/>
<path opacity="0.5" d="M205.614 387.047L201.66 384.796L205.614 382.404L209.71 384.796L205.614 387.047Z" fill="#4B61B8"/>
<path d="M213.239 391.409L209.285 389.157L213.239 386.766L217.335 389.157L213.239 391.409Z" fill="#4B61B8"/>
<path opacity="0.5" d="M220.864 395.91L216.91 393.519L220.864 391.268L224.96 393.519L220.864 395.91Z" fill="#4B61B8"/>
<path opacity="0.5" d="M228.493 400.272L224.539 397.88L228.493 395.629L232.589 397.88L228.493 400.272Z" fill="#4B61B8"/>
<path d="M236.118 404.633L232.164 402.241L236.118 399.99L240.214 402.241L236.118 404.633Z" fill="#4B61B8"/>
<path opacity="0.5" d="M243.743 408.994L239.789 406.743L243.743 404.352L247.839 406.743L243.743 408.994Z" fill="#4B61B8"/>
<path d="M129.782 351.733L125.828 349.482L129.782 347.09L133.878 349.482L129.782 351.733Z" fill="#4B61B8"/>
<path opacity="0.5" d="M137.407 356.094L133.453 353.843L137.407 351.451L141.503 353.843L137.407 356.094Z" fill="#4B61B8"/>
<path d="M152.661 364.957L148.707 362.566L152.661 360.314L156.757 362.566L152.661 364.957Z" fill="#4B61B8"/>
<path opacity="0.5" d="M167.911 373.68L163.957 371.288L167.911 369.037L172.007 371.429L167.911 373.68Z" fill="#4B61B8"/>
<path opacity="0.5" d="M183.165 382.405L179.211 380.154L183.165 377.762L187.26 380.154L183.165 382.405Z" fill="#4B61B8"/>
<path opacity="0.5" d="M190.79 386.907L186.836 384.515L190.79 382.123L194.885 384.515L190.79 386.907Z" fill="#4B61B8"/>
<path opacity="0.5" d="M198.415 391.268L194.461 388.876L198.415 386.625L202.51 388.876L198.415 391.268Z" fill="#4B61B8"/>
<path opacity="0.5" d="M206.04 395.629L202.086 393.237L206.04 390.986L210.135 393.237L206.04 395.629Z" fill="#4B61B8"/>
<path opacity="0.5" d="M221.294 404.352L217.34 402.101L221.294 399.709L225.389 402.101L221.294 404.352Z" fill="#4B61B8"/>
<path opacity="0.5" d="M228.919 408.713L224.965 406.462L228.919 404.07L233.014 406.462L228.919 408.713Z" fill="#4B61B8"/>
<path opacity="0.5" d="M137.829 364.676L133.875 362.284L137.829 360.033L141.925 362.284L137.829 364.676Z" fill="#4B61B8"/>
<path opacity="0.5" d="M145.458 369.037L141.504 366.786L145.458 364.395L149.553 366.786L145.458 369.037Z" fill="#4B61B8"/>
<path opacity="0.5" d="M153.083 373.399L149.129 371.148L153.083 368.756L157.178 371.148L153.083 373.399Z" fill="#4B61B8"/>
<path opacity="0.2" d="M160.708 377.76L156.754 375.509L160.708 373.117L164.803 375.509L160.708 377.76Z" fill="#4B61B8"/>
<path opacity="0.5" d="M168.333 382.264L164.379 379.872L168.333 377.621L172.428 379.872L168.333 382.264Z" fill="#4B61B8"/>
<path opacity="0.5" d="M175.962 386.625L172.008 384.234L175.962 381.982L180.057 384.234L175.962 386.625Z" fill="#4B61B8"/>
<path d="M183.587 390.987L179.633 388.595L183.587 386.344L187.682 388.736L183.587 390.987Z" fill="#4B61B8"/>
<path opacity="0.5" d="M198.837 399.709L194.883 397.458L198.837 395.066L202.932 397.458L198.837 399.709Z" fill="#4B61B8"/>
<path opacity="0.5" d="M206.462 404.211L202.508 401.82L206.462 399.428L210.557 401.82L206.462 404.211Z" fill="#4B61B8"/>
<path opacity="0.5" d="M214.091 408.573L210.137 406.181L214.091 403.93L218.186 406.181L214.091 408.573Z" fill="#4B61B8"/>
<path opacity="0.5" d="M229.341 417.295L225.387 414.903L229.341 412.652L233.436 415.044L229.341 417.295Z" fill="#4B61B8"/>
<path opacity="0.5" d="M115.377 360.033L111.281 357.642L115.377 355.391L119.472 357.782L115.377 360.033Z" fill="#4B61B8"/>
<path opacity="0.5" d="M123.002 364.395L118.906 362.144L123.002 359.752L127.097 362.144L123.002 364.395Z" fill="#4B61B8"/>
<path opacity="0.5" d="M138.256 373.258L134.16 370.866L138.256 368.475L142.351 370.866L138.256 373.258Z" fill="#4B61B8"/>
<path opacity="0.5" d="M153.506 381.981L149.41 379.589L153.506 377.338L157.601 379.589L153.506 381.981Z" fill="#4B61B8"/>
<path d="M161.131 386.344L157.035 384.093L161.131 381.701L165.226 384.093L161.131 386.344Z" fill="#4B61B8"/>
<path opacity="0.5" d="M176.384 395.067L172.289 392.816L176.384 390.424L180.48 392.816L176.384 395.067Z" fill="#4B61B8"/>
<path opacity="0.5" d="M184.009 399.569L179.914 397.177L184.009 394.926L188.105 397.177L184.009 399.569Z" fill="#4B61B8"/>
<path d="M191.634 403.93L187.539 401.538L191.634 399.287L195.73 401.538L191.634 403.93Z" fill="#4B61B8"/>
<path opacity="0.5" d="M214.513 417.014L210.418 414.763L214.513 412.371L218.609 414.763L214.513 417.014Z" fill="#4B61B8"/>
<path opacity="0.5" d="M222.138 421.516L218.043 419.124L222.138 416.732L226.234 419.124L222.138 421.516Z" fill="#4B61B8"/>
<path opacity="0.5" d="M108.173 364.254L104.078 361.863L108.173 359.471L112.269 361.863L108.173 364.254Z" fill="#4B61B8"/>
<path d="M123.423 372.977L119.328 370.585L123.423 368.334L127.519 370.585L123.423 372.977Z" fill="#4B61B8"/>
<path opacity="0.5" d="M131.052 377.338L126.957 374.946L131.052 372.695L135.148 375.087L131.052 377.338Z" fill="#4B61B8"/>
<path d="M138.677 381.7L134.582 379.448L138.677 377.057L142.773 379.448L138.677 381.7Z" fill="#4B61B8"/>
<path opacity="0.2" d="M153.927 390.565L149.832 388.173L153.927 385.781L158.023 388.173L153.927 390.565Z" fill="#4B61B8"/>
<path opacity="0.5" d="M161.556 394.926L157.461 392.534L161.556 390.283L165.652 392.534L161.556 394.926Z" fill="#4B61B8"/>
<path opacity="0.5" d="M169.181 399.287L165.086 396.896L169.181 394.645L173.277 396.896L169.181 399.287Z" fill="#4B61B8"/>
<path opacity="0.2" d="M184.431 408.01L180.336 405.759L184.431 403.367L188.527 405.759L184.431 408.01Z" fill="#4B61B8"/>
<path opacity="0.5" d="M192.056 412.371L187.961 410.12L192.056 407.729L196.152 410.12L192.056 412.371Z" fill="#4B61B8"/>
<path d="M199.685 416.873L195.59 414.482L199.685 412.23L203.781 414.482L199.685 416.873Z" fill="#4B61B8"/>
<path opacity="0.5" d="M207.31 421.235L203.215 418.843L207.31 416.592L211.406 418.843L207.31 421.235Z" fill="#4B61B8"/>
<path opacity="0.5" d="M214.935 425.596L210.84 423.204L214.935 420.953L219.031 423.345L214.935 425.596Z" fill="#4B61B8"/>
<path d="M100.97 368.334L96.875 365.943L100.97 363.691L105.066 365.943L100.97 368.334Z" fill="#4B61B8"/>
<path opacity="0.5" d="M116.22 377.057L112.125 374.806L116.22 372.414L120.316 374.806L116.22 377.057Z" fill="#4B61B8"/>
<path opacity="0.5" d="M131.474 385.92L127.379 383.528L131.474 381.277L135.57 383.528L131.474 385.92Z" fill="#4B61B8"/>
<path opacity="0.5" d="M154.353 399.006L150.258 396.755L154.353 394.363L158.449 396.755L154.353 399.006Z" fill="#4B61B8"/>
<path opacity="0.5" d="M169.603 407.87L165.508 405.478L169.603 403.086L173.699 405.478L169.603 407.87Z" fill="#4B61B8"/>
<path opacity="0.5" d="M177.228 412.231L173.133 409.839L177.228 407.588L181.324 409.839L177.228 412.231Z" fill="#4B61B8"/>
<path opacity="0.5" d="M192.482 420.953L188.387 418.702L192.482 416.311L196.577 418.702L192.482 420.953Z" fill="#4B61B8"/>
<path opacity="0.5" d="M101.396 376.916L97.3008 374.525L101.396 372.273L105.492 374.525L101.396 376.916Z" fill="#4B61B8"/>
<path opacity="0.2" d="M116.65 385.639L112.555 383.247L116.65 380.996L120.745 383.247L116.65 385.639Z" fill="#4B61B8"/>
<path opacity="0.5" d="M131.9 394.362L127.805 392.111L131.9 389.719L135.995 392.111L131.9 394.362Z" fill="#4B61B8"/>
<path opacity="0.2" d="M139.525 398.866L135.43 396.474L139.525 394.082L143.62 396.474L139.525 398.866Z" fill="#4B61B8"/>
<path opacity="0.5" d="M147.154 403.227L143.059 400.835L147.154 398.584L151.249 400.835L147.154 403.227Z" fill="#4B61B8"/>
<path d="M162.404 411.95L158.309 409.558L162.404 407.307L166.499 409.698L162.404 411.95Z" fill="#4B61B8"/>
<path opacity="0.5" d="M177.654 420.672L173.559 418.421L177.654 416.029L181.749 418.421L177.654 420.672Z" fill="#4B61B8"/>
<path opacity="0.5" d="M192.908 429.535L188.812 427.144L192.908 424.893L197.003 427.144L192.908 429.535Z" fill="#4B61B8"/>
<path opacity="0.5" d="M200.533 433.897L196.438 431.505L200.533 429.254L204.628 431.505L200.533 433.897Z" fill="#4B61B8"/>
<path opacity="0.2" d="M94.193 380.996L90.0977 378.605L94.193 376.354L98.2884 378.745L94.193 380.996Z" fill="#4B61B8"/>
<path opacity="0.5" d="M109.447 389.719L105.352 387.468L109.447 385.076L113.542 387.468L109.447 389.719Z" fill="#4B61B8"/>
<path opacity="0.5" d="M124.697 398.582L120.602 396.191L124.697 393.939L128.792 396.191L124.697 398.582Z" fill="#4B61B8"/>
<path d="M132.322 402.946L128.227 400.554L132.322 398.303L136.417 400.554L132.322 402.946Z" fill="#4B61B8"/>
<path opacity="0.5" d="M147.576 411.668L143.48 409.417L147.576 407.025L151.671 409.417L147.576 411.668Z" fill="#4B61B8"/>
<path opacity="0.5" d="M155.201 416.17L151.105 413.779L155.201 411.387L159.296 413.779L155.201 416.17Z" fill="#4B61B8"/>
<path opacity="0.5" d="M170.451 424.893L166.355 422.501L170.451 420.25L174.546 422.501L170.451 424.893Z" fill="#4B61B8"/>
<path opacity="0.2" d="M185.705 433.616L181.609 431.364L185.705 428.973L189.8 431.364L185.705 433.616Z" fill="#4B61B8"/>
<path opacity="0.2" d="M86.9899 385.217L82.8945 382.825L86.9899 380.434L91.0853 382.825L86.9899 385.217Z" fill="#4B61B8"/>
<path opacity="0.2" d="M109.869 398.301L105.773 396.05L109.869 393.658L113.964 396.05L109.869 398.301Z" fill="#4B61B8"/>
<path opacity="0.5" d="M125.119 407.026L121.023 404.775L125.119 402.383L129.214 404.775L125.119 407.026Z" fill="#4B61B8"/>
<path opacity="0.5" d="M140.373 415.889L136.277 413.497L140.373 411.246L144.468 413.497L140.373 415.889Z" fill="#4B61B8"/>
<path opacity="0.2" d="M155.623 424.612L151.527 422.361L155.623 419.969L159.718 422.361L155.623 424.612Z" fill="#4B61B8"/>
<path opacity="0.5" d="M163.248 428.973L159.152 426.722L163.248 424.33L167.343 426.722L163.248 428.973Z" fill="#4B61B8"/>
<path opacity="0.5" d="M186.127 442.198L182.031 439.806L186.127 437.555L190.222 439.806L186.127 442.198Z" fill="#4B61B8"/>
<path opacity="0.5" d="M102.666 402.522L98.5703 400.13L102.666 397.738L106.761 400.13L102.666 402.522Z" fill="#4B61B8"/>
<path opacity="0.2" d="M117.916 411.246L113.82 408.855L117.916 406.604L122.011 408.855L117.916 411.246Z" fill="#4B61B8"/>
<path opacity="0.2" d="M125.545 415.608L121.449 413.357L125.545 410.965L129.64 413.357L125.545 415.608Z" fill="#4B61B8"/>
<path opacity="0.5" d="M148.42 428.832L144.324 426.441L148.42 424.189L152.515 426.441L148.42 428.832Z" fill="#4B61B8"/>
<path opacity="0.2" d="M156.045 433.194L151.949 430.802L156.045 428.551L160.14 430.802L156.045 433.194Z" fill="#4B61B8"/>
<path opacity="0.5" d="M171.298 441.916L167.203 439.665L171.298 437.273L175.394 439.665L171.298 441.916Z" fill="#4B61B8"/>
<path opacity="0.2" d="M178.923 446.278L174.828 444.027L178.923 441.635L183.019 444.027L178.923 446.278Z" fill="#4B61B8"/>
<path opacity="0.2" d="M110.716 415.326L106.621 413.075L110.716 410.684L114.812 413.075L110.716 415.326Z" fill="#4B61B8"/>
<path opacity="0.5" d="M103.939 419.266L99.8438 416.874L103.939 414.623L107.893 416.874L103.939 419.266Z" fill="#4B61B8"/>
<path opacity="0.2" d="M96.736 423.346L92.6406 421.095L96.736 418.703L100.69 421.095L96.736 423.346Z" fill="#4B61B8"/>
<path opacity="0.2" d="M89.5329 427.567L85.4375 425.175L89.5329 422.924L93.487 425.175L89.5329 427.567Z" fill="#4B61B8"/>
<path opacity="0.1" d="M82.6149 431.647L78.5195 429.396L82.6149 427.004L86.5691 429.396L82.6149 431.647Z" fill="#4B61B8"/>
<path opacity="0.1" d="M75.4118 435.867L71.3164 433.476L75.4118 431.225L79.3659 433.476L75.4118 435.867Z" fill="#4B61B8"/>
<path opacity="0.2" d="M46.6032 451.907L42.5078 449.515L46.6032 447.264L50.6986 449.515L46.6032 451.907Z" fill="#4B61B8"/>
<path opacity="0.2" d="M39.4001 455.987L35.3047 453.736L39.4001 451.344L43.4954 453.736L39.4001 455.987Z" fill="#4B61B8"/>
<path opacity="0.5" d="M32.6227 459.926L28.5273 457.534L32.6227 455.283L36.5769 457.534L32.6227 459.926Z" fill="#4B61B8"/>
<path opacity="0.5" d="M25.4196 464.006L21.3242 461.755L25.4196 459.363L29.3737 461.755L25.4196 464.006Z" fill="#4B61B8"/>
<path opacity="0.2" d="M18.2165 468.227L14.1211 465.835L18.2165 463.584L22.1706 465.835L18.2165 468.227Z" fill="#4B61B8"/>
<path opacity="0.1" d="M11.2985 472.166L7.20312 469.775L11.2985 467.523L15.2526 469.775L11.2985 472.166Z" fill="#4B61B8"/>
<path opacity="0.1" d="M4.09537 476.246L0 473.855L4.09537 471.604L8.04952 473.995L4.09537 476.246Z" fill="#4B61B8"/>
<path opacity="0.2" d="M38.2711 422.078L34.1758 419.827L38.2711 417.436L42.3665 419.827L38.2711 422.078Z" fill="#4B61B8"/>
<path opacity="0.2" d="M31.068 426.299L26.9727 423.907L31.068 421.656L35.1634 423.907L31.068 426.299Z" fill="#4B61B8"/>
<path opacity="0.5" d="M24.2907 430.098L20.1953 427.847L24.2907 425.455L28.3861 427.847L24.2907 430.098Z" fill="#4B61B8"/>
<path opacity="0.2" d="M17.0876 434.319L12.9922 431.927L17.0876 429.676L21.1829 431.927L17.0876 434.319Z" fill="#4B61B8"/>
<path opacity="0.2" d="M9.88443 438.399L5.78906 436.148L9.88443 433.756L13.9798 436.148L9.88443 438.399Z" fill="#4B61B8"/>
<path opacity="0.2" d="M94.6188 389.297L90.5234 386.905L94.6188 384.654L98.7142 386.905L94.6188 389.297Z" fill="#4B61B8"/>
<path opacity="0.2" d="M87.4157 393.377L83.3203 391.126L87.4157 388.734L91.5111 391.126L87.4157 393.377Z" fill="#4B61B8"/>
<path opacity="0.5" d="M80.6383 397.317L76.543 394.925L80.6383 392.674L84.5925 394.925L80.6383 397.317Z" fill="#4B61B8"/>
<path opacity="0.2" d="M73.4352 401.397L69.3398 399.146L73.4352 396.754L77.3894 399.146L73.4352 401.397Z" fill="#4B61B8"/>
<path opacity="0.2" d="M66.2321 405.617L62.1367 403.226L66.2321 400.975L70.1862 403.226L66.2321 405.617Z" fill="#4B61B8"/>
<path opacity="0.2" d="M111.705 432.209L107.609 429.818L111.705 427.566L115.8 429.818L111.705 432.209Z" fill="#4B61B8"/>
<path opacity="0.2" d="M104.502 436.289L100.406 434.038L104.502 431.646L108.597 434.038L104.502 436.289Z" fill="#4B61B8"/>
<path opacity="0.5" d="M97.7243 440.229L93.6289 437.837L97.7243 435.586L101.82 437.837L97.7243 440.229Z" fill="#4B61B8"/>
<path opacity="0.2" d="M90.5211 444.309L86.4258 442.058L90.5211 439.666L94.6165 442.058L90.5211 444.309Z" fill="#4B61B8"/>
<path opacity="0.2" d="M83.318 448.53L79.2227 446.138L83.318 443.887L87.4134 446.138L83.318 448.53Z" fill="#4B61B8"/>
<path opacity="0.2" d="M88.1227 401.959L84.0273 399.568L88.1227 397.316L92.0769 399.568L88.1227 401.959Z" fill="#4B61B8"/>
<path opacity="0.2" d="M80.9196 406.039L76.8242 403.788L80.9196 401.396L84.8737 403.788L80.9196 406.039Z" fill="#4B61B8"/>
<path opacity="0.5" d="M74.1422 409.979L70.0469 407.587L74.001 405.336L78.0964 407.587L74.1422 409.979Z" fill="#4B61B8"/>
<path opacity="0.2" d="M66.9391 414.059L62.8438 411.808L66.7979 409.416L70.8933 411.808L66.9391 414.059Z" fill="#4B61B8"/>
<path opacity="0.2" d="M59.5948 418.28L55.6406 415.888L59.5948 413.637L63.6901 415.888L59.5948 418.28Z" fill="#4B61B8"/>
<path opacity="0.2" d="M134.865 445.012L130.77 442.62L134.865 440.369L138.96 442.62L134.865 445.012Z" fill="#4B61B8"/>
<path opacity="0.2" d="M127.662 449.092L123.566 446.841L127.662 444.449L131.757 446.841L127.662 449.092Z" fill="#4B61B8"/>
<path opacity="0.5" d="M120.884 453.032L116.789 450.64L120.884 448.389L124.839 450.64L120.884 453.032Z" fill="#4B61B8"/>
<path opacity="0.2" d="M113.681 457.112L109.586 454.861L113.681 452.469L117.635 454.861L113.681 457.112Z" fill="#4B61B8"/>
<path opacity="0.2" d="M106.478 461.332L102.383 458.941L106.478 456.689L110.432 458.941L106.478 461.332Z" fill="#4B61B8"/>
<path opacity="0.2" d="M143.338 466.678L139.242 464.286L143.338 462.035L147.433 464.286L143.338 466.678Z" fill="#4B61B8"/>
<path opacity="0.2" d="M136.134 470.758L132.039 468.507L136.134 466.115L140.23 468.507L136.134 470.758Z" fill="#4B61B8"/>
<path opacity="0.5" d="M129.357 474.698L125.262 472.306L129.357 470.055L133.311 472.306L129.357 474.698Z" fill="#4B61B8"/>
<path opacity="0.2" d="M122.154 478.778L118.059 476.527L122.154 474.135L126.108 476.527L122.154 478.778Z" fill="#4B61B8"/>
<path opacity="0.2" d="M114.951 482.998L110.855 480.607L114.951 478.355L118.905 480.607L114.951 482.998Z" fill="#4B61B8"/>
<path opacity="0.2" d="M125.966 424.19L121.871 421.798L125.966 419.547L130.062 421.798L125.966 424.19Z" fill="#4B61B8"/>
<path opacity="0.5" d="M148.845 437.274L144.75 435.023L148.845 432.631L152.941 435.023L148.845 437.274Z" fill="#4B61B8"/>
<path opacity="0.2" d="M171.724 450.498L167.629 448.107L171.724 445.855L175.82 448.107L171.724 450.498Z" fill="#4B61B8"/>
<path d="M251.938 190.499V194.157L255.892 191.906V188.248L251.938 190.499Z" fill="#A5C4FF"/>
<path d="M245.156 177.415V181.073L249.11 178.822V175.164L245.156 177.415Z" fill="#A5C4FF"/>
<path d="M235.555 199.926L224.258 206.398V210.056L235.555 203.584V199.926Z" fill="#A5C4FF"/>
<path d="M238.098 198.378V202.036L249.254 195.705V192.047L238.098 198.378Z" fill="#A5C4FF"/>
<path d="M231.316 189.093L242.614 182.621V178.963L231.316 185.294V189.093Z" fill="#A5C4FF"/>
<path d="M210.701 222.719L205.617 225.533V229.191L210.701 226.377V222.719Z" fill="#A5C4FF"/>
<path d="M214.795 232.426V228.768L209.711 231.722V235.38L214.795 232.426Z" fill="#A5C4FF"/>
<path d="M217.621 196.972L228.777 190.5V186.842L217.621 193.314V196.972Z" fill="#A5C4FF"/>
<path d="M213.949 215.965V212.307L202.793 218.779V222.437L213.949 215.965Z" fill="#A5C4FF"/>
<path d="M209.852 201.474L214.935 198.519V194.861L209.852 197.816V201.474Z" fill="#A5C4FF"/>
<path d="M207.168 202.881V199.223L196.012 205.695V209.353L207.168 202.881Z" fill="#A5C4FF"/>
<path d="M247.277 184.59V188.248L261.117 180.369V176.711L247.277 184.59Z" fill="#A5C4FF"/>
<path d="M228.634 220.889L217.336 227.22V231.019L228.634 224.547V220.889Z" fill="#A5C4FF"/>
<path d="M235.695 195.002L244.733 189.797V186.139L235.695 191.344V195.002Z" fill="#A5C4FF"/>
<path d="M258.574 186.7V190.358L276.368 180.088V176.43L258.574 186.7Z" fill="#A5C4FF"/>
<path d="M255.75 196.69V200.489L264.364 195.564V191.766L255.75 196.69Z" fill="#A5C4FF"/>
<path d="M266.906 190.359V194.017L273.402 190.359V186.561L266.906 190.359Z" fill="#A5C4FF"/>
<path d="M210.559 209.492L218.749 204.85V201.051L210.559 205.834V209.492Z" fill="#A5C4FF"/>
<path d="M253.066 198.238L239.227 206.258V209.916L253.066 201.896V198.238Z" fill="#A5C4FF"/>
<path d="M221.293 203.302L233.014 196.549V192.891L221.293 199.644V203.302Z" fill="#A5C4FF"/>
<path d="M224.963 214.418L213.242 221.171V224.829L224.963 218.076V214.418Z" fill="#A5C4FF"/>
<path d="M236.683 207.805L227.645 213.01V216.668L236.683 211.463V207.805Z" fill="#A5C4FF"/>
<path d="M221.717 211.603V207.945L216.633 210.759V214.558L221.717 211.603Z" fill="#A5C4FF"/>
<path d="M275.941 188.81L282.155 185.152V181.494L275.941 185.152V188.81Z" fill="#A5C4FF"/>
<path d="M242.473 212.869L231.176 219.341V222.999L242.473 216.527V212.869Z" fill="#A5C4FF"/>
<path d="M200.108 220.326L192.059 224.969V228.627L200.108 223.984V220.326Z" fill="#A5C4FF"/>
<path d="M207.027 236.928V233.27L195.871 239.741V243.399L207.027 236.928Z" fill="#A5C4FF"/>
<path d="M278.91 178.54L282.158 176.711V173.053L278.91 174.882V178.54Z" fill="#A5C4FF"/>
<path d="M193.188 244.806V241.148L180.902 248.183V251.841L193.188 244.806Z" fill="#A5C4FF"/>
<path d="M186.269 202.881L181.75 205.413V209.071L186.269 206.539V202.881Z" fill="#A5C4FF"/>
<path d="M193.33 207.242L189.094 209.634V213.292L193.33 210.9V207.242Z" fill="#A5C4FF"/>
<path d="M266.906 160.11L282.158 151.387V147.729L266.906 156.451V160.11Z" fill="#A5C4FF"/>
<path d="M272.129 165.596L282.156 159.828V156.17L272.129 161.938V165.596Z" fill="#A5C4FF"/>
<path d="M274.953 172.349L282.155 168.269V164.611L274.953 168.691V172.349Z" fill="#A5C4FF"/>
<path d="M271.988 199.505L282.156 193.736V190.078L271.988 195.847V199.505Z" fill="#A5C4FF"/>
<path d="M263.797 175.164V178.823L272.411 173.898V170.24L263.797 175.164Z" fill="#A5C4FF"/>
<path d="M251.793 173.616V177.274L269.587 167.004V163.346L251.793 173.616Z" fill="#A5C4FF"/>
<path d="M248.97 209.07L245.016 211.321V214.979L248.97 212.728V209.07Z" fill="#A5C4FF"/>
<path d="M269.446 197.393L251.652 207.522V211.321L269.446 201.051V197.393Z" fill="#A5C4FF"/>
<path d="M257.867 161.658V165.316L264.363 161.658V158L257.867 161.658Z" fill="#A5C4FF"/>
<path d="M188.953 204.99L201.522 197.674V194.016L188.953 201.332V204.99Z" fill="#A5C4FF"/>
<path d="M218.609 187.967L227.647 182.762V179.104L218.609 184.309V187.967Z" fill="#A5C4FF"/>
<path d="M204.203 196.126L215.924 189.513V185.855L204.203 192.468V196.126Z" fill="#A5C4FF"/>
<path d="M246.711 171.787L255.184 166.863V163.205L246.711 168.129V171.787Z" fill="#A5C4FF"/>
<path d="M230.188 181.213L244.027 173.334V169.535L230.188 177.555V181.213Z" fill="#A5C4FF"/>
<path d="M252.926 274.353V278.011L256.88 275.76V272.102L252.926 274.353Z" fill="url(#paint31_linear_5660_148575)"/>
<path d="M246.145 261.409V265.067L250.099 262.816V259.018L246.145 261.409Z" fill="url(#paint32_linear_5660_148575)"/>
<path d="M236.402 283.92L225.246 290.251V294.05L236.402 287.578V283.92Z" fill="url(#paint33_linear_5660_148575)"/>
<path d="M239.086 282.372V286.03L250.242 279.558V275.9L239.086 282.372Z" fill="url(#paint34_linear_5660_148575)"/>
<path d="M232.305 272.946L243.461 266.474V262.816L232.305 269.288V272.946Z" fill="url(#paint35_linear_5660_148575)"/>
<path d="M211.548 306.572L206.605 309.527V313.185L211.548 310.371V306.572Z" fill="url(#paint36_linear_5660_148575)"/>
<path d="M215.642 316.42V312.762L210.559 315.716V319.374L215.642 316.42Z" fill="url(#paint37_linear_5660_148575)"/>
<path d="M218.469 280.966L229.625 274.494V270.836L218.469 277.308V280.966Z" fill="url(#paint38_linear_5660_148575)"/>
<path d="M214.938 299.959V296.301L203.641 302.773V306.431L214.938 299.959Z" fill="url(#paint39_linear_5660_148575)"/>
<path d="M210.699 285.327L215.924 282.514V278.715L210.699 281.669V285.327Z" fill="url(#paint40_linear_5660_148575)"/>
<path d="M208.156 286.875V283.217L197 289.689V293.347L208.156 286.875Z" fill="url(#paint41_linear_5660_148575)"/>
<path d="M248.266 268.584V272.242L262.105 264.363V260.705L248.266 268.584Z" fill="url(#paint42_linear_5660_148575)"/>
<path d="M229.481 304.742L218.324 311.214V314.872L229.481 308.4V304.742Z" fill="url(#paint43_linear_5660_148575)"/>
<path d="M236.543 278.996L245.722 273.791V270.133L236.543 275.338V278.996Z" fill="url(#paint44_linear_5660_148575)"/>
<path d="M259.422 270.554V274.352L277.216 264.082V260.424L259.422 270.554Z" fill="url(#paint45_linear_5660_148575)"/>
<path d="M256.738 280.684V284.342L265.211 279.418V275.76L256.738 280.684Z" fill="url(#paint46_linear_5660_148575)"/>
<path d="M267.895 274.213V277.871L274.249 274.213V270.555L267.895 274.213Z" fill="url(#paint47_linear_5660_148575)"/>
<path d="M211.547 293.346L219.596 288.703V285.045L211.547 289.688V293.346Z" fill="url(#paint48_linear_5660_148575)"/>
<path d="M254.054 282.232L240.215 290.111V293.769L254.054 285.89V282.232Z" fill="url(#paint49_linear_5660_148575)"/>
<path d="M222.281 287.155L234.002 280.543V276.885L222.281 283.497V287.155Z" fill="url(#paint50_linear_5660_148575)"/>
<path d="M225.952 298.412L214.23 305.165V308.823L225.952 302.07V298.412Z" fill="url(#paint51_linear_5660_148575)"/>
<path d="M237.53 291.658L228.492 296.864V300.522L237.53 295.316V291.658Z" fill="url(#paint52_linear_5660_148575)"/>
<path d="M222.56 295.457V291.799L217.477 294.753V298.411L222.56 295.457Z" fill="url(#paint53_linear_5660_148575)"/>
<path d="M276.934 272.664L283.147 269.146V265.488L276.934 269.006V272.664Z" fill="url(#paint54_linear_5660_148575)"/>
<path d="M243.32 296.863L232.164 303.335V306.993L243.32 300.521V296.863Z" fill="url(#paint55_linear_5660_148575)"/>
<path d="M201.096 304.18L193.047 308.823V312.481L201.096 307.838V304.18Z" fill="url(#paint56_linear_5660_148575)"/>
<path d="M208.016 320.922V317.123L196.719 323.595V327.253L208.016 320.922Z" fill="url(#paint57_linear_5660_148575)"/>
<path d="M279.898 262.534L283.146 260.705V257.047L279.898 258.876V262.534Z" fill="url(#paint58_linear_5660_148575)"/>
<path d="M187.257 286.734L182.738 289.408V293.066L187.257 290.392V286.734Z" fill="url(#paint59_linear_5660_148575)"/>
<path d="M194.319 291.236L190.082 293.628V297.286L194.319 294.894V291.236Z" fill="url(#paint60_linear_5660_148575)"/>
<path d="M267.895 244.104L283.146 235.24V231.582L267.895 240.446V244.104Z" fill="url(#paint61_linear_5660_148575)"/>
<path d="M273.117 249.45L283.144 243.822V240.023L273.117 245.792V249.45Z" fill="url(#paint62_linear_5660_148575)"/>
<path d="M275.941 256.344L283.144 252.264V248.605L275.941 252.686V256.344Z" fill="url(#paint63_linear_5660_148575)"/>
<path d="M272.977 283.499L283.144 277.59V273.932L272.977 279.841V283.499Z" fill="url(#paint64_linear_5660_148575)"/>
<path d="M264.785 259.159V262.817L273.258 257.892V254.234L264.785 259.159Z" fill="url(#paint65_linear_5660_148575)"/>
<path d="M252.785 257.61V261.268L270.579 250.998V247.34L252.785 257.61Z" fill="url(#paint66_linear_5660_148575)"/>
<path d="M249.958 293.064L246.004 295.316V298.974L249.958 296.722V293.064Z" fill="url(#paint67_linear_5660_148575)"/>
<path d="M270.294 281.246L252.5 291.517V295.175L270.294 285.045V281.246Z" fill="url(#paint68_linear_5660_148575)"/>
<path d="M258.855 245.652V249.31L265.21 245.512V241.854L258.855 245.652Z" fill="url(#paint69_linear_5660_148575)"/>
<path d="M189.801 288.986L202.511 281.67V278.012L189.801 285.328V288.986Z" fill="url(#paint70_linear_5660_148575)"/>
<path d="M219.457 271.961L228.495 266.756V262.957L219.457 268.163V271.961Z" fill="url(#paint71_linear_5660_148575)"/>
<path d="M205.191 280.12L216.913 273.367V269.709L205.191 276.462V280.12Z" fill="url(#paint72_linear_5660_148575)"/>
<path d="M247.559 255.641L256.173 250.717V247.059L247.559 251.983V255.641Z" fill="url(#paint73_linear_5660_148575)"/>
<path d="M231.176 265.207L245.015 257.187V253.529L231.176 261.549V265.207Z" fill="url(#paint74_linear_5660_148575)"/>
<path d="M121.449 202.036C121.449 205.694 120.178 208.508 118.201 209.634C116.365 210.759 115.094 209.493 115.094 205.835C115.094 202.177 116.506 199.363 118.342 198.238C120.319 197.253 121.449 198.66 121.449 202.036ZM116.365 205.272C116.365 208.086 117.071 209.212 118.342 208.649C119.613 207.945 120.319 205.694 120.319 203.021C120.319 200.348 119.754 198.941 118.342 199.645C117.071 200.207 116.365 202.318 116.365 205.272Z" fill="url(#paint75_linear_5660_148575)"/>
<path d="M125.403 195.845L123.708 197.814L123.426 196.83L125.544 194.297L126.674 193.734V204.708L125.403 205.412V195.845Z" fill="url(#paint76_linear_5660_148575)"/>
<path d="M136.558 193.454C136.558 197.112 135.287 199.926 133.31 201.051C131.474 202.177 130.203 200.911 130.203 197.253C130.203 193.595 131.615 190.781 133.451 189.655C135.428 188.53 136.558 189.937 136.558 193.454ZM131.333 196.549C131.333 199.363 132.039 200.489 133.31 199.926C134.581 199.222 135.287 196.971 135.287 194.298C135.287 191.625 134.722 190.218 133.31 190.922C132.18 191.625 131.333 193.595 131.333 196.549Z" fill="url(#paint77_linear_5660_148575)"/>
<path d="M144.042 189.093C144.042 192.751 142.771 195.564 140.794 196.69C138.958 197.816 137.688 196.549 137.688 192.891C137.688 189.233 139.1 186.419 140.936 185.294C142.913 184.309 144.042 185.575 144.042 189.093ZM138.817 192.329C138.817 195.142 139.523 196.268 140.794 195.705C142.065 195.002 142.771 192.751 142.771 190.077C142.771 187.404 142.207 185.997 140.794 186.701C139.665 187.264 138.817 189.233 138.817 192.329Z" fill="url(#paint78_linear_5660_148575)"/>
<path d="M151.106 181.073L149.411 183.043L149.129 182.058L151.247 179.526L152.377 178.963V189.937L151.106 190.64V181.073Z" fill="url(#paint79_linear_5660_148575)"/>
<path d="M158.731 176.712L157.036 178.682L156.754 177.697L158.872 175.164L160.002 174.602V185.576L158.731 186.279V176.712Z" fill="url(#paint80_linear_5660_148575)"/>
<path d="M169.746 174.319C169.746 177.977 168.475 180.791 166.497 181.917C164.662 183.042 163.391 181.776 163.391 178.118C163.391 174.46 164.803 171.646 166.639 170.52C168.616 169.536 169.746 170.802 169.746 174.319ZM164.52 177.414C164.52 180.228 165.226 181.354 166.497 180.791C167.768 180.088 168.475 177.836 168.475 175.163C168.475 172.49 167.91 171.083 166.497 171.787C165.368 172.49 164.52 174.46 164.52 177.414Z" fill="url(#paint81_linear_5660_148575)"/>
<path d="M177.23 169.958C177.23 173.616 175.959 176.43 173.982 177.556C172.146 178.681 170.875 177.415 170.875 173.757C170.875 170.099 172.287 167.285 174.123 166.159C176.1 165.175 177.23 166.582 177.23 169.958ZM172.146 173.194C172.146 176.008 172.852 177.134 174.123 176.571C175.394 175.867 176.1 173.616 176.1 170.943C176.1 168.27 175.535 166.863 174.123 167.566C172.993 168.129 172.146 170.24 172.146 173.194Z" fill="url(#paint82_linear_5660_148575)"/>
<path d="M184.434 161.939L182.739 163.908L182.457 162.923L184.575 160.391L185.705 159.828V170.802L184.434 171.506V161.939Z" fill="url(#paint83_linear_5660_148575)"/>
<path d="M191.918 157.577L190.224 159.547L189.941 158.562L192.06 156.03L193.189 155.467V166.441L191.918 167.144V157.577Z" fill="url(#paint84_linear_5660_148575)"/>
<path d="M199.403 153.356L197.708 155.326L197.426 154.341L199.544 151.809L200.674 151.246V162.22L199.403 162.924V153.356Z" fill="url(#paint85_linear_5660_148575)"/>
<path d="M207.028 148.995L205.333 150.965L205.051 149.98L207.169 147.448L208.299 146.885V157.859L207.028 158.562V148.995Z" fill="url(#paint86_linear_5660_148575)"/>
<path d="M221.148 144.774C221.148 148.432 219.877 151.246 217.9 152.372C216.064 153.497 214.793 152.231 214.793 148.573C214.793 144.915 216.205 142.101 218.041 140.976C220.018 139.85 221.148 141.257 221.148 144.774ZM215.923 147.87C215.923 150.683 216.629 151.809 217.9 151.246C219.171 150.543 219.877 148.292 219.877 145.619C219.877 142.945 219.312 141.538 217.9 142.242C216.77 142.945 215.923 144.915 215.923 147.87Z" fill="url(#paint87_linear_5660_148575)"/>
<path d="M225.102 138.442L223.407 140.412L223.125 139.427L225.243 136.895L226.373 136.332V147.306L225.102 148.01V138.442Z" fill="url(#paint88_linear_5660_148575)"/>
<path d="M232.731 134.222L231.036 136.191L230.754 135.207L232.872 132.674L234.002 132.111V143.085L232.731 143.789V134.222Z" fill="url(#paint89_linear_5660_148575)"/>
<path d="M240.215 129.86L238.521 131.83L238.238 130.845L240.357 128.313L241.486 127.75V138.724L240.215 139.428V129.86Z" fill="url(#paint90_linear_5660_148575)"/>
<path d="M250.805 123.669L249.111 125.639L248.828 124.654L250.946 122.121L252.076 121.559V132.533L250.805 133.236V123.669Z" fill="url(#paint91_linear_5660_148575)"/>
<path d="M261.96 121.279C261.96 124.937 260.689 127.75 258.712 128.876C256.876 130.002 255.605 128.735 255.605 125.077C255.605 121.419 257.018 118.605 258.854 117.48C260.689 116.495 261.96 117.902 261.96 121.279ZM256.735 124.514C256.735 127.328 257.441 128.454 258.712 127.891C259.983 127.188 260.689 124.937 260.689 122.263C260.689 119.59 260.124 118.183 258.712 118.887C257.583 119.45 256.735 121.56 256.735 124.514Z" fill="url(#paint92_linear_5660_148575)"/>
<path d="M265.915 115.087L264.22 117.057L263.938 116.072L266.056 113.539L267.186 112.977V123.951L265.915 124.654V115.087Z" fill="url(#paint93_linear_5660_148575)"/>
<path d="M273.403 110.726L271.708 112.695L271.426 111.71L273.544 109.178L274.674 108.615V119.589L273.403 120.293V110.726Z" fill="url(#paint94_linear_5660_148575)"/>
<path d="M168.617 107.632C168.617 111.29 167.346 114.104 165.369 115.229C163.533 116.355 162.262 115.089 162.262 111.431C162.262 107.772 163.674 104.959 165.51 103.833C167.487 102.708 168.617 104.114 168.617 107.632ZM163.391 110.727C163.391 113.541 164.098 114.666 165.369 114.104C166.64 113.4 167.346 111.149 167.346 108.476C167.346 105.803 166.781 104.396 165.369 105.099C164.239 105.662 163.391 107.772 163.391 110.727Z" fill="url(#paint95_linear_5660_148575)"/>
<path d="M172.571 101.3L170.876 103.27L170.594 102.285L172.712 99.7522L173.842 99.1895V110.164L172.571 110.867V101.3Z" fill="url(#paint96_linear_5660_148575)"/>
<path d="M180.196 97.0791L178.501 99.0489L178.219 98.064L180.337 95.5315L181.467 94.9688V105.943L180.196 106.646V97.0791Z" fill="url(#paint97_linear_5660_148575)"/>
<path d="M187.68 92.7178L185.986 94.6875L185.703 93.7027L187.821 91.1702L188.951 90.6074V101.581L187.68 102.285V92.7178Z" fill="url(#paint98_linear_5660_148575)"/>
<path d="M198.274 86.5264L196.579 88.4961L196.297 87.5113L198.415 84.9788L199.545 84.416V95.3901L198.274 96.0936V86.5264Z" fill="url(#paint99_linear_5660_148575)"/>
<path d="M205.899 82.1651L204.204 84.1348L203.922 83.1499L206.04 80.6175L207.17 80.0547V91.0288L205.899 91.7322V82.1651Z" fill="url(#paint100_linear_5660_148575)"/>
<path d="M213.383 77.9444L211.689 79.9141L211.406 78.9292L213.525 76.3968L214.654 75.834V86.8081L213.383 87.5115V77.9444Z" fill="url(#paint101_linear_5660_148575)"/>
<path d="M220.868 73.5831L219.173 75.5528L218.891 74.5679L221.009 72.0354L222.139 71.4727V82.4467L220.868 83.1502V73.5831Z" fill="url(#paint102_linear_5660_148575)"/>
<path d="M202.652 125.639C202.652 129.297 201.381 132.111 199.404 133.237C197.568 134.362 196.297 133.096 196.297 129.438C196.297 125.78 197.709 122.966 199.545 121.841C201.381 120.856 202.652 122.122 202.652 125.639ZM197.427 128.875C197.427 131.689 198.133 132.815 199.404 132.252C200.675 131.549 201.381 129.297 201.381 126.624C201.381 123.951 200.816 122.544 199.404 123.248C198.274 123.81 197.427 125.78 197.427 128.875Z" fill="url(#paint103_linear_5660_148575)"/>
<path d="M210.136 121.279C210.136 124.937 208.865 127.75 206.888 128.876C205.052 130.002 203.781 128.735 203.781 125.077C203.781 121.419 205.193 118.605 207.029 117.48C209.006 116.495 210.136 117.902 210.136 121.279ZM204.911 124.514C204.911 127.328 205.617 128.454 206.888 127.891C208.159 127.188 208.865 124.937 208.865 122.263C208.865 119.59 208.3 118.183 206.888 118.887C205.758 119.45 204.911 121.56 204.911 124.514Z" fill="url(#paint104_linear_5660_148575)"/>
<path d="M217.621 117.058C217.621 120.716 216.35 123.529 214.372 124.655C212.537 125.781 211.266 124.514 211.266 120.856C211.266 117.198 212.678 114.384 214.514 113.259C216.491 112.133 217.621 113.54 217.621 117.058ZM212.537 120.153C212.537 122.967 213.243 124.092 214.514 123.529C215.785 122.826 216.491 120.575 216.491 117.902C216.491 115.229 215.926 113.822 214.514 114.525C213.243 115.088 212.537 117.198 212.537 120.153Z" fill="url(#paint105_linear_5660_148575)"/>
<path d="M225.246 112.696C225.246 116.354 223.975 119.168 221.997 120.294C220.162 121.419 218.891 120.153 218.891 116.495C218.891 112.837 220.303 110.023 222.139 108.898C223.975 107.772 225.246 109.179 225.246 112.696ZM220.02 115.791C220.02 118.605 220.726 119.731 221.997 119.168C223.268 118.465 223.975 116.214 223.975 113.54C223.975 110.867 223.41 109.46 221.997 110.164C220.868 110.727 220.02 112.837 220.02 115.791Z" fill="url(#paint106_linear_5660_148575)"/>
<path d="M232.305 104.677L230.611 106.647L230.328 105.662L232.446 103.129L233.576 102.566V113.54L232.305 114.244V104.677Z" fill="url(#paint107_linear_5660_148575)"/>
<path d="M243.32 102.144C243.32 105.802 242.049 108.616 240.072 109.741C238.236 110.867 236.965 109.601 236.965 105.942C236.965 102.284 238.377 99.4706 240.213 98.345C242.19 97.3602 243.32 98.7671 243.32 102.144ZM238.236 105.38C238.236 108.194 238.942 109.319 240.213 108.756C241.484 108.053 242.19 105.802 242.19 103.129C242.19 100.455 241.625 99.0485 240.213 99.752C238.942 100.315 238.236 102.425 238.236 105.38Z" fill="url(#paint108_linear_5660_148575)"/>
<path d="M247.274 95.9541L245.579 97.9239L245.297 96.939L247.415 94.4065L248.545 93.8438V104.818L247.274 105.521V95.9541Z" fill="url(#paint109_linear_5660_148575)"/>
<path d="M258.433 93.5615C258.433 97.2195 257.162 100.033 255.185 101.159C253.349 102.284 252.078 101.018 252.078 97.3602C252.078 93.7022 253.49 90.8883 255.326 89.7628C257.303 88.6372 258.433 90.0441 258.433 93.5615ZM253.208 96.6567C253.208 99.4706 253.914 100.596 255.185 100.033C256.456 99.3299 257.162 97.0788 257.162 94.4056C257.162 91.7325 256.597 90.3255 255.185 91.029C254.055 91.7325 253.208 93.7022 253.208 96.6567Z" fill="url(#paint110_linear_5660_148575)"/>
</g>
<defs>
<linearGradient id="paint0_linear_5660_148575" x1="315.634" y1="197.25" x2="158.53" y2="197.25" gradientUnits="userSpaceOnUse">
<stop offset="0.0353535" stop-color="#588BEB"/>
<stop offset="0.2257" stop-color="#3465C0"/>
<stop offset="0.5946" stop-color="#427FF1"/>
<stop offset="1" stop-color="#B0D2FA"/>
</linearGradient>
<linearGradient id="paint1_linear_5660_148575" x1="300.876" y1="253.583" x2="346.343" y2="252.934" gradientUnits="userSpaceOnUse">
<stop offset="0.00520833" stop-color="#1D4DA8"/>
<stop offset="1" stop-color="#3F80FB"/>
</linearGradient>
<linearGradient id="paint2_linear_5660_148575" x1="291.677" y1="-2619.54" x2="-68.9016" y2="-2585.27" gradientUnits="userSpaceOnUse">
<stop offset="0.0959596" stop-color="#3575EE"/>
<stop offset="1" stop-color="#3A74E1"/>
</linearGradient>
<linearGradient id="paint3_linear_5660_148575" x1="178.5" y1="162.5" x2="302.392" y2="176.69" gradientUnits="userSpaceOnUse">
<stop offset="0.0260417" stop-color="#4384FF"/>
<stop offset="1" stop-color="#9DBFFF"/>
</linearGradient>
<linearGradient id="paint4_linear_5660_148575" x1="33.502" y1="95.9319" x2="56.9956" y2="36.9256" gradientUnits="userSpaceOnUse">
<stop stop-color="#90B5F9"/>
<stop offset="1" stop-color="#3D81FF"/>
</linearGradient>
<linearGradient id="paint5_linear_5660_148575" x1="149.948" y1="63.8913" x2="153.998" y2="62.5427" gradientUnits="userSpaceOnUse">
<stop stop-color="#90B5F9"/>
<stop offset="1" stop-color="#3D81FF"/>
</linearGradient>
<linearGradient id="paint6_linear_5660_148575" x1="33.502" y1="101.823" x2="50.1652" y2="50.9971" gradientUnits="userSpaceOnUse">
<stop stop-color="#90B5F9"/>
<stop offset="1" stop-color="#3D81FF"/>
</linearGradient>
<linearGradient id="paint7_linear_5660_148575" x1="33.502" y1="144.752" x2="56.9956" y2="85.7459" gradientUnits="userSpaceOnUse">
<stop stop-color="#90B5F9"/>
<stop offset="1" stop-color="#3D81FF"/>
</linearGradient>
<linearGradient id="paint8_linear_5660_148575" x1="149.948" y1="112.712" x2="153.998" y2="111.363" gradientUnits="userSpaceOnUse">
<stop stop-color="#90B5F9"/>
<stop offset="1" stop-color="#3D81FF"/>
</linearGradient>
<linearGradient id="paint9_linear_5660_148575" x1="33.502" y1="150.708" x2="50.0951" y2="99.977" gradientUnits="userSpaceOnUse">
<stop stop-color="#90B5F9"/>
<stop offset="1" stop-color="#3D81FF"/>
</linearGradient>
<linearGradient id="paint10_linear_5660_148575" x1="33.502" y1="193.636" x2="56.9178" y2="134.713" gradientUnits="userSpaceOnUse">
<stop stop-color="#90B5F9"/>
<stop offset="1" stop-color="#3D81FF"/>
</linearGradient>
<linearGradient id="paint11_linear_5660_148575" x1="149.948" y1="161.673" x2="153.998" y2="160.324" gradientUnits="userSpaceOnUse">
<stop stop-color="#90B5F9"/>
<stop offset="1" stop-color="#3D81FF"/>
</linearGradient>
<linearGradient id="paint12_linear_5660_148575" x1="33.502" y1="199.528" x2="50.0951" y2="148.797" gradientUnits="userSpaceOnUse">
<stop stop-color="#90B5F9"/>
<stop offset="1" stop-color="#3D81FF"/>
</linearGradient>
<linearGradient id="paint13_linear_5660_148575" x1="33.502" y1="242.533" x2="56.9956" y2="183.527" gradientUnits="userSpaceOnUse">
<stop stop-color="#90B5F9"/>
<stop offset="1" stop-color="#3D81FF"/>
</linearGradient>
<linearGradient id="paint14_linear_5660_148575" x1="149.948" y1="210.493" x2="153.998" y2="209.144" gradientUnits="userSpaceOnUse">
<stop stop-color="#90B5F9"/>
<stop offset="1" stop-color="#3D81FF"/>
</linearGradient>
<linearGradient id="paint15_linear_5660_148575" x1="33.502" y1="248.425" x2="50.1652" y2="197.599" gradientUnits="userSpaceOnUse">
<stop stop-color="#90B5F9"/>
<stop offset="1" stop-color="#3D81FF"/>
</linearGradient>
<linearGradient id="paint16_linear_5660_148575" x1="33.502" y1="291.356" x2="56.9956" y2="232.349" gradientUnits="userSpaceOnUse">
<stop stop-color="#90B5F9"/>
<stop offset="1" stop-color="#3D81FF"/>
</linearGradient>
<linearGradient id="paint17_linear_5660_148575" x1="149.948" y1="259.315" x2="153.998" y2="257.967" gradientUnits="userSpaceOnUse">
<stop stop-color="#90B5F9"/>
<stop offset="1" stop-color="#3D81FF"/>
</linearGradient>
<linearGradient id="paint18_linear_5660_148575" x1="33.502" y1="297.311" x2="50.0951" y2="246.58" gradientUnits="userSpaceOnUse">
<stop stop-color="#90B5F9"/>
<stop offset="1" stop-color="#3D81FF"/>
</linearGradient>
<linearGradient id="paint19_linear_5660_148575" x1="33.502" y1="340.24" x2="56.9178" y2="281.316" gradientUnits="userSpaceOnUse">
<stop stop-color="#90B5F9"/>
<stop offset="1" stop-color="#3D81FF"/>
</linearGradient>
<linearGradient id="paint20_linear_5660_148575" x1="149.948" y1="308.276" x2="153.998" y2="306.927" gradientUnits="userSpaceOnUse">
<stop stop-color="#90B5F9"/>
<stop offset="1" stop-color="#3D81FF"/>
</linearGradient>
<linearGradient id="paint21_linear_5660_148575" x1="33.502" y1="346.131" x2="50.0951" y2="295.401" gradientUnits="userSpaceOnUse">
<stop stop-color="#90B5F9"/>
<stop offset="1" stop-color="#3D81FF"/>
</linearGradient>
<linearGradient id="paint22_linear_5660_148575" x1="37.6743" y1="248.773" x2="-54.8148" y2="237.434" gradientUnits="userSpaceOnUse">
<stop offset="0.0959596" stop-color="#104DBF"/>
<stop offset="1" stop-color="#102F67"/>
</linearGradient>
<linearGradient id="paint23_linear_5660_148575" x1="46.7217" y1="3.37136" x2="141.605" y2="124.712" gradientUnits="userSpaceOnUse">
<stop offset="0.0959596" stop-color="#3D80FF"/>
<stop offset="1" stop-color="#011D52"/>
</linearGradient>
<linearGradient id="paint24_linear_5660_148575" x1="24.5854" y1="257.284" x2="56.7909" y2="247.604" gradientUnits="userSpaceOnUse">
<stop offset="0.0353535" stop-color="#9D9EB3"/>
<stop offset="0.5808" stop-color="#D4D1D8"/>
<stop offset="1" stop-color="#EEEBF2"/>
</linearGradient>
<linearGradient id="paint25_linear_5660_148575" x1="41.1312" y1="252.997" x2="64.0188" y2="247.847" gradientUnits="userSpaceOnUse">
<stop offset="0.0353535" stop-color="#9D9EB3"/>
<stop offset="0.5808" stop-color="#D4D1D8"/>
<stop offset="1" stop-color="#EEEBF2"/>
</linearGradient>
<linearGradient id="paint26_linear_5660_148575" x1="34.7904" y1="234.68" x2="58.3208" y2="239.167" gradientUnits="userSpaceOnUse">
<stop offset="0.0353535" stop-color="#9D9EB3"/>
<stop offset="0.5808" stop-color="#D4D1D8"/>
<stop offset="1" stop-color="#EEEBF2"/>
</linearGradient>
<linearGradient id="paint27_linear_5660_148575" x1="40.8132" y1="259.481" x2="52.7687" y2="256.79" gradientUnits="userSpaceOnUse">
<stop offset="0.0353535" stop-color="#9D9EB3"/>
<stop offset="0.5808" stop-color="#D4D1D8"/>
<stop offset="1" stop-color="#EEEBF2"/>
</linearGradient>
<linearGradient id="paint28_linear_5660_148575" x1="20.0833" y1="251.474" x2="91.5856" y2="235.386" gradientUnits="userSpaceOnUse">
<stop offset="0.0353535" stop-color="#9D9EB3"/>
<stop offset="0.5808" stop-color="#D4D1D8"/>
<stop offset="1" stop-color="#EEEBF2"/>
</linearGradient>
<linearGradient id="paint29_linear_5660_148575" x1="20.1604" y1="251.458" x2="91.5418" y2="235.396" gradientUnits="userSpaceOnUse">
<stop offset="0.0353535" stop-color="#9D9EB3"/>
<stop offset="0.5808" stop-color="#D4D1D8"/>
<stop offset="1" stop-color="#EEEBF2"/>
</linearGradient>
<radialGradient id="paint30_radial_5660_148575" cx="0" cy="0" r="1" gradientUnits="userSpaceOnUse" gradientTransform="translate(148.851 425.884) rotate(180) scale(178.466 177.8)">
<stop stop-color="white"/>
<stop offset="1"/>
</radialGradient>
<linearGradient id="paint31_linear_5660_148575" x1="256.892" y1="273.147" x2="252.925" y2="273.147" gradientUnits="userSpaceOnUse">
<stop stop-color="#427AE4"/>
<stop offset="1" stop-color="#EFFCFF"/>
</linearGradient>
<linearGradient id="paint32_linear_5660_148575" x1="250.111" y1="260.088" x2="246.144" y2="260.088" gradientUnits="userSpaceOnUse">
<stop stop-color="#427AE4"/>
<stop offset="1" stop-color="#EFFCFF"/>
</linearGradient>
<linearGradient id="paint33_linear_5660_148575" x1="236.437" y1="285.712" x2="225.244" y2="285.712" gradientUnits="userSpaceOnUse">
<stop stop-color="#427AE4"/>
<stop offset="1" stop-color="#EFFCFF"/>
</linearGradient>
<linearGradient id="paint34_linear_5660_148575" x1="250.276" y1="277.693" x2="239.084" y2="277.693" gradientUnits="userSpaceOnUse">
<stop stop-color="#427AE4"/>
<stop offset="1" stop-color="#EFFCFF"/>
</linearGradient>
<linearGradient id="paint35_linear_5660_148575" x1="243.495" y1="264.609" x2="232.303" y2="264.609" gradientUnits="userSpaceOnUse">
<stop stop-color="#427AE4"/>
<stop offset="1" stop-color="#EFFCFF"/>
</linearGradient>
<linearGradient id="paint36_linear_5660_148575" x1="211.563" y1="307.742" x2="206.605" y2="307.742" gradientUnits="userSpaceOnUse">
<stop stop-color="#427AE4"/>
<stop offset="1" stop-color="#EFFCFF"/>
</linearGradient>
<linearGradient id="paint37_linear_5660_148575" x1="215.658" y1="313.932" x2="210.558" y2="313.932" gradientUnits="userSpaceOnUse">
<stop stop-color="#427AE4"/>
<stop offset="1" stop-color="#EFFCFF"/>
</linearGradient>
<linearGradient id="paint38_linear_5660_148575" x1="229.659" y1="272.628" x2="218.467" y2="272.628" gradientUnits="userSpaceOnUse">
<stop stop-color="#427AE4"/>
<stop offset="1" stop-color="#EFFCFF"/>
</linearGradient>
<linearGradient id="paint39_linear_5660_148575" x1="214.973" y1="298.093" x2="203.639" y2="298.093" gradientUnits="userSpaceOnUse">
<stop stop-color="#427AE4"/>
<stop offset="1" stop-color="#EFFCFF"/>
</linearGradient>
<linearGradient id="paint40_linear_5660_148575" x1="215.94" y1="279.885" x2="210.698" y2="279.885" gradientUnits="userSpaceOnUse">
<stop stop-color="#427AE4"/>
<stop offset="1" stop-color="#EFFCFF"/>
</linearGradient>
<linearGradient id="paint41_linear_5660_148575" x1="208.19" y1="285.009" x2="196.998" y2="285.009" gradientUnits="userSpaceOnUse">
<stop stop-color="#427AE4"/>
<stop offset="1" stop-color="#EFFCFF"/>
</linearGradient>
<linearGradient id="paint42_linear_5660_148575" x1="262.147" y1="262.747" x2="248.263" y2="262.747" gradientUnits="userSpaceOnUse">
<stop stop-color="#427AE4"/>
<stop offset="1" stop-color="#EFFCFF"/>
</linearGradient>
<linearGradient id="paint43_linear_5660_148575" x1="229.515" y1="306.535" x2="218.322" y2="306.535" gradientUnits="userSpaceOnUse">
<stop stop-color="#427AE4"/>
<stop offset="1" stop-color="#EFFCFF"/>
</linearGradient>
<linearGradient id="paint44_linear_5660_148575" x1="245.75" y1="271.701" x2="236.541" y2="271.701" gradientUnits="userSpaceOnUse">
<stop stop-color="#427AE4"/>
<stop offset="1" stop-color="#EFFCFF"/>
</linearGradient>
<linearGradient id="paint45_linear_5660_148575" x1="277.27" y1="262.888" x2="259.419" y2="262.888" gradientUnits="userSpaceOnUse">
<stop stop-color="#427AE4"/>
<stop offset="1" stop-color="#EFFCFF"/>
</linearGradient>
<linearGradient id="paint46_linear_5660_148575" x1="265.237" y1="277.278" x2="256.737" y2="277.278" gradientUnits="userSpaceOnUse">
<stop stop-color="#427AE4"/>
<stop offset="1" stop-color="#EFFCFF"/>
</linearGradient>
<linearGradient id="paint47_linear_5660_148575" x1="274.269" y1="271.849" x2="267.893" y2="271.849" gradientUnits="userSpaceOnUse">
<stop stop-color="#427AE4"/>
<stop offset="1" stop-color="#EFFCFF"/>
</linearGradient>
<linearGradient id="paint48_linear_5660_148575" x1="219.621" y1="286.514" x2="211.545" y2="286.514" gradientUnits="userSpaceOnUse">
<stop stop-color="#427AE4"/>
<stop offset="1" stop-color="#EFFCFF"/>
</linearGradient>
<linearGradient id="paint49_linear_5660_148575" x1="254.097" y1="284.274" x2="240.212" y2="284.274" gradientUnits="userSpaceOnUse">
<stop stop-color="#427AE4"/>
<stop offset="1" stop-color="#EFFCFF"/>
</linearGradient>
<linearGradient id="paint50_linear_5660_148575" x1="234.038" y1="278.702" x2="222.279" y2="278.702" gradientUnits="userSpaceOnUse">
<stop stop-color="#427AE4"/>
<stop offset="1" stop-color="#EFFCFF"/>
</linearGradient>
<linearGradient id="paint51_linear_5660_148575" x1="225.988" y1="300.254" x2="214.228" y2="300.254" gradientUnits="userSpaceOnUse">
<stop stop-color="#427AE4"/>
<stop offset="1" stop-color="#EFFCFF"/>
</linearGradient>
<linearGradient id="paint52_linear_5660_148575" x1="237.558" y1="293.227" x2="228.491" y2="293.227" gradientUnits="userSpaceOnUse">
<stop stop-color="#427AE4"/>
<stop offset="1" stop-color="#EFFCFF"/>
</linearGradient>
<linearGradient id="paint53_linear_5660_148575" x1="222.576" y1="292.969" x2="217.476" y2="292.969" gradientUnits="userSpaceOnUse">
<stop stop-color="#427AE4"/>
<stop offset="1" stop-color="#EFFCFF"/>
</linearGradient>
<linearGradient id="paint54_linear_5660_148575" x1="283.166" y1="266.758" x2="276.932" y2="266.758" gradientUnits="userSpaceOnUse">
<stop stop-color="#427AE4"/>
<stop offset="1" stop-color="#EFFCFF"/>
</linearGradient>
<linearGradient id="paint55_linear_5660_148575" x1="243.355" y1="298.656" x2="232.162" y2="298.656" gradientUnits="userSpaceOnUse">
<stop stop-color="#427AE4"/>
<stop offset="1" stop-color="#EFFCFF"/>
</linearGradient>
<linearGradient id="paint56_linear_5660_148575" x1="201.121" y1="305.649" x2="193.045" y2="305.649" gradientUnits="userSpaceOnUse">
<stop stop-color="#427AE4"/>
<stop offset="1" stop-color="#EFFCFF"/>
</linearGradient>
<linearGradient id="paint57_linear_5660_148575" x1="208.051" y1="318.916" x2="196.717" y2="318.916" gradientUnits="userSpaceOnUse">
<stop stop-color="#427AE4"/>
<stop offset="1" stop-color="#EFFCFF"/>
</linearGradient>
<linearGradient id="paint58_linear_5660_148575" x1="283.156" y1="258.018" x2="279.898" y2="258.018" gradientUnits="userSpaceOnUse">
<stop stop-color="#427AE4"/>
<stop offset="1" stop-color="#EFFCFF"/>
</linearGradient>
<linearGradient id="paint59_linear_5660_148575" x1="187.271" y1="287.855" x2="182.737" y2="287.855" gradientUnits="userSpaceOnUse">
<stop stop-color="#427AE4"/>
<stop offset="1" stop-color="#EFFCFF"/>
</linearGradient>
<linearGradient id="paint60_linear_5660_148575" x1="194.332" y1="292.307" x2="190.081" y2="292.307" gradientUnits="userSpaceOnUse">
<stop stop-color="#427AE4"/>
<stop offset="1" stop-color="#EFFCFF"/>
</linearGradient>
<linearGradient id="paint61_linear_5660_148575" x1="283.193" y1="233.798" x2="267.892" y2="233.798" gradientUnits="userSpaceOnUse">
<stop stop-color="#427AE4"/>
<stop offset="1" stop-color="#EFFCFF"/>
</linearGradient>
<linearGradient id="paint62_linear_5660_148575" x1="283.174" y1="241.691" x2="273.115" y2="241.691" gradientUnits="userSpaceOnUse">
<stop stop-color="#427AE4"/>
<stop offset="1" stop-color="#EFFCFF"/>
</linearGradient>
<linearGradient id="paint63_linear_5660_148575" x1="283.166" y1="249.975" x2="275.94" y2="249.975" gradientUnits="userSpaceOnUse">
<stop stop-color="#427AE4"/>
<stop offset="1" stop-color="#EFFCFF"/>
</linearGradient>
<linearGradient id="paint64_linear_5660_148575" x1="283.175" y1="275.625" x2="272.975" y2="275.625" gradientUnits="userSpaceOnUse">
<stop stop-color="#427AE4"/>
<stop offset="1" stop-color="#EFFCFF"/>
</linearGradient>
<linearGradient id="paint65_linear_5660_148575" x1="273.284" y1="255.753" x2="264.784" y2="255.753" gradientUnits="userSpaceOnUse">
<stop stop-color="#427AE4"/>
<stop offset="1" stop-color="#EFFCFF"/>
</linearGradient>
<linearGradient id="paint66_linear_5660_148575" x1="270.633" y1="249.804" x2="252.782" y2="249.804" gradientUnits="userSpaceOnUse">
<stop stop-color="#427AE4"/>
<stop offset="1" stop-color="#EFFCFF"/>
</linearGradient>
<linearGradient id="paint67_linear_5660_148575" x1="249.97" y1="294.11" x2="246.003" y2="294.11" gradientUnits="userSpaceOnUse">
<stop stop-color="#427AE4"/>
<stop offset="1" stop-color="#EFFCFF"/>
</linearGradient>
<linearGradient id="paint68_linear_5660_148575" x1="270.348" y1="283.711" x2="252.497" y2="283.711" gradientUnits="userSpaceOnUse">
<stop stop-color="#427AE4"/>
<stop offset="1" stop-color="#EFFCFF"/>
</linearGradient>
<linearGradient id="paint69_linear_5660_148575" x1="265.23" y1="243.173" x2="258.854" y2="243.173" gradientUnits="userSpaceOnUse">
<stop stop-color="#427AE4"/>
<stop offset="1" stop-color="#EFFCFF"/>
</linearGradient>
<linearGradient id="paint70_linear_5660_148575" x1="202.549" y1="279.954" x2="189.799" y2="279.954" gradientUnits="userSpaceOnUse">
<stop stop-color="#427AE4"/>
<stop offset="1" stop-color="#EFFCFF"/>
</linearGradient>
<linearGradient id="paint71_linear_5660_148575" x1="228.523" y1="264.55" x2="219.455" y2="264.55" gradientUnits="userSpaceOnUse">
<stop stop-color="#427AE4"/>
<stop offset="1" stop-color="#EFFCFF"/>
</linearGradient>
<linearGradient id="paint72_linear_5660_148575" x1="216.948" y1="271.551" x2="205.189" y2="271.551" gradientUnits="userSpaceOnUse">
<stop stop-color="#427AE4"/>
<stop offset="1" stop-color="#EFFCFF"/>
</linearGradient>
<linearGradient id="paint73_linear_5660_148575" x1="256.199" y1="248.577" x2="247.557" y2="248.577" gradientUnits="userSpaceOnUse">
<stop stop-color="#427AE4"/>
<stop offset="1" stop-color="#EFFCFF"/>
</linearGradient>
<linearGradient id="paint74_linear_5660_148575" x1="245.058" y1="255.596" x2="231.173" y2="255.596" gradientUnits="userSpaceOnUse">
<stop stop-color="#427AE4"/>
<stop offset="1" stop-color="#EFFCFF"/>
</linearGradient>
<linearGradient id="paint75_linear_5660_148575" x1="118.077" y1="197.757" x2="113.618" y2="202.885" gradientUnits="userSpaceOnUse">
<stop stop-color="white"/>
<stop offset="1" stop-color="#A0C1FF"/>
</linearGradient>
<linearGradient id="paint76_linear_5660_148575" x1="124.95" y1="193.568" x2="121.09" y2="195.92" gradientUnits="userSpaceOnUse">
<stop stop-color="white"/>
<stop offset="1" stop-color="#A0C1FF"/>
</linearGradient>
<linearGradient id="paint77_linear_5660_148575" x1="133.186" y1="189.102" x2="128.697" y2="194.234" gradientUnits="userSpaceOnUse">
<stop stop-color="white"/>
<stop offset="1" stop-color="#A0C1FF"/>
</linearGradient>
<linearGradient id="paint78_linear_5660_148575" x1="140.67" y1="184.798" x2="136.206" y2="189.927" gradientUnits="userSpaceOnUse">
<stop stop-color="white"/>
<stop offset="1" stop-color="#A0C1FF"/>
</linearGradient>
<linearGradient id="paint79_linear_5660_148575" x1="150.654" y1="178.797" x2="146.793" y2="181.148" gradientUnits="userSpaceOnUse">
<stop stop-color="white"/>
<stop offset="1" stop-color="#A0C1FF"/>
</linearGradient>
<linearGradient id="paint80_linear_5660_148575" x1="158.279" y1="174.435" x2="154.418" y2="176.787" gradientUnits="userSpaceOnUse">
<stop stop-color="white"/>
<stop offset="1" stop-color="#A0C1FF"/>
</linearGradient>
<linearGradient id="paint81_linear_5660_148575" x1="166.374" y1="170.025" x2="161.909" y2="175.153" gradientUnits="userSpaceOnUse">
<stop stop-color="white"/>
<stop offset="1" stop-color="#A0C1FF"/>
</linearGradient>
<linearGradient id="paint82_linear_5660_148575" x1="173.858" y1="165.679" x2="169.4" y2="170.807" gradientUnits="userSpaceOnUse">
<stop stop-color="white"/>
<stop offset="1" stop-color="#A0C1FF"/>
</linearGradient>
<linearGradient id="paint83_linear_5660_148575" x1="183.982" y1="159.662" x2="180.121" y2="162.013" gradientUnits="userSpaceOnUse">
<stop stop-color="white"/>
<stop offset="1" stop-color="#A0C1FF"/>
</linearGradient>
<linearGradient id="paint84_linear_5660_148575" x1="191.466" y1="155.301" x2="187.606" y2="157.652" gradientUnits="userSpaceOnUse">
<stop stop-color="white"/>
<stop offset="1" stop-color="#A0C1FF"/>
</linearGradient>
<linearGradient id="paint85_linear_5660_148575" x1="198.95" y1="151.08" x2="195.09" y2="153.431" gradientUnits="userSpaceOnUse">
<stop stop-color="white"/>
<stop offset="1" stop-color="#A0C1FF"/>
</linearGradient>
<linearGradient id="paint86_linear_5660_148575" x1="206.575" y1="146.719" x2="202.715" y2="149.07" gradientUnits="userSpaceOnUse">
<stop stop-color="white"/>
<stop offset="1" stop-color="#A0C1FF"/>
</linearGradient>
<linearGradient id="paint87_linear_5660_148575" x1="217.776" y1="140.422" x2="213.287" y2="145.554" gradientUnits="userSpaceOnUse">
<stop stop-color="white"/>
<stop offset="1" stop-color="#A0C1FF"/>
</linearGradient>
<linearGradient id="paint88_linear_5660_148575" x1="224.65" y1="136.166" x2="220.789" y2="138.517" gradientUnits="userSpaceOnUse">
<stop stop-color="white"/>
<stop offset="1" stop-color="#A0C1FF"/>
</linearGradient>
<linearGradient id="paint89_linear_5660_148575" x1="232.279" y1="131.945" x2="228.418" y2="134.297" gradientUnits="userSpaceOnUse">
<stop stop-color="white"/>
<stop offset="1" stop-color="#A0C1FF"/>
</linearGradient>
<linearGradient id="paint90_linear_5660_148575" x1="239.763" y1="127.584" x2="235.903" y2="129.935" gradientUnits="userSpaceOnUse">
<stop stop-color="white"/>
<stop offset="1" stop-color="#A0C1FF"/>
</linearGradient>
<linearGradient id="paint91_linear_5660_148575" x1="250.353" y1="121.392" x2="246.492" y2="123.744" gradientUnits="userSpaceOnUse">
<stop stop-color="white"/>
<stop offset="1" stop-color="#A0C1FF"/>
</linearGradient>
<linearGradient id="paint92_linear_5660_148575" x1="258.588" y1="117" x2="254.13" y2="122.127" gradientUnits="userSpaceOnUse">
<stop stop-color="white"/>
<stop offset="1" stop-color="#A0C1FF"/>
</linearGradient>
<linearGradient id="paint93_linear_5660_148575" x1="265.462" y1="112.81" x2="261.602" y2="115.162" gradientUnits="userSpaceOnUse">
<stop stop-color="white"/>
<stop offset="1" stop-color="#A0C1FF"/>
</linearGradient>
<linearGradient id="paint94_linear_5660_148575" x1="272.95" y1="108.449" x2="269.09" y2="110.8" gradientUnits="userSpaceOnUse">
<stop stop-color="white"/>
<stop offset="1" stop-color="#A0C1FF"/>
</linearGradient>
<linearGradient id="paint95_linear_5660_148575" x1="165.245" y1="103.28" x2="160.756" y2="108.411" gradientUnits="userSpaceOnUse">
<stop stop-color="white"/>
<stop offset="1" stop-color="#A0C1FF"/>
</linearGradient>
<linearGradient id="paint96_linear_5660_148575" x1="172.118" y1="99.0232" x2="168.258" y2="101.375" gradientUnits="userSpaceOnUse">
<stop stop-color="white"/>
<stop offset="1" stop-color="#A0C1FF"/>
</linearGradient>
<linearGradient id="paint97_linear_5660_148575" x1="179.743" y1="94.8025" x2="175.883" y2="97.154" gradientUnits="userSpaceOnUse">
<stop stop-color="white"/>
<stop offset="1" stop-color="#A0C1FF"/>
</linearGradient>
<linearGradient id="paint98_linear_5660_148575" x1="187.228" y1="90.4412" x2="183.367" y2="92.7927" gradientUnits="userSpaceOnUse">
<stop stop-color="white"/>
<stop offset="1" stop-color="#A0C1FF"/>
</linearGradient>
<linearGradient id="paint99_linear_5660_148575" x1="197.822" y1="84.2498" x2="193.961" y2="86.6012" gradientUnits="userSpaceOnUse">
<stop stop-color="white"/>
<stop offset="1" stop-color="#A0C1FF"/>
</linearGradient>
<linearGradient id="paint100_linear_5660_148575" x1="205.447" y1="79.8885" x2="201.586" y2="82.2399" gradientUnits="userSpaceOnUse">
<stop stop-color="white"/>
<stop offset="1" stop-color="#A0C1FF"/>
</linearGradient>
<linearGradient id="paint101_linear_5660_148575" x1="212.931" y1="75.6678" x2="209.071" y2="78.0192" gradientUnits="userSpaceOnUse">
<stop stop-color="white"/>
<stop offset="1" stop-color="#A0C1FF"/>
</linearGradient>
<linearGradient id="paint102_linear_5660_148575" x1="220.415" y1="71.3064" x2="216.555" y2="73.6579" gradientUnits="userSpaceOnUse">
<stop stop-color="white"/>
<stop offset="1" stop-color="#A0C1FF"/>
</linearGradient>
<linearGradient id="paint103_linear_5660_148575" x1="199.28" y1="121.345" x2="194.815" y2="126.473" gradientUnits="userSpaceOnUse">
<stop stop-color="white"/>
<stop offset="1" stop-color="#A0C1FF"/>
</linearGradient>
<linearGradient id="paint104_linear_5660_148575" x1="206.764" y1="117" x2="202.306" y2="122.127" gradientUnits="userSpaceOnUse">
<stop stop-color="white"/>
<stop offset="1" stop-color="#A0C1FF"/>
</linearGradient>
<linearGradient id="paint105_linear_5660_148575" x1="214.249" y1="112.706" x2="209.76" y2="117.837" gradientUnits="userSpaceOnUse">
<stop stop-color="white"/>
<stop offset="1" stop-color="#A0C1FF"/>
</linearGradient>
<linearGradient id="paint106_linear_5660_148575" x1="221.874" y1="108.344" x2="217.385" y2="113.476" gradientUnits="userSpaceOnUse">
<stop stop-color="white"/>
<stop offset="1" stop-color="#A0C1FF"/>
</linearGradient>
<linearGradient id="paint107_linear_5660_148575" x1="231.853" y1="102.4" x2="227.992" y2="104.752" gradientUnits="userSpaceOnUse">
<stop stop-color="white"/>
<stop offset="1" stop-color="#A0C1FF"/>
</linearGradient>
<linearGradient id="paint108_linear_5660_148575" x1="239.948" y1="97.8649" x2="235.489" y2="102.992" gradientUnits="userSpaceOnUse">
<stop stop-color="white"/>
<stop offset="1" stop-color="#A0C1FF"/>
</linearGradient>
<linearGradient id="paint109_linear_5660_148575" x1="246.822" y1="93.6775" x2="242.961" y2="96.029" gradientUnits="userSpaceOnUse">
<stop stop-color="white"/>
<stop offset="1" stop-color="#A0C1FF"/>
</linearGradient>
<linearGradient id="paint110_linear_5660_148575" x1="255.061" y1="89.2095" x2="250.572" y2="94.3411" gradientUnits="userSpaceOnUse">
<stop stop-color="white"/>
<stop offset="1" stop-color="#A0C1FF"/>
</linearGradient>
<clipPath id="clip0_5660_148575">
<rect width="308" height="483" fill="white"/>
</clipPath>
</defs>
</svg>
