<svg xmlns="http://www.w3.org/2000/svg" width="496" height="407" fill="none" viewBox="0 0 496 407"><g clip-path="url(#clip0_4649_88813)"><path fill="#104DBF" d="m200.289 203.79-3.486-2.031 1.597-.87 3.486 2.03 3.486-2.03 1.598.87-3.486 2.031 3.486 2.03-1.598.871-3.486-2.031-3.486 2.031-1.597-.871 3.486-2.03ZM219.605 210.171c-.726.436-1.743.726-2.76.726-1.017 0-2.033-.145-3.05-.58.872.725 1.307 1.305 1.307 1.885 0 .58-.435 1.161-1.307 1.596-1.162.725-2.614 1.015-4.067.87a10.465 10.465 0 0 1-4.647-1.596c-1.453-.87-2.324-1.595-2.905-2.465l1.743-1.016c.29.435.581.871 1.162 1.306.435.435 1.016.87 1.452 1.16 1.017.58 1.888.87 2.76 1.015a5.14 5.14 0 0 0 2.469-.58c.726-.435.871-.87.726-1.305-.291-.435-.872-1.016-2.033-1.741l-1.162-.58 1.597-1.015 1.162.58c2.034 1.16 3.776 1.305 5.084.58.581-.29.726-.725.726-1.015 0-.435-.436-.725-1.162-1.161-.436-.29-1.017-.435-1.598-.725a22.816 22.816 0 0 0-2.324-.435l.436-1.45c2.034.145 3.776.725 5.374 1.595 1.307.725 2.033 1.451 2.179 2.176.29 1.015-.146 1.595-1.162 2.175ZM227.304 218.44c-2.179 1.305-4.212 2.03-5.955 2.175-1.743.146-3.341-.145-4.793-1.015-1.453-.87-1.888-1.74-1.598-2.756.436-1.015 1.598-2.175 3.776-3.336 2.179-1.305 4.212-2.03 5.955-2.176 1.743-.145 3.341.146 4.793 1.016 1.453.87 1.888 1.74 1.598 2.756-.436 1.015-1.743 2.175-3.776 3.336Zm-6.536-3.771c-1.743 1.015-2.76 1.74-3.196 2.465-.435.581-.145 1.161.581 1.596.727.435 1.743.58 2.76.29 1.162-.29 2.469-.87 4.212-1.741 1.743-1.015 2.76-1.74 3.05-2.465.436-.581.145-1.161-.581-1.596-.726-.435-1.743-.58-2.76-.29-1.016.145-2.323.725-4.066 1.741ZM246.767 222.5l-19.608 3.191-1.743-1.015 19.608-3.191 1.743 1.015Zm-9.441-1.16c-1.307.725-2.615 1.16-3.631 1.305-1.162.145-2.179-.145-3.05-.58-.872-.435-1.162-1.161-1.017-1.741.145-.725.871-1.305 2.179-2.175 2.614-1.451 4.793-1.741 6.681-.726.871.581 1.307 1.161 1.016 1.741-.145.725-.871 1.45-2.178 2.176Zm-3.922-2.176c-.871.435-1.452.87-1.597 1.305-.291.29-.146.581.145.871.726.435 2.033.145 3.631-.871 1.743-1.015 2.179-1.74 1.452-2.175-.435-.29-.871-.29-1.452-.145s-1.307.435-2.179 1.015Zm7.117 9.863c-1.307.725-2.614 1.16-3.631 1.305-1.162.146-2.179-.145-3.05-.58-.871-.435-1.162-1.16-1.017-1.74.146-.725.872-1.306 2.179-2.176 2.614-1.45 4.793-1.741 6.681-.725.872.58 1.307 1.16 1.017 1.74-.145.726-.872 1.451-2.179 2.176Zm-3.921-2.321c-.872.435-1.453.871-1.598 1.306-.291.29-.145.58.145.87.726.435 2.034.145 3.631-.87 1.743-1.016 2.179-1.741 1.453-2.176-.436-.29-.872-.29-1.453-.145-.581.29-1.307.58-2.178 1.015ZM125.344 244.404l1.743-1.015 4.502 2.611-1.743 1.015-4.502-2.611ZM133.768 253.687l-2.034-1.161 8.134-4.641c1.017-.58 1.743-1.016 2.324-1.306h-1.017c-.29 0-1.598-.145-3.486-.145l.291-1.305 6.681.435 1.743 1.015-12.636 7.108ZM150.471 254.412c1.308.726 1.889 1.451 2.034 2.321.145.87-.436 1.596-1.598 2.176-1.307.725-2.759 1.16-4.357 1.015-1.598 0-3.195-.58-4.793-1.45-1.452-.871-2.324-1.596-2.614-2.321l1.888-1.015c.145.435.581.87 1.016 1.305.436.435 1.017.87 1.453 1.16.871.581 1.888.871 2.759.871.872 0 1.743-.145 2.47-.58 1.452-.871 1.307-1.886-.581-2.901a8.214 8.214 0 0 1-1.017-.581c-.436-.145-.872-.29-1.162-.435l-.436-.87 6.681-3.191 6.536 3.771-1.743 1.016-4.793-2.756-3.34 1.595c.29.145.581.145.871.29 0 .145.291.29.726.58ZM172.692 261.665l-19.607 3.192-1.743-1.016 19.607-3.191 1.743 1.015Zm-9.44-1.015c-1.308.725-2.615 1.161-3.631 1.306-1.162.145-2.179-.145-3.05-.581-.872-.435-1.162-1.16-1.017-1.74.145-.725.871-1.306 2.178-2.176 2.615-1.45 4.793-1.74 6.682-.725.871.58 1.307 1.16 1.016 1.74-.145.726-.871 1.451-2.178 2.176Zm-3.922-2.321c-.871.436-1.452.871-1.598 1.306-.29.29-.145.58.146.87.726.435 2.033.145 3.631-.87 1.743-1.015 2.178-1.741 1.452-2.176-.436-.29-.871-.29-1.452-.145-.581.29-1.307.58-2.179 1.015Zm7.117 9.864c-1.307.725-2.614 1.16-3.631 1.305-1.162.145-2.179-.145-3.05-.58-.872-.435-1.162-1.161-1.017-1.741.145-.725.872-1.305 2.179-2.175 2.614-1.451 4.793-1.741 6.681-.726.871.58 1.307 1.161 1.017 1.741-.146.725-.872 1.45-2.179 2.176Zm-3.922-2.176c-.871.435-1.452.87-1.597 1.305-.291.29-.145.58.145.871.726.435 2.033.145 3.631-.871 1.743-1.015 2.179-1.74 1.452-2.175-.435-.29-.871-.291-1.452-.145-.581.145-1.307.435-2.179 1.015ZM55.917 286.176l-3.485-2.03 1.597-.871 3.486 2.031 3.486-2.031 1.598.871-3.486 2.03 3.486 2.031-1.598.87-3.486-2.03-3.486 2.03-1.597-.87 3.485-2.031ZM66.085 298.215l-8.57-4.932 1.598-.87h6.536c1.888 0 3.34 0 4.067-.145.726 0 1.307-.145 1.888-.29.436-.146 1.017-.291 1.307-.581.581-.29.872-.725.872-1.015 0-.435-.29-.725-.872-1.16-.436-.29-1.017-.435-1.743-.726-.58-.145-1.452-.29-2.469-.29l.29-1.45c1.308 0 2.47.29 3.341.435.872.29 1.743.58 2.47 1.015 1.161.726 1.742 1.451 1.888 2.176.145.725-.436 1.45-1.453 2.031-.58.29-1.162.58-1.888.725-.726.145-1.598.29-2.47.435-1.016 0-2.468.145-4.356 0H62.018l5.955 3.481-1.888 1.161ZM82.932 300.68c-2.178 1.305-4.212 2.031-5.954 2.176-1.743.145-3.341-.145-4.793-1.016-1.453-.87-1.889-1.74-1.598-2.756.436-1.015 1.598-2.175 3.776-3.336 2.179-1.305 4.212-2.03 5.955-2.175 1.743-.145 3.34.145 4.793 1.015 1.453.87 1.888 1.741 1.598 2.756-.436 1.015-1.598 2.176-3.777 3.336Zm-6.535-3.771c-1.743 1.015-2.76 1.74-3.196 2.466-.435.58-.145 1.16.581 1.595.726.435 1.743.58 2.76.29 1.162-.29 2.469-.87 4.212-1.74 1.743-1.016 2.76-1.741 3.05-2.466.436-.58.145-1.161-.581-1.596-.726-.435-1.743-.58-2.76-.29-.871.145-2.323.871-4.066 1.741ZM102.395 304.742l-19.607 3.191-1.743-1.015 19.608-3.191 1.742 1.015Zm-9.44-1.16c-1.307.725-2.615 1.16-3.631 1.305-1.162.145-2.179-.145-3.05-.58-.872-.435-1.162-1.16-1.017-1.741.145-.725.871-1.305 2.179-2.175 2.614-1.451 4.792-1.741 6.68-.725.872.58 1.308 1.16 1.017 1.74-.145.725-.871 1.451-2.178 2.176Zm-3.922-2.176c-.871.435-1.452.87-1.597 1.306-.29.29-.146.58.145.87.726.435 2.033.145 3.63-.87 1.744-1.016 2.18-1.741 1.453-2.176-.436-.29-.871-.29-1.452-.145s-1.307.435-2.179 1.015Zm7.117 9.863c-1.307.725-2.614 1.161-3.631 1.306-1.162.145-2.179-.145-3.05-.581-.871-.435-1.162-1.16-1.017-1.74.145-.725.872-1.306 2.179-2.176 2.614-1.45 4.793-1.74 6.681-.725.871.58 1.307 1.16 1.017 1.741-.146.725-.872 1.45-2.179 2.175Zm-3.776-2.32c-.872.435-1.453.87-1.598 1.305-.29.29-.145.58.145.87.727.435 2.034.145 3.631-.87 1.743-1.015 2.179-1.741 1.453-2.176-.436-.29-.872-.29-1.453-.145-.726.29-1.452.58-2.178 1.016Z"/><path fill="url(#paint0_radial_4649_88813)" d="m0 284.001 61.147-91.96 74.218-3.771 71.169-116.907 73.201-4.207L317.789 0l.145 2.9-37.763 66.287-72.621 4.642-71.749 116.617-74.364 3.626L3.05 282.84 0 284.001Z"/><path fill="#104DBF" d="M298.471 244.694c-.145 0-.29 0-.436-.145l-2.469-1.596c-.29-.145-.435-.725-.29-1.015.145-.29.726-.435 1.017-.29l2.469 1.595c.29.145.435.726.29 1.016 0 .29-.29.435-.581.435Zm-6.1-3.771c-.145 0-.291 0-.436-.146l-2.469-1.595c-.29-.145-.436-.725-.29-1.015.145-.29.726-.435 1.016-.29l2.469 1.595c.291.145.436.725.291 1.015-.145.29-.436.436-.581.436Zm-6.245-3.917c-.146 0-.291 0-.436-.145l-2.469-1.595c-.291-.145-.436-.725-.291-1.016.146-.29.726-.435 1.017-.29l2.469 1.596c.291.145.436.725.291 1.015 0 .435-.291.435-.581.435Zm-6.101-3.771c-.145 0-.29 0-.435-.145l-2.469-1.595c-.291-.145-.436-.726-.291-1.016.145-.29.726-.435 1.017-.29l2.469 1.596c.29.145.436.725.29 1.015-.145.29-.435.435-.581.435Zm-6.245-3.771c-.145 0-.29 0-.436-.145l-2.469-1.596c-.29-.145-.435-.725-.29-1.015.145-.29.726-.435 1.016-.29l2.47 1.595c.29.145.435.726.29 1.016 0 .29-.29.435-.581.435Zm-6.1-3.916c-.145 0-.291 0-.436-.145l-2.469-1.596c-.29-.145-.436-.725-.29-1.015.145-.29.726-.435 1.016-.29l2.469 1.595c.291.145.436.725.291 1.015-.145.436-.436.436-.581.436Zm-6.245-3.772c-.146 0-.291 0-.436-.145l-2.469-1.595c-.291-.145-.436-.725-.291-1.015.145-.291.726-.436 1.017-.291l2.469 1.596c.29.145.436.725.29 1.015-.145.29-.29.435-.58.435Zm-6.101-3.771c-.145 0-.29 0-.435-.145l-2.469-1.595c-.291-.145-.436-.726-.291-1.016.145-.29.726-.435 1.017-.29l2.469 1.596c.29.145.436.725.29 1.015-.145.29-.435.435-.581.435Zm-6.245-3.771c-.145 0-.29 0-.436-.145l-2.469-1.596c-.29-.145-.436-.725-.29-1.015.145-.29.726-.435 1.016-.29l2.469 1.596c.291.145.436.725.291 1.015-.145.29-.291.435-.581.435Zm-6.1-3.916c-.145 0-.291 0-.436-.145l-2.469-1.596c-.29-.145-.436-.725-.29-1.015.145-.29.726-.435 1.016-.29l2.469 1.595c.291.145.436.726.291 1.016-.145.29-.436.435-.581.435Zm-6.246-3.771c-.145 0-.29 0-.435-.145l-2.469-1.596c-.291-.145-.436-.725-.291-1.015.145-.29.726-.435 1.017-.29l2.469 1.595c.29.145.436.725.29 1.015-.145.291-.29.436-.581.436Zm-6.1-3.772c-.145 0-.29 0-.435-.145l-2.47-1.595c-.29-.145-.435-.725-.29-1.016.145-.29.726-.435 1.017-.29l2.469 1.596c.29.145.436.725.29 1.015-.145.29-.435.435-.581.435Zm-6.245-3.916c-.145 0-.291 0-.436-.145l-2.469-1.595c-.29-.146-.436-.726-.29-1.016.145-.29.726-.435 1.016-.29l2.469 1.596c.291.145.436.725.291 1.015-.145.29-.291.435-.581.435Zm-6.1-3.771c-.145 0-.291 0-.436-.145l-2.469-1.596c-.291-.145-.436-.725-.291-1.015.146-.29.727-.435 1.017-.29l2.469 1.595c.291.145.436.726.291 1.016-.146.29-.436.435-.581.435Zm-6.246-3.771c-.145 0-.29 0-.435-.145l-2.469-1.596c-.291-.145-.436-.725-.291-1.015.145-.29.726-.435 1.017-.29l2.469 1.595c.29.145.436.725.29 1.016-.145.29-.29.435-.581.435Zm-4.793-4.642c-.435 0-.726-.29-.726-.725v-2.901c0-.435.291-.725.726-.725.436 0 .727.29.727.725v2.901c0 .435-.291.725-.727.725Zm0-7.252c-.435 0-.726-.29-.726-.725v-2.901c0-.435.291-.725.726-.725.436 0 .727.29.727.725v2.901c0 .435-.291.725-.727.725Zm0-7.252c-.435 0-.726-.291-.726-.726v-2.901c0-.435.291-.725.726-.725.436 0 .727.29.727.725v2.901c0 .435-.291.726-.727.726Zm0-7.253c-.435 0-.726-.29-.726-.725v-2.901c0-.435.291-.725.726-.725.436 0 .727.29.727.725v2.901c0 .435-.291.725-.727.725Zm0-7.252c-.435 0-.726-.29-.726-.725v-2.901c0-.435.291-.725.726-.725.436 0 .727.29.727.725v2.901c0 .435-.291.725-.727.725Zm0-7.252c-.435 0-.726-.29-.726-.726v-2.901c0-.435.291-.725.726-.725.436 0 .727.29.727.725v2.901c0 .436-.291.726-.727.726Zm0-7.253c-.435 0-.726-.29-.726-.725v-2.901c0-.435.291-.725.726-.725.436 0 .727.29.727.725v2.901c0 .435-.291.725-.727.725Zm0-7.252c-.435 0-.726-.29-.726-.725v-2.901c0-.435.291-.725.726-.725.436 0 .727.29.727.725v2.901c0 .435-.291.725-.727.725Zm0-7.252c-.435 0-.726-.29-.726-.726v-2.9c0-.436.291-.726.726-.726.436 0 .727.29.727.726v2.9c0 .436-.291.726-.727.726Zm0-7.253c-.435 0-.726-.29-.726-.725v-2.901c0-.435.291-.725.726-.725.436 0 .727.29.727.725v2.901c0 .435-.291.725-.727.725Zm0-7.252c-.435 0-.726-.29-.726-.725v-2.901c0-.435.291-.725.726-.725.436 0 .727.29.727.725v2.901c0 .435-.291.725-.727.725Zm0-7.252c-.435 0-.726-.29-.726-.726v-2.9c0-.436.291-.726.726-.726.436 0 .727.29.727.726v2.9c0 .436-.291.726-.727.726Zm0-7.253c-.435 0-.726-.29-.726-.725v-2.9c0-.436.291-.726.726-.726.436 0 .727.29.727.725v2.901c0 .435-.291.725-.727.725Zm0-7.252c-.435 0-.726-.29-.726-.725v-2.901c0-.435.291-.725.726-.725.436 0 .727.29.727.725v2.9c0 .436-.291.726-.727.726Zm0-7.252c-.435 0-.726-.29-.726-.725v-2.901c0-.435.291-.726.726-.726.436 0 .727.29.727.726v2.9c0 .436-.291.726-.727.726Zm0-7.252c-.435 0-.726-.29-.726-.726v-2.9c0-.436.291-.726.726-.726.436 0 .727.29.727.725v2.901c0 .435-.291.725-.727.725ZM370.657 202.485c-.146 0-.291 0-.436-.145l-2.469-1.595c-.291-.145-.436-.725-.291-1.015.146-.291.727-.436 1.017-.291l2.469 1.596c.291.145.436.725.291 1.015-.146.29-.291.435-.581.435Zm-6.1-3.916c-.146 0-.291 0-.436-.145l-2.469-1.595c-.291-.145-.436-.726-.291-1.016.145-.29.726-.435 1.017-.29l2.469 1.596c.29.145.436.725.29 1.015-.145.435-.435.435-.58.435Zm-6.246-3.771c-.145 0-.29 0-.436-.145l-2.469-1.596c-.29-.145-.435-.725-.29-1.015.145-.29.726-.435 1.017-.29l2.469 1.595c.29.146.435.726.29 1.016-.145.29-.29.435-.581.435Zm-6.1-3.771c-.145 0-.29 0-.436-.145l-2.469-1.596c-.29-.145-.436-.725-.29-1.015.145-.29.726-.435 1.016-.29l2.469 1.595c.291.145.436.725.291 1.016-.145.29-.436.435-.581.435Zm-6.245-3.917c-.146 0-.291 0-.436-.145l-2.469-1.595c-.291-.145-.436-.725-.291-1.015.146-.29.726-.436 1.017-.29l2.469 1.595c.291.145.436.725.291 1.015-.146.435-.291.435-.581.435Zm-6.101-3.771c-.145 0-.29 0-.435-.145l-2.469-1.595c-.291-.145-.436-.726-.291-1.016.145-.29.726-.435 1.017-.29l2.469 1.596c.29.145.436.725.29 1.015-.145.29-.435.435-.581.435Zm-6.245-3.771c-.145 0-.29 0-.436-.145l-2.469-1.595c-.29-.146-.435-.726-.29-1.016.145-.29.726-.435 1.016-.29l2.47 1.596c.29.145.435.725.29 1.015-.145.29-.29.435-.581.435Zm-6.1-3.916c-.145 0-.291 0-.436-.145l-2.469-1.596c-.29-.145-.436-.725-.29-1.015.145-.29.726-.435 1.016-.29l2.469 1.595c.291.145.436.726.291 1.016-.145.435-.436.435-.581.435Zm-6.245-3.771c-.146 0-.291 0-.436-.145l-2.469-1.596c-.291-.145-.436-.725-.291-1.015.145-.29.726-.435 1.017-.29l2.469 1.595c.29.145.436.725.291 1.015-.146.291-.291.436-.581.436Zm-6.246-3.772c-.145 0-.29 0-.436-.145l-2.469-1.595c-.29-.145-.435-.725-.29-1.015.145-.291.726-.436 1.017-.291l2.469 1.596c.29.145.435.725.29 1.015 0 .29-.29.435-.581.435Zm-6.1-3.771c-.145 0-.29 0-.436-.145l-2.469-1.595c-.29-.145-.436-.726-.29-1.016.145-.29.726-.435 1.016-.29l2.469 1.596c.291.145.436.725.291 1.015-.145.29-.291.435-.581.435Zm-6.245-3.916c-.146 0-.291 0-.436-.145l-2.469-1.596c-.291-.145-.436-.725-.291-1.015.146-.29.727-.435 1.017-.29l2.469 1.595c.291.146.436.726.291 1.016 0 .29-.291.435-.581.435Zm-6.101-3.771c-.145 0-.29 0-.435-.145l-2.469-1.596c-.291-.145-.436-.725-.291-1.015.145-.29.726-.435 1.017-.29l2.469 1.595c.29.145.436.726.29 1.016-.145.29-.29.435-.581.435Zm-6.245-3.771c-.145 0-.29 0-.436-.145l-2.469-1.596c-.29-.145-.435-.725-.29-1.015.145-.29.726-.435 1.016-.29l2.47 1.595c.29.145.435.725.29 1.015 0 .29-.29.436-.581.436Zm-6.1-3.917c-.145 0-.291 0-.436-.145l-2.469-1.595c-.29-.145-.436-.725-.29-1.016.145-.29.726-.435 1.016-.29l2.469 1.596c.291.145.436.725.291 1.015-.145.29-.291.435-.581.435Zm-4.793-4.641c-.436 0-.726-.29-.726-.725v-2.901c0-.435.29-.726.726-.726s.726.291.726.726v2.901c0 .435-.29.725-.726.725Zm0-7.253c-.436 0-.726-.29-.726-.725v-2.901c0-.435.29-.725.726-.725s.726.29.726.725v2.901c0 .435-.29.725-.726.725Zm0-7.252c-.436 0-.726-.29-.726-.725v-2.901c0-.435.29-.725.726-.725s.726.29.726.725v2.901c0 .435-.29.725-.726.725Zm0-7.252c-.436 0-.726-.29-.726-.725v-2.901c0-.435.29-.726.726-.726s.726.291.726.726v2.901c0 .435-.29.725-.726.725Zm0-7.252c-.436 0-.726-.291-.726-.726v-2.901c0-.435.29-.725.726-.725s.726.29.726.725v2.901c0 .435-.29.726-.726.726Zm0-7.253c-.436 0-.726-.29-.726-.725v-2.901c0-.435.29-.725.726-.725s.726.29.726.725v2.901c0 .435-.29.725-.726.725Zm0-7.252c-.436 0-.726-.29-.726-.725v-2.901c0-.435.29-.725.726-.725s.726.29.726.725v2.901c0 .435-.29.725-.726.725Zm0-7.252c-.436 0-.726-.29-.726-.726v-2.9c0-.436.29-.726.726-.726s.726.29.726.725v2.901c0 .436-.29.726-.726.726Zm0-7.253c-.436 0-.726-.29-.726-.725v-2.9c0-.436.29-.726.726-.726s.726.29.726.725v2.901c0 .435-.29.725-.726.725Zm0-7.252c-.436 0-.726-.29-.726-.725v-2.901c0-.435.29-.725.726-.725s.726.29.726.725v2.9c0 .436-.29.726-.726.726Zm0-7.252c-.436 0-.726-.29-.726-.726v-2.9c0-.436.29-.726.726-.726s.726.29.726.725v2.901c0 .436-.29.726-.726.726ZM225.997 286.177c-.146 0-.291 0-.436-.145l-2.469-1.595c-.291-.145-.436-.726-.291-1.016.145-.29.726-.435 1.017-.29l2.469 1.596c.29.145.436.725.29 1.015-.145.29-.435.435-.58.435Zm-6.246-3.771c-.145 0-.29 0-.436-.145l-2.469-1.596c-.29-.145-.435-.725-.29-1.015.145-.29.726-.435 1.017-.29l2.469 1.595c.29.146.435.726.29 1.016 0 .29-.29.435-.581.435Zm-6.1-3.771c-.145 0-.291 0-.436-.145l-2.469-1.596c-.29-.145-.436-.725-.29-1.015.145-.29.726-.435 1.016-.29l2.469 1.595c.291.145.436.725.291 1.016-.145.29-.436.435-.581.435Zm-6.245-3.917c-.146 0-.291 0-.436-.145l-2.469-1.595c-.291-.145-.436-.725-.291-1.015.146-.29.726-.436 1.017-.29l2.469 1.595c.291.145.436.725.291 1.015 0 .29-.291.435-.581.435Zm-6.101-3.771c-.145 0-.29 0-.435-.145l-2.469-1.595c-.291-.145-.436-.726-.291-1.016.145-.29.726-.435 1.017-.29l2.469 1.596c.29.145.436.725.29 1.015-.145.29-.435.435-.581.435Zm-6.245-3.771c-.145 0-.29 0-.436-.145l-2.469-1.595c-.29-.146-.435-.726-.29-1.016.145-.29.726-.435 1.016-.29l2.47 1.596c.29.145.435.725.29 1.015 0 .29-.29.435-.581.435Zm-6.1-3.916c-.145 0-.291 0-.436-.145l-2.469-1.596c-.29-.145-.436-.725-.29-1.015.145-.29.726-.435 1.016-.29l2.469 1.595c.291.145.436.726.291 1.016-.145.29-.436.435-.581.435Zm-6.245-3.771c-.146 0-.291 0-.436-.145l-2.469-1.596c-.291-.145-.436-.725-.291-1.015.145-.29.726-.435 1.017-.29l2.469 1.595c.29.145.436.725.29 1.015-.145.291-.29.436-.58.436Zm-6.101-3.772c-.145 0-.29 0-.435-.145l-2.469-1.595c-.291-.145-.436-.725-.291-1.015.145-.291.726-.436 1.017-.291l2.469 1.596c.29.145.436.725.29 1.015-.145.29-.435.435-.581.435Zm-6.245-3.916c-.145 0-.29 0-.436-.145l-2.469-1.595c-.29-.145-.436-.726-.29-1.016.145-.29.726-.435 1.016-.29l2.469 1.596c.291.145.436.725.291 1.015-.145.435-.291.435-.581.435Zm-6.1-3.771c-.145 0-.291 0-.436-.145l-2.469-1.596c-.29-.145-.436-.725-.29-1.015.145-.29.726-.435 1.016-.29l2.469 1.595c.291.146.436.726.291 1.016-.145.29-.436.435-.581.435Zm-6.246-3.771c-.145 0-.29 0-.435-.145l-2.469-1.596c-.291-.145-.436-.725-.291-1.015.145-.29.726-.435 1.017-.29l2.469 1.595c.29.145.436.726.29 1.016-.145.29-.29.435-.581.435Zm-6.1-3.917c-.145 0-.29 0-.435-.145l-2.47-1.595c-.29-.145-.435-.725-.29-1.015.145-.29.726-.436 1.017-.29l2.469 1.595c.29.145.436.725.29 1.015-.145.435-.435.435-.581.435Zm-6.245-3.771c-.145 0-.291 0-.436-.145l-2.469-1.595c-.29-.145-.436-.726-.29-1.016.145-.29.726-.435 1.016-.29l2.469 1.596c.291.145.436.725.291 1.015-.145.29-.291.435-.581.435Zm-6.1-3.771c-.145 0-.291 0-.436-.145l-2.469-1.595c-.291-.146-.436-.726-.291-1.016.146-.29.727-.435 1.017-.29l2.469 1.596c.291.145.436.725.291 1.015-.146.29-.436.435-.581.435Zm-4.793-4.641c-.436 0-.726-.29-.726-.726v-2.901c0-.435.29-.725.726-.725s.726.29.726.725v2.901c0 .436-.29.726-.726.726Zm0-7.253c-.436 0-.726-.29-.726-.725v-2.901c0-.435.29-.725.726-.725s.726.29.726.725v2.901c0 .435-.29.725-.726.725Zm0-7.252c-.436 0-.726-.29-.726-.725v-2.901c0-.435.29-.725.726-.725s.726.29.726.725v2.901c0 .435-.29.725-.726.725Zm0-7.252c-.436 0-.726-.29-.726-.726v-2.901c0-.435.29-.725.726-.725s.726.29.726.725v2.901c0 .436-.29.726-.726.726Zm0-7.253c-.436 0-.726-.29-.726-.725v-2.901c0-.435.29-.725.726-.725s.726.29.726.725v2.901c0 .435-.29.725-.726.725Zm0-7.252c-.436 0-.726-.29-.726-.725v-1.451c0-.435.29-.725.726-.725s.726.29.726.725v1.451c0 .435-.29.725-.726.725ZM152.358 328.094c-.145 0-.291 0-.436-.145l-2.469-1.595c-.29-.145-.436-.726-.29-1.016.145-.29.726-.435 1.016-.29l2.469 1.596c.291.145.436.725.291 1.015-.145.29-.436.435-.581.435Zm-6.246-3.771c-.145 0-.29 0-.435-.145l-2.469-1.596c-.291-.145-.436-.725-.291-1.015.145-.29.726-.435 1.017-.29l2.469 1.596c.29.145.436.725.29 1.015-.145.29-.29.435-.581.435Zm-6.245-3.916c-.145 0-.29 0-.436-.145l-2.469-1.596c-.29-.145-.435-.725-.29-1.015.145-.29.726-.435 1.016-.29l2.47 1.595c.29.145.435.726.29 1.016 0 .29-.29.435-.581.435Zm-6.1-3.771c-.145 0-.291 0-.436-.145l-2.469-1.596c-.29-.145-.436-.725-.29-1.015.145-.29.726-.435 1.016-.29l2.469 1.595c.291.145.436.725.291 1.015-.145.291-.291.436-.581.436Zm-6.245-3.772c-.146 0-.291 0-.436-.145l-2.469-1.595c-.291-.145-.436-.725-.291-1.015.145-.291.726-.436 1.017-.291l2.469 1.596c.291.145.436.725.29 1.015 0 .29-.29.435-.58.435Zm-6.101-3.916c-.145 0-.29 0-.435-.145l-2.469-1.595c-.291-.145-.436-.726-.291-1.016.145-.29.726-.435 1.017-.29l2.469 1.596c.29.145.436.725.29 1.015-.145.435-.29.435-.581.435Zm-6.245-3.771c-.145 0-.29 0-.436-.145l-2.469-1.596c-.29-.145-.436-.725-.29-1.015.145-.29.726-.435 1.016-.29l2.469 1.595c.291.146.436.726.291 1.016 0 .29-.291.435-.581.435Zm-6.1-3.771c-.145 0-.291 0-.436-.145l-2.469-1.596c-.29-.145-.436-.725-.29-1.015.145-.29.726-.435 1.016-.29l2.469 1.595c.291.145.436.726.291 1.016-.145.29-.291.435-.581.435Zm-6.246-3.917c-.145 0-.29 0-.435-.145l-2.47-1.595c-.29-.145-.435-.725-.29-1.015.145-.29.726-.436 1.017-.29l2.469 1.595c.29.145.436.725.29 1.015 0 .435-.29.435-.581.435Zm-6.1-3.771c-.145 0-.29 0-.435-.145l-2.47-1.595c-.29-.145-.435-.725-.29-1.016.145-.29.726-.435 1.017-.29l2.469 1.596c.29.145.436.725.29 1.015-.145.29-.29.435-.58.435Zm-6.245-3.771c-.145 0-.29 0-.436-.145l-2.469-1.595c-.29-.146-.436-.726-.29-1.016.145-.29.726-.435 1.016-.29l2.47 1.596c.29.145.435.725.29 1.015 0 .29-.29.435-.581.435Zm-6.1-3.771c-.145 0-.29 0-.436-.145l-2.469-1.596c-.29-.145-.436-.725-.29-1.015.145-.29.726-.435 1.016-.29l2.47 1.595c.29.145.435.726.29 1.016-.145.29-.436.435-.581.435Zm-6.246-3.916c-.145 0-.29 0-.435-.145l-2.47-1.596c-.29-.145-.435-.725-.29-1.015.145-.29.726-.435 1.017-.29l2.469 1.595c.29.145.436.725.29 1.015 0 .291-.29.436-.58.436Zm-6.1-3.772c-.145 0-.29 0-.436-.145l-2.469-1.595c-.29-.145-.435-.725-.29-1.015.145-.291.726-.436 1.017-.291l2.469 1.596c.29.145.436.725.29 1.015-.145.29-.436.435-.58.435Zm-6.245-3.771c-.145 0-.29 0-.436-.145l-2.469-1.595c-.29-.145-.436-.726-.29-1.016.145-.29.726-.435 1.016-.29l2.47 1.596c.29.145.435.725.29 1.015 0 .29-.29.435-.581.435Zm-4.648-4.641c-.436 0-.726-.29-.726-.726v-2.9c0-.436.29-.726.726-.726s.726.29.726.726v2.9c0 .291-.435.726-.726.726Zm0-7.253c-.436 0-.726-.29-.726-.725v-2.901c0-.435.29-.725.726-.725s.726.29.726.725v2.901c0 .29-.435.725-.726.725Zm0-7.252c-.436 0-.726-.29-.726-.725v-2.901c0-.435.29-.725.726-.725s.726.29.726.725v2.901c0 .29-.435.725-.726.725Zm0-7.252c-.436 0-.726-.29-.726-.725v-2.901c0-.436.29-.726.726-.726s.726.29.726.726v2.901c0 .29-.435.725-.726.725Zm0-7.253c-.436 0-.726-.29-.726-.725v-2.901c0-.435.29-.725.726-.725s.726.29.726.725v2.901c0 .29-.435.725-.726.725Zm0-7.252c-.436 0-.726-.29-.726-.725v-2.901c0-.435.29-.725.726-.725s.726.29.726.725v2.901c0 .29-.435.725-.726.725Zm0-7.252c-.436 0-.726-.29-.726-.725v-2.901c0-.435.29-.726.726-.726s.726.291.726.726v2.901c0 .29-.435.725-.726.725Zm0-7.252c-.436 0-.726-.291-.726-.726v-2.901c0-.435.29-.725.726-.725s.726.29.726.725v2.901c0 .29-.435.726-.726.726Zm0-7.253c-.436 0-.726-.29-.726-.725v-2.901c0-.435.29-.725.726-.725s.726.29.726.725v2.901c0 .29-.435.725-.726.725Zm0-7.252c-.436 0-.726-.29-.726-.725v-2.901c0-.435.29-.726.726-.726s.726.291.726.726v2.901c0 .29-.435.725-.726.725Zm0-7.252c-.436 0-.726-.291-.726-.726v-2.901c0-.435.29-.725.726-.725s.726.29.726.725v2.901c0 .29-.435.726-.726.726Z"/><mask id="mask0_4649_88813" width="316" height="303" x="3" y="2" maskUnits="userSpaceOnUse" style="mask-type:alpha"><path fill="url(#paint1_linear_4649_88813)" d="M3.05 282.841v21.467l315.175-182.033V2.031l-38.344 65.706-72.766 5.512-70.878 115.747-74.8 5.077-58.386 88.768Z"/></mask><g mask="url(#mask0_4649_88813)"><path fill="url(#paint2_linear_4649_88813)" d="M3.05 282.841v21.467l315.175-182.033V2.031l-38.344 65.706-72.766 5.512-70.878 115.747-74.8 5.077-58.386 88.768Z" opacity=".5"/></g><mask id="mask1_4649_88813" width="204" height="231" x="3" y="74" maskUnits="userSpaceOnUse" style="mask-type:alpha"><path fill="url(#paint3_linear_4649_88813)" d="m206.389 74.555-70.152 114.441-74.8 5.077-58.386 88.768v21.467l203.338-117.487V74.555Z"/></mask><g mask="url(#mask1_4649_88813)"><path fill="url(#paint4_linear_4649_88813)" d="m206.389 74.555-70.152 114.441-74.8 5.077-58.386 88.768v21.467l203.338-117.487V74.555Z" opacity=".5"/><path fill="#fff" d="M65.213 191.172c0 2.321-1.743 5.367-3.777 6.527-2.033 1.16-3.776.29-3.776-2.176 0-2.32 1.743-5.366 3.776-6.527 2.034-1.16 3.777-.29 3.777 2.176Z"/></g><path fill="#1A51B8" d="m116.194 403.663 373.707-215.829c9.005-5.077 7.843-14.214-2.469-20.306l-27.306-15.665c-10.457-6.092-26.143-6.963-35.293-1.886L51.126 365.661c-9.005 5.076-7.843 14.214 2.47 20.306L80.9 401.632c10.458 6.237 26.289 7.108 35.294 2.031Z"/><path fill="#3D7AED" d="M101.526 400.907c-6.39 0-12.636-1.595-17.43-4.351l-.145-.145-27.305-15.665c-4.067-2.466-5.519-4.932-5.519-6.382 0-1.596 2.179-2.901 3.05-3.481l373.852-215.829c2.759-1.596 6.971-2.466 11.619-2.466 6.391 0 12.636 1.595 17.429 4.351l.145.145 27.306 15.665c4.067 2.466 5.519 4.932 5.519 6.382 0 1.596-2.179 2.901-3.05 3.481L113.145 398.441c-2.759 1.596-6.971 2.466-11.619 2.466Z"/><path fill="#fff" d="M54.177 374.509 428.029 158.68c2.759-1.596 6.971-2.466 11.619-2.466 6.391 0 12.636 1.596 17.429 4.351l.145.145 27.306 15.665c2.614 1.596 4.067 3.046 4.793 4.352.436-.435.581-1.015.581-1.596 0-1.45-1.453-3.916-5.519-6.382l-27.306-15.665-.145-.145c-4.793-2.756-11.038-4.351-17.429-4.351-4.648 0-8.86.87-11.619 2.466L54.177 370.883c-.871.58-3.05 1.885-3.05 3.481 0 .58.145 1.16.58 2.03.727-.87 1.89-1.595 2.47-1.885Z"/><path fill="#fff" d="m68.12 378.569 28.176 15.085 384.89-222.356-26.724-15.665L68.119 378.569Z" opacity=".5"/><g fill="#fff" opacity=".3"><path d="M455.536 155.233 60.225 382.363l.724 1.258L456.26 156.49l-.724-1.257ZM468.589 163.162 72.981 390.301l.723 1.257L469.313 164.42l-.724-1.258ZM481.692 171.119 85.74 398.266l.724 1.257 395.952-227.146-.724-1.258Z"/></g><g fill="#fff" opacity=".3"><path d="m431.824 151.769-.719 1.26 56.81 32.27.718-1.261-56.809-32.269ZM419.577 158.743l-.718 1.261 56.81 32.27.718-1.261-56.81-32.27ZM407.378 165.735l-.718 1.261 56.81 32.277.718-1.261-56.81-32.277ZM395.136 172.712l-.718 1.261 56.936 32.348.718-1.261-56.936-32.348ZM382.92 179.747l-.719 1.261 56.93 32.355.718-1.261-56.929-32.355ZM370.75 186.597l-.719 1.26 57.056 32.427.718-1.261-57.055-32.426ZM358.549 193.593l-.719 1.261 57.056 32.433.718-1.261-57.055-32.433ZM346.33 200.626l-.719 1.261 57.049 32.439.719-1.26-57.049-32.44ZM334.217 207.675l-.719 1.261 57.175 32.511.719-1.261-57.175-32.511ZM322.016 214.671l-.719 1.261 57.175 32.518.719-1.261-57.175-32.518ZM309.758 221.683l-.719 1.26 57.295 32.59.719-1.26-57.295-32.59ZM297.555 228.681l-.719 1.26 57.295 32.597.719-1.261-57.295-32.596ZM285.393 235.533l-.719 1.26 57.295 32.596.719-1.26-57.295-32.596ZM273.166 242.562l-.719 1.26 57.415 32.675.719-1.26-57.415-32.675ZM260.932 249.539l-.719 1.26 57.414 32.674.72-1.26-57.415-32.674ZM248.729 256.539l-.719 1.26 57.541 32.753.719-1.26-57.541-32.753ZM236.499 263.517l-.72 1.26 57.541 32.753.719-1.26-57.54-32.753ZM224.268 270.545l-.719 1.26 57.534 32.759.719-1.26-57.534-32.759ZM212.038 277.523l-.72 1.26 57.661 32.832.719-1.26-57.66-32.832ZM199.905 284.4l-.719 1.26 57.66 32.838.719-1.26-57.66-32.838ZM187.651 291.4l-.719 1.26 57.779 32.91.72-1.26-57.78-32.91ZM175.571 298.476l-.719 1.26 57.779 32.917.72-1.26-57.78-32.917ZM163.364 305.482l-.719 1.26 57.779 32.923.72-1.259-57.78-32.924ZM151.108 312.479l-.719 1.259 57.899 32.995.72-1.259-57.9-32.995ZM138.902 319.486l-.72 1.26 57.899 33.002.72-1.26-57.899-33.002ZM126.679 326.465l-.72 1.26 58.025 33.073.72-1.259-58.025-33.074ZM114.47 333.473l-.72 1.259 58.025 33.081.721-1.26-58.026-33.08ZM102.288 340.34l-.72 1.26 58.019 33.08.72-1.26-58.019-33.08ZM90.08 347.35l-.72 1.259 58.144 33.159.721-1.259L90.08 347.35ZM77.859 354.328l-.72 1.26 58.145 33.159.72-1.26-58.145-33.159ZM65.615 361.35l-.72 1.259 58.264 33.238.72-1.259-58.264-33.238ZM53.396 368.327l-.72 1.259 58.264 33.238.721-1.26-58.265-33.237Z"/></g><path fill="#fff" d="M399.851 152.008c-.436 0-.726-.29-.726-.725v-1.45c0-.435.29-.726.726-.726s.726.291.726.726v1.45c0 .29-.435.725-.726.725ZM399.851 212.783c-.436 0-.726-.29-.726-.725v-3.046c0-.435.29-.725.726-.725s.726.29.726.725v3.046c0 .435-.435.725-.726.725Zm0-7.542c-.436 0-.726-.29-.726-.726v-3.046c0-.435.29-.725.726-.725s.726.29.726.725v3.046c0 .291-.435.726-.726.726Zm0-7.688c-.436 0-.726-.29-.726-.725v-3.046c0-.435.29-.725.726-.725s.726.29.726.725v3.046c0 .435-.435.725-.726.725Zm0-7.542c-.436 0-.726-.29-.726-.725v-3.046c0-.436.29-.726.726-.726s.726.29.726.726v3.046c0 .435-.435.725-.726.725Zm0-7.688c-.436 0-.726-.29-.726-.725v-3.046c0-.435.29-.725.726-.725s.726.29.726.725v3.046c0 .435-.435.725-.726.725Zm0-7.542c-.436 0-.726-.29-.726-.725v-3.046c0-.435.29-.725.726-.725s.726.29.726.725v3.046c0 .435-.435.725-.726.725Zm0-7.687c-.436 0-.726-.291-.726-.726v-3.046c0-.435.29-.725.726-.725s.726.29.726.725v3.046c0 .435-.435.726-.726.726Zm0-7.543c-.436 0-.726-.29-.726-.725v-3.046c0-.435.29-.725.726-.725s.726.29.726.725v3.046c0 .435-.435.725-.726.725ZM399.851 218.729c-.436 0-.726-.29-.726-.725v-1.451c0-.435.29-.725.726-.725s.726.29.726.725v1.451c0 .435-.435.725-.726.725ZM373.271 137.213c-.436 0-.726-.29-.726-.725v-1.45c0-.435.29-.726.726-.726s.726.291.726.726v1.45c0 .435-.29.725-.726.725ZM373.271 198.133c-.436 0-.726-.29-.726-.725v-3.046c0-.436.29-.726.726-.726s.726.29.726.726v3.046c0 .29-.29.725-.726.725Zm0-7.688c-.436 0-.726-.29-.726-.725v-3.046c0-.435.29-.725.726-.725s.726.29.726.725v3.046c0 .435-.29.725-.726.725Zm0-7.542c-.436 0-.726-.29-.726-.725v-3.046c0-.435.29-.726.726-.726s.726.291.726.726v3.046c0 .29-.29.725-.726.725Zm0-7.688c-.436 0-.726-.29-.726-.725v-3.046c0-.435.29-.725.726-.725s.726.29.726.725v3.046c0 .435-.29.725-.726.725Zm0-7.542c-.436 0-.726-.29-.726-.725v-3.046c0-.435.29-.725.726-.725s.726.29.726.725v3.046c0 .435-.29.725-.726.725Zm0-7.687c-.436 0-.726-.291-.726-.726v-3.046c0-.435.29-.725.726-.725s.726.29.726.725v3.046c0 .435-.29.726-.726.726Zm0-7.543c-.436 0-.726-.29-.726-.725v-3.046c0-.435.29-.725.726-.725s.726.29.726.725v3.046c0 .435-.29.725-.726.725Zm0-7.542c-.436 0-.726-.29-.726-.726v-3.045c0-.436.29-.726.726-.726s.726.29.726.726v3.045c0 .291-.29.726-.726.726ZM373.271 204.081c-.436 0-.726-.29-.726-.726v-1.45c0-.435.29-.725.726-.725s.726.29.726.725v1.45c0 .436-.29.726-.726.726ZM327.957 156.94c-.436 0-.727-.29-.727-.725v-1.451c0-.435.291-.725.727-.725.435 0 .726.29.726.725v1.451c0 .435-.291.725-.726.725ZM327.957 255.862c-.436 0-.727-.29-.727-.725v-2.756c0-.435.291-.725.727-.725.435 0 .726.29.726.725v2.756c0 .435-.291.725-.726.725Zm0-7.107c-.436 0-.727-.29-.727-.725v-2.756c0-.435.291-.725.727-.725.435 0 .726.29.726.725v2.756c0 .435-.291.725-.726.725Zm0-6.962c-.436 0-.727-.29-.727-.725v-2.756c0-.435.291-.725.727-.725.435 0 .726.29.726.725v2.756c0 .29-.291.725-.726.725Zm0-7.107c-.436 0-.727-.29-.727-.726v-2.755c0-.436.291-.726.727-.726.435 0 .726.29.726.726v2.755c0 .436-.291.726-.726.726Zm0-7.108c-.436 0-.727-.29-.727-.725v-2.756c0-.435.291-.725.727-.725.435 0 .726.29.726.725v2.756c0 .435-.291.725-.726.725Zm0-6.962c-.436 0-.727-.29-.727-.725v-2.756c0-.435.291-.725.727-.725.435 0 .726.29.726.725v2.756c0 .29-.291.725-.726.725Zm0-7.107c-.436 0-.727-.29-.727-.725v-2.756c0-.435.291-.725.727-.725.435 0 .726.29.726.725v2.756c0 .435-.291.725-.726.725Zm0-7.107c-.436 0-.727-.29-.727-.726v-2.755c0-.436.291-.726.727-.726.435 0 .726.29.726.726v2.755c0 .436-.291.726-.726.726Zm0-6.963c-.436 0-.727-.29-.727-.725v-2.901c0-.435.291-.725.727-.725.435 0 .726.29.726.725v2.756c0 .435-.291.87-.726.87Zm0-7.107c-.436 0-.727-.29-.727-.725v-2.756c0-.435.291-.725.727-.725.435 0 .726.29.726.725v2.756c0 .435-.291.725-.726.725Zm0-7.107c-.436 0-.727-.29-.727-.725v-2.756c0-.435.291-.725.727-.725.435 0 .726.29.726.725v2.756c0 .435-.291.725-.726.725Zm0-7.107c-.436 0-.727-.29-.727-.726v-2.755c0-.436.291-.726.727-.726.435 0 .726.29.726.726v2.755c0 .436-.291.726-.726.726Zm0-6.963c-.436 0-.727-.29-.727-.725v-2.756c0-.435.291-.725.727-.725.435 0 .726.29.726.725v2.756c0 .29-.291.725-.726.725Zm0-7.107c-.436 0-.727-.29-.727-.725v-2.756c0-.435.291-.725.727-.725.435 0 .726.29.726.725v2.756c0 .435-.291.725-.726.725ZM327.957 261.518c-.436 0-.727-.29-.727-.725v-1.451c0-.435.291-.725.727-.725.435 0 .726.29.726.725v1.451c0 .435-.291.725-.726.725ZM300.797 142.29c-.436 0-.727-.29-.727-.726v-1.45c0-.435.291-.725.727-.725.435 0 .726.29.726.725v1.45c0 .436-.291.726-.726.726ZM300.797 241.212c-.436 0-.727-.29-.727-.725v-2.756c0-.435.291-.725.727-.725.435 0 .726.29.726.725v2.756c0 .29-.291.725-.726.725Zm0-7.107c-.436 0-.727-.29-.727-.725v-2.756c0-.435.291-.726.727-.726.435 0 .726.291.726.726v2.756c0 .435-.291.725-.726.725Zm0-7.107c-.436 0-.727-.291-.727-.726v-2.756c0-.435.291-.725.727-.725.435 0 .726.29.726.725v2.756c0 .435-.291.726-.726.726Zm0-6.963c-.436 0-.727-.29-.727-.725v-2.756c0-.435.291-.725.727-.725.435 0 .726.29.726.725v2.756c0 .29-.291.725-.726.725Zm0-7.107c-.436 0-.727-.29-.727-.725v-2.756c0-.435.291-.725.727-.725.435 0 .726.29.726.725v2.756c0 .435-.291.725-.726.725Zm0-7.107c-.436 0-.727-.29-.727-.725v-2.756c0-.435.291-.726.727-.726.435 0 .726.291.726.726v2.756c0 .435-.291.725-.726.725Zm0-7.107c-.436 0-.727-.291-.727-.726v-2.756c0-.435.291-.725.727-.725.435 0 .726.29.726.725v2.756c0 .435-.291.726-.726.726Zm0-6.963c-.436 0-.727-.29-.727-.725v-2.756c0-.435.291-.725.727-.725.435 0 .726.29.726.725v2.756c0 .435-.291.725-.726.725Zm0-7.107c-.436 0-.727-.29-.727-.725v-2.756c0-.435.291-.725.727-.725.435 0 .726.29.726.725v2.756c0 .435-.291.725-.726.725Zm0-7.107c-.436 0-.727-.29-.727-.725v-2.756c0-.436.291-.726.727-.726.435 0 .726.29.726.726v2.756c0 .435-.291.725-.726.725Zm0-6.962c-.436 0-.727-.291-.727-.726v-2.756c0-.435.291-.725.727-.725.435 0 .726.29.726.725v2.756c0 .29-.291.726-.726.726Zm0-7.108c-.436 0-.727-.29-.727-.725v-2.756c0-.435.291-.725.727-.725.435 0 .726.29.726.725v2.756c0 .435-.291.725-.726.725Zm0-7.107c-.436 0-.727-.29-.727-.725v-2.756c0-.435.291-.725.727-.725.435 0 .726.29.726.725v2.756c0 .435-.291.725-.726.725Zm0-6.962c-.436 0-.727-.29-.727-.725v-2.756c0-.436.291-.726.727-.726.435 0 .726.29.726.726v2.756c0 .29-.291.725-.726.725ZM300.797 246.868c-.436 0-.727-.29-.727-.726v-1.45c0-.435.291-.725.727-.725.435 0 .726.29.726.725v1.45c0 .436-.291.726-.726.726ZM180.826 290.817c-.436 0-.726-.29-.726-.725v-1.451c0-.435.29-.725.726-.725s.726.29.726.725v1.451c0 .435-.29.725-.726.725ZM180.826 339.407c-.436 0-.726-.29-.726-.725v-2.756c0-.435.29-.725.726-.725s.726.29.726.725v2.756c0 .435-.29.725-.726.725Zm0-6.962c-.436 0-.726-.29-.726-.726v-2.755c0-.436.29-.726.726-.726s.726.29.726.726v2.755c0 .436-.29.726-.726.726Zm0-6.817c-.436 0-.726-.291-.726-.726v-2.901c0-.435.29-.725.726-.725s.726.29.726.725v2.756c0 .435-.29.871-.726.871Zm0-6.963c-.436 0-.726-.29-.726-.725v-2.756c0-.435.29-.725.726-.725s.726.29.726.725v2.756c0 .29-.29.725-.726.725Zm0-6.962c-.436 0-.726-.29-.726-.725v-2.756c0-.435.29-.725.726-.725s.726.29.726.725v2.756c0 .29-.29.725-.726.725Zm0-6.962c-.436 0-.726-.29-.726-.725v-2.756c0-.435.29-.726.726-.726s.726.291.726.726v2.756c0 .435-.29.725-.726.725Zm0-6.962c-.436 0-.726-.29-.726-.726v-2.756c0-.435.29-.725.726-.725s.726.29.726.725v2.756c0 .436-.29.726-.726.726ZM180.826 345.065c-.436 0-.726-.29-.726-.725v-1.451c0-.435.29-.725.726-.725s.726.29.726.725v1.451c0 .435-.29.725-.726.725ZM154.392 276.169c-.436 0-.726-.291-.726-.726v-1.45c0-.435.29-.725.726-.725s.726.29.726.725v1.45c0 .29-.29.726-.726.726ZM154.392 324.759c-.436 0-.726-.29-.726-.725v-2.756c0-.435.29-.725.726-.725s.726.29.726.725v2.756c0 .435-.29.725-.726.725Zm0-6.962c-.436 0-.726-.29-.726-.725v-2.756c0-.435.29-.726.726-.726s.726.291.726.726v2.756c0 .435-.29.725-.726.725Zm0-6.962c-.436 0-.726-.291-.726-.726v-2.756c0-.435.29-.725.726-.725s.726.29.726.725v2.756c0 .435-.29.726-.726.726Zm0-6.963c-.436 0-.726-.29-.726-.725v-2.756c0-.435.29-.725.726-.725s.726.29.726.725v2.756c0 .435-.29.725-.726.725Zm0-6.962c-.436 0-.726-.29-.726-.725v-2.756c0-.435.29-.725.726-.725s.726.29.726.725v2.756c0 .435-.29.725-.726.725Zm0-6.962c-.436 0-.726-.29-.726-.725v-2.756c0-.435.29-.725.726-.725s.726.29.726.725v2.756c0 .435-.29.725-.726.725Zm0-6.962c-.436 0-.726-.29-.726-.726v-2.755c0-.436.29-.726.726-.726s.726.29.726.726v2.755c0 .436-.29.726-.726.726ZM154.392 330.417c-.436 0-.726-.291-.726-.726v-1.45c0-.435.29-.725.726-.725s.726.29.726.725v1.45c0 .29-.29.726-.726.726ZM254.173 286.901c-.435 0-.726-.29-.726-.725v-1.451c0-.435.291-.725.726-.725.436 0 .727.29.727.725v1.451c0 .435-.291.725-.727.725ZM254.173 298.36c-.435 0-.726-.29-.726-.725v-2.321c0-.435.291-.725.726-.725.436 0 .727.29.727.725v2.321c0 .435-.291.725-.727.725Zm0-5.802c-.435 0-.726-.29-.726-.725v-2.321c0-.435.291-.725.726-.725.436 0 .727.29.727.725v2.321c0 .435-.291.725-.727.725ZM254.173 303.147c-.435 0-.726-.29-.726-.725v-1.451c0-.435.291-.725.726-.725.436 0 .727.29.727.725v1.451c0 .435-.291.725-.727.725ZM227.74 272.251c-.436 0-.726-.291-.726-.726v-1.45c0-.435.29-.725.726-.725s.726.29.726.725v1.45c0 .29-.29.726-.726.726ZM227.74 283.565c-.436 0-.726-.29-.726-.726v-2.32c0-.435.29-.725.726-.725s.726.29.726.725v2.32c0 .436-.29.726-.726.726Zm0-5.657c-.436 0-.726-.29-.726-.725v-2.321c0-.435.29-.725.726-.725s.726.29.726.725v2.321c0 .435-.29.725-.726.725ZM227.74 288.497c-.436 0-.726-.29-.726-.726v-1.45c0-.435.29-.725.726-.725s.726.29.726.725v1.45c0 .436-.29.726-.726.726Z"/><path fill="#fff" d="M402.9 219.89c-1.307.725-3.485.725-4.793 0-1.307-.726-1.307-2.031 0-2.756 1.308-.725 3.486-.725 4.793 0 1.453.87 1.453 2.03 0 2.756ZM375.74 204.515c-1.307.725-3.486.725-4.793 0-1.307-.726-1.307-2.031 0-2.756 1.307-.725 3.486-.725 4.793 0s1.307 2.03 0 2.756ZM330.135 261.952c-1.307.725-3.486.725-4.793 0s-1.307-2.031 0-2.756c1.307-.725 3.486-.725 4.793 0s1.307 2.031 0 2.756ZM302.975 246.433c-1.308.725-3.486.725-4.793 0-1.308-.726-1.308-2.031 0-2.756 1.307-.725 3.485-.725 4.793 0 1.307.87 1.307 2.03 0 2.756ZM256.642 303.872c-1.307.725-3.485.725-4.792 0-1.308-.725-1.308-2.031 0-2.756 1.307-.725 3.485-.725 4.792 0 1.308.725 1.308 2.031 0 2.756ZM229.482 288.351c-1.307.725-3.485.725-4.793 0-1.307-.726-1.307-2.031 0-2.756 1.308-.726 3.486-.726 4.793 0 1.308.725 1.308 2.03 0 2.756ZM183.732 345.79c-1.307.725-3.485.725-4.793 0-1.307-.725-1.307-2.031 0-2.756 1.308-.725 3.486-.725 4.793 0 1.308.87 1.308 2.031 0 2.756ZM156.426 330.415c-1.307.725-3.486.725-4.793 0s-1.307-2.031 0-2.756c1.307-.725 3.486-.725 4.793 0 1.452.725 1.452 2.031 0 2.756Z"/><path fill="#8EAEFF" d="m472.762 18.855-62.599 32.056 15.686 8.703-53.594 75.279-72.185 3.336L226.868 267.9l-72.911 5.077-83.37 102.692 27.306 15.956 83.369-102.403 72.766-4.642 74.364-129.961 71.459-4.061 52.577-75.715 12.927 7.978 7.407-63.965Z"/><path fill="#5D8AFB" d="m328.322 154.726 71.459-4.061L372.185 135 300 138.336l28.322 16.39ZM181.262 289.222l72.766-4.641-27.16-16.681-72.911 5.077 27.305 16.245Z"/><path fill="#D1DEFF" d="m254.027 284.58 74.364-129.961-28.322-16.39L226.867 267.9l27.16 16.68ZM153.957 272.977l-83.37 102.692 27.306 15.955 83.369-102.402-27.305-16.245Z"/><path fill="url(#paint5_linear_4649_88813)" d="m97.893 391.625 83.368-102.403 72.766-4.642 74.364-129.961 71.459-4.061 52.577-75.715 12.927 7.978 7.407-63.965v10.008l-6.681 57.293-13.507-8.123-52.287 74.699-70.733 4.497-75.09 129.816-72.766 4.497-80.464 98.776-3.34 1.306Z"/><path fill="#AFB6E5" d="m97.893 391.625 83.368-102.403 72.766-4.642 74.364-129.961 71.459-4.061 52.577-75.715 12.927 7.978 7.407-63.965v10.008l-6.681 57.293-13.507-8.123-52.287 74.699-70.733 4.497-75.09 129.816-72.766 4.497-80.464 98.776-3.34 1.306Z"/><path fill="url(#paint6_radial_4649_88813)" d="M425.267 59.323v-.145l-15.105-8.268 15.105 8.413Z"/><path fill="url(#paint7_radial_4649_88813)" d="M425.267 59.323v-.145l-15.105-8.268 15.105 8.413Z"/><path fill="url(#paint8_linear_4649_88813)" d="M275.377 400.038c-.145 0-.145 0-.29-.145l-93.245-54.538.581-1.015 92.954 54.392 73.057-43.079a.442.442 0 0 1 .581 0l69.28 38.728-.581 1.015-69.135-38.582-73.056 43.079c0 .145-.146.145-.146.145Z"/><path fill="url(#paint9_linear_4649_88813)" d="m434.709 384.809-87-48.446-16.703 9.718c-.145.145-.435.145-.581 0l-75.38-42.208.581-1.016 74.945 42.064 16.702-9.718c.146-.145.436-.145.581 0l87.29 48.735-.435.871Z"/><path fill="url(#paint10_linear_4649_88813)" d="m441.098 371.319-116.774-65.851c-.146-.145-.291-.29-.291-.58 0-.291.145-.436.291-.581l115.467-63.82-38.489-21.177.581-1.015 39.36 21.612c.145.145.291.29.291.58s-.146.435-.291.58l-115.467 63.821 115.758 65.415-.436 1.016Z"/><path fill="url(#paint11_linear_4649_88813)" d="m430.641 375.234-121.276-68.027c-.146-.145-.291-.29-.291-.58s.145-.435.291-.58l49.963-27.559-30.791-17.115.581-1.016 31.807 17.551c.146.145.291.29.291.58s-.145.435-.291.58l-49.963 27.559 120.406 67.592-.727 1.015Z"/><path fill="#104DBF" d="m285.4 231.06 18.737-34.231 23.238-42.209c.291-.58.872-.58 1.307-.58.146.145 33.261-1.886 33.261-1.596 0 .291-32.97 2.466-33.261 2.756l-23.819 42.064L285.4 231.06Z"/></g><defs><linearGradient id="paint1_linear_4649_88813" x1="182.698" x2="92.814" y1="190.721" y2="37.498" gradientUnits="userSpaceOnUse"><stop stop-color="#666"/><stop offset="1" stop-color="#fff"/></linearGradient><linearGradient id="paint2_linear_4649_88813" x1="182.698" x2="92.814" y1="190.721" y2="37.498" gradientUnits="userSpaceOnUse"><stop stop-color="#104DBF"/><stop offset="1" stop-color="#104DBF"/></linearGradient><linearGradient id="paint3_linear_4649_88813" x1="118.769" x2="162.963" y1="196.097" y2="74.22" gradientUnits="userSpaceOnUse"><stop stop-color="#1A1A1A"/><stop offset="1" stop-color="#fff"/></linearGradient><linearGradient id="paint4_linear_4649_88813" x1="118.769" x2="162.963" y1="196.097" y2="74.22" gradientUnits="userSpaceOnUse"><stop stop-color="#104DBF"/><stop offset="1" stop-color="#AFCBFF"/></linearGradient><linearGradient id="paint5_linear_4649_88813" x1="105.673" x2="484.507" y1="406.532" y2="25.677" gradientUnits="userSpaceOnUse"><stop stop-color="#AE3DBB"/><stop offset=".078" stop-color="#9F3DC0"/><stop offset=".273" stop-color="#7D3ECC"/><stop offset=".379" stop-color="#703ED1"/><stop offset=".589" stop-color="#5A78E0"/><stop offset=".717" stop-color="#4C9DE9"/><stop offset="1" stop-color="#43E8E1"/></linearGradient><linearGradient id="paint8_linear_4649_88813" x1="287.649" x2="283.608" y1="375.832" y2="337.05" gradientUnits="userSpaceOnUse"><stop stop-color="#104DBF"/><stop offset=".189" stop-color="#3771DE"/><stop offset=".606" stop-color="#4C9BE8"/><stop offset="1" stop-color="#2AF6FF"/></linearGradient><linearGradient id="paint9_linear_4649_88813" x1="335.635" x2="324.477" y1="349.194" y2="293.758" gradientUnits="userSpaceOnUse"><stop stop-color="#104DBF"/><stop offset=".189" stop-color="#3771DE"/><stop offset=".606" stop-color="#4C9BE8"/><stop offset="1" stop-color="#2AF6FF"/></linearGradient><linearGradient id="paint10_linear_4649_88813" x1="376.612" x2="330.026" y1="304.817" y2="223.947" gradientUnits="userSpaceOnUse"><stop stop-color="#104DBF"/><stop offset=".189" stop-color="#3771DE"/><stop offset=".606" stop-color="#4C9BE8"/><stop offset="1" stop-color="#2AF6FF"/></linearGradient><linearGradient id="paint11_linear_4649_88813" x1="363.797" x2="335.148" y1="325.311" y2="256.358" gradientUnits="userSpaceOnUse"><stop stop-color="#104DBF"/><stop offset=".189" stop-color="#3771DE"/><stop offset=".606" stop-color="#4C9BE8"/><stop offset="1" stop-color="#2AF6FF"/></linearGradient><radialGradient id="paint0_radial_4649_88813" cx="0" cy="0" r="1" gradientTransform="matrix(229.488 0 0 229.18 165.753 87.256)" gradientUnits="userSpaceOnUse"><stop stop-color="#fff"/><stop offset="1" stop-color="#377DFF"/></radialGradient><radialGradient id="paint6_radial_4649_88813" cx="0" cy="0" r="1" gradientTransform="matrix(6.1395 0 0 6.13126 417.691 55.073)" gradientUnits="userSpaceOnUse"><stop stop-color="#836DF3"/><stop offset=".114" stop-color="#6655BD"/><stop offset=".235" stop-color="#4B3E8B"/><stop offset=".358" stop-color="#342B60"/><stop offset=".482" stop-color="#211C3E"/><stop offset=".608" stop-color="#130F23"/><stop offset=".735" stop-color="#08070F"/><stop offset=".864" stop-color="#020204"/><stop offset="1"/></radialGradient><radialGradient id="paint7_radial_4649_88813" cx="0" cy="0" r="1" gradientTransform="matrix(112.625 0 0 112.473 469.308 89.03)" gradientUnits="userSpaceOnUse"><stop stop-color="#836DF3"/><stop offset=".114" stop-color="#6655BD"/><stop offset=".235" stop-color="#4B3E8B"/><stop offset=".358" stop-color="#342B60"/><stop offset=".482" stop-color="#211C3E"/><stop offset=".608" stop-color="#130F23"/><stop offset=".735" stop-color="#08070F"/><stop offset=".864" stop-color="#020204"/><stop offset="1"/></radialGradient><clipPath id="clip0_4649_88813"><path fill="#fff" d="M0 0h496v407H0z"/></clipPath></defs></svg>