<svg xmlns="http://www.w3.org/2000/svg" width="99" height="99" fill="none" viewBox="0 0 99 99"><path fill="#1049B3" d="M10.973 37.233H24.04c3.836.033 6.615 1.138 8.338 3.316 1.724 2.178 2.292 5.152 1.707 8.923a17.115 17.115 0 0 1-1.512 5.071 15.075 15.075 0 0 1-3.12 4.486c-1.626 1.69-3.365 2.763-5.218 3.218a24.022 24.022 0 0 1-5.753.683H12.63l-1.853 9.264H4l6.973-34.96Zm5.705 5.559L13.752 57.42c.195.032.39.049.585.049h.683c3.12.032 5.721-.276 7.801-.927 2.08-.682 3.479-3.055 4.194-7.119.585-3.413 0-5.38-1.756-5.9-1.723-.52-3.884-.763-6.485-.731-.39.032-.763.049-1.121.049h-1.024l.049-.049ZM41.806 27.92h6.729l-1.902 9.313h6.046c3.316.065 5.786.748 7.412 2.048 1.657 1.3 2.145 3.771 1.462 7.412L58.286 62.93H51.46l3.12-15.506c.326-1.626.228-2.78-.292-3.462-.52-.683-1.641-1.024-3.364-1.024l-5.413-.049-3.998 20.04h-6.729l7.022-35.01ZM68.779 37.233h13.068c3.835.033 6.614 1.138 8.338 3.316 1.723 2.178 2.291 5.152 1.706 8.923a17.115 17.115 0 0 1-1.512 5.071 15.075 15.075 0 0 1-3.12 4.486c-1.626 1.69-3.365 2.763-5.217 3.218a24.022 24.022 0 0 1-5.754.683h-5.851l-1.853 9.264h-6.778l6.973-34.96Zm5.705 5.559L71.558 57.42c.195.032.39.049.585.049h.683c3.12.032 5.721-.276 7.802-.927 2.08-.682 3.478-3.055 4.193-7.119.585-3.413 0-5.38-1.755-5.9-1.724-.52-3.885-.763-6.486-.731-.39.032-.763.049-1.121.049h-1.024l.049-.049Z"/></svg>