<svg xmlns="http://www.w3.org/2000/svg" width="99" height="79" fill="none" viewBox="0 0 99 79"><g stroke="#fff" clip-path="url(#clip0_10895_34202)"><path fill="#fff" stroke-linejoin="round" stroke-width=".585" d="M45.029 31.519h7.603c4.68 0 4.68 4.68 0 4.68H45.03v-4.68ZM26.896 53.16h23.397v-6.433h-5.264v-4.68h5.849c6.434 0 2.924 11.113 8.188 11.113H73.69V42.047h-3.51v1.17c0 4.68-5.264 4.094-5.849 1.17-.584-2.925-2.924-5.264-3.509-5.264 8.774-4.68 3.51-14.038-3.51-14.038h-27.49v6.434h5.85v15.208h-8.774v6.433Z"/><path stroke-width="5.264" d="M50 65.15c13.89 0 25.15-11.26 25.15-25.15 0-13.89-11.26-25.151-25.15-25.151-13.89 0-25.151 11.26-25.151 25.15 0 13.891 11.26 25.151 25.15 25.151Z"/><path fill="#fff" stroke-linejoin="round" stroke-width="1.755" d="M76.905 41.755 79.83 40l-2.925-1.755v3.51ZM76.046 46.97l3.211-1.15-2.526-2.292-.685 3.442ZM74.186 51.918l3.374-.502-2.03-2.74-1.344 3.242ZM71.397 56.407l3.406.166-1.457-3.084-1.95 2.918ZM67.785 60.266l3.308.827-.827-3.308-2.481 2.481ZM63.49 63.346l3.083 1.456-.166-3.406-2.918 1.95ZM58.675 65.529l2.74 2.03.502-3.373-3.242 1.343ZM53.528 66.731l2.291 2.526 1.15-3.21-3.441.684ZM48.245 66.905 50 69.83l1.755-2.925h-3.51ZM43.03 66.046l1.15 3.211 2.292-2.526-3.442-.685ZM38.082 64.186l.502 3.374 2.74-2.03-3.242-1.344ZM33.593 61.397l-.166 3.406 3.084-1.457-2.918-1.95ZM29.734 57.785l-.827 3.308 3.308-.827-2.481-2.481ZM26.654 53.49l-1.457 3.083 3.407-.166-1.95-2.918ZM24.471 48.675l-2.03 2.74 3.373.502-1.343-3.242ZM23.269 43.528l-2.526 2.291 3.21 1.15-.684-3.441ZM23.094 38.245 20.17 40l2.924 1.755v-3.51ZM23.954 33.03l-3.211 1.15 2.526 2.292.685-3.442ZM25.814 28.082l-3.374.502 2.03 2.74 1.344-3.242ZM28.604 23.593l-3.407-.166 1.457 3.084 1.95-2.918ZM32.215 19.734l-3.308-.827.827 3.308 2.481-2.481ZM36.51 16.654l-3.083-1.457.166 3.407 2.918-1.95ZM41.325 14.471l-2.74-2.03-.502 3.373 3.242-1.343ZM46.472 13.269l-2.292-2.526-1.15 3.21 3.442-.684ZM51.755 13.094 50 10.17l-1.755 2.924h3.51ZM56.97 13.954l-1.15-3.211-2.292 2.526 3.442.685ZM61.918 15.814l-.502-3.374-2.74 2.03 3.242 1.344ZM66.407 18.604l.166-3.407-3.084 1.457 2.918 1.95ZM70.266 22.215l.827-3.308-3.308.827 2.481 2.481ZM73.346 26.51l1.456-3.083-3.406.166 1.95 2.918ZM75.529 31.325l2.03-2.74-3.373-.503 1.343 3.243ZM76.731 36.472l2.526-2.292-3.21-1.15.684 3.442Z"/><path fill="#fff" stroke-linejoin="round" stroke-width="3.509" d="M45.905 15.434 50 19.528l4.094-4.094h-8.189ZM72.099 28.515l-2.63 5.159 5.16 2.629-2.53-7.788ZM67.752 57.468l-5.719-.906-.906 5.719 6.625-4.813ZM38.873 62.28l-.906-5.718-5.719.906 6.625 4.813ZM25.371 36.303l5.16-2.629-2.63-5.16-2.53 7.789Z"/></g><defs><clipPath id="clip0_10895_34202"><path fill="#fff" d="M19 9h62v62H19z"/></clipPath></defs></svg>