<svg width="738" height="657" viewBox="0 0 738 657" fill="none" xmlns="http://www.w3.org/2000/svg">
<g clip-path="url(#clip0_1386_29940)">
<path opacity="0.5" d="M399.1 580.907C494.989 580.907 572.723 535.099 572.723 478.591C572.723 422.083 494.989 376.274 399.1 376.274C303.21 376.274 225.477 422.083 225.477 478.591C225.477 535.099 303.21 580.907 399.1 580.907Z" fill="url(#paint0_diamond_1386_29940)"/>
<g opacity="0.1">
<path opacity="0.1" d="M616.845 366.43L586.82 348.749V384.11L616.845 401.818L646.871 384.11V348.749L616.845 366.43Z" fill="#5B75B7"/>
<path opacity="0.1" d="M616.845 401.818L586.82 384.11V348.749L616.845 366.43V401.818Z" fill="#5B75B7"/>
<path opacity="0.1" d="M646.871 384.11L616.846 401.818V366.43L646.871 348.749V384.11Z" fill="#104DBF"/>
<path opacity="0.1" d="M616.845 366.429L586.82 348.749L616.845 331.041L646.871 348.749L616.845 366.429Z" fill="#5B75B7"/>
<path opacity="0.1" d="M616.845 366.43L586.82 348.749V350.283L616.845 367.963L646.871 350.283V348.749L616.845 366.43Z" fill="white"/>
</g>
<path opacity="0.2" d="M616.845 344.984L586.82 327.304L616.845 309.596L646.871 327.304L616.845 344.984Z" fill="#03002D"/>
<path d="M616.845 282.797L586.82 265.116V300.505L616.845 318.185L646.871 300.505V265.116L616.845 282.797Z" fill="#5B75B7"/>
<path d="M616.845 318.185L586.82 300.505V265.116L616.845 282.797V318.185Z" fill="#5B75B7"/>
<path d="M646.871 300.505L616.846 318.185V282.797L646.871 265.116V300.505Z" fill="#104DBF"/>
<path d="M616.845 282.797L586.82 265.117L616.845 247.437L646.871 265.117L616.845 282.797Z" fill="#5B75B7"/>
<path d="M616.845 282.797L586.82 265.116V266.65L616.845 284.33L646.871 266.65V265.116L616.845 282.797Z" fill="white"/>
<g opacity="0.1">
<path opacity="0.1" d="M143.296 390.664L113.298 372.984V408.372L143.296 426.052L173.321 408.372V372.984L143.296 390.664Z" fill="#5B75B7"/>
<path opacity="0.1" d="M143.296 426.052L113.298 408.372V372.984L143.296 390.664V426.052Z" fill="#5B75B7"/>
<path opacity="0.1" d="M173.321 408.372L143.296 426.052V390.664L173.321 372.984V408.372Z" fill="#C2CCDD"/>
<path opacity="0.1" d="M143.296 390.664L113.298 372.984L143.296 355.303L173.321 372.984L143.296 390.664Z" fill="#5B75B7"/>
<path opacity="0.1" d="M143.296 390.664L113.298 372.984V374.517L143.296 392.198L173.321 374.517V372.984L143.296 390.664Z" fill="white"/>
</g>
<path opacity="0.2" d="M143.296 369.219L113.298 351.539L143.296 333.858L173.321 351.539L143.296 369.219Z" fill="#03002D"/>
<path d="M143.296 307.059L113.298 289.351V324.739L143.296 342.419L173.321 324.739V289.351L143.296 307.059Z" fill="#5B75B7"/>
<path d="M143.296 342.419L113.298 324.739V289.351L143.296 307.059V342.419Z" fill="#5B75B7"/>
<path d="M173.321 324.739L143.296 342.419V307.059L173.321 289.351V324.739Z" fill="#C2CCDD"/>
<path d="M143.296 307.059L113.298 289.351L143.296 271.671L173.321 289.351L143.296 307.059Z" fill="#5B75B7"/>
<path d="M143.296 307.059L113.298 289.351V290.884L143.296 308.593L173.321 290.884V289.351L143.296 307.059Z" fill="white"/>
<g opacity="0.1">
<path opacity="0.1" d="M272.987 601.544L242.961 583.863V619.252L272.987 636.932L303.012 619.252V583.863L272.987 601.544Z" fill="#5B75B7"/>
<path opacity="0.1" d="M272.987 636.932L242.961 619.252V583.863L272.987 601.544V636.932Z" fill="#5B75B7"/>
<path opacity="0.1" d="M303.012 619.252L272.987 636.932V601.544L303.012 583.863V619.252Z" fill="#C2CCDD"/>
<path opacity="0.1" d="M272.987 601.544L242.961 583.864L272.987 566.183L303.012 583.864L272.987 601.544Z" fill="#5B75B7"/>
<path opacity="0.1" d="M272.987 601.544L242.961 583.863V585.397L272.987 603.077L303.012 585.397V583.863L272.987 601.544Z" fill="white"/>
</g>
<path opacity="0.2" d="M272.987 580.1L242.961 562.42L272.987 544.739L303.012 562.42L272.987 580.1Z" fill="white"/>
<path d="M272.987 517.939L242.961 500.231V535.619L272.987 553.299L303.012 535.619V500.231L272.987 517.939Z" fill="#5B75B7"/>
<path d="M272.987 553.299L242.961 535.619V500.231L272.987 517.939V553.299Z" fill="#5B75B7"/>
<path d="M303.012 535.619L272.987 553.299V517.939L303.012 500.231V535.619Z" fill="#C2CCDD"/>
<path d="M272.987 517.939L242.961 500.231L272.987 482.551L303.012 500.231L272.987 517.939Z" fill="#5B75B7"/>
<path d="M272.987 517.939L242.961 500.231V501.764L272.987 519.473L303.012 501.764V500.231L272.987 517.939Z" fill="white"/>
<path opacity="0.2" d="M418.743 134.607L217.144 253.433V198.998L418.743 80.1721V134.607Z" fill="white"/>
<path opacity="0.3" d="M231.05 220.722L227.389 222.869V200.309L231.05 198.134V220.722Z" fill="white"/>
<g opacity="0.3">
<path d="M231.05 224.124L227.389 226.271V224.821L231.05 222.674V224.124Z" fill="white"/>
<path d="M231.05 227.165L227.389 229.312V227.862L231.05 225.715V227.165Z" fill="white"/>
<path d="M231.05 230.204L227.389 232.351V230.929L231.05 228.782V230.204Z" fill="white"/>
<path d="M231.05 233.272L227.389 235.419V233.969L231.05 231.822V233.272Z" fill="white"/>
<path d="M231.05 236.31L227.389 238.458V237.008L231.05 234.86V236.31Z" fill="white"/>
<path d="M231.05 239.35L227.389 241.497V240.075L231.05 237.927V239.35Z" fill="white"/>
</g>
<g opacity="0.3">
<path d="M238.344 219.801L234.683 221.976V220.526L238.344 218.379V219.801Z" fill="white"/>
<path d="M238.344 222.869L234.683 225.016V223.566L238.344 221.419V222.869Z" fill="white"/>
<path d="M238.344 225.908L234.683 228.055V226.633L238.344 224.486V225.908Z" fill="white"/>
<path d="M238.344 228.948L234.683 231.095V229.673L238.344 227.526V228.948Z" fill="white"/>
<path d="M238.344 232.016L234.683 234.163V232.713L238.344 230.565V232.016Z" fill="white"/>
<path d="M238.344 235.055L234.683 237.203V235.78L238.344 233.605V235.055Z" fill="white"/>
</g>
<g opacity="0.3">
<path d="M252.933 223.399L249.272 225.546V224.124L252.933 221.977V223.399Z" fill="white"/>
<path d="M252.933 226.467L249.272 228.614V227.164L252.933 225.017V226.467Z" fill="white"/>
<path d="M245.639 230.762L241.978 232.909V231.459L245.639 229.312V230.762Z" fill="white"/>
</g>
<g opacity="0.3">
<path d="M260.228 216.065L256.567 218.212V216.762L260.228 214.615V216.065Z" fill="white"/>
<path d="M260.228 219.105L256.567 221.252V219.83L260.228 217.683V219.105Z" fill="white"/>
<path d="M260.228 222.172L256.567 224.319V222.869L260.228 220.722V222.172Z" fill="white"/>
</g>
<g opacity="0.3">
<path d="M267.523 202.622L263.862 204.77V203.32L267.523 201.172V202.622Z" fill="white"/>
<path d="M267.523 205.662L263.862 207.809V206.387L267.523 204.24V205.662Z" fill="white"/>
<path d="M267.523 208.702L263.862 210.877V209.427L267.523 207.279V208.702Z" fill="white"/>
<path d="M267.523 211.77L263.862 213.917V212.467L267.523 210.32V211.77Z" fill="white"/>
<path d="M267.523 214.809L263.862 216.956V215.534L267.523 213.359V214.809Z" fill="white"/>
<path d="M267.523 217.848L263.862 219.996V218.573L267.523 216.426V217.848Z" fill="white"/>
</g>
<g opacity="0.3">
<path d="M274.817 198.329L271.156 200.476V199.026L274.817 196.878V198.329Z" fill="white"/>
<path d="M274.817 201.368L271.156 203.516V202.065L274.817 199.918V201.368Z" fill="white"/>
<path d="M274.817 204.408L271.156 206.555V205.133L274.817 202.985V204.408Z" fill="white"/>
<path d="M274.817 207.476L271.156 209.624V208.173L274.817 206.026V207.476Z" fill="white"/>
<path d="M274.817 210.515L271.156 212.662V211.212L274.817 209.065V210.515Z" fill="white"/>
<path d="M274.817 213.555L271.156 215.703V214.28L274.817 212.133V213.555Z" fill="white"/>
</g>
<g opacity="0.3">
<path d="M282.112 200.113L278.451 202.26V200.838L282.112 198.69V200.113Z" fill="white"/>
<path d="M282.112 203.152L278.451 205.3V203.877L282.112 201.73V203.152Z" fill="white"/>
<path d="M282.112 206.22L278.451 208.367V206.917L282.112 204.77V206.22Z" fill="white"/>
<path d="M282.112 209.259L278.451 211.406V209.984L282.112 207.809V209.259Z" fill="white"/>
<path d="M289.407 204.964L285.746 207.112V205.661L289.407 203.514V204.964Z" fill="white"/>
</g>
<g opacity="0.3">
<path d="M296.701 185.417L293.041 187.564V186.142L296.701 183.995V185.417Z" fill="white"/>
<path d="M296.701 188.458L293.041 190.633V189.183L296.701 187.036V188.458Z" fill="white"/>
<path d="M296.701 191.525L293.041 193.672V192.222L296.701 190.074V191.525Z" fill="white"/>
<path d="M296.701 194.565L293.041 196.712V195.29L296.701 193.143V194.565Z" fill="white"/>
<path d="M296.701 197.604L293.041 199.751V198.329L296.701 196.181V197.604Z" fill="white"/>
<path d="M296.701 200.671L293.041 202.819V201.368L296.701 199.221V200.671Z" fill="white"/>
</g>
<g opacity="0.3">
<path d="M303.996 190.27L300.335 192.417V190.967L303.996 188.82V190.27Z" fill="white"/>
<path d="M303.996 193.31L300.335 195.457V194.035L303.996 191.888V193.31Z" fill="white"/>
<path d="M303.996 196.378L300.335 198.525V197.075L303.996 194.927V196.378Z" fill="white"/>
</g>
<g opacity="0.3">
<path d="M311.291 185.975L307.63 188.122V186.672L311.291 184.525V185.975Z" fill="white"/>
<path d="M311.291 189.015L307.63 191.162V189.74L311.291 187.564V189.015Z" fill="white"/>
<path d="M311.291 192.054L307.63 194.201V192.779L311.291 190.632V192.054Z" fill="white"/>
</g>
<path opacity="0.3" d="M238.344 219.466L234.683 221.614V201.563L238.344 199.416V219.466Z" fill="white"/>
<path opacity="0.3" d="M245.639 227.721L241.979 229.868V203.906L245.639 201.759V227.721Z" fill="white"/>
<path opacity="0.3" d="M252.934 220.359L249.273 222.506V206.75L252.934 204.603V220.359Z" fill="white"/>
<path opacity="0.3" d="M260.228 213.024L256.567 215.171V195.65L260.228 193.503V213.024Z" fill="white"/>
<path opacity="0.3" d="M267.523 199.444L263.862 201.591V185.166L267.523 183.019V199.444Z" fill="white"/>
<path opacity="0.3" d="M274.817 195.15L271.156 197.297V173.788L274.817 171.641V195.15Z" fill="white"/>
<path opacity="0.3" d="M282.112 197.073L278.451 199.221V174.346L282.112 172.198V197.073Z" fill="white"/>
<path opacity="0.3" d="M289.407 201.926L285.746 204.073V172.254L289.407 170.107V201.926Z" fill="white"/>
<path opacity="0.3" d="M296.701 196.489L293.041 198.636V175.016L296.701 172.869V196.489Z" fill="white"/>
<path opacity="0.3" d="M303.996 186.895L300.335 189.042V166.342L303.996 164.195V186.895Z" fill="white"/>
<path opacity="0.3" d="M311.291 182.6L307.63 184.747V153.012L311.291 150.865V182.6Z" fill="white"/>
<g opacity="0.3">
<path opacity="0.4" d="M400.656 109.203L370.33 127.079V118.573L400.656 100.726V109.203Z" fill="white"/>
<path opacity="0.4" d="M411.584 115.868L370.33 140.157V131.68L411.584 107.363V115.868Z" fill="white"/>
<path opacity="0.4" d="M389.4 142.027L370.33 153.265V144.788L389.4 133.521V142.027Z" fill="white"/>
</g>
<g opacity="0.3">
<path d="M336.29 164.836L366.615 146.961V155.466L336.29 173.314V164.836Z" fill="white"/>
<path d="M325.361 158.171L366.616 133.882V142.36L325.361 166.677V158.171Z" fill="white"/>
<path d="M347.545 132.013L366.615 120.775V129.28L347.545 140.519V132.013Z" fill="white"/>
<path d="M340.415 136.224L343.803 134.217V142.722L340.415 144.702V136.224Z" fill="white"/>
<path d="M333.967 140.016L337.327 138.036V146.513L333.967 148.521V140.016Z" fill="white"/>
<path d="M327.492 143.837L330.879 141.829V150.335L327.492 152.315V143.837Z" fill="white"/>
<path d="M321.044 147.631L324.432 145.651V154.128L321.044 156.136V147.631Z" fill="white"/>
</g>
<path opacity="0.3" d="M385.493 114.975L370.33 123.899V121.529L385.493 112.605V114.975Z" fill="white"/>
<path opacity="0.3" d="M390.957 124.93L370.33 137.089V134.747L390.957 122.588V124.93Z" fill="white"/>
<path opacity="0.3" d="M379.455 144.926L370.33 150.308V147.966L379.455 142.583V144.926Z" fill="#1049B3"/>
<path opacity="0.4" d="M498.902 230.035C500.979 228.027 501.088 224.709 499.121 222.561C497.154 220.442 493.903 220.331 491.799 222.338C489.723 224.346 489.613 227.665 491.58 229.812C493.547 231.931 496.826 232.043 498.902 230.035Z" fill="#5B75B7"/>
<path d="M558.762 225.461C560.838 223.453 560.947 220.135 558.98 217.987C557.013 215.868 553.762 215.757 551.658 217.764C549.582 219.772 549.473 223.091 551.44 225.238C553.407 227.357 556.685 227.469 558.762 225.461Z" fill="#5B75B7"/>
<path opacity="0.4" d="M544.009 143.586C546.249 141.438 546.359 137.841 544.255 135.554C542.151 133.267 538.627 133.156 536.386 135.303C534.146 137.451 534.037 141.048 536.141 143.335C538.244 145.621 541.769 145.733 544.009 143.586Z" fill="#5B75B7"/>
<path opacity="0.4" d="M537.752 159.76C539.091 158.477 539.146 156.33 537.889 154.963C536.632 153.597 534.529 153.541 533.19 154.824C531.851 156.107 531.797 158.254 533.053 159.621C534.31 160.959 536.414 161.043 537.752 159.76Z" fill="#5B75B7"/>
<path opacity="0.8" d="M530.867 151.365C531.741 150.529 531.769 149.162 530.976 148.27C530.157 147.378 528.818 147.35 527.944 148.158C527.07 148.995 527.042 150.361 527.835 151.254C528.654 152.146 530.02 152.202 530.867 151.365Z" fill="#5B75B7"/>
<path opacity="0.8" d="M545.129 199.75C546.003 198.913 546.03 197.547 545.238 196.654C544.419 195.762 543.08 195.734 542.206 196.543C541.331 197.38 541.304 198.746 542.096 199.638C542.916 200.531 544.282 200.559 545.129 199.75Z" fill="#5B75B7"/>
<path opacity="0.4" d="M514.966 137.255C515.24 137.004 515.24 136.586 514.994 136.307C514.748 136.028 514.338 136.028 514.065 136.279C513.792 136.53 513.792 136.949 514.038 137.228C514.283 137.506 514.721 137.506 514.966 137.255Z" fill="#5B75B7"/>
<path opacity="0.8" d="M518.874 164.668C519.147 164.417 519.147 163.999 518.901 163.72C518.655 163.441 518.245 163.441 517.972 163.692C517.699 163.943 517.699 164.361 517.945 164.64C518.191 164.919 518.601 164.919 518.874 164.668Z" fill="#5B75B7"/>
<path opacity="0.8" d="M527.234 216.901C527.507 216.65 527.507 216.231 527.261 215.953C527.015 215.674 526.606 215.674 526.332 215.925C526.059 216.176 526.059 216.594 526.305 216.873C526.578 217.124 526.988 217.152 527.234 216.901Z" fill="#5B75B7"/>
<path opacity="0.8" d="M521.305 208.562C521.578 208.311 521.578 207.892 521.332 207.613C521.086 207.335 520.676 207.335 520.403 207.586C520.13 207.837 520.13 208.255 520.376 208.534C520.649 208.813 521.059 208.813 521.305 208.562Z" fill="#5B75B7"/>
<path opacity="0.4" d="M499.202 168.405C502.372 165.365 502.536 160.262 499.558 156.999C496.58 153.764 491.58 153.597 488.383 156.637C485.214 159.676 485.05 164.78 488.028 168.042C491.006 171.277 496.006 171.444 499.202 168.405Z" fill="#5B75B7"/>
<path d="M456.665 184.077C458.249 182.572 458.331 180.034 456.829 178.416C455.353 176.799 452.867 176.715 451.283 178.249C449.698 179.755 449.616 182.293 451.119 183.91C452.594 185.528 455.08 185.611 456.665 184.077Z" fill="#5B75B7"/>
<path opacity="0.4" d="M527.726 183.994C529.31 182.488 529.392 179.95 527.89 178.333C526.414 176.715 523.928 176.632 522.344 178.165C520.759 179.671 520.677 182.209 522.18 183.826C523.655 185.444 526.141 185.5 527.726 183.994Z" fill="#5B75B7"/>
<path opacity="0.4" d="M499.175 117.818C500.76 116.313 500.842 113.775 499.339 112.157C497.864 110.54 495.378 110.456 493.793 111.99C492.209 113.496 492.127 116.034 493.629 117.651C495.105 119.241 497.618 119.324 499.175 117.818Z" fill="#5B75B7"/>
<path opacity="0.4" d="M449.534 146.626C451.118 145.12 451.2 142.583 449.698 140.965C448.222 139.348 445.736 139.264 444.152 140.798C442.567 142.304 442.485 144.841 443.988 146.459C445.463 148.076 447.949 148.132 449.534 146.626Z" fill="#5B75B7"/>
<path opacity="0.4" d="M584.416 159.118C586 157.612 586.082 155.075 584.58 153.457C583.104 151.84 580.618 151.756 579.034 153.29C577.449 154.796 577.367 157.333 578.87 158.951C580.345 160.568 582.831 160.652 584.416 159.118Z" fill="#5B75B7"/>
<path opacity="0.4" d="M556.002 88.8997C557.587 87.3938 557.669 84.8561 556.166 83.2387C554.691 81.6212 552.205 81.5376 550.62 83.0714C549.035 84.6051 548.953 87.1149 550.456 88.7324C551.931 90.3498 554.418 90.4335 556.002 88.8997Z" fill="#5B75B7"/>
<path d="M607.748 96.4289C608.513 95.7038 608.54 94.4768 607.83 93.6959C607.12 92.9151 605.918 92.8872 605.153 93.6123C604.388 94.3373 604.36 95.5644 605.071 96.3452C605.781 97.126 606.983 97.1539 607.748 96.4289Z" fill="#5B75B7"/>
<path opacity="0.4" d="M510.65 216.509C511.579 215.617 511.634 214.139 510.759 213.19C509.885 212.242 508.437 212.187 507.508 213.079C506.579 213.971 506.525 215.449 507.399 216.397C508.273 217.346 509.721 217.401 510.65 216.509Z" fill="#5B75B7"/>
<path d="M506.197 149.917C507.126 149.024 507.18 147.546 506.306 146.598C505.432 145.65 503.984 145.594 503.055 146.486C502.126 147.379 502.071 148.857 502.946 149.805C503.793 150.753 505.268 150.809 506.197 149.917Z" fill="#5B75B7"/>
<path d="M476.691 149.025C477.319 148.411 477.346 147.407 476.773 146.794C476.172 146.153 475.188 146.125 474.587 146.71C473.959 147.324 473.931 148.328 474.505 148.941C475.079 149.583 476.062 149.61 476.691 149.025Z" fill="#5B75B7"/>
<path d="M472.265 148.912C473.166 148.047 473.221 146.597 472.374 145.649C471.527 144.729 470.079 144.673 469.178 145.537C468.276 146.402 468.221 147.852 469.068 148.8C469.943 149.72 471.363 149.776 472.265 148.912Z" fill="#5B75B7"/>
<path d="M471.472 154.378C471.964 153.904 471.992 153.095 471.527 152.565C471.063 152.063 470.27 152.035 469.751 152.509C469.26 152.983 469.232 153.792 469.697 154.322C470.188 154.852 470.981 154.88 471.472 154.378Z" fill="#5B75B7"/>
<path opacity="0.4" d="M493.165 192.304C493.82 191.69 493.848 190.631 493.247 189.962C492.645 189.292 491.607 189.264 490.952 189.878C490.296 190.491 490.269 191.551 490.87 192.22C491.471 192.89 492.509 192.918 493.165 192.304Z" fill="#5B75B7"/>
<path opacity="0.4" d="M540.457 199.053C541.113 198.439 541.14 197.379 540.539 196.71C539.938 196.041 538.9 196.013 538.244 196.626C537.588 197.24 537.561 198.3 538.162 198.969C538.763 199.666 539.801 199.694 540.457 199.053Z" fill="#5B75B7"/>
<path d="M503.219 194.869C504.831 193.336 504.913 190.742 503.41 189.097C501.907 187.451 499.366 187.368 497.755 188.902C496.143 190.435 496.061 193.029 497.563 194.674C499.093 196.319 501.607 196.403 503.219 194.869Z" fill="#5B75B7"/>
<path d="M283.314 368.243C279.653 380.652 260.01 404.746 247.852 401.01C235.694 397.273 235.64 367.127 239.301 354.718C242.962 342.308 255.775 335.28 267.933 339.017C280.09 342.754 286.975 355.833 283.314 368.243Z" fill="url(#paint1_radial_1386_29940)"/>
<path d="M283.314 368.243C279.653 380.652 260.01 404.746 247.852 401.01C235.694 397.273 235.64 367.127 239.301 354.718C242.962 342.308 255.775 335.28 267.933 339.017C280.09 342.754 286.975 355.833 283.314 368.243Z" fill="url(#paint2_linear_1386_29940)"/>
<path d="M259.928 339.185C266.321 338.599 274.462 342.475 278.151 347.83C281.839 353.184 279.653 357.98 273.26 358.566C266.867 359.152 258.726 355.275 255.037 349.921C251.349 344.567 253.562 339.742 259.928 339.185Z" fill="#251C72"/>
<path opacity="0.5" d="M259.928 339.185C266.321 338.599 274.462 342.475 278.151 347.83C281.839 353.184 279.653 357.98 273.26 358.566C266.867 359.152 258.726 355.275 255.037 349.921C251.349 344.567 253.562 339.742 259.928 339.185Z" fill="url(#paint3_radial_1386_29940)"/>
<path d="M253.261 345.236C254.381 344.26 256.021 343.619 258.124 343.424C264.517 342.838 272.659 346.714 276.347 352.068C277.467 353.714 278.041 355.303 278.123 356.753C280.445 354.773 280.637 351.427 278.15 347.83C274.462 342.475 266.293 338.599 259.928 339.185C255.502 339.575 253.097 342.001 253.261 345.236Z" fill="#DCE2ED"/>
<path opacity="0.6" d="M281.347 332.827C280.336 332.799 279.516 333.608 279.489 334.639C279.462 335.671 280.254 336.508 281.265 336.536C282.276 336.564 283.095 335.755 283.123 334.723C283.15 333.691 282.33 332.855 281.347 332.827Z" fill="#5B75B7"/>
<path d="M264.272 319.943C261.758 319.887 259.654 321.923 259.6 324.488C259.545 327.054 261.54 329.201 264.053 329.257C266.567 329.313 268.67 327.277 268.725 324.711C268.78 322.146 266.785 320.026 264.272 319.943Z" fill="#5B75B7"/>
<path opacity="0.6" d="M290.445 309.457C289.024 309.429 287.85 310.572 287.822 311.994C287.795 313.444 288.915 314.644 290.308 314.671C291.729 314.699 292.904 313.556 292.931 312.134C292.959 310.684 291.838 309.485 290.445 309.457Z" fill="#5B75B7"/>
<path d="M280.2 311.521C279.244 311.493 278.424 312.274 278.397 313.278C278.369 314.254 279.134 315.09 280.118 315.118C281.074 315.146 281.894 314.365 281.921 313.361C281.921 312.357 281.156 311.549 280.2 311.521Z" fill="#5B75B7"/>
<path d="M282.14 307.505C281.484 307.477 280.937 308.035 280.91 308.704C280.883 309.374 281.429 309.931 282.085 309.959C282.741 309.987 283.287 309.429 283.314 308.76C283.314 308.091 282.795 307.533 282.14 307.505Z" fill="#5B75B7"/>
<path opacity="0.6" d="M267.386 341.918C265.993 341.89 264.818 343.005 264.791 344.456C264.763 345.878 265.856 347.077 267.277 347.105C268.67 347.133 269.845 346.017 269.872 344.567C269.899 343.145 268.779 341.946 267.386 341.918Z" fill="#5B75B7"/>
<path d="M275.063 341.053C272.96 340.998 271.239 342.699 271.184 344.846C271.129 346.993 272.796 348.75 274.9 348.806C277.003 348.862 278.724 347.161 278.779 345.013C278.834 342.866 277.167 341.109 275.063 341.053Z" fill="#5B75B7"/>
<path d="M315.853 325.52C334.971 325.52 350.468 309.701 350.468 290.187C350.468 270.674 334.971 254.855 315.853 254.855C296.736 254.855 281.238 270.674 281.238 290.187C281.238 309.701 296.736 325.52 315.853 325.52Z" fill="url(#paint4_radial_1386_29940)"/>
<path d="M334.459 260.405C350.578 270.89 355.332 292.726 345.059 309.179C334.786 325.632 313.394 330.484 297.275 319.999C281.156 309.514 276.402 287.678 286.675 271.225C296.947 254.772 318.339 249.92 334.459 260.405Z" fill="url(#paint5_linear_1386_29940)"/>
<path d="M488.438 354.327C488.438 422.9 448.441 478.479 399.099 478.479C349.758 478.479 309.761 422.9 309.761 354.327C309.761 285.753 349.758 265.229 399.099 265.229C448.441 265.229 488.438 285.781 488.438 354.327Z" fill="url(#paint6_radial_1386_29940)"/>
<path d="M488.438 354.327C488.438 422.9 448.441 478.479 399.099 478.479C349.758 478.479 309.761 422.9 309.761 354.327C309.761 285.753 349.758 265.229 399.099 265.229C448.441 265.229 488.438 285.781 488.438 354.327Z" fill="url(#paint7_linear_1386_29940)"/>
<path d="M399.099 338.041C432.777 338.041 460.079 321.947 460.079 302.095C460.079 282.243 432.777 266.149 399.099 266.149C365.421 266.149 338.119 282.243 338.119 302.095C338.119 321.947 365.421 338.041 399.099 338.041Z" fill="#5674BF"/>
<path opacity="0.5" d="M399.099 338.041C432.777 338.041 460.079 321.947 460.079 302.095C460.079 282.243 432.777 266.149 399.099 266.149C365.421 266.149 338.119 282.243 338.119 302.095C338.119 321.947 365.421 338.041 399.099 338.041Z" fill="#1049B3"/>
<path d="M355.96 286.255C379.783 272.228 418.387 272.228 442.184 286.255C452.019 292.055 457.784 299.334 459.505 306.891C461.937 296.183 456.172 284.944 442.184 276.69C418.36 262.663 379.756 262.663 355.96 276.69C341.971 284.916 336.234 296.155 338.666 306.891C340.387 299.334 346.124 292.055 355.96 286.255Z" fill="#DCE2ED"/>
<path d="M364.951 195.189C374.993 177.436 374.987 158.244 364.939 152.322C354.891 146.401 338.604 155.991 328.563 173.744C318.521 191.496 318.527 210.688 328.575 216.61C338.624 222.532 354.91 212.941 364.951 195.189Z" fill="#BCBEFF"/>
<path d="M402.624 309.318C452.945 309.318 493.738 267.679 493.738 216.315C493.738 164.952 452.945 123.313 402.624 123.313C352.303 123.313 311.509 164.952 311.509 216.315C311.509 267.679 352.303 309.318 402.624 309.318Z" fill="url(#paint8_radial_1386_29940)"/>
<path d="M402.624 309.318C452.945 309.318 493.738 267.679 493.738 216.315C493.738 164.952 452.945 123.313 402.624 123.313C352.303 123.313 311.509 164.952 311.509 216.315C311.509 267.679 352.303 309.318 402.624 309.318Z" fill="url(#paint9_linear_1386_29940)"/>
<path d="M374.21 260.376C371.888 278.67 358.364 284.414 343.993 273.204C329.65 261.993 319.897 238.094 322.219 219.801C324.541 201.507 338.065 195.762 352.436 206.973C366.779 218.183 376.532 242.082 374.21 260.376Z" fill="#5674BF"/>
<path opacity="0.5" d="M374.21 260.376C371.888 278.67 358.364 284.414 343.993 273.204C329.65 261.993 319.897 238.094 322.219 219.801C324.541 201.507 338.065 195.762 352.436 206.973C366.779 218.183 376.532 242.082 374.21 260.376Z" fill="url(#paint10_radial_1386_29940)"/>
<path d="M362.353 244.536C361.506 251.173 356.588 253.264 351.37 249.193C346.152 245.121 342.6 236.421 343.447 229.784C344.294 223.147 349.212 221.055 354.43 225.127C359.648 229.198 363.2 237.899 362.353 244.536Z" fill="#DCE2ED"/>
<path d="M350.879 270.554C336.535 259.344 326.782 235.445 329.104 217.151C330.06 209.705 332.874 204.323 336.836 201.339C329.323 202.064 323.64 208.562 322.219 219.828C319.897 238.122 329.651 262.021 343.994 273.232C352.491 279.869 360.714 280.566 366.479 276.215C361.807 276.634 356.398 274.849 350.879 270.554Z" fill="#DCE2ED"/>
<path d="M345.223 272.618C330.879 261.408 321.126 237.509 323.448 219.215C324.514 210.737 328.011 204.965 332.847 202.315C327.355 204.63 323.366 210.626 322.192 219.8C319.869 238.094 329.623 261.993 343.966 273.204C351.671 279.227 359.129 280.343 364.757 277.247C359.32 279.562 352.381 278.195 345.223 272.618Z" fill="#DCE2ED"/>
<path d="M497.29 413.281C516.408 413.281 531.905 397.462 531.905 377.948C531.905 358.434 516.408 342.615 497.29 342.615C478.173 342.615 462.675 358.434 462.675 377.948C462.675 397.462 478.173 413.281 497.29 413.281Z" fill="url(#paint11_radial_1386_29940)"/>
<path d="M497.29 413.281C516.408 413.281 531.905 397.462 531.905 377.948C531.905 358.434 516.408 342.615 497.29 342.615C478.173 342.615 462.675 358.434 462.675 377.948C462.675 397.462 478.173 413.281 497.29 413.281Z" fill="url(#paint12_linear_1386_29940)"/>
<path d="M530.566 378.616C530.566 388.572 523.709 400.675 515.267 405.667C506.825 410.658 499.967 406.615 499.967 396.659C499.967 386.704 506.825 374.601 515.267 369.609C523.709 364.617 530.566 368.661 530.566 378.616Z" fill="#5674BF"/>
<path opacity="0.5" d="M530.566 378.616C530.566 388.572 523.709 400.675 515.267 405.667C506.825 410.658 499.967 406.615 499.967 396.659C499.967 386.704 506.825 374.601 515.267 369.609C523.709 364.617 530.566 368.661 530.566 378.616Z" fill="url(#paint13_radial_1386_29940)"/>
<path d="M522.425 367.49C523.709 369.386 524.474 371.98 524.474 375.271C524.474 385.226 517.616 397.329 509.174 402.321C506.579 403.854 504.147 404.524 501.989 404.44C504.639 408.288 509.584 409.041 515.239 405.695C523.681 400.703 530.539 388.6 530.539 378.645C530.566 371.729 527.26 367.685 522.425 367.49Z" fill="#DCE2ED"/>
<path d="M479.559 250.337L446.528 269.802V230.9L479.559 211.435V250.337Z" fill="#5674BF"/>
<path opacity="0.8" d="M474.641 214.335V247.632L446.528 264.197V269.802L479.559 250.337V211.435L474.641 214.335Z" fill="#CFDCFD"/>
<path d="M452.839 241.525L449.888 243.254V239.768L452.839 238.039V241.525Z" fill="#DCE2ED"/>
<path d="M459.123 233.354L456.145 235.111V231.625L459.123 229.868V233.354Z" fill="#DCE2ED"/>
<path d="M465.379 234.135L462.428 235.864V232.378L465.379 230.649V234.135Z" fill="#DCE2ED"/>
<path d="M465.379 243.253L462.428 245.01V241.524L465.379 239.768V243.253Z" fill="#DCE2ED"/>
<path d="M461.609 250.282L458.658 252.039V248.553L461.609 246.796V250.282Z" fill="#DCE2ED"/>
<path d="M471.854 239.461L468.903 241.19V237.704L471.854 235.975V239.461Z" fill="#DCE2ED"/>
<path d="M506.142 240.075L509.775 233.689L506.142 231.57L473.138 251.035V289.937L476.745 292.056L480.351 285.67L506.142 270.472V240.075Z" fill="url(#paint14_linear_1386_29940)"/>
<path d="M509.775 272.591L476.745 292.056V253.154L509.775 233.689V272.591Z" fill="url(#paint15_linear_1386_29940)"/>
<path d="M509.775 272.591L476.745 292.056V253.154L509.775 233.689V272.591Z" fill="url(#paint16_linear_1386_29940)"/>
<path d="M471.008 238.876L470.379 238.262L506.853 198.468H610.699L649.002 159.37V0.0253906H649.876V159.733L649.767 159.872L611.054 199.36H507.235L471.008 238.876Z" fill="#7C9EF2"/>
<path d="M649.138 119.743L631.134 101.338V35.7761H631.981V100.975L649.766 119.102L649.138 119.743Z" fill="#7C9EF2"/>
<path d="M538.38 199.221L537.752 198.608L558.188 177.748H602.584L623.894 155.997L624.522 156.638L602.939 178.641H558.543L538.38 199.221Z" fill="#7C9EF2"/>
<path d="M624.194 159.343C622.555 159.343 621.244 157.977 621.244 156.331C621.244 154.658 622.582 153.32 624.194 153.32C625.834 153.32 627.145 154.686 627.145 156.331C627.172 157.977 625.834 159.343 624.194 159.343Z" fill="#7C9EF2"/>
<path d="M594.306 138.986C595.935 138.986 597.256 137.637 597.256 135.974C597.256 134.311 595.935 132.962 594.306 132.962C592.676 132.962 591.355 134.311 591.355 135.974C591.355 137.637 592.676 138.986 594.306 138.986Z" fill="#7C9EF2"/>
<path d="M617.993 109.23C619.622 109.23 620.943 107.882 620.943 106.218C620.943 104.555 619.622 103.207 617.993 103.207C616.363 103.207 615.042 104.555 615.042 106.218C615.042 107.882 616.363 109.23 617.993 109.23Z" fill="#7C9EF2"/>
<path d="M606.3 33.6007C604.661 33.6007 603.349 32.2342 603.349 30.5889C603.349 28.9436 604.688 27.5771 606.3 27.5771C607.939 27.5771 609.25 28.9436 609.25 30.5889C609.25 32.2342 607.939 33.6007 606.3 33.6007Z" fill="#7C9EF2"/>
<path d="M631.571 38.788C633.201 38.788 634.522 37.4395 634.522 35.7762C634.522 34.1128 633.201 32.7644 631.571 32.7644C629.942 32.7644 628.621 34.1128 628.621 35.7762C628.621 37.4395 629.942 38.788 631.571 38.788Z" fill="#7C9EF2"/>
<path d="M649.439 3.03722C651.068 3.03722 652.389 1.6888 652.389 0.0254452C652.389 -1.63791 651.068 -2.98633 649.439 -2.98633C647.809 -2.98633 646.488 -1.63791 646.488 0.0254452C646.488 1.6888 647.809 3.03722 649.439 3.03722Z" fill="#7C9EF2"/>
<path d="M508.136 129.419C509.766 129.419 511.087 128.071 511.087 126.407C511.087 124.744 509.766 123.396 508.136 123.396C506.507 123.396 505.186 124.744 505.186 126.407C505.186 128.071 506.507 129.419 508.136 129.419Z" fill="#7C9EF2"/>
<path d="M451.801 240.661H450.927V223.009L451.063 222.897L492.4 180.035V119.242L492.509 119.103L526.66 84.244H593.951L605.862 72.0854V30.5898H606.737V72.4479L606.6 72.5874L594.306 85.1364H527.015L493.247 119.604V180.398L493.137 180.537L451.801 223.371V240.661Z" fill="#7C9EF2"/>
<path d="M493.137 166.175L492.509 165.533L507.699 150.056V126.408H508.573V150.419L508.437 150.558L493.137 166.175Z" fill="#7C9EF2"/>
<path d="M457.948 233.076L457.32 232.435L552.259 135.556H593.623V136.42H552.614L457.948 233.076Z" fill="#7C9EF2"/>
<path d="M535.156 154.072H534.282V123.201L534.419 123.062L551.385 105.772H617.993V106.664H551.74L535.156 123.564V154.072Z" fill="#7C9EF2"/>
<path d="M521.059 477.113C517.398 489.522 497.754 513.617 485.597 509.88C473.439 506.143 473.384 475.997 477.045 463.588C480.706 451.178 493.52 444.151 505.677 447.887C517.835 451.624 524.72 464.703 521.059 477.113Z" fill="url(#paint17_radial_1386_29940)"/>
<path d="M521.059 477.113C517.398 489.522 497.754 513.617 485.597 509.88C473.439 506.143 473.384 475.997 477.045 463.588C480.706 451.178 493.52 444.151 505.677 447.887C517.835 451.624 524.72 464.703 521.059 477.113Z" fill="url(#paint18_linear_1386_29940)"/>
<path d="M497.672 448.027C504.065 447.441 512.207 451.317 515.895 456.672C519.584 462.026 517.398 466.822 511.005 467.408C504.612 467.994 496.47 464.117 492.782 458.763C489.094 453.437 491.279 448.612 497.672 448.027Z" fill="#251C72"/>
<path opacity="0.5" d="M497.672 448.027C504.065 447.441 512.207 451.317 515.895 456.672C519.584 462.026 517.398 466.822 511.005 467.408C504.612 467.994 496.47 464.117 492.782 458.763C489.094 453.437 491.279 448.612 497.672 448.027Z" fill="url(#paint19_radial_1386_29940)"/>
<path d="M491.006 454.106C492.127 453.13 493.766 452.489 495.87 452.294C502.263 451.708 510.404 455.584 514.092 460.939C515.213 462.584 515.786 464.174 515.868 465.624C518.191 463.644 518.382 460.297 515.896 456.7C512.207 451.346 504.038 447.469 497.673 448.055C493.247 448.445 490.842 450.872 491.006 454.106Z" fill="#DCE2ED"/>
<path opacity="0.6" d="M515.704 433.135C516.442 432.438 516.469 431.267 515.786 430.514C515.103 429.761 513.955 429.733 513.218 430.43C512.48 431.127 512.453 432.299 513.136 433.052C513.819 433.805 514.966 433.832 515.704 433.135Z" fill="#5B75B7"/>
<path d="M536.714 430.096C538.544 428.339 538.653 425.383 536.905 423.486C535.184 421.618 532.288 421.506 530.43 423.291C528.599 425.048 528.49 428.004 530.239 429.9C531.987 431.769 534.883 431.88 536.714 430.096Z" fill="#5B75B7"/>
<path opacity="0.6" d="M525.294 456.338C526.332 455.362 526.386 453.688 525.403 452.656C524.447 451.597 522.807 451.541 521.796 452.545C520.758 453.521 520.704 455.194 521.687 456.226C522.643 457.258 524.255 457.314 525.294 456.338Z" fill="#5B75B7"/>
<path d="M531.167 447.525C531.878 446.856 531.905 445.712 531.249 444.987C530.594 444.262 529.473 444.234 528.763 444.904C528.053 445.573 528.025 446.716 528.681 447.441C529.337 448.166 530.457 448.194 531.167 447.525Z" fill="#5B75B7"/>
<path d="M532.534 451.763C533.025 451.289 533.053 450.536 532.588 450.034C532.124 449.532 531.386 449.504 530.894 449.978C530.403 450.452 530.375 451.205 530.84 451.707C531.304 452.209 532.042 452.237 532.534 451.763Z" fill="#5B75B7"/>
<path opacity="0.6" d="M519.42 416.681C520.431 415.705 520.485 414.06 519.529 413.028C518.573 411.996 516.961 411.941 515.95 412.917C514.939 413.893 514.884 415.538 515.841 416.57C516.797 417.602 518.409 417.658 519.42 416.681Z" fill="#5B75B7"/>
<path d="M514.53 422.789C516.06 421.339 516.142 418.885 514.694 417.324C513.273 415.762 510.869 415.678 509.339 417.156C507.809 418.606 507.727 421.06 509.175 422.622C510.596 424.184 513 424.267 514.53 422.789Z" fill="#5B75B7"/>
<path opacity="0.1" d="M682.743 477.336L474.941 599.815V532.524L682.743 410.046V477.336Z" fill="#F2F2F2"/>
<path d="M486.58 564.456L482.837 566.687V550.401L486.58 548.198V564.456Z" fill="#6C90D4"/>
<path d="M494.121 560.022L490.351 562.253V539.972L494.121 537.741V560.022Z" fill="#6C90D4"/>
<path d="M501.634 555.589L497.863 557.82V528.845L501.634 526.642V555.589Z" fill="#6C90D4"/>
<path d="M509.147 551.154L505.377 553.385V527.004L509.147 524.801V551.154Z" fill="#6C90D4"/>
<path d="M516.66 546.72L512.917 548.951V526.669L516.66 524.466V546.72Z" fill="#6C90D4"/>
<path opacity="0.9" d="M524.201 542.314L520.431 544.517V525.889L524.201 523.658V542.314Z" fill="#6C90D4"/>
<path opacity="0.9" d="M531.714 537.88L527.944 540.083V525.638L531.714 523.407V537.88Z" fill="#6C90D4"/>
<path opacity="0.7" d="M539.227 533.446L535.457 535.649V524.662L539.227 522.431V533.446Z" fill="#6C90D4"/>
<path opacity="0.7" d="M546.74 529.011L542.998 531.214V522.653L546.74 520.45V529.011Z" fill="#6C90D4"/>
<path opacity="0.5" d="M554.254 524.579L550.511 526.782V515.069L554.254 512.866V524.579Z" fill="#6C90D4"/>
<path opacity="0.5" d="M561.794 520.144L558.024 522.375V505.336L561.794 503.105V520.144Z" fill="#6C90D4"/>
<path opacity="0.3" d="M569.307 515.71L565.537 517.941V495.659L569.307 493.428V515.71Z" fill="#6C90D4"/>
<path opacity="0.3" d="M576.821 511.276L573.078 513.507V495.52L576.821 493.317V511.276Z" fill="#6C90D4"/>
<path opacity="0.1" d="M584.334 506.841L580.591 509.072V496.272L584.334 494.041V506.841Z" fill="#6C90D4"/>
<path opacity="0.1" d="M591.874 502.408L588.104 504.639V495.185L591.874 492.954V502.408Z" fill="#6C90D4"/>
<path d="M671.104 433.444L674.874 431.213V453.494L671.104 455.725V433.444Z" fill="#A7B8D8"/>
<path opacity="0.9" d="M663.591 441.503L667.361 439.3V457.928L663.591 460.159V441.503Z" fill="#A7B8D8"/>
<path opacity="0.9" d="M656.078 450.12L659.821 447.917V462.362L656.078 464.593V450.12Z" fill="#A7B8D8"/>
<path opacity="0.7" d="M648.564 458.011L652.307 455.78V466.795L648.564 469.026V458.011Z" fill="#A7B8D8"/>
<path opacity="0.7" d="M641.024 464.872L644.794 462.669V471.23L641.024 473.433V464.872Z" fill="#A7B8D8"/>
<path opacity="0.5" d="M633.511 466.155L637.281 463.952V475.664L633.511 477.867V466.155Z" fill="#A7B8D8"/>
<path opacity="0.5" d="M625.998 465.263L629.741 463.059V480.098L625.998 482.301V465.263Z" fill="#A7B8D8"/>
<path opacity="0.3" d="M618.484 464.454L622.227 462.251V484.532L618.484 486.735V464.454Z" fill="#A7B8D8"/>
<path opacity="0.3" d="M610.944 473.209L614.714 470.978V488.965L610.944 491.168V473.209Z" fill="#A7B8D8"/>
<path opacity="0.1" d="M603.431 482.803L607.201 480.599V493.372L603.431 495.603V482.803Z" fill="#A7B8D8"/>
<path opacity="0.1" d="M595.917 490.584L599.688 488.353V497.807L595.917 500.038V490.584Z" fill="#A7B8D8"/>
<g opacity="0.1">
<g opacity="0.1">
<path opacity="0.1" d="M486.58 571.259L482.837 573.463V569.809L486.58 567.578V571.259Z" fill="#1049B3" fill-opacity="0.3"/>
<path opacity="0.1" d="M501.634 562.391L497.863 564.594V560.941L501.634 558.738V562.391Z" fill="#1049B3" fill-opacity="0.3"/>
<path opacity="0.1" d="M509.147 557.957L505.377 560.16V556.507L509.147 554.304V557.957Z" fill="#1049B3" fill-opacity="0.3"/>
<path opacity="0.1" d="M516.66 553.523L512.917 555.754V552.073L516.66 549.87V553.523Z" fill="#1049B3" fill-opacity="0.3"/>
<path opacity="0.1" d="M524.201 549.088L520.431 551.319V547.638L524.201 545.435V549.088Z" fill="#1049B3" fill-opacity="0.3"/>
<path opacity="0.1" d="M539.227 540.221L535.457 542.452V538.799L539.227 536.568V540.221Z" fill="#1049B3" fill-opacity="0.3"/>
<path opacity="0.1" d="M546.74 535.816L542.998 538.019V534.366L546.74 532.135V535.816Z" fill="#1049B3" fill-opacity="0.3"/>
<path opacity="0.1" d="M554.254 531.381L550.511 533.584V529.931L554.254 527.7V531.381Z" fill="#1049B3" fill-opacity="0.3"/>
<path opacity="0.1" d="M561.794 526.947L558.024 529.15V525.497L561.794 523.266V526.947Z" fill="#1049B3" fill-opacity="0.3"/>
<path opacity="0.1" d="M569.307 522.512L565.537 524.715V521.062L569.307 518.831V522.512Z" fill="#1049B3" fill-opacity="0.3"/>
<path opacity="0.1" d="M584.334 513.645L580.591 515.848V512.195L584.334 509.992V513.645Z" fill="#1049B3" fill-opacity="0.3"/>
<path opacity="0.1" d="M591.874 509.211L588.104 511.442V507.761L591.874 505.558V509.211Z" fill="#1049B3" fill-opacity="0.3"/>
<path opacity="0.1" d="M599.387 504.776L595.617 507.007V503.326L599.387 501.123V504.776Z" fill="#1049B3" fill-opacity="0.3"/>
<path opacity="0.1" d="M606.901 500.344L603.13 502.575V498.894L606.901 496.691V500.344Z" fill="#1049B3" fill-opacity="0.3"/>
<path opacity="0.1" d="M614.414 495.909L610.671 498.14V494.459L614.414 492.256V495.909Z" fill="#1049B3" fill-opacity="0.3"/>
<path opacity="0.1" d="M621.954 491.475L618.184 493.706V490.052L621.954 487.821V491.475Z" fill="#1049B3" fill-opacity="0.3"/>
<path opacity="0.1" d="M629.468 487.069L625.697 489.272V485.619L629.468 483.388V487.069Z" fill="#1049B3" fill-opacity="0.3"/>
<path opacity="0.1" d="M644.494 478.2L640.751 480.403V476.75L644.494 474.519V478.2Z" fill="#1049B3" fill-opacity="0.3"/>
<path opacity="0.1" d="M652.007 473.766L648.264 475.969V472.316L652.007 470.113V473.766Z" fill="#1049B3" fill-opacity="0.3"/>
<path opacity="0.1" d="M659.548 469.333L655.777 471.537V467.883L659.548 465.68V469.333Z" fill="#1049B3" fill-opacity="0.3"/>
<path opacity="0.1" d="M667.061 464.899L663.291 467.13V463.449L667.061 461.245V464.899Z" fill="#1049B3" fill-opacity="0.3"/>
</g>
<g opacity="0.1">
<path opacity="0.1" d="M486.58 577.812L482.837 580.043V576.39L486.58 574.159V577.812Z" fill="#1049B3" fill-opacity="0.3"/>
<path opacity="0.1" d="M494.121 573.406L490.351 575.609V571.956L494.121 569.725V573.406Z" fill="#1049B3" fill-opacity="0.3"/>
<path opacity="0.1" d="M501.634 568.973L497.863 571.176V567.523L501.634 565.292V568.973Z" fill="#1049B3" fill-opacity="0.3"/>
<path opacity="0.1" d="M509.147 564.538L505.377 566.741V563.088L509.147 560.857V564.538Z" fill="#1049B3" fill-opacity="0.3"/>
<path opacity="0.1" d="M516.66 560.104L512.917 562.307V558.654L516.66 556.423V560.104Z" fill="#1049B3" fill-opacity="0.3"/>
<path opacity="0.1" d="M524.201 555.67L520.431 557.873V554.22L524.201 552.017V555.67Z" fill="#1049B3" fill-opacity="0.3"/>
<path opacity="0.1" d="M539.227 546.802L535.457 549.033V545.352L539.227 543.149V546.802Z" fill="#1049B3" fill-opacity="0.3"/>
<path opacity="0.1" d="M554.254 537.934L550.511 540.165V536.484L554.254 534.281V537.934Z" fill="#1049B3" fill-opacity="0.3"/>
<path opacity="0.1" d="M561.794 533.5L558.024 535.73V532.049L561.794 529.846V533.5Z" fill="#1049B3" fill-opacity="0.3"/>
<path opacity="0.1" d="M569.307 529.067L565.537 531.298V527.644L569.307 525.413V529.067Z" fill="#1049B3" fill-opacity="0.3"/>
<path opacity="0.1" d="M584.334 520.226L580.591 522.429V518.776L584.334 516.545V520.226Z" fill="#1049B3" fill-opacity="0.3"/>
<path opacity="0.1" d="M591.874 515.792L588.104 517.995V514.342L591.874 512.111V515.792Z" fill="#1049B3" fill-opacity="0.3"/>
<path opacity="0.1" d="M614.414 502.49L610.671 504.721V501.04L614.414 498.837V502.49Z" fill="#1049B3" fill-opacity="0.3"/>
<path opacity="0.1" d="M621.954 498.056L618.184 500.287V496.606L621.954 494.403V498.056Z" fill="#1049B3" fill-opacity="0.3"/>
<path opacity="0.1" d="M629.468 493.623L625.697 495.854V492.173L629.468 489.97V493.623Z" fill="#1049B3" fill-opacity="0.3"/>
<path opacity="0.1" d="M644.494 484.754L640.751 486.985V483.332L644.494 481.101V484.754Z" fill="#1049B3" fill-opacity="0.3"/>
<path opacity="0.1" d="M659.548 475.913L655.777 478.117V474.463L659.548 472.232V475.913Z" fill="#1049B3" fill-opacity="0.3"/>
<path opacity="0.1" d="M667.061 471.48L663.291 473.683V470.029L667.061 467.799V471.48Z" fill="#1049B3" fill-opacity="0.3"/>
<path opacity="0.1" d="M674.574 467.046L670.804 469.249V465.596L674.574 463.365V467.046Z" fill="#1049B3" fill-opacity="0.3"/>
</g>
<g opacity="0.1">
<path opacity="0.1" d="M486.58 584.393L482.837 586.624V582.943L486.58 580.74V584.393Z" fill="#1049B3" fill-opacity="0.3"/>
<path opacity="0.1" d="M494.121 579.959L490.351 582.19V578.509L494.121 576.306V579.959Z" fill="#1049B3" fill-opacity="0.3"/>
<path opacity="0.1" d="M524.201 562.252L520.431 564.455V560.802L524.201 558.571V562.252Z" fill="#1049B3" fill-opacity="0.3"/>
<path opacity="0.1" d="M531.714 557.817L527.944 560.02V556.367L531.714 554.136V557.817Z" fill="#1049B3" fill-opacity="0.3"/>
<path opacity="0.1" d="M539.227 553.383L535.457 555.586V551.933L539.227 549.702V553.383Z" fill="#1049B3" fill-opacity="0.3"/>
<path opacity="0.1" d="M546.74 548.949L542.998 551.152V547.499L546.74 545.296V548.949Z" fill="#1049B3" fill-opacity="0.3"/>
<path opacity="0.1" d="M554.254 544.516L550.511 546.719V543.065L554.254 540.862V544.516Z" fill="#1049B3" fill-opacity="0.3"/>
<path opacity="0.1" d="M569.307 535.648L565.537 537.879V534.198L569.307 531.995V535.648Z" fill="#1049B3" fill-opacity="0.3"/>
<path opacity="0.1" d="M576.821 531.213L573.078 533.444V529.763L576.821 527.56V531.213Z" fill="#1049B3" fill-opacity="0.3"/>
<path opacity="0.1" d="M591.874 522.345L588.104 524.576V520.923L591.874 518.692V522.345Z" fill="#1049B3" fill-opacity="0.3"/>
<path opacity="0.1" d="M599.387 517.939L595.617 520.142V516.489L599.387 514.258V517.939Z" fill="#1049B3" fill-opacity="0.3"/>
<path opacity="0.1" d="M606.901 513.505L603.13 515.708V512.054L606.901 509.823V513.505Z" fill="#1049B3" fill-opacity="0.3"/>
<path opacity="0.1" d="M614.414 509.072L610.671 511.275V507.622L614.414 505.391V509.072Z" fill="#1049B3" fill-opacity="0.3"/>
<path opacity="0.1" d="M621.954 504.638L618.184 506.841V503.188L621.954 500.957V504.638Z" fill="#1049B3" fill-opacity="0.3"/>
<path opacity="0.1" d="M636.98 495.77L633.21 498V494.319L636.98 492.116V495.77Z" fill="#1049B3" fill-opacity="0.3"/>
<path opacity="0.1" d="M644.494 491.336L640.751 493.567V489.886L644.494 487.682V491.336Z" fill="#1049B3" fill-opacity="0.3"/>
<path opacity="0.1" d="M652.007 486.902L648.264 489.133V485.452L652.007 483.249V486.902Z" fill="#1049B3" fill-opacity="0.3"/>
<path opacity="0.1" d="M659.548 482.467L655.777 484.698V481.017L659.548 478.814V482.467Z" fill="#1049B3" fill-opacity="0.3"/>
<path opacity="0.1" d="M667.061 478.034L663.291 480.265V476.612L667.061 474.381V478.034Z" fill="#1049B3" fill-opacity="0.3"/>
<path opacity="0.1" d="M674.574 473.627L670.804 475.83V472.177L674.574 469.946V473.627Z" fill="#1049B3" fill-opacity="0.3"/>
</g>
</g>
<path d="M494.121 566.825L490.351 569.028V565.375L494.121 563.144V566.825Z" fill="white" fill-opacity="0.3"/>
<path d="M531.714 544.655L527.943 546.886V543.205L531.714 541.002V544.655Z" fill="white" fill-opacity="0.3"/>
<path d="M576.821 518.08L573.078 520.283V516.629L576.821 514.426V518.08Z" fill="white" fill-opacity="0.3"/>
<path d="M636.98 482.635L633.21 484.838V481.185L636.98 478.954V482.635Z" fill="white" fill-opacity="0.3"/>
<path d="M674.574 460.465L670.804 462.696V459.015L674.574 456.812V460.465Z" fill="white" fill-opacity="0.3"/>
<path d="M531.714 551.237L527.943 553.44V549.787L531.714 547.584V551.237Z" fill="white" fill-opacity="0.3"/>
<path d="M546.74 542.369L542.997 544.6V540.919L546.74 538.716V542.369Z" fill="white" fill-opacity="0.3"/>
<path d="M576.821 524.66L573.078 526.863V523.209L576.821 520.979V524.66Z" fill="white" fill-opacity="0.3"/>
<path d="M599.387 511.358L595.617 513.561V509.908L599.387 507.705V511.358Z" fill="white" fill-opacity="0.3"/>
<path d="M606.901 506.924L603.13 509.127V505.473L606.901 503.27V506.924Z" fill="white" fill-opacity="0.3"/>
<path d="M636.98 489.188L633.21 491.419V487.738L636.98 485.535V489.188Z" fill="white" fill-opacity="0.3"/>
<path d="M652.007 480.348L648.264 482.551V478.898L652.007 476.667V480.348Z" fill="white" fill-opacity="0.3"/>
<path d="M501.634 575.525L497.863 577.756V574.075L501.634 571.872V575.525Z" fill="white" fill-opacity="0.3"/>
<path d="M509.147 571.093L505.376 573.323V569.642L509.147 567.439V571.093Z" fill="white" fill-opacity="0.3"/>
<path d="M516.66 566.659L512.917 568.89V565.236L516.66 563.005V566.659Z" fill="white" fill-opacity="0.3"/>
<path d="M561.794 540.081L558.023 542.312V538.631L561.794 536.427V540.081Z" fill="white" fill-opacity="0.3"/>
<path d="M584.333 526.78L580.59 529.011V525.33L584.333 523.127V526.78Z" fill="white" fill-opacity="0.3"/>
<path d="M629.468 500.202L625.697 502.405V498.752L629.468 496.549V500.202Z" fill="white" fill-opacity="0.3"/>
<path opacity="0.1" d="M222.362 473.683L20.7354 592.509V538.074L222.362 419.276V473.683Z" fill="#2A66D8"/>
<path opacity="0.3" d="M30.9531 579.57L37.5921 563.702C39.6684 558.766 44.0944 555.587 46.7991 557.093L47.6734 557.595C50.023 558.906 53.7932 556.675 56.1155 552.547L66.9072 533.417C69.2567 529.262 73.0543 527.003 75.4039 528.397L81.8516 532.19C83.7367 533.305 86.6873 532.051 89.0096 529.15L91.8509 525.609C93.9273 523.015 96.4955 521.732 98.3806 522.29L109.719 525.664C111.904 526.306 114.964 524.465 117.095 521.175L126.821 506.199C127.067 505.809 127.313 505.391 127.532 504.972L138.569 483.89C140.536 480.125 143.815 477.671 146.301 478.09C148.268 478.424 150.782 476.946 152.776 474.325L158.404 466.823V504.471L30.9531 579.57Z" fill="#2A66D8"/>
<path d="M31.8276 579.959L30.0791 579.178L36.718 563.311C38.166 559.853 40.8435 556.981 43.4936 556.06C44.8869 555.558 46.1983 555.642 47.2638 556.228L48.1381 556.73C49.9959 557.789 53.2744 555.642 55.2961 552.045L66.0878 532.914C67.7543 529.986 70.1312 527.839 72.4808 527.197C73.7376 526.863 74.9123 526.974 75.8959 527.532L82.3436 531.325C83.7916 532.161 86.3051 530.99 88.2995 528.508L91.1408 524.967C93.4904 522.038 96.3864 520.644 98.6813 521.313L110.019 524.688C111.823 525.217 114.445 523.488 116.331 520.588L126.057 505.613C126.303 505.251 126.521 504.86 126.712 504.47L137.75 483.415C139.908 479.26 143.542 476.611 146.493 477.113C148.077 477.364 150.317 476.025 152.039 473.711L157.667 466.209L159.169 467.38L153.541 474.882C151.328 477.838 148.487 479.455 146.165 479.037C144.143 478.73 141.165 481.017 139.416 484.335L128.379 505.418C128.16 505.864 127.887 506.282 127.614 506.701L117.888 521.676C115.484 525.385 112.096 527.365 109.446 526.556L98.1076 523.182C96.605 522.736 94.392 523.935 92.5888 526.194L89.7475 529.735C87.07 533.082 83.7096 534.392 81.36 532.998L74.9123 529.205C74.3933 528.899 73.7102 528.843 72.9453 529.066C71.1148 529.568 69.093 531.408 67.6997 533.89L56.908 553.021C54.2852 557.65 50.0232 560.048 47.1819 558.431L46.3076 557.929C45.5699 557.51 44.6957 557.678 44.0946 557.901C41.9363 558.654 39.6687 561.136 38.4392 564.092L31.8276 579.959Z" fill="#2A66D8"/>
<path d="M98.0529 510.522C98.0529 512.725 96.5502 515.402 94.6651 516.49C92.8073 517.577 91.2773 516.685 91.2773 514.51C91.2773 512.307 92.78 509.629 94.6651 508.542C96.5502 507.426 98.0529 508.319 98.0529 510.522Z" fill="#104DBF"/>
<path d="M45.215 546.885C45.215 549.088 43.7124 551.765 41.8272 552.853C39.9694 553.941 38.4395 553.048 38.4395 550.873C38.4395 548.67 39.9421 545.993 41.8272 544.905C43.7124 543.79 45.215 544.682 45.215 546.885Z" fill="#104DBF"/>
<path d="M147.585 500.705L134.417 508.485V506.115L147.585 498.362V500.705Z" fill="#104DBF"/>
<path d="M152.202 502.628L134.417 513.114V510.771L152.202 500.286V502.628Z" fill="#104DBF"/>
<path d="M77.8358 542.954L64.3394 550.902V548.559L77.8358 540.611V542.954Z" fill="#104DBF"/>
<path d="M66.5797 554.249L64.3394 555.559V553.189L66.5797 551.878V554.249Z" fill="#104DBF"/>
<path opacity="0.3" d="M205.287 439.188L173.349 458.011V495.659L205.287 476.835V439.188Z" fill="#C9D6ED"/>
<path opacity="0.3" d="M181.162 458.792L177.911 460.716V464.536L181.162 462.612V458.792Z" fill="#C9D6ED"/>
<path d="M187.692 454.944L184.441 456.868V460.717L187.692 458.792V454.944Z" fill="#C9D6ED"/>
<path opacity="0.3" d="M194.222 451.094L190.943 453.019V456.867L194.222 454.943V451.094Z" fill="#C9D6ED"/>
<path opacity="0.3" d="M200.724 447.274L197.473 449.17V453.019L200.724 451.095V447.274Z" fill="#C9D6ED"/>
<path opacity="0.3" d="M181.162 466.461L177.911 468.385V472.233L181.162 470.309V466.461Z" fill="#C9D6ED"/>
<path d="M187.692 462.612L184.441 464.536V468.385L187.692 466.461V462.612Z" fill="#C9D6ED"/>
<path opacity="0.3" d="M194.222 458.792L190.943 460.716V464.536L194.222 462.612V458.792Z" fill="#C9D6ED"/>
<path opacity="0.3" d="M200.724 454.943L197.473 456.867V460.716L200.724 458.791V454.943Z" fill="#C9D6ED"/>
<path d="M181.162 474.157L177.911 476.081V479.902L181.162 477.978V474.157Z" fill="#C9D6ED"/>
<path opacity="0.3" d="M187.692 470.309L184.441 472.234V476.082L187.692 474.158V470.309Z" fill="#C9D6ED"/>
<path opacity="0.3" d="M194.222 466.461L190.943 468.385V472.233L194.222 470.309V466.461Z" fill="#C9D6ED"/>
<path d="M200.724 462.612L197.473 464.536V468.385L200.724 466.461V462.612Z" fill="#C9D6ED"/>
<path opacity="0.3" d="M181.162 481.826L177.911 483.75V487.599L181.162 485.675V481.826Z" fill="#C9D6ED"/>
<path d="M187.692 477.978L184.441 479.902V483.75L187.692 481.826V477.978Z" fill="#C9D6ED"/>
<path opacity="0.3" d="M194.222 474.157L190.943 476.081V479.902L194.222 477.978V474.157Z" fill="#C9D6ED"/>
<path opacity="0.3" d="M200.724 470.309L197.473 472.234V476.082L200.724 474.158V470.309Z" fill="#C9D6ED"/>
<g opacity="0.2">
<g opacity="0.2">
<path opacity="0.1" d="M682.743 534.615L475.27 656.898V600.902L682.743 478.618V534.615Z" fill="#5B75B7"/>
</g>
<g opacity="0.2">
<g opacity="0.2">
<path opacity="0.2" d="M486.881 626.334L483.138 628.565V615.012L486.881 612.809V626.334Z" fill="#5B75B7"/>
<path opacity="0.2" d="M494.394 621.928L490.651 624.131V605.587L494.394 603.384V621.928Z" fill="#5B75B7"/>
<path opacity="0.2" d="M501.907 617.493L498.164 619.696V595.602L501.907 593.371V617.493Z" fill="#5B75B7"/>
<path opacity="0.2" d="M509.42 613.059L505.65 615.29V593.315L509.42 591.112V613.059Z" fill="#5B75B7"/>
<path opacity="0.2" d="M516.934 608.653L513.164 610.856V592.311L516.934 590.108V608.653Z" fill="#5B75B7"/>
<path opacity="0.9" d="M524.419 604.219L520.676 606.422V590.917L524.419 588.714V604.219Z" fill="#5B75B7"/>
<path opacity="0.9" d="M531.932 599.785L528.189 602.016V589.968L531.932 587.765V599.785Z" fill="#5B75B7"/>
<path opacity="0.7" d="M539.446 595.38L535.703 597.583V588.436L539.446 586.205V595.38Z" fill="#5B75B7"/>
<path opacity="0.7" d="M546.959 590.946L543.188 593.149V586.038L546.959 583.807V590.946Z" fill="#5B75B7"/>
<path opacity="0.5" d="M554.472 586.512L550.702 588.742V578.982L554.472 576.751V586.512Z" fill="#5B75B7"/>
<path opacity="0.5" d="M561.958 582.105L558.215 584.308V570.114L561.958 567.911V582.105Z" fill="#5B75B7"/>
<path opacity="0.3" d="M569.471 577.67L565.728 579.873V561.329L569.471 559.126V577.67Z" fill="#5B75B7"/>
<path opacity="0.3" d="M576.984 573.238L573.241 575.469V560.494L576.984 558.291V573.238Z" fill="#5B75B7"/>
<path opacity="0.1" d="M584.497 568.831L580.727 571.034V560.381L584.497 558.178V568.831Z" fill="#5B75B7"/>
<path opacity="0.1" d="M592.01 564.397L588.24 566.6V558.736L592.01 556.533V564.397Z" fill="#5B75B7"/>
</g>
<g opacity="0.2">
<path opacity="0.2" d="M671.131 499.226L674.874 497.023V515.568L671.131 517.771V499.226Z" fill="#5B75B7"/>
<path opacity="0.9" d="M663.618 506.673L667.361 504.47V519.975L663.618 522.206V506.673Z" fill="#5B75B7"/>
<path opacity="0.9" d="M656.105 514.592L659.875 512.389V524.408L656.105 526.611V514.592Z" fill="#5B75B7"/>
<path opacity="0.7" d="M648.592 521.87L652.362 519.667V528.842L648.592 531.045V521.87Z" fill="#5B75B7"/>
<path opacity="0.7" d="M641.106 528.341L644.849 526.138V533.249L641.106 535.48V528.341Z" fill="#5B75B7"/>
<path opacity="0.5" d="M633.593 530.125L637.336 527.922V537.683L633.593 539.886V530.125Z" fill="#5B75B7"/>
<path opacity="0.5" d="M626.08 530.125L629.823 527.922V542.117L626.08 544.32V530.125Z" fill="#5B75B7"/>
<path opacity="0.3" d="M618.566 530.181L622.337 527.978V546.523L618.566 548.754V530.181Z" fill="#5B75B7"/>
<path opacity="0.3" d="M611.053 538.212L614.824 535.981V550.956L611.053 553.159V538.212Z" fill="#5B75B7"/>
<path opacity="0.1" d="M603.567 546.941L607.31 544.71V555.391L603.567 557.594V546.941Z" fill="#5B75B7"/>
<path opacity="0.1" d="M596.054 554.136L599.797 551.933V559.797L596.054 562.028V554.136Z" fill="#5B75B7"/>
</g>
</g>
<g opacity="0.1">
<g opacity="0.1">
<path opacity="0.1" d="M486.881 631.996L483.138 634.199V631.159L486.881 628.956V631.996Z" fill="#5B75B7"/>
<path opacity="0.1" d="M501.907 623.156L498.164 625.359V622.319L501.907 620.088V623.156Z" fill="#5B75B7"/>
<path opacity="0.1" d="M509.42 618.722L505.65 620.925V617.886L509.42 615.683V618.722Z" fill="#5B75B7"/>
<path opacity="0.1" d="M516.934 614.288L513.164 616.518V613.451L516.934 611.248V614.288Z" fill="#5B75B7"/>
<path opacity="0.1" d="M524.419 609.883L520.676 612.086V609.046L524.419 606.815V609.883Z" fill="#5B75B7"/>
<path opacity="0.1" d="M539.446 601.014L535.703 603.245V600.178L539.446 597.975V601.014Z" fill="#5B75B7"/>
<path opacity="0.1" d="M546.959 596.607L543.188 598.81V595.771L546.959 593.54V596.607Z" fill="#5B75B7"/>
<path opacity="0.1" d="M554.472 592.174L550.702 594.377V591.337L554.472 589.134V592.174Z" fill="#5B75B7"/>
<path opacity="0.1" d="M561.958 587.74L558.215 589.971V586.903L561.958 584.7V587.74Z" fill="#5B75B7"/>
<path opacity="0.1" d="M569.471 583.334L565.728 585.537V582.497L569.471 580.266V583.334Z" fill="#5B75B7"/>
<path opacity="0.1" d="M584.497 574.466L580.727 576.697V573.629L584.497 571.426V574.466Z" fill="#5B75B7"/>
<path opacity="0.1" d="M592.01 570.06L588.24 572.263V569.223L592.01 566.992V570.06Z" fill="#5B75B7"/>
<path opacity="0.1" d="M599.497 565.625L595.754 567.828V564.788L599.497 562.585V565.625Z" fill="#5B75B7"/>
<path opacity="0.1" d="M607.01 561.192L603.267 563.423V560.355L607.01 558.152V561.192Z" fill="#5B75B7"/>
<path opacity="0.1" d="M614.523 556.785L610.78 558.988V555.949L614.523 553.718V556.785Z" fill="#5B75B7"/>
<path opacity="0.1" d="M622.036 552.352L618.293 554.555V551.515L622.036 549.312V552.352Z" fill="#5B75B7"/>
<path opacity="0.1" d="M629.549 547.945L625.779 550.148V547.108L629.549 544.877V547.945Z" fill="#5B75B7"/>
<path opacity="0.1" d="M644.549 539.076L640.806 541.307V538.24L644.549 536.037V539.076Z" fill="#5B75B7"/>
<path opacity="0.1" d="M652.061 534.671L648.318 536.874V533.835L652.061 531.604V534.671Z" fill="#5B75B7"/>
<path opacity="0.1" d="M659.574 530.236L655.832 532.439V529.399L659.574 527.196V530.236Z" fill="#5B75B7"/>
<path opacity="0.1" d="M667.088 525.803L663.317 528.034V524.966L667.088 522.763V525.803Z" fill="#5B75B7"/>
</g>
<g opacity="0.1">
<path opacity="0.1" d="M486.881 637.461L483.138 639.692V636.624L486.881 634.421V637.461Z" fill="#5B75B7"/>
<path opacity="0.1" d="M494.394 633.055L490.651 635.258V632.219L494.394 629.988V633.055Z" fill="#5B75B7"/>
<path opacity="0.1" d="M501.907 628.621L498.164 630.824V627.784L501.907 625.581V628.621Z" fill="#5B75B7"/>
<path opacity="0.1" d="M509.42 624.188L505.65 626.418V623.351L509.42 621.148V624.188Z" fill="#5B75B7"/>
<path opacity="0.1" d="M516.934 619.782L513.164 621.985V618.945L516.934 616.714V619.782Z" fill="#5B75B7"/>
<path opacity="0.1" d="M524.419 615.347L520.676 617.55V614.511L524.419 612.307V615.347Z" fill="#5B75B7"/>
<path opacity="0.1" d="M539.446 606.506L535.703 608.71V605.67L539.446 603.439V606.506Z" fill="#5B75B7"/>
<path opacity="0.1" d="M554.472 597.639L550.702 599.87V596.802L554.472 594.599V597.639Z" fill="#5B75B7"/>
<path opacity="0.1" d="M561.958 593.233L558.215 595.436V592.396L561.958 590.165V593.233Z" fill="#5B75B7"/>
<path opacity="0.1" d="M569.471 588.798L565.728 591.001V587.962L569.471 585.759V588.798Z" fill="#5B75B7"/>
<path opacity="0.1" d="M584.497 579.959L580.727 582.162V579.122L584.497 576.891V579.959Z" fill="#5B75B7"/>
<path opacity="0.1" d="M592.01 575.525L588.24 577.728V574.688L592.01 572.485V575.525Z" fill="#5B75B7"/>
<path opacity="0.1" d="M614.523 562.25L610.78 564.453V561.413L614.523 559.21V562.25Z" fill="#5B75B7"/>
<path opacity="0.1" d="M622.036 557.817L618.293 560.048V556.98L622.036 554.777V557.817Z" fill="#5B75B7"/>
<path opacity="0.1" d="M629.549 553.411L625.779 555.614V552.574L629.549 550.343V553.411Z" fill="#5B75B7"/>
<path opacity="0.1" d="M644.549 544.543L640.806 546.774V543.706L644.549 541.503V544.543Z" fill="#5B75B7"/>
<path opacity="0.1" d="M659.574 535.703L655.832 537.906V534.866L659.574 532.663V535.703Z" fill="#5B75B7"/>
<path opacity="0.1" d="M667.088 531.268L663.317 533.499V530.432L667.088 528.229V531.268Z" fill="#5B75B7"/>
<path opacity="0.1" d="M674.601 526.862L670.831 529.065V526.026L674.601 523.795V526.862Z" fill="#5B75B7"/>
</g>
<g opacity="0.1">
<path opacity="0.1" d="M486.881 642.928L483.138 645.159V642.092L486.881 639.889V642.928Z" fill="#5B75B7"/>
<path opacity="0.1" d="M494.394 638.522L490.651 640.725V637.686L494.394 635.455V638.522Z" fill="#5B75B7"/>
<path opacity="0.1" d="M524.419 620.814L520.676 623.017V619.978L524.419 617.775V620.814Z" fill="#5B75B7"/>
<path opacity="0.1" d="M531.932 616.38L528.189 618.61V615.543L531.932 613.34V616.38Z" fill="#5B75B7"/>
<path opacity="0.1" d="M539.446 611.973L535.703 614.176V611.136L539.446 608.905V611.973Z" fill="#5B75B7"/>
<path opacity="0.1" d="M546.959 607.54L543.188 609.743V606.704L546.959 604.5V607.54Z" fill="#5B75B7"/>
<path opacity="0.1" d="M554.472 603.106L550.702 605.337V602.27L554.472 600.067V603.106Z" fill="#5B75B7"/>
<path opacity="0.1" d="M569.471 594.266L565.728 596.469V593.429L569.471 591.226V594.266Z" fill="#5B75B7"/>
<path opacity="0.1" d="M576.984 589.831L573.241 592.062V588.994L576.984 586.791V589.831Z" fill="#5B75B7"/>
<path opacity="0.1" d="M592.01 580.991L588.24 583.195V580.155L592.01 577.952V580.991Z" fill="#5B75B7"/>
<path opacity="0.1" d="M599.497 576.558L595.754 578.789V575.721L599.497 573.518V576.558Z" fill="#5B75B7"/>
<path opacity="0.1" d="M607.01 572.151L603.267 574.354V571.314L607.01 569.111V572.151Z" fill="#5B75B7"/>
<path opacity="0.1" d="M614.523 567.717L610.78 569.948V566.88L614.523 564.677V567.717Z" fill="#5B75B7"/>
<path opacity="0.1" d="M622.036 563.31L618.293 565.513V562.474L622.036 560.243V563.31Z" fill="#5B75B7"/>
<path opacity="0.1" d="M637.062 554.443L633.292 556.674V553.606L637.062 551.403V554.443Z" fill="#5B75B7"/>
<path opacity="0.1" d="M644.549 550.037L640.806 552.24V549.2L644.549 546.969V550.037Z" fill="#5B75B7"/>
<path opacity="0.1" d="M652.061 545.603L648.318 547.806V544.767L652.061 542.563V545.603Z" fill="#5B75B7"/>
<path opacity="0.1" d="M659.574 541.168L655.832 543.399V540.332L659.574 538.129V541.168Z" fill="#5B75B7"/>
<path opacity="0.1" d="M667.088 536.763L663.317 538.966V535.927L667.088 533.696V536.763Z" fill="#5B75B7"/>
<path opacity="0.1" d="M674.601 532.329L670.831 534.532V531.492L674.601 529.289V532.329Z" fill="#5B75B7"/>
</g>
</g>
<path opacity="0.2" d="M494.394 627.562L490.651 629.793V626.725L494.394 624.522V627.562Z" fill="#5B75B7"/>
<path opacity="0.2" d="M531.932 605.448L528.189 607.651V604.612L531.932 602.408V605.448Z" fill="#5B75B7"/>
<path opacity="0.2" d="M576.984 578.898L573.241 581.101V578.062L576.984 575.859V578.898Z" fill="#5B75B7"/>
<path opacity="0.2" d="M637.063 543.51L633.292 545.713V542.674L637.063 540.47V543.51Z" fill="#5B75B7"/>
<path opacity="0.2" d="M674.601 521.396L670.831 523.599V520.559L674.601 518.328V521.396Z" fill="#5B75B7"/>
<path opacity="0.2" d="M531.932 610.913L528.189 613.144V610.077L531.932 607.874V610.913Z" fill="#5B75B7"/>
<path opacity="0.2" d="M546.959 602.073L543.188 604.276V601.236L546.959 599.033V602.073Z" fill="#5B75B7"/>
<path opacity="0.2" d="M576.985 584.365L573.242 586.596V583.528L576.985 581.325V584.365Z" fill="#5B75B7"/>
<path opacity="0.2" d="M599.497 571.091L595.754 573.322V570.255L599.497 568.052V571.091Z" fill="#5B75B7"/>
<path opacity="0.2" d="M607.01 566.684L603.267 568.887V565.848L607.01 563.617V566.684Z" fill="#5B75B7"/>
<path opacity="0.2" d="M637.063 548.976L633.292 551.179V548.14L637.063 545.937V548.976Z" fill="#5B75B7"/>
<path opacity="0.2" d="M652.061 540.137L648.318 542.34V539.3L652.061 537.069V540.137Z" fill="#5B75B7"/>
<path opacity="0.2" d="M501.907 634.087L498.165 636.29V633.25L501.907 631.047V634.087Z" fill="#5B75B7"/>
<path opacity="0.2" d="M509.421 629.652L505.65 631.883V628.815L509.421 626.612V629.652Z" fill="#5B75B7"/>
<path opacity="0.2" d="M516.934 625.248L513.164 627.451V624.411L516.934 622.18V625.248Z" fill="#5B75B7"/>
<path opacity="0.2" d="M561.958 598.698L558.215 600.901V597.862L561.958 595.631V598.698Z" fill="#5B75B7"/>
<path opacity="0.2" d="M584.497 585.424L580.727 587.627V584.587L584.497 582.356V585.424Z" fill="#5B75B7"/>
<path opacity="0.2" d="M629.549 558.877L625.779 561.08V558.04L629.549 555.837V558.877Z" fill="#5B75B7"/>
</g>
</g>
<defs>
<radialGradient id="paint0_diamond_1386_29940" cx="0" cy="0" r="1" gradientUnits="userSpaceOnUse" gradientTransform="translate(561.931 447.385) rotate(174.436) scale(330.773 584.575)">
<stop stop-color="#2A66D8"/>
<stop offset="1" stop-color="#F2F2F2"/>
</radialGradient>
<radialGradient id="paint1_radial_1386_29940" cx="0" cy="0" r="1" gradientUnits="userSpaceOnUse" gradientTransform="translate(275.69 349.748) rotate(17.0841) scale(65.3823 66.5056)">
<stop stop-color="#C0BFF6"/>
<stop offset="1" stop-color="#393091"/>
</radialGradient>
<linearGradient id="paint2_linear_1386_29940" x1="257.463" y1="401.099" x2="269.15" y2="339.287" gradientUnits="userSpaceOnUse">
<stop stop-color="#6D94DD"/>
<stop offset="1" stop-color="#2A66D8"/>
</linearGradient>
<radialGradient id="paint3_radial_1386_29940" cx="0" cy="0" r="1" gradientUnits="userSpaceOnUse" gradientTransform="translate(263.415 353.511) rotate(-95.0031) scale(43.2282 42.3642)">
<stop stop-color="#C2CCDD"/>
<stop offset="0.4587" stop-color="#1C3F72"/>
<stop offset="0.5824" stop-color="#162561"/>
<stop offset="0.7105" stop-color="#121355"/>
<stop offset="0.8458" stop-color="#10084E"/>
<stop offset="1" stop-color="#0F054C"/>
</radialGradient>
<radialGradient id="paint4_radial_1386_29940" cx="0" cy="0" r="1" gradientUnits="userSpaceOnUse" gradientTransform="translate(481.381 177.35) rotate(11.4235) scale(199.913 203.734)">
<stop stop-color="#C0BFF6"/>
<stop offset="1" stop-color="#393091"/>
</radialGradient>
<linearGradient id="paint5_linear_1386_29940" x1="311.053" y1="325.201" x2="321.085" y2="255.264" gradientUnits="userSpaceOnUse">
<stop stop-color="#6D94DD"/>
<stop offset="1" stop-color="#2A66D8"/>
</linearGradient>
<radialGradient id="paint6_radial_1386_29940" cx="0" cy="0" r="1" gradientUnits="userSpaceOnUse" gradientTransform="translate(451.808 335.735) scale(153.547 213.349)">
<stop stop-color="#C0BFF6"/>
<stop offset="1" stop-color="#393091"/>
</radialGradient>
<linearGradient id="paint7_linear_1386_29940" x1="386.674" y1="477.472" x2="421.815" y2="267.969" gradientUnits="userSpaceOnUse">
<stop stop-color="#6D94DD"/>
<stop offset="1" stop-color="#2A66D8"/>
</linearGradient>
<radialGradient id="paint8_radial_1386_29940" cx="0" cy="0" r="1" gradientUnits="userSpaceOnUse" gradientTransform="translate(459.504 202.541) scale(154.018 157.209)">
<stop stop-color="#C0BFF6"/>
<stop offset="1" stop-color="#393091"/>
</radialGradient>
<linearGradient id="paint9_linear_1386_29940" x1="389.952" y1="308.439" x2="416.36" y2="124.351" gradientUnits="userSpaceOnUse">
<stop stop-color="#6D94DD"/>
<stop offset="1" stop-color="#2A66D8"/>
</linearGradient>
<radialGradient id="paint10_radial_1386_29940" cx="0" cy="0" r="1" gradientUnits="userSpaceOnUse" gradientTransform="translate(374.26 224.896) scale(75.6499 77.2174)">
<stop stop-color="#42E8E0"/>
<stop offset="0.0591" stop-color="#3CCBCD"/>
<stop offset="0.1783" stop-color="#3098AC"/>
<stop offset="0.2996" stop-color="#266B8F"/>
<stop offset="0.4207" stop-color="#1E4777"/>
<stop offset="0.5414" stop-color="#172A65"/>
<stop offset="0.6619" stop-color="#131657"/>
<stop offset="0.7821" stop-color="#100A50"/>
<stop offset="0.9017" stop-color="#0F064D"/>
<stop offset="1" stop-color="#0F054C"/>
</radialGradient>
<radialGradient id="paint11_radial_1386_29940" cx="0" cy="0" r="1" gradientUnits="userSpaceOnUse" gradientTransform="translate(517.801 354.883) rotate(11.4236) scale(72.2532 73.6341)">
<stop stop-color="#C0BFF6"/>
<stop offset="1" stop-color="#393091"/>
</radialGradient>
<linearGradient id="paint12_linear_1386_29940" x1="492.476" y1="412.947" x2="502.509" y2="343.01" gradientUnits="userSpaceOnUse">
<stop stop-color="#6D94DD"/>
<stop offset="1" stop-color="#2A66D8"/>
</linearGradient>
<radialGradient id="paint13_radial_1386_29940" cx="0" cy="0" r="1" gradientUnits="userSpaceOnUse" gradientTransform="translate(508.787 382.066) scale(64.4762 65.8122)">
<stop stop-color="#42E8E0"/>
<stop offset="0.1055" stop-color="#37B6BF"/>
<stop offset="0.2197" stop-color="#2C87A1"/>
<stop offset="0.338" stop-color="#235F87"/>
<stop offset="0.4587" stop-color="#1C3F72"/>
<stop offset="0.5824" stop-color="#162561"/>
<stop offset="0.7105" stop-color="#121355"/>
<stop offset="0.8458" stop-color="#10084E"/>
<stop offset="1" stop-color="#0F054C"/>
</radialGradient>
<linearGradient id="paint14_linear_1386_29940" x1="504.674" y1="257.71" x2="417.967" y2="283.541" gradientUnits="userSpaceOnUse">
<stop stop-color="#BCBEFF"/>
<stop offset="0.151" stop-color="#A3A7F5"/>
<stop offset="0.3866" stop-color="#8289E8"/>
<stop offset="0.6124" stop-color="#6A73DF"/>
<stop offset="0.8221" stop-color="#5C66D9"/>
<stop offset="1" stop-color="#5761D7"/>
</linearGradient>
<linearGradient id="paint15_linear_1386_29940" x1="489.717" y1="263.306" x2="371.241" y2="277.134" gradientUnits="userSpaceOnUse">
<stop stop-color="#BCBEFF"/>
<stop offset="0.151" stop-color="#A3A7F5"/>
<stop offset="0.3866" stop-color="#8289E8"/>
<stop offset="0.6124" stop-color="#6A73DF"/>
<stop offset="0.8221" stop-color="#5C66D9"/>
<stop offset="1" stop-color="#5761D7"/>
</linearGradient>
<linearGradient id="paint16_linear_1386_29940" x1="471.957" y1="298.838" x2="535.524" y2="195.832" gradientUnits="userSpaceOnUse">
<stop stop-color="#C2CCDD"/>
<stop offset="0.8101" stop-color="#3C66A8"/>
<stop offset="1" stop-color="#393091"/>
</linearGradient>
<radialGradient id="paint17_radial_1386_29940" cx="0" cy="0" r="1" gradientUnits="userSpaceOnUse" gradientTransform="translate(513.423 458.612) rotate(17.084) scale(65.382 66.5053)">
<stop stop-color="#C0BFF6"/>
<stop offset="1" stop-color="#393091"/>
</radialGradient>
<linearGradient id="paint18_linear_1386_29940" x1="495.208" y1="509.97" x2="506.895" y2="448.157" gradientUnits="userSpaceOnUse">
<stop stop-color="#6D94DD"/>
<stop offset="1" stop-color="#2A66D8"/>
</linearGradient>
<radialGradient id="paint19_radial_1386_29940" cx="0" cy="0" r="1" gradientUnits="userSpaceOnUse" gradientTransform="translate(501.148 462.373) rotate(-95.0031) scale(43.228 42.3638)">
<stop stop-color="#42E8E0"/>
<stop offset="0.1055" stop-color="#37B6BF"/>
<stop offset="0.2197" stop-color="#2C87A1"/>
<stop offset="0.338" stop-color="#235F87"/>
<stop offset="0.4587" stop-color="#1C3F72"/>
<stop offset="0.5824" stop-color="#162561"/>
<stop offset="0.7105" stop-color="#121355"/>
<stop offset="0.8458" stop-color="#10084E"/>
<stop offset="1" stop-color="#0F054C"/>
</radialGradient>
<clipPath id="clip0_1386_29940">
<rect width="738" height="657" fill="white"/>
</clipPath>
</defs>
</svg>
