<svg xmlns="http://www.w3.org/2000/svg" width="41" height="41" fill="none" viewBox="0 0 41 41"><path fill="url(#paint0_radial_4649_75244)" d="M20.5 41C31.822 41 41 31.822 41 20.5S31.822 0 20.5 0 0 9.178 0 20.5 9.178 41 20.5 41Z"/><path fill="url(#paint1_radial_4649_75244)" d="M20.5 41C31.822 41 41 31.822 41 20.5S31.822 0 20.5 0 0 9.178 0 20.5 9.178 41 20.5 41Z" opacity=".35"/><path fill="url(#paint2_radial_4649_75244)" d="M20.5 41C31.822 41 41 31.822 41 20.5S31.822 0 20.5 0 0 9.178 0 20.5 9.178 41 20.5 41Z" opacity=".32"/><path fill="#fff" d="M20.498 5.691c-8.21 0-14.809 6.65-14.809 14.809 0 8.16 6.65 14.808 14.809 14.808 8.16 0 14.808-6.648 14.808-14.808S28.708 5.69 20.498 5.69Zm7.908 15.464h-7.153c-.201.201-.453.352-.755.352A1.01 1.01 0 0 1 19.49 20.5c0-.302.152-.554.353-.756v-9.419c0-.352.302-.654.655-.654.352 0 .655.302.655.654v9.42l.05.05h7.203c.352 0 .655.302.655.654 0 .353-.252.706-.655.706Z" opacity=".31"/><path fill="url(#paint3_linear_4649_75244)" d="M20.5 0C9.167 0 0 9.167 0 20.5S9.167 41 20.5 41 41 31.833 41 20.5 31.833 0 20.5 0Zm0 40.194C9.62 40.194.806 31.38.806 20.5.806 9.62 9.62.806 20.5.806 31.38.806 40.194 9.62 40.194 20.5c0 10.88-8.814 19.694-19.694 19.694Z" opacity=".5"/><defs><radialGradient id="paint0_radial_4649_75244" cx="0" cy="0" r="1" gradientTransform="translate(19.392 17.147) scale(24.5062)" gradientUnits="userSpaceOnUse"><stop stop-color="#4F8DFF"/><stop offset=".33" stop-color="#6198FF"/><stop offset=".519" stop-color="#4686FF"/><stop offset=".672" stop-color="#4A89FF"/><stop offset=".807" stop-color="#4989FF"/><stop offset=".928" stop-color="#7E9DD7"/><stop offset="1" stop-color="#005AFF"/></radialGradient><radialGradient id="paint1_radial_4649_75244" cx="0" cy="0" r="1" gradientTransform="translate(18.463 17.147) scale(22.9217)" gradientUnits="userSpaceOnUse"><stop stop-color="#fff" stop-opacity="0"/><stop offset=".859" stop-color="#fff" stop-opacity=".859"/><stop offset="1" stop-color="#fff"/></radialGradient><radialGradient id="paint2_radial_4649_75244" cx="0" cy="0" r="1" gradientTransform="translate(12.895 3.226) scale(33.7441)" gradientUnits="userSpaceOnUse"><stop offset=".917" stop-color="#fff" stop-opacity="0"/><stop offset=".917" stop-color="#1049B3"/></radialGradient><linearGradient id="paint3_linear_4649_75244" x1="9.982" x2="32.667" y1="-.582" y2="44.891" gradientUnits="userSpaceOnUse"><stop offset=".511" stop-color="#fff"/><stop offset=".58" stop-color="#fff"/><stop offset="1" stop-color="#fff" stop-opacity="0"/><stop offset="1" stop-color="#fff" stop-opacity="0"/></linearGradient></defs></svg>