<svg xmlns="http://www.w3.org/2000/svg" width="44" height="44" fill="none" viewBox="0 0 44 44"><path fill="url(#paint0_radial_5157_1202)" d="M34.913 22.007c0 3.987-1.808 7.68-4.925 10.153-1.273.997-2.103 2.308-2.361 3.71l-.092-.018H16.468l-.13.019c-.258-1.459-1.014-2.733-2.102-3.545-4.022-3.046-5.903-8.03-4.87-13.05 1.014-4.893 4.98-8.88 9.868-9.895 3.892-.831 7.876.129 10.902 2.584a12.875 12.875 0 0 1 4.777 10.042Z"/><path fill="url(#paint1_radial_5157_1202)" d="M33.89 11.478a1.368 1.368 0 0 1-.967-2.336l2.524-2.524a1.368 1.368 0 0 1 1.935 1.934l-2.524 2.524a1.372 1.372 0 0 1-.969.402Z"/><path fill="url(#paint2_radial_5157_1202)" d="M42.651 23.434h-3.52c-.744 0-1.348-.643-1.348-1.435s.604-1.434 1.349-1.434h3.52c.744 0 1.348.642 1.348 1.434 0 .792-.604 1.435-1.349 1.435Z"/><path fill="url(#paint3_radial_5157_1202)" d="M36.414 38.26c-.35 0-.7-.132-.967-.4l-2.524-2.524a1.368 1.368 0 1 1 1.935-1.935l2.524 2.524a1.368 1.368 0 0 1-.968 2.336Z"/><path fill="url(#paint4_linear_5157_1202)" d="M27.654 35.87c.047.01.078.055.07.103a5.01 5.01 0 0 0-.079.854v4.01c0 1.735-1.481 3.163-3.282 3.163h-4.689c-1.575 0-3.282-1.157-3.282-3.686v-3.198c0-.37-.03-.742-.103-1.1a.123.123 0 0 1 .103-.147h11.245c.005 0 .011 0 .017.002Z"/><path fill="url(#paint5_radial_5157_1202)" d="M22 6.217c-.792 0-1.435-.604-1.435-1.348v-3.52C20.565.604 21.208 0 22 0s1.435.604 1.435 1.349v3.52c0 .744-.643 1.348-1.435 1.348Z"/><path fill="url(#paint6_radial_5157_1202)" d="M10.109 11.478c-.35 0-.7-.133-.967-.402L6.618 8.552a1.368 1.368 0 1 1 1.935-1.934l2.524 2.524a1.368 1.368 0 0 1-.968 2.336Z"/><path fill="url(#paint7_radial_5157_1202)" d="M4.869 23.434h-3.52C.604 23.434 0 22.791 0 21.999s.604-1.434 1.349-1.434h3.52c.744 0 1.348.642 1.348 1.434 0 .792-.604 1.435-1.348 1.435Z"/><path fill="url(#paint8_radial_5157_1202)" d="M7.585 38.26a1.368 1.368 0 0 1-.967-2.336l2.524-2.523a1.368 1.368 0 0 1 1.935 1.935L8.553 37.86a1.365 1.365 0 0 1-.968.4Z"/><defs><radialGradient id="paint0_radial_5157_1202" cx="0" cy="0" r="1" gradientTransform="rotate(64.259 1.928 15.493) scale(18.2973 17.8949)" gradientUnits="userSpaceOnUse"><stop stop-color="#fff"/><stop offset="1" stop-color="#477BDC"/></radialGradient><radialGradient id="paint1_radial_5157_1202" cx="0" cy="0" r="1" gradientTransform="rotate(63.435 12.166 30.2) scale(3.61959)" gradientUnits="userSpaceOnUse"><stop stop-color="#fff"/><stop offset="1" stop-color="#90AFEA"/></radialGradient><radialGradient id="paint2_radial_5157_1202" cx="0" cy="0" r="1" gradientTransform="rotate(42.709 -6.407 60.324) scale(2.60348 3.24395)" gradientUnits="userSpaceOnUse"><stop stop-color="#fff"/><stop offset="1" stop-color="#90AFEA"/></radialGradient><radialGradient id="paint3_radial_5157_1202" cx="0" cy="0" r="1" gradientTransform="rotate(63.435 -9.502 43.59) scale(3.61959)" gradientUnits="userSpaceOnUse"><stop stop-color="#fff"/><stop offset="1" stop-color="#90AFEA"/></radialGradient><radialGradient id="paint5_radial_5157_1202" cx="0" cy="0" r="1" gradientTransform="rotate(77.005 10.914 13.103) scale(3.92664 2.15083)" gradientUnits="userSpaceOnUse"><stop stop-color="#fff"/><stop offset="1" stop-color="#90AFEA"/></radialGradient><radialGradient id="paint6_radial_5157_1202" cx="0" cy="0" r="1" gradientTransform="rotate(63.435 -.986 8.918) scale(3.61959)" gradientUnits="userSpaceOnUse"><stop stop-color="#fff"/><stop offset="1" stop-color="#90AFEA"/></radialGradient><radialGradient id="paint7_radial_5157_1202" cx="0" cy="0" r="1" gradientTransform="rotate(42.709 -25.299 12.007) scale(2.60348 3.24395)" gradientUnits="userSpaceOnUse"><stop stop-color="#fff"/><stop offset=".964" stop-color="#90AFEA"/></radialGradient><radialGradient id="paint8_radial_5157_1202" cx="0" cy="0" r="1" gradientTransform="rotate(63.435 -22.655 22.31) scale(3.61959)" gradientUnits="userSpaceOnUse"><stop stop-color="#fff"/><stop offset="1" stop-color="#90AFEA"/></radialGradient><linearGradient id="paint4_linear_5157_1202" x1="16.739" x2="18.857" y1="35.869" y2="44.749" gradientUnits="userSpaceOnUse"><stop stop-color="#D7DDE8"/><stop offset="1" stop-color="#ACAFD0"/></linearGradient></defs></svg>