<svg xmlns="http://www.w3.org/2000/svg" width="64" height="46" fill="none" viewBox="0 0 64 46"><path fill="url(#paint0_linear_5157_1228)" d="M63.198 40.53c-2.206-8.273-9.79-14.34-18.754-14.34-3.08 0-5.975.689-8.55 1.976 3.678 2.942 6.436 6.987 7.677 11.63a4.6 4.6 0 0 1-4.459 5.791h20.18c2.665 0 4.596-2.482 3.906-5.056Z"/><path fill="url(#paint1_linear_5157_1228)" d="M44.445 23.661a8.274 8.274 0 1 0 0-16.548 8.274 8.274 0 0 0 0 16.548Z"/><path fill="url(#paint2_linear_5157_1228)" d="M22.1 23.34c-10.296 0-18.938 6.987-21.512 16.456a4.6 4.6 0 0 0 4.459 5.791h34.107c3.033 0 5.24-2.896 4.458-5.791C41.038 30.326 32.351 23.34 22.1 23.34Z"/><path fill="#3D80FF" d="M22.1 23.34c-10.296 0-18.938 6.987-21.512 16.456a4.6 4.6 0 0 0 4.459 5.791h34.107c3.033 0 5.24-2.896 4.458-5.791C41.038 30.326 32.351 23.34 22.1 23.34Z" opacity=".3"/><path fill="url(#paint3_linear_5157_1228)" d="M22.102 23.339c10.297 0 18.938 6.986 21.512 16.455a4.6 4.6 0 0 1-4.458 5.792H5.049c-3.034 0-5.24-2.896-4.459-5.792C3.118 30.325 11.806 23.34 22.102 23.34Zm0-.46c-10.25 0-19.26 6.895-21.925 16.777a4.964 4.964 0 0 0 .873 4.367A5.074 5.074 0 0 0 5.049 46h34.107a5.074 5.074 0 0 0 3.999-1.977 4.964 4.964 0 0 0 .873-4.367C41.362 29.82 32.353 22.88 22.102 22.88Z"/><path fill="url(#paint4_linear_5157_1228)" d="M22.107 20.442a9.515 9.515 0 1 0 0-19.03 9.515 9.515 0 0 0 0 19.03Z"/><path fill="#3D80FF" d="M31.46 12.459A9.515 9.515 0 1 0 12.68 9.39a9.515 9.515 0 0 0 18.78 3.068Z" opacity=".3"/><path fill="url(#paint5_linear_5157_1228)" d="M22.103 1.46c5.24 0 9.515 4.274 9.515 9.515 0 5.24-4.274 9.515-9.515 9.515-5.24 0-9.515-4.275-9.515-9.515a9.475 9.475 0 0 1 9.515-9.515Zm0-.46c-5.47 0-9.928 4.459-9.928 9.929 0 5.47 4.459 9.928 9.928 9.928 5.47 0 9.93-4.458 9.93-9.928 0-5.47-4.46-9.929-9.93-9.929Z"/><defs><linearGradient id="paint0_linear_5157_1228" x1="49.628" x2="49.628" y1="10.751" y2="46.342" gradientUnits="userSpaceOnUse"><stop stop-color="#fff"/><stop offset=".717" stop-color="#104DBF"/></linearGradient><linearGradient id="paint1_linear_5157_1228" x1="44.443" x2="44.443" y1="10.751" y2="46.341" gradientUnits="userSpaceOnUse"><stop stop-color="#104DBF"/><stop offset=".717" stop-color="#fff"/></linearGradient><linearGradient id="paint2_linear_5157_1228" x1="28.907" x2="13.195" y1="52.225" y2="25.012" gradientUnits="userSpaceOnUse"><stop stop-color="#fff" stop-opacity="0"/><stop offset="1" stop-color="#fff" stop-opacity=".5"/></linearGradient><linearGradient id="paint3_linear_5157_1228" x1="22.083" x2="22.083" y1="46.036" y2="22.898" gradientUnits="userSpaceOnUse"><stop stop-color="#fff" stop-opacity="0"/><stop offset="1" stop-color="#fff" stop-opacity=".8"/></linearGradient><linearGradient id="paint4_linear_5157_1228" x1="26.841" x2="17.334" y1="19.177" y2="2.711" gradientUnits="userSpaceOnUse"><stop stop-color="#fff" stop-opacity="0"/><stop offset="1" stop-color="#fff" stop-opacity=".5"/></linearGradient><linearGradient id="paint5_linear_5157_1228" x1="22.084" x2="22.084" y1="20.883" y2="1.009" gradientUnits="userSpaceOnUse"><stop stop-color="#fff" stop-opacity="0"/><stop offset="1" stop-color="#fff" stop-opacity=".8"/></linearGradient></defs></svg>