<svg xmlns="http://www.w3.org/2000/svg" width="41" height="41" fill="none" viewBox="0 0 41 41"><path fill="url(#paint0_linear_5157_3304)" d="M20.5 0C9.197 0 0 9.196 0 20.498 0 31.799 9.197 41 20.5 41S41 31.804 41 20.502C41 9.201 31.803 0 20.5 0Zm8.833 16.59L19.081 27.627a2.357 2.357 0 0 1-1.737.757c-.549 0-1.093-.19-1.542-.568l-5.521-4.73a2.362 2.362 0 0 1-.256-3.336 2.358 2.358 0 0 1 3.336-.255l3.794 3.25 8.705-9.372a2.369 2.369 0 0 1 3.345-.123c.96.89 1.013 2.385.128 3.34Z"/><defs><linearGradient id="paint0_linear_5157_3304" x1="41" x2="12.091" y1="0" y2="33.81" gradientUnits="userSpaceOnUse"><stop stop-color="#1768FF"/><stop offset="1" stop-color="#B6D0FF"/></linearGradient></defs></svg>