<svg xmlns="http://www.w3.org/2000/svg" width="36" height="44" fill="none" viewBox="0 0 36 44"><path fill="url(#paint0_linear_5157_1213)" d="M35.792 3.754v36.492A3.761 3.761 0 0 1 32.038 44H3.754A3.761 3.761 0 0 1 0 40.246V3.754A3.761 3.761 0 0 1 3.754 0h28.284a3.761 3.761 0 0 1 3.754 3.754Z"/><path fill="#2E025A" d="M35.793 17.912v22.334A3.761 3.761 0 0 1 32.04 44H3.756a3.761 3.761 0 0 1-3.754-3.754V28.38c-.032 0 19.566 19.057 35.791-10.467Z" opacity=".2"/><path fill="#fff" d="M30.32 6.3H6.3a.638.638 0 0 1-.636-.636c0-.35.286-.637.636-.637h24.02c.35 0 .637.287.637.637 0 .35-.286.636-.636.636ZM17.85 17.15H6.3a.638.638 0 0 1-.636-.637c0-.35.286-.636.636-.636h11.55c.35 0 .635.286.635.636 0 .35-.286.636-.636.636ZM24.212 11.423H6.268a.638.638 0 0 1-.636-.636c0-.35.286-.637.636-.637h17.944c.35 0 .636.287.636.637 0 .35-.286.636-.636.636Z"/><path fill="#fff" d="M28.285 38.242H7.478A1.174 1.174 0 0 1 6.3 37.065V30.29c0-.637.509-1.178 1.177-1.178h20.807c.636 0 1.177.51 1.177 1.177v6.777c0 .636-.54 1.177-1.177 1.177Z" opacity=".6"/><defs><linearGradient id="paint0_linear_5157_1213" x1="30.495" x2="6.09" y1="4.229" y2="38.608" gradientUnits="userSpaceOnUse"><stop stop-color="#fff"/><stop offset=".173" stop-color="#B6D0FF"/><stop offset=".45" stop-color="#87A1D2"/><stop offset=".69" stop-color="#1552C4"/><stop offset=".882" stop-color="#1552C4"/><stop offset="1" stop-color="#1552C4"/></linearGradient></defs></svg>