<svg xmlns="http://www.w3.org/2000/svg" width="68" height="63" fill="none" viewBox="0 0 68 63"><mask id="mask0_5157_1255" width="62" height="62" x="0" y="0" maskUnits="userSpaceOnUse" style="mask-type:luminance"><path fill="#fff" d="M.59.502v60.926h60.926V.502H.59ZM17.328 9.54a3.09 3.09 0 0 1 3.096-3.096h21.383a3.09 3.09 0 0 1 3.097 3.096V25.15a3.09 3.09 0 0 1-3.097 3.096H20.424a3.09 3.09 0 0 1-3.096-3.096V9.54Zm6.695 43.477a2.429 2.429 0 0 1-2.427 2.427H4.691a2.429 2.429 0 0 1-2.427-2.427V40.673a2.429 2.429 0 0 1 2.427-2.427h16.905a2.429 2.429 0 0 1 2.427 2.427v12.344Zm35.861 0a2.429 2.429 0 0 1-2.427 2.427H40.552a2.429 2.429 0 0 1-2.427-2.427V40.673a2.429 2.429 0 0 1 2.427-2.427h16.905a2.429 2.429 0 0 1 2.427 2.427v12.344Z"/></mask><g mask="url(#mask0_5157_1255)"><path fill="url(#paint0_linear_5157_1255)" d="M49 31.76H32.764c0-1.088-.042-10.252-.042-10.252 0-.92-.753-1.674-1.674-1.674-.92 0-1.674.753-1.674 1.674.042 3.557.042 7.616.042 10.21h-16.32c-.92 0-1.673.753-1.673 1.674v8.955c0 .92.753 1.673 1.674 1.673.92 0 1.673-.753 1.673-1.673v-7.282h32.514v7.282c0 .92.753 1.673 1.674 1.673.92 0 1.674-.753 1.674-1.673v-8.955c.041-.879-.712-1.632-1.632-1.632Z"/></g><path fill="url(#paint1_linear_5157_1255)" d="M41.75 28.204H20.367a3.09 3.09 0 0 1-3.097-3.097V9.499a3.09 3.09 0 0 1 3.097-3.097H41.75A3.09 3.09 0 0 1 44.846 9.5v15.608c-.041 1.716-1.422 3.097-3.096 3.097Z"/><path fill="url(#paint2_linear_5157_1255)" d="M41.75 6.444a3.09 3.09 0 0 1 3.097 3.096v15.608a3.09 3.09 0 0 1-3.097 3.097H20.367a3.09 3.09 0 0 1-3.096-3.097V9.54a3.09 3.09 0 0 1 3.096-3.096H41.75Zm0-.419H20.367a3.51 3.51 0 0 0-3.515 3.515v15.608a3.51 3.51 0 0 0 3.515 3.515H41.75a3.51 3.51 0 0 0 3.515-3.515V9.54c-.042-1.924-1.59-3.515-3.515-3.515Z"/><path fill="url(#paint3_linear_5157_1255)" d="M41.75 6.443H20.367A3.09 3.09 0 0 0 17.27 9.54v.837a3.09 3.09 0 0 1 3.097-3.097H41.75a3.09 3.09 0 0 1 3.096 3.097V9.54c-.041-1.716-1.422-3.097-3.096-3.097Z"/><path fill="url(#paint4_linear_5157_1255)" d="M21.582 55.444H4.677a2.429 2.429 0 0 1-2.427-2.427V40.673a2.429 2.429 0 0 1 2.427-2.427h16.905a2.429 2.429 0 0 1 2.427 2.427v12.344a2.429 2.429 0 0 1-2.427 2.427Z"/><path fill="url(#paint5_linear_5157_1255)" d="M21.583 38.247a2.429 2.429 0 0 1 2.427 2.427v12.344a2.429 2.429 0 0 1-2.427 2.427H4.678a2.429 2.429 0 0 1-2.427-2.427V40.674a2.429 2.429 0 0 1 2.427-2.427h16.905Zm0-.419H4.678a2.848 2.848 0 0 0-2.845 2.846v12.344a2.848 2.848 0 0 0 2.845 2.845h16.905a2.848 2.848 0 0 0 2.846-2.845V40.674c0-1.549-1.297-2.846-2.846-2.846Z"/><path fill="url(#paint6_linear_5157_1255)" d="M21.582 38.246H4.677a2.429 2.429 0 0 0-2.427 2.427v1.004a2.429 2.429 0 0 1 2.427-2.427h16.905a2.429 2.429 0 0 1 2.427 2.427v-1.004a2.429 2.429 0 0 0-2.427-2.427Z"/><path fill="url(#paint7_linear_5157_1255)" d="M57.746 55.444H40.841a2.429 2.429 0 0 1-2.427-2.427V40.673a2.429 2.429 0 0 1 2.427-2.427h16.905a2.429 2.429 0 0 1 2.427 2.427v12.344a2.429 2.429 0 0 1-2.427 2.427Z"/><path fill="url(#paint8_linear_5157_1255)" d="M57.747 38.247a2.429 2.429 0 0 1 2.427 2.427v12.344a2.429 2.429 0 0 1-2.427 2.427H40.842a2.429 2.429 0 0 1-2.428-2.427V40.674a2.429 2.429 0 0 1 2.428-2.427h16.905Zm0-.419H40.842a2.848 2.848 0 0 0-2.846 2.846v12.344a2.848 2.848 0 0 0 2.846 2.845h16.905a2.848 2.848 0 0 0 2.845-2.845V40.674a2.848 2.848 0 0 0-2.845-2.846Z"/><path fill="url(#paint9_linear_5157_1255)" d="M57.746 38.246H40.841a2.429 2.429 0 0 0-2.427 2.427v1.004a2.429 2.429 0 0 1 2.427-2.427h16.905a2.429 2.429 0 0 1 2.427 2.427v-1.004a2.429 2.429 0 0 0-2.427-2.427Z"/><path fill="url(#paint10_radial_5157_1255)" d="M2.282 55.696c-.753 0-1.381-.126-1.381-.252 0-.125.628-.25 1.38-.25.754 0 1.382.125 1.382.25-.042.168-.628.252-1.381.252Z"/><path fill="url(#paint11_radial_5157_1255)" d="M3.08 55.444c0 3.934-.378 7.156-.838 7.156-.46 0-.837-3.18-.837-7.156 0-3.933.377-7.155.837-7.155.502.042.837 3.222.837 7.155Z"/><path fill="url(#paint12_radial_5157_1255)" d="M2.576 55.445c0 .754-.125 1.381-.293 1.381-.167 0-.293-.627-.293-1.38 0-.754.126-1.381.293-1.381.126.041.293.627.293 1.38Z"/><g opacity=".5"><path fill="url(#paint13_radial_5157_1255)" d="M2.282 55.696c-.753 0-1.381-.126-1.381-.252 0-.125.628-.25 1.38-.25.754 0 1.382.125 1.382.25-.042.168-.628.252-1.381.252Z"/><path fill="url(#paint14_radial_5157_1255)" d="M3.08 55.444c0 3.934-.378 7.156-.838 7.156-.46 0-.837-3.18-.837-7.156 0-3.933.377-7.155.837-7.155.502.042.837 3.222.837 7.155Z"/><path fill="url(#paint15_radial_5157_1255)" d="M2.576 55.445c0 .754-.125 1.381-.293 1.381-.167 0-.293-.627-.293-1.38 0-.754.126-1.381.293-1.381.126.041.293.627.293 1.38Z"/></g><path fill="url(#paint16_radial_5157_1255)" d="M60.157 40.631c4.02 0 7.28-.337 7.28-.753s-3.26-.753-7.28-.753c-4.022 0-7.281.337-7.281.753s3.26.753 7.28.753Z"/><path fill="url(#paint17_radial_5157_1255)" d="M60.156 40.13c-.753 0-1.381-.126-1.381-.252s.628-.251 1.38-.251c.754 0 1.382.125 1.382.251s-.628.251-1.381.251Z"/><path fill="url(#paint18_radial_5157_1255)" d="M60.99 39.878c0 3.934-.376 7.156-.837 7.156-.46 0-.837-3.18-.837-7.156 0-3.933.377-7.155.837-7.155.46 0 .837 3.222.837 7.155Z"/><path fill="url(#paint19_radial_5157_1255)" d="M60.447 39.879c0 .753-.125 1.38-.293 1.38-.167 0-.293-.627-.293-1.38 0-.753.126-1.381.293-1.381.168 0 .293.628.293 1.38Z"/><g opacity=".5"><path fill="url(#paint20_radial_5157_1255)" d="M60.157 40.631c4.02 0 7.28-.337 7.28-.753s-3.26-.753-7.28-.753c-4.022 0-7.281.337-7.281.753s3.26.753 7.28.753Z"/><path fill="url(#paint21_radial_5157_1255)" d="M60.156 40.13c-.753 0-1.381-.126-1.381-.252s.628-.251 1.38-.251c.754 0 1.382.125 1.382.251s-.628.251-1.381.251Z"/><path fill="url(#paint22_radial_5157_1255)" d="M60.99 39.878c0 3.934-.376 7.156-.837 7.156-.46 0-.837-3.18-.837-7.156 0-3.933.377-7.155.837-7.155.46 0 .837 3.222.837 7.155Z"/><path fill="url(#paint23_radial_5157_1255)" d="M60.447 39.879c0 .753-.125 1.38-.293 1.38-.167 0-.293-.627-.293-1.38 0-.753.126-1.381.293-1.381.168 0 .293.628.293 1.38Z"/></g><g opacity=".6"><path fill="url(#paint24_radial_5157_1255)" d="M41.216 7.28c0 1.883-8.494 3.39-18.997 3.39S3.22 9.162 3.22 7.28c0-1.883 8.495-3.39 18.998-3.39 10.503 0 18.997 1.507 18.997 3.39Z"/><path fill="url(#paint25_radial_5157_1255)" d="M22.22 8.996c8.574 0 15.524-.768 15.524-1.716 0-.947-6.95-1.716-15.524-1.716-8.574 0-15.525.769-15.525 1.716 0 .948 6.95 1.716 15.525 1.716Z"/></g><path fill="url(#paint26_radial_5157_1255)" d="M17.21 7.281c0-4.017.335-7.281.754-7.281.418 0 .753 3.264.753 7.281 0 4.017-.335 7.281-.753 7.281-.419 0-.754-3.264-.754-7.281Z"/><path fill="url(#paint27_radial_5157_1255)" d="M17.674 7.281c0-.753.126-1.38.251-1.38.126 0 .251.627.251 1.38 0 .753-.125 1.381-.25 1.381-.126 0-.252-.628-.252-1.38Z"/><path fill="url(#paint28_radial_5157_1255)" d="M17.913 8.117c-3.933 0-7.155-.376-7.155-.837 0-.46 3.18-.837 7.155-.837 3.934 0 7.156.377 7.156.837 0 .46-3.18.837-7.156.837Z"/><path fill="url(#paint29_radial_5157_1255)" d="M17.913 7.574c-.753 0-1.38-.125-1.38-.293 0-.167.627-.293 1.38-.293.753 0 1.381.126 1.381.293 0 .168-.628.293-1.38.293Z"/><g opacity=".5"><path fill="url(#paint30_radial_5157_1255)" d="M17.21 7.281c0-4.017.335-7.281.754-7.281.418 0 .753 3.264.753 7.281 0 4.017-.335 7.281-.753 7.281-.419 0-.754-3.264-.754-7.281Z"/><path fill="url(#paint31_radial_5157_1255)" d="M17.674 7.281c0-.753.126-1.38.251-1.38.126 0 .251.627.251 1.38 0 .753-.125 1.381-.25 1.381-.126 0-.252-.628-.252-1.38Z"/><path fill="url(#paint32_radial_5157_1255)" d="M17.913 8.117c-3.933 0-7.155-.376-7.155-.837 0-.46 3.18-.837 7.155-.837 3.934 0 7.156.377 7.156.837 0 .46-3.18.837-7.156.837Z"/><path fill="url(#paint33_radial_5157_1255)" d="M17.913 7.574c-.753 0-1.38-.125-1.38-.293 0-.167.627-.293 1.38-.293.753 0 1.381.126 1.381.293 0 .168-.628.293-1.38.293Z"/></g><defs><radialGradient id="paint10_radial_5157_1255" cx="0" cy="0" r="1" gradientTransform="matrix(0 .25742 -1.36493 0 2.265 54.948)" gradientUnits="userSpaceOnUse"><stop stop-color="#fff"/><stop offset=".07" stop-color="#fff" stop-opacity=".93"/><stop offset="1" stop-color="#fff" stop-opacity="0"/></radialGradient><radialGradient id="paint11_radial_5157_1255" cx="0" cy="0" r="1" gradientTransform="matrix(.83057 0 0 7.14041 2.05 55.443)" gradientUnits="userSpaceOnUse"><stop stop-color="#fff"/><stop offset=".07" stop-color="#fff" stop-opacity=".93"/><stop offset="1" stop-color="#fff" stop-opacity="0"/></radialGradient><radialGradient id="paint12_radial_5157_1255" cx="0" cy="0" r="1" gradientTransform="matrix(.28788 0 0 1.36498 2.05 55.46)" gradientUnits="userSpaceOnUse"><stop stop-color="#fff"/><stop offset=".07" stop-color="#fff" stop-opacity=".93"/><stop offset="1" stop-color="#fff" stop-opacity="0"/></radialGradient><radialGradient id="paint13_radial_5157_1255" cx="0" cy="0" r="1" gradientTransform="matrix(0 .25742 -1.36493 0 2.265 54.948)" gradientUnits="userSpaceOnUse"><stop stop-color="#fff"/><stop offset=".07" stop-color="#fff" stop-opacity=".93"/><stop offset="1" stop-color="#fff" stop-opacity="0"/></radialGradient><radialGradient id="paint14_radial_5157_1255" cx="0" cy="0" r="1" gradientTransform="matrix(.83057 0 0 7.14041 2.05 55.443)" gradientUnits="userSpaceOnUse"><stop stop-color="#fff"/><stop offset=".07" stop-color="#fff" stop-opacity=".93"/><stop offset="1" stop-color="#fff" stop-opacity="0"/></radialGradient><radialGradient id="paint15_radial_5157_1255" cx="0" cy="0" r="1" gradientTransform="matrix(.28788 0 0 1.36498 2.05 55.46)" gradientUnits="userSpaceOnUse"><stop stop-color="#fff"/><stop offset=".07" stop-color="#fff" stop-opacity=".93"/><stop offset="1" stop-color="#fff" stop-opacity="0"/></radialGradient><radialGradient id="paint16_radial_5157_1255" cx="0" cy="0" r="1" gradientTransform="matrix(0 .74275 -7.29559 0 60.174 39.363)" gradientUnits="userSpaceOnUse"><stop stop-color="#fff"/><stop offset=".07" stop-color="#fff" stop-opacity=".93"/><stop offset="1" stop-color="#fff" stop-opacity="0"/></radialGradient><radialGradient id="paint17_radial_5157_1255" cx="0" cy="0" r="1" gradientTransform="matrix(0 .25743 -1.36493 0 60.165 39.363)" gradientUnits="userSpaceOnUse"><stop stop-color="#fff"/><stop offset=".07" stop-color="#fff" stop-opacity=".93"/><stop offset="1" stop-color="#fff" stop-opacity="0"/></radialGradient><radialGradient id="paint18_radial_5157_1255" cx="0" cy="0" r="1" gradientTransform="matrix(.83057 0 0 7.14042 59.942 39.856)" gradientUnits="userSpaceOnUse"><stop stop-color="#fff"/><stop offset=".07" stop-color="#fff" stop-opacity=".93"/><stop offset="1" stop-color="#fff" stop-opacity="0"/></radialGradient><radialGradient id="paint19_radial_5157_1255" cx="0" cy="0" r="1" gradientTransform="matrix(.28788 0 0 1.36498 59.943 39.873)" gradientUnits="userSpaceOnUse"><stop stop-color="#fff"/><stop offset=".07" stop-color="#fff" stop-opacity=".93"/><stop offset="1" stop-color="#fff" stop-opacity="0"/></radialGradient><radialGradient id="paint20_radial_5157_1255" cx="0" cy="0" r="1" gradientTransform="matrix(0 .74275 -7.29559 0 60.174 39.363)" gradientUnits="userSpaceOnUse"><stop stop-color="#fff"/><stop offset=".07" stop-color="#fff" stop-opacity=".93"/><stop offset="1" stop-color="#fff" stop-opacity="0"/></radialGradient><radialGradient id="paint21_radial_5157_1255" cx="0" cy="0" r="1" gradientTransform="matrix(0 .25743 -1.36493 0 60.165 39.363)" gradientUnits="userSpaceOnUse"><stop stop-color="#fff"/><stop offset=".07" stop-color="#fff" stop-opacity=".93"/><stop offset="1" stop-color="#fff" stop-opacity="0"/></radialGradient><radialGradient id="paint22_radial_5157_1255" cx="0" cy="0" r="1" gradientTransform="matrix(.83057 0 0 7.14042 59.942 39.856)" gradientUnits="userSpaceOnUse"><stop stop-color="#fff"/><stop offset=".07" stop-color="#fff" stop-opacity=".93"/><stop offset="1" stop-color="#fff" stop-opacity="0"/></radialGradient><radialGradient id="paint23_radial_5157_1255" cx="0" cy="0" r="1" gradientTransform="matrix(.28788 0 0 1.36498 59.943 39.873)" gradientUnits="userSpaceOnUse"><stop stop-color="#fff"/><stop offset=".07" stop-color="#fff" stop-opacity=".93"/><stop offset="1" stop-color="#fff" stop-opacity="0"/></radialGradient><radialGradient id="paint24_radial_5157_1255" cx="0" cy="0" r="1" gradientTransform="matrix(18.9868 0 0 3.39087 22.327 7.227)" gradientUnits="userSpaceOnUse"><stop stop-color="#fff" stop-opacity=".6"/><stop offset="1" stop-color="#fff" stop-opacity="0"/></radialGradient><radialGradient id="paint25_radial_5157_1255" cx="0" cy="0" r="1" gradientTransform="matrix(15.5086 0 0 1.69635 22.155 7.572)" gradientUnits="userSpaceOnUse"><stop stop-color="#fff"/><stop offset=".141" stop-color="#fff" stop-opacity=".859"/><stop offset="1" stop-color="#fff" stop-opacity="0"/></radialGradient><radialGradient id="paint26_radial_5157_1255" cx="0" cy="0" r="1" gradientTransform="matrix(-.74276 0 0 -7.29558 18.506 7.305)" gradientUnits="userSpaceOnUse"><stop stop-color="#fff"/><stop offset=".07" stop-color="#fff" stop-opacity=".93"/><stop offset="1" stop-color="#fff" stop-opacity="0"/></radialGradient><radialGradient id="paint27_radial_5157_1255" cx="0" cy="0" r="1" gradientTransform="matrix(-.25742 0 0 -1.36494 18.51 7.273)" gradientUnits="userSpaceOnUse"><stop stop-color="#fff"/><stop offset=".07" stop-color="#fff" stop-opacity=".93"/><stop offset="1" stop-color="#fff" stop-opacity="0"/></radialGradient><radialGradient id="paint28_radial_5157_1255" cx="0" cy="0" r="1" gradientTransform="matrix(0 .83057 -7.1404 0 17.943 7.141)" gradientUnits="userSpaceOnUse"><stop stop-color="#fff"/><stop offset=".07" stop-color="#fff" stop-opacity=".93"/><stop offset="1" stop-color="#fff" stop-opacity="0"/></radialGradient><radialGradient id="paint29_radial_5157_1255" cx="0" cy="0" r="1" gradientTransform="matrix(0 .28786 -1.36493 0 17.918 7.142)" gradientUnits="userSpaceOnUse"><stop stop-color="#fff"/><stop offset=".07" stop-color="#fff" stop-opacity=".93"/><stop offset="1" stop-color="#fff" stop-opacity="0"/></radialGradient><radialGradient id="paint30_radial_5157_1255" cx="0" cy="0" r="1" gradientTransform="matrix(-.74276 0 0 -7.29558 18.506 7.305)" gradientUnits="userSpaceOnUse"><stop stop-color="#fff"/><stop offset=".07" stop-color="#fff" stop-opacity=".93"/><stop offset="1" stop-color="#fff" stop-opacity="0"/></radialGradient><radialGradient id="paint31_radial_5157_1255" cx="0" cy="0" r="1" gradientTransform="matrix(-.25742 0 0 -1.36494 18.51 7.273)" gradientUnits="userSpaceOnUse"><stop stop-color="#fff"/><stop offset=".07" stop-color="#fff" stop-opacity=".93"/><stop offset="1" stop-color="#fff" stop-opacity="0"/></radialGradient><radialGradient id="paint32_radial_5157_1255" cx="0" cy="0" r="1" gradientTransform="matrix(0 .83057 -7.1404 0 17.943 7.141)" gradientUnits="userSpaceOnUse"><stop stop-color="#fff"/><stop offset=".07" stop-color="#fff" stop-opacity=".93"/><stop offset="1" stop-color="#fff" stop-opacity="0"/></radialGradient><radialGradient id="paint33_radial_5157_1255" cx="0" cy="0" r="1" gradientTransform="matrix(0 .28786 -1.36493 0 17.918 7.142)" gradientUnits="userSpaceOnUse"><stop stop-color="#fff"/><stop offset=".07" stop-color="#fff" stop-opacity=".93"/><stop offset="1" stop-color="#fff" stop-opacity="0"/></radialGradient><linearGradient id="paint0_linear_5157_1255" x1="31.066" x2="31.066" y1="19.855" y2="44.069" gradientUnits="userSpaceOnUse"><stop stop-color="#4B61B8"/><stop offset=".109" stop-color="#4B61B8"/><stop offset=".281" stop-color="#4B61B8"/><stop offset=".494" stop-color="#4B61B8"/><stop offset=".74" stop-color="#B6D0FF"/><stop offset="1" stop-color="#E5E5E5"/></linearGradient><linearGradient id="paint1_linear_5157_1255" x1="31.055" x2="31.055" y1="6.455" y2="28.211" gradientUnits="userSpaceOnUse"><stop stop-color="#E5F1FF"/><stop offset=".036" stop-color="#E5F1FF"/><stop offset=".282" stop-color="#B6D0FF"/><stop offset=".646" stop-color="#80ACFF"/><stop offset="1" stop-color="#4B61B8"/></linearGradient><linearGradient id="paint2_linear_5157_1255" x1="31.056" x2="31.056" y1="28.629" y2="6.036" gradientUnits="userSpaceOnUse"><stop stop-color="#3D80FF"/><stop offset=".282" stop-color="#fff" stop-opacity=".5"/><stop offset=".646" stop-color="#FAFAFA" stop-opacity=".399"/><stop offset="1" stop-color="#EFEFEF" stop-opacity=".3"/></linearGradient><linearGradient id="paint3_linear_5157_1255" x1="31.055" x2="31.055" y1="6.454" y2="10.356" gradientUnits="userSpaceOnUse"><stop stop-color="#E5F1FF"/><stop offset=".036" stop-color="#fff" stop-opacity=".849"/><stop offset=".282" stop-color="#fff" stop-opacity=".5"/><stop offset=".646" stop-color="#FAFAFA" stop-opacity=".399"/><stop offset="1" stop-color="#EFEFEF" stop-opacity=".3"/></linearGradient><linearGradient id="paint4_linear_5157_1255" x1="13.116" x2="13.116" y1="38.254" y2="55.453" gradientUnits="userSpaceOnUse"><stop stop-color="#E5F1FF"/><stop offset=".036" stop-color="#fff" stop-opacity=".849"/><stop offset=".282" stop-color="#B6D0FF"/><stop offset=".646" stop-color="#8CB3FB"/><stop offset="1" stop-color="#4B61B8"/></linearGradient><linearGradient id="paint5_linear_5157_1255" x1="13.117" x2="13.117" y1="55.872" y2="37.836" gradientUnits="userSpaceOnUse"><stop stop-color="#fff" stop-opacity=".9"/><stop offset=".282" stop-color="#fff" stop-opacity=".5"/><stop offset=".646" stop-color="#FAFAFA" stop-opacity=".399"/><stop offset="1" stop-color="#EFEFEF" stop-opacity=".3"/></linearGradient><linearGradient id="paint6_linear_5157_1255" x1="13.116" x2="13.116" y1="38.254" y2="41.702" gradientUnits="userSpaceOnUse"><stop stop-color="#fff" stop-opacity=".9"/><stop offset=".036" stop-color="#fff" stop-opacity=".849"/><stop offset=".282" stop-color="#fff" stop-opacity=".5"/><stop offset=".646" stop-color="#FAFAFA" stop-opacity=".399"/><stop offset="1" stop-color="#EFEFEF" stop-opacity=".3"/></linearGradient><linearGradient id="paint7_linear_5157_1255" x1="49.306" x2="49.306" y1="38.254" y2="55.453" gradientUnits="userSpaceOnUse"><stop stop-color="#E5F1FF"/><stop offset=".036" stop-color="#fff" stop-opacity=".849"/><stop offset=".282" stop-color="#B6D0FF"/><stop offset=".646" stop-color="#89B0F9"/><stop offset="1" stop-color="#4B61B8"/></linearGradient><linearGradient id="paint8_linear_5157_1255" x1="49.306" x2="49.306" y1="55.872" y2="37.836" gradientUnits="userSpaceOnUse"><stop stop-color="#fff" stop-opacity=".9"/><stop offset=".282" stop-color="#fff" stop-opacity=".5"/><stop offset=".646" stop-color="#FAFAFA" stop-opacity=".399"/><stop offset="1" stop-color="#EFEFEF" stop-opacity=".3"/></linearGradient><linearGradient id="paint9_linear_5157_1255" x1="49.306" x2="49.306" y1="38.254" y2="41.702" gradientUnits="userSpaceOnUse"><stop stop-color="#fff" stop-opacity=".9"/><stop offset=".036" stop-color="#fff" stop-opacity=".849"/><stop offset=".282" stop-color="#fff" stop-opacity=".5"/><stop offset=".646" stop-color="#FAFAFA" stop-opacity=".399"/><stop offset="1" stop-color="#EFEFEF" stop-opacity=".3"/></linearGradient></defs></svg>