<svg version="1.1" id="ic_logo" xmlns="http://www.w3.org/2000/svg" xmlns:xlink="http://www.w3.org/1999/xlink" x="0px" y="0px" viewBox="0 0 52 16" xml:space="preserve" aria-hidden="true"><style type="text/css">
	.st0{fill:#135EEB;}
	.st1{fill:#080F1A;}
	.st2{fill:#4FC3F7;}
	.st3{fill:#3F88F6;}
</style><polygon class="st0" points="4.8,4.7 5.1,4.3 8.9,4.7 11.2,6.3 11.7,9.1 11.8,11 11.5,11.4 11.3,11.7 8.4,11.7 5.8,10.4 4.3,8.8  4.3,6.5 4.4,5.4 "></polygon><g><g><polygon class="st1" points="23,12.4 23,5.3 20.5,5.3 20.5,4 27.1,4 27.1,5.3 24.5,5.3 24.5,12.4 		"></polygon><path class="st1" d="M31.3,12.4V4h3c1.5,0,2.7,0.4,3.6,1.1S39,6.9,39,8.2s-0.4,2.3-1.2,3.1c-0.8,0.7-2,1.1-3.7,1.1H31.3z M32.8,11.2h1.5c1,0,1.8-0.3,2.3-0.7c0.5-0.5,0.8-1.2,0.8-2.2S37.2,6.6,36.7,6c-0.5-0.5-1.4-0.8-2.5-0.8h-1.4V11.2L32.8,11.2z"></path><path class="st1" d="M47.5,12.5c-1.3,0-2.4-0.4-3.2-1.2C43.4,10.5,43,9.4,43,8.2s0.4-2.3,1.3-3.1c0.9-0.8,1.9-1.2,3.2-1.2 s2.3,0.4,3.2,1.2C51.6,5.9,52,7,52,8.2s-0.4,2.3-1.3,3.1C49.8,12.1,48.8,12.5,47.5,12.5z M47.5,5.1c-0.8,0-1.5,0.3-2.1,0.9 s-0.8,1.3-0.8,2.2s0.3,1.6,0.8,2.2c0.6,0.6,1.3,0.9,2.1,0.9s1.5-0.3,2.1-0.9c0.6-0.6,0.8-1.3,0.8-2.2S50.2,6.6,49.6,6 C49,5.4,48.3,5.1,47.5,5.1z"></path><path class="st1" d="M28.1,5.8c0-0.9,0.6-1.6,1.5-1.7l0,0v6.7c0,0.9-0.6,1.6-1.5,1.7l0,0V5.8z"></path><path class="st1" d="M40.3,5.8c0-0.9,0.6-1.6,1.5-1.7l0,0v6.7c0,0.9-0.6,1.6-1.5,1.7l0,0V5.8z"></path></g><g><g><path class="st0" d="M5.8,4.6c-0.3,0-0.7,0-1,0.1C4.7,5,4.7,5.4,4.7,5.7c0,3.1,2.6,5.7,5.8,5.7h1c0.1-0.3,0.1-0.7,0.1-1.1 C11.6,7.2,9,4.6,5.8,4.6z"></path><path class="st2" d="M10.5,11.4c-3.2,0-5.8-2.6-5.8-5.7c0-0.3,0-0.7,0.1-1C2.1,5.2,0,7.5,0,10.3V16h5.8c2.8,0,5.2-2,5.7-4.6H10.5 z"></path><path class="st3" d="M10.5,0C7.6,0,5.3,2,4.8,4.7c0.3-0.1,0.7-0.1,1-0.1c3.2,0,5.8,2.6,5.8,5.7c0,0.4,0,0.7-0.1,1.1h4.8V5.7 C16.3,2.6,13.7,0,10.5,0z"></path></g></g></g></svg>