<svg xmlns="http://www.w3.org/2000/svg" width="346" height="120" fill="none" viewBox="0 0 346 120"><rect width="344.5" height="118.5" x=".75" y=".75" stroke="#E23237" stroke-width="1.5" rx="9.25"/><g fill-rule="evenodd" clip-path="url(#clip0_2184_7337)" clip-rule="evenodd"><path fill="#B52E31" d="M129 73.79V47.469h3.384L148.47 68.65V47.468h3.218V73.79h-3.385l-16.086-21.393v21.393H129ZM177.885 72.746a19.535 19.535 0 0 1-6.852 1.212c-9.527 0-14.29-4.555-14.29-13.705 0-8.649 4.596-12.994 13.788-12.994 2.633 0 5.098.376 7.354 1.086v2.925a19.123 19.123 0 0 0-6.978-1.295c-7.186 0-10.779 3.426-10.779 10.195 0 7.311 3.551 10.947 10.612 10.947 1.128 0 2.382-.168 3.761-.46v-8.816h3.384v10.905ZM183.316 63.638v-16.17h3.385v16.17c0 5.055 2.507 7.604 7.562 7.604 5.014 0 7.563-2.549 7.563-7.604v-16.17h3.384v16.17c0 6.894-3.635 10.362-10.947 10.362-7.312 0-10.947-3.468-10.947-10.362ZM214.653 47.468v23.565h13.788v2.758h-17.172V47.468h3.384ZM233.33 73.79h-3.552L242.856 44l13.078 29.79h-3.76l-3.385-8.272h-8.691l.92-2.758h6.643l-4.93-11.908-9.401 22.939ZM259.568 73.79V47.469h11.24c5.014 0 7.52 2.089 7.52 6.309 0 3.426-2.465 5.975-7.353 7.604L280 73.791h-4.471l-8.356-11.825v-2.214c5.014-.794 7.562-2.716 7.562-5.808 0-2.423-1.379-3.635-4.178-3.635h-7.521v23.482h-3.468Z"/><path fill="#E23237" d="M66 40.625 92.649 31 120 40.457l-4.421 35.696L92.649 89 70.09 76.32 66 40.625Z"/><path fill="#B52E31" d="M120 40.457 92.648 31v58l22.931-12.847L120 40.457Z"/><path fill="#fff" d="M92.69 37.78 76.081 75.19l6.197-.125 3.347-8.453h14.833l3.635 8.537 5.909.125L92.69 37.78Zm.041 12.01 5.62 11.884H87.814l4.916-11.885Z"/></g><defs><clipPath id="clip0_2184_7337"><path fill="#fff" d="M66 31h214v58H66z"/></clipPath></defs></svg>