<svg xmlns="http://www.w3.org/2000/svg" width="345" height="120" fill="none" viewBox="0 0 345 120"><path stroke="#282828" stroke-width="1.5" d="M.75 10A9.25 9.25 0 0 1 10 .75h325a9.25 9.25 0 0 1 9.25 9.25v100a9.25 9.25 0 0 1-9.25 9.25H10A9.25 9.25 0 0 1 .75 110V10Z"/><path fill="#252F3E" d="M148.121 49.62c0 1.337.145 2.423.398 3.218.289.796.651 1.664 1.157 2.605.181.289.253.578.253.832 0 .361-.217.723-.687 1.085l-2.277 1.519c-.326.217-.651.325-.94.325-.362 0-.723-.18-1.085-.506a11.164 11.164 0 0 1-1.301-1.7 27.95 27.95 0 0 1-1.121-2.134c-2.82 3.328-6.362 4.991-10.628 4.991-3.037 0-5.459-.868-7.23-2.604-1.772-1.736-2.676-4.051-2.676-6.945 0-3.074 1.085-5.57 3.29-7.45 2.205-1.882 5.134-2.822 8.857-2.822 1.229 0 2.494.109 3.832.29 1.338.18 2.711.47 4.157.795v-2.64c0-2.75-.578-4.666-1.699-5.788-1.157-1.12-3.109-1.663-5.892-1.663a16.44 16.44 0 0 0-3.905.47 28.797 28.797 0 0 0-3.904 1.23c-.578.253-1.012.398-1.265.47-.253.072-.434.108-.579.108-.506 0-.759-.361-.759-1.12v-1.773c0-.579.073-1.013.253-1.266.181-.253.506-.507 1.013-.76 1.265-.65 2.783-1.193 4.555-1.627 1.771-.47 3.651-.688 5.639-.688 4.302 0 7.447.977 9.472 2.93 1.988 1.953 3 4.92 3 8.898v11.72h.072Zm-14.677 5.497c1.193 0 2.422-.217 3.724-.651 1.301-.434 2.458-1.23 3.434-2.315.578-.687 1.012-1.447 1.229-2.315.217-.868.362-1.917.362-3.147V45.17a30.2 30.2 0 0 0-3.326-.615 27.23 27.23 0 0 0-3.398-.217c-2.422 0-4.194.47-5.387 1.447-1.193.977-1.771 2.351-1.771 4.16 0 1.7.434 2.966 1.337 3.834.868.904 2.133 1.338 3.796 1.338Zm29.029 3.906c-.65 0-1.084-.108-1.373-.361-.29-.217-.543-.724-.76-1.41l-8.495-27.96c-.217-.724-.325-1.194-.325-1.447 0-.579.289-.905.867-.905h3.543c.687 0 1.157.109 1.41.362.289.217.506.724.723 1.41l6.073 23.945 5.64-23.944c.181-.724.398-1.194.687-1.41.289-.218.795-.363 1.446-.363h2.892c.687 0 1.157.109 1.446.362.289.217.542.724.687 1.41l5.712 24.235 6.254-24.234c.217-.724.47-1.194.723-1.41.289-.218.759-.363 1.41-.363h3.362c.578 0 .903.29.903.905 0 .18-.036.361-.072.578a5.1 5.1 0 0 1-.253.905l-8.712 27.96c-.217.723-.47 1.193-.76 1.41-.289.217-.759.362-1.373.362h-3.109c-.687 0-1.157-.109-1.446-.362-.289-.253-.543-.724-.687-1.447l-5.604-23.33-5.567 23.294c-.181.723-.397 1.193-.687 1.447-.289.253-.795.361-1.446.361h-3.109Zm46.454.977c-1.88 0-3.759-.217-5.567-.651-1.808-.434-3.217-.904-4.157-1.447-.579-.325-.976-.687-1.121-1.013a2.548 2.548 0 0 1-.217-1.012v-1.845c0-.76.289-1.121.832-1.121.216 0 .433.036.65.108.217.073.543.217.904.362a19.66 19.66 0 0 0 3.977 1.266c1.446.29 2.856.434 4.302.434 2.277 0 4.048-.398 5.278-1.194 1.229-.795 1.879-1.953 1.879-3.436 0-1.013-.325-1.845-.976-2.532-.65-.687-1.879-1.302-3.651-1.88l-5.242-1.628c-2.639-.832-4.591-2.062-5.784-3.69-1.193-1.591-1.807-3.364-1.807-5.244 0-1.52.325-2.858.976-4.015a9.286 9.286 0 0 1 2.603-2.966c1.084-.832 2.313-1.447 3.759-1.881 1.446-.434 2.965-.615 4.555-.615.796 0 1.627.036 2.422.145.832.108 1.591.253 2.35.398.723.18 1.41.361 2.061.578.65.217 1.157.434 1.518.651.506.29.868.58 1.085.905.217.289.325.687.325 1.193v1.7c0 .76-.289 1.158-.831 1.158-.29 0-.76-.145-1.374-.434-2.061-.94-4.374-1.411-6.941-1.411-2.061 0-3.688.326-4.808 1.013-1.121.687-1.699 1.736-1.699 3.219 0 1.013.361 1.88 1.084 2.568.723.687 2.061 1.374 3.977 1.99l5.133 1.627c2.603.832 4.483 1.99 5.604 3.472 1.12 1.483 1.663 3.183 1.663 5.064 0 1.556-.326 2.966-.94 4.196-.651 1.23-1.519 2.315-2.639 3.183-1.121.904-2.459 1.555-4.013 2.025-1.627.507-3.326.76-5.17.76Z"/><path fill="#F90" fill-rule="evenodd" d="M215.254 78.264C203.362 87.237 186.085 92 171.229 92c-20.819 0-39.579-7.865-53.748-20.936-1.12-1.033-.108-2.437 1.229-1.624 15.326 9.083 34.23 14.585 53.784 14.585 13.193 0 27.687-2.807 41.025-8.567 1.988-.923 3.686 1.33 1.735 2.806Z" clip-rule="evenodd"/><path fill="#F90" fill-rule="evenodd" d="M220.205 72.504c-1.518-1.993-10.048-.96-13.916-.48-1.156.148-1.337-.886-.289-1.661 6.795-4.874 17.964-3.47 19.265-1.846 1.302 1.661-.361 13.07-6.723 18.535-.975.85-1.915.406-1.481-.701 1.445-3.656 4.662-11.89 3.144-13.847Z" clip-rule="evenodd"/></svg>