<svg xmlns="http://www.w3.org/2000/svg" width="345" height="120" fill="none" viewBox="0 0 345 120"><rect width="343.5" height="118.5" x=".75" y=".75" stroke="#035BDA" stroke-width="1.5" rx="9.25"/><path fill="#035BDA" fill-rule="evenodd" d="m113.667 38-11.834 23.384 20.834 23.693L84 89.384 144 90l-30.333-52ZM112 29 84.45 51.431 64 85l17.409-1.702L112 29Z" clip-rule="evenodd"/><path fill="#035BDA" d="M167.062 44 154 75.473h4.441l3.396-8.823h14.439l3.61 8.823h4.416L171.193 44h-4.131Zm1.947 3.819h.094c.175.965.349 1.668.523 2.107l5.343 13.41h-11.802l5.296-13.41c.206-.512.388-1.215.546-2.107Zm100.993 4.653c-3.182 0-5.85 1.104-8.003 3.314-2.137 2.195-3.206 5.041-3.206 8.538 0 3.702.982 6.577 2.945 8.625C263.701 74.983 266.4 76 269.836 76c3.514 0 6.34-.716 8.478-2.15v-3.38c-2.296 1.668-4.813 2.501-7.552 2.501-2.438 0-4.353-.68-5.747-2.041-1.393-1.36-2.121-3.292-2.185-5.794H280v-1.888c0-3.38-.871-6.02-2.612-7.923-1.742-1.902-4.204-2.853-7.386-2.853Zm-17.4.132c-1.409 0-2.683.446-3.823 1.339-1.14.878-1.986 2.106-2.541 3.687h-.095v-4.631h-3.894v22.474h3.894V64.017c0-2.502.555-4.478 1.663-5.926 1.124-1.449 2.517-2.173 4.179-2.173 1.283 0 2.264.24 2.945.724V52.91c-.538-.205-1.314-.307-2.328-.307Zm-64.341.395v3.072h13.037l-14.391 18.283v1.12h19.972V72.4h-14.248l14.391-18.37v-1.032h-18.761Zm24.619 0V66.43c0 6.38 2.897 9.569 8.692 9.569 3.388 0 5.889-1.36 7.504-4.082h.095v3.555h3.895V53h-3.895v12.949c0 2.092-.617 3.79-1.852 5.092-1.219 1.287-2.779 1.931-4.679 1.931-3.926 0-5.889-2.37-5.889-7.11V52.998h-3.871Zm57.051 2.502c1.9 0 3.38.578 4.441 1.734 1.077 1.156 1.623 2.772 1.638 4.85h-13.132c.3-1.96 1.092-3.548 2.375-4.763 1.282-1.214 2.842-1.821 4.678-1.821Z"/></svg>