<svg xmlns="http://www.w3.org/2000/svg" width="345" height="120" fill="none" viewBox="0 0 345 120"><rect width="343.5" height="118.5" x=".75" y=".75" stroke="#174478" stroke-width="1.5" rx="9.25"/><path fill="#ED6F41" d="M191.535 40.672c2.668 0 4.815-2.125 4.815-4.836 0-2.71-2.116-4.836-4.815-4.836-2.698 0-4.814 2.125-4.814 4.836 0 2.71 2.146 4.836 4.814 4.836Z"/><path fill="#B2D0E1" d="M244.22 43.936c-.154.432-.706.709-1.135.555l-6.777-2.403c-.43-.154-.706-.708-.552-1.14l2.392-6.807c.153-.43.705-.708 1.134-.554l6.778 2.402c.429.155.705.709.552 1.14l-2.392 6.807Z"/><path fill="#72AAC9" d="M256.794 55.857c-.153.431-.705.709-1.135.555l-6.777-2.403c-.429-.154-.705-.708-.552-1.14l2.392-6.807c.153-.431.705-.708 1.135-.554l6.777 2.402c.429.154.705.709.552 1.14l-2.392 6.807ZM243.239 62.233c-.153.431-.705.709-1.134.555l-6.778-2.403c-.429-.154-.705-.708-.552-1.14l2.392-6.807c.154-.431.706-.708 1.135-.554l6.777 2.402c.43.154.706.709.552 1.14l-2.392 6.807Z"/><path fill="#3383B1" d="M255.78 72.429c-.153.43-.705.708-1.134.554l-6.778-2.403c-.429-.154-.705-.708-.552-1.14l2.392-6.806c.154-.432.706-.709 1.135-.555l6.777 2.403c.43.154.706.708.552 1.14l-2.392 6.807Z"/><path fill="#00649E" d="M252.409 82.378c-.153.431-.705.708-1.135.554l-6.777-2.402c-.429-.154-.705-.709-.552-1.14l2.392-6.807c.153-.431.705-.709 1.135-.555l6.777 2.403c.429.154.705.708.552 1.14l-2.392 6.807Z"/><path fill="#3383B1" d="M242.38 78.836c-.153.431-.705.708-1.135.554l-6.777-2.402c-.429-.154-.705-.709-.552-1.14l2.392-6.807c.153-.431.705-.709 1.135-.555l6.777 2.403c.429.154.705.708.552 1.14l-2.392 6.807Z"/><path fill="#174478" d="M259.614 82.932h-1.134v2.834h-.859v-2.834h-1.135v-.708h3.128v.708ZM263.999 85.766h-.858v-2.403l-.706 1.571h-.705l-.583-1.57v2.402h-.981v-3.542h1.135l.858 1.848.828-1.848h1.012v3.542ZM224.011 47.91c-2.545-2.833-6.072-4.127-10.58-4.127-4.232 0-7.759 1.417-10.457 4.405-2.668 2.834-3.956 6.653-3.956 11.212 0 4.836 1.257 8.655 3.802 11.489 2.546 2.834 6.072 4.25 10.58 4.405 4.508 0 7.912-1.417 10.458-4.251 2.545-2.834 3.802-6.653 3.802-11.49.184-4.99-1.104-8.809-3.649-11.642Zm-5.367 18.851c-1.257 1.695-2.974 2.557-5.213 2.557-4.815 0-7.053-3.265-7.053-9.918 0-3.111.552-5.39 1.962-7.239 1.258-1.694 2.975-2.556 5.091-2.556 4.815 0 7.053 3.265 7.053 9.795 0 3.265-.552 5.667-1.84 7.361ZM196.074 43.66h-10.887c-1.134 0-1.962 1.417-1.962 2.988 0 1.694.858 2.988 1.962 2.988h3.803v23.132c0 1.14 1.564 2.125 3.527 2.125 1.962 0 3.526-.985 3.526-2.125V43.66M169.945 43.937h-26.404c-5.213.154-10.028 2.834-10.028 8.502 0 4.835 2.668 7.084 6.226 8.778 2.392 1.263 4.661 1.571 5.642 3.42.859 1.847.276 4.527-2.974 4.681h-8.894c-2.545 0-3.802-.709-3.802-3.542v-6.807c0-5.822-.982-9.796-3.098-11.92-1.962-1.972-5.09-3.112-9.169-3.266h-5.213c-1.135 0-1.963 1.263-1.963 2.988s.859 2.988 1.963 2.988H117.291c3.68.277 5.366 2.125 5.366 5.236-1.134-.277-2.116-.431-2.974-.431-.859 0-1.687 0-2.546.154-3.526.277-6.348 1.263-8.617 2.834-2.545 1.971-3.956 4.681-3.956 8.224 0 .554 0 1.14.153 1.694-1.686 1.694-3.404 1.848-8.341 1.848-5.919 0-9.047-3.111-9.047-9.518 0-3.11.859-5.544 2.27-7.361 1.564-1.849 3.68-2.68 5.796-2.557h8.341c.981 0 1.84-1.417 1.84-2.988 0-1.57-.859-2.988-1.84-2.988h-8.065c-4.386 0-8.464 1.571-11.286 4.528C81.411 51.268 80 55.088 80 59.924c0 4.835 1.41 8.655 4.11 11.334 2.667 2.68 6.347 3.974 11.009 4.128 6.225.154 8.617-.277 12.144-2.557l.153.154c1.84 1.694 4.385 2.403 7.636 2.403.552 0 1.411 0 2.116-.154 1.257-.154 2.668-.431 3.68-.862 1.564-.709 3.097-1.695 3.803-2.68.858 1.417 2.545 3.696 6.348 3.696h11.714c2.546-.277 4.662-.986 6.226-1.971 2.269-1.417 3.802-4.251 3.802-7.085 0-4.836-2.821-6.653-6.348-8.378-2.392-1.263-4.385-1.694-5.642-3.419-1.258-1.694-.43-4.405 2.668-4.405h12.266v36.593c0 1.263 1.564 2.28 3.527 2.28s3.527-.986 3.527-2.28V74.092c1.84.863 3.802 1.263 6.072 1.263h.705c4.109-.154 7.483-1.417 10.028-3.973 2.668-2.68 3.956-6.53 3.956-11.335.429-10.873-4.109-16.11-13.555-16.11ZM122.78 63.22c0 3.974-1.84 5.945-5.52 6.253h-.859c-3.097 0-4.661-1.263-4.661-3.973 0-2.988 1.84-4.836 5.52-5.237.859-.154 1.84-.154 2.821-.154.552 0 1.411.154 2.668.431v2.68h.031Zm51.673 3.696c-.981 1.14-2.545 1.849-4.508 2.126-.705.154-1.41.154-2.269.154-1.687 0-3.097-.555-4.385-1.571V49.882h4.385c.859 0 1.564 0 2.269.154 2.116.277 3.527.986 4.662 2.125 1.41 1.417 2.116 3.974 2.116 7.516-.154 3.265-.859 5.667-2.27 7.238Z"/></svg>