<svg xmlns="http://www.w3.org/2000/svg" width="345" height="121" fill="none" viewBox="0 0 345 121"><rect width="343.5" height="118.5" x=".75" y=".828" stroke="#174478" stroke-width="1.5" rx="9.25"/><g clip-path="url(#clip0_7812_14583)"><path fill="#A179DC" d="M213.862 41.051c-.001-1.547-.332-2.914-1.001-4.087-.657-1.154-1.641-2.121-2.962-2.886-10.898-6.284-21.807-12.549-32.703-18.84-2.937-1.695-5.785-1.633-8.7.087-4.338 2.558-26.057 15.001-32.529 18.75-2.665 1.543-3.962 3.904-3.963 6.973-.004 12.638 0 25.276-.004 37.914 0 1.513.317 2.854.957 4.01.658 1.188 1.656 2.182 3.007 2.964 6.472 3.748 28.193 16.19 32.53 18.749 2.917 1.721 5.765 1.783 8.703.087 10.896-6.291 21.806-12.556 32.706-18.84 1.351-.782 2.349-1.776 3.006-2.964.639-1.156.957-2.496.957-4.01 0 0 0-25.269-.004-37.907Z"/><path fill="#280068" d="m173.058 59.883-40.101 23.09c.658 1.188 1.656 2.181 3.006 2.963 6.473 3.749 28.194 16.191 32.531 18.75 2.917 1.721 5.765 1.783 8.703.086 10.896-6.29 21.806-12.555 32.706-18.84 1.351-.781 2.349-1.775 3.006-2.963l-39.851-23.086Z"/><path fill="#390091" d="M213.862 41.05c0-1.547-.331-2.914-1-4.087L173.059 59.88l39.851 23.087c.638-1.156.956-2.497.956-4.01 0 0 0-25.27-.004-37.908Z"/><path fill="#fff" d="M196.669 51.252v4.316h4.316v-4.316h2.158v4.316h4.315v2.158h-4.315v4.315h4.315V64.2h-4.315v4.316h-2.158V64.2h-4.316v4.316h-2.158V64.2h-4.316v-2.158h4.316v-4.315h-4.316v-2.158h4.316v-4.316h2.158Zm4.316 6.474h-4.316v4.315h4.316v-4.315Z"/><path fill="#fff" d="M173.147 29.576c11.257 0 21.085 6.114 26.349 15.2l-.051-.087-13.245 7.627c-2.609-4.419-7.393-7.4-12.88-7.462h-.173c-8.369 0-15.153 6.783-15.153 15.152 0 2.736.73 5.302 1.998 7.517 2.612 4.56 7.522 7.635 13.155 7.635 5.667 0 10.605-3.114 13.203-7.723l-.063.111 13.225 7.661c-5.207 9.01-14.9 15.105-26.026 15.227l-.339.002c-11.293 0-21.149-6.152-26.4-15.287a30.296 30.296 0 0 1-4.03-15.143c0-16.806 13.623-30.43 30.43-30.43Z"/></g><defs><clipPath id="clip0_7812_14583"><path fill="#fff" d="M132 14h82v92.25h-82z"/></clipPath></defs></svg>