<svg xmlns="http://www.w3.org/2000/svg" width="346" height="120" fill="none" viewBox="0 0 346 120"><rect width="344.5" height="118.5" x=".75" y=".75" stroke="#1D91B4" stroke-width="1.5" rx="9.25"/><path fill="#364548" fill-rule="evenodd" d="M177.011 54.29v-7.934c0-1.041.656-1.88 1.743-1.88h.301c1.086 0 1.74.84 1.74 1.88V63.06c0 4.073-2.027 7.314-5.558 9.379a10.493 10.493 0 0 1-5.345 1.447h-.75c-4.102 0-7.362-2.014-9.445-5.518a10.282 10.282 0 0 1-1.457-5.308v-.744c0-4.075 2.028-7.313 5.556-9.382a10.456 10.456 0 0 1 5.346-1.447h.75c2.777 0 5.133 1.068 7.119 2.804Zm-14.987 8.396c0 2.943 1.436 5.155 4.032 6.565 1.05.57 2.19.877 3.387.877 2.909 0 5.066-1.362 6.554-3.81.692-1.138 1.014-2.383 1.014-3.708 0-2.55-1.216-4.54-3.286-6.019a7.095 7.095 0 0 0-4.208-1.346c-3.17 0-5.451 1.59-6.82 4.416a6.86 6.86 0 0 0-.673 3.025Zm31.897-11.2h.524c4.384 0 7.718 2.111 9.831 5.911.845 1.52 1.297 3.18 1.297 4.918v.744c0 4.073-2.023 7.319-5.56 9.38a10.516 10.516 0 0 1-5.343 1.446h-.749c-4.103 0-7.363-2.014-9.445-5.518a10.283 10.283 0 0 1-1.458-5.308v-.744c0-4.075 2.035-7.303 5.555-9.38a10.404 10.404 0 0 1 5.348-1.45Zm-7.12 11.2c0 2.856 1.412 4.957 3.841 6.434 1.141.694 2.397 1.008 3.73 1.008 2.841 0 4.942-1.43 6.404-3.813.697-1.135 1.013-2.382 1.013-3.705 0-2.655-1.289-4.684-3.491-6.154a7.071 7.071 0 0 0-4.003-1.21c-3.17 0-5.451 1.59-6.82 4.415a6.847 6.847 0 0 0-.674 3.025Zm34.501-7.14c-.571-.266-1.64-.354-2.258-.378-3.161-.118-5.448 1.65-6.79 4.42a6.836 6.836 0 0 0-.675 3.022c0 3.219 1.702 5.472 4.595 6.845 1.056.502 2.421.597 3.575.597 1.016 0 2.452-.618 3.353-1.043l.156-.074h.7l.077.016c.86.177 1.51.72 1.51 1.639v.371c0 2.288-4.21 2.812-5.816 2.923-5.669.39-9.909-2.702-11.526-8.072a9.655 9.655 0 0 1-.407-2.83v-.743c0-4.075 2.036-7.302 5.555-9.378a10.413 10.413 0 0 1 5.347-1.45h.75a9.68 9.68 0 0 1 5.539 1.698l.137.094.087.142c.179.296.334.638.334.99v.372c0 .96-.722 1.475-1.595 1.642l-.072.013h-.224c-.565 0-1.848-.58-2.352-.816Zm12.273 2.544a388.57 388.57 0 0 1 4.436-4.358c.416-.4 1.989-2.097 2.609-2.097h.678l.077.015c.863.178 1.51.721 1.51 1.642v.372c0 .628-.742 1.358-1.15 1.788-.87.915-1.785 1.8-2.675 2.697l-4.57 4.608c1.968 1.958 3.934 3.92 5.886 5.893.54.546 1.08 1.093 1.612 1.646.188.197.466.441.623.714.169.254.274.542.274.849v.388l-.022.09c-.213.856-.761 1.548-1.717 1.548h-.301c-.627 0-1.333-.703-1.763-1.105-.883-.827-1.736-1.697-2.602-2.542l-2.905-2.832v4.526c0 1.043-.657 1.88-1.743 1.88h-.298c-1.087 0-1.743-.837-1.743-1.88V46.43c0-1.043.657-1.876 1.743-1.876h.298c1.086 0 1.743.834 1.743 1.876v11.66Zm47.158-6.455h.375c1.135 0 1.892.76 1.892 1.88 0 1.555-1.497 1.953-2.793 1.953-1.699 0-3.321 1.022-4.493 2.167-1.46 1.43-2.1 3.262-2.1 5.275v9.096c0 1.043-.655 1.88-1.743 1.88h-.298c-1.088 0-1.743-.837-1.743-1.88v-9.618c0-3.694 1.811-6.708 4.829-8.823 1.803-1.263 3.867-1.93 6.074-1.93ZM253.84 69.66c1.377.477 2.947.409 4.36.164.722-.305 2.57-1.105 3.25-.988l.106.018.097.048c.415.2.812.482 1.023.901.496.983.258 1.971-.715 2.53l-.324.185c-3.589 2.057-7.406 1.772-10.984-.15-1.71-.917-3.019-2.28-3.984-3.942l-.226-.389c-2.304-3.962-1.993-8.13.605-11.898.898-1.302 2.07-2.309 3.441-3.095l.518-.297c3.38-1.938 7.003-1.806 10.474-.105 1.867.914 3.379 2.278 4.421 4.07l.187.323c.758 1.302-.223 2.437-1.235 3.213-1.175.9-2.361 1.983-3.487 2.948-2.511 2.152-5.018 4.31-7.527 6.463Zm-3.25-2.267c2.809-2.39 5.617-4.783 8.417-7.184.957-.82 2.007-1.67 2.956-2.532-.762-.953-2.034-1.64-3.116-2.05-2.182-.825-4.334-.548-6.335.6-2.62 1.501-3.736 3.893-3.638 6.87.039 1.172.356 2.302.983 3.3.221.351.467.681.733.996ZM113.253 50.474h7.791v7.909h3.94c1.819 0 3.69-.322 5.413-.902.847-.285 1.797-.682 2.632-1.18-1.1-1.427-1.661-3.227-1.827-5.002-.224-2.414.266-5.556 1.911-7.445l.819-.94.976.778c2.457 1.96 4.524 4.7 4.888 7.822 2.959-.864 6.432-.66 9.04.835l1.07.613-.563 1.092c-2.206 4.274-6.816 5.598-11.324 5.364C131.273 76.102 116.587 84 98.781 84c-9.2 0-17.64-3.415-22.446-11.52l-.079-.132-.7-1.415c-1.624-3.567-2.164-7.476-1.798-11.38l.11-1.17h6.662v-7.91h7.791v-7.736h15.583V35h9.349v15.474Z" clip-rule="evenodd"/><path fill="#22A0C8" fill-rule="evenodd" d="M138.496 53.4c.523-4.032-2.516-7.2-4.4-8.703-2.172 2.493-2.509 9.027.898 11.777-1.901 1.677-5.908 3.197-10.01 3.197H75.052c-.399 4.252.353 8.168 2.07 11.52l.568 1.031c.36.606.752 1.191 1.177 1.755 2.053.13 3.946.176 5.677.138 3.404-.075 6.18-.474 8.285-1.198a.595.595 0 1 1 .393 1.126c-.28.096-.572.186-.873.271h-.001c-1.657.47-3.434.787-5.727.927.136.002-.141.02-.142.02-.078.005-.176.016-.254.02-.903.05-1.877.061-2.872.061-1.09 0-2.162-.02-3.36-.08l-.031.02c4.16 4.643 10.665 7.428 18.82 7.428 17.257 0 31.895-7.597 38.377-24.651 4.599.468 9.018-.696 11.029-4.593-3.203-1.836-7.321-1.25-9.692-.067Z" clip-rule="evenodd"/><path fill="#37B1D9" fill-rule="evenodd" d="M138.495 53.4c.523-4.032-2.516-7.2-4.4-8.703-2.171 2.493-2.509 9.027.898 11.777-1.901 1.677-5.908 3.197-10.009 3.197H78.008c-.204 6.512 2.23 11.455 6.535 14.444h.001c3.403-.075 6.18-.474 8.284-1.198a.595.595 0 1 1 .393 1.126c-.28.096-.572.186-.873.271h-.001c-1.657.47-3.587.827-5.88.968l-.055-.053c5.873 2.992 14.389 2.98 24.152-.743 10.948-4.177 21.136-12.134 28.244-21.234a8.775 8.775 0 0 0-.313.147Z" clip-rule="evenodd"/><path fill="#1B81A5" fill-rule="evenodd" d="M75.144 64.838c.31 2.278.982 4.41 1.977 6.353l.568 1.031c.36.607.753 1.192 1.177 1.755 2.053.13 3.946.176 5.678.138 3.403-.075 6.18-.474 8.284-1.198a.595.595 0 1 1 .393 1.126c-.28.096-.572.186-.873.272h-.001c-1.657.47-3.576.806-5.869.947-.079.004-.216.005-.295.01a51.48 51.48 0 0 1-2.862.08c-1.088 0-2.202-.02-3.4-.08 4.16 4.643 10.706 7.438 18.86 7.438 14.774 0 27.628-5.568 35.088-17.872H75.144Z" clip-rule="evenodd"/><path fill="#1D91B4" fill-rule="evenodd" d="M78.458 64.838c.883 3.999 3.006 7.139 6.087 9.277 3.403-.075 6.18-.474 8.284-1.198a.595.595 0 1 1 .393 1.126c-.28.096-.572.186-.873.272h-.002c-1.657.47-3.616.806-5.909.947 5.873 2.99 14.364 2.948 24.127-.776 5.906-2.254 11.591-5.608 16.691-9.648H78.458Z" clip-rule="evenodd"/><path fill="#23A3C2" fill-rule="evenodd" d="M81.83 51.763h6.751v6.705H81.83v-6.705Zm.561.559h.533v5.588h-.533v-5.588Zm1.002 0h.555v5.588h-.555v-5.588Zm1.023 0h.554v5.588h-.554v-5.588Zm1.024 0h.554v5.588h-.554v-5.588Zm1.023 0h.554v5.588h-.554v-5.588Zm1.023 0h.533v5.588h-.533v-5.588ZM89.62 44.026h6.752v6.705H89.62v-6.705Zm.562.56h.533v5.587h-.533v-5.588Zm1.002 0h.554v5.587h-.554v-5.588Zm1.023 0h.554v5.587h-.554v-5.588Zm1.023 0h.554v5.587h-.554v-5.588Zm1.023 0h.555v5.587h-.555v-5.588Zm1.023 0h.534v5.587h-.534v-5.588Z" clip-rule="evenodd"/><path fill="#34BBDE" fill-rule="evenodd" d="M89.62 51.763h6.752v6.705H89.62v-6.705Zm.562.559h.533v5.588h-.533v-5.588Zm1.002 0h.554v5.588h-.554v-5.588Zm1.023 0h.554v5.588h-.554v-5.588Zm1.023 0h.554v5.588h-.554v-5.588Zm1.023 0h.555v5.588h-.555v-5.588Zm1.023 0h.534v5.588h-.534v-5.588Z" clip-rule="evenodd"/><path fill="#23A3C2" fill-rule="evenodd" d="M97.412 51.763h6.753v6.705h-6.753v-6.705Zm.563.559h.532v5.588h-.532v-5.588Zm1.002 0h.554v5.588h-.555v-5.588Zm1.023 0h.554v5.588H100v-5.588Zm1.023 0h.554v5.588h-.554v-5.588Zm1.023 0h.554v5.588h-.554v-5.588Zm1.023 0h.533v5.588h-.533v-5.588Z" clip-rule="evenodd"/><path fill="#34BBDE" fill-rule="evenodd" d="M97.412 44.026h6.753v6.705h-6.753v-6.705Zm.563.56h.532v5.587h-.532v-5.588Zm1.002 0h.554v5.587h-.555v-5.588Zm1.023 0h.554v5.587H100v-5.588Zm1.023 0h.554v5.587h-.554v-5.588Zm1.023 0h.554v5.587h-.554v-5.588Zm1.023 0h.533v5.587h-.533v-5.588ZM105.203 51.763h6.753v6.705h-6.753v-6.705Zm.563.559h.533v5.588h-.533v-5.588Zm1.002 0h.554v5.588h-.554v-5.588Zm1.023 0h.554v5.588h-.554v-5.588Zm1.023 0h.554v5.588h-.554v-5.588Zm1.023 0h.554v5.588h-.554v-5.588Zm1.023 0h.533v5.588h-.533v-5.588Z" clip-rule="evenodd"/><path fill="#23A3C2" fill-rule="evenodd" d="M105.203 44.026h6.753v6.705h-6.753v-6.705Zm.563.56h.533v5.587h-.533v-5.588Zm1.002 0h.554v5.587h-.554v-5.588Zm1.023 0h.554v5.587h-.554v-5.588Zm1.023 0h.554v5.587h-.554v-5.588Zm1.023 0h.554v5.587h-.554v-5.588Zm1.023 0h.533v5.587h-.533v-5.588Z" clip-rule="evenodd"/><path fill="#34BBDE" fill-rule="evenodd" d="M105.203 36.29h6.753v6.705h-6.753v-6.706Zm.563.557h.533v5.589h-.533v-5.589Zm1.002 0h.554v5.589h-.554v-5.589Zm1.023 0h.554v5.589h-.554v-5.589Zm1.023 0h.554v5.589h-.554v-5.589Zm1.023 0h.554v5.589h-.554v-5.589Zm1.023 0h.533v5.589h-.533v-5.589Z" clip-rule="evenodd"/><path fill="#23A3C2" fill-rule="evenodd" d="M112.994 51.763h6.753v6.705h-6.753v-6.705Zm.563.559h.533v5.588h-.533v-5.588Zm1.001 0h.555v5.588h-.555v-5.588Zm1.024 0h.554v5.588h-.554v-5.588Zm1.023 0h.554v5.588h-.554v-5.588Zm1.023 0h.554v5.588h-.554v-5.588Zm1.023 0h.533v5.588h-.533v-5.588Z" clip-rule="evenodd"/><path fill="#D3ECEC" fill-rule="evenodd" d="M95.95 69.34c1.029 0 1.862.828 1.862 1.85 0 1.021-.833 1.85-1.862 1.85a1.856 1.856 0 0 1-1.863-1.85c0-1.022.834-1.85 1.863-1.85Z" clip-rule="evenodd"/><path fill="#364548" fill-rule="evenodd" d="M95.95 69.864c.17 0 .333.032.483.09a.54.54 0 0 0 .271 1.009.544.544 0 0 0 .478-.282c.065.157.102.328.102.508a1.33 1.33 0 0 1-1.334 1.325 1.33 1.33 0 0 1-1.335-1.325 1.33 1.33 0 0 1 1.335-1.325ZM63 65.507h86.657c-1.887-.476-5.97-1.118-5.296-3.573-3.431 3.942-11.705 2.766-13.793.822-2.326 3.349-15.863 2.076-16.807-.533-2.915 3.397-11.949 3.397-14.864 0-.945 2.609-14.482 3.882-16.807.532-2.088 1.944-10.362 3.121-13.793-.821.673 2.455-3.41 3.097-5.297 3.573Z" clip-rule="evenodd"/><path fill="#BDD9D7" fill-rule="evenodd" d="M100.902 82.67c-4.613-2.174-7.146-5.13-8.555-8.356-1.713.486-3.773.797-6.167.93-.901.05-1.85.076-2.845.076a69.04 69.04 0 0 1-3.626-.1c4.23 4.198 9.435 7.43 19.072 7.49.712 0 1.418-.014 2.121-.04Z" clip-rule="evenodd"/><path fill="#D3ECEC" fill-rule="evenodd" d="M94.06 77.292a16.018 16.018 0 0 1-1.712-2.978c-1.714.487-3.775.797-6.168.93 1.644.887 3.995 1.708 7.88 2.048Z" clip-rule="evenodd"/></svg>