<svg xmlns="http://www.w3.org/2000/svg" width="345" height="121" fill="none" viewBox="0 0 345 121"><path stroke="#282828" stroke-width="1.5" d="M.75 10.078A9.25 9.25 0 0 1 10 .828h325a9.25 9.25 0 0 1 9.25 9.25v100a9.25 9.25 0 0 1-9.25 9.25H10a9.25 9.25 0 0 1-9.25-9.25v-100Z"/><path fill="#000" d="M139.416 80V41.763h2.005v6.015c.237-.267.456-.55.655-.848 1.675-3.594 5.208-5.862 9.065-5.818 4.573-.14 8.289 1.61 10.473 5.818a19.203 19.203 0 0 1 2.23 8.516 19.232 19.232 0 0 1-1.794 8.625c-2.035 4.716-7.06 7.06-12.439 6.2a9.841 9.841 0 0 1-4.689-1.683 10.287 10.287 0 0 1-3.34-3.796v15.206l-2.166.002Zm2.005-24.711.45 4.49c.792 5.11 3.714 8.13 8.301 8.698a9.17 9.17 0 0 0 6.254-1.182 9.676 9.676 0 0 0 4.109-5.017 17.148 17.148 0 0 0-.353-13.67 9.438 9.438 0 0 0-3.968-4.465 8.98 8.98 0 0 0-5.767-1.098 8.841 8.841 0 0 0-5.083 2.11 9.35 9.35 0 0 0-2.959 4.766 49.2 49.2 0 0 0-.984 5.366v.002Zm63.373 5.197c-.304 2.692-1.543 5.178-3.487 6.996a10.622 10.622 0 0 1-7.081 2.888c-8.411.438-12.358-5.338-12.985-12.003a19.82 19.82 0 0 1 1.638-10.591 11.65 11.65 0 0 1 4.904-5.307 11.1 11.1 0 0 1 6.988-1.287c2.284.2 4.449 1.14 6.189 2.683a11.363 11.363 0 0 1 3.505 5.917c.428 2.099.742 4.22.942 6.355h-22.088c-.41 6.043 2.73 10.901 7.181 12.073 5.544 1.41 10.281-1.074 12.001-6.525.382-1.398 1.079-1.596 2.308-1.2h-.015Zm-21.491-6.284h19.757c-.124-6.438-4-11.117-9.258-11.17-5.936-.1-10.241 4.392-10.499 11.17Zm25.575 6.425h1.936a8.218 8.218 0 0 0 1.339 4.122 7.84 7.84 0 0 0 3.221 2.797c1.635.76 3.414 1.13 5.206 1.081a11.609 11.609 0 0 0 5.144-1.363 4.706 4.706 0 0 0 2.085-1.921 4.938 4.938 0 0 0 .646-2.81c.05-.948-.2-1.886-.713-2.674a4.238 4.238 0 0 0-2.127-1.69c-2.131-.82-4.396-1.27-6.567-1.99a47.118 47.118 0 0 1-6.609-2.5c-3.497-1.765-3.714-8.64.246-10.818a13.588 13.588 0 0 1 6.637-1.86c2.328-.036 4.628.53 6.69 1.648 2.557 1.46 3.971 4.408 3.55 7.4h-1.66c0-.083-.151-.156-.151-.24-.206-5.476-4.656-7.188-9.434-6.707-1.444.166-2.813.617-4.097 1.284a4.15 4.15 0 0 0-1.84 1.727 4.35 4.35 0 0 0-.534 2.51c.001.873.265 1.726.754 2.439a4.105 4.105 0 0 0 1.977 1.542c2.085.792 4.3 1.3 6.458 1.92l5.214 1.41a6.173 6.173 0 0 1 2.98 2.194 6.506 6.506 0 0 1 1.253 3.554c.417 2.895-1.011 5.741-3.537 7.06-4.56 2.668-12.07 1.963-15.415-1.41-1.712-1.78-2.667-4.198-2.648-6.707l-.004.002Zm46.176-10.576h-1.816c0-.254-.097-.498-.124-.692a6.263 6.263 0 0 0-1.405-3.837 5.901 5.901 0 0 0-3.429-2.065 11.552 11.552 0 0 0-7.66.382 4.651 4.651 0 0 0-2.424 1.714 4.922 4.922 0 0 0-.949 2.875 4.537 4.537 0 0 0 .87 2.835 4.275 4.275 0 0 0 2.407 1.627l8.301 2.203c.898.223 1.782.501 2.648.833 2.647.996 4.444 3.538 4.524 6.443a7.226 7.226 0 0 1-1.082 4.02 6.878 6.878 0 0 1-3.089 2.683 14.78 14.78 0 0 1-6.132 1.406 14.76 14.76 0 0 1-6.157-1.278 8.608 8.608 0 0 1-3.866-3.445 9.045 9.045 0 0 1-1.268-5.112h1.774c.668 3.327 2.877 6.098 5.908 7.409a9.67 9.67 0 0 0 9.248-.856 4.95 4.95 0 0 0 1.978-1.961 5.183 5.183 0 0 0 .644-2.755 4.474 4.474 0 0 0-.738-2.667 4.238 4.238 0 0 0-2.144-1.669c-2.131-.82-4.396-1.255-6.567-1.99a47.326 47.326 0 0 1-6.649-2.471c-3.414-1.737-3.687-8.557.206-10.732a13.406 13.406 0 0 1 6.752-1.923 13.388 13.388 0 0 1 6.792 1.767 7.3 7.3 0 0 1 2.755 3.096 7.605 7.605 0 0 1 .672 4.148l.02.012ZM136.116 69.68a3.034 3.034 0 0 1-2.219-.003 3.164 3.164 0 0 1-1.659-1.522l-7.06-10.097-1.024-1.41-8.192 11.522a3.038 3.038 0 0 1-1.571 1.467 2.907 2.907 0 0 1-2.116.03l10.554-14.644-9.819-13.23c1.457-.544 3.08.046 3.891 1.41l7.316 10.221 7.36-10.181a2.97 2.97 0 0 1 1.569-1.427 2.846 2.846 0 0 1 2.09.015l-3.81 5.228-5.162 6.947a1.443 1.443 0 0 0-.336 1.628c.078.182.193.344.336.476l9.831 13.57h.021Zm44.812-28.028v1.99a9.604 9.604 0 0 0-4.065.608 9.854 9.854 0 0 0-3.476 2.26 10.258 10.258 0 0 0-2.29 3.526 10.54 10.54 0 0 0-.71 4.183V69.75h-1.953V41.776h1.925v5.733c2.362-4.181 6.007-5.733 10.582-5.846l-.013-.011ZM87.003 54.84l.86-4.392c2.362-8.684 11.989-12.298 18.612-6.919 3.878 3.15 4.845 7.61 4.656 12.638H89.283c-.353 8.98 5.913 14.403 13.927 11.635 2.641-.996 4.629-3.265 5.283-6.086.424-1.41 1.123-1.653 2.404-1.245a11.712 11.712 0 0 1-1.719 4.817 11.262 11.262 0 0 1-3.579 3.558 12.476 12.476 0 0 1-7.786 1.52 12.661 12.661 0 0 1-7.166-3.496c-1.951-2.269-3.129-5.136-3.358-8.164 0-.498-.16-.962-.273-1.41-.01-.838-.016-1.656-.016-2.456h.003Zm2.307-.607h19.758c-.124-6.51-4.097-11.127-9.394-11.17-5.898-.083-10.118 4.433-10.378 11.142l.014.028Z"/></svg>