<svg xmlns="http://www.w3.org/2000/svg" width="345" height="120" fill="none" viewBox="0 0 345 120"><rect width="343.5" height="118.5" x=".75" y=".75" stroke="#174478" stroke-width="1.5" rx="9.25"/><mask id="mask0_7812_14590" width="48" height="60" x="89" y="30" maskUnits="userSpaceOnUse" style="mask-type:luminance"><path fill="#fff" d="M136.76 57.294 120.84 73.22l15.92 15.926h-18.192L102.642 73.22l15.926-15.926h18.192Zm-18.192-27.29L89 59.572l9.099 9.099 38.661-38.667h-18.192Z"/></mask><g mask="url(#mask0_7812_14590)"><path fill="#39CEFD" d="m111.741 82.315 25.019-25.024h-18.192l-15.92 15.926 9.093 9.098Z"/></g><mask id="mask1_7812_14590" width="48" height="60" x="89" y="30" maskUnits="userSpaceOnUse" style="mask-type:luminance"><path fill="#fff" d="M136.76 57.294 120.84 73.22l15.92 15.926h-18.192L102.642 73.22l15.926-15.926h18.192Zm-18.192-27.29L89 59.572l9.099 9.099 38.661-38.667h-18.192Z"/></mask><g mask="url(#mask1_7812_14590)"><path fill="#39CEFD" d="m89 59.572 29.568-29.568h18.192L98.099 68.67 89 59.57Z"/></g><mask id="mask2_7812_14590" width="48" height="60" x="89" y="30" maskUnits="userSpaceOnUse" style="mask-type:luminance"><path fill="#fff" d="M136.76 57.294 120.84 73.22l15.92 15.926h-18.192L102.642 73.22l15.926-15.926h18.192Zm-18.192-27.29L89 59.572l9.099 9.099 38.661-38.667h-18.192Z"/></mask><g mask="url(#mask2_7812_14590)"><path fill="#03569B" d="M118.567 89.137h18.192l-15.92-15.92-9.099 9.099 6.827 6.82Z"/></g><mask id="mask3_7812_14590" width="48" height="60" x="89" y="30" maskUnits="userSpaceOnUse" style="mask-type:luminance"><path fill="#fff" d="M136.76 57.294 120.84 73.22l15.92 15.926h-18.192L102.642 73.22l15.926-15.926h18.192Zm-18.192-27.29L89 59.572l9.099 9.099 38.661-38.667h-18.192Z"/></mask><g mask="url(#mask3_7812_14590)"><path fill="url(#paint0_linear_7812_14590)" d="m120.839 73.217-9.099 9.099 13.495-4.675-4.396-4.424Z"/></g><mask id="mask4_7812_14590" width="48" height="60" x="89" y="30" maskUnits="userSpaceOnUse" style="mask-type:luminance"><path fill="#fff" d="M136.76 57.294 120.84 73.22l15.92 15.926h-18.192L102.642 73.22l15.926-15.926h18.192Zm-18.192-27.29L89 59.572l9.099 9.099 38.661-38.667h-18.192Z"/></mask><g mask="url(#mask4_7812_14590)"><path fill="#16B9FD" d="m102.648 73.214 9.099-9.099 9.1 9.1-9.1 9.098-9.099-9.099Z"/></g><path fill="url(#paint1_radial_7812_14590)" d="m136.76 57.29-15.92 15.926 15.92 15.926h-18.192l-15.926-15.926 15.926-15.925h18.192ZM118.568 30 89 59.568l9.099 9.099L136.76 30h-18.192Z"/><path fill="gray" d="M142.535 45.853h15.9v3.11h-12.673v9.408h11.441v3.071h-11.441v11.903h-3.227V45.853Zm19.747 0h3.264v27.494h-3.264V45.854Zm15.203 28.108c-2.354 0-4.163-.691-5.427-2.074-1.22-1.391-1.83-3.324-1.83-5.798V53.764h3.263V65.59c0 1.858.423 3.227 1.267 4.107.845.88 1.984 1.32 3.418 1.32 1.101 0 2.079-.294 2.934-.883a5.628 5.628 0 0 0 1.994-2.302 6.481 6.481 0 0 0 .729-2.996V53.777h3.262v19.581h-3.109v-2.854h-.154c-.538.973-1.396 1.792-2.573 2.457a7.533 7.533 0 0 1-3.764.997l-.01.003ZM199.655 73.655a6.35 6.35 0 0 1-2.227-.385 5.109 5.109 0 0 1-1.69-1.036 4.71 4.71 0 0 1-1.151-1.69c-.256-.64-.384-1.42-.384-2.343v-11.48h-3.418v-2.957h3.418v-5.53h3.263v5.53h4.761v2.957h-4.761v10.675c0 1.076.206 1.87.616 2.38.486.564 1.19.846 2.112.846.744 0 1.46-.218 2.151-.653v3.187a5.027 5.027 0 0 1-1.191.384c-.385.079-.883.118-1.496.118l-.003-.003ZM213.496 73.655a6.344 6.344 0 0 1-2.226-.385 5.109 5.109 0 0 1-1.69-1.036 4.71 4.71 0 0 1-1.151-1.69c-.256-.64-.384-1.42-.384-2.343v-11.48h-3.418v-2.957h3.418v-5.53h3.263v5.53h4.761v2.957h-4.761v10.675c0 1.076.205 1.87.616 2.38.486.564 1.19.846 2.112.846.743 0 1.46-.218 2.151-.653v3.187a5.02 5.02 0 0 1-1.192.384c-.384.079-.882.118-1.496.118l-.003-.003ZM227.871 73.961c-1.858 0-3.535-.448-5.031-1.343-1.484-.896-2.649-2.125-3.494-3.686-.819-1.587-1.229-3.367-1.229-5.34 0-1.893.384-3.634 1.152-5.22.794-1.588 1.907-2.855 3.341-3.803 1.433-.948 3.097-1.422 4.991-1.422 1.92 0 3.584.44 4.992 1.32 1.408.844 2.483 2.022 3.227 3.532.767 1.51 1.151 3.238 1.151 5.183 0 .384-.039.717-.117.998h-15.475c.078 1.484.437 2.738 1.075 3.763.64 1.024 1.447 1.792 2.421 2.303a6.717 6.717 0 0 0 3.109.769c2.509 0 4.442-1.178 5.798-3.532l2.765 1.343c-.845 1.587-1.997 2.842-3.456 3.764-1.433.921-3.174 1.382-5.221 1.382l.001-.01Zm5.644-12.479c-.051-.82-.28-1.638-.689-2.457-.411-.82-1.064-1.51-1.958-2.074-.88-.563-1.98-.845-3.3-.845-1.536 0-2.841.5-3.917 1.496-1.049.974-1.74 2.266-2.074 3.879h11.943l-.005.001Zm7.237-7.718h3.11v3.15h.154c.384-1.077 1.126-1.96 2.226-2.65 1.101-.717 2.253-1.075 3.456-1.075.896 0 1.663.128 2.303.384v3.532c-.82-.41-1.741-.616-2.765-.616-.949 0-1.819.27-2.611.807-.794.538-1.429 1.267-1.907 2.188a6.338 6.338 0 0 0-.689 2.934V73.36h-3.264V53.779l-.013-.015Z"/><defs><radialGradient id="paint1_radial_7812_14590" cx="0" cy="0" r="1" gradientTransform="translate(90.342 34.03) scale(72.3527)" gradientUnits="userSpaceOnUse"><stop stop-color="#fff" stop-opacity=".1"/><stop offset="1" stop-color="#fff" stop-opacity="0"/></radialGradient><linearGradient id="paint0_linear_7812_14590" x1="114.396" x2="121.172" y1="84.071" y2="77.295" gradientUnits="userSpaceOnUse"><stop stop-color="#1A237E" stop-opacity=".4"/><stop offset="1" stop-color="#1A237E" stop-opacity="0"/></linearGradient></defs></svg>