<svg xmlns="http://www.w3.org/2000/svg" width="345" height="120" fill="none" viewBox="0 0 345 120"><rect width="343.5" height="118.5" x=".75" y=".75" stroke="#43999E" stroke-width="1.5" rx="9.25"/><path fill="#000" d="M157.902 38.89h7.156v42.213h-7.156V38.891Zm14.312 0h14.594c3.176 0 5.829.362 7.88 1.046 2.05.683 3.698 1.648 4.864 2.854a9.837 9.837 0 0 1 2.493 4.1 16.4 16.4 0 0 1 .723 4.865 18.38 18.38 0 0 1-.723 5.187 10.694 10.694 0 0 1-2.493 4.341 12.296 12.296 0 0 1-4.864 2.935c-2.051.724-4.624 1.086-7.759 1.086h-7.679v15.8h-7.036V38.89Zm14.554 20.504a15.425 15.425 0 0 0 4.462-.523 6.553 6.553 0 0 0 2.734-1.487 5.356 5.356 0 0 0 1.407-2.332c.265-.997.401-2.024.402-3.055a10.318 10.318 0 0 0-.402-3.096 4.82 4.82 0 0 0-1.447-2.211 6.895 6.895 0 0 0-2.774-1.367 16.715 16.715 0 0 0-4.382-.482h-7.438v14.553h7.438Zm48.203-20.503v6.15h-19.78v11.94h18.614v6.192h-18.614v17.93h-7.156V38.891h26.936Zm10.533 29.307c.321 2.774 1.326 4.784 2.975 6.03 1.648 1.247 4.181 1.89 7.477 1.89 1.373.04 2.743-.137 4.061-.522a8.252 8.252 0 0 0 2.653-1.407 4.82 4.82 0 0 0 1.407-2.091c.28-.829.416-1.699.402-2.573a6.476 6.476 0 0 0-.281-1.97 5.175 5.175 0 0 0-1.045-1.81 6.676 6.676 0 0 0-2.051-1.446 14.066 14.066 0 0 0-3.296-.965l-5.387-1.005a36.078 36.078 0 0 1-5.669-1.488 13.465 13.465 0 0 1-4.181-2.331 8.964 8.964 0 0 1-2.533-3.538 13.714 13.714 0 0 1-.844-5.106 10.455 10.455 0 0 1 4.543-9.005 14.614 14.614 0 0 1 5.065-2.252 26.497 26.497 0 0 1 6.352-.724c2.895 0 5.347.322 7.317 1.006a13.844 13.844 0 0 1 4.784 2.613 11.328 11.328 0 0 1 2.774 3.739 16.888 16.888 0 0 1 1.287 4.422l-6.754 1.045c-.563-2.372-1.488-4.1-2.855-5.266-1.366-1.166-3.497-1.73-6.472-1.73a17.646 17.646 0 0 0-4.221.443 7.82 7.82 0 0 0-2.734 1.246 4.678 4.678 0 0 0-1.488 1.85 5.66 5.66 0 0 0-.442 2.17c0 1.85.482 3.217 1.488 4.142 1.005.924 2.774 1.608 5.306 2.13l5.83 1.126c4.462.844 7.719 2.251 9.809 4.221 2.091 1.97 3.136 4.865 3.136 8.604a12.615 12.615 0 0 1-.965 4.945 10.158 10.158 0 0 1-2.975 3.94 14.712 14.712 0 0 1-4.985 2.653 22.517 22.517 0 0 1-6.955.965c-5.387 0-9.649-1.126-12.704-3.418-3.056-2.291-4.784-5.789-5.066-10.533h7.237Z"/><path fill="#469EA2" d="m74 79.495 33.77 19.498 33.77-19.498V40.498L107.77 21 74 40.498v38.997Z"/><path fill="#6ACAD1" d="M104.313 25.664 79.79 39.815c.04.442.04.886 0 1.327l24.483 14.151a5.848 5.848 0 0 1 6.955 0l24.483-14.15a7.349 7.349 0 0 1 0-1.328l-24.443-14.15a5.849 5.849 0 0 1-6.955 0Zm33.77 19.378L113.56 59.354a5.92 5.92 0 0 1-3.458 6.03l.04 28.142c.397.175.774.39 1.126.643l24.483-14.151a5.928 5.928 0 0 1 3.458-6.03V45.685a8.08 8.08 0 0 1-1.126-.643Zm-60.625.16a6.26 6.26 0 0 1-1.126.644v28.302a5.781 5.781 0 0 1 3.458 6.03l24.483 14.152a6.242 6.242 0 0 1 1.126-.643V65.384a5.78 5.78 0 0 1-3.458-6.03L77.458 45.203Z"/><path fill="#469EA2" d="m107.77 25.22 30.192 17.449v34.856L107.77 94.972 77.578 77.525V42.629L107.77 25.22Zm0-4.14L74 40.578v38.997l33.77 19.498 33.77-19.498V40.578L107.77 21.08Z"/><path fill="#469EA2" d="M108.011 66.63h-.482a6.296 6.296 0 0 1-6.312-6.312v-.483a6.306 6.306 0 0 1 1.844-4.468 6.3 6.3 0 0 1 4.468-1.843h.482a6.293 6.293 0 0 1 5.836 3.893c.317.767.478 1.589.476 2.418v.483a6.287 6.287 0 0 1-1.844 4.468 6.289 6.289 0 0 1-4.468 1.844Zm0 25.93h-.482a6.295 6.295 0 0 0-5.508 3.216l5.749 3.297 5.749-3.296a6.292 6.292 0 0 0-5.508-3.217Zm33.57-19.498h-.242a6.298 6.298 0 0 0-5.835 3.894 6.27 6.27 0 0 0-.476 2.418v.482a6.075 6.075 0 0 0 .804 3.056l5.749-3.337v-6.513Zm-5.749-35.78a6.186 6.186 0 0 0-.804 3.055v.483a6.282 6.282 0 0 0 1.844 4.468 6.294 6.294 0 0 0 4.467 1.843h.242v-6.553l-5.749-3.296ZM107.77 21.08l-5.749 3.297a6.33 6.33 0 0 0 5.508 3.256h.482a6.29 6.29 0 0 0 5.508-3.216l-5.749-3.337ZM79.749 37.242 74 40.578v6.553h.241a6.295 6.295 0 0 0 6.312-6.311v-.483a6.686 6.686 0 0 0-.804-3.096Zm-5.508 35.82H74v6.513l5.749 3.337a6.191 6.191 0 0 0 .804-3.056v-.482a6.297 6.297 0 0 0-6.312-6.312Z"/><path fill="#083B54" fill-opacity=".15" d="M107.77 99.275V60.238L74 40.74v39.037l33.77 19.498Z"/><path fill="#083B54" fill-opacity=".05" d="M141.581 79.415V40.418l-33.77 19.498v39.037l33.77-19.538Z"/></svg>