<svg xmlns="http://www.w3.org/2000/svg" width="345" height="120" fill="none" viewBox="0 0 345 120"><path stroke="#4E7896" stroke-width="1.5" d="M.75 10A9.25 9.25 0 0 1 10 .75h325a9.25 9.25 0 0 1 9.25 9.25v100a9.25 9.25 0 0 1-9.25 9.25H10A9.25 9.25 0 0 1 .75 110V10Z"/><path fill="#4E7896" d="M118.894 76.267s-2.253 1.37 1.569 1.764c4.59.586 7.05.49 12.143-.49 0 0 1.37.88 3.232 1.568-11.459 4.896-25.951-.293-16.942-2.84l-.002-.002Zm-1.468-6.365s-2.448 1.862 1.37 2.253c4.994.49 8.925.587 15.67-.783 0 0 .88.98 2.35 1.47-13.808 4.112-29.282.39-19.39-2.94Zm27.03 11.164s1.665 1.37-1.862 2.448c-6.561 1.959-27.518 2.546-33.395 0-2.056-.88 1.862-2.167 3.134-2.35 1.275-.293 1.959-.293 1.959-.293-2.252-1.568-14.984 3.232-6.465 4.59 23.406 3.819 42.698-1.665 36.626-4.406l.003.011Zm-24.485-17.823s-10.675 2.546-3.82 3.427c2.937.392 8.716.293 14.101-.098 4.407-.391 8.814-1.175 8.814-1.175s-1.568.685-2.644 1.37c-10.871 2.84-31.73 1.568-25.755-1.37 5.092-2.449 9.304-2.168 9.304-2.168v.014Zm19.096 10.674c10.968-5.68 5.876-11.164 2.35-10.478-.879.197-1.275.392-1.275.392s.294-.587.979-.783c6.953-2.448 12.438 7.344-2.252 11.164 0 0 .098-.098.196-.293l.002-.002ZM121.049 89.39c10.576.686 26.737-.391 27.127-5.385 0 0-.783 1.958-8.716 3.427-9.009 1.665-20.173 1.469-26.737.392 0 0 1.371 1.174 8.326 1.567Z"/><path fill="#F58219" d="M132.408 30.926s6.072 6.17-5.778 15.473c-9.499 7.54-2.168 11.85 0 16.746-5.582-4.994-9.597-9.4-6.856-13.515 4.016-6.072 15.082-9.01 12.634-18.704Zm-3.134 28.106c2.84 3.232-.784 6.17-.784 6.17s7.247-3.722 3.917-8.325c-3.035-4.406-5.386-6.561 7.344-13.906 0 0-20.076 4.994-10.478 16.06h.001Z"/><path fill="#4E7896" d="M192.029 70.657V55.769c0-3.8-2.126-6.38-7.443-6.38-3.038 0-5.623.76-7.9 1.67l.76 2.735c1.67-.608 3.799-1.215 6.076-1.215 2.887 0 4.254 1.215 4.254 3.646v1.977h-1.507c-7.293 0-10.634 2.734-10.634 7.14 0 3.646 2.279 5.773 6.38 5.773 2.584 0 4.559-1.215 6.381-2.735l.303 2.278h3.34l-.01-.001Zm-4.256-4.86c-1.517 1.366-3.19 2.126-4.71 2.126-1.976 0-3.19-1.215-3.19-3.34 0-2.126 1.216-3.647 6.077-3.647h1.823v4.862-.001Zm18.534 4.861h-5.317l-6.379-20.812h4.558l3.95 12.763.912 3.8c1.976-5.47 3.493-11.09 4.102-16.559h4.556c-1.215 6.837-3.34 14.28-6.38 20.812l-.002-.004Zm24.61 0v-14.89c0-3.799-2.127-6.38-7.446-6.38-3.039 0-5.62.76-7.9 1.67l.608 2.736c1.823-.608 3.95-1.215 6.228-1.215 2.887 0 4.254 1.215 4.254 3.646v1.977h-1.517c-7.293 0-10.634 2.734-10.634 7.14 0 3.646 2.127 5.773 6.228 5.773 2.735 0 4.71-1.215 6.532-2.735l.304 2.278h3.343Zm-4.254-4.861c-1.517 1.366-3.19 2.126-4.709 2.126-1.977 0-3.191-1.215-3.191-3.34 0-2.126 1.216-3.647 6.077-3.647h1.823v4.862-.001Zm-55.753 8.355c-1.215 1.823-3.038 3.19-5.317 3.95l-1.976-2.43c1.52-.912 3.039-2.279 3.647-3.494.608-1.063.76-2.583.76-6.077v-23.7h4.558v23.396c0 4.71-.458 6.532-1.672 8.355Z"/></svg>