<svg xmlns="http://www.w3.org/2000/svg" width="345" height="120" fill="none" viewBox="0 0 345 120"><rect width="343.5" height="118.5" x=".75" y=".75" stroke="#131313" stroke-width="1.5" rx="9.25"/><g clip-path="url(#clip0_4649_76318)"><path fill="#131313" d="M136.621 74.27a7.976 7.976 0 0 1-1.439-.112 5.165 5.165 0 0 1-1.067-.27v-2.54c.388.1.782.174 1.18.223.45.066.903.098 1.358.096.404 0 .806-.054 1.196-.16a2.672 2.672 0 0 0 1.1-.539c.334-.265.604-.63.808-1.103.204-.474.308-1.059.308-1.779V44.87h3.023v22.906c0 1.103-.162 2.075-.484 2.89-.313.815-.754 1.488-1.326 2.017a5.142 5.142 0 0 1-2.037 1.191c-.777.265-1.86.398-2.82.398m21.691-8.592h-.129c-.356.475-.711.89-1.067 1.239a5.232 5.232 0 0 1-1.163.842c-.421.222-.89.386-1.407.492a9.042 9.042 0 0 1-1.794.158 6.409 6.409 0 0 1-2.053-.317 4.375 4.375 0 0 1-1.632-.937c-.453-.424-.809-.974-1.067-1.612-.259-.656-.388-1.43-.388-2.318 0-1.736.619-3.07 1.858-4.002 1.25-.932 3.147-1.44 5.69-1.525l2.973-.112v-1.103c0-.71-.081-1.303-.241-1.779-.152-.475-.378-.848-.679-1.143a2.454 2.454 0 0 0-1.1-.636 5.267 5.267 0 0 0-1.487-.19 7.99 7.99 0 0 0-2.506.38 16.18 16.18 0 0 0-2.214.921l-1.035-2.175a14.774 14.774 0 0 1 2.667-1.08c1.001-.3 2.041-.45 3.087-.445 1.1 0 2.047.112 2.845.333.809.212 1.471.556 1.988 1.032a4.301 4.301 0 0 1 1.18 1.795c.259.73.389 1.615.389 2.652V68.09h-2.123l-.592-2.411Zm-4.8.388a5.39 5.39 0 0 0 1.826-.302 4.009 4.009 0 0 0 1.455-.905 4.25 4.25 0 0 0 .954-1.54c.236-.625.355-1.355.355-2.192v-1.572l-2.311.112c-.97.042-1.784.148-2.441.317-.657.169-1.185.407-1.584.714a2.54 2.54 0 0 0-.84 1.096 3.798 3.798 0 0 0-.259 1.445c0 .974.259 1.697.775 2.144.518.455 1.209.683 2.069.683m9.985-15.41h3.038l3.217 9.701.42 1.358.484 1.684.436 1.612.275 1.159h.112l.275-1.16.436-1.611.484-1.684.42-1.358 3.217-9.702h3.038l-6.061 17.436h-3.735l-6.056-17.435ZM191.17 65.68h-.13c-.356.475-.711.89-1.066 1.239a5.238 5.238 0 0 1-1.164.842c-.421.222-.89.386-1.406.492a9.056 9.056 0 0 1-1.794.158 6.4 6.4 0 0 1-2.053-.317 4.37 4.37 0 0 1-1.633-.937c-.452-.424-.808-.974-1.066-1.612-.259-.656-.389-1.43-.389-2.318 0-1.736.619-3.07 1.859-4.002 1.25-.932 3.146-1.44 5.689-1.525l2.974-.112v-1.103c0-.71-.081-1.303-.242-1.779-.151-.475-.377-.848-.679-1.143a2.45 2.45 0 0 0-1.099-.636 5.27 5.27 0 0 0-1.488-.19 7.983 7.983 0 0 0-2.505.38c-.766.255-1.503.56-2.215.921l-1.035-2.175a14.785 14.785 0 0 1 2.668-1.08c1-.3 2.041-.45 3.087-.445 1.099 0 2.047.112 2.845.333.808.212 1.471.556 1.988 1.032a4.31 4.31 0 0 1 1.18 1.795c.258.73.389 1.615.389 2.652V68.09h-2.117l-.598-2.411Zm-4.801.396c.657 0 1.266-.102 1.827-.302a4.017 4.017 0 0 0 1.455-.905c.409-.414.727-.927.953-1.54.237-.625.356-1.356.356-2.192v-1.573l-2.311.112c-.97.043-1.784.149-2.441.318-.658.168-1.185.407-1.584.714a2.541 2.541 0 0 0-.841 1.096 3.798 3.798 0 0 0-.259 1.445c0 .974.259 1.697.776 2.143.518.456 1.209.683 2.068.683m25.648-4.192c0 1.019-.188 1.948-.566 2.763a5.602 5.602 0 0 1-1.584 2.049c-.689.56-1.53.99-2.522 1.286-.992.286-2.107.429-3.346.429-1.196 0-2.317-.096-3.362-.286-1.034-.181-1.902-.45-2.602-.81v-2.826l1.244.509 1.487.428 1.601.318c.543.074 1.092.111 1.641.112 1.724 0 2.995-.318 3.814-.953.829-.637 1.244-1.546 1.244-2.733 0-.572-.082-1.069-.242-1.493-.151-.425-.426-.81-.824-1.16-.389-.36-.911-.704-1.568-1.031-.656-.34-1.487-.704-2.489-1.103-.95-.371-1.794-.764-2.505-1.207-.691-.445-1.283-.933-1.745-1.493a5.713 5.713 0 0 1-1.019-1.874c-.216-.699-.323-1.494-.323-2.382 0-.932.173-1.763.518-2.493a5.1 5.1 0 0 1 1.455-1.842c.625-.509 1.368-.894 2.23-1.159.862-.265 1.831-.397 2.876-.397 1.283 0 2.436.122 3.459.365 1.024.233 1.935.535 2.732.906l-1.083 2.477a14.618 14.618 0 0 0-2.392-.794 10.757 10.757 0 0 0-2.747-.35c-1.315 0-2.332.302-3.055.906-.722.594-1.083 1.397-1.083 2.413 0 .594.081 1.129.242 1.573.161.434.432.831.808 1.191.378.35.864.683 1.488 1.001.749.363 1.514.692 2.295.985.98.382 1.837.763 2.569 1.175.743.402 1.363.848 1.859 1.358a4.985 4.985 0 0 1 1.115 1.762c.259.667.396 1.485.396 2.397m10.937 6.493a9.292 9.292 0 0 1-3.055-.492 6.418 6.418 0 0 1-2.473-1.588c-.691-.73-1.25-1.657-1.641-2.78-.399-1.132-.598-2.492-.598-4.072 0-1.663.205-3.07.605-4.224.409-1.165.97-2.108 1.681-2.826a6.357 6.357 0 0 1 2.522-1.587 9.546 9.546 0 0 1 3.087-.492c.826-.002 1.65.089 2.456.27.809.18 1.482.402 2.021.667l-.863 2.445a8.913 8.913 0 0 0-.824-.302 8.074 8.074 0 0 0-.938-.27 7.976 7.976 0 0 0-.953-.19 5.378 5.378 0 0 0-.89-.08c-1.693 0-2.925.534-3.701 1.612-.775 1.058-1.163 2.71-1.163 4.954 0 2.234.388 3.87 1.163 4.907.778 1.018 1.987 1.54 3.573 1.54.863 0 1.658-.096 2.359-.286a12.616 12.616 0 0 0 1.94-.698v2.573a7.924 7.924 0 0 1-1.875.698c-.656.159-1.509.238-2.468.238m16.063-18.071 1.051.046c.336.015.67.053 1.001.112l-.388 2.668-.937-.127a6.634 6.634 0 0 0-.89-.064 4.173 4.173 0 0 0-3.313 1.572c-.399.498-.711 1.102-.937 1.81-.216.699-.323 1.477-.323 2.334v9.4h-2.942V50.659h2.392l.356 3.191h.13l.856-1.318c.297-.409.645-.78 1.035-1.103.385-.326.822-.59 1.293-.778.475-.201 1.063-.302 1.667-.302"/><path stroke="#131313" stroke-width="1.5" d="M136.621 74.27a7.976 7.976 0 0 1-1.439-.112 5.165 5.165 0 0 1-1.067-.27v-2.54c.388.1.782.174 1.18.223.45.066.903.098 1.358.096.404 0 .806-.054 1.196-.16a2.672 2.672 0 0 0 1.1-.539c.334-.265.604-.63.808-1.103.204-.474.308-1.059.308-1.779V44.87h3.023v22.906c0 1.103-.162 2.075-.484 2.89-.313.815-.754 1.488-1.326 2.017a5.142 5.142 0 0 1-2.037 1.191c-.777.265-1.86.398-2.82.398m16.891-8.204a5.39 5.39 0 0 0 1.826-.302 4.009 4.009 0 0 0 1.455-.905 4.25 4.25 0 0 0 .954-1.54c.236-.625.355-1.355.355-2.192v-1.572l-2.311.112c-.97.042-1.784.148-2.441.317-.657.169-1.185.407-1.584.714a2.54 2.54 0 0 0-.84 1.096 3.798 3.798 0 0 0-.259 1.445c0 .974.259 1.697.775 2.144.518.455 1.209.683 2.069.683m33.058.008c.657 0 1.266-.102 1.827-.302a4.017 4.017 0 0 0 1.455-.905c.409-.414.727-.927.953-1.54.237-.625.356-1.356.356-2.192v-1.573l-2.311.112c-.97.043-1.784.149-2.441.318-.658.168-1.185.407-1.584.714a2.541 2.541 0 0 0-.841 1.096 3.798 3.798 0 0 0-.259 1.445c0 .974.259 1.697.776 2.143.518.456 1.209.683 2.068.683m25.648-4.192c0 1.019-.188 1.948-.566 2.763a5.603 5.603 0 0 1-1.584 2.049c-.689.56-1.53.99-2.522 1.286-.992.286-2.107.429-3.346.429-1.196 0-2.317-.096-3.362-.286-1.034-.181-1.902-.45-2.602-.81v-2.826l1.244.509 1.487.428 1.601.318c.543.074 1.092.111 1.641.112 1.724 0 2.995-.318 3.814-.953.829-.637 1.244-1.546 1.244-2.733 0-.572-.082-1.069-.242-1.493-.151-.425-.426-.81-.824-1.16-.389-.36-.911-.704-1.568-1.031-.656-.34-1.487-.704-2.489-1.103-.95-.371-1.794-.764-2.505-1.207-.691-.445-1.283-.933-1.745-1.493a5.713 5.713 0 0 1-1.019-1.874c-.216-.699-.323-1.494-.323-2.382 0-.932.173-1.763.518-2.493a5.1 5.1 0 0 1 1.455-1.842c.625-.509 1.368-.894 2.23-1.159.862-.265 1.831-.397 2.876-.397 1.283 0 2.436.122 3.459.365 1.024.233 1.935.535 2.732.906l-1.083 2.477a14.618 14.618 0 0 0-2.392-.794 10.757 10.757 0 0 0-2.747-.35c-1.315 0-2.332.302-3.055.906-.722.594-1.083 1.397-1.083 2.413 0 .594.081 1.129.242 1.573.161.434.432.831.808 1.191.378.35.864.683 1.488 1.001.749.363 1.514.692 2.295.985.98.382 1.837.763 2.569 1.175.743.402 1.363.848 1.859 1.358a4.985 4.985 0 0 1 1.115 1.762c.259.667.396 1.485.396 2.397m10.937 6.493a9.292 9.292 0 0 1-3.055-.492 6.418 6.418 0 0 1-2.473-1.588c-.691-.73-1.25-1.657-1.641-2.78-.399-1.132-.598-2.492-.598-4.072 0-1.663.205-3.07.605-4.224.409-1.165.97-2.108 1.681-2.826a6.357 6.357 0 0 1 2.522-1.587 9.546 9.546 0 0 1 3.087-.492c.826-.002 1.65.089 2.456.27.809.18 1.482.402 2.021.667l-.863 2.445a8.913 8.913 0 0 0-.824-.302 8.074 8.074 0 0 0-.938-.27 7.976 7.976 0 0 0-.953-.19 5.378 5.378 0 0 0-.89-.08c-1.693 0-2.925.534-3.701 1.612-.775 1.058-1.163 2.71-1.163 4.954 0 2.234.388 3.87 1.163 4.907.778 1.018 1.987 1.54 3.573 1.54.863 0 1.658-.096 2.359-.286a12.616 12.616 0 0 0 1.94-.698v2.573a7.924 7.924 0 0 1-1.875.698c-.656.159-1.509.238-2.468.238m16.063-18.071 1.051.046c.336.015.67.053 1.001.112l-.388 2.668-.937-.127a6.634 6.634 0 0 0-.89-.064 4.173 4.173 0 0 0-3.313 1.572c-.399.498-.711 1.102-.937 1.81-.216.699-.323 1.477-.323 2.334v9.4h-2.942V50.659h2.392l.356 3.191h.13l.856-1.318c.297-.409.645-.78 1.035-1.103.385-.326.822-.59 1.293-.778.475-.201 1.063-.302 1.667-.302M158.112 65.68h-.129c-.356.475-.711.89-1.067 1.239a5.232 5.232 0 0 1-1.163.842c-.421.222-.89.386-1.407.492a9.042 9.042 0 0 1-1.794.158 6.409 6.409 0 0 1-2.053-.317 4.375 4.375 0 0 1-1.632-.937c-.453-.424-.809-.974-1.067-1.612-.259-.656-.388-1.43-.388-2.318 0-1.736.619-3.07 1.858-4.002 1.25-.932 3.147-1.44 5.69-1.525l2.973-.112v-1.103c0-.71-.081-1.303-.241-1.779-.152-.475-.378-.848-.679-1.143a2.454 2.454 0 0 0-1.1-.636 5.267 5.267 0 0 0-1.487-.19 7.99 7.99 0 0 0-2.506.38 16.18 16.18 0 0 0-2.214.921l-1.035-2.175a14.774 14.774 0 0 1 2.667-1.08c1.001-.3 2.041-.45 3.087-.445 1.1 0 2.047.112 2.845.333.809.212 1.471.556 1.988 1.032a4.301 4.301 0 0 1 1.18 1.795c.259.73.389 1.615.389 2.652V68.09h-2.123l-.592-2.411Zm5.184-15.022h3.038l3.217 9.701.42 1.358.484 1.684.436 1.612.275 1.159h.112l.275-1.16.436-1.611.484-1.684.42-1.358 3.217-9.702h3.038l-6.061 17.436h-3.735l-6.056-17.435ZM191.17 65.68h-.13c-.356.475-.711.89-1.066 1.239a5.238 5.238 0 0 1-1.164.842c-.421.222-.89.386-1.406.492a9.056 9.056 0 0 1-1.794.158 6.4 6.4 0 0 1-2.053-.317 4.37 4.37 0 0 1-1.633-.937c-.452-.424-.808-.974-1.066-1.612-.259-.656-.389-1.43-.389-2.318 0-1.736.619-3.07 1.859-4.002 1.25-.932 3.146-1.44 5.689-1.525l2.974-.112v-1.103c0-.71-.081-1.303-.242-1.779-.151-.475-.377-.848-.679-1.143a2.45 2.45 0 0 0-1.099-.636 5.27 5.27 0 0 0-1.488-.19 7.983 7.983 0 0 0-2.505.38c-.766.255-1.503.56-2.215.921l-1.035-2.175a14.785 14.785 0 0 1 2.668-1.08c1-.3 2.041-.45 3.087-.445 1.099 0 2.047.112 2.845.333.808.212 1.471.556 1.988 1.032a4.31 4.31 0 0 1 1.18 1.795c.258.73.389 1.615.389 2.652V68.09h-2.117l-.598-2.411Z"/><path fill="#131313" d="M247.266 68.092h-2.943V50.656h2.942v17.436m-2.683-23.542c.335-.286.743-.429 1.229-.429.236 0 .457.037.662.112.207.059.396.168.549.318.162.148.285.339.372.571.097.223.145.493.145.81 0 .614-.173 1.074-.518 1.381a1.764 1.764 0 0 1-1.213.445c-.484 0-.907-.223-1.241-.52-.323-.296-.475-.756-.475-1.344.002-.599.164-1.058.487-1.344h.003Z"/><path stroke="#131313" stroke-linecap="square" stroke-width="1.5" d="M247.266 68.092h-2.943V50.656h2.942v17.436m-2.683-23.542c.335-.286.743-.429 1.229-.429.236 0 .457.037.662.112.207.059.396.168.549.318.162.148.285.339.372.571.097.223.145.493.145.81 0 .614-.173 1.074-.518 1.381a1.764 1.764 0 0 1-1.213.445c-.484 0-.907-.223-1.241-.52-.323-.296-.475-.756-.475-1.344.002-.599.164-1.058.487-1.344h.003Z"/><path fill="#131313" d="M260.758 68.41a6.696 6.696 0 0 1-1.729-.206 6.716 6.716 0 0 1-1.406-.54 5.618 5.618 0 0 1-1.1-.81 7.905 7.905 0 0 1-.84-.969h-.194l.096 1.032.065.849.032.683v7.448h-2.942V50.656h2.393l.42 2.35h.13c.247-.369.528-.714.84-1.031a4.687 4.687 0 0 1 1.083-.842c.421-.244.89-.435 1.407-.572a6.324 6.324 0 0 1 1.744-.222c1.014 0 1.935.19 2.764.572.84.39 1.568.979 2.117 1.714.593.752 1.051 1.698 1.382 2.81.332 1.114.484 2.425.484 3.908 0 1.493-.162 2.805-.484 3.937-.323 1.122-.781 2.065-1.382 2.826a5.772 5.772 0 0 1-2.116 1.73c-.829.383-1.955.573-2.968.573m-.362-15.673c-.819 0-1.514.121-2.085.365a3.259 3.259 0 0 0-1.375 1.111c-.345.497-.604 1.117-.775 1.867-.162.74-.253 1.614-.275 2.62v.651c0 1.07.069 2.023.21 2.858.151.826.399 1.525.743 2.096.34.547.826.992 1.406 1.287.582.286 1.309.428 2.182.428 1.454 0 2.522-.577 3.2-1.73.689-1.155 1.035-2.811 1.035-4.97 0-2.203-.346-3.85-1.035-4.94-.679-1.09-1.757-1.635-3.233-1.635m17.129 13.3c.195 0 .41-.017.648-.032l.711-.08.605-.112.436-.112V67.9c-.14.063-.318.127-.534.19a6.085 6.085 0 0 1-.711.16 6.68 6.68 0 0 1-.808.111 7.122 7.122 0 0 1-.824.047 6.52 6.52 0 0 1-1.859-.255 3.516 3.516 0 0 1-1.487-.873c-.41-.413-.733-.967-.97-1.667-.237-.71-.356-1.599-.356-2.668V52.83h-2.505v-1.286l2.505-1.24 1.261-3.652h1.697v4.002h4.461v2.176h-4.461v10.115c0 1.018.167 1.799.501 2.318.346.51.905.778 1.681.778"/><path stroke="#131313" stroke-width="1.5" d="M260.758 68.41a6.696 6.696 0 0 1-1.729-.206 6.716 6.716 0 0 1-1.406-.54 5.618 5.618 0 0 1-1.1-.81 7.905 7.905 0 0 1-.84-.969h-.194l.096 1.032.065.849.032.683v7.448h-2.942V50.656h2.393l.42 2.35h.13c.247-.369.528-.714.84-1.031a4.687 4.687 0 0 1 1.083-.842c.421-.244.89-.435 1.407-.572a6.324 6.324 0 0 1 1.744-.222c1.014 0 1.935.19 2.764.572.84.39 1.568.979 2.117 1.714.593.752 1.051 1.698 1.382 2.81.332 1.114.484 2.425.484 3.908 0 1.493-.162 2.805-.484 3.937-.323 1.122-.781 2.065-1.382 2.826a5.772 5.772 0 0 1-2.116 1.73c-.829.383-1.955.573-2.968.573m-.362-15.673c-.819 0-1.514.121-2.085.365a3.259 3.259 0 0 0-1.375 1.111c-.345.497-.604 1.117-.775 1.867-.162.74-.253 1.614-.275 2.62v.651c0 1.07.069 2.023.21 2.858.151.826.399 1.525.743 2.096.34.547.826.992 1.406 1.287.582.286 1.309.428 2.182.428 1.454 0 2.522-.577 3.2-1.73.689-1.155 1.035-2.811 1.035-4.97 0-2.203-.346-3.85-1.035-4.94-.679-1.09-1.757-1.635-3.233-1.635m17.129 13.3c.195 0 .41-.017.648-.032l.711-.08.605-.112.436-.112V67.9c-.14.063-.318.127-.534.19a6.085 6.085 0 0 1-.711.16 6.68 6.68 0 0 1-.808.111 7.122 7.122 0 0 1-.824.047 6.517 6.517 0 0 1-1.859-.255 3.516 3.516 0 0 1-1.487-.873c-.41-.413-.733-.967-.97-1.667-.237-.71-.356-1.599-.356-2.668V52.83h-2.505v-1.286l2.505-1.24 1.261-3.652h1.697v4.002h4.461v2.176h-4.461v10.115c0 1.018.167 1.799.501 2.318.346.51.905.778 1.681.778"/></g><g clip-path="url(#clip1_4649_76318)"><path fill="#D4B830" d="m62.385 86.325-5.387-59.321 58.034.022-5.342 59.253-23.72 6.702-23.585-6.656Zm42.937-3.238 4.504-50.808H86.06l.181 56.038 19.081-5.23Zm-21.48-43.359H78.07l-.068 30.408L66.8 67.079l.022 6.951 17.021 4.596V39.728Z"/><path fill="#EBEBEB" fill-opacity=".922" d="m66.822 74.031-.023-6.95s7.152 2.014 11.204 3.056l.068-30.385h5.771v38.875l-17.02-4.596Z" opacity=".986"/><path fill="#FDD83C" d="M86.06 32.258h23.766l-4.504 50.807-19.261 5.23V32.259Zm18.04 42.294 1.562-18.996-11.544 1.29V46.703l12.313-.045.498-6.928-18.582.09.249 25.223 11.226-1.925-.158 5.615-11.317 3.012.113 6.883 15.64-4.076Z"/></g><defs><clipPath id="clip0_4649_76318"><path fill="#fff" d="M128.689 44.068h159.31v33h-159.31z"/></clipPath><clipPath id="clip1_4649_76318"><path fill="#fff" d="M57 27h58.035v66H57z"/></clipPath></defs></svg>