<svg xmlns="http://www.w3.org/2000/svg" width="345" height="120" fill="none" viewBox="0 0 345 120"><rect width="343.5" height="118.5" x=".75" y=".75" stroke="#333F91" stroke-width="1.5" rx="9.25"/><path fill="#000400" d="M159.289 50.49h4.633v9.21l8.547-9.21h5.593l-8.576 8.892 8.967 12.127h-5.569l-6.525-8.967-2.437 2.526v6.441h-4.633V50.49Zm16.703 13.087v-.06c0-4.633 3.729-8.39 8.762-8.39 4.996 0 8.696 3.7 8.696 8.39v.06c0 4.632-3.728 8.389-8.761 8.389-4.996 0-8.697-3.7-8.697-8.39Zm12.938 0v-.06c0-2.33-1.715-4.456-4.195-4.456-2.619 0-4.185 2.018-4.185 4.395v.06c0 2.33 1.715 4.456 4.195 4.456 2.619 0 4.18-2.018 4.18-4.395h.005Z"/><path fill="#000400" d="M194.71 66.979v-7.597h-1.925v-3.914h1.925v-4.125h4.567v4.124h3.794v3.915h-3.794v6.898c0 1.053.452 1.566 1.473 1.566a4.656 4.656 0 0 0 2.256-.574v3.673c-.965.573-2.074.932-3.612.932-2.797 0-4.693-1.118-4.693-4.847l.009-.051Zm9.68-17.393h4.567V71.55h-4.567V49.586Zm6.226 0h4.814v4.064h-4.809l-.005-4.064Zm.121 5.84h4.568V71.55h-4.568V55.425Zm6.315 0h4.568v2.283c1.053-1.351 2.409-2.586 4.725-2.586 3.463 0 5.476 2.283 5.476 5.988v10.44h-4.567v-9c0-2.167-1.025-3.28-2.768-3.28-1.743 0-2.857 1.118-2.857 3.28v8.995h-4.567l-.01-16.12Z"/><path fill="url(#paint0_linear_7889_14370)" d="m133.068 40.941-19.9 20.912v18.702l19.863-19.9 19.76-19.723-19.723.009Z"/><path fill="url(#paint1_linear_7889_14370)" d="m113.168 80.56 19.863-19.9 19.76 19.9h-39.623Z"/><path fill="url(#paint2_linear_7889_14370)" d="M113.168 40.941h19.9l-19.9 20.912V40.941Z"/><defs><linearGradient id="paint0_linear_7889_14370" x1="106.503" x2="143.373" y1="77.367" y2="40.498" gradientUnits="userSpaceOnUse"><stop offset=".108" stop-color="#C757BC"/><stop offset=".173" stop-color="#CD5CA9"/><stop offset=".492" stop-color="#E8744F"/><stop offset=".716" stop-color="#F88316"/><stop offset=".823" stop-color="#FF8900"/></linearGradient><linearGradient id="paint1_linear_7889_14370" x1="125.817" x2="143.787" y1="87.71" y2="69.739" gradientUnits="userSpaceOnUse"><stop offset=".296" stop-color="#00AFFF"/><stop offset=".694" stop-color="#5282FF"/><stop offset="1" stop-color="#945DFF"/></linearGradient><linearGradient id="paint2_linear_7889_14370" x1="112.697" x2="125.304" y1="51.875" y2="39.268" gradientUnits="userSpaceOnUse"><stop offset=".296" stop-color="#00AFFF"/><stop offset=".694" stop-color="#5282FF"/><stop offset="1" stop-color="#945DFF"/></linearGradient></defs></svg>