<svg xmlns="http://www.w3.org/2000/svg" width="345" height="121" fill="none" viewBox="0 0 345 121"><rect width="343.5" height="118.5" x=".75" y=".828" stroke="#326CE5" stroke-width="1.5" rx="9.25"/><path fill="#326CE5" d="M94.007 30.003a4.18 4.18 0 0 0-1.607.427L70.673 40.8a4.123 4.123 0 0 0-2.246 2.794l-5.32 23.279a4.09 4.09 0 0 0 .566 3.173c.074.114.152.223.234.328l15.03 18.678a4.164 4.164 0 0 0 3.239 1.533h24.096a4.164 4.164 0 0 0 3.246-1.546l15.018-18.686a4.091 4.091 0 0 0 .801-3.485l-5.359-23.304a4.125 4.125 0 0 0-2.246-2.795l-21.71-10.34a4.18 4.18 0 0 0-2.015-.426Z"/><path fill="#fff" stroke="#fff" stroke-width=".054" d="M94.223 37.926a1.376 1.376 0 0 0-1.278 1.444v.366c.036.415.096.828.18 1.236.118.78.161 1.571.127 2.36-.075.26-.223.494-.426.673l-.03.554c-.79.066-1.574.187-2.347.362a16.713 16.713 0 0 0-8.495 4.849l-.47-.333a1.026 1.026 0 0 1-.77-.076 12.134 12.134 0 0 1-1.751-1.581c-.267-.319-.551-.622-.852-.907l-.29-.23a1.547 1.547 0 0 0-.903-.341 1.254 1.254 0 0 0-1.036.46 1.376 1.376 0 0 0 .32 1.917l.268.213c.347.23.707.441 1.078.63.692.385 1.344.836 1.947 1.347.155.22.245.48.26.75l.426.37a16.811 16.811 0 0 0-2.65 11.725l-.545.157a1.802 1.802 0 0 1-.558.563c-.763.203-1.543.331-2.33.383-.418.009-.835.041-1.249.098l-.34.085h-.043a1.304 1.304 0 1 0 .58 2.53h.025l.353-.042c.397-.12.787-.262 1.168-.426a12.135 12.135 0 0 1 2.266-.664c.268.016.527.108.746.264l.566-.098a16.909 16.909 0 0 0 7.494 9.373l-.238.498c.11.227.15.483.115.733-.323.746-.717 1.46-1.176 2.13-.253.333-.486.68-.699 1.04l-.17.349a1.303 1.303 0 1 0 2.347 1.112l.162-.333c.148-.39.273-.788.375-1.192.34-.853.532-1.769 1.005-2.335.155-.145.35-.24.558-.273l.299-.532a16.817 16.817 0 0 0 11.993.03l.255.498c.266.041.504.185.665.4.367.698.665 1.43.89 2.186.104.405.23.803.379 1.193l.162.332a1.306 1.306 0 0 0 1.78.725 1.305 1.305 0 0 0 .568-1.837l-.171-.35a10.789 10.789 0 0 0-.698-1.034 12.15 12.15 0 0 1-1.151-2.062 1.014 1.014 0 0 1 .132-.78 4.5 4.5 0 0 1-.217-.524 16.908 16.908 0 0 0 7.464-9.407l.554.098c.198-.181.46-.278.729-.268.775.147 1.534.37 2.266.664.38.173.77.324 1.167.452.094.025.231.043.341.072h.026a1.303 1.303 0 1 0 .575-2.53l-.383-.086c-.414-.056-.831-.089-1.249-.098a12.126 12.126 0 0 1-2.33-.383 1.452 1.452 0 0 1-.562-.562l-.525-.154a16.878 16.878 0 0 0-2.705-11.694l.46-.426a1.03 1.03 0 0 1 .243-.737c.599-.515 1.247-.97 1.934-1.36.371-.189.731-.4 1.078-.63l.286-.23a1.311 1.311 0 0 0 .332-1.925 1.31 1.31 0 0 0-1.951-.107l-.29.23c-.301.286-.586.589-.852.907a12.18 12.18 0 0 1-1.704 1.606 1.45 1.45 0 0 1-.788.086l-.495.353a17.039 17.039 0 0 0-10.8-5.21c0-.17-.025-.486-.03-.58a1.027 1.027 0 0 1-.425-.647 12.16 12.16 0 0 1 .149-2.356c.083-.408.143-.82.179-1.235v-.371a1.376 1.376 0 0 0-1.278-1.444l-.022-.013Zm-1.627 10.08-.384 6.816h-.03a1.145 1.145 0 0 1-1.819.878l-5.59-3.962a13.386 13.386 0 0 1 6.447-3.51c.456-.098.916-.172 1.38-.222h-.004Zm3.255 0a13.495 13.495 0 0 1 7.783 3.753l-5.538 3.937a1.146 1.146 0 0 1-1.862-.878l-.383-6.812Zm-13.114 6.3 5.113 4.56v.03a1.146 1.146 0 0 1-.452 1.968v.02l-6.56 1.888a13.382 13.382 0 0 1 1.9-8.47v.005Zm22.934 0a13.634 13.634 0 0 1 1.955 8.445l-6.569-1.892v-.025a1.15 1.15 0 0 1-.815-.85 1.149 1.149 0 0 1 .363-1.119l5.07-4.541-.004-.017Zm-12.496 4.922h2.088l1.278 1.618-.469 2.028-1.874.904-1.883-.904-.444-2.032 1.304-1.614Zm6.702 5.538c.088-.01.176-.01.264 0l6.765 1.142a13.396 13.396 0 0 1-5.415 6.816l-2.615-6.34a1.151 1.151 0 0 1 .992-1.597l.009-.021Zm-11.363.03a1.145 1.145 0 0 1 1.036 1.597v.026l-2.603 6.271a13.454 13.454 0 0 1-5.377-6.74l6.706-1.142c.075-.007.15-.007.226 0l.012-.012Zm5.667 2.752a1.155 1.155 0 0 1 1.048.6h.025l3.306 5.965c-.434.146-.874.27-1.32.37-2.432.557-4.971.426-7.332-.378l3.297-5.965a1.147 1.147 0 0 1 .976-.575v-.017Z"/><path fill="#000" d="m139.061 61.507 1.257-1.371c.431-.478.85-.95 1.256-1.415l1.151-1.33c.358-.42.666-.786.924-1.098h4.891a193.48 193.48 0 0 1-2.854 3.208 81.042 81.042 0 0 1-3.051 3.152 18.902 18.902 0 0 1 1.704 1.786c.588.69 1.156 1.4 1.705 2.13.548.73 1.053 1.468 1.516 2.215.46.738.847 1.412 1.159 2.02h-4.729a33.908 33.908 0 0 0-1.005-1.594 46.81 46.81 0 0 0-1.193-1.713 35.12 35.12 0 0 0-1.338-1.674 11.25 11.25 0 0 0-1.393-1.355v6.365h-4.116V50.056l4.116-.665v12.12-.004Zm23.986 8.81c-.89.244-1.793.433-2.706.567-1.15.18-2.312.268-3.476.265a8.258 8.258 0 0 1-3.08-.499 4.682 4.682 0 0 1-1.947-1.393 5.428 5.428 0 0 1-1.023-2.13 11.497 11.497 0 0 1-.302-2.735v-8.095h4.115v7.583c0 1.327.175 2.284.524 2.872.349.588 1.003.882 1.96.882a13.86 13.86 0 0 0 1.819-.14V56.287h4.116v14.03Zm17.373-6.765a9.167 9.167 0 0 1-.511 3.149 6.645 6.645 0 0 1-1.478 2.403 6.494 6.494 0 0 1-2.373 1.533 8.916 8.916 0 0 1-3.204.537c-.497 0-1.017-.023-1.559-.068a29.211 29.211 0 0 1-1.602-.179 21.323 21.323 0 0 1-1.504-.264 17.487 17.487 0 0 1-1.278-.32V50.051l4.115-.664v7.242a7.374 7.374 0 0 1 3.038-.635 6.558 6.558 0 0 1 2.735.537 5.37 5.37 0 0 1 1.99 1.534c.557.71.969 1.522 1.214 2.39.287 1.007.428 2.05.417 3.097Zm-4.196-.11c0-2.65-.976-3.975-2.927-3.975-.424 0-.847.056-1.257.166-.356.09-.697.233-1.01.426v7.468c.199.037.455.07.767.098.313.029.654.043 1.023.043a2.958 2.958 0 0 0 2.556-1.159c.605-.905.901-1.98.844-3.067h.004Zm6.676.221a8.865 8.865 0 0 1 .592-3.383 7.24 7.24 0 0 1 1.559-2.415 6.484 6.484 0 0 1 2.224-1.445 6.956 6.956 0 0 1 2.582-.498c2.062 0 3.691.63 4.886 1.892 1.193 1.26 1.79 3.115 1.79 5.564 0 .238-.009.501-.026.788-.017.284-.035.537-.055.758h-9.33a2.731 2.731 0 0 0 1.188 2.015 4.772 4.772 0 0 0 2.816.746c.747 0 1.491-.07 2.224-.209a8.369 8.369 0 0 0 1.781-.511l.554 3.34a5.675 5.675 0 0 1-.882.332c-.403.119-.813.216-1.227.29-.454.085-.937.156-1.448.213-.514.055-1.03.082-1.547.081a9.154 9.154 0 0 1-3.408-.58 6.636 6.636 0 0 1-2.403-1.589 6.3 6.3 0 0 1-1.406-2.39 9.489 9.489 0 0 1-.469-2.995l.005-.004Zm9.662-1.576a4.279 4.279 0 0 0-.179-1.023 2.554 2.554 0 0 0-.468-.882 2.519 2.519 0 0 0-.801-.634 2.614 2.614 0 0 0-1.202-.248c-.408-.01-.814.07-1.188.235a2.452 2.452 0 0 0-.827.622c-.225.265-.398.57-.511.899a5.866 5.866 0 0 0-.264 1.035h5.44v-.004Zm15.9-2.152c-.369-.09-.795-.187-1.278-.29a7.486 7.486 0 0 0-2.527-.085c-.274.03-.546.082-.813.154V70.79h-4.116V57.06c.85-.289 1.714-.53 2.59-.725a15.044 15.044 0 0 1 3.353-.345c.222 0 .489.014.801.043.313.028.625.065.938.11.312.046.624.103.937.171.273.053.542.131.801.234l-.686 3.387Zm2.897-3.144a22.997 22.997 0 0 1 2.705-.566 22.253 22.253 0 0 1 3.481-.265 8.48 8.48 0 0 1 3.089.486c.757.279 1.428.75 1.947 1.368.491.614.84 1.33 1.022 2.096a11.2 11.2 0 0 1 .303 2.705v8.205h-4.12v-7.71c0-1.327-.175-2.264-.524-2.813-.35-.55-1.003-.826-1.96-.826-.284 0-.596.014-.937.043-.341.028-.635.06-.882.097v11.205h-4.116V56.791h-.008Zm15.571 6.872a8.885 8.885 0 0 1 .593-3.383 7.24 7.24 0 0 1 1.559-2.415 6.488 6.488 0 0 1 2.207-1.445 6.959 6.959 0 0 1 2.581-.498c2.062 0 3.691.63 4.887 1.892 1.193 1.26 1.789 3.115 1.789 5.564 0 .238-.01.501-.029.788l-.056.758h-9.33a2.733 2.733 0 0 0 1.189 2.015 4.77 4.77 0 0 0 2.816.746c.746 0 1.491-.07 2.224-.209a8.392 8.392 0 0 0 1.781-.511l.553 3.34a5.675 5.675 0 0 1-.882.332c-.403.12-.813.216-1.226.29-.455.085-.938.156-1.449.213-.514.055-1.03.082-1.547.081a9.154 9.154 0 0 1-3.408-.58 6.644 6.644 0 0 1-2.403-1.589 6.296 6.296 0 0 1-1.397-2.402 9.49 9.49 0 0 1-.456-2.983l.004-.004Zm9.663-1.576a4.279 4.279 0 0 0-.179-1.023 2.557 2.557 0 0 0-.469-.882 2.497 2.497 0 0 0-.801-.634 2.612 2.612 0 0 0-1.201-.248c-.409-.01-.815.07-1.189.235a2.458 2.458 0 0 0-.826.622c-.225.265-.399.57-.511.899-.12.336-.208.683-.265 1.035h5.441v-.004Zm7.008-9.416 4.116-.664v4.26h4.942v3.408h-4.942v5.113a4.067 4.067 0 0 0 .455 2.07c.304.512.915.767 1.832.767a7.857 7.857 0 0 0 2.646-.468l.579 3.203c-.538.216-1.092.391-1.657.524a9.653 9.653 0 0 1-2.236.222 7.363 7.363 0 0 1-2.787-.456 4.372 4.372 0 0 1-1.768-1.278 4.715 4.715 0 0 1-.924-1.973 11.621 11.621 0 0 1-.264-2.556V52.671h.008Zm11.247 10.992a8.885 8.885 0 0 1 .593-3.383A7.24 7.24 0 0 1 257 57.865a6.487 6.487 0 0 1 2.224-1.445 6.96 6.96 0 0 1 2.582-.498c2.062 0 3.69.63 4.886 1.892 1.193 1.26 1.79 3.111 1.79 5.55 0 .24-.01.502-.03.79l-.056.757h-9.33a2.722 2.722 0 0 0 1.193 2.016 4.772 4.772 0 0 0 2.816.745c.746 0 1.491-.07 2.224-.209a8.375 8.375 0 0 0 1.781-.51l.554 3.34c-.285.134-.58.245-.882.331a11.6 11.6 0 0 1-1.227.29c-.455.085-.937.156-1.449.213-.513.055-1.03.082-1.546.081a9.145 9.145 0 0 1-3.408-.58 6.636 6.636 0 0 1-2.403-1.588 6.289 6.289 0 0 1-1.423-2.39 9.46 9.46 0 0 1-.452-2.983l.004-.004Zm9.671-1.576a4.182 4.182 0 0 0-.179-1.023 2.554 2.554 0 0 0-.468-.882 2.508 2.508 0 0 0-.801-.634 2.614 2.614 0 0 0-1.202-.248 2.76 2.76 0 0 0-1.188.235 2.458 2.458 0 0 0-.848.618c-.225.265-.399.57-.511.898a5.78 5.78 0 0 0-.264 1.036h5.461Zm11.303 5.773a4.105 4.105 0 0 0 1.602-.222.852.852 0 0 0 .469-.852 1.049 1.049 0 0 0-.61-.852 11.53 11.53 0 0 0-1.849-.852 18.817 18.817 0 0 1-1.755-.746 5.169 5.169 0 0 1-1.338-.924 3.752 3.752 0 0 1-.852-1.278 4.751 4.751 0 0 1-.302-1.794 3.878 3.878 0 0 1 1.517-3.23c1.011-.794 2.4-1.192 4.166-1.192a13.39 13.39 0 0 1 2.556.234c.658.116 1.305.287 1.935.511l-.716 3.204a15.225 15.225 0 0 0-1.559-.426 8.499 8.499 0 0 0-1.892-.192c-1.29 0-1.934.36-1.934 1.078-.002.146.026.291.081.426.075.151.19.28.332.371.215.148.441.278.677.388.284.142.648.295 1.091.46.768.275 1.516.605 2.237.988.519.272.989.628 1.393 1.053.329.358.574.786.716 1.252.146.52.217 1.058.208 1.598a3.682 3.682 0 0 1-1.614 3.25c-1.08.733-2.602 1.102-4.567 1.108a13.134 13.134 0 0 1-3.217-.332 13.02 13.02 0 0 1-1.781-.554l.69-3.34c.698.275 1.418.492 2.152.647.712.148 1.437.22 2.164.218Z"/></svg>