<svg xmlns="http://www.w3.org/2000/svg" width="345" height="120" fill="none" viewBox="0 0 345 120"><rect width="343.5" height="118.5" x=".75" y=".75" stroke="#FF2D20" stroke-width="1.5" rx="9.25"/><g clip-path="url(#clip0_7880_14823)"><path fill="#FF2D20" d="M118.239 35.76v38.797h14.038v6.683h-21.511V35.76h7.473Zm40.396 19.29v-4.091h7.104v30.297h-7.07V77.15c-.976 1.515-2.323 2.693-4.073 3.535-1.751.892-3.535 1.313-5.302 1.313-2.306 0-4.41-.42-6.312-1.263a14.75 14.75 0 0 1-4.915-3.467 16.16 16.16 0 0 1-3.198-5.05 16.357 16.357 0 0 1-1.128-6.126c0-2.121.387-4.158 1.145-6.06a16.097 16.097 0 0 1 3.198-5.117 14.76 14.76 0 0 1 4.881-3.5c1.919-.842 4.04-1.263 6.312-1.263 1.767 0 3.535.438 5.285 1.296 1.751.875 3.097 2.054 4.04 3.568l.033.034Zm-.639 14.76c.443-1.184.671-2.438.673-3.702 0-1.313-.236-2.525-.673-3.703a9.385 9.385 0 0 0-1.818-3.08 8.798 8.798 0 0 0-2.828-2.054 8.685 8.685 0 0 0-3.669-.791c-1.347 0-2.559.286-3.636.808a8.929 8.929 0 0 0-2.794 2.036 8.933 8.933 0 0 0-1.784 3.08 11.039 11.039 0 0 0-.623 3.704c0 1.296.202 2.524.623 3.703a8.503 8.503 0 0 0 1.784 3.03 8.895 8.895 0 0 0 2.794 2.103c1.077.505 2.289.775 3.636.775 1.346 0 2.575-.253 3.669-.775a8.778 8.778 0 0 0 2.828-2.087 9.399 9.399 0 0 0 1.818-3.03v-.016Zm13.331 11.446V50.96h19.222v6.968h-12.153V81.24h-7.069v.016Zm44.89-26.207v-4.09h7.07v30.297h-7.07V77.15c-.942 1.515-2.306 2.693-4.039 3.535-1.768.892-3.535 1.313-5.319 1.313-2.306 0-4.41-.42-6.312-1.263a14.75 14.75 0 0 1-4.915-3.467 16.16 16.16 0 0 1-3.198-5.05 16.37 16.37 0 0 1-1.111-6.126c0-2.121.37-4.158 1.128-6.06a16.097 16.097 0 0 1 3.198-5.117 14.76 14.76 0 0 1 4.881-3.5c1.919-.842 4.04-1.263 6.312-1.263 1.767 0 3.535.438 5.285 1.296 1.751.875 3.114 2.054 4.04 3.568l.05.034Zm-.639 14.762c.432-1.187.648-2.44.639-3.703 0-1.313-.218-2.525-.639-3.703a9.403 9.403 0 0 0-1.801-3.08 8.802 8.802 0 0 0-2.862-2.054 8.663 8.663 0 0 0-3.652-.791 8.37 8.37 0 0 0-3.653.808 8.929 8.929 0 0 0-2.794 2.036 8.933 8.933 0 0 0-1.784 3.08 11.03 11.03 0 0 0-.606 3.704c0 1.296.202 2.524.606 3.703.421 1.178 1.01 2.188 1.784 3.03a8.895 8.895 0 0 0 2.794 2.103c1.094.505 2.306.775 3.653.775 1.346 0 2.558-.253 3.669-.775a8.792 8.792 0 0 0 2.862-2.087 9.399 9.399 0 0 0 1.801-3.03l-.017-.016Zm36.121-18.852h7.187l-11.614 30.297h-8.921L226.737 50.96h7.154l8.921 23.194 8.887-23.177v-.017Zm22.622-.774c9.645 0 16.226 8.55 14.98 18.548h-23.514c0 2.593 2.66 7.642 8.921 7.642 5.386 0 9.005-4.713 9.005-4.713l4.78 3.703c-4.292 4.545-7.793 6.649-13.297 6.649-9.796 0-16.428-6.228-16.428-15.94 0-8.803 6.868-15.923 15.536-15.923l.017.034Zm-8.5 13.297h17c-.067-.59-1.01-7.675-8.551-7.675-7.574 0-8.382 7.103-8.449 7.675Zm28.109 17.724V35.76h7.069v45.48h-7.069v-.034Z"/></g><g clip-path="url(#clip1_7880_14823)"><path fill="#FF2D20" fill-rule="evenodd" d="M94.135 45.45a.8.8 0 0 1 .027.206V56.52a.792.792 0 0 1-.398.687l-9.117 5.25V72.86c0 .283-.15.545-.396.688L65.218 84.505c-.044.025-.091.04-.139.057-.018.006-.034.017-.053.022a.798.798 0 0 1-.406 0c-.022-.006-.042-.018-.063-.026-.043-.015-.089-.03-.13-.053L45.398 73.549A.792.792 0 0 1 45 72.86v-32.59c0-.071.01-.14.028-.208.006-.023.02-.043.027-.066.015-.042.03-.084.05-.123.016-.026.038-.046.055-.07.023-.032.044-.065.07-.092.024-.023.053-.04.079-.06.029-.023.054-.05.087-.068l9.516-5.478a.795.795 0 0 1 .792 0l9.515 5.478h.002c.031.02.058.045.087.067.026.02.054.038.077.06.028.029.048.061.072.093.016.024.04.044.053.07.023.04.036.081.051.123.008.023.022.044.028.067a.804.804 0 0 1 .028.207v20.356l7.929-4.566V45.655c0-.069.01-.14.027-.206.007-.023.02-.044.028-.067.016-.041.03-.084.052-.123.014-.025.036-.046.053-.07.024-.032.044-.064.071-.092.023-.023.052-.04.078-.06.03-.023.055-.049.087-.068l9.517-5.478a.794.794 0 0 1 .792 0l9.514 5.478c.034.02.06.045.09.067.024.02.053.038.076.06.028.029.047.061.071.093.018.024.04.045.054.07.022.039.035.081.051.123.009.023.022.044.028.067ZM92.576 56.06v-9.033l-3.33 1.916-4.6 2.649v9.034l7.931-4.566Zm-9.514 16.342v-9.04l-4.525 2.585-12.921 7.374v9.125L83.06 72.403Zm-36.476-30.76v30.76L64.03 82.446v-9.123l-9.113-5.158-.003-.002-.004-.002c-.03-.017-.056-.043-.085-.065-.025-.02-.054-.036-.076-.057l-.001-.003c-.026-.025-.044-.056-.066-.084-.02-.026-.043-.05-.06-.077v-.003c-.018-.03-.029-.065-.042-.099-.013-.03-.03-.057-.037-.089-.01-.037-.012-.078-.016-.117-.004-.03-.012-.06-.012-.089v-21.27l-4.6-2.65-3.329-1.916Zm8.723-5.935L47.38 40.27l7.926 4.564 7.927-4.565-7.927-4.562h.002Zm4.123 28.48 4.599-2.648V41.642L60.7 43.56l-4.6 2.649v19.897l3.33-1.918Zm24.423-23.095-7.927 4.563 7.927 4.564 7.925-4.565-7.925-4.562Zm-.794 10.5-4.6-2.649-3.33-1.916v9.033l4.6 2.648 3.33 1.918v-9.034Zm-18.24 20.358 11.628-6.638 5.811-3.317-7.92-4.56-9.12 5.25-8.312 4.785 7.914 4.48Z" clip-rule="evenodd"/></g><defs><clipPath id="clip0_7880_14823"><path fill="#fff" d="M110.766 35.746H301v47.482H110.766z"/></clipPath><clipPath id="clip1_7880_14823"><path fill="#fff" d="M45 34h49.505v51.485H45z"/></clipPath></defs></svg>