<svg xmlns="http://www.w3.org/2000/svg" width="346" height="121" fill="none" viewBox="0 0 346 121"><rect width="344.5" height="118.5" x=".75" y=".828" stroke="#599636" stroke-width="1.5" rx="9.25"/><path fill="#C2BFBF" d="M83.294 94.32c.094-1.074.63-1.961 1.168-2.848-.56-.231-.982-.701-1.309-1.217-.281-.468-.514-1.05-.7-1.542-.655-1.962-.798-4.018-.982-6.027v-1.217c-.231.189-.282 1.775-.282 2.01a46.732 46.732 0 0 1-.839 6.306c-.14.839-.23 1.682-.746 2.43 0 .093 0 .188.046.326.839 2.476 1.074 5 1.216 7.57v.933c0 1.12-.046.888.888 1.259.373.14.797.189 1.168.468.282 0 .328-.231.328-.42l-.14-1.542v-4.3c-.047-.747.094-1.496.188-2.197l-.004.008Z"/><path fill="#599636" d="m81.003 17.23 2.287 4.301a12.901 12.901 0 0 0 1.729 2.148c1.915 1.916 3.738 3.923 5.37 6.074 3.877 5.091 6.493 10.745 8.362 16.867 1.12 3.738 1.729 7.569 1.775 11.446.189 11.586-3.784 21.537-11.82 29.806a34.19 34.19 0 0 1-4.203 3.598c-.797 0-1.169-.629-1.496-1.168-.63-1.049-.982-2.197-1.169-3.363-.28-1.401-.467-2.803-.373-4.252v-.655c-.046-.14-.747-64.472-.468-64.8l.006-.002Z"/><path fill="#6CAC48" d="M81 17.093c-.094-.189-.188-.046-.28.046.046.934-.281 1.775-.797 2.57-.56.797-1.31 1.401-2.056 2.056-4.158 3.598-7.427 7.942-10.045 12.801-3.457 6.541-5.278 13.548-5.79 20.93-.23 2.665.839 12.055 1.682 14.764 2.287 7.195 6.399 13.22 11.749 18.453 1.309 1.258 2.71 2.429 4.158 3.55.42 0 .467-.374.56-.655.184-.597.324-1.206.42-1.823.419-2.335.654-4.672.933-7.007l-.514-65.685H81Z"/><path fill="#47474A" d="M118.771 74.782v4.45c-.005.175.005.352.03.526.057.527.381.848.856.996.444.117.895.205 1.35.264.263.03.351.145.381.428.03.996-.058 1.114-1.024 1.054-2.253-.118-4.509-.145-6.763 0h-.214c-.702.03-.76-.03-.76-.733 0-.117.03-.263.03-.38 0-.215.145-.322.351-.322.471-.058.908-.176 1.35-.264.614-.145.964-.527 1.024-1.141.085-.673.085-1.376.085-2.05l.03-7.845a1.195 1.195 0 0 0-.642-1.114 8.331 8.331 0 0 0-1.671-.703c-.176-.058-.352-.085-.497-.175-.429-.206-.439-.585-.03-.82.145-.087.321-.147.497-.177a26.621 26.621 0 0 0 5.21-1.317c.351-.118.439-.086.471.263.03.215 0 .472-.03.673-.058.381-.058.76-.058 1.114 0 .146.03.293.176.381.145.088.293 0 .428-.085.615-.472 1.23-.909 1.902-1.286.964-.527 1.993-.996 3.107-1.142 1.349-.175 2.517.176 3.543 1.055.424.38.798.812 1.112 1.287.293.428.321.44.702.146 1.114-.82 2.284-1.551 3.543-2.078 1.318-.557 2.665-.643 4.011-.176 1.375.497 2.313 1.463 2.87 2.78.471 1.055.673 2.143.673 3.278v7.845c0 .527.214.857.732 1.114.557.214 1.172.321 1.757.439.381.086.381.086.381.471-.057.964-.145 1.024-1.084.964a63.02 63.02 0 0 0-7.054 0c-.471.03-.471.03-.497-.439v-.145c-.03-.793-.03-.793.733-.965l.76-.205a1.183 1.183 0 0 0 .909-1.142l.085-2.196-.058-5.736a4.556 4.556 0 0 0-.321-1.494c-.733-1.786-2.341-2.429-3.894-2.253-1.172.118-2.196.585-3.162 1.26-.206.145-.352.32-.322.614.264 1.875.086 3.749.118 5.621v4.07c0 .733.294 1.084.996 1.26l1.35.294c.206.03.321.117.321.35v.215c-.03.82-.086.857-.908.848-2.342-.117-4.685-.085-6.997 0-.792.03-.856-.057-.82-.856.03-.472.086-.497.527-.585l.964-.176c.857-.176 1.172-.497 1.23-1.405l.085-1.962-.058-5.885c-.057-.733-.214-1.435-.614-2.108-.585-1.084-1.5-1.639-2.753-1.699-1.26-.085-2.372.382-3.428.964-.732.429-1.054.936-.996 1.787v4.273l-.025-.025Zm55.155.178v4.128c.004.293.024.586.058.878a.894.894 0 0 0 .702.82 6.843 6.843 0 0 0 1.551.264c.294.03.352.145.382.381v.206c-.03 1.024-.146 1.142-1.142 1.084-2.228-.146-4.45-.118-6.675 0l-.857.03c-.176 0-.214-.086-.264-.206a2.996 2.996 0 0 1 0-1.23c.03-.175.146-.214.322-.263.428-.058.792-.146 1.199-.214.733-.176.996-.471 1.024-1.23l.086-2.46v-7.201c0-.527-.206-.849-.673-1.084-.527-.294-1.084-.497-1.671-.703a2.497 2.497 0 0 1-.497-.205c-.381-.264-.428-.643-.058-.936.167-.137.371-.22.585-.236 1.875-.294 3.689-.703 5.446-1.406.205-.085.293-.03.381.146a.972.972 0 0 1 .086.585l-.086 1.375c0 .176-.086.429.058.497.176.118.293-.145.439-.214a13.05 13.05 0 0 1 2.841-1.814c.908-.429 1.842-.703 2.898-.643 1.962.118 3.368 1.114 4.274 2.84.471.909.672 1.903.76 2.929l.086 2.142.03 6.47c.03.497.206.82.703.996.515.171 1.044.299 1.58.381.472.058.497.146.527.585v.145c-.057.997-.117 1.025-1.113.965a61.256 61.256 0 0 0-6.558 0c-.293.03-.585 0-.857.03-.175 0-.293-.03-.321-.206-.058-.382-.118-.76-.03-1.172.03-.176.118-.263.321-.293l1.35-.215c.471-.118.733-.428.793-.857l.057-.82-.03-6.118c0-.703-.03-1.405-.175-2.108-.352-1.5-1.493-2.57-3.042-2.72-1.35-.146-2.571.205-3.689.936-.557.35-.793.848-.793 1.463v4.421c0-.086 0-.086.03-.086l-.038-.057Z"/><path fill="#C2BFBF" d="M259.669 66.672c-.321-2.138-1.114-4.04-2.489-5.709a11.296 11.296 0 0 0-4.51-3.337c-1.842-.76-3.806-.996-5.796-1.054-.821-.03-12.003.145-12.824 0a.437.437 0 0 0-.471.206c-.146.214-.293.439-.381.672-.351.793-.352.733.497.848.702.118 1.375.176 2.05.382.615.205 1.054.557 1.2 1.23.057.32.117 10.625.117 15.428l-.117 3.427c-.03.263-.058.527-.146.76-.118.352-.321.643-.673.793-.386.182-.803.291-1.229.322-.793.085-.909.117-1.172.996l-.086.32c-.058.382-.03.44.351.44l8.753.086 3.428-.058 2.371-.294c2.693-.497 5.095-1.61 7.142-3.395a11.894 11.894 0 0 0 2.811-3.689c.821-1.639 1.172-3.427 1.26-5.24.145-1.024.085-2.078-.086-3.132v-.002Zm-4.246 4.156c-.118 1.875-.497 3.689-1.463 5.328-1.23 2.138-2.986 3.63-5.415 4.156-1.054.214-2.108.321-3.214.175-.792-.085-1.551-.175-2.283-.439-1.318-.471-1.787-1.285-1.815-2.57l-.03-17.652c0-1.054.472-1.285 1.23-1.318a19.803 19.803 0 0 1 3.455.058c1.216.118 2.409.406 3.543.857a8.508 8.508 0 0 1 2.314 1.435c1.581 1.35 2.635 3.042 3.213 5.035.472 1.61.557 3.25.472 4.888l-.007.047ZM284 73.698c0-.175 0-.32-.03-.496-.263-1.611-1.114-2.84-2.429-3.777-.848-.615-1.815-1.024-2.811-1.317-.175-.058-.321-.118-.497-.146.03-.146.118-.176.206-.206.585-.293 1.142-.615 1.639-1.054.908-.76 1.499-1.698 1.814-2.84.176-.615.176-1.23.118-1.875a5.04 5.04 0 0 0-2.138-3.806c-1.35-.996-2.928-1.406-4.567-1.436-3.162-.057-6.352 0-9.511 0-.909 0-1.815.058-2.753-.085-.176-.03-.429-.086-.557.118-.214.38-.471.76-.557 1.2-.03.205.03.32.263.35l2.02.294c.793.118 1.35.557 1.406 1.26.057.485.086.974.085 1.463l-.057 5.473-.03 10.83c0 .644-.086 1.26-.206 1.903a1.072 1.072 0 0 1-.761.879c-.584.175-1.141.35-1.756.35a.728.728 0 0 0-.761.498 3.832 3.832 0 0 0-.263.82c-.058.352.03.472.381.429.264-.03 9.925.205 11.739.03 1.084-.118 2.143-.264 3.22-.585 1.842-.585 3.543-1.435 4.889-2.87 1.114-1.172 1.756-2.578 1.814-4.217.086-.38.086-.76.086-1.171l.004-.015Zm-14.198-11.996.085-2.341c0-.44.176-.643.615-.733.703-.145 1.405-.085 2.108-.057.703.057 1.375.145 2.078.35 1.285.382 2.284 1.115 2.87 2.342.267.558.407 1.169.41 1.787.03.82-.03 1.61-.352 2.4-.497 1.083-1.285 1.786-2.429 1.991-1.144.206-4.391.118-4.888.118-.44 0-.472-.058-.472-.497v-2.757a18.784 18.784 0 0 1-.03-2.577l.005-.026Zm9.511 15.75c-.497 1.317-1.405 2.228-2.693 2.72-.702.264-1.405.429-2.142.382-.908-.03-1.814 0-2.721-.176-1.229-.263-1.786-1.435-1.874-2.284-.146-1.493-.058-3.016-.086-4.127v-3.865c0-.471.058-.615.557-.615l2.753.03 1.874.214c1.318.294 2.518.793 3.456 1.815a4.744 4.744 0 0 1 1.259 2.898c.086 1.024.03 2.02-.351 2.986l-.032.022Z"/><path fill="#47474A" d="m204.93 68.63.76.118c.82.03 1.787-.263 2.078-1.405a2.95 2.95 0 0 0 0-1.671c-.176 0-.264.146-.351.206-.44.351-.937.557-1.464.615-1.053.117-2.107.057-3.131-.322l-1.436-.497a8.461 8.461 0 0 0-3.106-.407c-1.493.118-2.898.615-4.216 1.318-1.405.76-2.399 1.902-2.87 3.455-.264.908-.294 1.842-.176 2.78.294 2.138 1.405 3.632 3.395 4.422.118.03.206.086.322.118.263.145.293.293.058.497l-.733.497-1.757 1.084c-.439.263-.497.471-.351.936.174.547.499 1.034.936 1.405.402.345.857.622 1.348.82.321.146.321.215.03.472l-1.671 1.2c-.557.428-1.114.856-1.581 1.405a2.895 2.895 0 0 0-.703 2.635 4.951 4.951 0 0 0 1.521 2.635 6.21 6.21 0 0 0 2.693 1.463c1.639.471 3.337.497 5.006.175 2.399-.439 4.499-1.5 6.148-3.307 1.142-1.2 1.815-2.605 1.875-4.284a4.112 4.112 0 0 0-3.162-4.274l-1.581-.294-4.831-.428c-.527-.03-1.054-.118-1.493-.381-.557-.352-.703-1.024-.351-1.463.263-.322.585-.528.996-.558l.936-.085a8.483 8.483 0 0 0 4.946-2.254 5.176 5.176 0 0 0 1.493-2.489c.352-1.26.352-2.57.058-3.856-.085-.321-.058-.351.352-.293l.013.012Zm-7.177 14.582c.176.03.351 0 .527 0 1.23.058 2.489.146 3.689.472.392.115.773.262 1.142.439 1.172.642 1.611 1.756 1.463 2.956-.176 1.318-.908 2.254-2.05 2.87-.761.429-1.611.615-2.489.703-.322.03-.615 0-.937 0-1.024.03-2.02-.085-2.986-.497a4.621 4.621 0 0 1-1.726-1.172c-1.024-1.023-1.5-2.898.03-4.421.936-.857 1.992-1.463 3.337-1.35Zm3.338-9.134c-.615 1.55-1.963 2.02-3.308 1.814-1.229-.175-2.138-.848-2.72-1.962-.761-1.493-.964-3.042-.527-4.655.321-1.2 1.054-2.108 2.341-2.313 1.639-.294 3.213.293 4.04 1.932.429.792.615 1.756.615 3.132a6.646 6.646 0 0 1-.439 2.05l-.002.002Zm-36.885-1.992c-.263-1.581-.848-3.016-1.932-4.216-1.611-1.787-3.659-2.57-5.972-2.577-2.021-.03-3.921.557-5.622 1.61a7.628 7.628 0 0 0-3.425 4.48c-.497 1.699-.471 3.428-.086 5.152 1.024 4.627 4.598 6.615 8.869 6.324 1.26-.086 2.459-.497 3.599-1.054 1.699-.793 2.928-2.05 3.777-3.719.672-1.375.964-2.84.936-4.51l-.146-1.492.002.002Zm-4.156 6.5a3.556 3.556 0 0 1-3.016 2.458c-1.285.176-2.489-.145-3.571-.908a6.082 6.082 0 0 1-1.844-2.196c-1.2-2.459-1.406-5.034-.793-7.669a4.387 4.387 0 0 1 1.23-2.138c1.084-.996 2.341-1.23 3.749-.936 1.349.294 2.371 1.024 3.213 2.138.842 1.114 1.23 2.4 1.463 3.749.118.673.118 1.375.146 1.814 0 1.406-.118 2.571-.557 3.69l-.02-.003Zm68.122-6.265c-.214-1.698-.848-3.25-2.05-4.537-1.581-1.726-3.631-2.459-5.912-2.489-1.962-.03-3.777.527-5.446 1.493-1.874 1.114-3.162 2.693-3.659 4.83-.593 2.333-.344 4.8.703 6.967.964 2.05 2.605 3.368 4.773 3.953 2.399.642 4.685.35 6.909-.733 1.932-.936 3.307-2.4 4.098-4.392.471-1.171.642-2.429.672-3.894.03-.264-.03-.733-.085-1.2l-.003.002Zm-4.04 5.885c-.471 1.581-1.463 2.605-3.132 2.84-1.229.176-2.399-.117-3.455-.82-.908-.615-1.551-1.435-2.02-2.4a8.998 8.998 0 0 1-.936-3.219c-.176-1.375-.176-2.72.145-4.098a4.23 4.23 0 0 1 .264-.79c.82-2.05 2.635-2.987 4.773-2.517 1.435.32 2.517 1.114 3.337 2.313.793 1.172 1.172 2.46 1.35 3.856a7.84 7.84 0 0 1 .086 1.639c0 1.142-.086 2.196-.429 3.22l.017-.024Z"/></svg>