<svg xmlns="http://www.w3.org/2000/svg" width="346" height="121" fill="none" viewBox="0 0 346 121"><rect width="344.5" height="118.5" x=".75" y=".828" stroke="#EA2845" stroke-width="1.5" rx="9.25"/><path fill="#EA2845" fill-rule="evenodd" d="M129.195 29c-.443 0-.863.098-1.237.23.805.541 1.254 1.254 1.478 2.071.018.115.046.19.058.3.011.109.034.19.034.287.058 1.398-.362 1.57-.667 2.4a3.398 3.398 0 0 0 .224 3.123c.051.124.115.241.19.351-.604-4.015 2.745-4.62 3.366-5.868.046-1.15-.863-1.824-1.571-2.336a3.508 3.508 0 0 0-1.875-.54V29Zm5.045.903c-.057.363-.017.27-.034.46l-.035.415-.115.38a3.608 3.608 0 0 1-.126.38l-.173.362c-.046.057-.08.126-.127.19l-.097.143-.23.317c-.098.098-.173.207-.288.288-.115.08-.19.19-.299.27-.334.253-.714.443-1.065.69-.115.08-.23.144-.316.23-.086.087-.207.162-.299.254s-.19.19-.288.299a1.54 1.54 0 0 0-.23.316l-.23.334-.173.362-.126.363-.115.403c-.018.057-.018.143-.035.207-.017.063-.017.126-.035.19l-.017.402c-.002.096.004.193.017.288 0 .127.018.253.047.403.028.15.046.253.08.38l.127.38c.034.08.08.16.115.23l-3.648-1.416-1.841-.478-1.001-.23a29.418 29.418 0 0 0-2.888-.425 26.764 26.764 0 0 0-2.923-.161l-2.071.08c-.974.07-1.944.187-2.906.351l-.713.127-1.427.316-.713.19-.691.299-.518.23-.517.253c-.046.018-.081.035-.116.046l-.494.254c-.115.046-.23.114-.317.16-.046.035-.115.058-.144.081l-.414.23c-.144.08-.27.161-.38.23l-.316.23-.345.254-.271.23c-.172.126-.253.207-.333.27l-.346.334-.316.3-.27.287c-.035.034-.081.057-.115.098-.081.097-.173.19-.271.287l-.426.46-.863.823c-.28.25-.576.483-.886.696l-.955.605a9.616 9.616 0 0 1-1 .477c-.335.144-.691.27-1.036.38-.668.144-1.347.414-1.94.46-.126 0-.27.035-.402.046l-.403.098-.38.144c-.126.046-.253.115-.38.172-.126.058-.23.144-.344.23a2.58 2.58 0 0 0-.317.27 1.9 1.9 0 0 0-.316.288l-.27.317c-.081.127-.173.23-.23.362-.058.133-.162.23-.231.363l-.173.414-.143.414-.08.38c-.047.19-.047.38-.059.478-.011.097-.034.207-.034.316 0 .058 0 .144.017.207.017.115.035.207.058.3l.115.287c.046.115.115.207.172.3l.208.287.27.253c.098.098.19.173.3.253.379.334.477.443.966.69.08.047.16.081.253.127.08.23.115.345.144.478.028.132.08.27.126.38l.127.287.23.426.23.334.27.299c.098.098.19.172.3.27l.316.23c.111.079.229.148.351.207.115.058.23.127.363.173.097.046.207.08.316.115.11.035.207.058.27.08-.046.864-.057 1.727.058 1.957.144.316.84-.65 1.542-1.76-.098 1.15-.161 2.381 0 2.76.161.38 1.128-.84 1.956-2.208 11.254-2.601 21.518 5.178 22.611 16.155-.207-1.714-2.319-2.664-3.28-2.428-.477 1.174-1.283 2.681-2.589 3.625.113-1.06.059-2.132-.161-3.176-.345 1.461-1.035 2.82-1.967 3.998a4.428 4.428 0 0 1-3.809-1.714c-.058-.046-.081-.144-.127-.207l-.167-.391a1.638 1.638 0 0 1-.097-.334c-.018-.104-.018-.23-.018-.345v-.23a2.05 2.05 0 0 1 .081-.334l.115-.334c.058-.115.115-.23.19-.334.27-.759.27-1.38-.23-1.743-.098-.057-.19-.115-.299-.16-.058-.018-.144-.047-.208-.058l-.126-.046-.334-.08a1.204 1.204 0 0 0-.333-.047 2.623 2.623 0 0 0-.351-.034c-.081 0-.162.017-.231.017-.126 0-.23.017-.345.046l-.333.057-.334.115-.317.144-.299.161c-3.699 2.417-1.496 8.055 1.036 9.7-.955.173-1.922.38-2.186.587.65.443 1.363.794 2.111 1.151l2.572.76c1.313.281 2.658.382 3.998.299 7.031-.495 12.796-5.84 13.843-12.888l.098.414.144.886c.034.162.046.3.057.426l.035.478.034.517v.254c0 .08.018.172.018.253 0 .08-.018.19-.018.287v.23c0 .116-.017.208-.017.317 0 .058 0 .127-.017.207l-.017.345c-.018.046-.018.098-.018.144l-.046.363c0 .046 0 .097-.017.144l-.058.46v.028l-.097.444-.098.477-.253.978-.161.506-.346.921-.189.46-.231.443c-.017.046-.034.08-.046.115a15.185 15.185 0 0 1-4.493 5.38c-.127.08-.253.172-.38.27-.034.035-.08.046-.115.08l-.345.23.046.099h.017l.668-.098h.017l1.237-.23a2.5 2.5 0 0 0 .345-.08l.23-.047.334-.057.288-.081a30.074 30.074 0 0 0 4.602-1.525 25.43 25.43 0 0 1-9.855 8.05 26.13 26.13 0 0 0 5.414-.938 25.351 25.351 0 0 0 14.999-11.985 25.369 25.369 0 0 1-4.269 10.207 25.074 25.074 0 0 0 4.24-3.521 25.079 25.079 0 0 0 6.674-13.492c.541 2.508.69 5.097.46 7.652 11.461-15.983.955-32.553-3.452-36.92-.057.116-.08.3-.092.495l-.161 1.065-.27 1.047-.38 1.018-.478.967-.575.903-.65.863c-.23.288-.495.54-.748.794l-.46.403-.363.316a8.784 8.784 0 0 1-.886.621l-.938.541-1.001.443c-.337.128-.681.24-1.03.334l-1.064.23a14.48 14.48 0 0 1-1.082.127l-.759.034c-.363 0-.731-.034-1.082-.057a7.946 7.946 0 0 1-1.081-.156 7.58 7.58 0 0 1-1.065-.27h-.017l1.047-.127 1.065-.23 1.035-.334a9.845 9.845 0 0 0 1.001-.443c.327-.158.646-.333.955-.523l.886-.575c.285-.221.556-.46.812-.714a8.68 8.68 0 0 0 .748-.776l.667-.864c.034-.045.057-.115.098-.16l.46-.76.478-.967.379-1.018c.115-.334.19-.69.271-1.036l.161-1.064.057-1.082-.028-.76-.127-1.063-.23-1.065-.345-1.018a10.973 10.973 0 0 0-.443-.978l-.541-.938-.576-.875-.73-.805-.415-.403-2.203-1.553c-.115-.058-.207-.115-.316-.161-.518-.334-1.019-.507-1.508-.668l-.029-.069Z" clip-rule="evenodd"/><path fill="#EA2845" d="M166.008 70.363a5.005 5.005 0 0 1 1.156-.385c.892-.144 1.398-.265 1.542-.363.242-.144.403-.345.483-.53.098-.344.144-1.035.144-2.145v-2.1l.023-1.715-.075-2.56v-1.513c0-1.013-.074-1.858-.241-2.486-.046-.241-.265-.483-.604-.724-.461-.346-1.151-.65-2.29-.967l-.023-1.15.552-.116c.173-.023.823-.195 1.956-.483l1.715-.673.403-.219c.205-.175.423-.337.65-.483a9.93 9.93 0 0 0 1.737-1.76l1.278-.099-.046 2.728c-.024.264-.024.483-.024.65l.024 1.11c1.352-1.15 2.56-1.956 3.67-2.416a10.474 10.474 0 0 1 4.085-.892 7.132 7.132 0 0 1 4.004 1.133c1.128.748 1.899 1.611 2.302 2.59.403.977.529 2.991.529 5.96l-.098 7.917a2.08 2.08 0 0 0 .196.914c.427.196.884.319 1.352.363l1.185.219c.151.228.227.497.219.77l-.023.794-4.753-.345-1.398.046h-1.11l-3.21.242h-.823c-.023-.219-.023-.363-.023-.483l.046-.944c.219-.046.794-.115 1.691-.242.242-.023.507-.097.823-.172.317-.115.506-.265.552-.386.116-.287.196-.794.196-1.57l-.046-3.136.023-2.802c0-3.429-.196-5.552-.575-6.369-.576-1.231-1.542-1.841-2.773-1.841a6.557 6.557 0 0 0-2.802.702 12.012 12.012 0 0 0-3.015 2.1l-.046.403.046 1.518-.023 1.611.098 3.884-.046.604c0 2.63.097 4.125.316 4.465.219.34 1.013.702 2.417 1.11l.074.604c0 .196-.074.484-.172.892l-1.278.023a13.464 13.464 0 0 1-1.593-.144l-2.658-.023-5.598.173a1.257 1.257 0 0 1-.098-.507l.023-.77-.046-.012Zm28.502-11.541c.432-1.381.794-2.29 1.134-2.727a13.476 13.476 0 0 1 2.876-3.107c1.019-.806 1.956-1.231 2.773-1.473a9.672 9.672 0 0 1 2.607-.46 14.722 14.722 0 0 1 3.67.362 6.846 6.846 0 0 1 2.365.99 12.495 12.495 0 0 1 2.169 1.904 7.947 7.947 0 0 1 1.329 2.29c.385 1.01.59 2.078.604 3.159l-2.704-.046c-1.633-.038-3.266-.11-4.896-.22l-1.933-.097-2.606.023h-2.1l-.047.575c0 .864.116 1.761.317 2.728.201.966.529 1.76.943 2.485.41.7.942 1.322 1.571 1.835.576.53 1.277.892 1.933 1.134l1.398.46 2.509-.115a11.987 11.987 0 0 0 2.025-.604 12.706 12.706 0 0 0 2.146-1.3l1.473 1.15c-1.421 1.542-2.923 2.704-4.442 3.452-1.519.748-3.233 1.036-5.178 1.036-1.277 0-2.318-.098-3.135-.345a9.484 9.484 0 0 1-2.923-1.323 10.741 10.741 0 0 1-2.301-2.221c-.691-.863-1.111-1.813-1.422-2.75-.385-1.232-.604-2.221-.604-2.946-.012-1.28.103-2.558.346-3.815l.103-.034Zm14.096-1.036a7.457 7.457 0 0 0-.529-2.606 3.767 3.767 0 0 0-1.594-1.899 3.912 3.912 0 0 0-2.146-.702c-1.151 0-2.054.484-2.946 1.421-.892.938-1.352 2.302-1.473 3.884l5.524.023 1.495-.075 1.013-.075.65.023.006.006Zm9.205 7.03c.35-.079.706-.127 1.065-.143l.506.023.219.242 1.737 2.802c.553.65 1.111 1.185 1.726 1.593.363.242.944.53 1.738.794.55.195 1.13.293 1.714.288a3.742 3.742 0 0 0 2.607-.967c.725-.673 1.15-1.38 1.15-2.146 0-.506-.144-.943-.402-1.3-.259-.357-.823-.725-1.64-1.15-.403-.173-1.421-.461-3.067-.864l-2.807-.794a6.56 6.56 0 0 1-2.026-1.208 5.478 5.478 0 0 1-1.352-1.76c-.402-.921-.575-1.715-.575-2.302 0-1.231.196-2.22.529-3.014a6.68 6.68 0 0 1 1.519-2.077c.46-.46 1.151-.864 2.1-1.232.97-.37 2-.557 3.038-.552a22.31 22.31 0 0 1 4.056.316c1.022.173 2.014.49 2.946.944.115.362.242 1.231.431 2.56l.265 2.388a.926.926 0 0 1-.075.362 4.132 4.132 0 0 1-1.064.196c-.144 0-.386-.023-.702-.046a13.513 13.513 0 0 1-.575-1.013c-.771-1.45-1.571-2.462-2.388-3.038-.817-.575-1.738-.891-2.877-.891-1.139 0-2.054.345-2.802.966a2.419 2.419 0 0 0-.822 1.933c0 .53.287 1.065.863 1.611.575.547 1.542.99 2.945 1.278 2.129.46 3.694.943 4.684 1.398 1.449.673 2.485 1.496 3.066 2.416.581.92.892 1.98.892 3.188 0 1.88-.725 3.452-2.146 4.706-1.421 1.254-3.452 1.858-6.179 1.858a35.137 35.137 0 0 1-2.773-.242c-.673-.074-1.473-.241-2.388-.483-.604-.208-1.2-.442-1.784-.702a1.27 1.27 0 0 1-.385-.345c-.046-.144-.173-.823-.316-2.025l-.403-3.55-.248-.017Zm19.884-11.587c1.899-.794 3.28-1.593 4.125-2.3.846-.709 1.761-2.055 2.727-3.798h1.381c.145.428.219.877.219 1.329l-.023 1.98-.075 1.42.023.553.552.023 2.267-.098 1.813-.046c.096.378.151.766.166 1.156 0 .386-.074.823-.195 1.3-.4.06-.804.093-1.208.098-.115 0-.386 0-.771-.046h-1.255l-.437-.023-1.151.046-.046 9.206.098 3.354c.103.461.301.896.581 1.277.386.178.807.269 1.232.265.431 0 .748-.046.966-.115.219-.07.575-.317 1.065-.702.097-.098.264-.196.46-.346.361.262.686.57.966.915l.098.288a5.868 5.868 0 0 1-2.411 2.1c-1.012.506-2.099.748-3.256.748-1.519 0-2.727-.483-3.671-1.421-.943-.938-1.398-2.44-1.398-4.442l.098-4.246v-6.91l-.748-.023-1.76.023-.317-.074a.693.693 0 0 1-.144-.403l.046-1.15-.017.063Z"/></svg>