<svg xmlns="http://www.w3.org/2000/svg" width="345" height="121" fill="none" viewBox="0 0 345 121"><rect width="343.5" height="118.5" x=".75" y=".828" stroke="#174478" stroke-width="1.5" rx="9.25"/><path fill="#000" d="M134.591 39.4h26.85v2.134h-24.389v16.062h22.935v2.134h-22.935v17.634h24.669v2.134h-27.13V39.4Zm29.256 0h2.852l12.642 17.634L192.263 39.4 209.839 17l-28.875 41.888 14.879 20.61h-2.965l-13.537-18.757-13.593 18.757h-2.908l14.991-20.61L163.847 39.4Zm33.059 2.134V39.4h30.598v2.134h-14.096v37.964h-2.462V41.534h-14.04ZM101 39.4h3.077l42.424 63.484-17.532-23.386-25.396-37.066-.112 37.066H101V39.4Zm126.256 37.32a.87.87 0 0 1-.88-.893.87.87 0 0 1 .88-.893c.509 0 .88.39.88.893 0 .504-.371.893-.88.893Zm2.419-2.35h1.317c.018.714.539 1.193 1.305 1.193.856 0 1.341-.515 1.341-1.48v-6.114h1.341v6.12c0 1.738-1.006 2.74-2.67 2.74-1.563 0-2.634-.972-2.634-2.458Zm7.058-.077h1.329c.113.82.916 1.342 2.071 1.342 1.077 0 1.868-.557 1.868-1.324 0-.66-.503-1.055-1.647-1.325l-1.113-.27c-1.562-.365-2.275-1.12-2.275-2.391 0-1.541 1.257-2.566 3.143-2.566 1.754 0 3.035 1.025 3.113 2.481h-1.305c-.126-.797-.82-1.294-1.826-1.294-1.06 0-1.766.51-1.766 1.288 0 .618.455.972 1.58 1.235l.952.234c1.772.414 2.503 1.133 2.503 2.434 0 1.654-1.281 2.691-3.329 2.691-1.915 0-3.203-.989-3.298-2.535Z"/></svg>