<svg xmlns="http://www.w3.org/2000/svg" width="345" height="120" fill="none" viewBox="0 0 345 120"><rect width="343.5" height="118.5" x=".75" y=".75" stroke="#333" stroke-width="1.5" rx="9.25"/><path fill="#689F63" d="M171.505 99c-.407 0-.812-.109-1.169-.319l-3.724-2.245c-.556-.316-.285-.428-.101-.493.741-.264.892-.324 1.683-.782.083-.048.192-.031.277.02l2.861 1.729c.103.057.25.057.346 0l11.153-6.557a.36.36 0 0 0 .17-.307V76.938a.367.367 0 0 0-.172-.313l-11.149-6.551a.339.339 0 0 0-.344 0l-11.146 6.55a.364.364 0 0 0-.177.31v13.109c0 .125.067.244.173.304l3.054 1.797c1.659.845 2.672-.15 2.672-1.151V78.055a.32.32 0 0 1 .324-.327h1.413c.176 0 .321.142.321.327v12.943c0 2.252-1.206 3.546-3.303 3.546-.645 0-1.153 0-2.571-.71l-2.926-1.718a2.411 2.411 0 0 1-1.17-2.073V76.935c0-.853.447-1.65 1.17-2.07l11.164-6.56a2.408 2.408 0 0 1 2.346 0l11.15 6.563a2.404 2.404 0 0 1 1.17 2.07v13.108a2.41 2.41 0 0 1-1.17 2.07l-11.15 6.56c-.358.21-.763.318-1.176.318"/><path fill="#689F63" d="M174.911 89.987c-4.886 0-5.911-2.29-5.911-4.212 0-.183.144-.328.323-.328h1.443c.159 0 .293.118.319.279.218 1.5.866 2.258 3.821 2.258 2.354 0 3.355-.543 3.355-1.818 0-.733-.285-1.279-3.942-1.644-3.058-.308-4.948-.996-4.948-3.494 0-2.3 1.901-3.671 5.085-3.671 3.576 0 5.348 1.267 5.572 3.99a.33.33 0 0 1-.325.36h-1.451a.322.322 0 0 1-.313-.256c-.349-1.58-1.193-2.084-3.489-2.084-2.569 0-2.868.913-2.868 1.598 0 .83.352 1.073 3.819 1.542 3.433.465 5.063 1.121 5.063 3.585 0 2.484-2.03 3.908-5.569 3.908l.016-.013Zm13.587-13.943h.375c.307 0 .366-.22.366-.348 0-.337-.227-.337-.352-.337h-.386l-.003.685Zm-.456-1.08h.831c.285 0 .844 0 .844.652 0 .454-.285.548-.456.605.333.023.355.245.4.56.022.196.059.536.126.65h-.512c-.014-.114-.092-.742-.092-.776-.034-.14-.081-.209-.252-.209h-.422v.988h-.467v-2.47Zm-.998 1.228c0 1.022.808 1.85 1.801 1.85 1 0 1.808-.845 1.808-1.85a1.824 1.824 0 0 0-1.811-1.838c-.979 0-1.8.802-1.8 1.835l.002.003Zm3.956.006c0 1.21-.97 2.198-2.153 2.198-1.174 0-2.152-.976-2.152-2.198 0-1.245 1.001-2.198 2.152-2.198 1.161 0 2.15.956 2.15 2.198"/><path fill="#333" fill-rule="evenodd" d="M136.826 47.51a1.44 1.44 0 0 0-.723-1.252l-11.968-6.865a1.404 1.404 0 0 0-.658-.19h-.124c-.229.01-.456.071-.661.19l-11.968 6.865c-.446.26-.724.736-.724 1.254l.026 18.493a.71.71 0 0 0 .359.623.686.686 0 0 0 .718 0l7.115-4.063c.449-.267.723-.738.723-1.25v-8.64c0-.516.274-.992.722-1.248l3.029-1.74a1.441 1.441 0 0 1 1.443 0l3.027 1.739c.449.256.724.732.724 1.248v8.639c0 .512.278.986.725 1.25l7.11 4.06a.722.722 0 0 0 1.082-.623l.023-18.49Zm56.476 9.63a.357.357 0 0 1-.18.31l-4.111 2.363a.363.363 0 0 1-.361 0l-4.111-2.362a.357.357 0 0 1-.181-.312v-4.732c0-.129.068-.248.178-.313l4.108-2.366a.367.367 0 0 1 .365 0l4.111 2.366a.36.36 0 0 1 .181.313l.001 4.732Zm1.111-35.049a.724.724 0 0 0-1.076.63v18.313a.504.504 0 0 1-.758.437l-2.998-1.722a1.446 1.446 0 0 0-1.444 0l-11.973 6.89a1.438 1.438 0 0 0-.723 1.244v13.783c0 .515.276.989.723 1.248l11.973 6.894c.447.256.997.256 1.445 0l11.973-6.897c.446-.26.723-.733.723-1.248V27.314c0-.523-.285-1.004-.743-1.26l-7.122-3.963Zm39.868 30.192a1.44 1.44 0 0 0 .719-1.246v-3.34a1.44 1.44 0 0 0-.72-1.247l-11.896-6.886c-.449-.259-1-.259-1.449 0l-11.97 6.889c-.449.259-.723.732-.723 1.248v13.776c0 .519.279.998.729 1.254l11.893 6.759c.438.25.975.254 1.418.008l7.195-3.986a.721.721 0 0 0 .37-.626.721.721 0 0 0-.365-.628l-12.043-6.891a.714.714 0 0 1-.364-.623v-4.321c0-.258.135-.496.361-.625l3.747-2.155a.717.717 0 0 1 .721 0l3.749 2.155a.717.717 0 0 1 .362.623v3.398c0 .256.139.495.362.625.223.127.5.127.723-.003l7.181-4.158Z" clip-rule="evenodd"/><path fill="#689F63" fill-rule="evenodd" d="M221.484 51.9a.273.273 0 0 1 .277 0l2.297 1.332a.28.28 0 0 1 .139.242v2.668a.28.28 0 0 1-.139.242l-2.297 1.333a.273.273 0 0 1-.277 0l-2.296-1.333a.28.28 0 0 1-.141-.242v-2.668c0-.1.051-.192.138-.242l2.299-1.333Z" clip-rule="evenodd"/><path fill="url(#paint0_linear_2184_7353)" d="m181.507 45.525-33.545-16.538-17.2 35.291 33.544 16.54 17.201-35.293Z"/><path fill="url(#paint1_linear_2184_7353)" d="M128 50.059 151.681 82 183 58.94 159.317 27 128 50.059Z"/><path fill="url(#paint2_linear_2184_7353)" d="M143.545 39.598V70.13h25.907V39.598h-25.907Z"/><defs><linearGradient id="paint0_linear_2184_7353" x1="164.724" x2="147.365" y1="37.23" y2="72.44" gradientUnits="userSpaceOnUse"><stop offset=".3" stop-color="#3E863D"/><stop offset=".5" stop-color="#55934F"/><stop offset=".8" stop-color="#5AAD45"/></linearGradient><linearGradient id="paint1_linear_2184_7353" x1="139.983" x2="171.226" y1="66.213" y2="43.047" gradientUnits="userSpaceOnUse"><stop offset=".57" stop-color="#3E863D"/><stop offset=".72" stop-color="#619857"/><stop offset="1" stop-color="#76AC64"/></linearGradient><linearGradient id="paint2_linear_2184_7353" x1="143.554" x2="169.457" y1="54.865" y2="54.865" gradientUnits="userSpaceOnUse"><stop offset=".16" stop-color="#6BBF47"/><stop offset=".38" stop-color="#79B461"/><stop offset=".47" stop-color="#75AC64"/><stop offset=".7" stop-color="#659E5A"/><stop offset=".9" stop-color="#3E863D"/></linearGradient></defs></svg>