<svg xmlns="http://www.w3.org/2000/svg" width="345" height="120" fill="none" viewBox="0 0 345 120"><rect width="343.5" height="118.5" x=".75" y=".75" stroke="#2081E2" stroke-width="1.5" rx="9.25"/><g clip-path="url(#clip0_7813_15126)"><path fill="#2081E2" d="M172 107c25.957 0 47-21.043 47-47s-21.043-47-47-47-47 21.043-47 47 21.043 47 47 47Z"/><path fill="#fff" d="m148.188 61.578.203-.319 12.226-19.127a.424.424 0 0 1 .382-.191.413.413 0 0 1 .351.244c2.043 4.578 3.805 10.27 2.98 13.816-.353 1.458-1.318 3.433-2.405 5.258-.141.266-.295.526-.458.777a.419.419 0 0 1-.348.184h-12.574a.417.417 0 0 1-.357-.642Z"/><path fill="#fff" d="M202.686 65.132v3.027a.436.436 0 0 1-.261.397c-.946.406-4.187 1.893-5.534 3.766-3.438 4.785-6.064 11.628-11.937 11.628h-24.496c-8.682 0-15.718-7.06-15.718-15.771v-.28a.42.42 0 0 1 .42-.42h13.657c.27 0 .468.251.443.517a4.667 4.667 0 0 0 .488 2.622 4.805 4.805 0 0 0 4.307 2.675h6.761v-5.278h-6.684a.432.432 0 0 1-.347-.677c.073-.11.155-.225.241-.357a48.66 48.66 0 0 0 2.435-3.882c.613-1.072 1.207-2.217 1.684-3.365.097-.208.174-.42.251-.628.131-.367.266-.71.363-1.053.096-.29.174-.594.251-.879.227-.976.323-2.009.323-3.08 0-.42-.018-.86-.058-1.28a16.425 16.425 0 0 0-.135-1.377c-.045-.411-.108-.82-.188-1.226a20.503 20.503 0 0 0-.386-1.835l-.053-.231c-.117-.42-.213-.821-.348-1.241a46.757 46.757 0 0 0-1.285-3.805c-.169-.479-.362-.938-.555-1.396-.284-.691-.575-1.318-.84-1.912-.135-.271-.251-.517-.367-.768a24.268 24.268 0 0 0-.401-.84c-.097-.207-.208-.401-.285-.595l-.826-1.525a.268.268 0 0 1 .305-.391l5.167 1.4h.014c.009 0 .015.005.019.005l.681.188.748.212.276.077v-3.07c0-1.483 1.188-2.685 2.655-2.685.734 0 1.401.299 1.879.787.478.488.778 1.154.778 1.898v4.558l.55.155a.451.451 0 0 1 .126.063l.574.434c.194.154.401.343.652.536.498.401 1.091.917 1.743 1.511a9.8 9.8 0 0 1 .498.459c.936.861 1.83 1.767 2.679 2.714.252.285.498.574.749.879.251.309.517.613.749.917.304.406.632.826.917 1.265.136.208.29.42.42.628.367.555.69 1.13 1 1.704.13.266.266.556.381.84.343.769.613 1.552.787 2.333.054.17.092.352.111.517v.038c.058.233.078.479.097.73.08.805.034 1.618-.136 2.41a8.63 8.63 0 0 1-.284 1.009c-.116.329-.232.67-.382.994a13.452 13.452 0 0 1-1.038 1.97 11.67 11.67 0 0 1-.44.71c-.169.246-.342.479-.497.705-.212.29-.439.594-.671.865-.207.285-.42.57-.652.82-.31.371-.629.735-.956 1.091-.193.227-.401.46-.613.667-.207.232-.421.44-.613.633a25.38 25.38 0 0 1-.821.782l-.531.488a.433.433 0 0 1-.285.106h-4.115v5.278h5.176a4.84 4.84 0 0 0 3.148-1.164c.305-.266 1.632-1.415 3.202-3.148a.401.401 0 0 1 .198-.12l14.298-4.135a.418.418 0 0 1 .491.219.423.423 0 0 1 .046.187Z"/></g><defs><clipPath id="clip0_7813_15126"><path fill="#fff" d="M125 13h94v94h-94z"/></clipPath></defs></svg>