<svg xmlns="http://www.w3.org/2000/svg" width="345" height="120" fill="none" viewBox="0 0 345 120"><rect width="343.5" height="118.5" x=".75" y=".75" stroke="#000" stroke-width="1.5" rx="9.25"/><path fill="#000" d="M125.247 69.97c4.41 0 7.703-.813 9.787-2.416 2.061-1.588 3.484-4.337 4.23-8.172.696-3.585.431-6.088-.787-7.44-1.246-1.379-3.938-2.078-8.004-2.078h-7.048l-3.908 20.106h5.73Zm-23.055 24.768a1.096 1.096 0 0 1-1.076-1.306l10.356-53.283c.1-.515.552-.887 1.077-.887h22.32c7.014 0 12.236 1.904 15.517 5.661 3.3 3.777 4.319 9.057 3.028 15.691-.525 2.704-1.427 5.214-2.683 7.462-1.257 2.25-2.919 4.332-4.94 6.189-2.418 2.263-5.156 3.905-8.129 4.87-2.925.954-6.683 1.437-11.167 1.437h-9.038l-2.581 13.279c-.1.515-.551.887-1.076.887h-11.608Z"/><path fill="#fff" d="M124.33 50.961h6.144c4.907 0 6.611 1.077 7.19 1.718.961 1.066 1.142 3.312.525 6.496-.694 3.564-1.98 6.091-3.823 7.51-1.887 1.453-4.955 2.19-9.118 2.19h-4.4l3.482-17.914Zm10.54-12.795h-22.321c-1.05 0-1.952.744-2.153 1.775L100.04 93.224a2.194 2.194 0 0 0 2.153 2.612H113.8a2.194 2.194 0 0 0 2.154-1.775l2.408-12.391h8.134c4.6 0 8.472-.502 11.508-1.49 3.122-1.015 5.995-2.735 8.538-5.113 2.102-1.935 3.835-4.106 5.147-6.455 1.313-2.35 2.256-4.97 2.803-7.787 1.358-6.985.255-12.577-3.279-16.622-3.499-4.006-8.998-6.037-16.343-6.037Zm-16.683 32.902h7.061c4.679 0 8.165-.881 10.456-2.645 2.29-1.763 3.835-4.706 4.638-8.83.768-3.96.418-6.755-1.049-8.383-1.47-1.628-4.409-2.442-8.819-2.442h-7.952l-4.335 22.3Zm16.683-30.709c6.714 0 11.613 1.762 14.692 5.287 3.078 3.524 4.005 8.444 2.777 14.76-.506 2.602-1.361 4.98-2.565 7.136-1.205 2.156-2.779 4.129-4.724 5.916-2.317 2.17-4.892 3.715-7.725 4.636-2.834.923-6.442 1.382-10.829 1.382h-9.942L113.8 93.642h-11.607l10.356-53.283h22.321Z"/><path fill="#000" d="M180.028 80.572a1.096 1.096 0 0 1-1.076-1.306l4.581-23.575c.436-2.242.328-3.852-.303-4.532-.386-.415-1.545-1.113-4.974-1.113h-8.299l-5.76 29.639c-.1.515-.552.887-1.077.887h-11.515a1.098 1.098 0 0 1-1.077-1.306l10.356-53.283c.1-.515.552-.887 1.077-.887h11.515a1.098 1.098 0 0 1 1.077 1.306l-2.499 12.86h8.928c6.802 0 11.414 1.199 14.1 3.666 2.738 2.517 3.593 6.54 2.54 11.961l-4.818 24.796a1.098 1.098 0 0 1-1.077.887h-11.699Z"/><path fill="#fff" d="M173.478 24h-11.516c-1.05 0-1.953.744-2.153 1.775l-10.357 53.283a2.192 2.192 0 0 0 2.154 2.612h11.515c1.05 0 1.953-.744 2.154-1.775l5.587-28.75h7.395c3.423 0 4.141.73 4.17.762.208.223.481 1.258.03 3.575l-4.581 23.576a2.192 2.192 0 0 0 2.153 2.612h11.699c1.05 0 1.953-.744 2.153-1.775l4.818-24.795c1.131-5.82.164-10.187-2.874-12.978-2.898-2.662-7.753-3.956-14.842-3.956h-7.598l2.246-11.554A2.195 2.195 0 0 0 173.478 24Zm0 2.193-2.754 14.166h10.259c6.455 0 10.908 1.127 13.358 3.378 2.451 2.252 3.185 5.9 2.205 10.944l-4.818 24.795h-11.699l4.582-23.575c.521-2.682.329-4.511-.576-5.487-.905-.975-2.832-1.463-5.778-1.463h-9.204l-5.932 30.525h-11.515l10.356-53.283h11.516Z"/><path fill="#000" d="M215.842 69.97c4.411 0 7.704-.813 9.787-2.416 2.061-1.587 3.485-4.337 4.231-8.172.696-3.585.431-6.088-.787-7.44-1.246-1.379-3.939-2.078-8.004-2.078h-7.049l-3.907 20.106h5.729Zm-23.054 24.768a1.096 1.096 0 0 1-1.076-1.306l10.356-53.283c.1-.515.551-.887 1.077-.887h22.319c7.015 0 12.236 1.904 15.518 5.661 3.3 3.777 4.318 9.056 3.028 15.691-.525 2.704-1.428 5.214-2.684 7.462-1.257 2.25-2.918 4.332-4.939 6.189-2.419 2.263-5.156 3.905-8.129 4.87-2.926.954-6.683 1.437-11.168 1.437h-9.038l-2.58 13.279c-.1.515-.551.887-1.077.887h-11.607Z"/><path fill="#fff" d="M214.925 50.961h6.145c4.906 0 6.611 1.077 7.19 1.718.961 1.066 1.142 3.312.524 6.495-.694 3.565-1.98 6.092-3.823 7.511-1.887 1.453-4.955 2.19-9.118 2.19h-4.399l3.481-17.914Zm10.54-12.795h-22.32c-1.05 0-1.953.744-2.153 1.775l-10.356 53.283a2.195 2.195 0 0 0 2.153 2.612h11.607c1.05 0 1.953-.744 2.153-1.775l2.408-12.391h8.134c4.6 0 8.472-.502 11.508-1.49 3.123-1.015 5.996-2.736 8.539-5.114 2.102-1.934 3.834-4.105 5.146-6.454 1.313-2.35 2.256-4.97 2.804-7.787 1.358-6.985.254-12.578-3.279-16.622-3.5-4.006-8.998-6.037-16.344-6.037Zm-16.682 32.902h7.06c4.68 0 8.166-.881 10.456-2.645 2.291-1.763 3.836-4.706 4.638-8.83.769-3.96.419-6.755-1.049-8.383-1.47-1.628-4.409-2.442-8.818-2.442h-7.953l-4.334 22.3Zm16.682-30.709c6.715 0 11.613 1.762 14.692 5.287 3.079 3.524 4.006 8.444 2.777 14.76-.505 2.602-1.36 4.98-2.564 7.136-1.206 2.156-2.779 4.129-4.724 5.916-2.318 2.17-4.893 3.715-7.726 4.636-2.833.923-6.442 1.382-10.829 1.382h-9.942l-2.753 14.166h-11.607l10.356-53.283h22.32Z"/></svg>