<svg xmlns="http://www.w3.org/2000/svg" width="345" height="121" fill="none" viewBox="0 0 345 121"><path stroke="#417BA2" stroke-width="1.5" d="M.75 10.078A9.25 9.25 0 0 1 10 .828h325a9.25 9.25 0 0 1 9.25 9.25v100a9.25 9.25 0 0 1-9.25 9.25H10a9.25 9.25 0 0 1-9.25-9.25v-100Z"/><path fill="#231F20" d="M86.198 85.63h-9.7v-9.756h10.228c3.743 0 5.616 1.672 5.616 4.954 0 3.202-2.048 4.804-6.142 4.804m6.973-9.871c-1.329-1.19-3.19-1.784-5.58-1.784l-13.894.074v23.34h2.799l-.026-9.936H86.81c2.592 0 4.633-.595 6.121-1.784 1.489-1.19 2.234-2.843 2.234-4.954 0-2.111-.666-3.765-1.994-4.955l.002-.001Zm18.113 16.732a4.754 4.754 0 0 1-1.329 1.985c-1.254 1.226-3.166 1.834-5.761 1.834-2.323 0-4.088-.595-5.352-1.784-1.263-1.19-1.867-2.782-1.867-4.776 0-1.04.163-1.96.488-2.765a5.427 5.427 0 0 1 1.416-2.037c1.286-1.17 3.059-1.76 5.315-1.76 5.018 0 7.495 2.187 7.495 6.56 0 1.04-.143 1.951-.427 2.74m.507-8.61c-1.706-1.556-4.232-2.334-7.577-2.334-3.159 0-5.602.795-7.325 2.384-1.555 1.438-2.332 3.378-2.332 5.82 0 2.425.802 4.382 2.408 5.872a8.044 8.044 0 0 0 3.098 1.744c1.178.358 2.564.557 4.151.557 3.345 0 5.862-.77 7.62-2.308 1.555-1.405 2.332-3.352 2.332-5.844 0-2.51-.786-4.466-2.36-5.873l-.015-.018Zm21.185 9.286c0 3.159-2.815 4.713-8.444 4.713-1.721 0-3.171-.112-4.349-.328-1.178-.215-2.133-.581-2.869-1.085a4.296 4.296 0 0 1-1.353-1.486c-.335-.6-.552-1.394-.65-2.333l2.601-.024c0 1.236.459 2.146 1.375 2.732.985.702 2.727 1.053 5.228 1.053 3.934 0 5.902-.984 5.902-2.958 0-1.152-.66-1.946-1.979-2.379-.268-.083-1.858-.304-4.776-.663-2.918-.359-4.731-.682-5.451-.966-1.553-.62-2.33-1.729-2.33-3.334a3.753 3.753 0 0 1 2.081-3.51c.688-.317 1.543-.564 2.572-.74 1.03-.177 2.221-.264 3.576-.264 5.419 0 8.128 1.7 8.128 5.101h-2.49c0-2.39-1.905-3.587-5.714-3.587-1.939 0-3.383.242-4.336.744-.953.501-1.431 1.226-1.431 2.23 0 .936.643 1.613 1.929 2.03.753.218 2.481.47 5.189.754 2.423.217 4.084.525 4.987.929 1.721.669 2.602 1.802 2.602 3.408l.002-.037Zm10.288 4.274-1.065.149-.665.05c-1.706 0-2.937-.247-3.689-.744-.753-.496-1.115-1.36-1.115-2.601V83.646h-3.104v-1.567h3.085l.024-5.032h2.388v5.032h4.159v1.593l-4.159-.026v10.363c0 .772.186 1.305.614 1.599.427.293 1.141.44 2.192.44.149.019.316.011.502-.019s.459-.093.827-.19l.026 1.599-.02.002Zm16.515-3.553a7.083 7.083 0 0 1-2.23 1.228c-.837.284-1.796.428-2.881.428-4.995 0-7.489-2.045-7.489-6.189 0-1.92.639-3.423 1.914-4.508s3.078-1.628 5.399-1.628c2.337 0 4.112.546 5.324 1.641 1.211 1.095 1.817 2.559 1.817 4.397 0 2.003-.619 3.53-1.854 4.635m4.242-11.82h-2.388l-.026 2.634c-1.052-1.069-1.802-1.747-2.256-2.03-1.338-.734-3.066-1.102-5.188-1.102-3.109 0-5.482.71-7.118 2.13-1.553 1.3-2.33 3.19-2.33 5.662 0 1.22.197 2.31.589 3.271a6.49 6.49 0 0 0 1.719 2.442c1.641 1.37 3.958 2.055 6.954 2.055 3.598 0 6.132-.985 7.656-2.973v2.726c0 1.738-.548 3.085-1.643 4.036-1.094.952-2.895 1.431-5.402 1.431-2.356 0-4.036-.325-5.017-.973-.753-.498-1.271-1.364-1.554-2.596h-2.443c.267 1.718.994 2.964 2.181 3.731 1.372.885 3.687 1.327 6.947 1.327 6.236 0 9.355-2.317 9.355-6.954V82.053l-.036.019Zm12.916 1.552a12.49 12.49 0 0 0-2.004-.175c-3.924 0-5.887 2.152-5.887 6.458v7.486h-2.36l-.026-15.319 2.388.025v2.731h.125c.401-1.078 1.035-1.895 1.904-2.449.952-.557 2.372-.808 4.26-.808h1.603v2.05l-.003.001Zm2.222 5.14c.301-1.74.978-3.088 2.029-4.043a7.208 7.208 0 0 1 2.331-1.245c.868-.28 1.847-.415 2.932-.415 2.123 0 3.854.582 5.2 1.747 1.345 1.165 2.035 2.483 2.035 3.958h-14.508M193.9 84.04a7.656 7.656 0 0 0-3.111-1.86c-1.238-.403-2.683-.604-4.339-.604-3.094 0-5.493.72-7.199 2.156-1.706 1.436-2.559 3.395-2.559 5.872s.817 4.46 2.456 5.895c1.771 1.605 4.271 2.408 7.499 2.408 1.286 0 2.477-.148 3.572-.436 1.094-.288 2.051-.707 2.871-1.236 1.438-1.033 2.347-2.304 2.731-3.82h-2.601c-.887 2.6-3.091 3.928-6.616 3.928-2.49 0-4.404-.64-5.761-1.922-1.152-1.115-1.728-2.52-1.728-4.267h17.022c0-2.598-.743-4.636-2.282-6.132l.045.018Z"/><path fill="#367FAF" d="M221.411 91.134c0 4.547-3.668 6.82-11.001 6.82-4.395 0-7.605-.78-9.626-2.351-1.673-1.288-2.481-3.252-2.481-5.891h2.973c0 4.246 3.048 6.368 9.152 6.368 2.925 0 5.042-.434 6.345-1.3 1.104-.768 1.672-1.97 1.672-3.606 0-1.62-.752-2.755-2.258-3.408-.854-.371-2.936-.793-6.244-1.328-4.162-.636-6.862-1.27-8.098-1.903-1.788-.935-2.684-2.522-2.684-4.761 0-2.087.744-3.643 2.282-4.661 1.636-1.119 4.447-1.678 8.426-1.678 7.192 0 10.784 2.388 10.784 7.164h-2.996c0-3.578-2.67-5.365-7.991-5.365-2.676 0-4.634.36-5.872 1.078-1.171.769-1.756 1.895-1.756 3.386 0 1.555.753 2.65 2.258 3.285.799.368 3.159.877 7.073 1.531 3.679.552 6.16 1.195 7.433 1.933 1.756.903 2.633 2.466 2.633 4.69l-.024-.003Zm23.987 2.323a11.515 11.515 0 0 1-3.738 1.99c-1.391.442-2.946.663-4.669.663-3.53 0-6.355-.929-8.522-2.843s-3.252-4.417-3.252-7.57c0-3.29 1.074-5.849 3.224-7.685 2.15-1.836 5.018-2.754 8.549-2.754 3.597 0 6.426.959 8.483 2.88a8.81 8.81 0 0 1 2.41 3.28c.52 1.236.781 2.676.781 4.28 0 3.27-1.089 5.858-3.264 7.76m1.571 1.548c1.538-1.085 2.676-2.415 3.413-3.945.738-1.53 1.106-3.345 1.106-5.348 0-3.624-1.204-6.53-3.613-8.734-1.287-1.203-2.843-2.097-4.645-2.68-1.803-.584-3.903-.877-6.244-.877-4.548 0-8.118 1.102-10.71 3.308-2.592 2.206-3.888 5.194-3.888 8.968 0 3.674 1.307 6.638 3.903 8.892 2.596 2.254 6.188 3.382 10.719 3.382 1.771 0 3.317-.12 4.638-.358 1.321-.238 2.44-.608 3.36-1.104l4.363 3.023 1.822-1.672-4.224-2.866v.011Zm26.63 2.385h-20.178V74.022l2.774-.05v21.464h17.431l-.026 1.95-.001.005Z"/><path fill="#231F20" d="M186.279 55.207c.366-3.047.257-3.493 2.528-2.999l.557.05c1.747.08 4.027-.279 5.371-.903 2.886-1.338 4.597-3.575 1.752-2.988-6.493 1.338-6.939-.859-6.939-.859 6.857-10.172 9.719-23.086 7.248-26.245-6.746-8.623-18.428-4.544-18.621-4.438l-.061.012a23.011 23.011 0 0 0-4.33-.452c-2.936-.048-5.166.77-6.876 2.053 0 0-20.836-8.585-19.884 10.797.204 4.122 5.909 31.194 12.711 23.018 2.486-2.992 4.887-5.52 4.887-5.52 1.193.794 2.602 1.197 4.12 1.052l.115-.098c-.034.388-.019.779.047 1.163-1.753 1.957-1.238 2.304-4.739 3.023-3.544.73-1.462 2.032-.102 2.372 1.648.412 5.463.996 8.037-2.611l-.102.412c.688.55.641 3.953.738 6.384.096 2.43.26 4.701.756 6.04.496 1.337 1.078 4.783 5.687 3.796 3.846-.825 6.79-2.01 7.057-13.051"/><path stroke="#231F20" stroke-width="2.598" d="M186.279 55.207c.366-3.047.257-3.493 2.528-2.999l.557.05c1.747.08 4.027-.279 5.371-.903 2.886-1.338 4.597-3.575 1.752-2.988-6.493 1.338-6.939-.859-6.939-.859 6.857-10.172 9.719-23.086 7.248-26.245-6.746-8.623-18.428-4.544-18.621-4.438l-.061.012a23.011 23.011 0 0 0-4.33-.452c-2.936-.048-5.166.77-6.876 2.053 0 0-20.836-8.585-19.884 10.797.204 4.122 5.909 31.194 12.711 23.018 2.486-2.992 4.887-5.52 4.887-5.52 1.193.794 2.602 1.197 4.12 1.052l.115-.098c-.034.388-.019.779.047 1.163-1.753 1.957-1.238 2.304-4.739 3.023-3.544.73-1.462 2.032-.102 2.372 1.648.412 5.463.996 8.037-2.611l-.102.412c.688.55.641 3.953.738 6.384.096 2.43.26 4.701.756 6.04.496 1.337 1.078 4.783 5.687 3.796 3.846-.825 6.79-2.01 7.057-13.051"/><path fill="#417BA2" d="M196.503 48.369c-6.493 1.338-6.939-.859-6.939-.859 6.857-10.172 9.719-23.086 7.247-26.247-6.746-8.623-18.427-4.544-18.62-4.438l-.064.012c-1.282-.266-2.718-.428-4.33-.452-2.936-.048-5.166.77-6.875 2.053 0 0-20.836-8.585-19.885 10.797.205 4.126 5.91 31.194 12.711 23.018 2.487-2.992 4.888-5.52 4.888-5.52 1.193.794 2.62 1.197 4.118 1.052l.117-.098c-.037.371-.019.734.046 1.163-1.752 1.957-1.237 2.304-4.738 3.023-3.544.73-1.463 2.032-.102 2.372 1.648.412 5.463.996 8.037-2.611l-.102.412c.687.55 1.17 3.578 1.087 6.319-.084 2.74-.134 4.627.409 6.099.542 1.472 1.077 4.783 5.686 3.796 3.847-.825 5.843-2.962 6.12-6.526.197-2.535.643-2.16.669-4.423l.356-1.072c.413-3.438.065-4.544 2.435-4.027l.557.05c1.747.08 4.029-.279 5.371-.903 2.886-1.338 4.597-3.576 1.752-2.989l.049-.001Z"/><path stroke="#fff" stroke-linecap="round" stroke-linejoin="round" stroke-width=".866" d="M172.425 50.337c-.178 6.392.045 12.828.669 14.393.625 1.564 1.964 4.608 6.571 3.62 3.847-.825 5.248-2.422 5.854-5.947l1.422-11.267m-20.016-32.842S146.074 9.77 147.04 29.15c.186 4.126 5.91 31.196 12.711 23.02 2.487-2.974 4.734-5.334 4.734-5.334m13.682-30.098c-.743.227 11.596-4.503 18.599 4.46 2.471 3.16-.372 16.075-7.248 26.247"/><path stroke="#fff" stroke-linecap="round" stroke-linejoin="bevel" stroke-width=".866" d="M189.517 47.428s.446 2.198 6.941.859c2.843-.588 1.115 1.648-1.753 2.988-2.367 1.096-7.675 1.38-7.764-.138-.223-3.92 2.795-2.728 2.576-3.709Zm0 0c-.197-.884-1.546-1.752-2.438-3.915-.781-1.89-10.686-16.376 2.75-14.224.492-.102-3.505-12.78-16.078-12.986-12.574-.207-12.158 15.461-12.158 15.461"/><path stroke="#fff" stroke-linejoin="round" stroke-width=".866" d="M168.905 48.766c-1.752 1.957-1.237 2.305-4.738 3.024-3.544.73-1.463 2.03-.103 2.37 1.649.414 5.464.997 8.038-2.61.784-1.096-.004-2.85-1.082-3.299-.52-.215-1.217-.483-2.111.515h-.004Z"/><path stroke="#fff" stroke-linecap="round" stroke-linejoin="round" stroke-width=".866" d="M168.79 48.733c-.176-1.153.379-2.52.972-4.126.892-2.405 2.974-4.81 1.307-12.436-1.227-5.683-9.474-1.184-9.478-.412-.004.77.372 3.906-.137 7.557-.669 4.765 3.029 8.796 7.29 8.381"/><path fill="#fff" stroke="#fff" stroke-width=".289" d="M166.828 31.646c-.037.264.483.966 1.158 1.06.674.092 1.254-.456 1.289-.718.036-.262-.483-.554-1.159-.65-.677-.097-1.255.042-1.29.306l.002.002Z"/><path fill="#fff" stroke="#fff" stroke-width=".144" d="M187.408 31.11c.037.263-.483.966-1.158 1.059-.674.093-1.254-.456-1.291-.718-.037-.262.483-.553 1.16-.646.676-.093 1.254.042 1.291.306l-.002-.002Z"/><path stroke="#fff" stroke-linecap="round" stroke-linejoin="round" stroke-width=".866" d="M189.825 29.29c.111 2.062-.446 3.47-.515 5.667-.104 3.196 1.524 6.852-.929 10.513"/></svg>