<svg xmlns="http://www.w3.org/2000/svg" width="345" height="121" fill="none" viewBox="0 0 345 121"><path stroke="#282828" stroke-width="1.5" d="M.75 10.078A9.25 9.25 0 0 1 10 .828h325a9.25 9.25 0 0 1 9.25 9.25v100a9.25 9.25 0 0 1-9.25 9.25H10a9.25 9.25 0 0 1-9.25-9.25v-100Z"/><g clip-path="url(#clip0_7812_14662)"><path fill="#090A15" fill-rule="evenodd" d="M84.412 70.335a2.65 2.65 0 0 1-.021-2.804l19.897-32.456c1.106-1.805 3.778-1.647 4.665.276l18.177 39.43a2.65 2.65 0 0 1-1.645 3.647L97.209 86.91a2.65 2.65 0 0 1-2.999-1.12l-9.798-15.456Zm22.171-25.77c.192-.954 1.5-1.092 1.887-.198l12.538 29.012a.995.995 0 0 1-.628 1.346l-19.536 5.832a.994.994 0 0 1-1.259-1.148l6.998-34.844Zm72.675 29.953h5.554v-20.36h-5.554v20.36Zm-.237-25.622c0-1.809 1.009-2.713 3.024-2.713s3.023.904 3.023 2.713c0 .862-.252 1.533-.756 2.012-.504.48-1.26.72-2.267.72-2.015 0-3.024-.911-3.024-2.732Zm76.208 16.19-2.15.072c-1.614.05-2.816.341-3.605.875-.79.534-1.184 1.347-1.184 2.44 0 1.566.898 2.35 2.695 2.35 1.287 0 2.316-.37 3.087-1.112.771-.74 1.157-1.723 1.157-2.95v-1.675Zm1.639 9.433-1.075-2.768h-.146c-.935 1.178-1.897 1.995-2.887 2.45-.989.455-2.279.682-3.869.682-1.955 0-3.493-.558-4.617-1.675-1.122-1.116-1.684-2.707-1.684-4.771 0-2.16.756-3.754 2.267-4.78 1.512-1.026 3.791-1.594 6.839-1.703l3.533-.11v-.892c0-2.064-1.057-3.096-3.169-3.096-1.627 0-3.54.491-5.737 1.475l-1.839-3.751c2.343-1.226 4.942-1.84 7.794-1.84 2.732 0 4.826.595 6.283 1.785 1.457 1.19 2.185 3 2.185 5.427v13.567h-3.878Zm-30.496 0h-5.555V62.627c0-1.469-.246-2.57-.737-3.305-.492-.734-1.266-1.102-2.322-1.102-1.42 0-2.452.523-3.096 1.566-.644 1.045-.965 2.763-.965 5.154v9.58h-5.555V54.158h4.244l.746 2.604h.31c.546-.934 1.336-1.666 2.367-2.194 1.032-.528 2.216-.792 3.552-.792 3.047 0 5.111.995 6.192 2.986h.491c.546-.947 1.351-1.681 2.413-2.203 1.063-.522 2.261-.783 3.597-.783 2.306 0 4.052.592 5.235 1.776 1.184 1.183 1.776 3.08 1.776 5.69v13.276h-5.573V62.627c0-1.469-.246-2.57-.737-3.305-.492-.734-1.266-1.102-2.322-1.102-1.36 0-2.376.486-3.051 1.457-.673.972-1.01 2.513-1.01 4.625V74.52Zm-24.181-1.275c1.451-1.092 2.177-2.682 2.177-4.771 0-1.007-.176-1.876-.528-2.604-.353-.729-.899-1.372-1.639-1.93-.74-.559-1.906-1.16-3.497-1.803-1.785-.717-2.941-1.257-3.469-1.621-.528-.364-.793-.795-.793-1.293 0-.886.82-1.33 2.459-1.33.922 0 1.827.14 2.713.419.886.28 1.84.637 2.86 1.075l1.675-4.007c-2.319-1.068-4.704-1.602-7.157-1.602-2.574 0-4.562.494-5.964 1.484-1.403.99-2.104 2.389-2.104 4.197 0 1.057.168 1.947.502 2.669.333.722.867 1.362 1.602 1.92.734.56 1.885 1.166 3.451 1.822 1.092.461 1.967.865 2.622 1.211.656.346 1.117.656 1.385.929.267.273.4.628.4 1.065 0 1.165-1.008 1.748-3.023 1.748-.983 0-2.121-.164-3.414-.491-1.294-.328-2.456-.735-3.488-1.22V73.7c.911.388 1.888.682 2.932.883 1.045.2 2.306.3 3.788.3 2.889 0 5.059-.546 6.51-1.639Zm-25.88-19.304c-.498-.109-1.123-.163-1.876-.163a6.304 6.304 0 0 0-3.505 1.047 7.654 7.654 0 0 0-2.559 2.759h-.273l-.82-3.424h-4.206v20.36h5.554V64.157c0-1.639.495-2.914 1.484-3.825.99-.91 2.37-1.366 4.143-1.366.644 0 1.19.062 1.64.182l.418-5.208Zm-29.588 6.483h1.858c1.736 0 3.034-.343 3.897-1.029.862-.685 1.293-1.684 1.293-2.995 0-1.323-.362-2.3-1.084-2.932-.723-.632-1.854-.947-3.396-.947h-2.568v7.903Zm12.748-4.224c0 2.865-.896 5.056-2.687 6.573-1.79 1.519-4.337 2.277-7.639 2.277h-2.422v9.47h-5.645V47.894h8.504c3.23 0 5.685.695 7.367 2.086 1.681 1.39 2.522 3.463 2.522 6.219Z" clip-rule="evenodd"/></g><defs><clipPath id="clip0_7812_14662"><path fill="#fff" d="M84 33h176.786v55H84z"/></clipPath></defs></svg>