<svg xmlns="http://www.w3.org/2000/svg" width="345" height="435" fill="none" viewBox="0 0 345 435"><g clip-path="url(#clip0_1302_3302)"><path fill="url(#paint0_linear_1302_3302)" d="M230.767 361.212c0 2.776-2.017 5.694-5.972 7.981l-57.164 54.624c-7.232 4.18-18.167 4.637-24.438 1.009l-104.007-60.46c-3.025-1.75-4.396-4.132-4.191-6.593a2.962 2.962 0 0 0-.032.426v7.871c.048 2.256 1.434 4.401 4.223 6.025l104.007 60.476c6.271 3.628 17.206 3.17 24.438-1.01l57.164-54.623c4.018-2.319 6.035-5.3 5.988-8.108-.016-.489.063-5.678-.016-7.618Z" opacity=".2"/><g fill="#000" opacity=".2"><path d="m36.98 338.908 91.276-35.143c5.137-2.965 11.613-4.574 18.104-4.496 2.789.032 5.452.395 7.894 1.01 2.332.584 5.042 1.704 6.933 2.808l67.469 39.575c.063.032 2.001 1.183 2.048 1.215 5.341 3.202 7.784 8.218 7.484 13.628-.299 5.521-4.459 11.672-10.446 15.127l-56.14 53.629c-5.042 2.919-11.36 4.512-17.757 4.527-5.562 0-10.636-1.198-14.622-3.501L35.215 366.811c-5.246-3.028-8.224-7.792-8.193-13.076.032-5.789 3.64-11.183 9.958-14.827Z" opacity=".091"/><path d="m37.374 339.586 91.276-35.143c5.121-2.965 11.613-4.511 18.026-4.385 2.788.063 5.404.505 7.815 1.136 2.095.552 5.136 1.893 6.838 2.886l67.106 39.355c.126.079 1.922 1.152 2.017 1.23 5.231 3.25 6.964 8.234 6.381 13.534-.551 4.953-5.152 11.594-10.525 14.701l-55.1 52.652c-4.916 2.839-11.092 4.401-17.316 4.416-5.42.016-10.383-1.151-14.26-3.407L35.625 366.102c-5.026-2.903-7.846-7.445-7.8-12.446.048-5.441 3.499-10.568 9.55-14.07Z" opacity=".182"/><path d="m37.768 340.28 91.276-35.143c5.105-2.949 11.613-4.448 17.947-4.259 2.773.095 5.373.6 7.752 1.262 1.843.505 5.247 2.082 6.759 2.95l66.728 39.134c.189.11 1.859 1.104 2.001 1.246 5.105 3.312 6.161 8.186 5.263 13.455-.741 4.369-5.846 11.514-10.62 14.275l-54.076 51.658c-4.805 2.776-10.824 4.29-16.875 4.306-5.278.016-10.131-1.104-13.912-3.297L36.003 365.392c-4.821-2.792-7.468-7.082-7.39-11.815.08-5.11 3.372-9.953 9.155-13.297Z" opacity=".273"/><path d="m38.162 340.975 91.276-35.144c5.074-2.934 11.597-4.385 17.852-4.132 2.757.126 5.326.694 7.673 1.372 1.608.473 5.357 2.271 6.681 3.028l66.366 38.929c.252.142 1.796 1.073 1.985 1.246 4.995 3.36 6.491 8.502 4.16 13.376 0 3.865-6.524 11.42-10.715 13.849l-53.035 50.68c-4.68 2.698-10.557 4.18-16.434 4.196-5.137.016-9.879-1.057-13.551-3.186L36.413 364.714c-4.6-2.666-7.09-6.736-6.996-11.184.11-4.795 3.23-9.369 8.745-12.555Z" opacity=".364"/><path d="m38.572 341.653 91.276-35.143c5.058-2.919 11.597-4.322 17.773-4.007 2.742.158 5.294.805 7.595 1.499 1.37.425 5.467 2.46 6.601 3.107l66.004 38.708c.315.189 1.717 1.041 1.969 1.262 4.869 3.407 5.972 8.581 3.057 13.297 0 3.312-7.217 11.341-10.809 13.423l-52.012 49.686c-4.553 2.635-10.304 4.07-15.992 4.101-4.995.032-9.627-1.009-13.204-3.075L36.823 364.035c-4.38-2.539-6.728-6.372-6.587-10.552.11-4.496 3.073-8.802 8.336-11.83Z" opacity=".455"/><path d="m38.965 342.347 91.277-35.143c5.026-2.903 11.596-4.259 17.694-3.881 2.742.19 5.247.899 7.532 1.625 1.15.363 5.561 2.65 6.507 3.186l65.641 38.487c.378.221 1.654 1.01 1.938 1.262 4.758 3.455 5.436 8.66 1.938 13.218 0 2.761-7.91 11.263-10.904 12.998l-50.971 48.708c-4.444 2.571-10.037 3.943-15.568 3.991-4.853.031-9.375-.978-12.841-2.981L37.201 363.341c-4.176-2.413-6.35-6.025-6.192-9.921.157-4.164 2.962-8.202 7.956-11.073Z" opacity=".545"/><path d="m39.36 343.025 91.276-35.143c5.01-2.903 11.581-4.212 17.615-3.754 2.726.221 5.2.993 7.453 1.751.914.299 5.672 2.823 6.429 3.265l65.262 38.282c.441.252 1.592.978 1.922 1.277 4.633 3.502 4.916 8.755.836 13.14 0 2.208-8.603 11.183-10.998 12.555l-49.948 47.715c-4.317 2.492-9.769 3.833-15.126 3.88-4.711.048-9.123-.93-12.479-2.87L37.595 362.647c-3.955-2.287-5.972-5.662-5.799-9.29.19-3.849 2.852-7.603 7.563-10.332Z" opacity=".636"/><path d="m39.753 343.719 91.277-35.143c4.994-2.887 11.581-4.149 17.536-3.628 2.711.252 5.153 1.088 7.374 1.861.678.237 5.783 3.013 6.35 3.344l64.9 38.062c.505.299 1.529.946 1.907 1.293 4.522 3.549 4.396 8.833-.268 13.045 0 1.656-9.296 11.104-11.077 12.129l-48.907 46.737c-4.191 2.429-9.501 3.723-14.685 3.77-4.569.047-8.871-.883-12.132-2.76L38.02 361.953c-3.75-2.161-5.593-5.315-5.388-8.659.189-3.518 2.678-7.004 7.121-9.575Z" opacity=".727"/><path d="m40.147 344.413 91.276-35.143c4.964-2.871 11.581-4.085 17.443-3.502 2.71.268 5.105 1.183 7.295 1.988.457.157 5.893 3.202 6.271 3.422l64.538 37.857c.583.331 1.449.915 1.89 1.293 4.396 3.596 3.876 8.928-1.386 12.966 0 1.104-9.974 11.01-11.171 11.704l-47.884 45.743c-4.081 2.35-9.233 3.612-14.244 3.675-4.427.047-8.618-.836-11.769-2.65L38.398 361.291c-3.53-2.035-5.215-4.953-4.995-8.029.237-3.234 2.569-6.436 6.744-8.849Z" opacity=".818"/><path d="m40.541 345.091 91.276-35.143c4.948-2.855 11.566-4.022 17.364-3.375 2.694.299 5.058 1.277 7.232 2.113.221.079 5.987 3.392 6.176 3.502l64.16 37.635c.646.363 1.387.884 1.859 1.31 4.286 3.643 3.341 9.006-2.489 12.886 0 .553-10.667 10.931-11.266 11.278l-46.843 44.75c-3.955 2.287-8.966 3.501-13.819 3.565-4.285.063-8.366-.789-11.423-2.54L38.761 360.597c-3.31-1.909-4.853-4.606-4.601-7.398.3-2.902 2.474-5.836 6.381-8.108Z" opacity=".909"/><path d="M143.193 420.378 39.186 359.903c-6.271-3.628-5.483-9.938 1.749-14.118l91.276-35.143c7.232-4.18 18.167-4.637 24.438-1.009l69.895 40.995c6.271 3.612 5.483 9.937-1.749 14.117l-57.164 54.624c-7.232 4.179-18.167 4.621-24.438 1.009Z" opacity=".2"/></g><path fill="url(#paint1_linear_1302_3302)" d="M143.193 420.236 39.186 359.761c-2.789-1.609-4.175-3.77-4.223-6.026v-7.871c.048-2.744 2.08 2.019 5.988-.236l91.276-35.144c7.232-4.18 18.167-4.637 24.438-1.009l69.895 40.995c2.096 1.215 3.608-3.927 4.144-2.287.173.536.063 7.745.079 8.297.063 2.807-1.97 5.789-5.988 8.107l-57.164 54.624c-7.232 4.18-18.167 4.637-24.438 1.025Z"/><path fill="url(#paint2_linear_1302_3302)" d="M143.193 412.507 39.186 352.032c-6.271-3.612-5.483-9.938 1.749-14.118l91.276-35.143c7.232-4.18 18.167-4.637 24.438-1.009l69.895 40.995c6.271 3.628 5.483 9.937-1.749 14.117l-57.164 54.624c-7.232 4.18-18.167 4.637-24.438 1.009Z"/><path fill="url(#paint3_linear_1302_3302)" d="m226.56 342.757-69.895-40.995c-6.271-3.628-17.206-3.171-24.438 1.009l-45.993 17.714c.426.347.898.678 1.434.994l104.008 60.475c1.449.836 3.135 1.435 4.979 1.845l28.156-26.909c7.216-4.196 8.004-10.521 1.749-14.133Z" opacity=".818"/><path fill="url(#paint4_radial_1302_3302)" d="m224.795 355.565-57.164 54.623c-7.232 4.18-18.167 4.638-24.438 1.01L39.186 350.723c-2.6-1.499-3.97-3.471-4.175-5.553-.331 2.556 1.04 5.048 4.175 6.862l104.007 60.475c6.271 3.612 17.206 3.171 24.438-1.009l57.164-54.624c4.239-2.445 6.24-5.631 5.94-8.565-.315 2.556-2.332 5.174-5.94 7.256Z" opacity=".6"/><path fill="#0A2F87" d="M279.076 412.854 23.65 265.088C10.588 257.549 0 237.296 0 219.866V24.306C0 6.862 10.588-1.135 23.65 6.405l255.426 147.75c13.062 7.555 23.65 27.793 23.65 45.222v195.559c0 17.446-10.588 25.459-23.65 17.919Z"/><path fill="url(#paint5_linear_1302_3302)" d="M282.116 399.226 30.283 253.574c-10.509-6.688-17.016-20.048-17.016-33.724V23.013c0-3.233 3.513-5.252 6.318-3.612.33.19.583.347.74.426l252.101 145.841c12.511 7.225 17.001 20.049 17.001 33.724v196.237c0 3.471-3.75 5.647-6.759 3.928-.237-.142-.426-.252-.552-.331Z"/><path fill="#BCBEC0" d="m272.426 165.668-252.1-145.84c-.158-.095-.41-.237-.741-.427-2.789-1.64-6.318.379-6.318 3.612v196.853c0 13.676 6.507 27.036 17.016 33.724l251.833 145.652c.126.078.315.173.552.315 3.009 1.719 6.759-.457 6.759-3.928V199.392c.016-13.676-4.49-26.499-17.001-33.724Zm14.354 229.946c0 1.151-.977 1.877-1.875 1.877-.315 0-.63-.079-.914-.253L31.623 251.287c-9.486-6.042-15.678-18.392-15.678-31.421V23.013c0-.946.804-1.53 1.544-1.53.268 0 .52.08.772.221l252.857 146.283c12.968 7.477 15.678 21.215 15.678 31.421v196.206h-.016Z"/><path fill="#00205A" d="M285.772 150.589 30.346 2.839C25.178-.142 20.404-.694 16.512.804c-.488.19-7.09 3.691-7.547 3.96-.016 0-.016.015-.016.015 4.034-1.956 9.139-1.593 14.717 1.625l255.425 147.75c13.062 7.54 23.65 27.793 23.65 45.222v195.559c0 10.884-4.128 18.093-10.399 20.143.504.032 1.15-.173 2.064-.71.3-.173 7.453-4.211 7.736-4.416 4.491-3.155 7.296-9.622 7.296-18.581V195.827c-.016-17.429-10.604-37.682-23.666-45.238Z"/><path fill="#F9FAFA" d="M283.992 384.509 88.614 271.966V47.715l195.378 112.527v224.267Z"/><path fill="url(#paint6_linear_1302_3302)" d="M283.204 385.03 87.826 272.502V48.235l195.378 112.528V385.03Z"/><path fill="#F9FAFA" d="M281.628 385.55 86.25 273.023V48.771L281.628 161.3V385.55Z"/><path fill="url(#paint7_linear_1302_3302)" d="M280.841 386.087 85.462 273.543V49.293L280.841 161.82v224.267Z"/><path fill="#F9FAFA" d="M88.913 271.54V70.523l188.461 108.553v201.017L88.914 271.54Z"/><path fill="#E5F1FF" d="M88.913 89.278V70.523l188.461 108.553v18.755L88.914 89.278Z"/><path fill="#AAC2DF" d="M278.731 199.25 86 89.356 86.788 88l192.715 109.878-.772 1.372ZM278.731 217.25 86 107.372l.788-1.372 192.715 109.878-.772 1.372Z"/><path fill="url(#paint8_linear_1302_3302)" d="M278.731 236.16 86 126.282l.788-1.372 192.715 109.878-.772 1.372Z"/><path fill="url(#paint9_linear_1302_3302)" d="M278.731 254.615 86 144.737l.788-1.372 192.715 109.878-.772 1.372Z"/><path fill="#AAC2DF" d="M278.731 273.07 86 163.192l.788-1.372 192.715 109.878-.772 1.372ZM278.731 291.525 86 181.647l.788-1.372 192.715 109.877-.772 1.373ZM278.731 309.98 86 200.102l.788-1.372 192.715 109.877-.772 1.373ZM278.731 328.435 86 218.557l.788-1.373 192.715 109.894-.772 1.357ZM278.731 346.905 86 237.027l.788-1.372 192.715 109.878-.772 1.372ZM278.731 365.36 86 255.482l.788-1.372 192.715 109.878-.772 1.372Z"/><path fill="#AAC2DF" d="M126.066 90.618h-1.575v204.614h1.575V90.618ZM164.813 112.877h-1.575V317.49h1.575V112.877ZM204.422 135.604h-1.575v204.613h1.575V135.604Z"/><path fill="url(#paint10_linear_1302_3302)" d="M243.593 158.097h-1.576V362.71h1.576V158.097Z"/><path fill="#E6E7E8" d="M89.212 125.588v-16.373l64.743 36.626v16.389l-64.743-36.642Z"/><path fill="url(#paint11_linear_1302_3302)" d="M89.212 125.588v-16.373l6.98 3.881v16.372l-6.98-3.88Z"/><path fill="#AAC2DF" d="M126.161 183.84v-35.049l93.23 52.762v35.033l-93.23-52.746Z"/><path fill="url(#paint12_linear_1302_3302)" d="M126.161 183.84v-35.049l6.98 3.896v35.033l-6.98-3.88Z"/><path fill="#E6E7E8" d="M165.347 261.855v-35.191l95.53 54.119v35.191l-95.53-54.119Z"/><path fill="url(#paint13_linear_1302_3302)" d="M165.347 261.855v-35.191l6.964 3.881v35.206l-6.964-3.896Z"/><path fill="#E6E7E8" d="M88.787 180.748v-16.373l64.727 36.626v16.373l-64.727-36.626Z"/><path fill="url(#paint14_linear_1302_3302)" d="M88.787 180.748v-16.373l6.964 3.88v16.373l-6.964-3.88Z"/><path fill="#E6E7E8" d="M88.787 236.838v-35.695l55.762 31.295v35.695l-55.762-31.295Z"/><path fill="url(#paint15_linear_1302_3302)" d="M88.787 236.838v-35.695l6.964 3.88v35.696l-6.964-3.881Z"/><path fill="#E6E7E8" d="M125.94 275.878v-16.373l64.743 36.641v16.373l-64.743-36.641Z"/><path fill="url(#paint16_linear_1302_3302)" d="M125.94 275.878v-16.373l6.98 3.88v16.373l-6.98-3.88Z"/><path fill="url(#paint17_radial_1302_3302)" d="m56.77 158.965-6.13-3.534v4.228l6.13 3.533v-4.227Zm1.229-17.572v5.631c0 1.562 1.103 3.455 2.442 4.228 1.355.788 2.442.157 2.442-1.404v-5.631c0-1.546-1.103-3.439-2.442-4.228-1.355-.773-2.442-.142-2.442 1.404Zm7.342 28.156-6.129-3.534v4.228l6.13 3.533v-4.227Zm-8.571-4.953-6.13-3.533v4.227l6.13 3.533v-4.227Zm-20.814-35.932v5.631c0 1.546 1.103 3.454 2.442 4.227 1.355.789 2.442.158 2.442-1.403v-5.632c0-1.545-1.103-3.454-2.442-4.227-1.34-.789-2.442-.158-2.442 1.404Zm29.385 35.269-6.129-3.533v4.227l6.13 3.534v-4.228Zm0-5.631-6.129-3.533v4.227l6.13 3.534v-4.228Zm-8.571-4.953-6.13-3.533v4.227l6.13 3.534v-4.228Zm-17.143-4.29-6.13-3.533v4.227l6.13 3.533v-4.227Zm0 5.631-6.13-3.533v4.227l6.13 3.533v-4.227Zm8.572-6.293-6.13-3.534v4.228l6.13 3.533v-4.227Zm17.6.315-1.687-.978v2.808c0 2.334-1.638 3.265-3.67 2.098-2.033-1.168-3.672-4.007-3.672-6.341v-2.808l-14.7-8.486v2.808c0 2.334-1.64 3.265-3.672 2.097-2.033-1.167-3.671-4.006-3.671-6.341v-2.807l-1.686-.978c-1.765-1.025-3.214-.189-3.214 1.83v27.777c0 2.034 1.45 4.527 3.214 5.552l32.757 18.928c1.765 1.025 3.215.189 3.215-1.83v-27.777c0-2.019-1.45-4.527-3.215-5.552Zm.771 32.793-34.285-19.811v-23.913l34.285 19.811v23.913Zm-26.943-21.184-6.13-3.533v4.227l6.13 3.534v-4.228Zm8.572-6.309-6.13-3.533v4.211l6.13 3.533v-4.211Zm0 11.262-6.13-3.533v4.227l6.13 3.533v-4.227Zm0-5.631-6.13-3.533v4.211l6.13 3.533v-4.211Zm1.276-69.387-15.946 14.59 31.891 18.423-15.945-33.013Zm0 125.73 15.945-14.591-31.89-18.423 15.945 33.014Z"/><path fill="#3577F1" d="m255.819 153.192-.488.93v-.93h.488ZM263.934 153.192l6.113 3.217v.3l-6.633 12.65h-1.954l-6.129-3.217v-12.02l.488-.93h8.115Z"/><path fill="#3577F1" d="m263.414 169.359 6.633-12.65v12.65h-6.633ZM231.712 134.532l1.387.725-7.185 13.692-2.789-1.467v-12.95h8.587Z"/><path fill="#3577F1" d="m233.099 135.257 4.743 2.493v12.95h-8.588l-3.34-1.751 7.185-13.692ZM195.047 115.872l-4.144 7.902v-7.902h4.144Z"/><path fill="#3577F1" d="m199.506 115.872 6.114 3.233v7.256l-2.978 5.694h-5.609l-6.13-3.233v-5.048l4.144-7.902h4.459Z"/><path fill="#3577F1" d="m202.642 132.055 2.978-5.694v5.694h-2.978ZM167.285 97.228l4.238 2.224-7.184 13.691-5.641-2.965v-12.95h8.587ZM171.524 99.452l1.89.993v12.95h-8.587l-.488-.252 7.185-13.691ZM134.275 78.568l-7.011 13.36-.788-.41v-12.95h7.799Z"/><path fill="#3577F1" d="m135.063 78.568 6.129 3.217v12.95h-8.587l-5.341-2.807 7.011-13.36h.788ZM95.861 59.908l-1.591 3.028v-3.028h1.591Z"/><path fill="#3577F1" d="m102.857 59.908 6.129 3.233v2.382L103.44 76.09h-3.057l-6.113-3.233v-9.922l1.591-3.028h6.996ZM103.44 76.091l5.547-10.568V76.09h-5.547Z"/><path fill="url(#paint18_linear_1302_3302)" d="M287.032 126.03c-3.529-2.066-8.035-1.719-12.699.946-8.65 4.953-15.457 16.625-15.489 26.547-.015 4.385 1.292 7.902 3.766 10.19 1.67 1.53 3.75 2.381 6.098 2.508l1.15-5.49c-1.45.127-2.631-.236-3.529-1.056-1.292-1.183-2.001-3.36-2.001-6.12.031-7.871 5.861-17.856 12.731-21.799 2.852-1.625 5.467-1.988 7.216-.963 1.717.994 2.694 3.423 2.679 6.641-.016 3.628-1.245 7.824-3.451 11.799l4.79 2.665c2.663-4.779 4.128-9.905 4.144-14.448.016-5.332-1.907-9.385-5.405-11.42Z"/><path fill="url(#paint19_linear_1302_3302)" d="M254.811 107.37c-3.53-2.066-8.036-1.719-12.7.946-8.65 4.953-15.457 16.625-15.488 26.547-.016 4.385 1.292 7.902 3.765 10.19 1.671 1.53 3.75 2.381 6.098 2.508l1.15-5.49c-1.449.127-2.631-.236-3.529-1.056-1.292-1.183-2.001-3.36-2.001-6.121.031-7.87 5.861-17.855 12.731-21.798 2.852-1.625 5.467-1.988 7.216-.963 1.718.994 2.695 3.423 2.679 6.641-.016 3.628-1.245 7.824-3.451 11.799l4.79 2.665c2.663-4.779 4.128-9.905 4.144-14.448.032-5.332-1.891-9.385-5.404-11.42Z"/><path fill="url(#paint20_linear_1302_3302)" d="M222.605 88.71c-3.53-2.066-8.036-1.72-12.7.946-8.65 4.953-15.457 16.626-15.488 26.547-.016 4.385 1.292 7.903 3.765 10.19 1.671 1.53 3.75 2.381 6.098 2.508l1.15-5.49c-1.449.127-2.631-.236-3.529-1.056-1.292-1.183-2.001-3.36-2.001-6.12.031-7.871 5.861-17.856 12.731-21.8 2.852-1.624 5.467-1.987 7.216-.962 1.718.994 2.695 3.423 2.679 6.641-.016 3.628-1.245 7.824-3.451 11.799l4.79 2.665c2.663-4.779 4.128-9.905 4.144-14.448.016-5.331-1.906-9.37-5.404-11.42Z"/><path fill="url(#paint21_linear_1302_3302)" d="M190.383 70.066c-3.529-2.067-8.035-1.72-12.699.946-8.65 4.953-15.457 16.625-15.489 26.547-.015 4.385 1.292 7.902 3.766 10.189 1.67 1.53 3.75 2.382 6.098 2.508l1.15-5.489c-1.449.126-2.631-.236-3.529-1.057-1.292-1.183-2.001-3.359-2.001-6.12.031-7.87 5.861-17.855 12.731-21.799 2.852-1.624 5.467-1.987 7.216-.962 1.718.994 2.694 3.423 2.679 6.64-.016 3.629-1.245 7.825-3.451 11.8l4.79 2.665c2.663-4.78 4.128-9.906 4.144-14.448.016-5.332-1.891-9.386-5.405-11.42Z"/><path fill="url(#paint22_linear_1302_3302)" d="M158.177 51.406c-3.529-2.067-8.035-1.72-12.699.946-8.65 4.953-15.457 16.625-15.489 26.547-.015 4.385 1.292 7.902 3.766 10.19 1.67 1.53 3.75 2.381 6.098 2.507l1.15-5.489c-1.45.127-2.631-.236-3.529-1.056-1.292-1.183-2.001-3.36-2.001-6.12.031-7.872 5.861-17.856 12.731-21.8 2.852-1.624 5.467-1.987 7.216-.962 1.718.994 2.694 3.423 2.679 6.64-.016 3.629-1.245 7.825-3.451 11.8l4.79 2.665c2.663-4.78 4.128-9.906 4.144-14.448.016-5.332-1.907-9.386-5.405-11.42Z"/><path fill="url(#paint23_linear_1302_3302)" d="M125.956 32.746c-3.53-2.067-8.036-1.72-12.7.946-8.65 4.953-15.457 16.625-15.488 26.547-.016 4.385 1.292 7.902 3.765 10.19 1.671 1.53 3.75 2.381 6.098 2.507l1.15-5.489c-1.449.126-2.631-.236-3.529-1.057-1.292-1.183-2.001-3.36-2.001-6.12.031-7.87 5.861-17.855 12.731-21.799 2.852-1.624 5.467-1.987 7.216-.962 1.718.994 2.695 3.423 2.679 6.64-.016 3.629-1.245 7.825-3.451 11.8l4.79 2.665c2.663-4.78 4.128-9.906 4.144-14.448.016-5.332-1.906-9.37-5.404-11.42Z"/><path fill="url(#paint24_radial_1302_3302)" d="M261.996 154.327c.031-9.243 6.365-20.111 14.433-24.732 4.333-2.493 8.539-2.808 11.833-.884.252.142.472.316.709.489a8.698 8.698 0 0 0-2.301-1.924c-3.293-1.924-7.484-1.609-11.833.883-8.067 4.622-14.401 15.49-14.433 24.733-.015 4.085 1.198 7.366 3.514 9.496.252.22.52.41.788.599-1.796-2.114-2.726-5.079-2.71-8.66Z"/><path fill="url(#paint25_radial_1302_3302)" d="M289.522 139.295c.016-3.218-.961-5.631-2.679-6.64-.094-.048-.189-.079-.283-.127.819 1.247 1.26 3.045 1.26 5.221-.016 3.628-1.245 7.824-3.45 11.799l1.953 1.088c2.033-3.848 3.183-7.855 3.199-11.341Z"/><path fill="url(#paint26_radial_1302_3302)" d="M229.507 135.699c.031-9.243 6.365-20.111 14.432-24.733 4.333-2.492 8.54-2.807 11.833-.883.252.142.473.315.709.489a8.675 8.675 0 0 0-2.3-1.924c-3.293-1.925-7.484-1.609-11.833.883-8.067 4.621-14.401 15.489-14.433 24.733-.016 4.085 1.198 7.366 3.514 9.495.252.221.52.41.788.6-1.781-2.13-2.71-5.079-2.71-8.66Z"/><path fill="url(#paint27_radial_1302_3302)" d="M257.033 120.651c.015-3.218-.961-5.631-2.679-6.641-.094-.047-.189-.078-.284-.126.82 1.246 1.261 3.045 1.261 5.221-.016 3.628-1.245 7.824-3.451 11.799l1.954 1.088c2.048-3.833 3.183-7.839 3.199-11.341Z"/><path fill="url(#paint28_radial_1302_3302)" d="M197.552 117.055c.032-9.244 6.366-20.112 14.433-24.733 4.333-2.492 8.54-2.808 11.833-.883.252.142.473.315.709.489a8.693 8.693 0 0 0-2.3-1.925c-3.293-1.924-7.484-1.609-11.833.883-8.067 4.622-14.401 15.49-14.433 24.733-.016 4.086 1.198 7.366 3.514 9.496.252.221.52.41.788.599-1.797-2.113-2.726-5.079-2.711-8.659Z"/><path fill="url(#paint29_radial_1302_3302)" d="M225.063 102.023c.016-3.218-.961-5.631-2.678-6.641-.095-.047-.189-.079-.284-.126.82 1.246 1.261 3.044 1.261 5.221-.016 3.628-1.245 7.824-3.451 11.798l1.954 1.089c2.048-3.849 3.198-7.855 3.198-11.341Z"/><path fill="url(#paint30_radial_1302_3302)" d="M165.237 98.253c.031-9.243 6.365-20.111 14.432-24.733 4.333-2.492 8.54-2.808 11.833-.883.252.142.473.315.709.489a8.693 8.693 0 0 0-2.3-1.925c-3.293-1.924-7.484-1.609-11.833.884-8.067 4.621-14.401 15.49-14.433 24.732-.016 4.086 1.198 7.367 3.514 9.496.252.221.52.41.788.599-1.797-2.113-2.726-5.079-2.71-8.66Z"/><path fill="url(#paint31_radial_1302_3302)" d="M192.763 83.22c.015-3.217-.961-5.63-2.679-6.64-.094-.047-.189-.079-.284-.126.82 1.246 1.261 3.044 1.261 5.22-.016 3.629-1.245 7.825-3.451 11.8l1.954 1.088c2.033-3.849 3.183-7.855 3.199-11.341Z"/><path fill="url(#paint32_radial_1302_3302)" d="M132.747 79.609c.031-9.244 6.365-20.111 14.433-24.733 4.333-2.492 8.54-2.808 11.833-.883.252.142.472.315.709.488a8.696 8.696 0 0 0-2.301-1.924c-3.293-1.924-7.484-1.609-11.833.883-8.067 4.622-14.401 15.49-14.433 24.733-.015 4.086 1.198 7.366 3.514 9.496.252.22.52.41.788.6-1.781-2.114-2.71-5.08-2.71-8.66Z"/><path fill="url(#paint33_radial_1302_3302)" d="M160.273 64.576c.016-3.217-.961-5.63-2.678-6.64-.095-.047-.189-.079-.284-.126.82 1.246 1.261 3.044 1.261 5.22-.016 3.629-1.245 7.824-3.451 11.8l1.954 1.088c2.048-3.85 3.198-7.856 3.198-11.342Z"/><path fill="url(#paint34_radial_1302_3302)" d="M100.793 60.98c.032-9.243 6.366-20.111 14.433-24.733 4.333-2.492 8.54-2.807 11.833-.883.252.142.473.316.709.489a8.71 8.71 0 0 0-2.3-1.924c-3.294-1.925-7.485-1.61-11.833.883-8.068 4.622-14.402 15.49-14.433 24.733-.016 4.085 1.197 7.366 3.513 9.495.253.221.52.41.788.6-1.796-2.114-2.726-5.08-2.71-8.66Z"/><path fill="#051C46" d="m345 286.872-112.516-65.066-37.941 22.54v35.585l112.453 64.924v.016h.031v-.016L345 322.441v-35.569Z"/><g opacity=".9"><path fill="url(#paint35_linear_1302_3302)" d="M306.996 309.491v35.38l10.241-5.916v-35.584l-10.241 6.12Z" opacity=".9"/><path fill="url(#paint36_linear_1302_3302)" d="M307.027 309.491v35.38l-112.484-64.94v-35.585l112.484 65.145Z" opacity=".9"/><path fill="url(#paint37_linear_1302_3302)" d="m194.543 244.346 112.484 65.145 10.21-6.12-112.515-65.066-10.179 6.041Z" opacity=".9"/></g><path fill="#051C46" d="m345 246.145-112.516-65.066-37.941 22.556v35.585l112.453 64.924v.015l.015-.015.016.015v-.015L345 281.729v-35.584Z"/><g opacity=".9"><path fill="url(#paint38_linear_1302_3302)" d="M306.996 268.779v35.38l10.241-5.931v-35.569l-10.241 6.12Z" opacity=".9"/><path fill="url(#paint39_linear_1302_3302)" d="M307.027 268.779v35.38L194.543 239.22v-35.585l112.484 65.144Z" opacity=".9"/><path fill="url(#paint40_linear_1302_3302)" d="m194.543 203.635 112.484 65.144 10.21-6.12-112.515-65.065-10.179 6.041Z" opacity=".9"/></g><path fill="#051C46" d="m345 204.897-112.516-65.065-37.941 22.556v35.569l112.453 64.923v.016h.031v-.016L345 240.466v-35.569Z"/><g opacity=".9"><path fill="#103D91" d="M306.996 227.516v35.38l10.241-5.915v-35.585l-10.241 6.12Z" opacity=".9"/><path fill="#2261D8" d="M307.027 227.516v35.38l-112.484-64.939v-35.569l112.484 65.128Z" opacity=".9"/><path fill="#518EFF" d="m194.543 162.388 112.484 65.128 10.21-6.12-112.515-65.065-10.179 6.057Z" opacity=".9"/></g><path fill="#fff" d="m198.971 187.262 6.854 11.815 14.811-12.398-4.192-5.71-10.21 14.148-1.749-8.612-5.514.757ZM257.048 224.33l-32.395-18.565v2.949l32.395 18.581v-2.965ZM285.331 222.989l-60.678-34.654v5.442l60.678 34.654v-5.442ZM248.823 213.525l-24.17-13.896v2.949l24.17 13.897v-2.95ZM251.723 215.197v2.95l36.57 20.726v-2.95l-36.57-20.726ZM259.963 226.018v2.949l19.412 11.199v-2.949l-19.412-11.199ZM291.208 240.561l8.004 4.669v-2.95l-8.004-4.669v2.95ZM282.29 241.838l16.922 9.528v-2.95l-16.922-9.527v2.949ZM198.971 228.305l6.854 11.814 14.811-12.414-4.192-5.71-10.21 14.149-1.749-8.596-5.514.757ZM257.048 265.372l-32.395-18.581v2.966l32.395 18.565v-2.95ZM285.331 264.016l-60.678-34.654v5.441l60.678 34.655v-5.442ZM248.823 254.552l-24.17-13.881v2.95l24.17 13.88v-2.949ZM251.723 256.24v2.949l36.57 20.726v-2.949l-36.57-20.726ZM259.963 267.044v2.95l19.412 11.199v-2.95l-19.412-11.199ZM291.208 281.587l8.004 4.669v-2.949l-8.004-4.669v2.949ZM282.29 282.865l16.922 9.527v-2.949l-16.922-9.528v2.95ZM198.971 269.111l6.854 11.814 14.811-12.414-4.192-5.71-10.21 14.149-1.749-8.596-5.514.757ZM257.048 306.178l-32.395-18.565v2.95l32.395 18.565v-2.95ZM285.331 304.822l-60.678-34.655v5.442l60.678 34.655v-5.442ZM248.823 295.358l-24.17-13.881v2.95l24.17 13.896v-2.965ZM251.723 297.045v2.95l36.57 20.726v-2.949l-36.57-20.727ZM259.963 307.85v2.95l19.412 11.199v-2.95l-19.412-11.199ZM291.208 322.393l8.004 4.669v-2.949l-8.004-4.669v2.949ZM282.29 323.687l16.922 9.511v-2.95l-16.922-9.527v2.966Z"/><path fill="url(#paint41_radial_1302_3302)" d="m49.475 84.483 15.93 20.395-15.93-33.014-15.946 14.574 15.946-1.956Z"/><path fill="url(#paint42_radial_1302_3302)" d="m49.475 65.286 15.93 20.395-15.93-33.014-15.946 14.59 15.946-1.97Z" opacity=".5"/><path fill="url(#paint43_radial_1302_3302)" d="M49.475 221.065 33.529 200.67l15.946 33.014 15.93-14.575-15.93 1.956Z"/><path fill="url(#paint44_radial_1302_3302)" d="m49.475 240.261-15.946-20.395 15.946 33.014 15.93-14.591-15.93 1.972Z" opacity=".5"/></g><defs><linearGradient id="paint0_linear_1302_3302" x1="42.81" x2="249.351" y1="396.385" y2="396.385" gradientUnits="userSpaceOnUse"><stop offset=".056" stop-color="#200041"/><stop offset=".258" stop-color="#210243"/><stop offset=".357" stop-color="#25084B"/><stop offset=".434" stop-color="#2C1358"/><stop offset=".47" stop-color="#311B61"/><stop offset=".482" stop-color="#351F65"/><stop offset=".495" stop-color="#422C73"/><stop offset=".509" stop-color="#584188"/><stop offset=".523" stop-color="#765FA7"/><stop offset=".53" stop-color="#8770B8"/><stop offset=".537" stop-color="#7E67AE"/><stop offset=".562" stop-color="#5C468D"/><stop offset=".586" stop-color="#442E75"/><stop offset=".608" stop-color="#362066"/><stop offset=".626" stop-color="#311B61"/><stop offset=".672" stop-color="#2A1155"/><stop offset=".749" stop-color="#230446"/><stop offset=".813" stop-color="#200041"/><stop offset="1" stop-color="#200041"/></linearGradient><linearGradient id="paint1_linear_1302_3302" x1="42.81" x2="249.352" y1="364.853" y2="364.853" gradientUnits="userSpaceOnUse"><stop offset=".056" stop-color="#0F3171"/><stop offset=".258" stop-color="#0A2C6A"/><stop offset=".646" stop-color="#042055"/><stop offset="1" stop-color="#0F3287"/></linearGradient><linearGradient id="paint2_linear_1302_3302" x1="98.079" x2="191.752" y1="378.148" y2="326.385" gradientUnits="userSpaceOnUse"><stop stop-color="#01153A"/><stop offset=".203" stop-color="#052053"/><stop offset=".427" stop-color="#082D73"/><stop offset=".495" stop-color="#1F3D86"/><stop offset="1" stop-color="#041C55"/></linearGradient><linearGradient id="paint3_linear_1302_3302" x1="147.732" x2="166.142" y1="353.637" y2="322.805" gradientUnits="userSpaceOnUse"><stop stop-color="#fff"/><stop offset="1"/></linearGradient><linearGradient id="paint5_linear_1302_3302" x1="25.974" x2="295.292" y1="20.329" y2="424.863" gradientUnits="userSpaceOnUse"><stop offset=".01" stop-color="#6C9FFF"/><stop offset=".429" stop-color="#1049B3"/><stop offset=".904" stop-color="#072468"/></linearGradient><linearGradient id="paint6_linear_1302_3302" x1="373.292" x2="-136.111" y1="379.595" y2="-61.513" gradientUnits="userSpaceOnUse"><stop stop-color="#9F79C8"/><stop offset=".137" stop-color="#A580CB"/><stop offset=".329" stop-color="#B492D3"/><stop offset=".553" stop-color="#CDB0E1"/><stop offset=".581" stop-color="#D1B4E3"/><stop offset=".764" stop-color="#DBC4E9"/><stop offset="1" stop-color="#EBDEF3"/></linearGradient><linearGradient id="paint7_linear_1302_3302" x1="370.928" x2="-138.474" y1="380.646" y2="-60.461" gradientUnits="userSpaceOnUse"><stop stop-color="#A3C3FF"/><stop offset="1" stop-color="#EBDEF3"/><stop offset="1" stop-color="#93B9FF"/></linearGradient><linearGradient id="paint8_linear_1302_3302" x1="388.997" x2="-120.408" y1="359.513" y2="-81.596" gradientUnits="userSpaceOnUse"><stop stop-color="#9F79C8"/><stop offset=".137" stop-color="#A580CB"/><stop offset=".329" stop-color="#B492D3"/><stop offset=".553" stop-color="#CDB0E1"/><stop offset=".581" stop-color="#D1B4E3"/><stop offset=".764" stop-color="#DBC4E9"/><stop offset="1" stop-color="#EBDEF3"/></linearGradient><linearGradient id="paint9_linear_1302_3302" x1="379.871" x2="-129.533" y1="370.05" y2="-71.058" gradientUnits="userSpaceOnUse"><stop stop-color="#9F79C8"/><stop offset=".137" stop-color="#A580CB"/><stop offset=".329" stop-color="#B492D3"/><stop offset=".553" stop-color="#CDB0E1"/><stop offset=".581" stop-color="#D1B4E3"/><stop offset=".764" stop-color="#DBC4E9"/><stop offset="1" stop-color="#EBDEF3"/></linearGradient><linearGradient id="paint10_linear_1302_3302" x1="375.404" x2="-133.999" y1="375.478" y2="-65.631" gradientUnits="userSpaceOnUse"><stop stop-color="#9F79C8"/><stop offset=".137" stop-color="#A580CB"/><stop offset=".329" stop-color="#B492D3"/><stop offset=".553" stop-color="#CDB0E1"/><stop offset=".581" stop-color="#D1B4E3"/><stop offset=".764" stop-color="#DBC4E9"/><stop offset="1" stop-color="#EBDEF3"/></linearGradient><linearGradient id="paint11_linear_1302_3302" x1="159.174" x2="85.517" y1="251.956" y2="105.326" gradientUnits="userSpaceOnUse"><stop offset=".03" stop-color="#7C1DC9"/><stop offset=".214" stop-color="#6E41D2"/><stop offset=".618" stop-color="#4C9BE8"/><stop offset="1" stop-color="#2AF6FF"/></linearGradient><linearGradient id="paint12_linear_1302_3302" x1="206.764" x2="75.249" y1="322.104" y2="60.299" gradientUnits="userSpaceOnUse"><stop offset=".03" stop-color="#7C1DC9"/><stop offset=".214" stop-color="#6E41D2"/><stop offset=".618" stop-color="#4C9BE8"/><stop offset="1" stop-color="#2AF6FF"/></linearGradient><linearGradient id="paint13_linear_1302_3302" x1="176.228" x2="44.225" y1="260.968" y2="-1.81" gradientUnits="userSpaceOnUse"><stop offset=".03" stop-color="#7C1DC9"/><stop offset=".214" stop-color="#6E41D2"/><stop offset=".618" stop-color="#4C9BE8"/><stop offset="1" stop-color="#2AF6FF"/></linearGradient><linearGradient id="paint14_linear_1302_3302" x1="136.744" x2="63.086" y1="263.223" y2="116.594" gradientUnits="userSpaceOnUse"><stop offset=".03" stop-color="#7C1DC9"/><stop offset=".214" stop-color="#6E41D2"/><stop offset=".618" stop-color="#4C9BE8"/><stop offset="1" stop-color="#2AF6FF"/></linearGradient><linearGradient id="paint15_linear_1302_3302" x1="146.21" x2="12.658" y1="328.539" y2="62.679" gradientUnits="userSpaceOnUse"><stop offset=".03" stop-color="#7C1DC9"/><stop offset=".214" stop-color="#6E41D2"/><stop offset=".618" stop-color="#4C9BE8"/><stop offset="1" stop-color="#2AF6FF"/></linearGradient><linearGradient id="paint16_linear_1302_3302" x1="135.684" x2="62.027" y1="282.105" y2="135.475" gradientUnits="userSpaceOnUse"><stop offset=".03" stop-color="#7C1DC9"/><stop offset=".214" stop-color="#6E41D2"/><stop offset=".618" stop-color="#4C9BE8"/><stop offset="1" stop-color="#2AF6FF"/></linearGradient><linearGradient id="paint18_linear_1302_3302" x1="284.885" x2="245.922" y1="154.334" y2="117.023" gradientUnits="userSpaceOnUse"><stop stop-color="#7E7F90"/><stop offset=".525" stop-color="#9D9EB3"/><stop offset="1" stop-color="#D4D1D8"/></linearGradient><linearGradient id="paint19_linear_1302_3302" x1="252.67" x2="213.707" y1="135.68" y2="98.369" gradientUnits="userSpaceOnUse"><stop stop-color="#7E7F90"/><stop offset=".525" stop-color="#9D9EB3"/><stop offset="1" stop-color="#D4D1D8"/></linearGradient><linearGradient id="paint20_linear_1302_3302" x1="220.455" x2="181.493" y1="117.025" y2="79.714" gradientUnits="userSpaceOnUse"><stop stop-color="#7E7F90"/><stop offset=".525" stop-color="#9D9EB3"/><stop offset="1" stop-color="#D4D1D8"/></linearGradient><linearGradient id="paint21_linear_1302_3302" x1="188.242" x2="149.278" y1="98.37" y2="61.059" gradientUnits="userSpaceOnUse"><stop stop-color="#7E7F90"/><stop offset=".525" stop-color="#9D9EB3"/><stop offset="1" stop-color="#D4D1D8"/></linearGradient><linearGradient id="paint22_linear_1302_3302" x1="156.027" x2="117.064" y1="79.716" y2="42.405" gradientUnits="userSpaceOnUse"><stop stop-color="#7E7F90"/><stop offset=".525" stop-color="#9D9EB3"/><stop offset="1" stop-color="#D4D1D8"/></linearGradient><linearGradient id="paint23_linear_1302_3302" x1="123.812" x2="84.849" y1="61.061" y2="23.75" gradientUnits="userSpaceOnUse"><stop stop-color="#7E7F90"/><stop offset=".525" stop-color="#9D9EB3"/><stop offset="1" stop-color="#D4D1D8"/></linearGradient><linearGradient id="paint35_linear_1302_3302" x1="305.684" x2="345.73" y1="327.243" y2="307.86" gradientUnits="userSpaceOnUse"><stop offset=".035" stop-color="#FFA98C"/><stop offset=".317" stop-color="#FFB892"/><stop offset=".86" stop-color="#FEE1A3"/><stop offset="1" stop-color="#FEECA8"/></linearGradient><linearGradient id="paint36_linear_1302_3302" x1="193.591" x2="302.008" y1="333.113" y2="260.291" gradientUnits="userSpaceOnUse"><stop offset=".035" stop-color="#FFA98C"/><stop offset=".317" stop-color="#FFB892"/><stop offset=".86" stop-color="#FEE1A3"/><stop offset="1" stop-color="#FEECA8"/></linearGradient><linearGradient id="paint37_linear_1302_3302" x1="280.722" x2="254.476" y1="237.56" y2="275.851" gradientUnits="userSpaceOnUse"><stop offset=".035" stop-color="#FFA98C"/><stop offset=".317" stop-color="#FFB892"/><stop offset=".86" stop-color="#FEE1A3"/><stop offset="1" stop-color="#FEECA8"/></linearGradient><linearGradient id="paint38_linear_1302_3302" x1="305.684" x2="345.73" y1="286.525" y2="267.142" gradientUnits="userSpaceOnUse"><stop offset=".035" stop-color="#9F19AB"/><stop offset=".244" stop-color="#AE25B1"/><stop offset=".645" stop-color="#D744BF"/><stop offset="1" stop-color="#FF63CE"/></linearGradient><linearGradient id="paint39_linear_1302_3302" x1="193.591" x2="302.008" y1="292.395" y2="219.573" gradientUnits="userSpaceOnUse"><stop offset=".035" stop-color="#9F19AB"/><stop offset=".244" stop-color="#AE25B1"/><stop offset=".645" stop-color="#D744BF"/><stop offset="1" stop-color="#FF63CE"/></linearGradient><linearGradient id="paint40_linear_1302_3302" x1="280.722" x2="254.476" y1="196.842" y2="235.133" gradientUnits="userSpaceOnUse"><stop offset=".035" stop-color="#9F19AB"/><stop offset=".244" stop-color="#AE25B1"/><stop offset=".645" stop-color="#D744BF"/><stop offset="1" stop-color="#FF63CE"/></linearGradient><radialGradient id="paint4_radial_1302_3302" cx="0" cy="0" r="1" gradientTransform="matrix(73.4827 0 0 73.5626 148.344 395.56)" gradientUnits="userSpaceOnUse"><stop stop-color="#071F4B"/><stop offset=".833" stop-color="#031C4A"/></radialGradient><radialGradient id="paint17_radial_1302_3302" cx="0" cy="0" r="1" gradientTransform="matrix(75.9704 0 0 76.0531 67.544 154.623)" gradientUnits="userSpaceOnUse"><stop stop-color="#00102F"/><stop offset=".994" stop-color="#2960C7"/><stop offset=".994" stop-color="#11054E"/><stop offset="1" stop-color="#08256C"/></radialGradient><radialGradient id="paint24_radial_1302_3302" cx="0" cy="0" r="1" gradientTransform="matrix(16.4994 .05946 -.05953 16.5173 270.919 138.836)" gradientUnits="userSpaceOnUse"><stop stop-color="#fff"/><stop offset=".325" stop-color="#B7B6B6"/><stop offset="1"/></radialGradient><radialGradient id="paint25_radial_1302_3302" cx="0" cy="0" r="1" gradientTransform="matrix(9.11543 .03285 -.03289 9.12542 281.638 140.88)" gradientUnits="userSpaceOnUse"><stop stop-color="#fff"/><stop offset=".325" stop-color="#B7B6B6"/><stop offset="1"/></radialGradient><radialGradient id="paint26_radial_1302_3302" cx="0" cy="0" r="1" gradientTransform="matrix(16.4994 .05946 -.05953 16.5173 238.438 120.199)" gradientUnits="userSpaceOnUse"><stop stop-color="#fff"/><stop offset=".325" stop-color="#B7B6B6"/><stop offset="1"/></radialGradient><radialGradient id="paint27_radial_1302_3302" cx="0" cy="0" r="1" gradientTransform="matrix(9.11552 .03285 -.03289 9.12541 249.157 122.243)" gradientUnits="userSpaceOnUse"><stop stop-color="#fff"/><stop offset=".325" stop-color="#B7B6B6"/><stop offset="1"/></radialGradient><radialGradient id="paint28_radial_1302_3302" cx="0" cy="0" r="1" gradientTransform="matrix(16.4994 .05946 -.05953 16.5173 206.471 101.564)" gradientUnits="userSpaceOnUse"><stop stop-color="#fff"/><stop offset=".325" stop-color="#B7B6B6"/><stop offset="1"/></radialGradient><radialGradient id="paint29_radial_1302_3302" cx="0" cy="0" r="1" gradientTransform="matrix(9.11546 .03285 -.03289 9.12542 217.19 103.608)" gradientUnits="userSpaceOnUse"><stop stop-color="#fff"/><stop offset=".325" stop-color="#B7B6B6"/><stop offset="1"/></radialGradient><radialGradient id="paint30_radial_1302_3302" cx="0" cy="0" r="1" gradientTransform="matrix(16.4995 .05946 -.05953 16.5175 174.162 82.757)" gradientUnits="userSpaceOnUse"><stop stop-color="#fff"/><stop offset=".325" stop-color="#B7B6B6"/><stop offset="1"/></radialGradient><radialGradient id="paint31_radial_1302_3302" cx="0" cy="0" r="1" gradientTransform="matrix(9.11543 .03285 -.03289 9.12541 184.881 84.8)" gradientUnits="userSpaceOnUse"><stop stop-color="#fff"/><stop offset=".325" stop-color="#B7B6B6"/><stop offset="1"/></radialGradient><radialGradient id="paint32_radial_1302_3302" cx="0" cy="0" r="1" gradientTransform="matrix(16.4996 .05946 -.05953 16.5175 141.681 64.12)" gradientUnits="userSpaceOnUse"><stop stop-color="#fff"/><stop offset=".325" stop-color="#B7B6B6"/><stop offset="1"/></radialGradient><radialGradient id="paint33_radial_1302_3302" cx="0" cy="0" r="1" gradientTransform="matrix(9.11552 .03285 -.03289 9.12541 152.4 66.164)" gradientUnits="userSpaceOnUse"><stop stop-color="#fff"/><stop offset=".325" stop-color="#B7B6B6"/><stop offset="1"/></radialGradient><radialGradient id="paint34_radial_1302_3302" cx="0" cy="0" r="1" gradientTransform="matrix(16.4994 .05946 -.05953 16.5173 109.714 45.486)" gradientUnits="userSpaceOnUse"><stop stop-color="#fff"/><stop offset=".325" stop-color="#B7B6B6"/><stop offset="1"/></radialGradient><radialGradient id="paint41_radial_1302_3302" cx="0" cy="0" r="1" gradientTransform="matrix(40.3977 0 0 40.4417 101.261 103.04)" gradientUnits="userSpaceOnUse"><stop stop-color="#0033AD"/><stop offset=".304" stop-color="#1049B3"/><stop offset=".651" stop-color="#0033AD"/></radialGradient><radialGradient id="paint42_radial_1302_3302" cx="0" cy="0" r="1" gradientTransform="matrix(40.3979 0 0 40.4419 101.261 103.04)" gradientUnits="userSpaceOnUse"><stop stop-color="#B4299A"/><stop offset=".304" stop-color="#861F84"/><stop offset=".994" stop-color="#11054E"/><stop offset="1" stop-color="#10054D"/></radialGradient><radialGradient id="paint43_radial_1302_3302" cx="0" cy="0" r="1" gradientTransform="matrix(-40.3977 0 0 -40.4417 -2.328 202.51)" gradientUnits="userSpaceOnUse"><stop stop-color="#0033AD"/><stop offset=".304" stop-color="#0033AD"/><stop offset=".776" stop-color="#0033AD"/></radialGradient><radialGradient id="paint44_radial_1302_3302" cx="0" cy="0" r="1" gradientTransform="matrix(-40.3979 0 0 -40.4419 -2.328 202.51)" gradientUnits="userSpaceOnUse"><stop stop-color="#B4299A"/><stop offset=".304" stop-color="#861F84"/><stop offset=".994" stop-color="#11054E"/><stop offset="1" stop-color="#10054D"/></radialGradient><clipPath id="clip0_1302_3302"><path fill="#fff" d="M0 0h345v435H0z"/></clipPath></defs></svg>