<svg xmlns="http://www.w3.org/2000/svg" width="345" height="120" fill="none" viewBox="0 0 345 120"><rect width="343.5" height="118.5" x=".75" y=".75" stroke="#336D9C" stroke-width="1.5" rx="9.25"/><g clip-path="url(#clip0_2184_7366)"><path fill="url(#paint0_linear_2184_7366)" d="M118.669 25.016c-2.891 0-5.688.266-8.123.716-7.218 1.246-8.485 3.836-8.485 8.74v6.42h16.97v2.14H95.743c-4.876 0-9.203 2.943-10.558 8.47-1.536 6.42-1.624 10.343 0 17.03C86.359 73.526 89.249 77 94.213 77h5.868v-7.667c0-5.527 4.876-10.43 10.558-10.43h16.876c4.695 0 8.485-3.837 8.485-8.561V34.379c0-4.546-3.883-7.938-8.485-8.74-2.983-.444-5.962-.71-8.846-.623ZM109.46 30.1c1.717 0 3.159 1.425 3.159 3.207 0 1.783-1.442 3.208-3.159 3.208-1.717 0-3.159-1.425-3.159-3.208 0-1.782 1.354-3.207 3.159-3.207Z"/><path fill="url(#paint1_linear_2184_7366)" d="M137.862 43v7.345c0 5.753-4.942 10.528-10.606 10.528h-16.804c-4.582 0-8.448 3.892-8.448 8.495v15.84c0 4.511 3.954 7.168 8.448 8.496 5.303 1.591 10.426 1.86 16.897 0 4.222-1.237 8.449-3.63 8.449-8.496v-6.371h-16.903v-2.124h25.346c4.854 0 6.739-3.36 8.448-8.404 1.797-5.221 1.709-10.173 0-16.9-1.169-4.78-3.506-8.404-8.448-8.404L137.862 43Zm-9.53 40.084c1.709 0 3.146 1.414 3.146 3.183 0 1.77-1.437 3.184-3.146 3.184-1.709 0-3.145-1.415-3.145-3.184 0-1.769 1.441-3.183 3.145-3.183Z"/></g><path fill="#656565" d="M173.8 56.798c0-4.974-1.43-7.455-4.296-7.547-1.164-.086-2.236.178-3.312.534-.898.265-1.431.62-1.703.89v11.718c1.79 1.154 3.399 1.688 4.835 1.596 2.953-.27 4.476-2.664 4.476-7.19Zm3.492.178c0 2.487-.539 4.527-1.79 6.215-1.343 1.867-3.132 2.843-5.547 2.843-1.789.086-3.578-.534-5.46-1.689V75l-3.046-1.068V50.228a8.12 8.12 0 0 1 1.882-1.597c1.789-1.063 4.03-1.597 6.532-1.597 2.327 0 4.204.977 5.46 2.843 1.338 2.04 1.969 4.256 1.969 7.1Zm18.523 7.014c0 3.371-.359 5.68-.984 6.926-.718 1.241-1.969 2.31-3.851 3.108-1.609.62-3.219.976-5.014.976l-.538-1.867c1.881-.264 3.132-.534 3.85-.712 1.43-.534 2.507-1.24 3.04-2.309.446-.798.626-2.395.626-4.704v-.798c-2.056.976-4.297 1.419-6.532 1.419-1.523 0-2.866-.443-3.937-1.42-1.251-.976-1.882-2.308-1.882-3.905V48.188l3.04-1.062v12.607c0 1.333.446 2.395 1.343 3.107.898.712 1.969 1.063 3.399 1.063 1.431 0 2.866-.534 4.476-1.597V47.563h3.04l-.076 16.426Zm11.813 1.952h-.985c-1.702 0-3.04-.442-4.03-1.24-.984-.799-1.43-1.953-1.43-3.372V49.435h-2.056v-1.872h2.056v-5.06l3.04-1.063v6.123h3.399v1.866h-3.399v11.718c0 1.154.267 1.952.897 2.395.539.356 1.344.62 2.508.712v1.688Zm18.436-.27h-3.04v-11.63c0-1.155-.266-2.218-.805-3.016-.625-.976-1.523-1.419-2.686-1.419-1.431 0-3.133.712-5.189 2.218v13.94h-3.04V37.975l3.04-.976v12.607c1.969-1.419 4.03-2.13 6.352-2.13 1.61 0 2.866.534 3.938 1.596.984 1.063 1.523 2.395 1.523 3.998l-.093 12.602Zm16.109-9.408c0-1.866-.359-3.463-1.071-4.704-.898-1.51-2.149-2.309-4.03-2.395-3.312.178-5.015 2.573-5.015 7.1 0 2.13.359 3.819 1.072 5.237.897 1.775 2.235 2.666 4.03 2.666 3.312-.092 5.014-2.665 5.014-7.904Zm3.312 0c0 2.665-.718 4.974-2.056 6.75-1.522 1.952-3.671 3.015-6.265 3.015-2.686 0-4.742-.977-6.265-3.016-1.343-1.775-2.056-3.997-2.056-6.749 0-2.573.718-4.704 2.235-6.392 1.61-1.867 3.579-2.752 6.086-2.752s4.563.89 6.173 2.752c1.43 1.775 2.148 3.905 2.148 6.392Zm17.452 9.409h-3.04V53.42c0-1.332-.446-2.395-1.251-3.107-.805-.712-1.881-1.154-3.312-1.063-1.43 0-2.866.534-4.117 1.42v15.18h-3.04V50.314c1.702-1.24 3.312-2.13 4.835-2.487 1.43-.356 2.594-.534 3.671-.534.718 0 1.43.086 2.056.178 1.164.264 2.148.799 2.866 1.51a4.212 4.212 0 0 1 1.251 3.016l.081 13.676Z"/><defs><linearGradient id="paint0_linear_2184_7366" x1="82.129" x2="120.829" y1="26.915" y2="60.293" gradientUnits="userSpaceOnUse"><stop stop-color="#5CA0D5"/><stop offset="1" stop-color="#316A99"/></linearGradient><linearGradient id="paint1_linear_2184_7366" x1="135.77" x2="122.088" y1="80.186" y2="60.715" gradientUnits="userSpaceOnUse"><stop stop-color="#FFD43E"/><stop offset="1" stop-color="#FFE975"/></linearGradient><clipPath id="clip0_2184_7366"><path fill="#fff" d="M68 25h208v70H68z"/></clipPath></defs></svg>