<svg xmlns="http://www.w3.org/2000/svg" width="345" height="120" fill="none" viewBox="0 0 345 120"><path stroke="#1EC9C1" stroke-width="1.5" d="M.75 10A9.25 9.25 0 0 1 10 .75h325a9.25 9.25 0 0 1 9.25 9.25v100a9.25 9.25 0 0 1-9.25 9.25H10A9.25 9.25 0 0 1 .75 110V10Z"/><path fill="#1EC9C1" d="M130.256 62.044h-5.278v8.662H122V49.294h7.438c2.531 0 4.476.55 5.834 1.647 1.368 1.098 2.052 2.696 2.052 4.794 0 1.333-.38 2.495-1.142 3.486-.751.99-1.8 1.73-3.148 2.22l5.278 9.088v.177h-3.179l-4.877-8.662Zm-5.278-2.309h4.553c1.471 0 2.639-.363 3.503-1.088.875-.726 1.312-1.696 1.312-2.912 0-1.324-.417-2.338-1.25-3.044-.823-.706-2.017-1.064-3.58-1.074h-4.538v8.118ZM147.973 71c-2.264 0-4.105-.706-5.525-2.118-1.42-1.422-2.13-3.319-2.13-5.691v-.5c0-1.578.314-2.985.942-4.22.637-1.246 1.522-2.217 2.654-2.912a6.917 6.917 0 0 1 3.704-1.06c2.171 0 3.858.682 5.061 2.045 1.204 1.362 1.806 3.313 1.806 5.852v1.133h-11.312c.041 1.569.52 2.839 1.435 3.81.926.96 2.099 1.44 3.519 1.44 1.008 0 1.862-.196 2.561-.588a6.333 6.333 0 0 0 1.837-1.559l1.744 1.294c-1.4 2.049-3.498 3.074-6.296 3.074Zm-.355-14.265c-1.153 0-2.12.402-2.902 1.206-.781.794-1.265 1.912-1.45 3.353h8.364v-.206c-.082-1.382-.473-2.451-1.172-3.206-.701-.764-1.647-1.147-2.84-1.147Zm20.494 13.97c-.165-.313-.299-.872-.401-1.676-1.328 1.314-2.912 1.971-4.754 1.971-1.646 0-2.998-.441-4.058-1.324-1.049-.892-1.574-2.02-1.574-3.382 0-1.657.658-2.941 1.975-3.853 1.327-.922 3.19-1.383 5.587-1.383h2.778v-1.25c0-.95-.299-1.706-.895-2.264-.597-.569-1.477-.853-2.64-.853-1.018 0-1.872.245-2.561.735-.689.49-1.034 1.083-1.034 1.78h-2.871c0-.794.294-1.56.88-2.295.596-.745 1.399-1.333 2.408-1.764 1.018-.431 2.134-.648 3.348-.648 1.924 0 3.431.461 4.522 1.383 1.09.912 1.656 2.172 1.697 3.78v7.323c0 1.461.196 2.622.587 3.485v.236h-2.994Zm-4.738-2.073c.895 0 1.744-.22 2.547-.662.802-.441 1.383-1.014 1.744-1.72v-3.265h-2.239c-3.497 0-5.247.975-5.247 2.926 0 .853.299 1.52.895 2 .597.48 1.364.721 2.3.721Zm18.318.147c1.019 0 1.909-.294 2.67-.882.761-.589 1.183-1.324 1.265-2.206h2.702c-.052.911-.381 1.78-.988 2.603-.608.824-1.42 1.48-2.439 1.97a7.242 7.242 0 0 1-3.21.736c-2.273 0-4.084-.72-5.432-2.162-1.337-1.451-2.006-3.431-2.006-5.941v-.456c0-1.549.298-2.927.895-4.132.597-1.206 1.45-2.143 2.562-2.81 1.121-.666 2.443-1 3.966-1 1.872 0 3.426.535 4.661 1.604 1.244 1.068 1.908 2.456 1.991 4.161h-2.702c-.082-1.03-.493-1.872-1.234-2.53-.73-.666-1.636-.999-2.716-.999-1.451 0-2.577.5-3.38 1.5-.792.99-1.188 2.427-1.188 4.309v.514c0 1.833.396 3.245 1.188 4.235.792.991 1.925 1.486 3.395 1.486Zm13.72-17.838v3.853h3.117v2.103h-3.117v9.867c0 .638.139 1.118.417 1.441.277.314.751.471 1.42.471.328 0 .781-.059 1.357-.176v2.206a8.655 8.655 0 0 1-2.191.294c-1.276 0-2.238-.368-2.886-1.103-.648-.735-.972-1.78-.972-3.133v-9.867h-3.041v-2.103h3.041V50.94h2.855Zm32.022 19.764h-2.979l-11.311-16.5v16.5h-2.979V49.294h2.979l11.342 16.573V49.294h2.948v21.412Zm15.124 0c-.165-.313-.299-.872-.402-1.676-1.327 1.314-2.911 1.971-4.753 1.971-1.646 0-2.999-.441-4.058-1.324-1.05-.892-1.575-2.02-1.575-3.382 0-1.657.658-2.941 1.976-3.853 1.327-.922 3.189-1.383 5.586-1.383h2.778v-1.25c0-.95-.299-1.706-.895-2.264-.597-.569-1.477-.853-2.639-.853-1.019 0-1.872.245-2.561.735-.69.49-1.035 1.083-1.035 1.78h-2.87c0-.794.293-1.56.879-2.295.597-.745 1.4-1.333 2.408-1.764 1.019-.431 2.134-.648 3.349-.648 1.923 0 3.431.461 4.521 1.383 1.091.912 1.657 2.172 1.698 3.78v7.323c0 1.461.196 2.622.587 3.485v.236h-2.994Zm-4.738-2.073c.895 0 1.744-.22 2.547-.662.801-.441 1.383-1.014 1.743-1.72v-3.265h-2.238c-3.498 0-5.247.975-5.247 2.926 0 .853.299 1.52.895 2 .597.48 1.364.721 2.3.721Zm15.494-17.69v3.852h3.117v2.103h-3.117v9.867c0 .638.139 1.118.417 1.441.278.314.751.471 1.42.471.328 0 .781-.059 1.358-.176v2.206a8.669 8.669 0 0 1-2.192.294c-1.275 0-2.238-.368-2.886-1.103-.648-.735-.972-1.78-.972-3.133v-9.867h-3.04v-2.103h3.04V50.94h2.855Zm9.568 19.764h-2.855V54.794h2.855v15.912Zm-3.087-20.133c0-.44.14-.813.417-1.117.288-.305.71-.456 1.265-.456.557 0 .978.151 1.266.456.288.304.432.676.432 1.117 0 .441-.144.809-.432 1.103-.288.294-.709.442-1.266.442-.555 0-.977-.148-1.265-.442-.277-.294-.417-.662-.417-1.103Zm13.18 16.442 4.135-12.221h2.918l-5.988 15.912h-2.177l-6.049-15.912h2.917l4.244 12.22ZM289.487 71c-2.263 0-4.105-.706-5.524-2.118-1.42-1.422-2.13-3.319-2.13-5.691v-.5c0-1.578.314-2.985.941-4.22.638-1.246 1.523-2.217 2.655-2.912a6.914 6.914 0 0 1 3.703-1.06c2.171 0 3.858.682 5.062 2.045 1.204 1.362 1.806 3.313 1.806 5.852v1.133h-11.312c.041 1.569.519 2.839 1.435 3.81.926.96 2.099 1.44 3.518 1.44 1.009 0 1.863-.196 2.562-.588a6.346 6.346 0 0 0 1.837-1.559l1.744 1.294c-1.399 2.049-3.498 3.074-6.297 3.074Zm-.355-14.265c-1.152 0-2.119.402-2.901 1.206-.782.794-1.266 1.912-1.45 3.353h8.364v-.206c-.083-1.382-.474-2.451-1.173-3.206-.7-.764-1.646-1.147-2.84-1.147ZM109 60.006c0-4.017-4.977-7.824-12.609-10.184 1.761-7.861.978-14.115-2.47-16.118-.796-.47-1.725-.692-2.74-.692v2.757c.563 0 1.015.11 1.394.32 1.663.965 2.385 4.636 1.822 9.357a38.324 38.324 0 0 1-.623 3.634 58.73 58.73 0 0 0-7.766-1.347c-1.651-2.287-3.363-4.363-5.088-6.18 3.987-3.745 7.73-5.797 10.273-5.797V33c-3.363 0-7.766 2.422-12.217 6.625-4.452-4.178-8.855-6.576-12.218-6.576v2.757c2.532 0 6.286 2.039 10.273 5.76a58.268 58.268 0 0 0-5.051 6.167c-2.764.297-5.381.754-7.778 1.36a37.658 37.658 0 0 1-.636-3.585c-.575-4.721.134-8.392 1.785-9.369.367-.222.844-.321 1.407-.321v-2.756c-1.027 0-1.957.222-2.764.692-3.437 2.002-4.207 8.244-2.434 16.08C53.953 52.207 49 56.002 49 60.006c0 4.017 4.978 7.824 12.609 10.185-1.761 7.86-.979 14.114 2.47 16.117.796.47 1.725.692 2.752.692 3.363 0 7.766-2.423 12.218-6.625 4.451 4.178 8.854 6.576 12.218 6.576 1.027 0 1.956-.223 2.764-.693 3.436-2.002 4.207-8.244 2.433-16.08C104.047 67.818 109 64.011 109 60.006Zm-15.923-8.244a56.054 56.054 0 0 1-1.651 4.882 58.561 58.561 0 0 0-1.603-2.966 67.115 67.115 0 0 0-1.76-2.892c1.736.26 3.412.58 5.014.976Zm-5.602 13.163a65.905 65.905 0 0 1-2.947 4.722c-1.822.16-3.669.247-5.528.247-1.847 0-3.694-.087-5.503-.235a68.192 68.192 0 0 1-2.96-4.697 64.651 64.651 0 0 1-2.544-4.919 64.61 64.61 0 0 1 2.532-4.931 65.967 65.967 0 0 1 2.947-4.722A62.964 62.964 0 0 1 79 50.143c1.847 0 3.694.087 5.503.235a68.192 68.192 0 0 1 2.96 4.697 64.6 64.6 0 0 1 2.544 4.919 69.431 69.431 0 0 1-2.532 4.931Zm3.95-1.606a53.403 53.403 0 0 1 1.688 4.919 54.41 54.41 0 0 1-5.038.989c.599-.952 1.198-1.928 1.76-2.93a70.151 70.151 0 0 0 1.59-2.978Zm-12.4 13.188a50.857 50.857 0 0 1-3.4-3.956c1.1.05 2.225.087 3.363.087a61.4 61.4 0 0 0 3.4-.087 48.126 48.126 0 0 1-3.364 3.956Zm-9.1-7.28a54.687 54.687 0 0 1-5.014-.977 56.03 56.03 0 0 1 1.651-4.882 58.782 58.782 0 0 0 1.602 2.966 82.392 82.392 0 0 0 1.761 2.893Zm9.038-25.721a50.8 50.8 0 0 1 3.4 3.955c-1.1-.05-2.226-.087-3.363-.087-1.15 0-2.287.025-3.4.087a48.104 48.104 0 0 1 3.363-3.955Zm-9.05 7.28a68.697 68.697 0 0 0-3.35 5.895 53.274 53.274 0 0 1-1.688-4.919 58.826 58.826 0 0 1 5.038-.976ZM58.845 66.26c-4.33-1.866-7.13-4.313-7.13-6.254 0-1.94 2.8-4.4 7.13-6.254 1.052-.457 2.202-.865 3.388-1.248a59.77 59.77 0 0 0 2.752 7.527 58.904 58.904 0 0 0-2.715 7.49 36.937 36.937 0 0 1-3.425-1.26Zm6.58 17.662c-1.663-.964-2.385-4.635-1.822-9.356.134-1.162.354-2.386.623-3.634a58.664 58.664 0 0 0 7.766 1.347c1.651 2.287 3.363 4.363 5.088 6.18-3.987 3.745-7.73 5.797-10.273 5.797-.55-.012-1.015-.124-1.382-.334Zm29.01-9.418c.574 4.722-.135 8.392-1.787 9.369-.366.222-.843.321-1.406.321-2.532 0-6.286-2.039-10.273-5.76a58.247 58.247 0 0 0 5.051-6.167c2.764-.297 5.381-.754 7.778-1.36.282 1.249.502 2.448.636 3.597Zm4.708-8.244c-1.052.458-2.202.865-3.388 1.249a59.77 59.77 0 0 0-2.752-7.528 58.868 58.868 0 0 0 2.715-7.49c1.211.383 2.36.804 3.437 1.261 4.329 1.866 7.13 4.314 7.13 6.254-.012 1.94-2.813 4.4-7.142 6.254Z"/><ellipse cx="78.884" cy="61.533" fill="#1EC9C1" rx="4.075" ry="4.076"/></svg>