<svg xmlns="http://www.w3.org/2000/svg" width="345" height="120" fill="none" viewBox="0 0 345 120"><path stroke="#912626" stroke-width="1.5" d="M.75 10A9.25 9.25 0 0 1 10 .75h325a9.25 9.25 0 0 1 9.25 9.25v100a9.25 9.25 0 0 1-9.25 9.25H10A9.25 9.25 0 0 1 .75 110V10Z"/><g clip-path="url(#clip0_7889_14368)"><path fill="#912626" d="M148.872 75.302c-3.603 1.878-22.269 9.552-26.242 11.624-3.974 2.072-6.182 2.052-9.321.551-3.139-1.5-23.002-9.524-26.58-11.234C84.94 75.388 84 74.667 84 73.985v-6.824s25.86-5.63 30.034-7.128c4.175-1.497 5.623-1.551 9.176-.25 3.553 1.302 24.796 5.134 28.307 6.42l-.001 6.728c0 .675-.81 1.415-2.644 2.37Z"/><path fill="#C6302B" d="M148.871 68.52c-3.603 1.877-22.268 9.552-26.242 11.623-3.973 2.072-6.181 2.052-9.32.551-3.139-1.5-23.002-9.524-26.58-11.234-3.578-1.71-3.652-2.887-.138-4.263 3.515-1.377 23.268-9.127 27.444-10.625 4.174-1.497 5.622-1.552 9.175-.25 3.553 1.302 22.106 8.686 25.617 9.972 3.512 1.288 3.647 2.347.044 4.225Z"/><path fill="#912626" d="M148.872 64.26c-3.603 1.88-22.269 9.553-26.242 11.626-3.974 2.071-6.182 2.05-9.321.55-3.139-1.5-23.002-9.524-26.58-11.234C84.94 64.347 84 63.627 84 62.945V56.12s25.86-5.63 30.034-7.127c4.175-1.498 5.623-1.553 9.176-.251s24.796 5.134 28.307 6.42l-.001 6.729c0 .674-.81 1.414-2.644 2.37Z"/><path fill="#C6302B" d="M148.871 57.478c-3.603 1.878-22.268 9.552-26.242 11.625-3.973 2.07-6.181 2.05-9.32.55-3.139-1.5-23.002-9.524-26.58-11.234-3.578-1.71-3.652-2.887-.138-4.264 3.515-1.376 23.269-9.126 27.444-10.624 4.174-1.497 5.622-1.551 9.175-.25 3.553 1.301 22.106 8.686 25.617 9.972 3.512 1.287 3.647 2.347.044 4.225Z"/><path fill="#912626" d="M148.872 52.809c-3.603 1.878-22.269 9.553-26.242 11.625-3.974 2.072-6.182 2.051-9.321.55-3.139-1.5-23.002-9.524-26.58-11.233C84.94 52.895 84 52.175 84 51.493v-6.825s25.86-5.63 30.034-7.127c4.175-1.498 5.623-1.551 9.176-.25s24.796 5.133 28.307 6.42l-.001 6.728c0 .674-.81 1.414-2.644 2.37Z"/><path fill="#C6302B" d="M148.87 46.023c-3.603 1.878-22.267 9.552-26.241 11.624-3.974 2.071-6.181 2.051-9.32.551-3.139-1.5-23.002-9.525-26.58-11.234-3.578-1.71-3.652-2.888-.138-4.264 3.515-1.376 23.268-9.126 27.443-10.624 4.175-1.498 5.623-1.551 9.176-.25 3.552 1.302 22.106 8.686 25.617 9.972 3.512 1.286 3.646 2.347.043 4.225Z"/><path fill="#fff" d="m126.01 39.386-5.805.602-1.299 3.127-2.099-3.489-6.703-.602 5.002-1.804-1.501-2.769 4.683 1.832 4.414-1.446-1.193 2.863 4.501 1.686Zm-7.451 15.17-10.833-4.494 15.523-2.383-4.69 6.877Zm-15.02-13.432c4.583 0 8.298 1.44 8.298 3.216 0 1.776-3.715 3.216-8.298 3.216-4.582 0-8.297-1.44-8.297-3.216 0-1.776 3.715-3.216 8.297-3.216Z"/><path fill="#621B1C" d="m132.869 40.239 9.188 3.63-9.18 3.627-.008-7.258Z"/><path fill="#9A2928" d="m122.707 44.26 10.165-4.02.007 7.258-.996.39-9.176-3.627Z"/></g><path fill="#5B5C5E" d="M169.177 73.672V52.747h5.626v3.651h.218c.382-1.299 1.022-2.28 1.921-2.943.899-.672 1.935-1.008 3.106-1.008.291 0 .604.019.94.055.336.036.631.086.886.15v5.15a7.618 7.618 0 0 0-1.131-.219 10.167 10.167 0 0 0-1.321-.095c-.854 0-1.617.186-2.289.558a4.108 4.108 0 0 0-1.58 1.526c-.382.654-.572 1.408-.572 2.262v11.838h-5.804Zm24.259.409c-2.152 0-4.005-.436-5.558-1.308-1.544-.881-2.734-2.125-3.569-3.733-.836-1.617-1.253-3.528-1.253-5.735 0-2.153.417-4.042 1.253-5.667.835-1.626 2.011-2.893 3.528-3.801 1.526-.908 3.315-1.362 5.368-1.362 1.38 0 2.665.222 3.855.667a8.548 8.548 0 0 1 3.133 1.975c.899.881 1.599 1.99 2.098 3.325.5 1.325.749 2.879.749 4.658v1.594h-17.669v-3.596h12.207c0-.836-.182-1.576-.545-2.22a3.909 3.909 0 0 0-1.513-1.513c-.635-.372-1.375-.558-2.22-.558-.881 0-1.662.204-2.343.613-.672.4-1.199.94-1.58 1.62a4.572 4.572 0 0 0-.586 2.249v3.419c0 1.035.19 1.93.572 2.684.39.754.94 1.335 1.648 1.743.709.41 1.549.614 2.521.614a5.49 5.49 0 0 0 1.771-.273 3.675 3.675 0 0 0 1.375-.817 3.55 3.55 0 0 0 .872-1.335l5.368.354a7.332 7.332 0 0 1-1.676 3.378c-.835.954-1.916 1.699-3.242 2.234-1.317.527-2.838.79-4.564.79Zm21.102-.069c-1.589 0-3.029-.408-4.318-1.226-1.281-.826-2.298-2.038-3.052-3.637-.745-1.607-1.117-3.578-1.117-5.912 0-2.398.386-4.391 1.158-5.98.772-1.6 1.798-2.793 3.079-3.584a7.887 7.887 0 0 1 4.236-1.198c1.172 0 2.148.2 2.929.6.79.39 1.426.88 1.908 1.47.49.582.862 1.154 1.117 1.717h.177v-10.49h5.789v27.9h-5.721V70.32h-.245a7.514 7.514 0 0 1-1.158 1.73c-.491.563-1.131 1.03-1.921 1.403-.781.372-1.735.558-2.861.558Zm1.839-4.618c.936 0 1.726-.254 2.371-.763.653-.517 1.153-1.24 1.498-2.166.354-.926.531-2.011.531-3.256 0-1.244-.172-2.325-.517-3.242-.345-.917-.845-1.625-1.499-2.125-.654-.5-1.448-.75-2.384-.75-.953 0-1.757.26-2.411.777-.654.518-1.149 1.236-1.485 2.153-.336.917-.504 1.98-.504 3.188 0 1.217.168 2.293.504 3.228.345.927.84 1.653 1.485 2.18.654.517 1.458.776 2.411.776Zm14.839 4.278V52.747h5.803v20.925h-5.803Zm2.915-23.622c-.863 0-1.603-.286-2.22-.858-.609-.582-.913-1.276-.913-2.085 0-.799.304-1.485.913-2.057.617-.581 1.357-.872 2.22-.872.863 0 1.599.29 2.207.872.618.572.926 1.258.926 2.057 0 .809-.308 1.503-.926 2.084-.608.573-1.344.859-2.207.859Zm24.947 8.664-5.313.327a2.746 2.746 0 0 0-.586-1.226 3.1 3.1 0 0 0-1.185-.886c-.481-.227-1.058-.34-1.73-.34-.899 0-1.657.19-2.275.572-.618.372-.926.872-.926 1.498 0 .5.2.922.599 1.267.4.346 1.085.622 2.057.831l3.787.763c2.035.418 3.551 1.09 4.55 2.016.999.927 1.499 2.144 1.499 3.651 0 1.372-.404 2.575-1.213 3.61-.799 1.036-1.898 1.844-3.296 2.425-1.39.573-2.993.859-4.809.859-2.77 0-4.977-.577-6.621-1.73-1.635-1.163-2.593-2.743-2.874-4.741l5.708-.3c.172.845.59 1.49 1.253 1.934.663.436 1.512.654 2.547.654 1.018 0 1.835-.195 2.453-.585.626-.4.944-.913.953-1.54-.009-.527-.231-.958-.667-1.294-.436-.345-1.108-.608-2.017-.79l-3.623-.722c-2.044-.409-3.565-1.117-4.564-2.125-.99-1.008-1.485-2.294-1.485-3.856 0-1.344.363-2.502 1.09-3.473.736-.972 1.766-1.721 3.092-2.248 1.335-.527 2.898-.79 4.687-.79 2.643 0 4.722.558 6.239 1.675 1.526 1.117 2.416 2.639 2.67 4.564Z"/><defs><clipPath id="clip0_7889_14368"><path fill="#fff" d="M84 26h67.517v67.517H84z"/></clipPath></defs></svg>