<svg xmlns="http://www.w3.org/2000/svg" width="345" height="120" fill="none" viewBox="0 0 345 120"><rect width="343.5" height="118.5" x=".75" y=".75" stroke="#764ABC" stroke-width="1.5" rx="9.25"/><path fill="#000" d="M117.023 72V48.727h9.182c1.757 0 3.257.315 4.5.944 1.25.62 2.2 1.503 2.852 2.647.659 1.137.988 2.474.988 4.012 0 1.545-.333 2.875-1 3.988-.666 1.106-1.632 1.955-2.897 2.546-1.258.59-2.781.886-4.568.886h-6.148v-3.955h5.352c.939 0 1.72-.128 2.341-.386.621-.258 1.083-.644 1.386-1.159.311-.515.466-1.155.466-1.92 0-.773-.155-1.425-.466-1.955-.303-.53-.769-.932-1.397-1.205-.622-.28-1.406-.42-2.353-.42h-3.318V72h-4.92Zm12.568-10.59L135.375 72h-5.432l-5.659-10.59h5.307Zm16.014 10.93c-1.795 0-3.341-.363-4.636-1.09a7.472 7.472 0 0 1-2.978-3.114c-.696-1.348-1.045-2.943-1.045-4.784 0-1.795.349-3.37 1.045-4.727.697-1.356 1.679-2.413 2.944-3.17 1.272-.758 2.765-1.137 4.477-1.137 1.151 0 2.223.186 3.216.557 1 .364 1.871.913 2.613 1.648.75.735 1.334 1.659 1.75 2.772.417 1.106.625 2.402.625 3.887v1.33h-14.738v-3h10.182c0-.698-.152-1.315-.455-1.853a3.254 3.254 0 0 0-1.261-1.261c-.531-.31-1.148-.466-1.853-.466-.734 0-1.386.17-1.954.511a3.58 3.58 0 0 0-1.318 1.352 3.826 3.826 0 0 0-.489 1.875v2.853c0 .863.159 1.61.477 2.238a3.494 3.494 0 0 0 1.375 1.455c.591.34 1.292.511 2.103.511.538 0 1.03-.076 1.477-.227a3.073 3.073 0 0 0 1.148-.682 2.97 2.97 0 0 0 .727-1.114l4.477.296a6.107 6.107 0 0 1-1.398 2.818c-.696.796-1.598 1.417-2.704 1.864-1.099.44-2.367.659-3.807.659Zm17.602-.056c-1.325 0-2.526-.34-3.602-1.023-1.068-.689-1.917-1.7-2.545-3.034-.622-1.34-.932-2.985-.932-4.932 0-2 .322-3.662.966-4.988.644-1.334 1.5-2.33 2.568-2.989a6.581 6.581 0 0 1 3.534-1c.977 0 1.792.167 2.443.5.659.326 1.19.735 1.591 1.227.409.485.72.963.932 1.432h.148v-8.75h4.829V72h-4.773v-2.796h-.204a6.218 6.218 0 0 1-.966 1.444c-.409.47-.943.86-1.602 1.17-.652.31-1.447.466-2.387.466Zm1.534-3.852c.781 0 1.44-.212 1.978-.636.545-.432.962-1.035 1.25-1.807.295-.773.443-1.678.443-2.716 0-1.038-.144-1.94-.432-2.705-.288-.765-.704-1.356-1.25-1.773-.545-.416-1.208-.625-1.989-.625-.795 0-1.465.216-2.011.648-.545.432-.958 1.03-1.239 1.796-.28.765-.42 1.651-.42 2.659 0 1.015.14 1.913.42 2.693.288.773.701 1.379 1.239 1.818.546.432 1.216.648 2.011.648Zm23.571-3.864V54.545h4.841V72h-4.647v-3.17h-.182a5.153 5.153 0 0 1-1.966 2.466c-.909.62-2.019.931-3.33.931-1.166 0-2.193-.265-3.079-.795-.886-.53-1.58-1.284-2.08-2.261-.492-.978-.742-2.148-.75-3.512V54.545h4.841v10.25c.008 1.03.284 1.845.83 2.444.545.598 1.276.897 2.193.897a3.48 3.48 0 0 0 1.636-.397 3.124 3.124 0 0 0 1.228-1.205c.318-.53.473-1.186.465-1.966Zm12.759-10.023 3.205 6.103 3.284-6.103h4.966l-5.057 8.728L212.662 72h-4.943l-3.443-6.034L200.889 72h-5l5.182-8.727-5-8.728h5Zm20.94-1.76v-4.058h19.114v4.057H234V72h-4.864V52.784h-7.125Zm27.526 19.556c-1.765 0-3.292-.375-4.58-1.125a7.701 7.701 0 0 1-2.966-3.16c-.696-1.355-1.045-2.927-1.045-4.715 0-1.803.349-3.379 1.045-4.727.697-1.356 1.686-2.41 2.966-3.16 1.288-.757 2.815-1.136 4.58-1.136 1.765 0 3.288.379 4.568 1.137 1.288.75 2.28 1.803 2.977 3.159.697 1.348 1.046 2.924 1.046 4.727 0 1.788-.349 3.36-1.046 4.716a7.675 7.675 0 0 1-2.977 3.159c-1.28.75-2.803 1.125-4.568 1.125Zm.023-3.75c.803 0 1.473-.227 2.011-.682.538-.462.943-1.09 1.216-1.886.28-.796.42-1.701.42-2.716 0-1.015-.14-1.92-.42-2.716-.273-.796-.678-1.424-1.216-1.886-.538-.463-1.208-.694-2.011-.694-.811 0-1.493.231-2.046.694-.545.462-.958 1.09-1.238 1.886-.273.795-.41 1.7-.41 2.716 0 1.015.137 1.92.41 2.716.28.795.693 1.424 1.238 1.886.553.455 1.235.682 2.046.682Zm19.602 3.75c-1.765 0-3.292-.375-4.58-1.125a7.701 7.701 0 0 1-2.966-3.16c-.696-1.355-1.045-2.927-1.045-4.715 0-1.803.349-3.379 1.045-4.727.697-1.356 1.686-2.41 2.966-3.16 1.288-.757 2.815-1.136 4.58-1.136 1.765 0 3.288.379 4.568 1.137 1.288.75 2.28 1.803 2.977 3.159.697 1.348 1.046 2.924 1.046 4.727 0 1.788-.349 3.36-1.046 4.716a7.675 7.675 0 0 1-2.977 3.159c-1.28.75-2.803 1.125-4.568 1.125Zm.023-3.75c.803 0 1.473-.227 2.011-.682.538-.462.943-1.09 1.216-1.886.28-.796.42-1.701.42-2.716 0-1.015-.14-1.92-.42-2.716-.273-.796-.678-1.424-1.216-1.886-.538-.463-1.208-.694-2.011-.694-.811 0-1.493.231-2.046.694-.545.462-.958 1.09-1.238 1.886-.273.795-.41 1.7-.41 2.716 0 1.015.137 1.92.41 2.716.28.795.693 1.424 1.238 1.886.553.455 1.235.682 2.046.682Zm16.556-19.864V72h-4.84V48.727h4.84Zm8.265 18.25.011-5.807h.705l5.59-6.625h5.557l-7.511 8.773h-1.148l-3.204 3.66ZM289.619 72V48.727h4.841V72h-4.841Zm10.909 0-5.136-7.602 3.227-3.42L306.199 72h-5.671Zm7.716 0V54.545h4.841V72h-4.841Zm2.432-19.705c-.72 0-1.337-.238-1.852-.715-.508-.485-.762-1.065-.762-1.74 0-.666.254-1.238.762-1.715a2.607 2.607 0 0 1 1.852-.727c.72 0 1.333.242 1.841.727.515.477.773 1.05.773 1.716 0 .674-.258 1.254-.773 1.739-.508.477-1.121.715-1.841.715Zm15.571 2.25v3.637h-10.511v-3.637h10.511Zm-8.125-4.181h4.841v16.272c0 .447.068.796.205 1.046.136.242.325.413.568.511.25.099.538.148.863.148.228 0 .455-.019.682-.057.228-.045.402-.08.523-.102l.761 3.602c-.242.076-.583.163-1.022.261-.44.106-.974.17-1.603.194-1.166.045-2.189-.11-3.068-.466-.871-.356-1.549-.91-2.034-1.66-.485-.75-.723-1.696-.716-2.84v-16.91Z"/><g clip-path="url(#clip0_7880_14830)"><path fill="#764ABC" d="M77.942 76.361c3.192-.33 5.614-3.083 5.504-6.385-.11-3.303-2.862-5.945-6.165-5.945h-.22c-3.413.11-6.055 2.972-5.945 6.385.11 1.651.77 3.083 1.761 4.073-3.742 7.376-9.467 12.77-18.054 17.284-5.834 3.083-11.889 4.184-17.943 3.414-4.954-.661-8.807-2.863-11.23-6.496-3.522-5.394-3.852-11.23-.88-17.064 2.092-4.183 5.394-7.266 7.486-8.807-.44-1.431-1.101-3.853-1.431-5.615-15.963 11.56-14.311 27.193-9.468 34.569 3.633 5.504 11.009 8.917 19.155 8.917 2.202 0 4.404-.22 6.605-.77 14.092-2.753 24.77-11.12 30.825-23.56ZM97.317 62.71C88.95 52.912 76.62 47.517 62.53 47.517h-1.762c-.99-1.981-3.082-3.303-5.394-3.303h-.22c-3.413.11-6.055 2.973-5.945 6.386.11 3.303 2.862 5.945 6.165 5.945h.22c2.422-.11 4.514-1.652 5.394-3.743h1.982c8.367 0 16.293 2.422 23.448 7.156 5.505 3.633 9.468 8.367 11.67 14.091 1.87 4.624 1.76 9.137-.22 12.99-3.083 5.835-8.257 9.028-15.082 9.028-4.404 0-8.587-1.321-10.79-2.312-1.21 1.101-3.412 2.862-4.953 3.964 4.734 2.201 9.578 3.412 14.201 3.412 10.569 0 18.385-5.835 21.357-11.67 3.192-6.385 2.972-17.394-5.284-26.751ZM41.393 78.232c.11 3.303 2.862 5.945 6.165 5.945h.22c3.413-.11 6.055-2.972 5.944-6.385-.11-3.303-2.862-5.945-6.164-5.945h-.22c-.22 0-.551 0-.77.11-4.514-7.486-6.386-15.633-5.725-24.44.44-6.605 2.642-12.33 6.495-17.064 3.192-4.073 9.357-6.055 13.54-6.165 11.67-.22 16.623 14.311 16.954 20.146 1.43.33 3.853 1.102 5.504 1.652-1.321-17.834-12.33-27.082-22.898-27.082-9.908 0-19.045 7.156-22.678 17.724-5.064 14.092-1.761 27.633 4.403 38.312-.55.77-.88 1.981-.77 3.192Z"/></g><defs><clipPath id="clip0_7880_14830"><path fill="#fff" d="M18 19h86.509v82.46H18z"/></clipPath></defs></svg>