<svg xmlns="http://www.w3.org/2000/svg" width="345" height="120" fill="none" viewBox="0 0 345 120"><path stroke="#9C1559" stroke-width="1.5" d="M.75 10A9.25 9.25 0 0 1 10 .75h325a9.25 9.25 0 0 1 9.25 9.25v100a9.25 9.25 0 0 1-9.25 9.25H10A9.25 9.25 0 0 1 .75 110V10Z"/><path fill="#CF649A" d="M221.354 67.423c-4.686.026-8.743 1.146-12.145 2.814-1.257-2.475-2.513-4.638-2.722-6.254-.236-1.876-.524-3.023-.236-5.264.288-2.24 1.597-5.42 1.597-5.68-.027-.235-.288-1.382-2.984-1.408-2.696-.026-5.026.521-5.287 1.225-.262.704-.785 2.32-1.126 3.987-.471 2.45-5.392 11.127-8.192 15.687-.916-1.772-1.702-3.335-1.859-4.586-.235-1.876-.523-3.023-.235-5.264.288-2.241 1.596-5.42 1.596-5.68-.026-.235-.287-1.382-2.983-1.408-2.696-.026-5.026.521-5.287 1.225-.262.703-.55 2.371-1.126 3.987-.55 1.615-7.093 16.104-8.795 19.883a79.831 79.831 0 0 1-2.172 4.508c-.55 1.042-.026.078-.079.182-.471.886-.732 1.381-.732 1.381v.027c-.367.651-.76 1.276-.943 1.276-.131 0-.393-1.746.052-4.143.969-5.03 3.324-12.873 3.299-13.16 0-.13.444-1.511-1.519-2.214-1.911-.704-2.591.469-2.748.469-.157 0-.288.417-.288.417s2.12-8.834-4.057-8.834c-3.874 0-9.213 4.195-11.857 8.026-1.675.912-5.235 2.84-9.004 4.9-1.439.78-2.931 1.615-4.345 2.37l-.287-.313c-7.486-7.948-21.332-13.576-20.756-24.26.209-3.883 1.57-14.124 26.593-26.528 20.494-10.163 36.905-7.375 39.758-1.173 4.057 8.86-8.768 25.33-30.074 27.7-8.114.913-12.38-2.215-13.453-3.387-1.126-1.225-1.283-1.277-1.702-1.042-.68.364-.261 1.459 0 2.11.628 1.642 3.246 4.56 7.696 6.02 3.899 1.277 13.427 1.98 24.943-2.45 12.904-4.977 22.981-18.788 20.024-30.332-3.01-11.752-22.589-15.61-41.094-9.068-11.019 3.908-22.955 10.006-31.54 18.006-10.208 9.485-11.831 17.772-11.15 21.212 2.382 12.274 19.369 20.274 26.174 26.189-.34.182-.654.365-.942.521-3.403 1.668-16.359 8.417-19.605 15.557-3.664 8.078.576 13.889 3.403 14.671 8.742 2.424 17.694-1.928 22.536-9.094 4.816-7.166 4.24-16.47 2.015-20.717l-.078-.156 2.669-1.564a160.53 160.53 0 0 1 4.921-2.762c-.837 2.267-1.439 4.95-1.753 8.86-.367 4.586 1.518 10.527 4.004 12.873 1.1 1.016 2.408 1.042 3.22 1.042 2.879 0 4.188-2.372 5.627-5.212 1.78-3.466 3.351-7.479 3.351-7.479s-1.964 10.867 3.402 10.867c1.963 0 3.926-2.528 4.816-3.83v.025s.053-.078.157-.26c.11-.162.215-.327.314-.495v-.052c.786-1.355 2.539-4.456 5.157-9.59 3.376-6.619 6.622-14.905 6.622-14.905s.314 2.032 1.282 5.368c.576 1.98 1.832 4.143 2.801 6.254-.786 1.094-1.257 1.72-1.257 1.72l.026.026a72.569 72.569 0 0 1-2.067 2.606c-2.67 3.179-5.863 6.801-6.282 7.844-.497 1.224-.392 2.136.576 2.866.707.521 1.963.625 3.298.521 2.408-.156 4.083-.755 4.921-1.12a17.084 17.084 0 0 0 4.24-2.215c2.617-1.928 4.214-4.665 4.057-8.313-.079-2.006-.733-3.987-1.544-5.863.235-.339.471-.678.706-1.042 4.136-6.02 7.329-12.639 7.329-12.639s.314 2.033 1.283 5.368c.497 1.694 1.492 3.544 2.381 5.369-3.873 3.153-6.308 6.8-7.145 9.198-1.544 4.43-.34 6.437 1.937 6.906 1.02.208 2.486-.26 3.585-.73a16.29 16.29 0 0 0 4.529-2.319c2.617-1.928 5.13-4.612 4.999-8.235-.078-1.667-.523-3.309-1.125-4.873 3.298-1.355 7.564-2.136 12.982-1.485 11.647 1.355 13.951 8.6 13.506 11.622-.445 3.023-2.879 4.69-3.691 5.212-.811.495-1.073.678-.994 1.042.104.548.471.522 1.177.418.969-.157 6.125-2.476 6.335-8.052.314-7.168-6.518-14.985-18.636-14.907Zm-89.83 30.15c-3.848 4.195-9.266 5.785-11.569 4.43-2.487-1.434-1.518-7.61 3.219-12.066 2.88-2.71 6.622-5.211 9.083-6.749.549-.338 1.387-.833 2.382-1.433a2.83 2.83 0 0 1 .261-.156c.184-.105.393-.235.602-.365 1.754 6.358.079 11.935-3.978 16.339Zm28.137-19.05c-1.335 3.258-4.162 11.623-5.863 11.154-1.466-.39-2.356-6.723-.288-12.977 1.047-3.154 3.272-6.906 4.58-8.365 2.121-2.346 4.424-3.127 5-2.163.68 1.25-2.591 10.32-3.429 12.352Zm23.217 11.05c-.576.287-1.1.495-1.335.339-.183-.105.235-.495.235-.495s2.905-3.101 4.057-4.535c.654-.833 1.44-1.797 2.277-2.892v.313c0 3.752-3.612 6.253-5.234 7.27Zm17.902-4.065c-.418-.313-.366-1.277 1.047-4.3.55-1.199 1.806-3.205 3.979-5.108.262.782.419 1.538.393 2.241-.026 4.691-3.377 6.437-5.419 7.167Z"/></svg>