<svg xmlns="http://www.w3.org/2000/svg" width="345" height="120" fill="none" viewBox="0 0 345 120"><rect width="343.5" height="118.5" x=".75" y=".75" stroke="#08599D" stroke-width="1.5" rx="9.25"/><path fill="#FD5750" fill-rule="evenodd" d="M45 80.603h15.348l-4.755 14.359H45V80.603Zm0-27.301h24.386l-4.73 14.358H45V53.302ZM45 26h33.425l-4.754 14.359H45V26Zm48.551 0h38.153v14.359H88.796L93.551 26ZM79.757 67.655l4.755-14.358h47.192v14.358H79.757Zm-4.284 12.94h56.231v14.36H70.716l4.757-14.36Z" clip-rule="evenodd"/><path fill="#000" fill-rule="evenodd" d="m206.069 67.923 3.695-11.172 3.122.01-4.923 14.25h-3.887l-4.641-14.26h3.243l3.391 11.172Zm43.061-18.33v18.65h4.311v2.77h-7.364V52.171h-3.043v-2.577h6.096Zm-14.62 9.8c.062-.242.705-2.768 3.206-2.768h4.292v3.088h-4.753c-1.174 0-2.553.986-2.553 2.597l-.012 8.706h-3.144V56.719l2.91-.005.054 2.678Zm44.105 2.934c2.293.247 5.763.678 5.948 4.218.089 1.662-.572 2.703-1.139 3.28-1.468 1.492-3.798 1.59-5.419 1.534-3.169-.111-5.894-1.43-6.007-1.49l1.319-2.688c.02.01 2.136 1.147 4.642 1.337 3.748.283 3.778-1.194 3.748-1.82-.044-.832-.789-1.093-3.44-1.406-2.355-.277-5.914-.696-5.998-4.42-.025-1.15.377-2.17 1.171-2.955 1.061-1.048 2.792-1.61 4.755-1.541 2.999.104 5.579.9 5.688.932l-.888 2.861a21.312 21.312 0 0 0-4.903-.799c-1.09-.037-2.092.23-2.548.678-.205.198-.289.434-.284.757.025.871.464 1.177 3.359 1.517l-.004.005Zm21.244 4.193c.089 1.662-.572 2.703-1.139 3.28-1.468 1.492-3.798 1.59-5.419 1.534-3.169-.111-5.894-1.43-6.008-1.49l1.219-2.48c.019.01 2.237.941 4.742 1.129 3.749.283 3.779-1.194 3.749-1.82-.044-.831-.789-1.093-3.44-1.406-2.356-.276-5.915-.698-6.001-4.42-.024-1.149.378-2.17 1.172-2.954 1.06-1.048 2.791-1.61 4.755-1.542 1.926.082 3.835.395 5.687.933l-.888 2.855c-.025-.007-2.318-.799-4.903-.799-2.279 0-2.831.728-2.831 1.436 0 .87.463 1.176 3.359 1.517 2.293.246 5.764.678 5.948 4.217l-.002.01Zm-138.955-4.193c2.294.247 5.764.678 5.949 4.218.089 1.662-.572 2.703-1.14 3.28-1.467 1.492-3.798 1.59-5.418 1.534-3.169-.111-5.894-1.43-6.008-1.49l1.32-2.688c.019.01 2.135 1.147 4.641 1.337 3.749.283 3.778-1.194 3.749-1.82-.045-.832-.789-1.093-3.441-1.406-2.355-.277-5.914-.696-6-4.42-.025-1.15.377-2.17 1.171-2.955 1.061-1.048 2.792-1.61 4.755-1.541 1.927.082 3.836.395 5.688.932l-.888 2.861c-.025-.007-2.319-.71-4.903-.799-1.09-.037-2.092.23-2.548.678-.205.198-.291.434-.283.757.019.871.463 1.177 3.359 1.517l-.003.005ZM262.51 56.36c6.738 0 6.738 6.856 6.738 6.856v1.835h-10.704c0 1.744 1.522 3.618 4.341 3.618 2.357 0 4.801-.952 4.801-.952l.78 2.451s-3.004 1.201-5.833 1.201c-6.74 0-7.241-5.993-7.241-7.613s1.135-7.396 7.118-7.396Zm3.827 6.106s.139-3.386-3.827-3.386c-3.586 0-4.003 3.386-4.003 3.386h7.83Zm-44.767-6.099c6.737 0 6.737 6.856 6.737 6.856v1.835h-10.703c0 1.744 1.521 3.618 4.34 3.618 2.358 0 4.802-.952 4.802-.952l.78 2.452s-3.004 1.2-5.833 1.2c-6.74 0-7.241-5.992-7.241-7.612s1.134-7.397 7.118-7.397Zm3.827 6.107s.138-3.387-3.827-3.387c-3.586 0-4.003 3.387-4.003 3.387h7.83Zm-49.047-6.107c6.738 0 6.738 6.856 6.738 6.856v1.835h-10.703c0 1.744 1.521 3.618 4.34 3.618 2.358 0 4.802-.952 4.802-.952l.779 2.452s-3.003 1.2-5.832 1.2c-6.741 0-7.244-5.992-7.244-7.612s1.14-7.4 7.118-7.4l.002.003Zm3.828 6.107s.138-3.387-3.828-3.387c-3.586 0-4.002 3.387-4.002 3.387h7.83Zm8.997-3.078c.062-.242.705-2.767 3.206-2.767h4.292v3.087h-4.755c-1.174 0-2.553.987-2.553 2.597l-.015 8.706h-3.144V56.721l2.91-.005.059 2.679Z" clip-rule="evenodd"/></svg>