<svg width="613" height="421" viewBox="0 0 613 421" fill="none" xmlns="http://www.w3.org/2000/svg">
<g clip-path="url(#clip0_5660_141618)">
<path d="M93.7276 225.27C91.3294 225.27 88.9858 224.634 86.9146 223.453L8.46603 178.156C7.23062 177.448 6.50391 176.157 6.50391 174.74C6.50391 173.323 7.24879 172.033 8.46603 171.324L150.393 89.3785C150.629 89.2332 150.938 89.2332 151.174 89.3785L236.036 138.382C237.271 139.091 237.998 140.381 237.998 141.798C237.998 143.216 237.253 144.506 236.036 145.214L100.522 223.453C98.4693 224.634 96.1075 225.27 93.7276 225.27ZM150.793 90.9593L9.26541 172.687C8.52053 173.123 8.08451 173.886 8.08451 174.74C8.08451 175.594 8.52053 176.357 9.26541 176.793L87.6958 222.091C91.3476 224.198 96.0894 224.198 99.7411 222.091L235.255 143.852C236 143.434 236.436 142.652 236.436 141.798C236.436 140.944 236 140.181 235.255 139.745L150.793 90.9593Z" fill="white"/>
<path d="M246.214 116.366L237.984 120.672L155.43 72.9944C154.049 72.1949 151.633 72.3039 150.034 73.2124L7.63457 155.449C6.27198 154.686 0.0585938 151.706 0.0585938 151.706L3.07445 159.555C3.07445 159.555 3.09262 159.555 3.09262 159.537C3.21979 159.882 3.49231 160.209 3.92834 160.464L90.8795 210.667C92.2602 211.466 94.6765 211.357 96.2753 210.449L241.999 126.305C242.653 125.923 243.053 125.469 243.217 124.996H243.235L246.214 116.366Z" fill="#0E49B6"/>
<path d="M244.942 117.728L95.6029 203.962C93.9678 204.907 91.497 205.016 90.0799 204.198L0.966811 152.723C-0.450278 151.905 -0.2686 150.47 1.3665 149.525L150.706 63.2912C152.341 62.3464 154.812 62.2374 156.229 63.055L245.342 114.512C246.759 115.348 246.577 116.783 244.942 117.728Z" fill="url(#paint0_linear_5660_141618)"/>
<path d="M244.941 116.873L95.6019 203.107C93.9668 204.052 91.496 204.161 90.0789 203.343L0.965763 151.868C0.511568 151.596 0.220883 151.268 0.0937087 150.905C-0.124305 151.577 0.130044 152.25 0.965763 152.722L90.0789 204.179C91.496 204.997 93.9668 204.888 95.6019 203.943L244.941 117.709C246.05 117.073 246.467 116.219 246.195 115.492C246.049 115.983 245.632 116.473 244.941 116.873Z" fill="white"/>
<path d="M50.5625 185.302V183.666C50.5625 183.503 50.6533 183.448 50.7805 183.503L56.5579 186.846C56.6669 186.919 56.7759 187.1 56.7759 187.246V188.881C56.7759 189.045 56.6851 189.099 56.5579 189.045L50.7805 185.701C50.6533 185.647 50.5625 185.465 50.5625 185.302Z" fill="white"/>
<path d="M59.1973 190.298V188.662C59.1973 188.499 59.2881 188.444 59.4153 188.499L65.1926 191.842C65.3016 191.915 65.4106 192.097 65.4106 192.242V193.877C65.4106 194.041 65.3198 194.095 65.1926 194.041L59.4153 190.697C59.2881 190.625 59.1973 190.443 59.1973 190.298Z" fill="white"/>
<path d="M51.1996 164.424L175.304 92.7625C176.14 92.2901 177.157 92.2901 177.975 92.7625L222.177 118.327C222.813 118.691 222.813 119.617 222.177 119.981L98.127 191.606C97.3095 192.079 96.2739 192.079 95.4563 191.606L51.1996 166.078C50.5637 165.714 50.5637 164.788 51.1996 164.424Z" fill="#E2E7F0"/>
<path d="M51.1996 166.078L51.6356 166.332L175.304 94.9247C176.14 94.4523 177.157 94.4523 177.975 94.9247L221.723 120.235L222.159 119.981C222.794 119.617 222.794 118.691 222.159 118.327L177.975 92.7625C177.139 92.2901 176.121 92.2901 175.304 92.7625L51.1996 164.424C50.5637 164.788 50.5637 165.714 51.1996 166.078Z" fill="white"/>
<path d="M181.316 99.2487L67.0043 165.26L61.3359 162.988L176.52 96.4688L181.316 99.2487Z" fill="#043183"/>
<path d="M193.073 106.025L91.9506 164.423L87.1543 161.643L188.276 103.264L193.073 106.025Z" fill="#043183"/>
<path d="M200.723 110.441L81.6693 179.196L76.873 176.416L195.927 107.68L200.723 110.441Z" fill="#043183"/>
<path d="M208.369 114.874L89.3152 183.61L84.5371 180.848L203.591 112.094L208.369 114.874Z" fill="#043183"/>
<path d="M216.037 119.289L96.9838 188.025L92.1875 185.264L211.241 116.527L216.037 119.289Z" fill="#043183"/>
<path d="M67.0067 165.26L62.2104 168.022L57.4141 165.26L62.2104 162.48L67.0067 165.26Z" fill="#043183"/>
<path d="M97.7641 161.062L73.9643 174.799L69.168 172.037L93.1495 158.191L97.7641 161.062Z" fill="#043183"/>
<path d="M95.3871 132.32L128.852 113.006C130.16 112.243 130.16 111.025 128.852 110.262L105.961 97.0528C104.653 96.2897 102.527 96.2897 101.219 97.0528L67.7721 116.367C66.464 117.13 66.464 118.348 67.7721 119.111L90.6635 132.32C91.9534 133.065 94.0791 133.065 95.3871 132.32Z" fill="#3A38C5"/>
<path d="M67.7739 117.494L101.239 98.1793C102.547 97.4162 104.673 97.4162 105.981 98.1793L128.872 111.389C129.272 111.625 129.544 111.898 129.69 112.188C130.035 111.534 129.781 110.789 128.872 110.262L105.981 97.0528C104.673 96.2897 102.547 96.2897 101.239 97.0528L67.7739 116.367C66.8655 116.894 66.6112 117.639 66.9564 118.293C67.1017 118.003 67.3742 117.712 67.7739 117.494Z" fill="white"/>
<path d="M245.977 114.162L227.101 2.14569L228.627 1.50974L226.338 0.201519V0.219689C225.902 -0.0710274 225.266 -0.0528576 224.576 0.346878L73.7103 87.4528C72.4749 88.1615 71.5302 89.9966 71.7482 91.2867L90.7699 204.194C90.8607 204.775 91.1514 205.175 91.5693 205.338L93.8039 206.628L94.1855 204.539L94.0583 204.575L244.015 117.978C245.269 117.269 246.195 115.434 245.977 114.162Z" fill="#638DDD"/>
<path d="M74.5423 90.5043L72.0533 89.4141C71.7808 90.05 71.6354 90.7223 71.7263 91.2856L90.748 204.193C90.8388 204.774 91.1295 205.174 91.5473 205.337L93.782 206.627L94.1635 204.538L94.0363 204.574L101.63 200.195L74.5423 90.5043Z" fill="#566EA9"/>
<path d="M246.393 119.342L95.5093 206.466C94.3465 207.139 93.3473 206.757 93.1475 205.54L74.1076 92.6328C73.8896 91.3427 74.8343 89.5076 76.0697 88.7989L226.953 1.67481C228.116 1.00252 229.115 1.38409 229.315 2.60147L248.337 115.509C248.573 116.799 247.628 118.634 246.393 119.342Z" fill="#073EA4"/>
<path d="M519.277 225.27C516.879 225.27 514.535 224.634 512.464 223.453L376.95 145.214C375.715 144.506 374.988 143.234 374.988 141.798C374.988 140.381 375.733 139.091 376.95 138.382L461.812 89.3785C462.048 89.2332 462.357 89.2332 462.593 89.3785L604.52 171.324C605.756 172.033 606.483 173.323 606.483 174.74C606.483 176.157 605.738 177.448 604.52 178.156L526.072 223.453C524.037 224.634 521.675 225.27 519.277 225.27ZM513.264 222.073C516.915 224.18 521.657 224.18 525.309 222.073L603.757 176.775C604.502 176.339 604.938 175.576 604.938 174.722C604.938 173.868 604.502 173.105 603.757 172.669L462.23 90.9412L377.75 139.727C377.005 140.163 376.569 140.926 376.569 141.78C376.569 142.634 377.005 143.397 377.75 143.833L513.264 222.073Z" fill="white"/>
<path d="M366.799 116.36L375.029 120.666L457.602 72.9885C458.982 72.189 461.399 72.298 462.997 73.2065L605.397 155.425C606.759 154.662 612.973 151.682 612.973 151.682L609.957 159.531C609.957 159.531 609.939 159.531 609.939 159.513C609.811 159.858 609.539 160.185 609.103 160.44L522.152 210.643C520.771 211.442 518.355 211.333 516.756 210.425L371.032 126.28C370.378 125.899 369.978 125.445 369.815 124.972H369.797L366.799 116.36Z" fill="#244291"/>
<path d="M368.07 117.723L517.409 203.957C519.044 204.902 521.515 205.011 522.932 204.193L612.045 152.737C613.462 151.919 613.281 150.484 611.645 149.539L462.306 63.3049C460.671 62.3601 458.2 62.251 456.783 63.0687L367.67 114.526C366.253 115.343 366.435 116.779 368.07 117.723Z" fill="url(#paint1_linear_5660_141618)"/>
<path d="M368.071 116.869L517.41 203.102C519.045 204.047 521.516 204.156 522.933 203.339L612.046 151.882C612.518 151.609 612.791 151.282 612.918 150.919C613.136 151.591 612.882 152.263 612.046 152.736L522.933 204.193C521.516 205.01 519.045 204.901 517.41 203.956L368.071 117.723C366.962 117.087 366.544 116.233 366.817 115.506C366.962 115.978 367.38 116.469 368.071 116.869Z" fill="white"/>
<path d="M562.467 185.296V183.661C562.467 183.497 562.376 183.442 562.249 183.497L556.472 186.84C556.363 186.913 556.254 187.095 556.254 187.24V188.875C556.254 189.039 556.345 189.093 556.472 189.039L562.249 185.696C562.358 185.641 562.467 185.459 562.467 185.296Z" fill="white"/>
<path d="M553.819 190.294V188.659C553.819 188.495 553.728 188.441 553.601 188.495L547.823 191.838C547.714 191.911 547.605 192.093 547.605 192.238V193.873C547.605 194.037 547.696 194.091 547.823 194.037L553.601 190.694C553.728 190.621 553.819 190.439 553.819 190.294Z" fill="white"/>
<path d="M561.81 164.42L437.705 92.7586C436.87 92.2862 435.852 92.2862 435.035 92.7586L390.832 118.324C390.197 118.687 390.197 119.614 390.832 119.977L514.882 191.602C515.7 192.075 516.735 192.075 517.553 191.602L561.81 166.056C562.446 165.71 562.446 164.784 561.81 164.42Z" fill="#E2E7F0"/>
<path d="M561.809 166.074L561.373 166.328L437.705 94.9208C436.869 94.4484 435.852 94.4484 435.034 94.9208L391.286 120.231L390.85 119.977C390.214 119.614 390.214 118.687 390.85 118.324L435.052 92.7586C435.888 92.2862 436.905 92.2862 437.723 92.7586L561.827 164.42C562.445 164.784 562.445 165.71 561.809 166.074Z" fill="white"/>
<path d="M431.695 99.2448L546.007 165.256L551.675 162.984L436.492 96.4648L431.695 99.2448Z" fill="#043183"/>
<path d="M419.941 106.024L521.063 164.421L525.86 161.641L424.738 103.262L419.941 106.024Z" fill="#043183"/>
<path d="M412.291 110.438L531.345 179.192L536.141 176.412L417.087 107.676L412.291 110.438Z" fill="#043183"/>
<path d="M404.645 114.87L523.698 183.606L528.476 180.844L409.441 112.09L404.645 114.87Z" fill="#043183"/>
<path d="M396.977 119.285L516.03 188.022L520.827 185.26L401.773 116.523L396.977 119.285Z" fill="#043183"/>
<path d="M546.006 165.257L550.802 168.018L555.598 165.257L550.802 162.477L546.006 165.257Z" fill="#043183"/>
<path d="M515.246 161.058L539.046 174.795L543.842 172.033L519.861 158.188L515.246 161.058Z" fill="#043183"/>
<path d="M517.632 132.315L484.167 113C482.859 112.237 482.859 111.02 484.167 110.256L507.058 97.047C508.366 96.2838 510.492 96.2838 511.8 97.047L545.265 116.361C546.573 117.125 546.573 118.342 545.265 119.105L522.373 132.315C521.065 133.059 518.94 133.059 517.632 132.315Z" fill="#638DDD"/>
<path d="M545.245 117.488L511.78 98.1735C510.472 97.4104 508.346 97.4104 507.038 98.1735L484.147 111.383C483.747 111.619 483.475 111.892 483.329 112.182C482.984 111.528 483.239 110.783 484.147 110.256L507.038 97.047C508.346 96.2838 510.472 96.2838 511.78 97.047L545.245 116.361C546.154 116.888 546.408 117.633 546.063 118.287C545.917 117.997 545.645 117.706 545.245 117.488Z" fill="white"/>
<path d="M367.028 114.162L385.904 2.14569L384.378 1.50974L386.667 0.201519V0.219689C387.103 -0.0710274 387.739 -0.0528576 388.43 0.346878L539.313 87.471C540.549 88.1796 541.493 90.0148 541.275 91.3048L522.254 204.212C522.163 204.793 521.872 205.193 521.454 205.357L519.22 206.647L518.838 204.557L518.965 204.593L368.99 117.978C367.737 117.269 366.81 115.434 367.028 114.162Z" fill="#638DDD"/>
<path d="M538.459 90.5043L540.948 89.4141C541.221 90.05 541.366 90.7223 541.275 91.2856L522.254 204.193C522.163 204.774 521.872 205.174 521.454 205.337L519.22 206.627L518.838 204.538L518.965 204.574L511.371 200.195L538.459 90.5043Z" fill="#5D7FD6"/>
<path d="M366.611 119.34L517.494 206.464C518.657 207.136 519.656 206.755 519.856 205.537L538.878 92.6302C539.096 91.3401 538.151 89.505 536.916 88.7964L386.05 1.69043C384.887 1.01815 383.888 1.39971 383.688 2.61709L364.667 115.524C364.449 116.796 365.375 118.631 366.611 119.34Z" fill="#073EA4"/>
<path d="M306.507 252.269L166.016 171.159L306.489 90.0488L446.981 171.159L306.507 252.269Z" fill="#BDD4FF"/>
<path d="M306.505 230.119L204.365 171.158L306.486 112.197L408.626 171.158L306.505 230.119Z" fill="#073EA4"/>
<path d="M306.486 116.176L405.156 173.157L408.626 171.158L306.486 112.197L204.365 171.158L207.835 173.157L306.486 116.176Z" fill="white"/>
<path d="M446.979 171.16V217.148L306.506 298.258V252.27L446.979 171.16Z" fill="#638DDD"/>
<path d="M166.016 171.158V217.146L306.507 298.256V252.268L166.016 171.158Z" fill="#043183"/>
<g opacity="0.51">
<path opacity="0.51" d="M175.533 191.818V206.3L296.985 276.435V261.954L175.533 191.818Z" fill="#073EA4"/>
</g>
<path d="M306.507 249.634L168.305 169.832L166.016 171.158L306.507 252.268L446.981 171.158L444.71 169.85L306.507 249.634Z" fill="white"/>
<path d="M425.906 203.375V211.606L327.582 268.387V260.156L425.906 203.375Z" fill="#073EA4"/>
<path opacity="0.51" d="M166.016 171.158V217.146L306.507 298.256V252.268L166.016 171.158Z" fill="#073EA4"/>
<path d="M265.484 249.835L240.049 235.154V238.17L265.484 252.87V249.835Z" fill="white"/>
<path d="M236.38 233.063L229.494 229.084V232.118L236.38 236.098V233.063Z" fill="white"/>
<path d="M204.095 214.421L189.997 206.281L189.979 209.316L204.095 217.456V214.421Z" fill="white"/>
<path d="M216.962 221.854L206.77 215.967V219.001L216.962 224.888V221.854Z" fill="white"/>
<path d="M226.533 227.378L219.629 223.398V226.433L226.515 230.412L226.533 227.378Z" fill="white"/>
<path d="M306.651 132.44L302.182 129.859L306.651 127.279L311.102 129.859L306.651 132.44Z" fill="white"/>
<path opacity="0.1" d="M315.573 137.582L311.104 135.02L315.573 132.439L320.024 135.02L315.573 137.582Z" fill="white"/>
<path opacity="0.4" d="M324.491 142.742L320.021 140.162L324.491 137.582L328.942 140.162L324.491 142.742Z" fill="white"/>
<path d="M333.411 147.9L328.941 145.32L333.411 142.74L337.862 145.32L333.411 147.9Z" fill="white"/>
<path opacity="0.4" d="M342.333 153.044L337.863 150.464L342.333 147.902L346.784 150.464L342.333 153.044Z" fill="white"/>
<path d="M351.254 158.205L346.785 155.625L351.254 153.045L355.724 155.625L351.254 158.205Z" fill="white"/>
<path d="M360.176 163.345L355.725 160.765L360.176 158.203L364.645 160.765L360.176 163.345Z" fill="white"/>
<path d="M369.092 168.506L364.641 165.926L369.092 163.346L373.561 165.926L369.092 168.506Z" fill="white"/>
<path opacity="0.1" d="M378.014 173.648L373.562 171.068L378.014 168.506L382.483 171.068L378.014 173.648Z" fill="white"/>
<path d="M297.68 137.619L293.229 135.039L297.68 132.459L302.149 135.039L297.68 137.619Z" fill="white"/>
<path d="M306.62 142.761L302.15 140.181L306.62 137.619L311.071 140.181L306.62 142.761Z" fill="white"/>
<path d="M315.538 147.922L311.068 145.342L315.538 142.762L319.989 145.342L315.538 147.922Z" fill="white"/>
<path d="M324.458 153.064L319.988 150.484L324.458 147.922L328.909 150.484L324.458 153.064Z" fill="white"/>
<path d="M333.379 158.223L328.91 155.643L333.379 153.062L337.831 155.643L333.379 158.223Z" fill="white"/>
<path d="M342.301 163.367L337.832 160.805L342.301 158.225L346.752 160.805L342.301 163.367Z" fill="white"/>
<path d="M351.219 168.525L346.75 165.945L351.219 163.365L355.689 165.945L351.219 168.525Z" fill="white"/>
<path d="M360.139 173.667L355.688 171.105L360.139 168.525L364.608 171.105L360.139 173.667Z" fill="white"/>
<path d="M369.061 178.828L364.609 176.248L369.061 173.668L373.53 176.248L369.061 178.828Z" fill="white"/>
<path d="M288.717 142.777L284.266 140.215L288.717 137.635L293.186 140.215L288.717 142.777Z" fill="white"/>
<path d="M297.639 147.938L293.188 145.357L297.639 142.777L302.108 145.357L297.639 147.938Z" fill="white"/>
<path d="M306.579 153.08L302.109 150.518L306.579 147.938L311.03 150.518L306.579 153.08Z" fill="white"/>
<path opacity="0.1" d="M315.495 158.24L311.025 155.66L315.495 153.08L319.946 155.66L315.495 158.24Z" fill="white"/>
<path opacity="0.4" d="M324.417 163.38L319.947 160.818L324.417 158.238L328.868 160.818L324.417 163.38Z" fill="white"/>
<path opacity="0.4" d="M333.338 168.541L328.869 165.961L333.338 163.381L337.79 165.961L333.338 168.541Z" fill="white"/>
<path d="M342.256 173.701L337.787 171.121L342.256 168.541L346.708 171.121L342.256 173.701Z" fill="white"/>
<path d="M351.178 178.843L346.709 176.263L351.178 173.701L355.648 176.263L351.178 178.843Z" fill="white"/>
<path d="M360.098 184.004L355.646 181.424L360.098 178.844L364.567 181.424L360.098 184.004Z" fill="white"/>
<path opacity="0.4" d="M279.764 147.955L275.312 145.375L279.764 142.795L284.233 145.375L279.764 147.955Z" fill="white"/>
<path opacity="0.4" d="M288.685 153.115L284.234 150.535L288.685 147.955L293.155 150.535L288.685 153.115Z" fill="white"/>
<path opacity="0.1" d="M297.607 158.257L293.156 155.677L297.607 153.115L302.077 155.677L297.607 158.257Z" fill="white"/>
<path d="M306.542 163.416L302.072 160.836L306.542 158.256L310.993 160.836L306.542 163.416Z" fill="white"/>
<path d="M315.463 168.56L310.994 165.98L315.463 163.418L319.915 165.98L315.463 168.56Z" fill="white"/>
<path d="M324.385 173.721L319.916 171.141L324.385 168.561L328.836 171.141L324.385 173.721Z" fill="white"/>
<path opacity="0.4" d="M333.303 178.861L328.834 176.281L333.303 173.719L337.754 176.281L333.303 178.861Z" fill="white"/>
<path d="M342.225 184.022L337.756 181.441L342.225 178.861L346.676 181.441L342.225 184.022Z" fill="white"/>
<path d="M351.147 189.164L346.678 186.583L351.147 184.021L355.616 186.583L351.147 189.164Z" fill="white"/>
<path d="M270.81 153.135L266.359 150.555L270.81 147.975L275.28 150.555L270.81 153.135Z" fill="white"/>
<path d="M279.732 158.277L275.281 155.697L279.732 153.135L284.202 155.697L279.732 158.277Z" fill="white"/>
<path d="M288.654 163.438L284.203 160.857L288.654 158.277L293.124 160.857L288.654 163.438Z" fill="white"/>
<path d="M297.57 168.578L293.119 166.016L297.57 163.436L302.04 166.016L297.57 168.578Z" fill="white"/>
<path d="M306.51 173.738L302.041 171.158L306.51 168.578L310.961 171.158L306.51 173.738Z" fill="white"/>
<path d="M315.432 178.882L310.963 176.32L315.432 173.74L319.883 176.32L315.432 178.882Z" fill="white"/>
<path d="M324.35 184.041L319.881 181.461L324.35 178.881L328.801 181.461L324.35 184.041Z" fill="white"/>
<path d="M333.272 189.183L328.803 186.621L333.272 184.041L337.723 186.621L333.272 189.183Z" fill="white"/>
<path d="M342.194 194.342L337.725 191.762L342.194 189.182L346.645 191.762L342.194 194.342Z" fill="white"/>
<path d="M261.848 158.294L257.396 155.732L261.848 153.152L266.317 155.732L261.848 158.294Z" fill="white"/>
<path d="M270.769 163.455L266.318 160.875L270.769 158.295L275.239 160.875L270.769 163.455Z" fill="white"/>
<path opacity="0.4" d="M279.687 168.597L275.236 166.035L279.687 163.455L284.157 166.035L279.687 168.597Z" fill="white"/>
<path d="M288.607 173.758L284.156 171.178L288.607 168.598L293.077 171.178L288.607 173.758Z" fill="white"/>
<path opacity="0.1" d="M297.529 178.898L293.078 176.336L297.529 173.756L301.999 176.336L297.529 178.898Z" fill="white"/>
<path d="M306.469 184.059L302 181.479L306.469 178.898L310.92 181.479L306.469 184.059Z" fill="white"/>
<path d="M315.387 189.219L310.918 186.639L315.387 184.059L319.838 186.639L315.387 189.219Z" fill="white"/>
<path d="M324.309 194.361L319.84 191.781L324.309 189.219L328.76 191.781L324.309 194.361Z" fill="white"/>
<path d="M333.231 199.52L328.762 196.939L333.231 194.359L337.682 196.939L333.231 199.52Z" fill="white"/>
<path d="M252.895 163.474L248.426 160.894L252.895 158.332L257.364 160.894L252.895 163.474Z" fill="white"/>
<path d="M261.814 168.635L257.363 166.055L261.814 163.475L266.284 166.055L261.814 168.635Z" fill="white"/>
<path opacity="0.4" d="M270.736 173.777L266.285 171.197L270.736 168.635L275.206 171.197L270.736 173.777Z" fill="white"/>
<path d="M279.654 178.938L275.203 176.357L279.654 173.777L284.123 176.357L279.654 178.938Z" fill="white"/>
<path d="M288.576 184.078L284.125 181.497L288.576 178.936L293.045 181.497L288.576 184.078Z" fill="white"/>
<path opacity="0.1" d="M297.498 189.238L293.047 186.658L297.498 184.078L301.967 186.658L297.498 189.238Z" fill="white"/>
<path opacity="0.4" d="M306.438 194.38L301.969 191.8L306.438 189.238L310.889 191.8L306.438 194.38Z" fill="white"/>
<path d="M315.354 199.541L310.885 196.961L315.354 194.381L319.805 196.961L315.354 199.541Z" fill="white"/>
<path opacity="0.1" d="M324.276 204.683L319.807 202.121L324.276 199.541L328.727 202.121L324.276 204.683Z" fill="white"/>
<path d="M243.936 168.652L239.467 166.072L243.936 163.492L248.387 166.072L243.936 168.652Z" fill="white"/>
<path opacity="0.4" d="M252.855 173.794L248.404 171.214L252.855 168.652L257.325 171.214L252.855 173.794Z" fill="white"/>
<path d="M261.777 178.955L257.326 176.375L261.777 173.795L266.247 176.375L261.777 178.955Z" fill="white"/>
<path d="M270.699 184.095L266.248 181.533L270.699 178.953L275.168 181.533L270.699 184.095Z" fill="white"/>
<path d="M279.617 189.256L275.166 186.676L279.617 184.096L284.086 186.676L279.617 189.256Z" fill="white"/>
<path d="M288.539 194.4L284.088 191.838L288.539 189.258L293.008 191.838L288.539 194.4Z" fill="white"/>
<path d="M297.479 199.559L293.01 196.979L297.461 194.398L301.93 196.979L297.479 199.559Z" fill="white"/>
<path opacity="0.4" d="M306.395 204.701L301.926 202.139L306.395 199.559L310.846 202.139L306.395 204.701Z" fill="white"/>
<path d="M315.317 209.861L310.848 207.281L315.317 204.701L319.768 207.281L315.317 209.861Z" fill="white"/>
<path d="M234.979 173.812L230.51 171.25L234.979 168.67L239.43 171.25L234.979 173.812Z" fill="white"/>
<path opacity="0.1" d="M243.901 178.973L239.432 176.393L243.901 173.812L248.37 176.393L243.901 178.973Z" fill="white"/>
<path d="M252.82 184.115L248.369 181.553L252.82 178.973L257.29 181.553L252.82 184.115Z" fill="white"/>
<path d="M261.742 189.275L257.291 186.695L261.742 184.115L266.211 186.695L261.742 189.275Z" fill="white"/>
<path d="M270.66 194.434L266.209 191.854L270.66 189.273L275.129 191.854L270.66 194.434Z" fill="white"/>
<path d="M279.582 199.578L275.131 196.997L279.582 194.436L284.051 196.997L279.582 199.578Z" fill="white"/>
<path opacity="0.4" d="M288.504 204.736L284.053 202.156L288.504 199.576L292.973 202.156L288.504 204.736Z" fill="white"/>
<path d="M297.438 209.878L292.969 207.298L297.438 204.736L301.889 207.298L297.438 209.878Z" fill="white"/>
<path d="M306.36 215.039L301.891 212.459L306.36 209.879L310.811 212.459L306.36 215.039Z" fill="white"/>
<path d="M306.507 172.668L166.016 91.5396L306.489 10.4297L446.981 91.5396L306.507 172.668Z" fill="#BDD4FF"/>
<path d="M306.505 150.518L204.365 91.5391L306.486 32.5781L408.626 91.5391L306.505 150.518Z" fill="#073EA4"/>
<path d="M306.486 36.5755L405.156 93.5378L408.626 91.5391L306.486 32.5781L204.365 91.5391L207.835 93.5378L306.486 36.5755Z" fill="white"/>
<path d="M446.979 91.5391V137.527L306.506 218.637V172.667L446.979 91.5391Z" fill="#8EB6FF"/>
<path d="M166.016 91.5391V137.527L306.507 218.637V172.667L166.016 91.5391Z" fill="#043183"/>
<g opacity="0.51">
<path opacity="0.51" d="M175.533 112.199V126.681L296.985 196.816V182.335L175.533 112.199Z" fill="#073EA4"/>
</g>
<path d="M306.507 170.034L168.305 90.2324L166.016 91.5406L306.507 172.669L446.981 91.5406L444.71 90.2324L306.507 170.034Z" fill="white"/>
<path d="M425.906 123.771V132.002L327.582 188.783V180.552L425.906 123.771Z" fill="#073EA4"/>
<path opacity="0.51" d="M166.016 91.5391V137.527L306.507 218.637V172.667L166.016 91.5391Z" fill="#073EA4"/>
<path d="M265.484 170.216L240.049 155.535V158.57L265.484 173.251V170.216Z" fill="white"/>
<path d="M236.38 153.444L229.494 149.465V152.499L236.38 156.478V153.444Z" fill="white"/>
<path d="M204.095 134.802L189.997 126.662L189.979 129.696L204.095 137.837V134.802Z" fill="white"/>
<path d="M216.962 142.235L206.77 136.348V139.382L216.962 145.269V142.235Z" fill="white"/>
<path d="M226.533 147.757L219.629 143.777V146.812L226.515 150.791L226.533 147.757Z" fill="white"/>
<path d="M306.651 52.8178L302.182 50.2559L306.651 47.6758L311.102 50.2559L306.651 52.8178Z" fill="white"/>
<path opacity="0.1" d="M315.573 57.9786L311.104 55.3985L315.573 52.8184L320.024 55.3985L315.573 57.9786Z" fill="white"/>
<path opacity="0.4" d="M324.491 63.1206L320.021 60.5586L324.491 57.9785L328.942 60.5586L324.491 63.1206Z" fill="white"/>
<path d="M333.411 68.2813L328.941 65.7012L333.411 63.1211L337.862 65.7012L333.411 68.2813Z" fill="white"/>
<path opacity="0.4" d="M342.333 73.4213L337.863 70.8594L342.333 68.2793L346.784 70.8594L342.333 73.4213Z" fill="white"/>
<path d="M351.254 78.5821L346.785 76.002L351.254 73.4219L355.724 76.002L351.254 78.5821Z" fill="white"/>
<path d="M360.176 83.7442L355.725 81.1641L360.176 78.584L364.645 81.1641L360.176 83.7442Z" fill="white"/>
<path d="M369.092 88.8842L364.641 86.3041L369.092 83.7422L373.561 86.3041L369.092 88.8842Z" fill="white"/>
<path opacity="0.1" d="M378.014 94.045L373.562 91.4649L378.014 88.8848L382.483 91.4649L378.014 94.045Z" fill="white"/>
<path d="M297.68 57.9975L293.229 55.4174L297.68 52.8555L302.149 55.4174L297.68 57.9975Z" fill="white"/>
<path d="M306.62 63.1583L302.15 60.5782L306.62 57.998L311.071 60.5782L306.62 63.1583Z" fill="white"/>
<path d="M315.538 68.3003L311.068 65.7201L315.538 63.1582L319.989 65.7201L315.538 68.3003Z" fill="white"/>
<path d="M324.458 73.461L319.988 70.8809L324.458 68.3008L328.909 70.8809L324.458 73.461Z" fill="white"/>
<path d="M333.379 78.601L328.91 76.0209L333.379 73.459L337.831 76.0209L333.379 78.601Z" fill="white"/>
<path d="M342.301 83.7618L337.832 81.1817L342.301 78.6016L346.752 81.1817L342.301 83.7618Z" fill="white"/>
<path d="M351.219 88.9038L346.75 86.3237L351.219 83.7617L355.689 86.3237L351.219 88.9038Z" fill="white"/>
<path d="M360.139 94.0645L355.688 91.4844L360.139 88.9043L364.608 91.4844L360.139 94.0645Z" fill="white"/>
<path d="M369.061 99.2065L364.609 96.6446L369.061 94.0645L373.53 96.6446L369.061 99.2065Z" fill="white"/>
<path d="M288.717 63.1739L284.266 60.5938L288.717 58.0137L293.186 60.5938L288.717 63.1739Z" fill="white"/>
<path d="M297.639 68.3159L293.188 65.7358L297.639 63.1738L302.108 65.7358L297.639 68.3159Z" fill="white"/>
<path d="M306.579 73.4766L302.109 70.8965L306.579 68.3164L311.03 70.8965L306.579 73.4766Z" fill="white"/>
<path opacity="0.1" d="M315.495 78.6167L311.025 76.0547L315.495 73.4746L319.946 76.0547L315.495 78.6167Z" fill="white"/>
<path opacity="0.4" d="M324.417 83.7774L319.947 81.1973L324.417 78.6172L328.868 81.1973L324.417 83.7774Z" fill="white"/>
<path opacity="0.4" d="M333.338 88.9213L328.869 86.3594L333.338 83.7793L337.79 86.3594L333.338 88.9213Z" fill="white"/>
<path d="M342.256 94.0801L337.787 91.5L342.256 88.9199L346.708 91.5L342.256 94.0801Z" fill="white"/>
<path d="M351.178 99.2221L346.709 96.6602L351.178 94.0801L355.648 96.6602L351.178 99.2221Z" fill="white"/>
<path d="M360.098 104.383L355.646 101.803L360.098 99.2227L364.567 101.803L360.098 104.383Z" fill="white"/>
<path opacity="0.4" d="M279.764 68.3354L275.312 65.7735L279.764 63.1934L284.233 65.7735L279.764 68.3354Z" fill="white"/>
<path opacity="0.4" d="M288.685 73.4962L284.234 70.916L288.685 68.3359L293.155 70.916L288.685 73.4962Z" fill="white"/>
<path opacity="0.1" d="M297.607 78.6381L293.156 76.0762L297.607 73.4961L302.077 76.0762L297.607 78.6381Z" fill="white"/>
<path d="M306.542 83.7989L302.072 81.2188L306.542 78.6387L310.993 81.2188L306.542 83.7989Z" fill="white"/>
<path d="M315.463 88.9571L310.994 86.377L315.463 83.7969L319.915 86.377L315.463 88.9571Z" fill="white"/>
<path d="M324.385 94.101L319.916 91.5209L324.385 88.959L328.836 91.5209L324.385 94.101Z" fill="white"/>
<path opacity="0.4" d="M333.303 99.2598L328.834 96.6797L333.303 94.0996L337.754 96.6797L333.303 99.2598Z" fill="white"/>
<path d="M342.225 104.402L337.756 101.822L342.225 99.2598L346.676 101.822L342.225 104.402Z" fill="white"/>
<path d="M351.147 109.563L346.678 106.982L351.147 104.402L355.616 106.982L351.147 109.563Z" fill="white"/>
<path d="M270.81 73.5131L266.359 70.933L270.81 68.3711L275.28 70.933L270.81 73.5131Z" fill="white"/>
<path d="M279.732 78.6739L275.281 76.0938L279.732 73.5137L284.202 76.0938L279.732 78.6739Z" fill="white"/>
<path d="M288.654 83.8159L284.203 81.2358L288.654 78.6738L293.124 81.2358L288.654 83.8159Z" fill="white"/>
<path d="M297.57 88.9766L293.119 86.3965L297.57 83.8164L302.04 86.3965L297.57 88.9766Z" fill="white"/>
<path d="M306.51 94.1167L302.041 91.5366L306.51 88.9746L310.961 91.5366L306.51 94.1167Z" fill="white"/>
<path d="M315.432 99.2774L310.963 96.6973L315.432 94.1172L319.883 96.6973L315.432 99.2774Z" fill="white"/>
<path d="M324.35 104.419L319.881 101.839L324.35 99.2773L328.801 101.839L324.35 104.419Z" fill="white"/>
<path d="M333.272 109.58L328.803 107L333.272 104.42L337.723 107L333.272 109.58Z" fill="white"/>
<path d="M342.194 114.72L337.725 112.158L342.194 109.578L346.645 112.158L342.194 114.72Z" fill="white"/>
<path d="M261.848 78.6915L257.396 76.1114L261.848 73.5312L266.317 76.1114L261.848 78.6915Z" fill="white"/>
<path d="M270.769 83.8334L266.318 81.2715L270.769 78.6914L275.239 81.2715L270.769 83.8334Z" fill="white"/>
<path opacity="0.4" d="M279.687 88.9942L275.236 86.4141L279.687 83.834L284.157 86.4141L279.687 88.9942Z" fill="white"/>
<path d="M288.607 94.1362L284.156 91.5743L288.607 88.9941L293.077 91.5743L288.607 94.1362Z" fill="white"/>
<path opacity="0.1" d="M297.529 99.295L293.078 96.7149L297.529 94.1348L301.999 96.7149L297.529 99.295Z" fill="white"/>
<path d="M306.469 104.439L302 101.877L306.469 99.2969L310.92 101.877L306.469 104.439Z" fill="white"/>
<path d="M315.387 109.598L310.918 107.018L315.387 104.438L319.838 107.018L315.387 109.598Z" fill="white"/>
<path d="M324.309 114.74L319.84 112.178L324.309 109.598L328.76 112.178L324.309 114.74Z" fill="white"/>
<path d="M333.231 119.9L328.762 117.32L333.231 114.74L337.682 117.32L333.231 119.9Z" fill="white"/>
<path d="M252.895 83.853L248.426 81.291L252.895 78.7109L257.364 81.291L252.895 83.853Z" fill="white"/>
<path d="M261.814 89.0137L257.363 86.4336L261.814 83.8535L266.284 86.4336L261.814 89.0137Z" fill="white"/>
<path opacity="0.4" d="M270.736 94.1557L266.285 91.5938L270.736 89.0137L275.206 91.5938L270.736 94.1557Z" fill="white"/>
<path d="M279.654 99.3165L275.203 96.7364L279.654 94.1562L284.123 96.7364L279.654 99.3165Z" fill="white"/>
<path d="M288.576 104.475L284.125 101.895L288.576 99.3145L293.045 101.895L288.576 104.475Z" fill="white"/>
<path opacity="0.1" d="M297.498 109.619L293.047 107.038L297.498 104.477L301.967 107.038L297.498 109.619Z" fill="white"/>
<path opacity="0.4" d="M306.438 114.777L301.969 112.197L306.438 109.617L310.889 112.197L306.438 114.777Z" fill="white"/>
<path d="M315.354 119.919L310.885 117.339L315.354 114.777L319.805 117.339L315.354 119.919Z" fill="white"/>
<path opacity="0.1" d="M324.276 125.08L319.807 122.5L324.276 119.92L328.727 122.5L324.276 125.08Z" fill="white"/>
<path d="M243.936 89.0307L239.467 86.4506L243.936 83.8887L248.387 86.4506L243.936 89.0307Z" fill="white"/>
<path opacity="0.4" d="M252.855 94.1915L248.404 91.6114L252.855 89.0312L257.325 91.6114L252.855 94.1915Z" fill="white"/>
<path d="M261.777 99.3335L257.326 96.7533L261.777 94.1914L266.247 96.7533L261.777 99.3335Z" fill="white"/>
<path d="M270.699 104.494L266.248 101.914L270.699 99.334L275.168 101.914L270.699 104.494Z" fill="white"/>
<path d="M279.617 109.634L275.166 107.054L279.617 104.492L284.086 107.054L279.617 109.634Z" fill="white"/>
<path d="M288.539 114.795L284.088 112.215L288.539 109.635L293.008 112.215L288.539 114.795Z" fill="white"/>
<path d="M297.479 119.937L293.01 117.375L297.461 114.795L301.93 117.375L297.479 119.937Z" fill="white"/>
<path opacity="0.4" d="M306.395 125.098L301.926 122.518L306.395 119.938L310.846 122.518L306.395 125.098Z" fill="white"/>
<path d="M315.317 130.24L310.848 127.678L315.317 125.098L319.768 127.678L315.317 130.24Z" fill="white"/>
<path d="M234.979 94.209L230.51 91.6289L234.979 89.0488L239.43 91.6289L234.979 94.209Z" fill="white"/>
<path opacity="0.1" d="M243.901 99.351L239.432 96.7891L243.901 94.209L248.37 96.7891L243.901 99.351Z" fill="white"/>
<path d="M252.82 104.512L248.369 101.932L252.82 99.3516L257.29 101.932L252.82 104.512Z" fill="white"/>
<path d="M261.742 109.654L257.291 107.092L261.742 104.512L266.211 107.092L261.742 109.654Z" fill="white"/>
<path d="M270.66 114.813L266.209 112.232L270.66 109.652L275.129 112.232L270.66 114.813Z" fill="white"/>
<path d="M279.582 119.957L275.131 117.395L279.582 114.814L284.051 117.395L279.582 119.957Z" fill="white"/>
<path opacity="0.4" d="M288.504 125.115L284.053 122.535L288.504 119.955L292.973 122.535L288.504 125.115Z" fill="white"/>
<path d="M297.438 130.275L292.969 127.695L297.438 125.115L301.889 127.695L297.438 130.275Z" fill="white"/>
<path d="M306.36 135.417L301.891 132.837L306.36 130.275L310.811 132.837L306.36 135.417Z" fill="white"/>
<path d="M457.74 420.16C455.305 420.16 452.907 419.524 450.818 418.307L370.989 372.21C369.735 371.483 368.99 370.193 368.99 368.74C368.99 367.304 369.735 365.996 370.989 365.269L515.423 281.87C515.659 281.743 515.968 281.725 516.204 281.87L516.876 282.251L602.574 331.728C603.827 332.455 604.572 333.745 604.572 335.198C604.572 336.634 603.827 337.942 602.574 338.65L464.662 418.289C462.554 419.506 460.174 420.16 457.74 420.16ZM515.804 283.469L371.752 366.65C370.989 367.086 370.534 367.868 370.534 368.74C370.534 369.612 370.989 370.393 371.752 370.829L451.581 416.926C455.305 419.07 460.138 419.07 463.863 416.926L601.774 337.288C602.537 336.852 602.992 336.07 602.992 335.198C602.992 334.326 602.537 333.545 601.774 333.091L515.804 283.469Z" fill="white"/>
<path d="M515.98 249.659L496.759 135.662L498.303 135.008L495.977 133.682V133.7C495.523 133.391 494.887 133.427 494.197 133.827L340.643 222.496C339.389 223.222 338.426 225.094 338.644 226.402L358.011 341.308C358.12 341.907 358.411 342.307 358.829 342.471L361.1 343.779L361.481 341.653L361.354 341.689L513.964 253.566C515.253 252.839 516.198 250.968 515.98 249.659Z" fill="#638DDD"/>
<path d="M341.516 225.602L338.991 224.494C338.7 225.148 338.573 225.821 338.664 226.402L358.031 341.308C358.14 341.907 358.43 342.307 358.848 342.471L361.119 343.779L361.501 341.653L361.373 341.689L369.095 337.238L341.516 225.602Z" fill="#2857CD"/>
<path d="M516.398 254.947L362.844 343.616C361.663 344.306 360.646 343.906 360.428 342.671L341.061 227.765C340.843 226.457 341.787 224.585 343.059 223.859L496.613 135.19C497.794 134.5 498.812 134.899 499.03 136.135L518.397 251.041C518.615 252.349 517.652 254.22 516.398 254.947Z" fill="#043183"/>
<path opacity="0.51" d="M494.615 142.549L346.602 228.001L364.951 336.221L512.873 250.823L494.615 142.549Z" fill="#2664D8"/>
<path d="M612.922 309.35L604.547 313.728L520.521 265.215C519.122 264.398 516.651 264.507 515.034 265.451L370.109 349.123C368.729 348.342 362.406 345.308 362.406 345.308L365.477 353.302C365.477 353.302 365.495 353.302 365.495 353.284C365.622 353.647 365.894 353.975 366.349 354.229L454.844 405.322C456.243 406.14 458.714 406.031 460.331 405.086L608.616 319.47C609.289 319.089 609.688 318.616 609.852 318.144H609.87L612.922 309.35Z" fill="#2D51AD"/>
<path d="M611.613 310.729L459.639 398.489C457.968 399.452 455.461 399.561 454.026 398.725L363.332 346.36C361.897 345.524 362.078 344.071 363.732 343.108L515.723 255.348C517.395 254.385 519.902 254.276 521.337 255.111L612.031 307.477C613.466 308.313 613.285 309.766 611.613 310.729Z" fill="url(#paint2_linear_5660_141618)"/>
<path d="M611.614 309.856L459.64 397.616C457.968 398.579 455.461 398.688 454.026 397.852L363.332 345.487C362.86 345.215 362.587 344.869 362.46 344.506C362.224 345.196 362.515 345.887 363.332 346.359L454.026 398.725C455.461 399.56 457.987 399.451 459.64 398.488L611.632 310.728C612.758 310.074 613.176 309.22 612.922 308.457C612.74 308.966 612.322 309.456 611.614 309.856Z" fill="white"/>
<path d="M413.785 379.502V377.83C413.785 377.667 413.876 377.594 414.003 377.667L419.89 381.065C420.017 381.137 420.108 381.319 420.108 381.482V383.154C420.108 383.318 420.017 383.39 419.89 383.318L414.003 379.92C413.894 379.847 413.785 379.666 413.785 379.502Z" fill="white"/>
<path d="M422.576 384.572V382.901C422.576 382.737 422.667 382.664 422.794 382.737L428.681 386.135C428.808 386.208 428.899 386.389 428.899 386.553V388.224C428.899 388.388 428.808 388.461 428.681 388.388L422.794 384.99C422.685 384.918 422.576 384.736 422.576 384.572Z" fill="white"/>
<path d="M386.967 341.454L513.27 268.52C514.105 268.03 515.141 268.03 515.995 268.52L560.978 294.539C561.632 294.921 561.632 295.848 560.978 296.211L434.73 369.108C433.895 369.599 432.859 369.599 432.005 369.108L386.967 343.125C386.313 342.762 386.313 341.817 386.967 341.454Z" fill="#FAFCFF"/>
<path d="M386.967 343.127L387.421 343.381L513.27 270.72C514.105 270.23 515.141 270.23 515.995 270.72L560.524 296.485L560.978 296.231C561.632 295.849 561.632 294.922 560.978 294.559L515.995 268.54C515.159 268.049 514.124 268.049 513.27 268.54L386.967 341.455C386.313 341.819 386.313 342.763 386.967 343.127Z" fill="white"/>
<path d="M519.375 275.117L409.678 338.457L404.791 335.641L514.506 272.301L519.375 275.117Z" fill="#2058C0"/>
<path d="M531.326 282.023L428.424 341.439L423.555 338.622L526.457 279.207L531.326 282.023Z" fill="#2058C0"/>
<path d="M539.124 286.51L417.963 356.481L413.094 353.665L534.255 283.693L539.124 286.51Z" fill="#2058C0"/>
<path d="M546.917 291.016L425.756 360.969L420.887 358.153L542.03 288.199L546.917 291.016Z" fill="#2058C0"/>
<path d="M554.708 295.504L433.547 365.476L428.66 362.659L549.821 292.688L554.708 295.504Z" fill="#2058C0"/>
<path d="M403.045 342.291L398.158 345.107L393.289 342.291L398.158 339.475L403.045 342.291Z" fill="#2058C0"/>
<path d="M420.251 346.162L410.113 352.013L405.244 349.196L415.364 343.346L420.251 346.162Z" fill="#2058C0"/>
<path d="M518.122 359.096L552.168 339.437C553.494 338.673 553.494 337.42 552.168 336.657L528.877 323.211C527.551 322.448 525.389 322.448 524.063 323.211L490.016 342.871C488.69 343.634 488.69 344.888 490.016 345.651L513.307 359.096C514.634 359.859 516.796 359.859 518.122 359.096Z" fill="#5989E1"/>
<path d="M490.016 344L524.063 324.34C525.389 323.577 527.551 323.577 528.877 324.34L552.168 337.786C552.586 338.022 552.841 338.313 553.004 338.603C553.349 337.931 553.095 337.168 552.168 336.641L528.877 323.195C527.551 322.432 525.389 322.432 524.063 323.195L490.016 342.855C489.09 343.382 488.835 344.145 489.181 344.817C489.344 344.527 489.617 344.236 490.016 344Z" fill="white"/>
<g opacity="0.11">
<g opacity="0.11">
<path opacity="0.11" d="M515.848 255.163L363.856 342.923C362.185 343.886 359.678 343.995 358.242 343.159L267.549 290.794C266.113 289.958 266.295 288.504 267.948 287.541L419.94 199.781C421.612 198.818 424.119 198.709 425.554 199.545L516.248 251.91C517.701 252.746 517.52 254.2 515.848 255.163Z" fill="#3A38C5"/>
<path opacity="0.11" d="M363.423 270.897L397.469 251.237C398.795 250.474 398.795 249.221 397.469 248.457L374.178 235.012C372.852 234.249 370.69 234.249 369.363 235.012L335.317 254.672C333.991 255.435 333.991 256.688 335.317 257.451L358.608 270.897C359.934 271.66 362.096 271.66 363.423 270.897Z" fill="#3A38C5"/>
<path opacity="0.11" d="M335.317 255.799L369.364 236.139C370.69 235.376 372.852 235.376 374.178 236.139L397.469 249.585C397.887 249.821 398.141 250.111 398.305 250.402C398.65 249.73 398.396 248.967 397.469 248.44L374.178 234.994C372.852 234.231 370.69 234.231 369.364 234.994L335.317 254.654C334.391 255.181 334.136 255.944 334.481 256.616C334.627 256.326 334.899 256.053 335.317 255.799Z" fill="white"/>
<g opacity="0.11">
<path opacity="0.11" d="M320.342 301.622L446.645 228.688C447.48 228.198 448.516 228.198 449.37 228.688L494.353 254.707C495.007 255.089 495.007 256.016 494.353 256.379L368.105 329.276C367.27 329.767 366.234 329.767 365.38 329.276L320.342 303.293C319.688 302.93 319.688 302.003 320.342 301.622Z" fill="#E2E7F0"/>
<path opacity="0.11" d="M320.342 303.31L320.796 303.565L446.645 230.904C447.48 230.413 448.516 230.413 449.37 230.904L493.899 256.669L494.353 256.414C495.007 256.033 495.007 255.106 494.353 254.743L449.37 228.723C448.534 228.233 447.499 228.233 446.645 228.723L320.342 301.621C319.688 302.002 319.688 302.929 320.342 303.31Z" fill="white"/>
<g opacity="0.11">
<path opacity="0.11" d="M482.559 252.943L372.535 316.483L376.895 318.991L486.92 255.469L482.559 252.943Z" fill="#043183"/>
<path opacity="0.11" d="M470.971 246.258L366.379 306.636L370.739 309.162L475.331 248.765L470.971 246.258Z" fill="#043183"/>
<path opacity="0.11" d="M358.585 311.141L348.811 316.791L353.171 319.299L362.945 313.666L358.585 311.141Z" fill="#043183"/>
<path opacity="0.11" d="M367.199 319.555L360.404 323.479L364.765 326.005L371.559 322.08L367.199 319.555Z" fill="#043183"/>
<path opacity="0.11" d="M463.707 242.059L341.547 312.594L345.907 315.119L468.067 244.584L463.707 242.059Z" fill="#043183"/>
<path opacity="0.11" d="M456.438 237.863L334.277 308.398L338.638 310.924L460.798 240.389L456.438 237.863Z" fill="#043183"/>
<path opacity="0.11" d="M449.17 233.666L327.027 304.201L331.369 306.727L453.53 236.192L449.17 233.666Z" fill="#043183"/>
</g>
</g>
</g>
</g>
<path d="M402.344 294.952L414.316 288.029L414.662 290.119L402.689 297.042L402.344 294.952Z" fill="white"/>
<path d="M416.244 286.921L422.766 283.16L423.112 285.232L416.589 289.011L416.244 286.921Z" fill="white"/>
<path d="M432.922 277.292L437.645 274.566L437.991 276.656L433.267 279.381L432.922 277.292Z" fill="white"/>
<path d="M429.467 279.29L431.084 278.363L431.429 280.435L429.83 281.361L429.467 279.29Z" fill="white"/>
<path d="M424.707 282.034L427.65 280.344L427.995 282.415L425.07 284.123L424.707 282.034Z" fill="white"/>
<path d="M411.809 279.054L416.532 276.328L416.877 278.399L412.172 281.125L411.809 279.054Z" fill="white"/>
<path d="M400.729 285.449L409.976 280.107L410.339 282.179L401.092 287.539L400.729 285.449Z" fill="white"/>
<path d="M413.986 251.744L423.234 246.402L423.597 248.492L414.35 253.834L413.986 251.744Z" fill="white"/>
<path d="M409.227 254.506L412.17 252.816L412.515 254.888L409.59 256.578L409.227 254.506Z" fill="white"/>
<path d="M415.533 261.266L424.781 255.924L425.144 257.995L415.897 263.337L415.533 261.266Z" fill="white"/>
<path d="M410.773 264.008L413.717 262.318L414.062 264.408L411.137 266.098L410.773 264.008Z" fill="white"/>
<path d="M407.159 210.701L389.736 220.767L389.391 218.696L406.814 208.611L407.159 210.701Z" fill="white"/>
<path d="M413.299 207.138L408.994 209.645L408.648 207.556L412.954 205.066L413.299 207.138Z" fill="white"/>
<path d="M443.933 205.12L426.51 215.204L426.146 213.115L443.588 203.049L443.933 205.12Z" fill="white"/>
<path d="M450.071 201.578L445.766 204.067L445.402 201.996L449.726 199.488L450.071 201.578Z" fill="white"/>
<path d="M395.258 222.782L390.553 225.526L390.189 223.436L394.913 220.711L395.258 222.782Z" fill="white"/>
<path d="M423.981 216.624L419.257 219.35L418.912 217.278L423.636 214.553L423.981 216.624Z" fill="white"/>
<path d="M406.343 216.384L397.095 221.726L396.75 219.655L405.997 214.295L406.343 216.384Z" fill="white"/>
<path d="M411.102 213.644L408.177 215.334L407.832 213.244L410.757 211.555L411.102 213.644Z" fill="white"/>
<path d="M422.273 207.192L413.025 212.534L412.662 210.463L421.91 205.121L422.273 207.192Z" fill="white"/>
<path d="M427.036 204.449L424.093 206.139L423.748 204.049L426.673 202.359L427.036 204.449Z" fill="white"/>
<path d="M423.182 211.881L418.458 214.606L418.113 212.516L422.837 209.791L423.182 211.881Z" fill="white"/>
<path d="M434.266 205.468L425.019 210.81L424.674 208.738L433.921 203.396L434.266 205.468Z" fill="white"/>
<path d="M439.025 202.722L436.1 204.412L435.736 202.341L438.68 200.633L439.025 202.722Z" fill="white"/>
<path d="M401.001 224.691L391.354 230.269L390.99 228.198L400.656 222.602L401.001 224.691Z" fill="white"/>
<path d="M409.83 219.585L402.835 223.619L402.49 221.547L409.467 217.514L409.83 219.585Z" fill="white"/>
<path d="M416.368 215.804L411.644 218.53L411.299 216.458L416.022 213.715L416.368 215.804Z" fill="white"/>
<path d="M462.151 194.621L452.486 200.199L452.141 198.109L461.806 192.531L462.151 194.621Z" fill="white"/>
<path d="M470.965 189.515L463.988 193.548L463.625 191.477L470.62 187.443L470.965 189.515Z" fill="white"/>
<path d="M477.524 185.734L472.8 188.46L472.455 186.37L477.161 183.645L477.524 185.734Z" fill="white"/>
<path d="M458.373 257.379L468.038 251.801L468.383 253.872L458.736 259.45L458.373 257.379Z" fill="white"/>
<path d="M449.561 262.463L456.555 258.43L456.9 260.519L449.924 264.553L449.561 262.463Z" fill="white"/>
<path d="M443.021 266.263L447.745 263.537L448.09 265.608L443.367 268.334L443.021 266.263Z" fill="white"/>
<path d="M455.176 264.463L464.841 258.885L465.186 260.956L455.521 266.534L455.176 264.463Z" fill="white"/>
<path d="M446.363 269.551L453.34 265.518L453.703 267.607L446.708 271.641L446.363 269.551Z" fill="white"/>
<path d="M439.807 273.35L444.53 270.625L444.875 272.696L440.17 275.422L439.807 273.35Z" fill="white"/>
<path d="M416.168 255.688L419.438 253.799L419.783 255.87L416.531 257.76L416.168 255.688Z" fill="white"/>
<path d="M410.027 259.229L414.351 256.74L414.696 258.812L410.391 261.301L410.027 259.229Z" fill="white"/>
<path d="M401.872 229.414L392.207 234.992L391.861 232.902L401.527 227.324L401.872 229.414Z" fill="white"/>
<path d="M410.685 224.308L403.709 228.341L403.346 226.27L410.34 222.236L410.685 224.308Z" fill="white"/>
<path d="M417.243 220.531L412.519 223.256L412.174 221.185L416.879 218.441L417.243 220.531Z" fill="white"/>
<path d="M396.276 237.863L393.005 239.734L392.66 237.663L395.93 235.773L396.276 237.863Z" fill="white"/>
<path d="M402.417 234.304L398.111 236.793L397.748 234.722L402.072 232.232L402.417 234.304Z" fill="white"/>
<path d="M411.192 229.232L404.252 233.247L403.889 231.158L410.847 227.16L411.192 229.232Z" fill="white"/>
<path d="M420.621 268.772L423.873 266.9L424.218 268.972L420.966 270.861L420.621 268.772Z" fill="white"/>
<path d="M414.48 272.331L418.786 269.842L419.131 271.913L414.826 274.402L414.48 272.331Z" fill="white"/>
<path d="M405.707 277.4L412.647 273.385L412.992 275.456L406.052 279.472L405.707 277.4Z" fill="white"/>
<path d="M425.582 261.066L432.522 257.051L432.885 259.122L425.927 263.138L425.582 261.066Z" fill="white"/>
<path d="M414.229 267.262L423.585 261.848L423.93 263.919L414.574 269.334L414.229 267.262Z" fill="white"/>
<path d="M409.469 270.006L412.394 268.316L412.739 270.406L409.814 272.096L409.469 270.006Z" fill="white"/>
<path d="M404.885 272.659L407.828 270.951L408.173 273.041L405.248 274.73L404.885 272.659Z" fill="white"/>
<path d="M405.521 245.803L414.769 240.461L415.114 242.532L405.867 247.892L405.521 245.803Z" fill="white"/>
<path d="M400.762 248.563L403.687 246.855L404.05 248.945L401.107 250.635L400.762 248.563Z" fill="white"/>
<path d="M406.158 240.226L409.428 238.336L409.774 240.425L406.503 242.297L406.158 240.226Z" fill="white"/>
<path d="M417.676 244.022L420.928 242.15L421.291 244.222L418.021 246.111L417.676 244.022Z" fill="white"/>
<path d="M422.33 241.35L430.16 236.826L430.506 238.898L422.675 243.422L422.33 241.35Z" fill="white"/>
<path d="M431.537 236.027L436.206 233.338L436.551 235.409L431.9 238.098L431.537 236.027Z" fill="white"/>
<path d="M400.018 243.769L404.323 241.279L404.687 243.369L400.363 245.858L400.018 243.769Z" fill="white"/>
<path d="M399.619 238.897L402.871 237.008L403.216 239.079L399.964 240.969L399.619 238.897Z" fill="white"/>
<path d="M393.479 242.44L397.784 239.951L398.129 242.023L393.824 244.512L393.479 242.44Z" fill="white"/>
<path d="M412.938 246.764L415.881 245.074L416.226 247.146L413.301 248.835L412.938 246.764Z" fill="white"/>
<path d="M408.375 249.399L411.3 247.709L411.663 249.78L408.72 251.47L408.375 249.399Z" fill="white"/>
<path d="M430.885 273.276L440.877 267.498L441.222 269.588L431.23 275.347L430.885 273.276Z" fill="white"/>
<path d="M419.678 279.745L429.052 274.33L429.398 276.42L420.041 281.816L419.678 279.745Z" fill="white"/>
<path d="M414.936 282.487L417.861 280.797L418.206 282.886L415.281 284.576L414.936 282.487Z" fill="white"/>
<path d="M410.357 285.141L413.282 283.451L413.646 285.523L410.703 287.212L410.357 285.141Z" fill="white"/>
<path d="M407.867 286.576L401.545 290.228L401.89 292.318L408.213 288.666L407.867 286.576Z" fill="white"/>
<path d="M155.283 420.163C152.849 420.163 150.451 419.527 148.361 418.31L10.4496 338.672C9.19605 337.945 8.45117 336.655 8.45117 335.22C8.45117 333.784 9.19605 332.476 10.4496 331.749L96.8194 281.891C97.0556 281.746 97.3644 281.764 97.6006 281.891L242.035 365.291C243.288 366.017 244.033 367.308 244.033 368.761C244.033 370.215 243.288 371.505 242.035 372.232L162.205 418.328C160.098 419.509 157.718 420.163 155.283 420.163ZM149.143 416.947C152.849 419.091 157.7 419.091 161.424 416.947L241.253 370.851C242.017 370.415 242.471 369.633 242.471 368.761C242.471 367.889 242.017 367.108 241.253 366.653L97.2009 283.472L11.2308 333.112C10.4678 333.548 10.0136 334.329 10.0136 335.202C10.0136 336.074 10.4678 336.855 11.2308 337.291L149.143 416.947Z" fill="white"/>
<path d="M97.0157 249.659L116.237 135.662L114.693 135.008L117.018 133.682V133.7C117.473 133.391 118.109 133.427 118.799 133.827L272.353 222.496C273.607 223.222 274.57 225.094 274.352 226.402L254.985 341.308C254.876 341.907 254.585 342.307 254.167 342.471L251.896 343.779L251.515 341.653L251.642 341.689L99.0324 253.566C97.7424 252.839 96.7977 250.968 97.0157 249.659Z" fill="#3A38C5"/>
<path d="M271.479 225.602L274.004 224.494C274.295 225.148 274.422 225.821 274.331 226.402L254.965 341.308C254.856 341.907 254.565 342.307 254.147 342.471L251.876 343.779L251.495 341.653L251.622 341.689L243.9 337.238L271.479 225.602Z" fill="#204FC8"/>
<path d="M96.5977 254.947L250.152 343.616C251.333 344.306 252.35 343.906 252.568 342.671L271.935 227.765C272.153 226.457 271.209 224.585 269.937 223.859L116.382 135.19C115.202 134.5 114.184 134.899 113.966 136.135L94.5993 251.041C94.3813 252.349 95.3442 254.22 96.5977 254.947Z" fill="#043183"/>
<path opacity="0.51" d="M118.381 142.549L266.394 228.001L248.045 336.221L100.141 250.823L118.381 142.549Z" fill="#2569E8"/>
<path d="M0.0761719 309.348L8.45153 313.727L92.4776 265.213C93.8766 264.396 96.3474 264.505 97.9643 265.449L242.889 349.121C244.27 348.34 250.592 345.306 250.592 345.306L247.522 353.3C247.522 353.3 247.504 353.3 247.504 353.282C247.376 353.646 247.104 353.973 246.65 354.227L158.154 405.32C156.755 406.138 154.285 406.029 152.668 405.084L4.38194 319.468C3.70973 319.087 3.31004 318.614 3.14653 318.142H3.12836L0.0761719 309.348Z" fill="#0E49B6"/>
<path d="M1.3818 310.727L153.374 398.487C155.045 399.45 157.552 399.559 158.988 398.723L249.681 346.358C251.116 345.522 250.935 344.069 249.282 343.106L97.2896 255.346C95.6182 254.383 93.111 254.274 91.6758 255.11L0.982103 307.475C-0.471321 308.311 -0.289643 309.764 1.3818 310.727Z" fill="url(#paint3_linear_5660_141618)"/>
<path d="M1.37943 309.854L153.371 397.614C155.043 398.577 157.55 398.686 158.985 397.85L249.679 345.485C250.151 345.213 250.424 344.867 250.551 344.504C250.787 345.194 250.515 345.885 249.679 346.357L158.985 398.723C157.55 399.558 155.025 399.449 153.371 398.486L1.37943 310.726C0.253024 310.072 -0.164835 309.218 0.0895142 308.455C0.253024 308.964 0.670884 309.454 1.37943 309.854Z" fill="white"/>
<path d="M199.211 379.5V377.828C199.211 377.665 199.12 377.592 198.993 377.665L193.107 381.063C192.98 381.135 192.889 381.317 192.889 381.481V383.152C192.889 383.316 192.98 383.388 193.107 383.316L198.993 379.918C199.102 379.845 199.211 379.664 199.211 379.5Z" fill="white"/>
<path d="M190.42 384.57V382.899C190.42 382.735 190.329 382.663 190.202 382.735L184.316 386.133C184.188 386.206 184.098 386.387 184.098 386.551V388.223C184.098 388.386 184.188 388.459 184.316 388.386L190.202 384.988C190.329 384.916 190.42 384.734 190.42 384.57Z" fill="white"/>
<path d="M226.027 341.452L99.7422 268.518C98.9064 268.028 97.8709 268.028 97.017 268.518L52.0335 294.537C51.3795 294.919 51.3795 295.846 52.0335 296.209L178.282 369.106C179.117 369.597 180.153 369.597 181.007 369.106L226.045 343.123C226.681 342.76 226.681 341.815 226.027 341.452Z" fill="#F3F7FF"/>
<path d="M226.027 343.125L225.572 343.379L99.7422 270.718C98.9064 270.228 97.8709 270.228 97.017 270.718L52.4877 296.483L52.0335 296.229C51.3795 295.847 51.3795 294.92 52.0335 294.557L97.017 268.538C97.8527 268.047 98.8883 268.047 99.7422 268.538L226.045 341.471C226.681 341.817 226.681 342.761 226.027 343.125Z" fill="white"/>
<path d="M104.178 281.202L211.095 342.943L215.71 339.982L109.083 278.404L104.178 281.202Z" fill="#2058C0"/>
<path d="M97.2383 291.014L194.309 347.049L197.634 343.343L102.125 288.197L97.2383 291.014Z" fill="#2058C0"/>
<path d="M73.873 286.508L195.034 356.48L199.903 353.663L78.742 283.691L73.873 286.508Z" fill="#2058C0"/>
<path d="M66.0781 291.014L187.239 360.967L192.108 358.151L70.9653 288.197L66.0781 291.014Z" fill="#2058C0"/>
<path d="M58.2852 295.502L179.446 365.474L184.333 362.657L63.1723 292.686L58.2852 295.502Z" fill="#2058C0"/>
<path d="M209.953 342.289L214.84 345.105L219.709 342.289L214.84 339.473L209.953 342.289Z" fill="#2058C0"/>
<path d="M192.744 346.16L202.882 352.011L207.751 349.194L197.631 343.344L192.744 346.16Z" fill="#2058C0"/>
<path d="M94.8751 359.094L60.8287 339.435C59.5024 338.672 59.5024 337.418 60.8287 336.655L84.1198 323.209C85.446 322.446 87.608 322.446 88.9343 323.209L122.981 342.869C124.307 343.632 124.307 344.886 122.981 345.649L99.6896 359.094C98.3634 359.858 96.2014 359.858 94.8751 359.094Z" fill="#5989E1"/>
<path d="M122.977 343.998L88.9305 324.338C87.6042 323.575 85.4423 323.575 84.116 324.338L60.8249 337.784C60.407 338.02 60.1527 338.311 59.9892 338.601C59.644 337.929 59.8983 337.166 60.8249 336.639L84.116 323.193C85.4423 322.43 87.6042 322.43 88.9305 323.193L122.977 342.853C123.904 343.38 124.158 344.143 123.813 344.815C123.649 344.525 123.395 344.234 122.977 343.998Z" fill="white"/>
<g opacity="0.11">
<g opacity="0.11">
<path opacity="0.11" d="M97.1435 255.163L249.135 342.923C250.807 343.886 253.314 343.995 254.749 343.159L345.443 290.794C346.878 289.958 346.697 288.504 345.043 287.541L193.051 199.781C191.38 198.818 188.873 198.709 187.438 199.545L96.7438 251.91C95.2904 252.746 95.4721 254.2 97.1435 255.163Z" fill="white"/>
<path opacity="0.11" d="M249.57 270.897L215.524 251.237C214.198 250.474 214.198 249.221 215.524 248.457L238.815 235.012C240.141 234.249 242.303 234.249 243.63 235.012L277.676 254.672C279.002 255.435 279.002 256.688 277.676 257.451L254.385 270.897C253.059 271.66 250.915 271.66 249.57 270.897Z" fill="#638DDD"/>
<path opacity="0.11" d="M277.676 255.799L243.63 236.139C242.303 235.376 240.141 235.376 238.815 236.139L215.524 249.585C215.106 249.821 214.852 250.111 214.688 250.402C214.343 249.73 214.598 248.967 215.524 248.44L238.815 234.994C240.141 234.231 242.303 234.231 243.63 234.994L277.676 254.654C278.603 255.181 278.857 255.944 278.512 256.616C278.367 256.326 278.094 256.053 277.676 255.799Z" fill="white"/>
<g opacity="0.11">
<path opacity="0.11" d="M292.648 301.622L166.346 228.688C165.51 228.198 164.474 228.198 163.62 228.688L118.637 254.707C117.983 255.089 117.983 256.016 118.637 256.379L244.885 329.276C245.721 329.767 246.756 329.767 247.61 329.276L292.648 303.293C293.302 302.93 293.302 302.003 292.648 301.622Z" fill="#E2E7F0"/>
<path opacity="0.11" d="M292.648 303.31L292.194 303.565L166.346 230.904C165.51 230.413 164.474 230.413 163.62 230.904L119.091 256.669L118.637 256.414C117.983 256.033 117.983 255.106 118.637 254.743L163.62 228.723C164.456 228.233 165.492 228.233 166.346 228.723L292.648 301.621C293.302 302.002 293.302 302.929 292.648 303.31Z" fill="white"/>
<g opacity="0.11">
<path opacity="0.11" d="M130.429 252.943L240.453 316.483L236.093 318.991L126.068 255.469L130.429 252.943Z" fill="#043183"/>
<path opacity="0.11" d="M142.018 246.258L246.611 306.636L242.25 309.162L137.658 248.765L142.018 246.258Z" fill="#043183"/>
<path opacity="0.11" d="M254.405 311.143L264.179 316.793L259.819 319.301L250.062 313.668L254.405 311.143Z" fill="#043183"/>
<path opacity="0.11" d="M245.796 319.555L252.591 323.479L248.23 326.005L241.436 322.08L245.796 319.555Z" fill="#043183"/>
<path opacity="0.11" d="M149.286 242.059L271.446 312.594L267.086 315.119L144.926 244.584L149.286 242.059Z" fill="#043183"/>
<path opacity="0.11" d="M156.554 237.863L278.714 308.398L274.354 310.924L152.193 240.389L156.554 237.863Z" fill="#043183"/>
<path opacity="0.11" d="M163.821 233.666L285.982 304.201L281.621 306.727L159.461 236.192L163.821 233.666Z" fill="#043183"/>
</g>
</g>
</g>
</g>
<path d="M151.518 182.648L163.49 189.57L163.854 187.499L151.881 180.576L151.518 182.648Z" fill="white"/>
<path d="M165.418 190.679L171.958 194.458L172.304 192.369L165.781 188.607L165.418 190.679Z" fill="white"/>
<path d="M182.096 200.308L186.819 203.033L187.165 200.962L182.459 198.236L182.096 200.308Z" fill="white"/>
<path d="M178.658 198.312L180.275 199.256L180.62 197.167L179.003 196.24L178.658 198.312Z" fill="white"/>
<path d="M173.898 195.567L176.823 197.257L177.169 195.186L174.244 193.496L173.898 195.567Z" fill="white"/>
<path d="M161 198.564L165.724 201.29L166.069 199.2L161.345 196.475L161 198.564Z" fill="white"/>
<path d="M149.92 192.149L159.167 197.491L159.513 195.42L150.265 190.078L149.92 192.149Z" fill="white"/>
<path d="M163.184 225.855L172.431 231.196L172.776 229.125L163.529 223.783L163.184 225.855Z" fill="white"/>
<path d="M158.424 223.113L161.349 224.803L161.712 222.713L158.769 221.023L158.424 223.113Z" fill="white"/>
<path d="M164.729 216.335L173.976 221.695L174.321 219.606L165.074 214.264L164.729 216.335Z" fill="white"/>
<path d="M159.965 213.591L162.89 215.281L163.253 213.209L160.31 211.52L159.965 213.591Z" fill="white"/>
<path d="M156.35 266.92L138.927 256.836L138.582 258.925L156.005 268.992L156.35 266.92Z" fill="white"/>
<path d="M162.491 270.462L158.186 267.973L157.822 270.044L162.146 272.533L162.491 270.462Z" fill="white"/>
<path d="M193.106 272.48L175.683 262.414L175.338 264.485L192.761 274.57L193.106 272.48Z" fill="white"/>
<path d="M199.241 276.022L194.935 273.533L194.59 275.623L198.896 278.112L199.241 276.022Z" fill="white"/>
<path d="M144.45 254.817L139.726 252.092L139.381 254.163L144.104 256.889L144.45 254.817Z" fill="white"/>
<path d="M173.172 260.979L168.449 258.254L168.104 260.325L172.827 263.069L173.172 260.979Z" fill="white"/>
<path d="M155.533 261.213L146.285 255.871L145.922 257.961L155.187 263.303L155.533 261.213Z" fill="white"/>
<path d="M160.294 263.975L157.369 262.285L157.006 264.357L159.931 266.046L160.294 263.975Z" fill="white"/>
<path d="M171.446 270.408L162.199 265.066L161.854 267.156L171.101 272.498L171.446 270.408Z" fill="white"/>
<path d="M176.204 273.17L173.279 271.48L172.934 273.552L175.859 275.242L176.204 273.17Z" fill="white"/>
<path d="M172.374 265.738L167.65 262.994L167.305 265.084L172.01 267.809L172.374 265.738Z" fill="white"/>
<path d="M183.458 272.133L174.193 266.791L173.848 268.862L183.095 274.222L183.458 272.133Z" fill="white"/>
<path d="M188.216 274.879L185.273 273.189L184.928 275.279L187.853 276.969L188.216 274.879Z" fill="white"/>
<path d="M150.061 253.387L140.396 247.791L140.051 249.881L149.716 255.459L150.061 253.387Z" fill="white"/>
<path d="M159.006 258.016L152.029 253.982L151.666 256.054L158.661 260.106L159.006 258.016Z" fill="white"/>
<path d="M165.559 261.796L160.835 259.07L160.49 261.16L165.196 263.885L165.559 261.796Z" fill="white"/>
<path d="M211.342 283L201.677 277.422L201.332 279.493L210.979 285.071L211.342 283Z" fill="white"/>
<path d="M220.156 288.088L213.162 284.055L212.816 286.126L219.811 290.178L220.156 288.088Z" fill="white"/>
<path d="M226.698 291.884L221.992 289.141L221.629 291.23L226.353 293.956L226.698 291.884Z" fill="white"/>
<path d="M207.564 220.224L217.23 225.82L217.575 223.73L207.91 218.152L207.564 220.224Z" fill="white"/>
<path d="M198.756 215.134L205.732 219.168L206.096 217.097L199.101 213.045L198.756 215.134Z" fill="white"/>
<path d="M192.195 211.355L196.919 214.081L197.282 211.991L192.559 209.266L192.195 211.355Z" fill="white"/>
<path d="M204.371 213.136L214.018 218.732L214.382 216.643L204.716 211.064L204.371 213.136Z" fill="white"/>
<path d="M195.537 208.049L202.532 212.082L202.877 210.011L195.9 205.959L195.537 208.049Z" fill="white"/>
<path d="M188.998 204.251L193.722 206.995L194.067 204.905L189.343 202.18L188.998 204.251Z" fill="white"/>
<path d="M165.359 221.929L168.611 223.819L168.975 221.73L165.705 219.84L165.359 221.929Z" fill="white"/>
<path d="M159.225 218.37L163.53 220.878L163.894 218.788L159.57 216.299L159.225 218.37Z" fill="white"/>
<path d="M151.063 248.204L141.398 242.607L141.053 244.697L150.7 250.275L151.063 248.204Z" fill="white"/>
<path d="M159.877 253.292L152.882 249.258L152.537 251.329L159.514 255.381L159.877 253.292Z" fill="white"/>
<path d="M166.415 257.089L161.691 254.346L161.346 256.435L166.069 259.161L166.415 257.089Z" fill="white"/>
<path d="M145.467 239.755L142.197 237.865L141.852 239.937L145.104 241.826L145.467 239.755Z" fill="white"/>
<path d="M151.609 243.3L147.285 240.811L146.939 242.882L151.245 245.389L151.609 243.3Z" fill="white"/>
<path d="M160.384 248.369L153.425 244.354L153.08 246.443L160.02 250.459L160.384 248.369Z" fill="white"/>
<path d="M169.795 208.832L173.065 210.721L173.41 208.632L170.158 206.742L169.795 208.832Z" fill="white"/>
<path d="M163.65 205.287L167.974 207.776L168.32 205.687L164.014 203.197L163.65 205.287Z" fill="white"/>
<path d="M154.877 200.2L161.835 204.216L162.18 202.144L155.222 198.129L154.877 200.2Z" fill="white"/>
<path d="M174.77 216.532L181.71 220.548L182.055 218.476L175.115 214.461L174.77 216.532Z" fill="white"/>
<path d="M163.398 210.339L172.773 215.754L173.118 213.682L163.762 208.268L163.398 210.339Z" fill="white"/>
<path d="M158.639 207.595L161.582 209.285L161.927 207.213L159.002 205.523L158.639 207.595Z" fill="white"/>
<path d="M154.082 204.959L157.007 206.648L157.37 204.577L154.427 202.869L154.082 204.959Z" fill="white"/>
<path d="M154.715 231.796L163.962 237.138L164.307 235.067L155.06 229.725L154.715 231.796Z" fill="white"/>
<path d="M149.955 229.052L152.88 230.742L153.225 228.653L150.3 226.963L149.955 229.052Z" fill="white"/>
<path d="M155.354 237.374L158.606 239.264L158.951 237.192L155.699 235.303L155.354 237.374Z" fill="white"/>
<path d="M166.867 233.577L170.119 235.467L170.464 233.377L167.212 231.506L166.867 233.577Z" fill="white"/>
<path d="M171.521 236.267L179.334 240.792L179.697 238.702L171.867 234.178L171.521 236.267Z" fill="white"/>
<path d="M180.73 241.591L185.381 244.281L185.727 242.191L181.076 239.502L180.73 241.591Z" fill="white"/>
<path d="M149.209 233.831L153.515 236.32L153.86 234.249L149.554 231.76L149.209 233.831Z" fill="white"/>
<path d="M148.795 238.718L152.065 240.608L152.41 238.519L149.158 236.629L148.795 238.718Z" fill="white"/>
<path d="M142.654 235.157L146.978 237.665L147.323 235.575L143.018 233.086L142.654 235.157Z" fill="white"/>
<path d="M162.129 230.851L165.054 232.541L165.417 230.452L162.474 228.762L162.129 230.851Z" fill="white"/>
<path d="M157.568 228.198L160.493 229.906L160.839 227.817L157.914 226.127L157.568 228.198Z" fill="white"/>
<path d="M180.059 204.325L190.051 210.103L190.414 208.032L180.422 202.254L180.059 204.325Z" fill="white"/>
<path d="M168.869 197.857L178.226 203.271L178.589 201.2L169.214 195.785L168.869 197.857Z" fill="white"/>
<path d="M164.109 195.111L167.034 196.801L167.398 194.729L164.473 193.021L164.109 195.111Z" fill="white"/>
<path d="M159.549 192.478L162.474 194.168L162.819 192.078L159.894 190.389L159.549 192.478Z" fill="white"/>
<path d="M157.041 191.024L150.719 187.372L151.082 185.301L157.404 188.953L157.041 191.024Z" fill="white"/>
<path d="M93.6191 275.111L98.4881 277.928L103.375 275.111L98.4881 272.295L93.6191 275.111Z" fill="#2058C0"/>
<path d="M81.666 282.014L91.7855 287.864L96.6545 285.048L86.535 279.197L81.666 282.014Z" fill="#2058C0"/>
</g>
<defs>
<linearGradient id="paint0_linear_5660_141618" x1="123.154" y1="62.5059" x2="123.154" y2="204.747" gradientUnits="userSpaceOnUse">
<stop stop-color="#104DBF"/>
<stop offset="1" stop-color="#76A4FA"/>
</linearGradient>
<linearGradient id="paint1_linear_5660_141618" x1="489.858" y1="62.5195" x2="489.858" y2="204.743" gradientUnits="userSpaceOnUse">
<stop stop-color="#104DBF"/>
<stop offset="1" stop-color="#76A4FA"/>
</linearGradient>
<linearGradient id="paint2_linear_5660_141618" x1="487.681" y1="254.549" x2="487.681" y2="399.288" gradientUnits="userSpaceOnUse">
<stop stop-color="#104DBF"/>
<stop offset="1" stop-color="#76A4FA"/>
</linearGradient>
<linearGradient id="paint3_linear_5660_141618" x1="125.325" y1="254.547" x2="125.325" y2="399.286" gradientUnits="userSpaceOnUse">
<stop stop-color="#104DBF"/>
<stop offset="1" stop-color="#76A4FA"/>
</linearGradient>
<clipPath id="clip0_5660_141618">
<rect width="613" height="420.158" fill="white"/>
</clipPath>
</defs>
</svg>
