<svg xmlns="http://www.w3.org/2000/svg" width="502" height="332" fill="none" viewBox="0 0 502 332"><path fill="url(#paint0_linear_4618_15050)" d="M252.787 63.182v30.767l-36.119 20.892.955-31.383 35.164-20.276Z" opacity=".95"/><path fill="url(#paint1_linear_4618_15050)" d="M252.787 63.182v30.767l35.487 20.461V83.642l-35.487-20.46Z" opacity=".95"/><path fill="#D8DCEF" d="M430.917 244.25c1.895-12.107-5.206-24.614-21.302-33.844-12.06-6.954-27.277-10.984-42.988-12.123v7.692c15.711 1.138 30.928 5.169 42.988 12.123 12.692 7.261 19.793 16.599 21.302 26.152Z" opacity=".2"/><path fill="url(#paint2_linear_4618_15050)" d="m207.503 196.237 1.325-40.752-68.665.892c-4.783-.203-9.55-.681-14.278-1.43l31.221 18.03a1.532 1.532 0 0 1 .994 1.438 1.535 1.535 0 0 1-.994 1.438l-35.041 20.199c6.593.72 13.223 1.034 19.854.939l65.584-.754Z"/><path fill="#212A79" d="M157.106 145.086a1.54 1.54 0 0 0 0-2.877l-31.283-18.03v30.768l7.086 4.092 24.197-13.953Z"/><path fill="url(#paint3_linear_4618_15050)" d="M400.543 172.7a1.534 1.534 0 0 1 .722 2.312 1.534 1.534 0 0 1-.722.564l-33.885 19.569c15.71 1.138 30.928 5.169 42.988 12.122 27.355 15.784 28.741 40.906 4.113 57.459l.154 28.476 50.613.092c51.429-32.445 49.688-83.15-5.099-114.733-25.26-14.569-57.544-22.584-90.536-24.137l31.652 18.276Z" opacity=".9"/><path fill="url(#paint4_linear_4618_15050)" d="m149.605 174.407-40.724-23.491a84.959 84.959 0 0 1-16.189-7.092c-29.002-16.738-29.387-43.721-.877-60.166a60.87 60.87 0 0 1 4.22-2.231H49.627a5.134 5.134 0 0 1-2.51-.6 1.801 1.801 0 0 1-1.033-1.446l-.154-26.845a272.161 272.161 0 0 0-4.22 2.308c-55.957 32.306-55.45 85.103 1.201 117.763 20.209 11.646 44.868 19.184 70.852 22.569l35.842-20.769Z"/><path fill="url(#paint5_linear_4618_15050)" d="m357.832 153.808-64.198.723-1.324 40.752 65.337-.738 35.411-20.43-35.226-20.307Z"/><path fill="url(#paint6_linear_4618_15050)" d="M250.276 89.627a5.491 5.491 0 0 1 4.99 0l33.054 19.045c0-.246-.077-.492-.107-.769-2.788-19.092-16.943-37.814-42.296-52.46-52.969-30.536-136.559-32.767-192.932-6.507l.154 28.337 52.676.108c28.187-9.692 65.677-7.415 90.321 6.784 11.952 6.892 19.007 15.523 21.225 24.445l32.915-18.983Z"/><path fill="#184293" d="M250.415 229.666a5.489 5.489 0 0 1 4.99 0l31.729 18.292a26.415 26.415 0 0 1-2.495-9.046l3.635-124.502-35.426-20.46-35.225 20.275-3.528 123.995c.145 3.859.734 7.69 1.756 11.415l34.564-19.969Z"/><path fill="#0F2F6C" d="M214.003 207.821v30.399c.145 3.859.734 7.69 1.756 11.415v-30.768a50.036 50.036 0 0 1-1.694-10.569l-.062-.477Z"/><path fill="#19226A" d="M501.784 205.944c.37 20.307-12.029 40.645-37.289 56.582l-47.625-.092a93.895 93.895 0 0 1-3.08 2.292l.154 28.476 50.612.092c25.384-16.015 37.783-36.475 37.275-56.92l.231-.293v-30.229l-.278.092Z" opacity=".9"/><path fill="#143678" d="M255.405 198.898a5.052 5.052 0 0 0-2.48-.569v29.599l34.209 19.999v-30.768l-31.729-18.261Z" opacity=".95"/><path fill="#161E5B" d="M413.882 262.434v30.768l50.597.092v-30.768l-50.597-.092Z"/><path fill="url(#paint7_linear_4618_15050)" d="M92.692 143.824c-29.002-16.738-29.387-43.721-.877-60.166a60.87 60.87 0 0 1 4.22-2.231H49.627a5.134 5.134 0 0 1-2.51-.6 1.801 1.801 0 0 1-1.033-1.446l-.154-26.845a272.161 272.161 0 0 0-4.22 2.308c-55.957 32.306-55.45 85.103 1.201 117.763 20.209 11.646 44.868 19.184 70.852 22.569l35.904-20.692-40.786-23.568a84.959 84.959 0 0 1-16.189-7.092Z"/><path fill="#7C1DC9" d="m149.605 143.639-40.724-23.491a84.959 84.959 0 0 1-16.189-7.092c-29.002-16.737-29.387-43.72-.877-60.166a60.87 60.87 0 0 1 4.22-2.23H49.627a5.134 5.134 0 0 1-2.51-.6 1.801 1.801 0 0 1-1.033-1.447l-.154-26.845a272.161 272.161 0 0 0-4.22 2.308c-55.957 32.306-55.45 85.104 1.201 117.764 20.24 11.568 44.883 19.106 70.791 22.491l35.903-20.692Z"/><path fill="#9F19AB" d="M410.37 297.263a5.069 5.069 0 0 1-2.495-.6 1.767 1.767 0 0 1-1.047-1.446l-.201-26.353c-28.71 14.646-72.885 13.984-100.517-1.953a56.019 56.019 0 0 1-12.152-9.231l-41.094-23.691-35.549 20.492c5.714 15.076 18.683 29.429 39.014 41.151 55.449 31.999 145.015 32.599 201.173 1.723l-47.132-.092Z"/><path fill="#1C2079" d="m400.543 141.932-31.683-18.276v30.768l7.517 4.322 24.182-13.937a1.546 1.546 0 0 0 .986-1.444 1.538 1.538 0 0 0-1.002-1.433Z"/><path fill="#1D205C" d="M393.058 143.347v30.768l-35.411 20.43v-30.768l35.411-20.43Z"/><path fill="url(#paint8_linear_4618_15050)" d="M400.543 141.932a1.54 1.54 0 0 1 .994 1.438 1.542 1.542 0 0 1-.994 1.439l-33.885 19.568c15.71 1.138 30.928 5.169 42.988 12.123 27.355 15.783 28.741 40.905 4.113 57.458l.154 28.476 50.613.092c51.429-32.444 49.688-83.15-5.099-114.733-25.26-14.568-57.544-22.583-90.536-24.137l31.652 18.276Z"/><path fill="url(#paint9_linear_4618_15050)" d="m149.605 143.639-40.724-23.491a84.959 84.959 0 0 1-16.189-7.092c-29.002-16.737-29.387-43.72-.877-60.166a60.87 60.87 0 0 1 4.22-2.23H49.627a5.134 5.134 0 0 1-2.51-.6 1.801 1.801 0 0 1-1.033-1.447l-.154-26.845a272.161 272.161 0 0 0-4.22 2.308c-55.957 32.306-55.45 85.104 1.201 117.764 20.24 11.568 44.883 19.106 70.791 22.491l35.903-20.692Z"/><path fill="url(#paint10_linear_4618_15050)" d="M400.543 141.932a1.54 1.54 0 0 1 .994 1.438 1.542 1.542 0 0 1-.994 1.439l-33.885 19.568c15.71 1.138 30.928 5.169 42.988 12.123 27.355 15.783 28.741 40.905 4.113 57.458l.154 28.476 50.613.092c51.429-32.444 49.688-83.15-5.099-114.733-25.26-14.568-57.544-22.583-90.536-24.137l31.652 18.276Z" opacity=".9"/><path fill="#18337E" d="M426.219 221.944c10.259-15.169 4.714-33.153-16.604-45.444-12.06-6.954-27.277-10.985-42.988-12.123v30.768c15.711 1.138 30.928 5.169 42.988 12.122a49.485 49.485 0 0 1 16.604 14.677Z" opacity=".9"/><path fill="url(#paint11_linear_4618_15050)" d="m293.634 154.531-1.324 40.752v-30.768l1.324-40.752v30.768Z"/><path fill="url(#paint12_linear_4618_15050)" d="m357.832 123.04-64.198.723-1.324 40.752 65.337-.738 35.411-20.43-35.226-20.307Z" opacity=".9"/><path fill="#263577" d="M357.647 163.777v30.768l-65.337.738v-30.768l65.337-.738Z" opacity=".9"/><path fill="#D8DCEF" d="M292.31 198.36v7.692l65.337-.738v-7.692l-65.337.738Z" opacity=".2"/><path fill="url(#paint13_linear_4618_15050)" d="m122.928 159.023-9.242 5.308c-25.922-3.385-50.582-10.923-70.852-22.568C14.154 125.179-.108 103.38.124 81.735L0 81.627v32.691l.139.154c.631 20.999 14.894 41.982 42.772 58.058 20.209 11.646 44.868 19.184 70.852 22.569l35.904-20.692-26.739-15.384Z" opacity=".9"/><path fill="#1E458E" d="M105.816 46.613v30.768l-52.693-.108V46.506l52.693.107Z" opacity=".95"/><path fill="url(#paint14_linear_4618_15050)" d="m149.605 143.639-40.724-23.491a84.959 84.959 0 0 1-16.189-7.092c-29.002-16.737-29.387-43.72-.877-60.166a60.87 60.87 0 0 1 4.22-2.23H49.627a5.134 5.134 0 0 1-2.51-.6 1.801 1.801 0 0 1-1.033-1.447l-.154-26.845a272.161 272.161 0 0 0-4.22 2.308c-55.957 32.306-55.45 85.104 1.201 117.764 20.24 11.568 44.883 19.106 70.791 22.491l35.903-20.692Z" opacity=".9"/><path fill="#18337E" d="M73.316 93.842a32.71 32.71 0 0 0 2.326 4.138 45.06 45.06 0 0 1 12.322-11.815l8.133-4.615V50.782a68.26 68.26 0 0 0-4.22 2.23c-19.13 10.877-25.246 26.584-18.56 40.83Z"/><path fill="#19226A" d="M113.702 195.114v-30.783l35.903-20.707v30.768l-35.903 20.722Z"/><path fill="url(#paint15_linear_4618_15050)" d="m207.503 165.469-65.584.754a161.288 161.288 0 0 1-19.838-.938v30.767c6.592.72 13.223 1.034 19.854.939l65.584-.754 1.324-40.752h-1.001l-.339 9.984Z" opacity=".9"/><path fill="#D8DCEF" d="M113.702 198.698c-25.907-3.322-50.551-10.922-70.79-22.583C14.154 159.531-.109 137.747.122 116.087L0 115.995v32.69l.139-22.922c.631 20.999 14.894 41.922 42.772 58.044 20.24 11.661 44.883 19.261 70.791 22.583v-7.692ZM207.503 199.837l-65.584.738a157.432 157.432 0 0 1-19.838-.938v7.692c6.591.73 13.222 1.043 19.854.938l65.584-.738-.016-7.692Z" opacity=".2"/><path fill="url(#paint16_linear_4618_15050)" d="m207.503 165.469 1.325-40.752-68.665.893c-4.783-.204-9.55-.682-14.278-1.431l31.221 18.03a1.538 1.538 0 0 1 0 2.877l-35.041 20.199c6.593.72 13.223 1.033 19.854.938l65.584-.754Z" opacity=".9"/><g style="mix-blend-mode:color-dodge"><path fill="url(#paint17_radial_4618_15050)" d="M157.861 142.886c.523-.739.262-1.539-.77-2.216l-27.71-15.983a133.513 133.513 0 0 1-3.542-.508l31.267 18.03c.297.169.554.4.755.677Z" opacity=".9"/><path fill="url(#paint18_radial_4618_15050)" d="m207.503 163.931-65.584.754a152.458 152.458 0 0 1-17.543-.723l-2.311 1.323c6.593.72 13.223 1.033 19.854.938l65.584-.754v-1.538Z" opacity=".9"/></g><path fill="url(#paint19_linear_4618_15050)" d="M250.276 58.859a5.491 5.491 0 0 1 4.99 0l33.054 19.045c0-.246-.077-.492-.107-.77-2.788-19.09-16.943-37.813-42.296-52.458C192.948-5.861 109.358-8.092 52.985 18.168l.154 28.338 52.676.107c28.187-9.692 65.677-7.415 90.321 6.785 11.952 6.891 19.007 15.522 21.225 24.445l32.915-18.984Z" opacity=".95"/><path fill="url(#paint20_radial_4618_15050)" d="m217.361 77.843 32.915-18.984a5.491 5.491 0 0 1 4.991 0l33.053 19.045c0-.246-.077-.492-.107-.77-.031-.276-.093-.43-.124-.63l-32.822-18.922a5.492 5.492 0 0 0-4.991 0L217.361 76.55v1.293Z" style="mix-blend-mode:color-dodge"/><path fill="url(#paint21_radial_4618_15050)" d="M217.361 76.55c-2.218-8.907-9.242-17.537-21.225-24.43-24.644-14.214-62.118-16.506-90.321-6.799l-52.676-.092-.154-27.06.154 28.336 52.676.108c28.187-9.692 65.677-7.415 90.321 6.785 11.952 6.891 19.007 15.522 21.225 24.445V76.55Z" style="mix-blend-mode:color-dodge"/><path fill="#93A0DF" d="M217.361 112.072c-2.218-8.923-9.242-17.553-21.225-24.445-24.644-14.2-62.118-16.507-90.32-6.785v7.692c28.186-9.722 65.676-7.415 90.32 6.846 11.952 6.892 19.007 15.523 21.225 24.445v-7.753Z" opacity=".2"/><path fill="url(#paint22_linear_4618_15050)" d="M410.37 266.495a5.058 5.058 0 0 1-2.495-.6 1.767 1.767 0 0 1-1.047-1.446l-.201-26.352c-28.71 14.645-72.885 13.984-100.517-1.954a56.046 56.046 0 0 1-12.152-9.23l-41.094-23.692-35.549 20.492c5.714 15.076 18.683 29.429 39.014 41.152 55.449 31.998 145.015 32.598 201.173 1.723l-47.132-.093Z" opacity=".95"/><path fill="url(#paint23_radial_4618_15050)" d="M257.223 263.834c-19.839-11.43-32.654-25.383-38.507-39.998l-1.216.692c5.714 15.076 18.683 29.429 39.014 41.152 55.449 31.999 145.015 32.599 201.173 1.723h-2.665c-56.435 28.983-143.475 27.799-197.799-3.569Z" style="mix-blend-mode:color-dodge"/><g opacity=".9"><path fill="url(#paint24_linear_4618_15050)" d="M256.391 264.865c-20.331-11.723-33.3-26.076-39.015-41.152v30.768c5.715 15.076 18.684 29.429 39.015 41.151 55.449 31.999 145.015 32.599 201.173 1.723v-30.767c-56.158 30.875-145.678 30.321-201.173-1.723Z"/><path fill="#D8DCEF" d="M501.784 240.943c.339 20.306-11.983 40.582-37.289 56.582v7.692c25.383-16.015 37.782-36.476 37.274-56.921l.231-.292v-7.184l-.216.123Z" opacity=".2"/><path fill="#4F66CD" d="M256.391 299.863c-20.331-11.722-33.3-26.076-39.015-41.152v7.692c5.715 15.076 18.684 29.429 39.015 41.152 55.449 31.999 145.015 32.598 201.173 1.723v-7.692c-56.158 30.876-145.678 30.276-201.173-1.723Z" opacity=".2"/></g><path fill="#AEBAF7" d="M91.815 86.734a50.568 50.568 0 0 0-14.248 11.723 39.1 39.1 0 0 0 2.911 3.692 54.742 54.742 0 0 1 11.337-8.507 60.85 60.85 0 0 1 4.22-2.23v-6.924a77.922 77.922 0 0 0-4.22 2.246Z" opacity=".2"/><path fill="#1A40B6" d="M255.266 58.874a5.008 5.008 0 0 0-2.479-.584v30.675l35.425 18.953.108-29.999-33.054-19.045Z" opacity=".95"/><path fill="#2653B8" d="M250.507 58.874a5.044 5.044 0 0 1 2.48-.584v30.675l-35.426 18.953-.108-29.999 33.054-19.045Z" opacity=".95"/><path fill="url(#paint25_radial_4618_15050)" d="M113.702 163.762c-25.907-3.4-50.552-10.923-70.79-22.584C14.816 124.979.553 103.826.122 82.673c-.154 21.538 14.109 43.306 42.788 59.859 20.209 11.645 44.868 19.184 70.852 22.568l35.842-20.691-1.171-.677-34.732 20.03Z" style="mix-blend-mode:color-dodge"/><path fill="url(#paint26_radial_4618_15050)" d="m292.31 164.515 64.382-1.476 36.366-19.692-35.334 21.23-65.414-.062Z" style="mix-blend-mode:color-dodge"/><path fill="#5892FF" d="M284.639 208.144a26.415 26.415 0 0 0 2.495 9.046s-1.54-4.015-1.54-13.446c0-13.584 2.619-89.334 2.619-89.334V83.642l-3.574 124.502Z" opacity=".95"/><g style="mix-blend-mode:color-dodge"><path fill="url(#paint27_radial_4618_15050)" d="M431.271 206.637c.37-11.154-6.807-22.384-21.563-30.907-11.475-6.615-25.815-10.553-40.709-11.907l-2.28 1.323c15.711 1.139 30.929 5.169 42.989 12.123 13.985 8.122 21.178 18.737 21.563 29.368Z" opacity=".9"/><path fill="url(#paint28_radial_4618_15050)" d="M401.329 143.378c.524-.738.262-1.538-.786-2.215l-28.71-16.553-2.973-.17 31.683 18.276c.308.16.577.386.786.662Z" opacity=".9"/><path fill="url(#paint29_radial_4618_15050)" d="m464.495 261.757-50.613-.092-.154-26.937.154 28.475 50.613.092c24.736-15.614 37.135-35.382 37.289-55.382-.77 19.43-13.2 38.645-37.289 53.844Z" opacity=".9"/></g><path fill="url(#paint30_linear_4618_15050)" d="M250.415 198.898a5.488 5.488 0 0 1 4.99 0l31.729 18.292a31.469 31.469 0 0 1-2.187-11.461l3.327-122.087-35.426-20.46-35.225 20.276-3.528 123.994c.145 3.86.734 7.69 1.756 11.415l34.564-19.969Z" opacity=".9"/><path fill="url(#paint31_radial_4618_15050)" d="M255.405 197.745a5.48 5.48 0 0 0-4.99 0l-34.641 19.999a49.658 49.658 0 0 1-1.725-11.061v.8c.145 3.859.734 7.69 1.756 11.415l34.641-20a5.488 5.488 0 0 1 4.99 0l31.729 18.292c-.246-.492-.431-1.015-.647-1.538l-31.113-17.907Z" style="mix-blend-mode:color-dodge"/><path fill="#141653" d="M208.828 124.717v30.768l-1.325 40.752v-30.768l1.325-40.752Z"/><defs><linearGradient id="paint0_linear_4618_15050" x1="212.956" x2="263.215" y1="67.166" y2="117.732" gradientUnits="userSpaceOnUse"><stop offset=".04" stop-color="#9F19AB"/><stop offset=".24" stop-color="#AE25B1"/><stop offset=".65" stop-color="#D744BF"/><stop offset="1" stop-color="#FF63CE"/></linearGradient><linearGradient id="paint1_linear_4618_15050" x1="239.972" x2="315.252" y1="69.028" y2="117.832" gradientUnits="userSpaceOnUse"><stop stop-color="#B127B2"/><stop offset=".45" stop-color="#D140BE"/><stop offset="1" stop-color="#FF63CE"/></linearGradient><linearGradient id="paint2_linear_4618_15050" x1="122.065" x2="208.828" y1="175.976" y2="175.976" gradientUnits="userSpaceOnUse"><stop stop-color="#5B0AA1"/><stop offset="1" stop-color="#8005B5"/></linearGradient><linearGradient id="paint3_linear_4618_15050" x1="366.627" x2="501.815" y1="223.851" y2="223.851" gradientUnits="userSpaceOnUse"><stop stop-color="#6E05B5"/><stop offset="1" stop-color="#9F19AB"/></linearGradient><linearGradient id="paint4_linear_4618_15050" x1=".092" x2="149.605" y1="123.779" y2="123.779" gradientUnits="userSpaceOnUse"><stop stop-color="#6E05B5"/><stop offset="1" stop-color="#9F19AB"/></linearGradient><linearGradient id="paint5_linear_4618_15050" x1="292.31" x2="393.058" y1="174.546" y2="174.546" gradientUnits="userSpaceOnUse"><stop stop-color="#5B0AA1"/><stop offset="1" stop-color="#8005B5"/></linearGradient><linearGradient id="paint6_linear_4618_15050" x1="59.685" x2="292.233" y1="69.735" y2="69.735" gradientUnits="userSpaceOnUse"><stop offset=".04" stop-color="#2B3893"/><stop offset=".18" stop-color="#133C8A"/><stop offset=".46" stop-color="#1F4FA7"/><stop offset=".542" stop-color="#194494"/><stop offset=".99" stop-color="#0B275C"/></linearGradient><linearGradient id="paint7_linear_4618_15050" x1=".092" x2="149.605" y1="123.779" y2="123.779" gradientUnits="userSpaceOnUse"><stop stop-color="#6E05B5"/><stop offset="1" stop-color="#9F19AB"/></linearGradient><linearGradient id="paint8_linear_4618_15050" x1="366.627" x2="501.815" y1="193.083" y2="193.083" gradientUnits="userSpaceOnUse"><stop offset=".04" stop-color="#6B24D6"/><stop offset=".29" stop-color="#7733DC"/><stop offset=".79" stop-color="#975CED"/><stop offset="1" stop-color="#A56EF4"/></linearGradient><linearGradient id="paint9_linear_4618_15050" x1=".092" x2="149.605" y1="93.011" y2="93.011" gradientUnits="userSpaceOnUse"><stop offset=".04" stop-color="#6B24D6"/><stop offset=".29" stop-color="#7733DC"/><stop offset=".79" stop-color="#975CED"/><stop offset="1" stop-color="#A56EF4"/></linearGradient><linearGradient id="paint10_linear_4618_15050" x1="512.335" x2="394.298" y1="76.273" y2="226.79" gradientUnits="userSpaceOnUse"><stop stop-color="#062476"/><stop offset="1" stop-color="#2E4FAA"/></linearGradient><linearGradient id="paint11_linear_4618_15050" x1="292.31" x2="293.634" y1="159.516" y2="159.516" gradientUnits="userSpaceOnUse"><stop offset=".1" stop-color="#45108A"/><stop offset="1" stop-color="#7C1DC9"/></linearGradient><linearGradient id="paint12_linear_4618_15050" x1="359.311" x2="335.109" y1="26.814" y2="189.123" gradientUnits="userSpaceOnUse"><stop stop-color="#273D99"/><stop offset="1" stop-color="#21368C"/></linearGradient><linearGradient id="paint13_linear_4618_15050" x1="81.326" x2="38.289" y1="111.564" y2="220.441" gradientUnits="userSpaceOnUse"><stop stop-color="#213E92"/><stop offset="1" stop-color="#081A4D"/></linearGradient><linearGradient id="paint14_linear_4618_15050" x1="150" x2="22.084" y1="41" y2="142.252" gradientUnits="userSpaceOnUse"><stop stop-color="#3B6FD3"/><stop offset="1" stop-color="#133880"/></linearGradient><linearGradient id="paint15_linear_4618_15050" x1="148.866" x2="189.595" y1="130.609" y2="241.79" gradientUnits="userSpaceOnUse"><stop stop-color="#172F70"/><stop offset="1" stop-color="#202874"/></linearGradient><linearGradient id="paint16_linear_4618_15050" x1="179.378" x2="162.859" y1="63.628" y2="169.398" gradientUnits="userSpaceOnUse"><stop stop-color="#486CD5"/><stop offset="1" stop-color="#2E4FA9"/></linearGradient><linearGradient id="paint19_linear_4618_15050" x1="208.35" x2="130.736" y1="-61.951" y2="165.019" gradientUnits="userSpaceOnUse"><stop offset=".04" stop-color="#1A55C3"/><stop offset=".24" stop-color="#1A55C3"/><stop offset=".65" stop-color="#528EFF"/><stop offset="1" stop-color="#275FC9"/></linearGradient><linearGradient id="paint22_linear_4618_15050" x1="357.077" x2="307.375" y1="184.776" y2="338.143" gradientUnits="userSpaceOnUse"><stop offset=".04" stop-color="#2D4BAC"/><stop offset=".24" stop-color="#3353B7"/><stop offset=".65" stop-color="#5372D6"/><stop offset="1" stop-color="#5077ED"/></linearGradient><linearGradient id="paint24_linear_4618_15050" x1="456.562" x2="198.724" y1="271.895" y2="271.895" gradientUnits="userSpaceOnUse"><stop offset=".04" stop-color="#103782"/><stop offset=".18" stop-color="#0E2B64"/><stop offset=".46" stop-color="#1F3886"/><stop offset=".542" stop-color="#2B428E"/><stop offset=".99" stop-color="#071B55"/></linearGradient><linearGradient id="paint30_linear_4618_15050" x1="367.936" x2="195.637" y1="34.906" y2="207.415" gradientUnits="userSpaceOnUse"><stop stop-color="#3068D1"/><stop offset=".45" stop-color="#356DD6"/><stop offset="1" stop-color="#17459C"/></linearGradient><radialGradient id="paint17_radial_4618_15050" cx="0" cy="0" r="1" gradientTransform="matrix(26.2614 0 0 26.2295 153.902 115.856)" gradientUnits="userSpaceOnUse"><stop stop-color="#fff"/><stop offset="1"/></radialGradient><radialGradient id="paint18_radial_4618_15050" cx="0" cy="0" r="1" gradientTransform="matrix(25.8147 0 0 25.7835 185.262 164.485)" gradientUnits="userSpaceOnUse"><stop stop-color="#fff"/><stop offset="1"/></radialGradient><radialGradient id="paint20_radial_4618_15050" cx="0" cy="0" r="1" gradientTransform="matrix(37.1356 0 0 37.0906 268.898 45.613)" gradientUnits="userSpaceOnUse"><stop stop-color="#fff"/><stop offset="1"/></radialGradient><radialGradient id="paint21_radial_4618_15050" cx="0" cy="0" r="1" gradientTransform="matrix(42.5572 0 0 42.5057 188.974 39.321)" gradientUnits="userSpaceOnUse"><stop stop-color="#fff"/><stop offset="1"/></radialGradient><radialGradient id="paint23_radial_4618_15050" cx="0" cy="0" r="1" gradientTransform="matrix(71.8529 0 0 71.7659 292.418 259.619)" gradientUnits="userSpaceOnUse"><stop stop-color="#fff"/><stop offset="1"/></radialGradient><radialGradient id="paint25_radial_4618_15050" cx="0" cy="0" r="1" gradientTransform="matrix(60.378 0 0 60.3049 74.856 123.887)" gradientUnits="userSpaceOnUse"><stop stop-color="#fff"/><stop offset="1"/></radialGradient><radialGradient id="paint26_radial_4618_15050" cx="0" cy="0" r="1" gradientTransform="matrix(36.4116 0 0 36.3676 333.958 179.084)" gradientUnits="userSpaceOnUse"><stop stop-color="#fff"/><stop offset="1"/></radialGradient><radialGradient id="paint27_radial_4618_15050" cx="0" cy="0" r="1" gradientTransform="matrix(27.4011 0 0 27.368 398.911 185.238)" gradientUnits="userSpaceOnUse"><stop stop-color="#fff"/><stop offset="1"/></radialGradient><radialGradient id="paint28_radial_4618_15050" cx="0" cy="0" r="1" gradientTransform="matrix(13.3694 0 0 13.3532 393.951 128.256)" gradientUnits="userSpaceOnUse"><stop stop-color="#fff"/><stop offset="1"/></radialGradient><radialGradient id="paint29_radial_4618_15050" cx="0" cy="0" r="1" gradientTransform="matrix(36.7813 0 0 36.7368 457.748 235.635)" gradientUnits="userSpaceOnUse"><stop stop-color="#fff"/><stop offset="1"/></radialGradient><radialGradient id="paint31_radial_4618_15050" cx="0" cy="0" r="1" gradientTransform="matrix(22.1489 0 0 22.122 227.188 197.022)" gradientUnits="userSpaceOnUse"><stop stop-color="#fff"/><stop offset="1"/></radialGradient></defs></svg>