<svg xmlns="http://www.w3.org/2000/svg" width="345" height="120" fill="none" viewBox="0 0 345 120"><g clip-path="url(#clip0_7866_26497)"><mask id="mask0_7866_26497" width="105" height="83" x="121" y="11" maskUnits="userSpaceOnUse" style="mask-type:luminance"><path fill="#fff" d="M121 11h104.135v82.659H121V11Z"/></mask><g mask="url(#mask0_7866_26497)"><path fill="#00A650" d="M121 11.002h104.137V93.43H121V11.002Z"/></g><mask id="mask1_7866_26497" width="105" height="12" x="121" y="97" maskUnits="userSpaceOnUse" style="mask-type:luminance"><path fill="#fff" d="M121 97.7h104.135V109H121V97.7Z"/></mask><g mask="url(#mask1_7866_26497)"><path fill="#00529C" d="M121 98.014h104.137V109H121V98.014Z"/></g><path fill="#fff" d="M127.304 106.078c-.676 0-1.147-.357-1.486-.785l.605-.645c.299.383.618.568.919.568.373 0 .557-.207.557-.541 0-.286-.178-.511-.765-.812-.74-.384-1.188-.759-1.188-1.586 0-.748.553-1.338 1.396-1.338.62 0 1.005.247 1.361.714l-.59.588c-.294-.326-.449-.442-.791-.442-.29 0-.475.187-.475.435 0 .3.172.483.716.776.861.464 1.239.805 1.239 1.643 0 .827-.568 1.425-1.498 1.425ZM133.206 103.503c0-1.432-.488-2.565-1.642-2.565-1.159 0-1.662 1.142-1.662 2.577 0 1.432.493 2.564 1.648 2.564 1.151 0 1.656-1.138 1.656-2.576Zm-.909.012c0 1.062-.206 1.675-.733 1.675-.534 0-.755-.628-.755-1.687 0-1.062.207-1.673.741-1.673.526 0 .747.627.747 1.685ZM135.485 101.882v1.096h1.165v.866h-1.165v2.152h-.887v-4.976h2.62v.862h-1.733ZM140.164 101.875v4.124h-.887v-4.124h-1.033v-.855h2.951v.855h-1.031ZM145.752 105.998h-.769l-.418-2.086c-.102-.484-.173-.91-.224-1.25-.047.346-.12.766-.216 1.25l-.421 2.086h-.748l-.802-4.971h.838l.241 1.853c.049.36.121 1.065.157 1.409.043-.344.163-1.049.238-1.409l.359-1.853h.733l.362 1.853c.073.36.201 1.065.241 1.409.037-.344.108-1.049.156-1.409l.241-1.853h.834l-.802 4.971ZM150.633 105.998l-1.271-4.971h-.87l-1.271 4.971h.91l.236-1.039h1.117l.232 1.039h.917Zm-1.342-1.87h-.733l.135-.604c.09-.404.192-.937.227-1.192.036.248.149.824.237 1.205l.134.591ZM154.855 105.999l-.851-2.069c.484-.226.837-.66.837-1.358 0-1.033-.619-1.552-1.582-1.552h-1.321v4.979h.889v-1.891h.29l.771 1.891h.967Zm-.901-3.411c0 .454-.236.687-.686.687h-.441v-1.386h.391c.531 0 .736.25.736.699ZM156.203 105.999v-4.979h2.55v.855h-1.663v1.053h1.118v.841h-1.118v1.376h1.726v.854h-2.613ZM165.629 103.503c0-1.432-.493-2.565-1.644-2.565-1.16 0-1.663 1.142-1.663 2.577 0 1.432.49 2.564 1.648 2.564.183 0 .364-.043.534-.122l.291.491.603-.369-.348-.577c.363-.467.579-1.181.579-1.999Zm-.913.012c0 .565-.043.95-.126 1.222l-.272-.457-.602.369.354.594c-.029.007-.059.007-.085.007-.533 0-.754-.688-.754-1.747 0-1.062.206-1.673.739-1.673.525 0 .746.627.746 1.685ZM168.464 106.079c-1.06 0-1.476-.818-1.476-2.055v-2.997h.887v2.997c0 .859.19 1.172.599 1.172.41 0 .578-.313.578-1.172v-2.997h.89v2.982c0 1.295-.386 2.07-1.478 2.07ZM174.494 105.998l-1.27-4.971h-.87l-1.276 4.971h.913l.235-1.039h1.115l.237 1.039h.916Zm-1.342-1.87h-.732l.133-.604c.091-.404.191-.937.229-1.192.037.248.149.824.232 1.205l.138.591ZM175.799 105.998v-4.971h.887v4.103h1.558v.868h-2.445ZM179.623 101.027h.888v4.971h-.888v-4.971ZM183.741 101.875v4.124h-.886v-4.124h-1.031v-.855h2.948v.855h-1.031ZM187.877 104.121v1.877h-.887v-1.859l-1.283-3.112h.98l.386 1.008c.165.433.327.922.368 1.159.053-.237.215-.747.37-1.159l.383-1.008h.969l-1.286 3.094ZM193.856 106.078c-.678 0-1.145-.357-1.485-.785l.604-.645c.296.383.616.568.919.568.37 0 .556-.207.556-.541 0-.286-.18-.511-.764-.812-.742-.384-1.19-.759-1.19-1.586 0-.748.557-1.338 1.398-1.338.62 0 1.006.247 1.36.714l-.591.588c-.29-.326-.449-.442-.794-.442-.284 0-.47.187-.47.435 0 .3.173.483.716.776.862.464 1.238.805 1.238 1.643 0 .827-.57 1.425-1.497 1.425ZM198.244 104.121v1.877h-.887v-1.859l-1.279-3.112h.98l.386 1.008c.16.433.325.922.368 1.159.05-.237.215-.747.37-1.159l.386-1.008h.964l-1.288 3.094ZM201.748 106.078c-.679 0-1.147-.357-1.488-.785l.604-.645c.298.383.618.568.918.568.371 0 .557-.207.557-.541 0-.286-.178-.511-.766-.812-.738-.384-1.188-.759-1.188-1.586 0-.748.556-1.338 1.397-1.338.622 0 1.005.247 1.361.714l-.589.588c-.292-.326-.452-.442-.795-.442-.282 0-.469.187-.469.435 0 .3.171.483.713.776.861.464 1.239.805 1.239 1.643 0 .827-.567 1.425-1.494 1.425ZM206.067 101.875v4.124h-.888v-4.124h-1.031v-.855h2.949v.855h-1.03ZM208.383 105.999v-4.979h2.55v.855h-1.662v1.053h1.114v.841h-1.114v1.376h1.724v.854h-2.612ZM215.218 105.995v-1.604c0-.59.006-1.135.009-1.505-.096.354-.258.91-.445 1.475l-.572 1.761-.576-1.761a53.55 53.55 0 0 1-.449-1.475c.007.37.013.915.013 1.505v1.604h-.794v-4.968h.894l.592 1.837c.146.464.292.887.332 1.122.046-.246.193-.683.333-1.122l.592-1.837h.875v4.968h-.804ZM218.783 106.078c-.679 0-1.149-.357-1.488-.785l.6-.645c.303.383.623.568.921.568.375 0 .561-.207.561-.541 0-.286-.178-.511-.766-.812-.741-.384-1.188-.759-1.188-1.586 0-.748.556-1.338 1.393-1.338.623 0 1.009.247 1.365.714l-.589.588c-.295-.326-.452-.442-.797-.442-.286 0-.47.187-.47.435 0 .3.171.483.716.776.863.464 1.239.805 1.239 1.643 0 .827-.57 1.425-1.497 1.425Z"/><path fill="#fff" fill-rule="evenodd" d="M149.432 72.362c-1.899-1.932-4.184-2.898-6.864-2.898h-16.769c-.643 0-1.202-.238-1.676-.712a2.346 2.346 0 0 1-.713-1.727c0-.676.22-1.236.662-1.678a2.353 2.353 0 0 1 1.727-.709h25.251v-7.267h-25.251c-1.76 0-3.369.43-4.797 1.271v16.82c1.428.84 3.037 1.272 4.797 1.272h16.769c.68 0 1.255.237 1.728.71.476.475.714 1.051.714 1.73 0 .641-.238 1.202-.714 1.676a2.344 2.344 0 0 1-1.728.712h-21.566v7.316h21.566c2.68 0 4.965-.948 6.864-2.845 1.894-1.898 2.845-4.169 2.845-6.81 0-2.644-.951-4.931-2.845-6.861Z" clip-rule="evenodd"/><mask id="mask2_7866_26497" width="72" height="38" x="154" y="56" maskUnits="userSpaceOnUse" style="mask-type:luminance"><path fill="#fff" d="M154.432 56.922h70.704v36.737h-70.704V56.922Z"/></mask><g mask="url(#mask2_7866_26497)"><path fill="#fff" d="M225.137 70.665c-1.501-.953-3.187-1.442-5.071-1.442h-16.769c-.644 0-1.204-.235-1.677-.712a2.34 2.34 0 0 1-.711-1.73c0-.675.219-1.233.661-1.675a2.354 2.354 0 0 1 1.727-.712h21.84v-7.267h-21.84c-2.646 0-4.912.95-6.81 2.846-1.896 1.897-2.846 4.167-2.846 6.809 0 2.68.95 4.965 2.846 6.862 1.898 1.897 4.164 2.846 6.81 2.846h16.769c.679 0 1.254.237 1.728.71.473.475.713 1.054.713 1.728 0 .646-.24 1.206-.713 1.68a2.357 2.357 0 0 1-1.728.71h-29.133V66.783c0-2.642-.953-4.912-2.846-6.81-1.898-1.895-4.17-2.845-6.81-2.845h-16.976c-2.643 0-4.912.95-6.809 2.846-1.898 1.897-2.846 4.167-2.846 6.809v12.146c0 2.645.948 4.914 2.846 6.81 1.897 1.898 4.166 2.848 6.809 2.848h10.961l2.796 4.84h7.649l-7.001-12.107h-14.405c-.575 0-1.117-.238-1.625-.71-.51-.475-.764-1.035-.764-1.68V66.781c0-.61.289-1.15.864-1.624.611-.51 1.118-.764 1.525-.764h16.976c.576 0 1.118.238 1.628.712.507.475.762 1.033.762 1.676v12.146c0 .039 5.65 9.708 5.65 9.708h30.749c1.884 0 3.57-.48 5.071-1.419V70.665Z"/></g></g><path stroke="#00A650" stroke-width="1.5" d="M.75 10A9.25 9.25 0 0 1 10 .75h325a9.25 9.25 0 0 1 9.25 9.25v100a9.25 9.25 0 0 1-9.25 9.25H10A9.25 9.25 0 0 1 .75 110V10Z"/><defs><clipPath id="clip0_7866_26497"><path fill="#fff" d="M121 11h104.135v98H121z"/></clipPath></defs></svg>