<svg xmlns="http://www.w3.org/2000/svg" width="345" height="121" fill="none" viewBox="0 0 345 121"><path stroke="#F05138" stroke-width="1.5" d="M.75 10.078A9.25 9.25 0 0 1 10 .828h325a9.25 9.25 0 0 1 9.25 9.25v100a9.25 9.25 0 0 1-9.25 9.25H10a9.25 9.25 0 0 1-9.25-9.25v-100Z"/><path fill="#F05138" d="M151.637 45.473a18.07 18.07 0 0 0-.409-3.821c-.504-2.581-1.849-4.947-3.841-6.763a12.143 12.143 0 0 0-3.484-2.284 14.751 14.751 0 0 0-3.984-1.235c-1.369-.254-2.882-.254-4.251-.37h-33.822a24.985 24.985 0 0 0-3.148.254 11.778 11.778 0 0 0-3.022.744l-.96.37c-.916.46-1.79.997-2.613 1.608-.267.254-.55.37-.818.608a11.031 11.031 0 0 0-2.507 3.078 11.09 11.09 0 0 0-1.369 3.703c-.203 1.26-.34 2.53-.409 3.805v29.476c0 1.283.137 2.563.409 3.82.504 2.582 1.849 4.948 3.84 6.764a12.259 12.259 0 0 0 3.43 2.216 14.749 14.749 0 0 0 3.984 1.235c1.369.254 2.882.254 4.251.37h32.823a24.883 24.883 0 0 0 4.251-.37 14.813 14.813 0 0 0 3.913-1.218 15.693 15.693 0 0 0 3.557-2.215 11.047 11.047 0 0 0 2.472-3.076 11.105 11.105 0 0 0 1.369-3.703c.204-1.266.34-2.542.409-3.822V45.473h-.071Z"/><path fill="#FEFEFE" d="M130.211 75.915c-5.762 2.995-13.675 3.298-21.626.237-6.199-2.372-11.51-6.462-15.24-11.736a27.11 27.11 0 0 0 5.637 3.06c8.215 3.381 16.448 3.23 22.227 0a112.168 112.168 0 0 1-20.45-19.075 21.3 21.3 0 0 1-2.737-3.382 157.92 157.92 0 0 0 19.88 13.53 134.61 134.61 0 0 1-13.993-15.778 137.458 137.458 0 0 0 23.117 17.013l.888.473a15.4 15.4 0 0 0 .624-1.69c1.921-6.292-.268-13.446-5.068-19.364 11.114 6.038 17.694 17.384 14.955 26.888 0 .254-.142.507-.232.762l.088.101c5.494 6.172 3.984 12.7 3.29 11.465-3.005-5.158-8.571-3.568-11.364-2.486l.004-.018Z"/><path fill="#221F20" d="M248.217 53.917h-10.792v-1.313c0-1.047.097-2.094.181-3.16.07-.921.324-1.82.747-2.64a4.906 4.906 0 0 1 1.578-1.76 5.411 5.411 0 0 1 2.786-.7 9.046 9.046 0 0 1 1.773.181l1.207.435.747-1.76a8.753 8.753 0 0 0-1.483-.53 7.276 7.276 0 0 0-2.05-.266 7.955 7.955 0 0 0-3.726.796 7.387 7.387 0 0 0-2.508 2.194 10.532 10.532 0 0 0-1.303 3.256 18.7 18.7 0 0 0-.374 4.042v1.314h-3.516v1.76h3.532v21.278h2.413V55.676h10.791v14.589a14.12 14.12 0 0 0 .277 2.906c.108.816.392 1.597.833 2.292a3.788 3.788 0 0 0 1.675 1.497c.878.379 1.829.56 2.785.53a8.254 8.254 0 0 0 3.256-.531l-.253-1.712c-.37.11-.74.198-1.12.266a8.445 8.445 0 0 1-1.58.083 3.024 3.024 0 0 1-2.7-1.206 7.214 7.214 0 0 1-.747-3.521v-15.11h6.824v-1.748h-6.789v-5.098l-2.412.699-.052 4.305Zm-84.216 19.607c1.03.675 2.162 1.18 3.353 1.496a14.66 14.66 0 0 0 4.003.615 8.815 8.815 0 0 0 5.958-1.845 6.268 6.268 0 0 0 2.133-4.823 6.488 6.488 0 0 0-1.578-4.498 14.048 14.048 0 0 0-5.209-3.159 18.23 18.23 0 0 1-6.318-3.425 6.964 6.964 0 0 1-2.327-5.45 7.63 7.63 0 0 1 .747-3.256 7.91 7.91 0 0 1 2.05-2.545 8.44 8.44 0 0 1 3.075-1.676 11.34 11.34 0 0 1 3.907-.615 18.12 18.12 0 0 1 4.09.435c.87.225 1.712.549 2.509.964l-.929 1.93a8.815 8.815 0 0 0-2.231-.967 11.169 11.169 0 0 0-3.618-.53 9.645 9.645 0 0 0-3.436.53 6.735 6.735 0 0 0-2.316 1.41 6.21 6.21 0 0 0-1.207 1.93 5.185 5.185 0 0 0-.374 2.026 5.726 5.726 0 0 0 1.675 4.304 17.068 17.068 0 0 0 5.306 2.99 22.437 22.437 0 0 1 3.618 1.76c.971.59 1.876 1.28 2.7 2.061a7.062 7.062 0 0 1 1.58 2.412 8.757 8.757 0 0 1 .554 3.16 8.97 8.97 0 0 1-.651 3.425 7.69 7.69 0 0 1-1.99 2.834 10.246 10.246 0 0 1-3.353 1.929 14.557 14.557 0 0 1-4.653.698 19.137 19.137 0 0 1-2.23-.18 20.04 20.04 0 0 1-2.231-.435c-.7-.178-1.386-.412-2.049-.698a8.315 8.315 0 0 1-1.579-.796l1.021-2.011Zm22.309-19.51 4.003 13.095 1.121 3.784c.373 1.143.65 2.412.929 3.425h.18l1.026-3.425 1.304-3.784 4.702-13.095h2.23l4.557 12.914 1.304 3.955 1.026 3.425h.181l.929-3.425 1.207-3.87 4.245-13h2.412l-8.001 23.03h-1.905l-4.57-12.84a109.595 109.595 0 0 0-1.401-3.956l-1.026-3.87h-.096a40.978 40.978 0 0 1-1.206 3.954c-.466 1.23-.933 2.549-1.401 3.955l-4.726 12.758h-2.042l-7.407-23.031 2.425.001Zm36.547 0h2.413v23.03h-2.413v-23.03Zm-.929-7.03a2.01 2.01 0 0 1 2.052-2.03 2.176 2.176 0 0 1 2.122 2.015 1.817 1.817 0 0 1-.65 1.41 2.194 2.194 0 0 1-1.482.532 2.416 2.416 0 0 1-1.483-.53 2.077 2.077 0 0 1-.591-1.41l.032.013Z"/></svg>