<svg xmlns="http://www.w3.org/2000/svg" width="345" height="121" fill="none" viewBox="0 0 345 121"><path stroke="#007ACC" stroke-width="1.5" d="M.75 10.078A9.25 9.25 0 0 1 10 .828h325a9.25 9.25 0 0 1 9.25 9.25v100a9.25 9.25 0 0 1-9.25 9.25H10a9.25 9.25 0 0 1-9.25-9.25v-100Z"/><path fill="#007ACC" d="M105.243 42.776h-9.254v28.508h-3.774V42.776H83v-3.384h22.243v3.384Zm14.6 5.737-10.531 26.415C107.437 79.64 104.8 82 101.395 82c-.951 0-1.749-.095-2.39-.29v-3.271c.787.266 1.513.398 2.166.398 1.851 0 3.237-1.094 4.158-3.29l1.831-4.313-8.943-22.72h4.069l6.195 17.521c.077.222.229.803.471 1.734h.131l.443-1.69 6.504-17.566h3.813Zm5.996 19.483h-.089V81.76h-3.669V48.512h3.669v4.003h.089c1.805-3.023 4.438-4.537 7.917-4.537 2.95 0 5.251 1.018 6.908 3.055s2.478 4.77 2.478 8.197c0 3.808-.929 6.864-2.79 9.154-1.86 2.29-4.414 3.434-7.643 3.434-2.953-.006-5.259-1.278-6.867-3.827l-.003.005Zm-.089-9.187v3.183c0 1.885.617 3.477 1.845 4.796 1.227 1.319 2.789 1.966 4.686 1.966 2.218 0 3.961-.848 5.221-2.536 1.26-1.688 1.887-4.041 1.887-7.046 0-2.537-.591-4.522-1.767-5.958-1.177-1.436-2.79-2.154-4.782-2.154-2.129 0-3.847.739-5.144 2.213-1.296 1.474-1.946 3.312-1.946 5.536Zm39.635 2h-16.162c.057 2.536.743 4.488 2.054 5.87 1.311 1.38 3.118 2.067 5.411 2.067 2.577 0 4.948-.849 7.11-2.536v3.423c-2.01 1.452-4.673 2.182-7.981 2.182-3.237 0-5.776-1.032-7.625-3.101-1.849-2.07-2.789-4.979-2.789-8.73 0-3.541 1.01-6.43 3.027-8.659 2.017-2.228 4.529-3.346 7.523-3.346 2.995 0 5.31.964 6.951 2.89 1.641 1.925 2.461 4.602 2.461 8.027v1.91l.02.003Zm-3.774-3.093c-.013-2.122-.528-3.745-1.533-4.913-1.004-1.169-2.403-1.758-4.19-1.758-1.73 0-3.2.613-4.408 1.847-1.207 1.234-1.969 2.84-2.238 4.827l12.369-.003Zm6.964 12.277v-4.402c.464.44 1.017.849 1.665 1.202a12.09 12.09 0 0 0 2.048.897c.735.24 1.437.436 2.156.572.719.135 1.395.202 2.002.202 2.112 0 3.695-.424 4.737-1.278 1.042-.854 1.564-2.081 1.564-3.68 0-.861-.173-1.607-.522-2.247a6.205 6.205 0 0 0-1.444-1.746A14.275 14.275 0 0 0 178.599 58l-2.708-1.524-2.861-1.714a12.366 12.366 0 0 1-2.309-1.91 7.986 7.986 0 0 1-1.546-2.366c-.376-.882-.558-1.917-.558-3.102 0-1.452.292-2.714.878-3.786a7.944 7.944 0 0 1 2.314-2.658 10.086 10.086 0 0 1 3.262-1.555 13.8 13.8 0 0 1 3.733-.513c2.892 0 4.998.38 6.32 1.133v4.2c-1.729-1.303-3.938-1.954-6.67-1.954-.75 0-1.501.088-2.251.253a5.881 5.881 0 0 0-2.002.836 4.643 4.643 0 0 0-1.431 1.493c-.369.612-.553 1.347-.553 2.226 0 .817.14 1.518.42 2.113.281.594.693 1.132 1.241 1.625.548.493 1.208.963 1.997 1.424l2.707 1.511 2.986 1.78c.942.62 1.768 1.308 2.475 2.067a9.244 9.244 0 0 1 1.685 2.514c.413.919.624 1.975.624 3.157 0 1.566-.286 2.905-.846 3.99a7.382 7.382 0 0 1-2.288 2.658c-.96.685-2.068 1.175-3.326 1.48a16.762 16.762 0 0 1-3.968.457c-.464 0-1.037-.037-1.716-.12l-2.084-.355a16.574 16.574 0 0 1-2.015-.576c-.64-.245-1.145-.49-1.533-.784l-.001-.008Zm37.296.245c-1.761 1.05-3.848 1.583-6.257 1.583-3.262 0-5.9-1.056-7.903-3.17-2.004-2.113-3.008-4.85-3.008-8.216 0-3.75 1.083-6.762 3.242-9.04 2.159-2.276 5.042-3.416 8.654-3.416 2.01 0 3.784.376 5.323 1.114v3.754c-1.698-1.192-3.517-1.78-5.456-1.78-2.34 0-4.26.836-5.754 2.506-1.495 1.67-2.245 3.859-2.245 6.572 0 2.668.705 4.775 2.112 6.313 1.406 1.538 3.298 2.314 5.665 2.314 1.997 0 3.873-.657 5.635-1.98v3.46l-.008-.014Zm14.187-18.04c-.64-.486-1.564-.734-2.79-.734-1.564 0-2.875.735-3.921 2.204-1.047 1.469-1.576 3.467-1.576 6.003v11.605h-3.669v-22.77h3.669v4.695h.089c.522-1.6 1.316-2.853 2.391-3.744 1.074-.892 2.269-1.347 3.598-1.347.952 0 1.685.101 2.194.327l.015 3.762Zm4.208-9.466a2.343 2.343 0 0 1-1.678-.664c-.465-.443-.693-1.006-.693-1.69 0-.684.23-1.245.693-1.7a2.303 2.303 0 0 1 1.678-.678 2.39 2.39 0 0 1 1.71.677 2.268 2.268 0 0 1 .706 1.701 2.25 2.25 0 0 1-.706 1.67 2.401 2.401 0 0 1-1.71.684Zm1.789 28.552h-3.669v-22.77h3.669v22.77Zm5.913-3.288h-.088V81.76h-3.669V48.512h3.669v4.003h.088c1.805-3.023 4.439-4.537 7.918-4.537 2.95 0 5.25 1.018 6.907 3.055 1.658 2.037 2.478 4.77 2.478 8.197 0 3.808-.929 6.864-2.789 9.154-1.861 2.29-4.431 3.434-7.643 3.434-2.954-.006-5.259-1.278-6.867-3.827l-.004.005Zm-.088-9.185v3.183c0 1.885.617 3.476 1.844 4.795 1.228 1.32 2.79 1.967 4.686 1.967 2.219 0 3.961-.849 5.222-2.536 1.26-1.688 1.887-4.042 1.887-7.047 0-2.536-.591-4.521-1.768-5.957-1.176-1.437-2.789-2.155-4.781-2.155-2.13 0-3.848.74-5.144 2.213-1.296 1.474-1.946 3.314-1.946 5.542v-.005ZM263 71.064c-.865.473-2.002.709-3.421.709-4.004 0-6.015-2.227-6.015-6.673V51.628h-3.938v-3.113h3.938v-5.56l3.668-1.175v6.736H263v3.113h-5.768v12.83c0 1.524.263 2.617.783 3.27s1.387.98 2.593.98c.922 0 1.723-.253 2.39-.76l.002 3.115Z"/></svg>