<svg xmlns="http://www.w3.org/2000/svg" width="16" height="18" fill="none" viewBox="0 0 16 18"><path stroke="#BABABA" stroke-linecap="round" stroke-linejoin="round" d="M4.667 2.333v10A1.667 1.667 0 0 0 6.334 14H13a1.666 1.666 0 0 0 1.667-1.667V5.035a1.665 1.665 0 0 0-.502-1.192l-2.762-2.701a1.666 1.666 0 0 0-1.165-.475H6.334a1.667 1.667 0 0 0-1.667 1.666v0Z"/><path stroke="#BABABA" stroke-linecap="round" stroke-linejoin="round" d="M11.334 14v1.667a1.667 1.667 0 0 1-1.667 1.666H3a1.667 1.667 0 0 1-1.667-1.666V6.5A1.667 1.667 0 0 1 3 4.833h1.667"/></svg>