<svg xmlns="http://www.w3.org/2000/svg" width="15" height="12" fill="none" viewBox="0 0 15 12"><path fill="#1049B3" d="M12.231 1.329A11.66 11.66 0 0 0 9.306.4a.044.044 0 0 0-.047.023c-.126.23-.266.53-.364.765a10.701 10.701 0 0 0-3.285 0 7.815 7.815 0 0 0-.37-.765A.046.046 0 0 0 5.193.4C4.167.581 3.184.9 2.268 1.33a.042.042 0 0 0-.02.017C.387 4.192-.124 6.968.127 9.71a.05.05 0 0 0 .018.034c1.23.923 2.42 1.483 3.589 1.855a.046.046 0 0 0 .05-.017c.277-.386.523-.793.734-1.221a.047.047 0 0 0-.025-.065 7.771 7.771 0 0 1-1.12-.546.048.048 0 0 1-.005-.078c.075-.058.15-.118.222-.179a.044.044 0 0 1 .047-.006c2.352 1.098 4.898 1.098 7.222 0a.043.043 0 0 1 .047.006c.072.06.147.12.223.179a.048.048 0 0 1-.004.078c-.358.214-.73.395-1.122.546a.047.047 0 0 0-.024.065c.216.427.462.834.734 1.22a.045.045 0 0 0 .05.018 11.776 11.776 0 0 0 3.594-1.855.047.047 0 0 0 .019-.034c.3-3.17-.502-5.923-2.125-8.364a.037.037 0 0 0-.019-.017ZM4.868 8.04c-.708 0-1.291-.665-1.291-1.48 0-.817.572-1.482 1.291-1.482.725 0 1.303.67 1.292 1.481 0 .816-.572 1.481-1.292 1.481Zm4.775 0c-.708 0-1.291-.665-1.291-1.48 0-.817.572-1.482 1.291-1.482.725 0 1.303.67 1.292 1.481 0 .816-.567 1.481-1.292 1.481Z"/></svg>