<svg xmlns="http://www.w3.org/2000/svg" width="16" height="16" fill="none" viewBox="0 0 16 16"><g id="github-svgrepo-com 1" clip-path="url(#clip0_4905_4578)"><path id="Vector" fill="#1049B3" d="M8.142.8C4.1.8.957 3.95.957 8c0 4.726 4.266 6.75 4.94 6.75.449 0 .449-.224.449-.45v-1.124c-1.572.45-2.246-.45-2.47-1.125 0 0 0-.225-.45-.675-.224-.225-1.122-.675-.224-.675.674 0 1.123.9 1.123.9.674.9 1.572.675 2.02.45 0-.45.45-.9.45-.9-1.796-.225-3.144-.9-3.144-3.375 0-.9.225-1.575.674-2.025 0 0-.45-.9 0-2.025 0 0 1.123 0 2.02.9.674-.45 2.92-.45 3.593 0 .898-.9 2.021-.9 2.021-.9.45 1.575 0 2.025 0 2.025.45.45.674 1.125.674 2.025 0 2.475-1.572 3.15-3.144 3.375.225.225.45.675.45 1.35v1.8c0 .225 0 .45.448.45.674 0 4.94-2.025 4.94-6.75 0-4.05-3.143-7.2-7.185-7.2Z"/></g><defs><clipPath id="clip0_4905_4578"><path fill="#fff" d="M.957.8h14.37v14.4H.957z"/></clipPath></defs></svg>