<svg xmlns="http://www.w3.org/2000/svg" width="15" height="16" fill="none" viewBox="0 0 15 16"><path fill="#1049B3" fill-rule="evenodd" d="M7.465 2.098c1.919 0 2.144.009 2.902.043.702.031 1.081.149 1.335.249.336.131.576.285.827.537a2.2 2.2 0 0 1 .536.829c.097.254.216.634.248 1.337.034.76.042.986.042 2.91 0 1.922-.008 2.148-.042 2.908-.032.703-.149 1.083-.248 1.338a2.236 2.236 0 0 1-.536.829c-.251.251-.49.408-.827.537-.254.097-.633.217-1.335.248-.758.035-.983.043-2.902.043s-2.144-.008-2.903-.043c-.701-.031-1.08-.148-1.334-.248a2.229 2.229 0 0 1-.827-.537 2.2 2.2 0 0 1-.536-.83c-.097-.254-.217-.634-.248-1.337-.034-.76-.043-.986-.043-2.909 0-1.923.009-2.149.043-2.909.031-.703.148-1.083.248-1.337.131-.338.285-.578.536-.83.251-.25.49-.408.827-.536.254-.097.633-.218 1.334-.249.759-.037.987-.043 2.903-.043Zm0-1.297c-1.95 0-2.196.008-2.962.043-.765.034-1.286.157-1.743.334a3.5 3.5 0 0 0-1.271.832c-.4.4-.645.803-.83 1.274-.177.457-.3.98-.334 1.75-.034.765-.042 1.01-.042 2.965 0 1.955.008 2.2.042 2.97.035.765.157 1.288.334 1.748.183.475.43.875.83 1.275.399.4.801.646 1.271.832.457.177.978.3 1.745.334.767.034 1.01.043 2.963.043s2.195-.009 2.962-.043c.764-.034 1.286-.157 1.745-.334a3.5 3.5 0 0 0 1.272-.832c.399-.4.644-.803.83-1.275.176-.457.299-.98.333-1.748.034-.77.043-1.012.043-2.97 0-1.957-.009-2.2-.043-2.969-.034-.766-.157-1.289-.334-1.749a3.51 3.51 0 0 0-.83-1.274c-.398-.4-.8-.646-1.27-.832-.457-.177-.979-.3-1.746-.334C9.66.809 9.415.8 7.465.8Zm.001 3.503A3.694 3.694 0 0 0 3.776 8a3.692 3.692 0 0 0 3.69 3.698 3.692 3.692 0 0 0 3.69-3.698 3.692 3.692 0 0 0-3.69-3.697Zm0 6.095A2.397 2.397 0 0 1 5.071 8c0-1.326 1.072-2.4 2.395-2.4a2.397 2.397 0 0 1 2.395 2.4c0 1.326-1.072 2.4-2.395 2.4Zm4.696-6.243a.862.862 0 1 1-1.725.002.862.862 0 0 1 1.725-.002Z" clip-rule="evenodd"/></svg>