<svg xmlns="http://www.w3.org/2000/svg" width="15" height="16" fill="none" viewBox="0 0 15 16"><g fill="#1049B3" clip-path="url(#clip0_5397_3976)"><path d="M8.124 6.737a3.705 3.705 0 0 1 1.919-1.304 3.684 3.684 0 0 1 2.314.096 2.916 2.916 0 0 1 1.408.976c.362.46.58 1.018.623 1.602.12.958.16 1.924.123 2.889.031 1.263.01 2.527.033 3.79 0 .31-.074.425-.4.416a37.425 37.425 0 0 0-2.242 0c-.315.01-.408-.08-.404-.403.017-1.547 0-3.095.01-4.642a4.74 4.74 0 0 0-.09-.972 1.325 1.325 0 0 0-.352-.76 1.311 1.311 0 0 0-.733-.394 1.592 1.592 0 0 0-1.789.742 2.35 2.35 0 0 0-.257 1.022c-.09 1.63-.06 3.264-.037 4.896 0 .42-.122.529-.523.51a29.845 29.845 0 0 0-2.115 0c-.257 0-.382-.043-.38-.34.01-2.982.01-5.962 0-8.943 0-.24.05-.363.328-.357.747.015 1.494.015 2.242 0 .27 0 .343.102.33.352-.014.25-.008.487-.008.824ZM3.435 10.41c0 1.433-.01 2.864.006 4.296 0 .357-.07.508-.462.49a28.943 28.943 0 0 0-2.155 0c-.3.008-.421-.057-.42-.394.013-2.948.013-5.897 0-8.847 0-.32.097-.417.41-.407.733.02 1.468.026 2.198 0 .357-.014.423.128.42.445-.013 1.476 0 2.953 0 4.423l.003-.005ZM3.652 2.558a1.7 1.7 0 0 1-.49 1.247 1.679 1.679 0 0 1-1.24.494 1.731 1.731 0 0 1-1.234-.51 1.752 1.752 0 0 1-.513-1.237c.004-.466.19-.911.52-1.239A1.751 1.751 0 0 1 1.93.801a1.69 1.69 0 0 1 1.233.509 1.711 1.711 0 0 1 .49 1.248Z"/></g><defs><clipPath id="clip0_5397_3976"><path fill="#fff" d="M.175.8h14.37v14.4H.175z"/></clipPath></defs></svg>