<svg xmlns="http://www.w3.org/2000/svg" width="50" height="50" fill="none" viewBox="0 0 50 50"><path fill="#1049B3" d="M35.783 16.057H14.217a.768.768 0 0 0-.767.767v1.543c0 .071.077.153.14.186l11.336 6.474a.189.189 0 0 0 .096.025.19.19 0 0 0 .097-.026l10.993-6.467c.062-.035.225-.126.287-.168.074-.05.151-.096.151-.187v-1.38a.767.767 0 0 0-.767-.767Zm.672 4.637a.193.193 0 0 0-.194 0l-6.221 3.661a.192.192 0 0 0-.044.296l6.222 6.707a.189.189 0 0 0 .14.061.192.192 0 0 0 .192-.192V20.86a.192.192 0 0 0-.095-.166Zm-8.208 4.89a.19.19 0 0 0-.237-.035l-2.494 1.467a.972.972 0 0 1-.962.007l-2.195-1.254a.193.193 0 0 0-.225.026l-8.333 7.73a.193.193 0 0 0-.03.244.193.193 0 0 0 .064.061c.13.077.254.113.382.113h21.346a.19.19 0 0 0 .188-.224.19.19 0 0 0-.048-.098l-7.456-8.037ZM20.3 24.88a.192.192 0 0 0-.034-.307l-6.53-3.73a.192.192 0 0 0-.286.168v9.786a.191.191 0 0 0 .322.14L20.3 24.88Z"/><circle cx="25" cy="25" r="24.5" stroke="#133F91"/></svg>