<svg xmlns="http://www.w3.org/2000/svg" width="22" height="20" fill="none" viewBox="0 0 22 20"><path fill="#1049B3" d="M21.623 9.962a2.318 2.318 0 0 0-2.32-2.324c-.626 0-1.197.248-1.615.648-1.596-1.143-3.782-1.886-6.215-1.98l1.064-4.991 3.46.743a1.654 1.654 0 0 0 3.307-.077c0-.914-.741-1.657-1.654-1.657-.646 0-1.216.381-1.482.934l-3.86-.82a.404.404 0 0 0-.303.058.37.37 0 0 0-.171.266l-1.179 5.562c-2.47.076-4.695.82-6.31 1.981a2.332 2.332 0 0 0-1.616-.647A2.318 2.318 0 0 0 .409 9.98c0 .953.571 1.753 1.37 2.115a4.233 4.233 0 0 0-.058.704c0 3.581 4.163 6.496 9.295 6.496 5.133 0 9.295-2.896 9.295-6.496 0-.228-.019-.476-.057-.704a2.346 2.346 0 0 0 1.369-2.134ZM5.694 11.62c0-.915.741-1.658 1.654-1.658a1.657 1.657 0 0 1 0 3.315c-.913.019-1.654-.743-1.654-1.657Zm9.257 4.4c-1.14 1.142-3.307 1.218-3.935 1.218-.646 0-2.813-.095-3.934-1.218a.426.426 0 0 1 0-.61.424.424 0 0 1 .608 0c.722.724 2.243.971 3.326.971 1.084 0 2.623-.247 3.327-.971a.424.424 0 0 1 .608 0 .464.464 0 0 1 0 .61Zm-.304-2.724a1.657 1.657 0 0 1 0-3.315c.912 0 1.654.743 1.654 1.658 0 .895-.742 1.657-1.654 1.657Z"/></svg>