<svg xmlns="http://www.w3.org/2000/svg" width="14" height="13" fill="none" viewBox="0 0 14 13"><path fill="#1049B3" fill-rule="evenodd" d="M12.21.953a.996.996 0 0 1 1.317.56c.065.167.083.348.055.524l-1.51 9.172c-.146.884-1.114 1.392-1.924.951a38.848 38.848 0 0 1-2.588-1.53c-.452-.296-1.838-1.246-1.668-1.922.147-.578 2.475-2.75 3.806-4.041.522-.508.284-.8-.333-.334-1.532 1.159-3.99 2.921-4.803 3.417-.718.437-1.091.512-1.539.437a10.177 10.177 0 0 1-2.189-.603C0 7.237.04 6.088.834 5.754L12.21.953Z" clip-rule="evenodd"/></svg>