<svg xmlns="http://www.w3.org/2000/svg" width="89" height="91" fill="none" viewBox="0 0 89 91"><g clip-path="url(#clip0_9107_4024)"><path fill="#08C" d="M43.829 22.64A23.336 23.336 0 0 0 20.5 45.97 23.336 23.336 0 0 0 43.829 69.3 23.336 23.336 0 0 0 67.158 45.97a23.336 23.336 0 0 0-23.329-23.33Z"/><path fill="#fff" d="M31.197 46.012c6.887-3 11.479-4.978 13.774-5.934 6.563-2.729 7.925-3.202 8.815-3.219.195-.003.63.046.915.276.236.193.303.455.336.64.03.183.07.602.037.93-.355 3.734-1.894 12.799-2.676 16.982-.329 1.77-.982 2.364-1.613 2.422-1.373.126-2.414-.907-3.743-1.777-2.078-1.363-3.252-2.212-5.27-3.541-2.333-1.537-.82-2.382.509-3.763.347-.36 6.392-5.859 6.507-6.357.015-.063.03-.295-.11-.418-.137-.123-.34-.08-.488-.047-.21.047-3.529 2.242-9.966 6.585-.94.648-1.793.963-2.561.947-.842-.018-2.466-.477-3.673-.869-1.476-.481-2.653-.735-2.55-1.552.052-.425.638-.86 1.757-1.305Z"/></g><path stroke="#08C" stroke-width="2.222" d="M87.761 45.782c0 24.21-19.408 43.815-43.325 43.815-23.916 0-43.325-19.605-43.325-43.815 0-24.21 19.409-43.816 43.325-43.816 23.917 0 43.325 19.606 43.325 43.816Z"/><defs><clipPath id="clip0_9107_4024"><path fill="#fff" d="M20.5 22.64h47.244v47.245H20.5z"/></clipPath></defs></svg>