<svg xmlns="http://www.w3.org/2000/svg" width="13" height="16" fill="none" viewBox="0 0 13 16"><path fill="#1049B3" d="M6.57.813C7.353.8 8.133.808 8.91.8c.048.918.378 1.854 1.048 2.503.67.666 1.617.97 2.538 1.073v2.416c-.863-.028-1.73-.208-2.514-.58a7.272 7.272 0 0 1-.97-.559c-.005 1.754.007 3.505-.012 5.25a4.574 4.574 0 0 1-.81 2.365c-.783 1.151-2.142 1.901-3.538 1.925a4.35 4.35 0 0 1-2.442-.617C1 13.864.15 12.556.026 11.152c-.014-.3-.02-.6-.007-.893a4.5 4.5 0 0 1 1.546-2.977c.991-.865 2.38-1.277 3.68-1.033.013.888-.022 1.776-.022 2.665-.595-.193-1.289-.139-1.808.223a2.078 2.078 0 0 0-.817 1.05c-.124.304-.088.642-.081.965.142.984 1.087 1.812 2.096 1.722.668-.007 1.31-.396 1.658-.965.112-.2.239-.403.245-.637.06-1.074.036-2.143.043-3.216.005-2.419-.007-4.83.011-7.242Z"/></svg>