<svg xmlns="http://www.w3.org/2000/svg" width="89" height="91" fill="none" viewBox="0 0 89 91"><g clip-path="url(#clip0_9107_4030)"><mask id="path-1-inside-1_9107_4030" fill="#fff"><path d="M22.096 44.892c0 4 1.044 7.906 3.032 11.35l-3.222 11.762 12.039-3.156a22.697 22.697 0 0 0 10.851 2.763h.01c12.515 0 22.703-10.184 22.708-22.702a22.56 22.56 0 0 0-6.645-16.06c-4.287-4.29-9.989-6.655-16.064-6.658-12.516 0-22.703 10.184-22.709 22.7"/></mask><path fill="#25D366" d="M22.096 44.892c0 4 1.044 7.906 3.032 11.35l-3.222 11.762 12.039-3.156a22.697 22.697 0 0 0 10.851 2.763h.01c12.515 0 22.703-10.184 22.708-22.702a22.56 22.56 0 0 0-6.645-16.06c-4.287-4.29-9.989-6.655-16.064-6.658-12.516 0-22.703 10.184-22.709 22.7"/><path fill="#fff" d="m25.128 56.241.965.264.11-.402-.209-.362-.866.5Zm-3.222 11.763-.964-.264-.458 1.671 1.676-.44-.254-.967Zm12.039-3.156.478-.878-.348-.19-.384.1.254.968Zm10.851 2.763v1-1Zm22.718-22.702h1-1ZM60.87 28.85l-.708.707.708-.707Zm-16.064-6.658v-1 1Zm-23.709 22.7a23.662 23.662 0 0 0 3.166 11.85l1.732-1a21.663 21.663 0 0 1-2.898-10.85h-2Zm3.068 11.086L20.942 67.74l1.929.529 3.222-11.764-1.93-.528ZM22.16 68.972l12.038-3.157-.507-1.934-12.038 3.156.507 1.935Zm11.307-3.246a23.698 23.698 0 0 0 11.33 2.885v-2c-3.625 0-7.191-.909-10.374-2.641l-.956 1.756Zm11.33 2.885h.01v-2h-.01v2Zm.01 0c13.066 0 23.702-10.632 23.707-23.701l-2-.001c-.005 11.965-9.745 21.702-21.708 21.702v2ZM68.513 44.91a23.56 23.56 0 0 0-6.938-16.768l-1.415 1.414a21.56 21.56 0 0 1 6.353 15.353h2Zm-6.938-16.768c-4.474-4.478-10.43-6.948-16.77-6.95l-.001 2c5.81.002 11.257 2.261 15.356 6.364l1.415-1.414Zm-16.77-6.95c-13.07 0-23.704 10.63-23.71 23.7h2c.006-11.965 9.745-21.7 21.71-21.7v-2Z" mask="url(#path-1-inside-1_9107_4030)"/><path fill="#fff" d="M38.929 35.049c-.44-.979-.904-.999-1.323-1.016-.342-.015-.734-.013-1.126-.013-.392 0-1.029.147-1.567.735-.54.588-2.057 2.01-2.057 4.902 0 2.891 2.106 5.686 2.4 6.079.293.391 4.066 6.515 10.04 8.871 4.965 1.958 5.975 1.569 7.053 1.47 1.078-.097 3.477-1.42 3.967-2.793.49-1.373.49-2.549.343-2.795-.147-.244-.539-.392-1.127-.685-.588-.294-3.477-1.716-4.016-1.913-.539-.195-.93-.293-1.323.295-.392.588-1.517 1.911-1.86 2.303-.343.393-.686.442-1.274.148-.588-.295-2.48-.915-4.726-2.917-1.748-1.558-2.927-3.482-3.27-4.07-.343-.588-.037-.906.258-1.2.264-.263.588-.686.882-1.029.293-.343.39-.588.587-.98.196-.392.098-.735-.049-1.03-.147-.293-1.29-3.2-1.812-4.362Z"/></g><path stroke="#25D366" stroke-width="2.222" d="M87.886 45.782c0 24.21-19.408 43.815-43.325 43.815-23.916 0-43.325-19.605-43.325-43.815 0-24.21 19.409-43.816 43.325-43.816 23.917 0 43.325 19.606 43.325 43.816Z"/><defs><clipPath id="clip0_9107_4030"><path fill="#fff" d="M21.09 21.367h47.244V68.98H21.09z"/></clipPath></defs></svg>