<svg xmlns="http://www.w3.org/2000/svg" width="346" height="120" fill="none" viewBox="0 0 346 120"><rect width="344.5" height="118.5" x=".75" y=".75" stroke="#E23237" stroke-width="1.5" rx="9.25"/><path fill="#B52E31" fill-rule="evenodd" d="M123 40.457 95 31v58l23.474-12.847L123 40.457ZM128 73V47h3.431l16.307 20.924V47H151v26h-3.431l-16.307-21.13V73H128ZM177 72.775A19.097 19.097 0 0 1 170.194 74C160.731 74 156 69.394 156 60.14c0-8.746 4.565-13.14 13.696-13.14 2.614 0 5.063.38 7.304 1.099v2.957a18.696 18.696 0 0 0-6.931-1.31c-7.138 0-10.707 3.465-10.707 10.31 0 7.395 3.527 11.07 10.541 11.07 1.121 0 2.366-.168 3.735-.464v-8.916H177v11.029ZM184 63.455V47h3.401v16.455c0 5.145 2.519 7.739 7.599 7.739 5.038 0 7.599-2.594 7.599-7.739V47H206v16.455C206 70.471 202.347 74 195 74c-7.347 0-11-3.53-11-10.545ZM215.35 47v23.276H229V73h-17V47h3.35ZM233.53 74H230l13-30 13 30h-3.738l-3.364-8.331h-8.639l.914-2.777h6.603L242.875 50.9 233.53 74ZM260 73V47h11.552c5.154 0 7.73 2.063 7.73 6.232 0 3.384-2.534 5.901-7.558 7.51L281 73h-4.595l-8.589-11.68v-2.187c5.153-.784 7.773-2.682 7.773-5.736 0-2.394-1.417-3.59-4.295-3.59h-7.73V73H260Z" clip-rule="evenodd"/><path fill="#E23237" fill-rule="evenodd" d="M65 40.625 92.142 31 120 40.457l-4.503 35.696L92.142 89 69.166 76.32 65 40.625Z" clip-rule="evenodd"/><path fill="#fff" fill-rule="evenodd" d="M92.648 37 76 73.917l6.212-.124 3.354-8.341H100.434l3.644 8.424L110 74 92.648 37Zm.041 11.852 5.633 11.727H87.76l4.928-11.727Z" clip-rule="evenodd"/></svg>