<svg xmlns="http://www.w3.org/2000/svg" width="180" height="47" fill="none" viewBox="0 0 180 47"><g clip-path="url(#clip0_2798_22915)"><path fill="#0D2D44" d="M40.47.06c3.92 1.73 6.173 4.863 7.436 8.816 1.77 5.507 3.739 10.973 3.986 16.835.314 7.231-3.256 12.492-8.976 16.27-3.37 2.23-11.32 4.453-11.32 4.453l-3.805.518-1.284.048c-1.85 0-2.66.102-4.007-.048-8.322-1.189-13.524-4.14-17.577-10.515-1.117-1.76-2.187-3.013-4.289-3.091-.954-1.754.327-2.459 1.601-3.188-.537-.85-1.715-.452-2.21-1.24v-1.206c5.593-1.67 5.236-6.628 5.762-10.846.41-3.338-.067-6.755.936-10.081C8.698.235 14.19-1.392 19.408 3.109c1.697 1.464 2.814 3.375 3.944 5.249.985 1.639 2.18 2.374 4.192 2.115 2.011-.26 3.449-.808 3.884-3.013.294-1.058.68-2.088 1.153-3.08.9-2.259 2.296-3.928 4.833-4.332L40.47.06Z"/><path fill="#0F2E45" d="M175.827 28.923c-2.036 2.676-6.149 3.417-7.78 1.398-.646-.79-1.377-1.578-.489-2.615.888-1.036 1.619-.271 2.416.097.646.3 1.057 1.38 2.03.602.827-.645 1.304-1.307.169-2.103a9.652 9.652 0 0 0-1.71-1.175c-2.186-.892-3.624-2.253-2.941-4.79.501-1.898 3.497-3.236 6.04-2.73.943.27 1.858.63 2.73 1.079v1.808c-.731 1.506-2.186 1.042-4.156 1.301 3.637 1.573 4.506 4.013 3.691 7.128Z"/><path fill="#F6F7F8" d="M175.826 28.923c.604-3.013-.671-5.013-3.413-6.267-.604-.27-1.891-.355-1.317-1.506.405-.807 1.329-.705 2.126-.325a3.028 3.028 0 0 0 3.087-.326v8.436h-.242l-.241-.012Z"/><path fill="#0E2E45" d="M101.416 31.334a7.078 7.078 0 0 1-5.137-1.728 7.046 7.046 0 0 1-2.395-4.852c-.097-4.02 3.02-7.28 6.729-7.231 4.482.048 7.429 2.94 7.333 7.195-.097 4.254-2.519 6.616-6.53 6.616ZM85.096 31.466c-3.969-.084-7.164-2.784-7.122-6.026.048-3.88 3.437-7.441 6.983-7.465 4.355 0 6.48 3.965 6.535 7.146.06 3.953-2.664 6.424-6.397 6.345ZM152.075 30.538a1.573 1.573 0 0 1-1.075.741c-.791.12-1.715.169-1.86-.952-.296-2.308-1.957-1.976-3.582-2.06-1.812-.097-1.812.903-1.915 2.217-.103 1.313-1.377.82-2.156.82a1.116 1.116 0 0 1-1.067-.467 1.106 1.106 0 0 1-.063-1.16c1.305-3.128.604-6.677 2.446-9.75 1.656-2.79 4.047-3.459 5.63-.717a24.858 24.858 0 0 1 3.642 11.328Z"/><path fill="#0F2F45" d="M126.803 24.187c-.604-3.616 2.06-6.255 4.953-7.231 1.909-.633 3.528 0 4.778 1.555a1.613 1.613 0 0 1 .079 1.94c-.466.861-1.209.753-1.813.476-1.087-.494-1.872-1.808-3.292-.235-1.274 1.404-1.812 2.808-1.443 4.591.507 2.573 1.812 3.188 4.494 2.41.918-.259 2.144-.343 2.615.85.538 1.374-.658 2.163-1.564 2.44-4.089 1.266-8.457-.198-8.819-5.326-.018-.47.012-.952.012-1.47ZM71.607 31.334c-3.189 0-5.436-1.651-5.98-4.875-.845-5.152.502-8.117 4.446-9.714 1.776-.717 3.11 0 4.494.82a1.811 1.811 0 0 1 1.017 1.875 1.805 1.805 0 0 1-.256.71c-.513.862-1.594.783-2.38.139-1.727-1.417-2.947-.14-3.78.964a4.615 4.615 0 0 0-.17 5.344c.773 1.32 1.848 2.17 3.461 1.718 1.208-.344 2.724-1.808 3.063.729.29 2.2-1.48 2.2-3.02 2.29h-.895Z"/><path fill="#102F46" d="M158.762 18.023c1.601 0 3.208-.097 4.796.036.84.072 1.951.325 1.812 1.53a1.596 1.596 0 0 1-1.233 1.489 1.61 1.61 0 0 1-.687.012c-2.416-.41-2.58.867-2.416 2.723a39.955 39.955 0 0 1 0 5.086c-.055 1.163 0 2.495-1.813 2.464-1.739-.03-1.878-1.15-1.866-2.44 0-1.392-.054-2.796.06-4.188.182-2.326.037-4.218-3.165-3.615a1.634 1.634 0 0 1-2.017-1.362c-.218-1.313 1.015-1.41 1.77-1.53 1.57-.248 3.189-.23 4.79-.32l-.031.115ZM110.687 23.62c0-1.391-.066-2.795 0-4.181.067-1.079.604-1.983 1.812-1.928a1.89 1.89 0 0 1 1.812 2.03c.049 1.892.049 3.79-.09 5.67-.157 2.097.604 2.923 2.754 2.543 1.335-.235 2.887-.144 2.978 1.525.097 1.85-1.643 1.669-2.887 1.705-5.69.169-6.421-.68-6.379-7.363Z"/><path fill="#FCFCFC" d="M22.518 36.877a9.302 9.302 0 0 1-4.923-1.175c-1.395-.855-2.186-2.115-1.812-3.778.35-1.549 1.546-2.302 3.02-2.482a45.927 45.927 0 0 1 5.66-.47c2.108 0 3.745.988 4.047 3.235.326 2.465-1.48 3.574-3.358 4.387-.75.343-1.74.205-2.634.283Z"/><path fill="#F7F8F9" d="M30.243 29.93c.127-1.688.604-3.881 3.123-3.935 2.519-.055 3.238 2.15 3.213 4.218 0 1.898-.356 4.067-2.947 4.103-2.591.036-3.431-1.633-3.389-4.387Z"/><path fill="#F5F6F7" d="M14.558 29.622c-.332 2.265-.52 4.537-3.183 4.627-2.314.085-3.02-1.777-2.93-3.723.09-1.947.067-4.4 2.803-4.568 2.494-.15 2.9 1.989 3.31 3.664Z"/><path fill="#E0E4E7" d="M44.571 29.526c-.821-.181-2.223.56-2.259-.705-.036-1.266 1.462-1.103 2.386-1.103.924 0 2.543-.5 2.55.705-.007 1.404-1.734.771-2.677 1.103Z"/><path fill="#ECEEF0" d="M44.36 31.159c.936.337 2.476-.163 2.645 1.277.115.958-1.075.778-1.643.573-1.032-.374-2.772.216-2.965-1.242-.115-1.006 1.226-.494 1.963-.608Z"/><path fill="#FBFCFC" d="M97.25 24.874c-.049-2.591 1.31-4.218 3.557-4.176 2.531.066 3.691 1.422 3.709 3.947 0 2.097-.858 3.458-2.924 3.784-1.715.271-4.343-2-4.343-3.555Z"/><path fill="#FBFBFB" d="M87.971 24.964c-.254 1.808-.55 3.887-2.875 3.827-1.915-.049-3.624-1.64-3.395-3.465.188-1.555 0-4.073 2.912-4.284 3.068-.23 2.881 2.066 3.358 3.922Z"/><path fill="#D0D6DB" d="M145.799 21.855c-.102 1.247 1.631 2.006.792 3.206a1.388 1.388 0 0 1-1.353.054c-.997-1.181.809-2.08.561-3.26Z"/><path fill="#19374D" d="M22.5 35.25c-.858 0-2.573.29-2.234-1.103.483-1.97 2.573-2.56 4.524-2.741.93-.09 2.054.096 1.745 1.355-.489 2.019-2.185 2.18-4.034 2.489Z"/><path fill="#234055" d="M34.52 30.466c-.187.765.145 2.006-1.117 2.012-1.263.006-1.208-1.205-1.154-2.024.054-.928.06-2.41 1.208-2.41s1.003 1.44 1.063 2.422Z"/><path fill="#264357" d="M11.319 27.887c.247.09.386.096.429.163a3.706 3.706 0 0 1 0 4.151.89.89 0 0 1-.761 0c-.918-1.542-.598-2.952.332-4.314Z"/></g><defs><clipPath id="clip0_2798_22915"><path fill="#fff" d="M0 0h180v47H0z"/></clipPath></defs></svg>