<svg xmlns="http://www.w3.org/2000/svg" width="140" height="52" fill="none" viewBox="0 0 140 52"><path fill="#262626" d="M63.633 25.055c.122 0 .23.041.325.123l.883.83a4.825 4.825 0 0 1-1.808 1.205c-.711.279-1.567.418-2.567.418-.895 0-1.7-.132-2.418-.397a5.403 5.403 0 0 1-1.825-1.104 4.801 4.801 0 0 1-1.167-1.688 5.623 5.623 0 0 1-.4-2.143c0-.784.145-1.5.434-2.15a4.931 4.931 0 0 1 1.217-1.689 5.633 5.633 0 0 1 1.883-1.096c.728-.265 1.534-.397 2.417-.397.878 0 1.656.125 2.334.375.684.25 1.264.577 1.742.981l-.75.902a.618.618 0 0 1-.175.152.52.52 0 0 1-.283.065.648.648 0 0 1-.259-.058 6.897 6.897 0 0 1-.291-.152 7.787 7.787 0 0 0-.367-.202 3.026 3.026 0 0 0-.484-.194 3.866 3.866 0 0 0-.642-.152 4.721 4.721 0 0 0-.833-.065c-.539 0-1.033.084-1.484.253a3.183 3.183 0 0 0-1.15.721 3.197 3.197 0 0 0-.75 1.155c-.178.452-.267.969-.267 1.551 0 .587.095 1.109.284 1.566.194.457.455.842.783 1.154.328.313.714.553 1.159.722a4.12 4.12 0 0 0 1.433.245c.306 0 .581-.014.825-.043.25-.03.478-.075.684-.137a3.267 3.267 0 0 0 1.15-.606.7.7 0 0 1 .175-.101.445.445 0 0 1 .192-.044ZM68.294 21.398c.266-.443.583-.789.95-1.04.367-.254.8-.381 1.3-.381.395 0 .711.074.95.223l-.133 1.335a.347.347 0 0 1-.125.188.37.37 0 0 1-.209.05c-.083 0-.208-.012-.375-.036a3.21 3.21 0 0 0-.475-.036c-.228 0-.43.029-.608.087a1.603 1.603 0 0 0-.484.252 1.838 1.838 0 0 0-.375.39 3.93 3.93 0 0 0-.3.526v4.56h-2.058v-7.402h1.208c.211 0 .359.033.442.1.083.063.139.179.167.347l.125.837ZM80.672 20.115l-4.659 9.438a.658.658 0 0 1-.242.281c-.094.068-.242.101-.441.101h-1.534l1.6-2.972-3.459-6.848h1.81c.16 0 .285.034.374.101a.656.656 0 0 1 .209.231l1.817 3.839c.06.13.11.26.15.39.044.13.086.262.125.396l.15-.397a5.27 5.27 0 0 1 .166-.396l1.717-3.832a.556.556 0 0 1 .217-.238.672.672 0 0 1 .35-.094h1.65ZM84.09 25.597c.234.246.486.419.759.52.277.1.578.151.9.151.31 0 .592-.05.842-.151a1.58 1.58 0 0 0 .633-.462c.178-.207.314-.466.408-.78.095-.317.142-.69.142-1.118 0-.433-.041-.798-.125-1.096a1.937 1.937 0 0 0-.341-.736 1.33 1.33 0 0 0-.55-.412 1.897 1.897 0 0 0-.726-.13c-.427 0-.792.08-1.091.239-.3.154-.584.372-.85.656v3.32Zm-.108-4.473a4.4 4.4 0 0 1 1.192-.83c.444-.212.966-.317 1.566-.317.468 0 .892.084 1.276.252.389.169.722.414 1 .736.284.317.5.712.65 1.183.156.467.233 1.003.233 1.61 0 .553-.086 1.065-.258 1.536a3.59 3.59 0 0 1-.742 1.227 3.35 3.35 0 0 1-1.158.815c-.45.193-.956.289-1.517.289-.478 0-.887-.063-1.225-.188a3.111 3.111 0 0 1-.909-.534v3.03h-2.059v-9.82h1.259c.267 0 .442.109.525.325l.167.686ZM94.576 27.632c-.744 0-1.317-.18-1.717-.541-.395-.366-.592-.869-.592-1.508v-4.135h-.875a.436.436 0 0 1-.283-.094c-.078-.062-.117-.156-.117-.281v-.707l1.376-.195.432-2.02a.394.394 0 0 1 .16-.224.52.52 0 0 1 .3-.08h1.066v2.331h2.284v1.27h-2.284v4.012c0 .23.064.411.192.541.133.13.314.195.542.195.127 0 .233-.012.316-.036.089-.029.164-.058.225-.087.067-.029.125-.055.175-.08.05-.028.1-.042.15-.042.061 0 .111.014.15.043.039.024.081.062.125.115l.617.866c-.3.217-.645.38-1.034.49-.388.111-.791.167-1.208.167ZM101.977 20c.634 0 1.209.089 1.725.267.523.178.967.43 1.334.758.372.327.658.726.859 1.197.199.472.3.998.3 1.58 0 .587-.101 1.117-.3 1.588a3.355 3.355 0 0 1-.859 1.205 3.769 3.769 0 0 1-1.334.765 5.265 5.265 0 0 1-1.725.267c-.639 0-1.22-.09-1.741-.267a3.854 3.854 0 0 1-1.343-.765 3.478 3.478 0 0 1-.859-1.205c-.2-.471-.3-1-.3-1.588 0-.581.1-1.108.3-1.58.206-.471.492-.87.86-1.197a3.92 3.92 0 0 1 1.342-.758 5.367 5.367 0 0 1 1.741-.267Zm0 6.256c.711 0 1.236-.207 1.575-.62.345-.414.517-1.02.517-1.819 0-.799-.172-1.407-.517-1.826-.339-.418-.864-.627-1.575-.627-.722 0-1.259.211-1.609.635-.344.418-.516 1.024-.516 1.818s.172 1.4.516 1.818c.35.414.887.62 1.609.62ZM112.081 22.328c.412 0 .77-.044 1.075-.13.306-.092.559-.22.759-.383.205-.168.359-.37.459-.606.099-.24.149-.507.149-.8 0-.28-.05-.532-.149-.758a1.51 1.51 0 0 0-.451-.578 2.06 2.06 0 0 0-.758-.36 4.01 4.01 0 0 0-1.084-.13h-1.675v3.745h1.675Zm0-5.246c.806 0 1.504.082 2.092.245.59.164 1.075.392 1.459.686.383.293.667.644.85 1.053.189.41.284.856.284 1.342 0 .505-.098.97-.292 1.393-.195.418-.487.78-.876 1.082-.388.303-.878.539-1.466.707-.583.169-1.267.253-2.051.253h-1.675v3.672h-2.242V17.082h3.917ZM121.883 20c.633 0 1.208.089 1.725.267.522.178.967.43 1.333.758.373.327.659.726.859 1.197.2.472.3.998.3 1.58 0 .587-.1 1.117-.3 1.588a3.33 3.33 0 0 1-.859 1.205 3.764 3.764 0 0 1-1.333.765 5.274 5.274 0 0 1-1.725.267c-.639 0-1.22-.09-1.742-.267a3.85 3.85 0 0 1-1.342-.765 3.465 3.465 0 0 1-.858-1.205c-.201-.471-.3-1-.3-1.588 0-.581.099-1.108.3-1.58.205-.471.491-.87.858-1.197.372-.327.819-.58 1.342-.758a5.377 5.377 0 0 1 1.742-.267Zm0 6.256c.711 0 1.236-.207 1.575-.62.345-.414.517-1.02.517-1.819 0-.799-.172-1.407-.517-1.826-.339-.418-.864-.627-1.575-.627-.723 0-1.259.211-1.609.635-.344.418-.517 1.024-.517 1.818s.173 1.4.517 1.818c.35.414.886.62 1.609.62ZM131.789 20c.634 0 1.208.089 1.726.267.521.178.966.43 1.333.758.372.327.658.726.858 1.197.201.472.301.998.301 1.58 0 .587-.1 1.117-.301 1.588a3.34 3.34 0 0 1-.858 1.205 3.782 3.782 0 0 1-1.333.765 5.28 5.28 0 0 1-1.726.267c-.639 0-1.22-.09-1.742-.267a3.859 3.859 0 0 1-1.342-.765 3.48 3.48 0 0 1-.859-1.205c-.199-.471-.299-1-.299-1.588 0-.581.1-1.108.299-1.58.206-.471.492-.87.859-1.197.372-.327.82-.58 1.342-.758a5.377 5.377 0 0 1 1.742-.267Zm0 6.256c.711 0 1.236-.207 1.575-.62.345-.414.517-1.02.517-1.819 0-.799-.172-1.407-.517-1.826-.339-.418-.864-.627-1.575-.627-.723 0-1.258.211-1.609.635-.344.418-.516 1.024-.516 1.818s.172 1.4.516 1.818c.351.414.886.62 1.609.62ZM139.997 16.795v10.722h-2.059V16.795h2.059ZM62.242 35.62v4.523h-.62v-3.324a3 3 0 0 1 .003-.142l.015-.155-1.794 2.828a.277.277 0 0 1-.255.142h-.102a.277.277 0 0 1-.256-.142l-1.83-2.84c.014.11.022.214.022.309v3.324h-.62v-4.524h.521c.063 0 .112.005.146.016.034.01.067.04.099.088l1.805 2.785c.029.05.057.103.083.157.03.055.056.11.08.168a3.64 3.64 0 0 1 .077-.167 1.54 1.54 0 0 1 .088-.161l1.772-2.782c.03-.048.06-.078.095-.088a.557.557 0 0 1 .15-.016h.52ZM66.647 38.463l-.82-1.84a3.408 3.408 0 0 1-.154-.423c-.05.17-.103.313-.156.426l-.82 1.837h1.95Zm1.473 1.68h-.547a.26.26 0 0 1-.153-.041.259.259 0 0 1-.088-.104l-.488-1.093h-2.345l-.488 1.093a.227.227 0 0 1-.084.1.257.257 0 0 1-.154.045h-.546l2.089-4.524h.715l2.09 4.524ZM69.805 37.602h.266c.093 0 .167-.01.223-.029a.412.412 0 0 0 .153-.104l1.74-1.705a.408.408 0 0 1 .153-.113.538.538 0 0 1 .197-.032h.598l-1.991 1.948c-.05.05-.096.093-.143.126a.693.693 0 0 1-.142.08.59.59 0 0 1 .179.084.793.793 0 0 1 .157.142l2.078 2.144h-.612a.413.413 0 0 1-.204-.032.447.447 0 0 1-.066-.04.676.676 0 0 1-.051-.058l-1.802-1.796a.412.412 0 0 0-.157-.11.706.706 0 0 0-.255-.035h-.32v2.07h-.704V35.62h.703v1.983ZM74.926 40.143h-.707v-4.524h.707v4.524ZM80.796 35.62v4.523h-.353a.361.361 0 0 1-.143-.025.352.352 0 0 1-.109-.086l-3.023-3.409a3.744 3.744 0 0 1 .015.297v3.223h-.62v-4.524h.364a.44.44 0 0 1 .139.022.444.444 0 0 1 .106.082l3.022 3.407a7.081 7.081 0 0 0-.014-.158 3.38 3.38 0 0 1-.004-.149V35.62h.62ZM86.663 37.968v1.736a3.156 3.156 0 0 1-.843.37c-.296.08-.622.119-.976.119-.421 0-.8-.056-1.138-.167a2.632 2.632 0 0 1-.868-.474 2.088 2.088 0 0 1-.55-.732 2.242 2.242 0 0 1-.194-.938c0-.345.062-.66.186-.944.126-.284.305-.527.536-.729.23-.204.512-.362.843-.473.33-.112.7-.168 1.108-.168.206 0 .399.014.576.041a2.78 2.78 0 0 1 .912.294c.129.07.249.148.36.237l-.2.277a.215.215 0 0 1-.124.083.245.245 0 0 1-.164-.032 5.345 5.345 0 0 1-.2-.107 2.283 2.283 0 0 0-.66-.22 2.86 2.86 0 0 0-.522-.042c-.294 0-.56.042-.799.126a1.69 1.69 0 0 0-.608.357 1.53 1.53 0 0 0-.387.562 1.93 1.93 0 0 0-.135.738c0 .284.046.54.139.764.094.223.228.414.4.572.175.155.387.274.635.356.248.082.527.123.835.123.243 0 .458-.023.645-.07.19-.047.375-.114.555-.198v-.994h-.813a.176.176 0 0 1-.113-.035.109.109 0 0 1-.04-.085v-.347h1.604ZM93.856 39.208c.04 0 .073.014.103.041l.28.262a2.231 2.231 0 0 1-.78.502c-.303.12-.672.18-1.105.18-.374 0-.714-.056-1.021-.167a2.308 2.308 0 0 1-.784-.474 2.119 2.119 0 0 1-.503-.732 2.405 2.405 0 0 1-.179-.938c0-.34.062-.653.187-.937.123-.284.297-.529.52-.733.227-.204.497-.362.81-.473.314-.114.66-.17 1.04-.17.372 0 .7.05.984.154.285.103.535.243.752.42l-.234.28a.195.195 0 0 1-.058.054.183.183 0 0 1-.091.02.318.318 0 0 1-.16-.06 2.036 2.036 0 0 0-.63-.275 2.166 2.166 0 0 0-.567-.063c-.27 0-.517.04-.74.123a1.64 1.64 0 0 0-.58.35c-.16.154-.286.341-.376.562-.09.221-.135.47-.135.748 0 .282.046.534.14.755.094.22.222.408.382.562.163.151.353.267.573.347.22.08.459.12.714.12.156 0 .296-.008.42-.022.126-.017.241-.042.346-.076.107-.034.205-.076.296-.126.092-.053.183-.115.273-.187a.204.204 0 0 1 .123-.047ZM96.808 37.81c.204 0 .383-.021.54-.063.157-.044.288-.105.393-.183a.788.788 0 0 0 .24-.284c.054-.11.08-.23.08-.363 0-.27-.102-.473-.306-.61-.204-.136-.51-.205-.918-.205h-.774v1.708h.745Zm2.413 2.333h-.627c-.129 0-.224-.043-.284-.13l-1.357-1.616a.366.366 0 0 0-.135-.107.513.513 0 0 0-.218-.035h-.537v1.888h-.704v-4.524h1.478c.33 0 .616.03.856.089.241.056.44.14.595.249.158.11.275.242.35.398.075.153.113.326.113.517a1.147 1.147 0 0 1-.343.824c-.11.11-.244.203-.405.281a2.168 2.168 0 0 1-.54.177c.09.044.168.108.234.193l1.524 1.796ZM101.982 38.34v1.803h-.708V38.34l-1.915-2.72h.62c.063 0 .113.013.15.04a.358.358 0 0 1 .095.101l1.196 1.758c.044.074.084.144.12.209.037.063.068.127.095.192.027-.065.057-.129.091-.192.034-.065.072-.135.113-.209l1.193-1.758a.358.358 0 0 1 .091-.098.24.24 0 0 1 .15-.044h.623l-1.914 2.721ZM106.402 37.965c.202 0 .379-.024.533-.07.155-.046.285-.11.389-.192a.8.8 0 0 0 .241-.3.892.892 0 0 0 .081-.382c0-.288-.104-.514-.31-.676-.204-.162-.516-.243-.934-.243h-.838v1.863h.838Zm0-2.346c.331 0 .618.034.861.101.246.066.448.16.609.281.16.122.279.27.357.442.08.173.121.365.121.578 0 .21-.043.403-.128.577a1.272 1.272 0 0 1-.376.452 1.82 1.82 0 0 1-.609.297 3.02 3.02 0 0 1-.835.104h-.838v1.692h-.705v-4.524h1.543ZM113.076 36.134h-1.693v4.009h-.703v-4.01h-1.696v-.514h4.092v.515ZM118.731 37.882c0 .34-.062.65-.186.935a2.123 2.123 0 0 1-.525.729 2.418 2.418 0 0 1-.817.477 3.138 3.138 0 0 1-1.05.167 3.14 3.14 0 0 1-1.051-.167 2.424 2.424 0 0 1-.812-.477 2.097 2.097 0 0 1-.525-.73 2.295 2.295 0 0 1-.187-.934c0-.339.062-.649.187-.93.123-.285.298-.53.525-.733.226-.207.497-.367.812-.48.316-.114.666-.17 1.051-.17.384 0 .734.056 1.05.17.318.114.591.273.817.48.226.204.401.448.525.732.124.282.186.592.186.931Zm-.725 0c0-.277-.044-.527-.132-.748a1.52 1.52 0 0 0-.372-.559 1.623 1.623 0 0 0-.583-.353 2.259 2.259 0 0 0-.766-.123c-.279 0-.533.04-.762.123a1.65 1.65 0 0 0-.587.353 1.52 1.52 0 0 0-.372.56c-.088.22-.132.47-.132.747 0 .278.044.528.132.748.087.22.211.406.372.56.162.15.358.268.587.35.229.08.483.12.762.12.282 0 .537-.04.766-.12.228-.082.423-.2.583-.35.161-.154.285-.34.372-.56.088-.22.132-.47.132-.748ZM125.411 39.644l-.004.499h-3.219v-4.524h3.219v.499h-2.513v1.502h2.036v.48h-2.036v1.544h2.517ZM129.467 38.463l-.82-1.84a3.104 3.104 0 0 1-.153-.423c-.051.17-.103.313-.157.426l-.82 1.837h1.95Zm1.474 1.68h-.547a.265.265 0 0 1-.154-.041.269.269 0 0 1-.087-.104l-.488-1.093h-2.345l-.489 1.093a.229.229 0 0 1-.083.1.26.26 0 0 1-.154.045h-.547l2.09-4.524h.714l2.09 4.524ZM134.591 36.326a.243.243 0 0 1-.073.073.169.169 0 0 1-.09.022.278.278 0 0 1-.146-.054 2.266 2.266 0 0 0-.514-.237 1.477 1.477 0 0 0-.427-.053c-.158 0-.298.019-.42.056a.938.938 0 0 0-.302.149.619.619 0 0 0-.244.499c0 .126.034.231.105.315a.942.942 0 0 0 .285.212c.119.059.252.11.401.154.15.042.304.087.459.133.158.046.312.099.46.158.15.057.284.13.401.218a.945.945 0 0 1 .394.799c0 .197-.039.383-.117.558a1.28 1.28 0 0 1-.343.451c-.148.129-.332.23-.55.303-.217.074-.464.111-.741.111-.34 0-.649-.053-.926-.158a2.226 2.226 0 0 1-.711-.432l.204-.29a.26.26 0 0 1 .069-.058.19.19 0 0 1 .096-.025c.031 0 .066.012.105.035.041.021.087.048.139.082.05.034.109.07.175.11a1.551 1.551 0 0 0 .51.196 1.872 1.872 0 0 0 .81-.028.989.989 0 0 0 .331-.167.735.735 0 0 0 .285-.6.495.495 0 0 0-.11-.335.82.82 0 0 0-.28-.22 2.09 2.09 0 0 0-.401-.15 61.837 61.837 0 0 0-.46-.125 5.758 5.758 0 0 1-.459-.152 1.514 1.514 0 0 1-.401-.221 1.06 1.06 0 0 1-.285-.338 1.087 1.087 0 0 1-.105-.505c0-.16.034-.314.105-.464.073-.15.178-.282.314-.398a1.62 1.62 0 0 1 .506-.277c.202-.07.433-.105.693-.105.292 0 .557.04.795.12.241.08.452.196.635.348l-.172.29ZM138.029 38.34v1.803h-.708V38.34l-1.915-2.72h.62c.063 0 .113.013.15.04a.341.341 0 0 1 .094.101l1.197 1.758c.044.074.084.144.12.209.036.063.068.127.095.192.027-.065.057-.129.091-.192.034-.065.071-.135.113-.209l1.193-1.758a.358.358 0 0 1 .091-.098.237.237 0 0 1 .149-.044h.624l-1.914 2.721Z"/><path fill="#F65E64" d="M50.252 26.048c0 13.876-11.25 25.125-25.126 25.125C11.249 51.173 0 39.924 0 26.048 0 12.17 11.25.922 25.126.922c13.876 0 25.125 11.25 25.125 25.126Zm-45.36 0c0 11.174 9.059 20.234 20.234 20.234 11.175 0 20.234-9.06 20.234-20.234 0-11.175-9.06-20.234-20.234-20.234-11.175 0-20.234 9.059-20.234 20.234Z"/><path fill="#6868EE" d="M18.863 8.471a18.073 18.073 0 1 1-10.368 9.157l3.901 1.907a13.73 13.73 0 1 0 7.877-6.957l-1.41-4.107Z"/><path fill="#611DD2" d="M33.84 31.335a10.611 10.611 0 1 1 .491-9.678l-3.152 1.421a7.153 7.153 0 1 0-.331 6.524l2.993 1.733Z"/></svg>