<svg xmlns="http://www.w3.org/2000/svg" width="205" height="45" fill="none" viewBox="0 0 205 45"><g clip-path="url(#clip0_777_17653)"><path fill="#2FB8FF" d="M0 45 20.16 7.796 37.962 0 17.776 37.204 0 45ZM19.93 35.555 35.634 7.5l8.974 8.452-15.53 28.11-9.146-8.507ZM44.913 16.875l11.082 4.134-5.54 10.391-13.441.475 7.9-15Z"/><path fill="#2B2D42" d="M78.372 32.813h-7.191V13.125h7.245c2.031 0 3.796.39 5.266 1.167a8.064 8.064 0 0 1 3.396 3.372c.802 1.479 1.176 3.217 1.176 5.266s-.401 3.813-1.203 5.291c-.802 1.479-1.925 2.594-3.422 3.398-1.444.804-3.208 1.194-5.267 1.194Zm-2.914-3.58h2.727c1.898 0 3.342-.493 4.331-1.505.99-.985 1.47-2.593 1.47-4.798 0-2.179-.48-3.761-1.47-4.773-.99-.986-2.433-1.478-4.331-1.478h-2.727v12.554ZM91.787 32.813h-4.472l6.812-19.688h5.383l6.786 19.688h-4.472l-1.456-4.494h-7.125l-1.456 4.494Zm2.522-7.74h5.019l-2.419-7.455h-.156l-2.444 7.455ZM123.38 22.956c0 2.098-.428 3.867-1.256 5.333a8.637 8.637 0 0 1-3.396 3.361c-1.443.758-3.048 1.163-4.839 1.163-1.791 0-3.422-.38-4.839-1.163-1.443-.784-2.566-1.895-3.395-3.361-.829-1.466-1.257-3.235-1.257-5.308 0-2.097.428-3.866 1.257-5.332.829-1.466 1.952-2.578 3.395-3.361 1.443-.759 3.048-1.163 4.839-1.163 1.791 0 3.396.379 4.839 1.163 1.444.758 2.567 1.895 3.396 3.36.855 1.416 1.256 3.21 1.256 5.308Zm-4.331 0c0-2.022-.481-3.589-1.417-4.65-.936-1.062-2.192-1.618-3.743-1.618-1.55 0-2.807.531-3.743 1.618-.936 1.087-1.416 2.628-1.416 4.65 0 2.022.48 3.589 1.416 4.65.936 1.062 2.193 1.618 3.743 1.618 1.551 0 2.807-.531 3.743-1.618.936-1.086 1.417-2.628 1.417-4.65ZM128.125 13.125h5.259l5.549 13.229h.239l5.55-13.229h5.232v19.688h-4.143V19.998h-.159l-5.206 12.71h-2.814l-5.205-12.762h-.159v12.866h-4.143V13.125ZM157.127 32.813c-1.507 0-2.763-.38-3.768-1.168-1.005-.76-1.507-1.928-1.507-3.448 0-1.14.278-2.064.837-2.715.558-.652 1.284-1.14 2.205-1.44a12.16 12.16 0 0 1 2.931-.597c1.368-.135 2.373-.271 2.96-.434.585-.163.893-.462.893-.977v-.055c0-.624-.196-1.14-.615-1.466-.419-.353-.976-.516-1.73-.516-.781 0-1.424.163-1.898.516-.475.326-.782.76-.921 1.276l-4.076-.326c.307-1.411 1.06-2.524 2.261-3.339 1.2-.814 2.763-1.249 4.662-1.249a9.95 9.95 0 0 1 3.293.543 5.492 5.492 0 0 1 2.485 1.683c.642.76.949 1.765.949 2.987V32.54h-4.187v-2.145h-.112a4.601 4.601 0 0 1-1.73 1.765c-.783.434-1.759.651-2.932.651Zm1.256-2.933c.978 0 1.759-.271 2.374-.814.613-.543.921-1.222.921-2.037V25.4c-.168.109-.447.218-.81.299-.363.081-.753.163-1.145.217-.418.055-.781.109-1.088.163-.781.109-1.396.326-1.87.625-.475.325-.698.787-.698 1.384 0 .598.223 1.032.67 1.33.419.3.976.462 1.646.462ZM167.037 32.813V13.125h4.435V23.63h.253l5.108-5.603h5.08l-5.922 6.381 6.231 8.379h-5.193l-4.378-5.94-1.207 1.27v4.695h-4.407Z"/><path fill="#2B2D42" d="M188.196 32.813c-1.619 0-3.014-.326-4.215-.978-1.172-.652-2.094-1.575-2.707-2.742-.642-1.195-.95-2.607-.95-4.236 0-1.574.308-2.986.95-4.18.641-1.195 1.535-2.146 2.679-2.797 1.145-.68 2.513-1.005 4.076-1.005 1.395 0 2.652.299 3.796.869 1.117.57 2.01 1.439 2.68 2.606.67 1.168 1.004 2.607 1.004 4.371v1.168h-10.802c0 1.14.335 2.064.977 2.715.642.652 1.535 1.005 2.623 1.005.726 0 1.368-.163 1.899-.462.531-.298.921-.76 1.145-1.33l4.075.271c-.307 1.44-1.089 2.58-2.345 3.448-1.284.842-2.903 1.276-4.885 1.276Zm-3.517-9.585h6.672c0-.923-.308-1.683-.922-2.28-.614-.598-1.368-.896-2.345-.896-.976 0-1.786.298-2.4.923a3.446 3.446 0 0 0-1.005 2.253Z"/><path fill="#2B2D42" d="M195.509 32.813V18.02h4.209v2.574h.165c.275-.91.771-1.612 1.431-2.08.66-.468 1.458-.701 2.31-.701.496 0 .936.052 1.376.155v3.64a8.259 8.259 0 0 0-.853-.156c-.357-.052-.687-.052-.99-.052-.963 0-1.761.286-2.366.858-.633.572-.936 1.3-.936 2.21v8.345h-4.346Z"/></g><defs><clipPath id="clip0_777_17653"><path fill="#fff" d="M0 0h205v45H0z"/></clipPath></defs></svg>