<svg xmlns="http://www.w3.org/2000/svg" width="346" height="120" fill="none" viewBox="0 0 346 120"><rect width="343.781" height="118.5" x="1.312" y=".75" stroke="#7F98F8" stroke-width="1.5" rx="9.25"/><mask id="path-2-outside-1_5660_131587" width="170" height="32" x="112.327" y="41" fill="#000" maskUnits="userSpaceOnUse"><path fill="#fff" d="M112.327 41h170v32h-170z"/><path fill-rule="evenodd" d="M128.435 63.41a.718.718 0 0 1-.205.486.68.68 0 0 1-.475.204h-13.04c.326 3.323 2.794 6.349 6.175 6.349a5.984 5.984 0 0 0 3.063-.703 6.182 6.182 0 0 0 2.321-2.17.65.65 0 0 1 .666-.377.641.641 0 0 1 .453.275.677.677 0 0 1-.001.782 7.447 7.447 0 0 1-2.8 2.661 7.196 7.196 0 0 1-3.72.863c-4.406 0-7.545-4.05-7.545-8.388s3.139-8.379 7.545-8.379c4.406 0 7.582 4.031 7.591 8.36l-.028.038Zm-1.406-.66c-.28-3.323-2.795-6.349-6.185-6.349-3.391 0-5.85 3.026-6.176 6.35h12.361Zm17.287-7.364a.661.661 0 0 1 .456.202.697.697 0 0 1 .196.469.651.651 0 0 1-.047.258.654.654 0 0 1-.354.364.625.625 0 0 1-.251.048h-3.511V70.88a.702.702 0 0 1-.196.468.665.665 0 0 1-.456.202.655.655 0 0 1-.459-.2.69.69 0 0 1-.193-.47V56.727h-3.372a.625.625 0 0 1-.467-.19.656.656 0 0 1-.185-.48.702.702 0 0 1 .196-.469.661.661 0 0 1 .456-.202h3.372v-5.18c0-.178.068-.348.191-.474a.642.642 0 0 1 .922 0 .681.681 0 0 1 .191.474v5.2l3.511-.02Zm21.424 6.837v8.618a.701.701 0 0 1-.194.475.63.63 0 0 1-.926.008.664.664 0 0 1-.184-.483v-8.617c0-2.873-1.593-5.746-4.732-5.746-4.024 0-5.757 3.62-5.524 7.325v7.01a.685.685 0 0 1-.142.436.634.634 0 0 1-.927.102.675.675 0 0 1-.235-.529V42.67c0-.178.069-.348.191-.474a.642.642 0 0 1 .922 0 .677.677 0 0 1 .191.474v15.934a6.425 6.425 0 0 1 2.277-2.504 6.192 6.192 0 0 1 3.2-.962c3.847 0 6.045 3.466 6.045 7.124l.038-.038Zm23.463 1.188a.713.713 0 0 1-.203.488.67.67 0 0 1-.477.201h-13.124c.326 3.323 2.794 6.349 6.184 6.349a5.992 5.992 0 0 0 3.062-.704 6.195 6.195 0 0 0 2.322-2.169.659.659 0 0 1 .363-.302.635.635 0 0 1 .712.22.676.676 0 0 1 .127.293.71.71 0 0 1-.084.469 7.455 7.455 0 0 1-2.802 2.658 7.21 7.21 0 0 1-3.718.866c-4.397 0-7.536-4.05-7.536-8.388s3.139-8.379 7.536-8.379c4.396 0 7.591 4.031 7.6 8.36l.038.038Zm-1.388-.613c-.289-3.323-2.795-6.349-6.185-6.349-3.391 0-5.859 3.026-6.185 6.349h12.37Zm17.464-6.703a.69.69 0 0 1-.154.495.646.646 0 0 1-.451.233c-3.847.574-5.589 3.83-5.589 7.555v6.435a.698.698 0 0 1-.162.531.663.663 0 0 1-.494.23.65.65 0 0 1-.495-.23.688.688 0 0 1-.162-.531V56.095a.702.702 0 0 1 .148-.437.666.666 0 0 1 .383-.243.632.632 0 0 1 .548.142.676.676 0 0 1 .234.529v2.987c1.071-1.915 3.232-3.667 5.477-3.667a.658.658 0 0 1 .47.167c.13.116.212.279.229.455l.018.067Zm21.498 7.402a.707.707 0 0 1-.202.488.673.673 0 0 1-.478.201h-13.133c.326 3.323 2.794 6.349 6.185 6.349a5.99 5.99 0 0 0 3.061-.704 6.194 6.194 0 0 0 2.322-2.169.658.658 0 0 1 .363-.302.634.634 0 0 1 .712.221.676.676 0 0 1 .127.292.71.71 0 0 1-.084.47A7.455 7.455 0 0 1 222.848 71a7.208 7.208 0 0 1-3.718.866c-4.406 0-7.535-4.05-7.535-8.388s3.129-8.379 7.535-8.379c4.406 0 7.582 4.032 7.591 8.36l.056.038Zm-1.397-.66c-.289-3.324-2.794-6.35-6.185-6.35-3.39 0-5.859 3.026-6.185 6.35h12.37Zm22.522-6.57v14.699a.697.697 0 0 1-.196.469.66.66 0 0 1-.456.201.614.614 0 0 1-.467-.19.676.676 0 0 1-.185-.48V68.17a6.262 6.262 0 0 1-2.176 2.731A6.018 6.018 0 0 1 241.159 72c-3.885 0-6.036-3.466-6.036-7.124v-8.618c0-.178.068-.348.191-.474a.642.642 0 0 1 .922 0 .681.681 0 0 1 .191.474v8.618c0 2.873 1.593 5.745 4.732 5.745 4.396 0 5.43-4.242 5.43-8.915V56.22a.666.666 0 0 1 .538-.66.635.635 0 0 1 .3.018c.139.047.26.138.346.26a.72.72 0 0 1 .129.42v.01Zm33.057 5.899v8.618a.695.695 0 0 1-.193.475.662.662 0 0 1-.459.205.625.625 0 0 1-.467-.197.683.683 0 0 1-.185-.483v-8.618c0-2.873-1.593-5.745-4.732-5.745-3.94 0-5.43 4.337-5.43 7.66v6.645a.7.7 0 0 1-.196.478.664.664 0 0 1-.465.202.624.624 0 0 1-.467-.197.666.666 0 0 1-.185-.483V62.11c0-2.873-1.584-5.746-4.723-5.746-3.986 0-5.588 3.227-5.477 7.517v6.818a.69.69 0 0 1-.149.441.654.654 0 0 1-.391.239.631.631 0 0 1-.548-.142.675.675 0 0 1-.234-.529V56.095a.692.692 0 0 1 .145-.439.66.66 0 0 1 .675-.234.647.647 0 0 1 .435.372c.04.091.06.191.058.292v2.45a6.372 6.372 0 0 1 2.285-2.471 6.141 6.141 0 0 1 3.192-.927 5.72 5.72 0 0 1 3.489 1.189 5.99 5.99 0 0 1 2.1 3.1 6.613 6.613 0 0 1 2.309-3.072 6.34 6.34 0 0 1 3.587-1.217c3.847 0 6.045 3.408 6.045 7.066l-.019-.038Z" clip-rule="evenodd"/></mask><path fill="#627EEA" fill-rule="evenodd" d="M128.435 63.41a.718.718 0 0 1-.205.486.68.68 0 0 1-.475.204h-13.04c.326 3.323 2.794 6.349 6.175 6.349a5.984 5.984 0 0 0 3.063-.703 6.182 6.182 0 0 0 2.321-2.17.65.65 0 0 1 .666-.377.641.641 0 0 1 .453.275.677.677 0 0 1-.001.782 7.447 7.447 0 0 1-2.8 2.661 7.196 7.196 0 0 1-3.72.863c-4.406 0-7.545-4.05-7.545-8.388s3.139-8.379 7.545-8.379c4.406 0 7.582 4.031 7.591 8.36l-.028.038Zm-1.406-.66c-.28-3.323-2.795-6.349-6.185-6.349-3.391 0-5.85 3.026-6.176 6.35h12.361Zm17.287-7.364a.661.661 0 0 1 .456.202.697.697 0 0 1 .196.469.651.651 0 0 1-.047.258.654.654 0 0 1-.354.364.625.625 0 0 1-.251.048h-3.511V70.88a.702.702 0 0 1-.196.468.665.665 0 0 1-.456.202.655.655 0 0 1-.459-.2.69.69 0 0 1-.193-.47V56.727h-3.372a.625.625 0 0 1-.467-.19.656.656 0 0 1-.185-.48.702.702 0 0 1 .196-.469.661.661 0 0 1 .456-.202h3.372v-5.18c0-.178.068-.348.191-.474a.642.642 0 0 1 .922 0 .681.681 0 0 1 .191.474v5.2l3.511-.02Zm21.424 6.837v8.618a.701.701 0 0 1-.194.475.63.63 0 0 1-.926.008.664.664 0 0 1-.184-.483v-8.617c0-2.873-1.593-5.746-4.732-5.746-4.024 0-5.757 3.62-5.524 7.325v7.01a.685.685 0 0 1-.142.436.634.634 0 0 1-.927.102.675.675 0 0 1-.235-.529V42.67c0-.178.069-.348.191-.474a.642.642 0 0 1 .922 0 .677.677 0 0 1 .191.474v15.934a6.425 6.425 0 0 1 2.277-2.504 6.192 6.192 0 0 1 3.2-.962c3.847 0 6.045 3.466 6.045 7.124l.038-.038Zm23.463 1.188a.713.713 0 0 1-.203.488.67.67 0 0 1-.477.201h-13.124c.326 3.323 2.794 6.349 6.184 6.349a5.992 5.992 0 0 0 3.062-.704 6.195 6.195 0 0 0 2.322-2.169.659.659 0 0 1 .363-.302.635.635 0 0 1 .712.22.676.676 0 0 1 .127.293.71.71 0 0 1-.084.469 7.455 7.455 0 0 1-2.802 2.658 7.21 7.21 0 0 1-3.718.866c-4.397 0-7.536-4.05-7.536-8.388s3.139-8.379 7.536-8.379c4.396 0 7.591 4.031 7.6 8.36l.038.038Zm-1.388-.613c-.289-3.323-2.795-6.349-6.185-6.349-3.391 0-5.859 3.026-6.185 6.349h12.37Zm17.464-6.703a.69.69 0 0 1-.154.495.646.646 0 0 1-.451.233c-3.847.574-5.589 3.83-5.589 7.555v6.435a.698.698 0 0 1-.162.531.663.663 0 0 1-.494.23.65.65 0 0 1-.495-.23.688.688 0 0 1-.162-.531V56.095a.702.702 0 0 1 .148-.437.666.666 0 0 1 .383-.243.632.632 0 0 1 .548.142.676.676 0 0 1 .234.529v2.987c1.071-1.915 3.232-3.667 5.477-3.667a.658.658 0 0 1 .47.167c.13.116.212.279.229.455l.018.067Zm21.498 7.402a.707.707 0 0 1-.202.488.673.673 0 0 1-.478.201h-13.133c.326 3.323 2.794 6.349 6.185 6.349a5.99 5.99 0 0 0 3.061-.704 6.194 6.194 0 0 0 2.322-2.169.658.658 0 0 1 .363-.302.634.634 0 0 1 .712.221.676.676 0 0 1 .127.292.71.71 0 0 1-.084.47A7.455 7.455 0 0 1 222.848 71a7.208 7.208 0 0 1-3.718.866c-4.406 0-7.535-4.05-7.535-8.388s3.129-8.379 7.535-8.379c4.406 0 7.582 4.032 7.591 8.36l.056.038Zm-1.397-.66c-.289-3.324-2.794-6.35-6.185-6.35-3.39 0-5.859 3.026-6.185 6.35h12.37Zm22.522-6.57v14.699a.697.697 0 0 1-.196.469.66.66 0 0 1-.456.201.614.614 0 0 1-.467-.19.676.676 0 0 1-.185-.48V68.17a6.262 6.262 0 0 1-2.176 2.731A6.018 6.018 0 0 1 241.159 72c-3.885 0-6.036-3.466-6.036-7.124v-8.618c0-.178.068-.348.191-.474a.642.642 0 0 1 .922 0 .681.681 0 0 1 .191.474v8.618c0 2.873 1.593 5.745 4.732 5.745 4.396 0 5.43-4.242 5.43-8.915V56.22a.666.666 0 0 1 .538-.66.635.635 0 0 1 .3.018c.139.047.26.138.346.26a.72.72 0 0 1 .129.42v.01Zm33.057 5.899v8.618a.695.695 0 0 1-.193.475.662.662 0 0 1-.459.205.625.625 0 0 1-.467-.197.683.683 0 0 1-.185-.483v-8.618c0-2.873-1.593-5.745-4.732-5.745-3.94 0-5.43 4.337-5.43 7.66v6.645a.7.7 0 0 1-.196.478.664.664 0 0 1-.465.202.624.624 0 0 1-.467-.197.666.666 0 0 1-.185-.483V62.11c0-2.873-1.584-5.746-4.723-5.746-3.986 0-5.588 3.227-5.477 7.517v6.818a.69.69 0 0 1-.149.441.654.654 0 0 1-.391.239.631.631 0 0 1-.548-.142.675.675 0 0 1-.234-.529V56.095a.692.692 0 0 1 .145-.439.66.66 0 0 1 .675-.234.647.647 0 0 1 .435.372c.04.091.06.191.058.292v2.45a6.372 6.372 0 0 1 2.285-2.471 6.141 6.141 0 0 1 3.192-.927 5.72 5.72 0 0 1 3.489 1.189 5.99 5.99 0 0 1 2.1 3.1 6.613 6.613 0 0 1 2.309-3.072 6.34 6.34 0 0 1 3.587-1.217c3.847 0 6.045 3.408 6.045 7.066l-.019-.038Z" clip-rule="evenodd"/><path stroke="#6880DD" d="M128.435 63.41a.718.718 0 0 1-.205.486.68.68 0 0 1-.475.204h-13.04c.326 3.323 2.794 6.349 6.175 6.349a5.984 5.984 0 0 0 3.063-.703 6.182 6.182 0 0 0 2.321-2.17.65.65 0 0 1 .666-.377.641.641 0 0 1 .453.275.677.677 0 0 1-.001.782 7.447 7.447 0 0 1-2.8 2.661 7.196 7.196 0 0 1-3.72.863c-4.406 0-7.545-4.05-7.545-8.388s3.139-8.379 7.545-8.379c4.406 0 7.582 4.031 7.591 8.36l-.028.038Zm-1.406-.66c-.28-3.323-2.795-6.349-6.185-6.349-3.391 0-5.85 3.026-6.176 6.35h12.361Zm17.287-7.364a.661.661 0 0 1 .456.202.697.697 0 0 1 .196.469.651.651 0 0 1-.047.258.654.654 0 0 1-.354.364.625.625 0 0 1-.251.048h-3.511V70.88a.702.702 0 0 1-.196.468.665.665 0 0 1-.456.202.655.655 0 0 1-.459-.2.69.69 0 0 1-.193-.47V56.727h-3.372a.625.625 0 0 1-.467-.19.656.656 0 0 1-.185-.48.702.702 0 0 1 .196-.469.661.661 0 0 1 .456-.202h3.372v-5.18c0-.178.068-.348.191-.474a.642.642 0 0 1 .922 0 .681.681 0 0 1 .191.474v5.2l3.511-.02Zm21.424 6.837v8.618a.701.701 0 0 1-.194.475.63.63 0 0 1-.926.008.664.664 0 0 1-.184-.483v-8.617c0-2.873-1.593-5.746-4.732-5.746-4.024 0-5.757 3.62-5.524 7.325v7.01a.685.685 0 0 1-.142.436.634.634 0 0 1-.927.102.675.675 0 0 1-.235-.529V42.67c0-.178.069-.348.191-.474a.642.642 0 0 1 .922 0 .677.677 0 0 1 .191.474v15.934a6.425 6.425 0 0 1 2.277-2.504 6.192 6.192 0 0 1 3.2-.962c3.847 0 6.045 3.466 6.045 7.124l.038-.038Zm23.463 1.188a.713.713 0 0 1-.203.488.67.67 0 0 1-.477.201h-13.124c.326 3.323 2.794 6.349 6.184 6.349a5.992 5.992 0 0 0 3.062-.704 6.195 6.195 0 0 0 2.322-2.169.659.659 0 0 1 .363-.302.635.635 0 0 1 .712.22.676.676 0 0 1 .127.293.71.71 0 0 1-.084.469 7.455 7.455 0 0 1-2.802 2.658 7.21 7.21 0 0 1-3.718.866c-4.397 0-7.536-4.05-7.536-8.388s3.139-8.379 7.536-8.379c4.396 0 7.591 4.031 7.6 8.36l.038.038Zm-1.388-.613c-.289-3.323-2.795-6.349-6.185-6.349-3.391 0-5.859 3.026-6.185 6.349h12.37Zm17.464-6.703a.69.69 0 0 1-.154.495.646.646 0 0 1-.451.233c-3.847.574-5.589 3.83-5.589 7.555v6.435a.698.698 0 0 1-.162.531.663.663 0 0 1-.494.23.65.65 0 0 1-.495-.23.688.688 0 0 1-.162-.531V56.095a.702.702 0 0 1 .148-.437.666.666 0 0 1 .383-.243.632.632 0 0 1 .548.142.676.676 0 0 1 .234.529v2.987c1.071-1.915 3.232-3.667 5.477-3.667a.658.658 0 0 1 .47.167c.13.116.212.279.229.455l.018.067Zm21.498 7.402a.707.707 0 0 1-.202.488.673.673 0 0 1-.478.201h-13.133c.326 3.323 2.794 6.349 6.185 6.349a5.99 5.99 0 0 0 3.061-.704 6.194 6.194 0 0 0 2.322-2.169.658.658 0 0 1 .363-.302.634.634 0 0 1 .712.221.676.676 0 0 1 .127.292.71.71 0 0 1-.084.47A7.455 7.455 0 0 1 222.848 71a7.208 7.208 0 0 1-3.718.866c-4.406 0-7.535-4.05-7.535-8.388s3.129-8.379 7.535-8.379c4.406 0 7.582 4.032 7.591 8.36l.056.038Zm-1.397-.66c-.289-3.324-2.794-6.35-6.185-6.35-3.39 0-5.859 3.026-6.185 6.35h12.37Zm22.522-6.57v14.699a.697.697 0 0 1-.196.469.66.66 0 0 1-.456.201.614.614 0 0 1-.467-.19.676.676 0 0 1-.185-.48V68.17a6.262 6.262 0 0 1-2.176 2.731A6.018 6.018 0 0 1 241.159 72c-3.885 0-6.036-3.466-6.036-7.124v-8.618c0-.178.068-.348.191-.474a.642.642 0 0 1 .922 0 .681.681 0 0 1 .191.474v8.618c0 2.873 1.593 5.745 4.732 5.745 4.396 0 5.43-4.242 5.43-8.915V56.22a.666.666 0 0 1 .538-.66.635.635 0 0 1 .3.018c.139.047.26.138.346.26a.72.72 0 0 1 .129.42v.01Zm33.057 5.899v8.618a.695.695 0 0 1-.193.475.662.662 0 0 1-.459.205.625.625 0 0 1-.467-.197.683.683 0 0 1-.185-.483v-8.618c0-2.873-1.593-5.745-4.732-5.745-3.94 0-5.43 4.337-5.43 7.66v6.645a.7.7 0 0 1-.196.478.664.664 0 0 1-.465.202.624.624 0 0 1-.467-.197.666.666 0 0 1-.185-.483V62.11c0-2.873-1.584-5.746-4.723-5.746-3.986 0-5.588 3.227-5.477 7.517v6.818a.69.69 0 0 1-.149.441.654.654 0 0 1-.391.239.631.631 0 0 1-.548-.142.675.675 0 0 1-.234-.529V56.095a.692.692 0 0 1 .145-.439.66.66 0 0 1 .675-.234.647.647 0 0 1 .435.372c.04.091.06.191.058.292v2.45a6.372 6.372 0 0 1 2.285-2.471 6.141 6.141 0 0 1 3.192-.927 5.72 5.72 0 0 1 3.489 1.189 5.99 5.99 0 0 1 2.1 3.1 6.613 6.613 0 0 1 2.309-3.072 6.34 6.34 0 0 1 3.587-1.217c3.847 0 6.045 3.408 6.045 7.066l-.019-.038Z" clip-rule="evenodd" mask="url(#path-2-outside-1_5660_131587)"/><path fill="#6880DD" d="m84.793 29-.405 1.419v41.164l.405.417 18.555-11.295L84.793 29Z"/><path fill="#9FB2FB" d="m84.387 29-18.96 31.705L84.387 72V29Z"/><path fill="#4D66C9" d="m84.618 75.32-.23.288V90.31l.23.689 18.73-27-18.73 11.32Z"/><path fill="#A8BAFF" d="M84.387 91V75.32L65.427 64l18.96 27Z"/><path fill="#4D66C9" d="m84.388 72 18.96-11.306L84.388 52v20ZM65.427 60.694 84.387 72V52l-18.96 8.694Z"/></svg>