<svg xmlns="http://www.w3.org/2000/svg" width="178" height="55" fill="none" viewBox="0 0 178 55"><g clip-path="url(#clip0_953_17781)"><path fill="#031B4E" d="M58.336 10.138s1.883-.737 3.594 0v22.115a4.91 4.91 0 0 1-3.594-.055v-22.06Zm4.028 10.299a8.288 8.288 0 0 0-.19-.256c-.01-.015.569-.526.62-.575.236-.213.477-.423.719-.63.293-.253.586-.506.878-.762a48.153 48.153 0 0 0 4.353-4.362c.354-.408.701-.824 1.03-1.252a15.21 15.21 0 0 0 1.54-2.459c.037-.1.087-.197.146-.287 0 0 1.825-.113 3.081 1.983 0 0-1.219 2.532-7.8 8.298a8.649 8.649 0 0 1-.29.24c.031.077.07.151.115.222.694 1.056 4.166 6.159 8.545 9.499a4.32 4.32 0 0 1-1.058 1.65c-.474.462-1.05.81-1.68 1.017 0 0-4.017-3.103-10.009-12.326Zm28.703 4.822c.479-.024.957-.045 1.436-.066 1.44-.066 2.878-.149 4.315-.246.427-.03.854-.061 1.276-.1l.13-.012c2.096-.195 3.251-.294 3.251-.294s1.18-8.543-7.135-8.222a6.86 6.86 0 0 0-4.568 1.784 7.866 7.866 0 0 0-2.042 3.622c-.88 3.187-.479 7.662 2.441 9.752 1.772 1.27 3.908 1.513 6.027 1.179a9.996 9.996 0 0 0 2.927-.907c.15-.076 1.021-.47 1.038-.688a2.461 2.461 0 0 0-.41-1.398 2.484 2.484 0 0 0-1.13-.926c-.079-.035-.583.3-.675.348-.216.107-.434.208-.652.302-1.7.71-3.92.663-5.161-.867a4.688 4.688 0 0 1-.938-2.051c-.067-.4-.11-.805-.13-1.21Zm3.674-6.162c3.42 0 3.081 3.285 3.081 3.29-.402.065-.808.107-1.216.125-.89.082-1.78.14-2.673.177-.211.007-2.743.092-2.743.055 0 0 .128-3.647 3.55-3.647Zm31.374 2.564a6.76 6.76 0 0 0-1.839-3.384 6.82 6.82 0 0 0-3.399-1.84 7.519 7.519 0 0 0-1.865-.142 8.47 8.47 0 0 0-1.77.262c-3.518.926-5.324 4.103-5.306 7.566 0 8.28 5.631 8.657 6.923 8.657 1.292 0 7.533.113 7.533-8.43 0-.903-.093-1.804-.277-2.69v.002Zm-5.669 7.917a3.122 3.122 0 0 1-.95.188 3.754 3.754 0 0 1-2.3-.611c-.941-.678-1.321-1.802-1.459-2.903a10.482 10.482 0 0 1 .13-3.875c.255-.986.718-1.988 1.617-2.547a3.51 3.51 0 0 1 1.792-.468c1.821.006 2.779 1.247 3.173 2.896.175.774.259 1.565.25 2.359.003 1.852-.413 4.27-2.253 4.961Zm17.592-9.104c.076-.036.148-.08.214-.131.389-.345.7-.767.917-1.237a3.323 3.323 0 0 0 .262-1.562 9.142 9.142 0 0 0-3.279-1.116 8.384 8.384 0 0 0-3.63.104c-1.553.422-3.003 1.427-3.45 3.035a4.898 4.898 0 0 0-.172 1.347 3.933 3.933 0 0 0 1.059 2.824 6.999 6.999 0 0 0 2.835 1.498c.589.183 1.187.345 1.768.55.682.244 1.454.617 1.705 1.349a1.94 1.94 0 0 1-.112 1.34c-.195.42-.535.758-.957.952a3 3 0 0 1-2.519-.045 5.912 5.912 0 0 1-1.155-.663c-.163-.119-.319-.245-.476-.37-.085-.068-.42-.419-.513-.404a3.344 3.344 0 0 0-1.485.786c-.42.384-.733.868-.911 1.406-.03.082-.029.139-.064.274a9.495 9.495 0 0 0 1.999 1.549 8.06 8.06 0 0 0 4.039.965 6.657 6.657 0 0 0 3.686-1.108 5.49 5.49 0 0 0 2.036-2.514 4.85 4.85 0 0 0 .284-1.32 4.602 4.602 0 0 0-.493-2.534 4.636 4.636 0 0 0-1.785-1.876c-1.396-.83-3.174-.86-4.495-1.79-.856-.6-.958-1.837.04-2.383a2.968 2.968 0 0 1 1.765-.147 5.986 5.986 0 0 1 2.625 1.053c.129.077.262.17.262.17v-.002Zm-31.071-10.65s1.17.295 2.45 2.342a5.985 5.985 0 0 1-2.527 2.267 5.513 5.513 0 0 1-2.448-2.266c1.279-2.048 2.525-2.342 2.525-2.342Zm36.713 8.512a2.018 2.018 0 0 1-1.108-.35 1.99 1.99 0 0 1-.274-3.068 2.014 2.014 0 0 1 2.186-.42 1.99 1.99 0 0 1 1.233 1.842 1.969 1.969 0 0 1-.594 1.425 1.998 1.998 0 0 1-1.443.57v.001Zm0-3.618a1.63 1.63 0 0 0-1.52.992 1.616 1.616 0 0 0 .346 1.774 1.634 1.634 0 0 0 1.783.358 1.619 1.619 0 0 0 1.01-1.503 1.594 1.594 0 0 0-1.619-1.62Zm.513 2.685-.333-.71a.311.311 0 0 0-.317-.194h-.186v.904h-.413v-2.105c.216-.086.446-.131.678-.13.565 0 .89.243.89.655a.562.562 0 0 1-.47.544v.014a.546.546 0 0 1 .217.244l.383.775-.449.003Zm-.556-1.918a1.027 1.027 0 0 0-.28.03v.682h.244c.332 0 .497-.1.497-.36.003-.223-.143-.352-.461-.352Zm-63.474.822a24.82 24.82 0 0 1 .29 3.245.955.955 0 0 1 .163-.336c.158-.276.335-.542.53-.797a4.327 4.327 0 0 1 2.179-1.614 7.81 7.81 0 0 1 3.11-.31c.011 0 .191.014.192.037a4.797 4.797 0 0 1-1.132 3.374s-2.199-.257-3.523.996c-1.498 1.416-1.2 3.655-1.196 5.509v5.833s-1.264.803-3.463.096c0-.93-.004-1.864 0-2.796.006-1.739-.009-3.48.014-5.223.031-1.126 0-2.252-.1-3.375a14.081 14.081 0 0 0-.218-1.416c-.026-.127-.418-1.35-.403-1.362 0 .003 1.099-.929 3.557-1.86Zm24.505 1.412a17.57 17.57 0 0 1 .545 4.342c0 1.759-.003 3.516.007 5.274l.024 4.201.005.824s1.226.642 3.489 0V16.306s-2.52.514-4.07 1.412v.001Z"/><path fill="#006AFF" d="m30.66 5.938 2.095.142-.343 1.353-1.751-1.495Zm-3.345 11.188-.437 1.518 1.043-.621-.606-.897Zm.89 1.673-.747 1.516 1.388-.317-.643-1.2h.002Zm.794 2.185-1.002 1.62 1.594-.183L29 20.984Zm.513 2.41-1.361 1.854 1.849.018-.49-1.873.002.002Zm.23 2.944-1.672 1.815 1.88.283-.208-2.096v-.002Zm.07 3.233-.128 2.523-2.196-.67 2.323-1.853Zm-.64 3.74-.378 3.015-2.443-1.145 2.822-1.87Zm-1.2 4.364-.74 2.73-2.207-1.442 2.946-1.288Zm-1.636 3.953L25.31 44.68l-2.195-1.982 3.223-1.07Zm-1.98 4.125-1.14 3.064-1.889-2.327 3.029-.737Zm-1.853 3.881-.937 2.5-2.062-2.5h2.999Zm-1.622 2.942-2.894-.105 1.849 2.113 1.047-2.008h-.002Zm-3.524-3.194-.556 2.146-2.346-2.931 2.902.783v.002Zm-3.07-3.546-.91 1.766-1.987-3.166 2.896 1.4Zm-5.19-5.688 2.639 1.663-1.2 1.257-1.439-2.92Zm.522-2.299-1.17 1.178-.909-2.828 2.08 1.65Zm-2.388-2.654 1.172-.83-1.573-1.767.4 2.596Zm-.742-6.003 1.322 1.766-1.216.45-.106-2.216Zm.84-1.38-.67-1.774-.428 1.94 1.097-.167.001.002Zm-.635-2.782.552-1.53.414 1.573-.966-.043Zm.662-2.546.614-1.344.187 1.6-.8-.256Zm.757-2.095.667-1.197.057 1.462-.724-.265Zm.832-1.754.59-.878.071 1.265-.661-.387Z"/><path fill="#006AFF" d="m30.66 5.937 2.095.143-.343 1.352-1.751-1.495Zm2.95.554 2.467.351-.697 1.442-1.768-1.793h-.002Zm3.484.9 2.534.691-.838 1.487-1.694-2.18-.002.002Zm3.532 1.558 2.907 1.43-1.392 1.898-1.515-3.327V8.95Zm3.892 2.445 2.912 2.133-1.75 2.132-1.162-4.267v.002Zm3.963 3.535 2.681 3.163-1.73 1.995-.95-5.158Zm3.649 5.037 2.767 3.424-2.86 2.435.093-5.857v-.002Zm-2.984 3.104 1.819 3.553-3.13 1.78 1.31-5.333Zm-4.051 2.612 1.771 3.383-3.476 1.273 1.705-4.656Zm-4.143 1.839.921 3.28-3.216.545 2.295-3.825Zm-3.916 1.061.425 3.394-2.898-.098 2.473-3.296Zm-3.684.831.094 2.768-2.405-.33 2.31-2.438Zm-6.802.064-.278 2.057-1.613-.71 1.891-1.349v.002Zm-2.588-.397-.375 1.723-1.396-.823 1.773-.9h-.002Zm-2.173-.819-.474 1.617-1.212-.988 1.686-.63v.001Zm-2.01-.895-.51 1.302-1.043-1.008 1.553-.295v.001Zm-1.468-.96-.492.984-.712-.902 1.204-.082Zm-3.439-.2 1.028.228s-.534 1.026-.547.913c-.015-.115-.48-1.142-.48-1.142Zm-1.379 1.046 1.236.36-.752.783-.484-1.143Zm-1.597.804 1.394.725-1.037.843-.357-1.568Zm-1.747.596 1.392 1.055-1.15.769-.242-1.824Zm-1.863.361L9.72 30.41l-1.32.558-.114-1.955h.001Zm-2.303 2.032L4.67 28.707l-.027 2.491 1.339-.153Zm-2.004-.377c-.068-.078-1.15-2.673-1.15-2.673l-.16 2.594 1.31.079Zm-1.852-.769-.308-2.888-.738 2.575 1.047.312-.001.001Zm-1.4-1.112.152-3.374-.842 2.67.688.704h.002Zm9.088-12.106-.39-.621.936-.629-.546 1.249v.001Zm-.314-1.18-.048-.66.717-.545L9.5 15.5ZM9.494 14.2l.894-1.463-.96.662.066.802V14.2Zm.109-1.544.107-1.056.977-.519-1.084 1.575Zm.365-1.808.167-1.033 1.154-.507-1.321 1.54Zm.936-1.875.7-1.152 1.06-.324-1.761 1.476h.001Zm1.427-1.843.936-1.382 1.07-.238-2.004 1.62h-.002Zm1.876-2.213.71-.836 1.23-.343-1.94 1.179Zm3.298-2.147 1.092-.532.437.037-1.529.495Zm2.977-1.446 1.326-.5.362.131-1.688.37v-.001Zm-.304 6.78.978-.519.34.684-1.316-.164-.002-.001Zm1.624-.68 1.072-.47.263.778-1.335-.307Zm1.867-.563 1.391-.45.018.895-1.409-.446v.001Zm3.738-.866-.173.975-1.459-.613 1.63-.362h.002Zm.733.09 1.776-.352-.265 1.19-1.514-.838h.003Zm-9.214 1.671.389.36-1.173.339.784-.699Zm-1.002-.433.673.327-1.298.498.625-.825Zm-.468-.034-1.541.64.823-.875.718.235Zm-1.433-.18-1.492.809.64-.94.852.131Zm-2.46-.035.868.015-1.618.969.75-.984ZM9.568 8.897l1.156-.482-1.722 1.56.566-1.078Zm-.832.557-1.05.644-.908 1.117 1.96-1.76h-.002ZM6.115 11.7l-1.076 1.828.085-.675.99-1.155v.002ZM4.28 13.79l-1.137 2.36.238-.924.897-1.436h.002ZM28.15.282 30.275 0l.218.554-2.342-.272Zm1.051 1.077L31.19.896l.421.955-2.408-.492Zm.76.914 1.992-.076.427 1.167-2.419-1.091Zm.546 1.71 2.11-.048-.011 1.37-2.098-1.32-.001-.001Zm.106 3.85 1.88.282-.565 1.416-1.316-1.699h.001Zm-.462 1.98 1.675.502-.843 1.335-.832-1.836Zm-.703 1.857 1.38.613-.867 1.142-.513-1.755Zm-1 1.66 1.194.673-.976.847-.217-1.52Zm-.994 1.388.945.508-.961.651.016-1.16ZM24.097.482l1.29-.458.91.202-2.201.256h.001Zm-1.759 8.076.078-.036 1.054-.482-.042.97-1.091-.452h.001Zm1.744-.55 1.197-.293-.012.892-1.185-.6Zm2.004-.308 1.4-.204-.302 1.04-1.1-.836h.002Zm2.22-.104 1.456-.054-.412 1.089-1.044-1.035Zm5.02.81 2.229.629-.932 1.574-1.298-2.203h.001Zm2.965 1.354.067.029 2.277.936-1.31 1.617L36.29 9.76Zm3.26 1.861 2.362 1.772-1.554 1.53-.807-3.302h-.002Zm3.158 2.991 2.657 2.318-2.14 1.443-.517-3.76Zm3.424 3.618 2.637 3.13-3.047 1.587.41-4.717Zm4.984 11 1.96 4.249-4.12 1.635 2.16-5.884Zm-4.433 2.25.713 4.123-4.101.783 3.388-4.907Zm-5.152 1.327.24 4.331-3.611-.276 3.371-4.055Zm-4.53.756v.08l-.06 3.672-3.112-.606 3.171-3.146Zm-4.29.149-.295 3.392-2.65-.929 2.944-2.463Zm-6.778-1.03-.588 2.539-1.945-1.166 2.533-1.373Zm-3.068-.88-.57 2.035-1.376-1.234 1.944-.801h.002Zm-2.105-1.222-.758 1.747L18.7 31.05l2.061-.47Zm-1.996-1.274-.802 1.366-1.002-1.312 1.804-.054Zm-1.712-1.461-.724 1.048-.58-1.011 1.304-.037Zm-4.038-2.312.982.506-.925.646-.057-1.152Zm-1.57.414.973.735-.829.484-.143-1.22Zm-1.661.269 1.05 1.074-1.112.36.062-1.434Zm-1.689.041 1 1.389-1.208.282.21-1.67h-.002Zm-2.88-.709.478 2.116-1.19-.066.711-2.051v.001Zm-1.46-1.132s.403 2.467.315 2.452c-.09-.016-1.225-.352-1.225-.352l.91-2.1Zm-1.764-2.98-.307 3.045-.513-.925.82-2.12Zm2.385-5.746.146-1.234.912-.74-1.058 1.974Zm1.94-3.312 1.317-.925-1.352 1.76.035-.835Zm5.448-2.752.51-.908.874-.1-1.384 1.008Zm3.557-1.183.783.101-1.293.806.51-.907Zm.833.868.48-.828.693.307-1.171.521h-.002ZM2.037 18.545l-.244.531.962-1.964-.823.867-.161 1.215m.972 3.977-.181 2.722-.631-.467.812-2.255Zm-1.42-1.282-.37-.941.822-1.447-.452 2.387Zm21.669 17.867-1.074 2.64-1.825-2.017 2.899-.623ZM6.06 22.672l.276 1.877-1.014-.287.738-1.59Zm1.163-3.299.636.506.042-1.626-.687 1.045m-.266 1.015.157 1.833-.921-.472.763-1.361h.001Zm1.41-2.914.719-.749-.337 1.313-.383-.565v.001Zm18.086 2.394.353 1.06-1.075.18.72-1.24h.002Zm-.547 3.248.957-1.212.353 1.058-1.31.152v.002Zm1.135.793.136 1.662-1.394-.07 1.257-1.59.001-.002Zm-1.703 4.017 1.65-1.348-.023 1.777-1.627-.428v-.001Zm-3.489 9.317 2.62-.959-.67 2.51-1.95-1.55Zm-.873 6.005-1.043 2.59-1.855-2.37 2.898-.22Zm-4.842 3.03 2.924.318-1.083 2.248-1.84-2.566h-.001Zm-2.963 4.24 2.872 1.52-.445 1.788-2.427-3.307Zm-3.56-4.412 2.742 1.728-.561 1.456-2.181-3.184Zm-2.394-5.01 2.46 2.262-1.167 1.213-1.293-3.475Zm-1.784-4.384 2.188 2.255-1.267.687-.921-2.943v.001Zm-.54-4.298 1.418 2.266-1.361.543-.057-2.81ZM22.808.969l-1.336.675 1.89-.392-.554-.283Zm1.244.289-1.508.695 2.032-.148-.524-.547Zm-.607 1.2 2.154.155-.534-.603-1.62.446v.001Zm.947 1.193 1.672-.743.407 1.082-2.08-.34Zm.917 1.427 1.55-.555.3 1.086-1.85-.531Z"/><path fill="#006AFF" d="m25.992 7.721 1.474-.229-.21 1.152-1.264-.923Zm.138 1.662 1.28-.149-.366 1.056-.914-.907Zm-.325 1.427 1.188.036-.547.99-.64-1.026Zm-5.891-8.608.632.159-2.035.697 1.403-.856ZM18.16 3.678l-1.127-.101-.965.96 2.094-.86h-.002ZM15.07 5.19l1.107.259-2.08.973.973-1.232Zm-3.735 5.256.978-.19-1.128 1.212.15-1.022Zm-.492 1.717.936-.224-.862 1.18-.075-.956Zm-.083 1.592.919-.377-.715 1.125-.204-.748Zm16.696-2.646 1.354.22-.725.952-.629-1.172Zm4.039 1.674 1.517.896-1.185 1.209-.332-2.103v-.002Zm2.156 1.662 1.51 1.07-1.409 1.03-.101-2.1Zm2.207 1.857 1.75 1.65-2.085 1.167.335-2.817Zm2.145 2.79 1.604 2.362-2.65 1.03 1.046-3.392Zm1.692 3.856 1.35 2.883-2.77.522 1.42-3.404v-.001Zm1.62 15.79-.613 4.41-3.396-.678 4.009-3.734v.001Zm-1.765 6.135-1.06 4.377-3.528-.895 4.586-3.482h.002Zm-4.878-.507-1.035 3.824-3.135-1.23 4.17-2.593Zm-4.453-1.077-.68 3.408-2.932-1.717 3.612-1.691Zm-10.114-5.515-.967 2.081-1.54-1.82 2.508-.261h-.002Zm-4.687-2.58 2.277.227-1.222 1.879-1.055-2.107Zm.355-2.128-1.128 1.462-.761-1.822 1.889.36Zm-2.944-2.729 1.45.556-1 1.07-.449-1.626h-.001Zm-1.35-6.093.725.755-.808.24.084-.996v.001Zm-1.618-.16.819 1.064-.962.17.143-1.235ZM3.64 20.23l-.053 2.496-.672-.79.726-1.704v-.002Zm-.23-1.94-.685 2.508-.335-.887 1.022-1.622H3.41Zm9.403-7.359.232-.992.89.053-1.122.939Zm1.366-.196.318-.886.744.108-1.062.778ZM8.055 12.68 7.979 14l1.17-1.833-1.094.512v.001Zm-.772.937-1.198 2.26-.172-1.137 1.37-1.123ZM5.304 15.64 4.037 18.13l-.04-1.096 1.307-1.395Zm1.108 2.399.965-.96L7 18.782l-.588-.743Zm2.777 2.998.493-1.021.3 1.238-.793-.217Zm1.196 1.28.492.985-.9-.041.408-.944Zm-1.35-.452.433 1.225-.846-.076.413-1.149Zm-2.947-2.728L5.95 21.15l-.8-.66.94-1.353h-.002Zm6.363-7.39-.11.707.906-.8-.796.093ZM8.798 14.02l-.857 1.546-.094-.8.951-.746ZM7.26 15.647l-.888 1.78-.326-.83 1.214-.951v.001Zm-1.8 1.885-.587 2.384-.817-1.064 1.403-1.32h.002Zm10.516-11.23.981-.981.674.327-1.655.654Zm2.464-.63-.895.738 1.448-.456-.553-.283Zm1.151.445-.957.687 1.426-.163-.469-.524Zm.935.586-.743.55h.981l-.238-.55Zm-1.404-1.634 1.059-.814.508.404-1.567.412v-.002Zm2.239-.083.416.589-1.481.17 1.066-.759h-.001Zm.883-.392 1.247-.665.437.76-1.686-.095h.002Zm-1.2-.845 1.28-.9.536.631-1.816.268v.001Zm-.838-.771.965-.632.558.34-1.523.292Zm4.24 2.231.158.85-1.313-.37 1.156-.48Zm-.135 4.24 1.005-.29-.186.89-.82-.6Zm2.685 3.22.779.256-.482.809-.299-1.066h.002ZM12.499 6.183l-1.675 1.467.62-1.113 1.055-.354Zm-3.43 2.25.905-1.145.663-.253-1.568 1.397Zm-2.093 1.862 1.164-1.41-.631.536-.533.874Zm19.21-8.473 1.845-.504.265.78-2.11-.276Zm2.728.61.226.958-2.023-.519 1.795-.438h.002Zm3.473-1.385 2.07-.067.464.987-2.534-.921v.001Zm3.42.125 2.037.17.596 1.146-2.634-1.314v-.002Zm3.372.71 2.316.543.538 1.152-2.854-1.694Zm1.52 2.14 2.803.774-.09 1.689L40.7 4.023Zm4.504 1.504 2.677 1.659-.064 1.918-2.611-3.577h-.002Zm.066 3.003 3.096 1.801-.592 1.844-2.504-3.645Zm-4.067-2.193 2.616 1.145-.547 1.742-2.07-2.887Zm-4.334-3.491 2.416.414.23 1.478-2.646-1.893Zm-3.555-.284 2.312.022.02 1.155-2.33-1.177h-.002Zm.507 1.852 2.223.261-.36 1.374-1.864-1.635h.001Zm-1.137 6.555 1.637.678-1.106 1.402-.53-2.081v.001Zm5.28 3.21 1.91 1.516-1.702 1.236-.206-2.753h-.002Zm2.605 2.998 1.995 2.258-2.384 1.317.389-3.575ZM30.224 14.61l-.203 1.7 1.286-.844-1.083-.856Zm1.822 1.757-.488 1.735 1.522-.812-1.032-.921-.002-.002Zm1.45 2.032 1.105 1.55-1.57.878.466-2.428Zm1.536 2.774 1.166 2.063-2.243.55 1.077-2.613Zm1.219 3.505.787 2.282-2.43.455 1.643-2.736v-.001Zm-4.099-1.956.627 1.895-1.943.167 1.316-2.062Zm-1.074-2.771.935 1.571-1.747.375.812-1.946Zm-2.408-3.83 1.017.81-1.19.658.173-1.469Zm-3.672 6.097.012 1.098-.883-.13.87-.968Zm-.108 2.036-.131 1.349-1.185-.268 1.316-1.08Zm-1.867.005-.155.982-.949-.199 1.104-.783Zm-2.344 1.352-.377 1.046-.783-.45 1.16-.597v.002Zm.522 1.175 1.31-.654-.35 1.275-.96-.623v.002Zm-5.483 4.415 1.54.015-.895 1.223-.645-1.238Zm1.573 1.94 2.026-.118-.847 1.641-1.179-1.523ZM32.504 41.8l3.747-2.824-.822 3.837-2.925-1.011V41.8Zm-.407 8.036-1.366 3.13-2.638-1.51 4.004-1.62Zm-4.118-1.647-.998 2.973-2.46-1.954 3.458-1.019Zm-12.515-7.967 2.568.243-1.022 2.123-1.546-2.366Zm-2.042-3.005 2.366.498-1.09 1.862-1.276-2.36Zm-1.89 1.607 2.39 1.037-1.272 1.612-1.119-2.649Zm-6.189 3.031 2.432 2.69-1.024.774-1.407-3.464h-.001Zm-1.72.084 2.423 3.27-.829.481-1.594-3.751Zm8.284-7.788 2.023.847-1.295 1.421-.727-2.268h-.001Zm-2.222 1.067 2.162 1.37-1.408 1.127-.754-2.497ZM3.47 36.71l1.92 2.594-1.09.55-.83-3.144Zm-1.448-.22L3.5 39.597l-.972.23-.506-3.338Zm-1.376-.572 1.122 3.343-.661-.734-.46-2.61ZM0 30.396l.773 3.306-.65-.62L0 30.396Zm1.427.991 1.071 3.235-1.104-.22.033-3.015Zm9.328-.19 1.66 1.042-1.092.862-.568-1.904Z"/><path fill="#031B4E" d="M61.343 43.48h-2.449v-1.023h6.066v1.021h-2.449v7.062h-1.168v-7.06Zm7.593 1.972c-.576 0-1.09.196-1.542.587v4.5h-1.169v-8.64h1.169v3.29c.63-.49 1.283-.737 1.958-.737.72 0 1.247.214 1.582.639.352.449.527 1.174.527 2.172v3.274h-1.17v-3.274c0-.96-.262-1.533-.788-1.719a1.628 1.628 0 0 0-.567-.093v.001Zm6.963 5.18c-2.205 0-3.307-1.07-3.307-3.21 0-.922.305-1.66.916-2.214.55-.502 1.176-.755 1.882-.755.767 0 1.367.256 1.8.767.4.476.6 1.114.6 1.91v.454h-3.984c0 1.095.45 1.764 1.35 2.008.215.06.544.088.988.088.449 0 .886-.06 1.315-.18v.98c-.513.11-1.036.161-1.56.152Zm.724-3.902a1.45 1.45 0 0 0-.31-.94c-.242-.295-.574-.442-1-.442-.448 0-.811.141-1.091.424a1.324 1.324 0 0 0-.386.958h2.787Zm10.826 3.245c-.323.215-.683.37-1.062.46-.433.108-.963.163-1.59.163-.623 0-1.252-.038-1.887-.111V49.36a7.813 7.813 0 0 0 1.718.193c.576 0 1.008-.032 1.297-.093.244-.05.478-.136.696-.256.323-.193.484-.446.484-.755 0-.241-.063-.427-.187-.558a2.802 2.802 0 0 0-.858-.563l-1.496-.68c-.515-.24-.878-.462-1.092-.668-.46-.44-.691-.952-.691-1.531 0-.598.262-1.08.784-1.447.573-.403 1.386-.603 2.442-.603.681 0 1.305.026 1.87.08v1.109a7.3 7.3 0 0 0-1.608-.162c-.588 0-1.017.03-1.285.094-.22.04-.43.117-.625.225-.277.17-.414.394-.414.674 0 .27.086.495.261.673.157.152.442.326.853.523l1.538.726c.51.24.867.467 1.07.68.206.212.358.427.455.643.098.214.145.471.145.773 0 .297-.065.58-.198.847a1.89 1.89 0 0 1-.62.691Zm1.85-2.443c0-.941.303-1.704.906-2.29.565-.545 1.264-.817 2.098-.817.818 0 1.502.272 2.05.817.584.582.878 1.344.878 2.29 0 .94-.295 1.699-.883 2.274a2.797 2.797 0 0 1-2.05.826c-.823 0-1.52-.275-2.093-.825-.603-.576-.905-1.334-.905-2.275Zm1.215 0c0 .99.32 1.665.959 2.021.226.122.497.185.812.185.314 0 .584-.063.8-.186.219-.128.398-.295.539-.5.26-.395.39-.902.39-1.52 0-.984-.314-1.658-.94-2.022a1.524 1.524 0 0 0-.783-.192 1.589 1.589 0 0 0-1.344.686c-.288.402-.433.912-.433 1.528Zm9.095-4.762a1.931 1.931 0 0 0-.584-.07c-.25 0-.448.023-.597.07a.815.815 0 0 0-.344.203c-.148.159-.22.419-.22.779v.795h1.505v.889h-1.507v5.103h-1.167v-5.105h-.726v-.545l.724-.342v-.64c0-.405.036-.711.105-.917a2.02 2.02 0 0 1 .263-.511c.112-.144.251-.264.41-.354.362-.212.87-.32 1.526-.32.272 0 .475.016.613.047v.918h-.001Zm2.984 6.852c.128.046.323.07.583.07.262 0 .479-.032.655-.094v.929a1.893 1.893 0 0 1-.356.036l-.369.011h-.187c-.751 0-1.306-.245-1.665-.732-.287-.394-.432-.918-.432-1.567v-2.84h-.865v-.546l.865-.342.281-1.487h.887v1.487h1.87v.889h-1.87v2.833c0 .758.202 1.21.603 1.353Zm1.889-5.075h1.246l1.548 4.761 1.565-4.761h1.216l1.584 4.743 1.472-4.743h1.156l-2.027 5.992h-1.204l-1.624-4.541-1.537 4.542h-1.204l-2.191-5.992v-.001Zm10.942 4.923a3.116 3.116 0 0 1-.31-.777c-.075-.298-.111-.687-.111-1.167s.104-.922.31-1.323c.195-.39.475-.731.818-1 .649-.5 1.459-.75 2.423-.75.505 0 .883.012 1.142.036l.565.058v5.992h-1.051l-.047-.691c-.233.31-.591.54-1.069.69a1.823 1.823 0 0 1-.567.089c-.19 0-.38-.02-.567-.06a2.379 2.379 0 0 1-1.088-.545 2.473 2.473 0 0 1-.448-.55v-.002Zm3.669-4.07a6.052 6.052 0 0 0-.748-.046 2.6 2.6 0 0 0-.788.134 1.797 1.797 0 0 0-.718.406c-.415.386-.621.978-.621 1.771 0 .751.178 1.306.533 1.665.269.268.59.402.969.402a1.544 1.544 0 0 0 1.373-.767V45.4Zm6.752.208a2.803 2.803 0 0 0-.772-.092 2.31 2.31 0 0 0-1.232.308 1.625 1.625 0 0 0-.579.523v4.192h-1.167v-5.992h1.122l.045.83c.293-.364.718-.637 1.28-.818.202-.07.434-.104.696-.104.26 0 .463.017.607.056v1.099-.002Zm3.853 5.024c-2.205 0-3.306-1.07-3.306-3.21 0-.922.306-1.66.916-2.214.55-.502 1.177-.755 1.882-.755.767 0 1.367.256 1.799.767.402.476.603 1.114.603 1.91v.454h-3.985c0 1.095.449 1.764 1.349 2.008.214.06.543.088.987.088.449 0 .887-.06 1.317-.18v.98c-.513.11-1.037.161-1.562.152Zm.724-3.902a1.45 1.45 0 0 0-.308-.94c-.242-.295-.576-.442-1.001-.442-.447 0-.81.141-1.092.424a1.332 1.332 0 0 0-.386.959h2.789-.002Zm6.194-4.273h5.535v1.01h-4.365v2.379h3.37v.977h-3.37v3.717h-1.17v-8.083Zm7.144 7.013a3.075 3.075 0 0 1-.309-.777c-.075-.298-.113-.687-.113-1.167s.105-.922.31-1.323a2.98 2.98 0 0 1 .818-1c.651-.5 1.46-.75 2.425-.75.502 0 .882.012 1.14.036l.568.058v5.992h-1.053l-.046-.691c-.234.31-.591.54-1.07.69-.184.06-.372.089-.567.089-.191 0-.38-.02-.567-.06a2.37 2.37 0 0 1-1.087-.545 2.48 2.48 0 0 1-.449-.55v-.002Zm3.669-4.07a6.071 6.071 0 0 0-.748-.046c-.245 0-.508.044-.789.134a1.795 1.795 0 0 0-.718.406c-.413.386-.62.978-.62 1.771 0 .751.177 1.306.533 1.665.269.268.591.402.969.402.277.006.551-.061.793-.196a1.53 1.53 0 0 0 .58-.571V45.4Zm7.249 5.12c-.235.075-.639.112-1.216.112a4.545 4.545 0 0 1-1.472-.21 2.8 2.8 0 0 1-1.029-.615c-.588-.562-.883-1.339-.883-2.333 0-.965.353-1.725 1.058-2.278.631-.495 1.407-.743 2.326-.743.568 0 .959.02 1.168.06v1.033a3.672 3.672 0 0 0-1.122-.158c-.416 0-.763.06-1.039.174-.259.1-.49.258-.678.46-.33.367-.497.851-.497 1.452 0 1.013.368 1.688 1.104 2.026.262.119.516.18.766.18.321.007.642-.014.959-.064.256-.043.441-.088.555-.134v1.04-.001Zm3.69-.898c.127.046.323.07.583.07.262 0 .479-.032.656-.094v.929a1.906 1.906 0 0 1-.358.036l-.368.011h-.187c-.751 0-1.306-.245-1.665-.732-.288-.394-.432-.918-.432-1.567v-2.84h-.864v-.546l.864-.342.28-1.487h.888v1.487h1.87v.889h-1.87v2.833c0 .758.201 1.21.603 1.353Zm2.311-2.09c0-.941.301-1.704.905-2.29.565-.545 1.264-.817 2.097-.817.818 0 1.502.272 2.051.817.585.582.876 1.344.876 2.29 0 .94-.293 1.699-.881 2.274-.558.55-1.241.826-2.052.826a2.915 2.915 0 0 1-2.091-.825c-.604-.576-.905-1.334-.905-2.275Zm1.215 0c0 .99.32 1.665.959 2.021.225.122.496.185.812.185.315 0 .582-.063.8-.186.214-.125.398-.295.537-.5.262-.395.392-.902.392-1.52 0-.984-.314-1.658-.941-2.022a1.524 1.524 0 0 0-.782-.192 1.59 1.59 0 0 0-1.345.686c-.289.402-.432.912-.432 1.528Zm9.866-1.922a2.8 2.8 0 0 0-.772-.094 2.285 2.285 0 0 0-1.232.308 1.629 1.629 0 0 0-.579.523v4.192h-1.168v-5.992h1.121l.047.83c.293-.364.719-.637 1.28-.818.202-.07.434-.104.696-.104.26 0 .462.017.607.056v1.099Zm.785 6.415c.106.03.249.046.427.046.184 0 .371-.035.561-.11.183-.065.352-.166.496-.297.235-.208.447-.537.637-.986l-2.477-6.131h1.245l1.741 4.771 1.56-4.771h1.233l-2.477 6.73c-.187.503-.446.888-.777 1.156-.437.347-1.018.521-1.747.521-.067 0-.135-.004-.205-.012l-.217-.022v-.895Z"/></g><defs><clipPath id="clip0_953_17781"><path fill="#fff" d="M0 0h178v55H0z"/></clipPath></defs></svg>