<svg xmlns="http://www.w3.org/2000/svg" width="91" height="49" fill="none" viewBox="0 0 91 49"><path stroke="#2A4975" stroke-width="4.948" d="M0 36.435h5.428a.825.825 0 0 0 .781-.56L15.26 9.08c.248-.734 1.28-.752 1.553-.027L26.93 35.902a.825.825 0 0 0 .772.533h4.955"/><path fill="#2A4975" d="M45.401 10.852h3.935V32.53c0 1.377.393 1.967 1.652 1.967h.944v3.66h-2.124c-3.384 0-4.407-2.086-4.407-5.076v-22.23Zm11.691 5.35c-1.456 0-2.557-.707-2.557-2.478 0-1.731 1.101-2.518 2.557-2.518 1.26 0 2.518.787 2.518 2.518 0 1.77-1.259 2.479-2.518 2.479ZM55.164 38V20.059H59.1V38h-3.935Zm18.557-27.148v3.383h-2.086c-1.849 0-2.4 1.18-2.4 3.07v2.754h4.958v3.383h-4.958V38h-3.934V23.442H62.35v-2.99l2.95-.393v-2.794c0-4.013 1.89-6.413 6.1-6.413h2.32ZM85.668 27.79c2.007.413 3.866 2.184 3.866 4.898 0 3.335-2.685 5.637-6.816 5.637-4.604 0-6.64-2.361-6.64-5.4h3.128c0 1.623 1.298 2.714 3.512 2.714 2.183 0 3.57-1.24 3.57-3.128 0-2.095-1.564-3.423-4.16-3.423h-1.89v-2.597h1.89c2.33 0 3.836-1.062 3.836-3.098 0-1.77-1.21-2.95-3.246-2.95-2.125 0-3.217 1.15-3.217 2.684h-3.157c0-2.891 1.947-5.4 6.374-5.4 4.013 0 6.492 2.332 6.492 5.519 0 2.42-1.594 4.072-3.541 4.544Z"/></svg>