<svg xmlns="http://www.w3.org/2000/svg" width="200" height="85" fill="none" viewBox="0 0 200 85"><path fill="#000" d="M84.726 33.275c.688-.901 1.625-1.66 2.811-2.277 1.186-.617 2.527-.926 4.021-.926 1.708 0 3.262.427 4.662 1.281 1.424.83 2.539 2.005 3.345 3.523.807 1.519 1.21 3.263 1.21 5.232 0 1.969-.403 3.736-1.21 5.302-.806 1.542-1.921 2.752-3.345 3.63-1.4.854-2.954 1.28-4.662 1.28-1.494 0-2.823-.296-3.985-.889-1.163-.617-2.112-1.376-2.847-2.277v12.17h-4.057V30.393h4.057v2.882Zm11.921 6.833c0-1.353-.285-2.515-.854-3.488-.546-.996-1.281-1.744-2.206-2.242a5.726 5.726 0 0 0-2.918-.783c-1.02 0-1.993.261-2.918.783-.902.522-1.637 1.281-2.207 2.278-.545.996-.818 2.17-.818 3.523 0 1.352.273 2.538.818 3.558.57.997 1.305 1.756 2.207 2.278a5.854 5.854 0 0 0 2.918.783 5.726 5.726 0 0 0 2.918-.783c.925-.546 1.66-1.329 2.206-2.349.57-1.02.854-2.206.854-3.558ZM103.435 40.108c0-1.97.403-3.713 1.21-5.232.83-1.518 1.945-2.692 3.345-3.523 1.423-.854 2.989-1.28 4.697-1.28 1.542 0 2.883.308 4.021.924 1.163.594 2.088 1.34 2.776 2.242v-2.846h4.092V50h-4.092v-2.918c-.688.925-1.625 1.696-2.811 2.313-1.186.616-2.539.925-4.057.925-1.685 0-3.227-.427-4.626-1.281-1.4-.878-2.515-2.088-3.345-3.63-.807-1.566-1.21-3.333-1.21-5.302Zm16.049.07c0-1.351-.285-2.526-.854-3.522-.546-.997-1.269-1.756-2.171-2.278a5.724 5.724 0 0 0-2.918-.783 5.727 5.727 0 0 0-2.918.783c-.901.498-1.637 1.246-2.206 2.242-.546.973-.819 2.135-.819 3.488 0 1.352.273 2.538.819 3.558.569 1.02 1.305 1.803 2.206 2.349a5.853 5.853 0 0 0 2.918.783 5.724 5.724 0 0 0 2.918-.783c.902-.522 1.625-1.281 2.171-2.278.569-1.02.854-2.206.854-3.558ZM136.022 50.32c-1.542 0-2.93-.272-4.163-.818-1.21-.569-2.171-1.328-2.883-2.277a5.764 5.764 0 0 1-1.139-3.239h4.2c.071.83.462 1.53 1.174 2.1.735.546 1.649.819 2.74.819 1.139 0 2.017-.214 2.633-.641.641-.45.961-1.02.961-1.708 0-.736-.356-1.281-1.067-1.637-.688-.356-1.792-.747-3.31-1.174-1.471-.404-2.669-.795-3.594-1.175a6.454 6.454 0 0 1-2.42-1.743c-.664-.783-.996-1.815-.996-3.096 0-1.044.308-1.993.925-2.847.617-.878 1.494-1.566 2.633-2.064 1.163-.499 2.491-.748 3.986-.748 2.23 0 4.021.57 5.373 1.708 1.376 1.115 2.112 2.646 2.207 4.591h-4.057c-.071-.878-.427-1.578-1.068-2.1-.64-.522-1.506-.782-2.597-.782-1.068 0-1.887.201-2.456.605-.569.403-.854.937-.854 1.6 0 .523.19.962.569 1.318.38.355.843.64 1.388.854.546.19 1.353.438 2.42.747 1.424.38 2.586.771 3.488 1.174.925.38 1.72.95 2.384 1.708.664.76 1.008 1.768 1.032 3.025 0 1.115-.309 2.112-.925 2.99-.617.877-1.495 1.565-2.634 2.064-1.115.498-2.431.747-3.95.747ZM155.032 50.32c-1.542 0-2.93-.272-4.164-.818-1.21-.569-2.171-1.328-2.882-2.277a5.757 5.757 0 0 1-1.139-3.239h4.199c.071.83.463 1.53 1.174 2.1.736.546 1.649.819 2.74.819 1.139 0 2.017-.214 2.634-.641.64-.45.961-1.02.961-1.708 0-.736-.356-1.281-1.068-1.637-.688-.356-1.791-.747-3.309-1.174-1.471-.404-2.669-.795-3.595-1.175a6.454 6.454 0 0 1-2.42-1.743c-.664-.783-.996-1.815-.996-3.096 0-1.044.308-1.993.925-2.847.617-.878 1.495-1.566 2.634-2.064 1.162-.499 2.491-.748 3.985-.748 2.23 0 4.022.57 5.374 1.708 1.376 1.115 2.111 2.646 2.206 4.591h-4.057c-.071-.878-.427-1.578-1.067-2.1-.641-.522-1.507-.782-2.598-.782-1.068 0-1.886.201-2.455.605-.57.403-.855.937-.855 1.6 0 .523.19.962.57 1.318.379.355.842.64 1.388.854.545.19 1.352.438 2.42.747 1.423.38 2.586.771 3.487 1.174.925.38 1.72.95 2.384 1.708.665.76 1.009 1.768 1.032 3.025 0 1.115-.308 2.112-.925 2.99-.617.877-1.495 1.565-2.633 2.064-1.115.498-2.432.747-3.95.747Z"/><path fill="url(#paint0_linear_8333_21396)" fill-rule="evenodd" d="M41.71 48.885v18h7.001c2.8-1.2 10.5-7.834 14-11 8.4-8.801 9.5-17.078 6-24.077-8.4-12.8-19.5-9-24.5-5-10 10-5.667 18.91-2.5 22.077Zm5.5 3.499v8.5l5.5-3.5c5.2-3.6 8.834-8.833 10-11 4-12-2.5-17-8-17.5-8.8 0-11 7-11 10.5 2.8-2.8 6.834-2.833 8.5-2.5 6.5 2.423 6 8.333 5 11-2.5 4.923-7.166 5-10 4.5Zm3-4a3.5 3.5 0 1 0 0-7 3.5 3.5 0 0 0 0 7Z" clip-rule="evenodd"/><defs><linearGradient id="paint0_linear_8333_21396" x1="53.942" x2="53.942" y1="23.307" y2="66.884" gradientUnits="userSpaceOnUse"><stop stop-color="#72E2D5"/><stop offset=".345" stop-color="#91B4DF"/><stop offset=".625" stop-color="#AC8BE9"/><stop offset="1" stop-color="#BE70EF"/></linearGradient></defs></svg>