<svg xmlns="http://www.w3.org/2000/svg" width="200" height="85" fill="none" viewBox="0 0 200 85"><path fill="#191B35" d="M131.325 54.974h2.747a1.1 1.1 0 0 0 1.1-1.1V37.926c0-.339.155-.663.433-.858 3.458-2.434 5.988-1.14 7.041.047a.934.934 0 0 1 .219.626v16.135c0 .607.492 1.099 1.099 1.099h3.298c.607 0 1.099-.492 1.099-1.1V38.01c0-.386.202-.749.544-.929 3.851-2.03 6.193-.211 7.025 1.18a.936.936 0 0 1 .124.485v15.129a1.1 1.1 0 0 0 1.1 1.099h2.717c.619 0 1.116-.51 1.099-1.13l-.509-18.823a1.056 1.056 0 0 0-.261-.672c-3.976-4.445-9.322-2.966-12.157-1.311a1.317 1.317 0 0 1-1.476-.118c-3.587-2.86-8.298-1.574-10.784-.275-.273.143-.611-.05-.611-.358a.394.394 0 0 0-.394-.394h-3.453c-.607 0-1.099.492-1.099 1.099v20.883c0 .607.492 1.099 1.099 1.099ZM110.442 31.89h-2.718a1.1 1.1 0 0 0-1.099 1.13l.511 18.9c.005.199.064.396.178.559 2.961 4.237 9.126 3.02 12.404 1.665.29-.12.615.088.615.401 0 .236.192.427.427.427h3.42c.607 0 1.099-.492 1.099-1.1V32.99c0-.607-.492-1.1-1.099-1.1h-2.747a1.1 1.1 0 0 0-1.1 1.1v15.834c0 .402-.219.777-.582.95-4.229 2.027-6.987.25-8.032-1.138a.946.946 0 0 1-.178-.574V32.99c0-.607-.492-1.1-1.099-1.1ZM90.658 54.973h-2.747a1.1 1.1 0 0 1-1.1-1.1V23.1a1.1 1.1 0 0 1 1.1-1.099h2.747a1.1 1.1 0 0 1 1.1 1.1v30.774a1.1 1.1 0 0 1-1.1 1.099ZM100.549 54.973h-2.748a1.1 1.1 0 0 1-1.099-1.1V23.1a1.1 1.1 0 0 1 1.1-1.099h2.747c.607 0 1.099.492 1.099 1.1v30.774c0 .607-.492 1.099-1.099 1.099ZM43.946 61.569H39V31.893c1.759-.44 4.03-.183 4.946 0 .183 9.892.44 29.676 0 29.676Z"/><path fill="#191B35" d="M59.333 44.531c0-14.948-10.259-14.288-15.388-12.09v4.396c8.353-2.198 10.625 3.48 10.442 6.595-.44 8.353-7.328 7.877-10.442 6.594v4.397c11.87 3.077 15.388-5.313 15.388-9.892Z"/><path fill="#2E97BC" d="M71.423 31.561v3.019a1.1 1.1 0 0 1-.516.932l-3.364 2.102a1.1 1.1 0 0 0-.516.932v5.931c0 .376.192.726.509.928l4.946 3.147c.36.23.82.23 1.18 0l4.946-3.147c.317-.202.509-.552.509-.928v-5.975a1.1 1.1 0 0 0-.46-.894l-2.927-2.09a1.099 1.099 0 0 1-.46-.895v-3.008a1.1 1.1 0 0 1 1.656-.947l7.117 4.186c.35.206.558.589.54.995l-.495 11.389a1.1 1.1 0 0 1-.532.895l-9.932 5.959c-.341.205-.766.209-1.111.012l-10.428-5.96a1.099 1.099 0 0 1-.554-.953V35.836c0-.4.217-.767.566-.961L69.79 30.6a1.099 1.099 0 0 1 1.633.96Z"/></svg>