<svg xmlns="http://www.w3.org/2000/svg" width="209" height="50" fill="none" viewBox="0 0 209 50"><path fill="#051441" d="M74.324 25.588c0 1.848-.71 3.257-2.128 4.228-1.232.84-2.81 1.26-4.732 1.26H61.5v7.14c0 .523-.252.784-.756.784h-.532a.823.823 0 0 1-.56-.224.823.823 0 0 1-.224-.56V20.8c0-.205.075-.383.224-.532a.776.776 0 0 1 .56-.252h7.504c4.406 0 6.608 1.857 6.608 5.572Zm-2.1.028c0-2.352-1.447-3.528-4.34-3.528H61.5v6.916h6.412c1.195 0 2.175-.261 2.94-.784.915-.616 1.372-1.484 1.372-2.604Zm19.758 12.628a.727.727 0 0 1-.224.532.727.727 0 0 1-.532.224h-.504c-.485 0-.728-.252-.728-.756v-.392c-1.045.933-2.37 1.4-3.976 1.4-1.698 0-3.014-.439-3.948-1.316-.99-.896-1.484-2.184-1.484-3.864v-7.98c0-.205.075-.392.224-.56a.69.69 0 0 1 .532-.252h.532a.69.69 0 0 1 .532.252c.15.168.224.355.224.56v7.952c0 2.147 1.13 3.22 3.388 3.22 1.326 0 2.334-.448 3.024-1.344.635-.803.952-1.885.952-3.248v-6.58c0-.541.243-.812.728-.812h.504a.69.69 0 0 1 .532.252c.15.168.224.355.224.56v12.152Zm26.658 0a.69.69 0 0 1-.252.532.824.824 0 0 1-.56.224h-.532c-.523 0-.784-.252-.784-.756V30.18c0-2.11-.989-3.164-2.968-3.164-1.083 0-1.96.317-2.632.952-.672.616-1.008 1.465-1.008 2.548v7.728c0 .504-.271.756-.812.756h-.532c-.523 0-.784-.252-.784-.756V30.18c0-2.11-1.008-3.164-3.024-3.164-1.157 0-2.072.448-2.744 1.344-.579.784-.868 1.783-.868 2.996v6.888c0 .504-.261.756-.784.756h-.532c-.522 0-.784-.252-.784-.756v-12.18c0-.523.262-.784.784-.784h.532a.69.69 0 0 1 .532.252.69.69 0 0 1 .252.532v.28c.093-.056.224-.15.392-.28.933-.71 2.1-1.064 3.5-1.064 1.811 0 3.145.644 4.004 1.932.971-1.288 2.464-1.932 4.48-1.932 3.416 0 5.124 1.643 5.124 4.928v8.316Zm19.375 0c0 .504-.252.756-.756.756h-.532c-.504 0-.756-.252-.756-.756v-.812c-1.138 1.213-2.678 1.82-4.62 1.82-2.053 0-3.668-.69-4.844-2.072-1.101-1.288-1.652-2.968-1.652-5.04s.57-3.761 1.708-5.068c1.251-1.419 2.875-2.128 4.872-2.128 1.886 0 3.398.607 4.536 1.82v-.98c0-.205.075-.383.224-.532a.691.691 0 0 1 .532-.252h.532c.504 0 .756.261.756.784v12.46Zm-2.044-6.104c0-1.587-.373-2.819-1.12-3.696-.784-.97-1.95-1.456-3.5-1.456-1.418 0-2.529.513-3.332 1.54-.746.952-1.12 2.156-1.12 3.612 0 1.475.336 2.66 1.008 3.556a.588.588 0 0 1 .14.112c.784.97 1.886 1.456 3.304 1.456 1.419 0 2.539-.476 3.36-1.428.84-.97 1.26-2.203 1.26-3.696Zm24.054-6.552c0 1.848-.71 3.257-2.128 4.228-1.232.84-2.81 1.26-4.732 1.26h-5.964v7.14c0 .523-.252.784-.756.784h-.532a.822.822 0 0 1-.56-.224.82.82 0 0 1-.224-.56V20.8c0-.205.074-.383.224-.532a.775.775 0 0 1 .56-.252h7.504c4.405 0 6.608 1.857 6.608 5.572Zm-2.1.028c0-2.352-1.447-3.528-4.34-3.528h-6.384v6.916h6.412c1.194 0 2.174-.261 2.94-.784.914-.616 1.372-1.484 1.372-2.604Zm20.822 12.628c0 .504-.252.756-.756.756h-.532c-.504 0-.756-.252-.756-.756v-.812c-1.139 1.213-2.679 1.82-4.62 1.82-2.054 0-3.668-.69-4.844-2.072-1.102-1.288-1.652-2.968-1.652-5.04s.569-3.761 1.708-5.068c1.25-1.419 2.874-2.128 4.872-2.128 1.885 0 3.397.607 4.536 1.82v-.98c0-.205.074-.383.224-.532a.688.688 0 0 1 .532-.252h.532c.504 0 .756.261.756.784v12.46Zm-2.044-6.104c0-1.587-.374-2.819-1.12-3.696-.784-.97-1.951-1.456-3.5-1.456-1.419 0-2.53.513-3.332 1.54-.747.952-1.12 2.156-1.12 3.612 0 1.475.336 2.66 1.008 3.556a.608.608 0 0 1 .14.112c.784.97 1.885 1.456 3.304 1.456 1.418 0 2.538-.476 3.36-1.428.84-.97 1.26-2.203 1.26-3.696Zm20.637 5.628c0 3.883-2.091 5.824-6.272 5.824-1.549 0-2.8-.336-3.752-1.008v.028c-1.269-.821-1.932-2.053-1.988-3.696-.019-.56.233-.84.756-.84h.504c.411 0 .663.243.756.728.112 1.81 1.372 2.716 3.78 2.716 2.763 0 4.153-1.232 4.172-3.696-1.064.99-2.389 1.484-3.976 1.484-1.717 0-3.061-.467-4.032-1.4-.971-.933-1.456-2.259-1.456-3.976V25.7c0-.205.075-.383.224-.532a.777.777 0 0 1 .56-.252h.504a.69.69 0 0 1 .532.252c.149.15.224.327.224.532v8.204c0 1.064.299 1.885.896 2.464.616.579 1.465.868 2.548.868 1.363 0 2.38-.467 3.052-1.4.616-.84.924-1.96.924-3.36V25.7c0-.523.252-.784.756-.784h.532a.69.69 0 0 1 .532.252c.149.15.224.327.224.532v12.068Z"/><path fill="#7F3CFC" d="m23.018 49.34-.257-.125-7.184-3.54a1.046 1.046 0 0 1-.42-.372.97.97 0 0 1-.155-.525v-7.023l-5.963 3.546a.837.837 0 0 1-.63.096l-.016.009a.79.79 0 0 1-.76-.027l-5.727-3.372a1.112 1.112 0 0 1-.4-.397 1.04 1.04 0 0 1-.144-.53v-8.366c0-.09.025-.178.074-.256a.514.514 0 0 1 .202-.183.616.616 0 0 1 .139-.103l5.432-2.998-5.666-2.878a1.008 1.008 0 0 1-.398-.36.935.935 0 0 1-.145-.501v-7.867c0-.106.026-.212.075-.307a.713.713 0 0 1 .21-.246.703.703 0 0 1 .137-.268.75.75 0 0 1 .24-.192L8.207 9.19a1.15 1.15 0 0 1 1.07.015l5.725 3.144V5.534c0-.087.024-.173.07-.249a.512.512 0 0 1 .34-.236.705.705 0 0 1 .184-.134l7.448-3.795a1.118 1.118 0 0 1 1.062.029l20.289 11.823a.764.764 0 0 1 .317.349l.01.005c.1.054.182.132.24.226.057.093.088.2.088.308v23.093c0 .183-.051.362-.147.52-.096.158-.233.29-.399.383l-6.29 3.501a.83.83 0 0 1-.608.08.773.773 0 0 1-.693-.025l-5.713-3.159v6.248c0 .176-.049.35-.14.503a1.057 1.057 0 0 1-.383.373l-.019.01-7.386 3.806-.255.148Zm-7.003-28.12v23.558c0 .01.003.02.009.028a.057.057 0 0 0 .022.02l6.44 3.173-.135-14.325a.779.779 0 0 1 .112-.41.837.837 0 0 1 .315-.302.898.898 0 0 1 .866 0l13.366 7.394v-22.55L16.015 6.333V21.22Zm7.35 12.698.134 14.069 6.665-3.433a.065.065 0 0 0 .021-.023.062.062 0 0 0 .008-.03v-6.807l-6.828-3.776Zm-20.99-4.325v7.485c0 .023.006.046.018.066.012.02.029.036.05.048l5.37 3.163.357-6.941-5.795-3.821Zm35.646-11.79v22.55l5.97-3.323a.092.092 0 0 0 .034-.033.085.085 0 0 0 .013-.044V14.456l-6.017 3.348ZM9.143 34.127l-.318 6.172 6.178-3.674v-6.25l-5.795 3.073a.057.057 0 0 0-.02.02.053.053 0 0 0-.009.025l-.036.634Zm-1.457-2.193 1.028.677 6.29-3.334V21.98l-6.499 3.586-.242.14-.006-.003-5.449 3.008 4.878 3.22ZM2.012 14.015v7.422c0 .003 0 .007.003.01a.018.018 0 0 0 .007.006l6.206 3.15 6.295-3.644-12.511-6.944Zm.523-.82 12.468 6.921v-6.661l-6.232-3.42a.084.084 0 0 0-.08 0l-6.156 3.16Zm14.013-7.677 20.967 11.458 6.048-3.366L23.577 1.965a.057.057 0 0 0-.054 0l-6.975 3.553Zm13.986 24.479-8.297-4.565v-8.755l8.297 4.787v8.533Zm-6.728-4.808 5.716 3.143v-5.826l-5.716 2.683Zm-.557-6.808v6.001l5.733-2.693-5.733-3.308Z"/><mask id="mask0_3892_13304" width="48" height="52" x="-1" y="-1" maskUnits="userSpaceOnUse" style="mask-type:luminance"><path fill="#fff" stroke="#7F3CFC" d="M46 0H0v50h46V0Z"/><path stroke="#7F3CFC" d="m23.018 49.34-.257-.125-7.184-3.54a1.046 1.046 0 0 1-.42-.372.97.97 0 0 1-.155-.525v-7.023l-5.963 3.546a.837.837 0 0 1-.63.096l-.016.009a.79.79 0 0 1-.76-.027l-5.727-3.372a1.112 1.112 0 0 1-.4-.397 1.04 1.04 0 0 1-.144-.53v-8.366c0-.09.025-.178.074-.256a.514.514 0 0 1 .202-.183.616.616 0 0 1 .139-.103l5.432-2.998-5.666-2.878a1.008 1.008 0 0 1-.398-.36.935.935 0 0 1-.145-.501v-7.867c0-.106.026-.212.075-.307a.713.713 0 0 1 .21-.246.703.703 0 0 1 .137-.268.75.75 0 0 1 .24-.192L8.207 9.19a1.15 1.15 0 0 1 1.07.015l5.725 3.144V5.534c0-.087.024-.173.07-.249a.512.512 0 0 1 .34-.236.705.705 0 0 1 .184-.134l7.448-3.795a1.118 1.118 0 0 1 1.062.029l20.289 11.823a.764.764 0 0 1 .317.349l.01.005c.1.054.182.132.24.226.057.093.088.2.088.308v23.093c0 .183-.051.362-.147.52-.096.158-.233.29-.399.383l-6.29 3.501a.83.83 0 0 1-.608.08.773.773 0 0 1-.693-.025l-5.713-3.159v6.248c0 .176-.049.35-.14.503a1.057 1.057 0 0 1-.383.373l-.019.01-7.386 3.806-.255.148Zm-7.003-28.12v23.558c0 .01.003.02.009.028a.057.057 0 0 0 .022.02l6.44 3.173-.135-14.325a.779.779 0 0 1 .112-.41.837.837 0 0 1 .315-.302.898.898 0 0 1 .866 0l13.366 7.394v-22.55L16.015 6.333V21.22Zm7.35 12.698.134 14.069 6.665-3.433a.065.065 0 0 0 .021-.023.062.062 0 0 0 .008-.03v-6.807l-6.828-3.776Zm-20.99-4.325v7.485c0 .023.006.046.018.066.012.02.029.036.05.048l5.37 3.163.357-6.941-5.795-3.821Zm35.646-11.79v22.55l5.97-3.323a.092.092 0 0 0 .034-.033.085.085 0 0 0 .013-.044V14.456l-6.017 3.348ZM9.143 34.127l-.318 6.172 6.178-3.674v-6.25l-5.795 3.073a.057.057 0 0 0-.02.02.053.053 0 0 0-.009.025l-.036.634Zm-1.457-2.193 1.028.677 6.29-3.334V21.98l-6.499 3.586-.242.14-.006-.003-5.449 3.008 4.878 3.22ZM2.012 14.015v7.422c0 .003 0 .007.003.01a.018.018 0 0 0 .007.006l6.206 3.15 6.295-3.644-12.511-6.944Zm.523-.82 12.468 6.921v-6.661l-6.232-3.42a.084.084 0 0 0-.08 0l-6.156 3.16Zm14.013-7.677 20.967 11.458 6.048-3.366L23.577 1.965a.057.057 0 0 0-.054 0l-6.975 3.553Zm13.986 24.479-8.297-4.565v-8.755l8.297 4.787v8.533Zm-6.728-4.808 5.716 3.143v-5.826l-5.716 2.683Zm-.557-6.808v6.001l5.733-2.693-5.733-3.308Z"/></mask><g mask="url(#mask0_3892_13304)"><path stroke="#7F3CFC" d="m23.018 49.34-.257-.125-7.184-3.54a1.046 1.046 0 0 1-.42-.372.97.97 0 0 1-.155-.525v-7.023l-5.963 3.546a.837.837 0 0 1-.63.096l-.016.009a.79.79 0 0 1-.76-.027l-5.727-3.372a1.112 1.112 0 0 1-.4-.397 1.04 1.04 0 0 1-.144-.53v-8.366c0-.09.025-.178.074-.256a.514.514 0 0 1 .202-.183.616.616 0 0 1 .139-.103l5.432-2.998-5.666-2.878a1.008 1.008 0 0 1-.398-.36.935.935 0 0 1-.145-.501v-7.867c0-.106.026-.212.075-.307a.713.713 0 0 1 .21-.246.703.703 0 0 1 .137-.268.75.75 0 0 1 .24-.192L8.207 9.19a1.15 1.15 0 0 1 1.07.015l5.725 3.144V5.534c0-.087.024-.173.07-.249a.512.512 0 0 1 .34-.236.705.705 0 0 1 .184-.134l7.448-3.795a1.118 1.118 0 0 1 1.062.029l20.289 11.823a.764.764 0 0 1 .317.349l.01.005c.1.054.182.132.24.226.057.093.088.2.088.308v23.093c0 .183-.051.362-.147.52-.096.158-.233.29-.399.383l-6.29 3.501a.83.83 0 0 1-.608.08.773.773 0 0 1-.693-.025l-5.713-3.159v6.248c0 .176-.049.35-.14.503a1.057 1.057 0 0 1-.383.373l-.019.01-7.386 3.806-.255.148Zm-7.003-28.12v23.558c0 .01.003.02.009.028a.057.057 0 0 0 .022.02l6.44 3.173-.135-14.325a.779.779 0 0 1 .112-.41.837.837 0 0 1 .315-.302.898.898 0 0 1 .866 0l13.366 7.394v-22.55L16.015 6.333V21.22Zm7.35 12.698.134 14.069 6.665-3.433a.065.065 0 0 0 .021-.023.062.062 0 0 0 .008-.03v-6.807l-6.828-3.776Zm-20.99-4.325v7.485c0 .023.006.046.018.066.012.02.029.036.05.048l5.37 3.163.357-6.941-5.795-3.821Zm35.646-11.79v22.55l5.97-3.323a.092.092 0 0 0 .034-.033.085.085 0 0 0 .013-.044V14.456l-6.017 3.348ZM9.143 34.127l-.318 6.172 6.178-3.674v-6.25l-5.795 3.073a.057.057 0 0 0-.02.02.053.053 0 0 0-.009.025l-.036.634Zm-1.457-2.193 1.028.677 6.29-3.334V21.98l-6.499 3.586-.242.14-.006-.003-5.449 3.008 4.878 3.22ZM2.012 14.015v7.422c0 .003 0 .007.003.01a.018.018 0 0 0 .007.006l6.206 3.15 6.295-3.644-12.511-6.944Zm.523-.82 12.468 6.921v-6.661l-6.232-3.42a.084.084 0 0 0-.08 0l-6.156 3.16Zm14.013-7.677 20.967 11.458 6.048-3.366L23.577 1.965a.057.057 0 0 0-.054 0l-6.975 3.553Zm13.986 24.479-8.297-4.565v-8.755l8.297 4.787v8.533Zm-6.728-4.808 5.716 3.143v-5.826l-5.716 2.683Zm-.557-6.808v6.001l5.733-2.693-5.733-3.308Z"/></g></svg>