<svg xmlns="http://www.w3.org/2000/svg" width="346" height="120" fill="none" viewBox="0 0 346 120"><rect width="344.5" height="118.5" x=".75" y=".75" stroke="#336D9C" stroke-width="1.5" rx="9.25"/><path fill="url(#paint0_linear_1792_4615)" d="M116.002 18.016c-2.835 0-5.578.266-7.967.716-7.079 1.246-8.321 3.836-8.321 8.74v6.42h16.643v2.14h-22.84c-4.782 0-9.026 2.943-10.355 8.47-1.506 6.42-1.592 10.343 0 17.03C84.313 66.526 87.148 70 92.016 70h5.756v-7.667c0-5.527 4.782-10.43 10.355-10.43h16.551c4.605 0 8.322-3.837 8.322-8.561V27.379c0-4.546-3.808-7.938-8.322-8.74-2.926-.444-5.847-.71-8.676-.623ZM106.97 23.1c1.684 0 3.099 1.425 3.099 3.207 0 1.783-1.415 3.208-3.099 3.208-1.683 0-3.098-1.425-3.098-3.208 0-1.782 1.329-3.207 3.098-3.207Z"/><path fill="url(#paint1_linear_1792_4615)" d="M135.858 36v7.486c0 5.864-4.942 10.73-10.606 10.73h-16.804c-4.581 0-8.448 3.968-8.448 8.66V79.02c0 4.598 3.954 7.305 8.448 8.659 5.303 1.622 10.426 1.896 16.897 0 4.222-1.26 8.449-3.7 8.449-8.66v-6.493h-16.903V70.36h25.346c4.855 0 6.739-3.425 8.448-8.566 1.797-5.32 1.709-10.368 0-17.224-1.169-4.872-3.506-8.566-8.448-8.566L135.858 36Zm-9.53 40.855c1.71 0 3.146 1.441 3.146 3.245 0 1.803-1.436 3.244-3.146 3.244-1.709 0-3.145-1.441-3.145-3.244 0-1.803 1.441-3.245 3.145-3.245Z"/><path fill="url(#paint2_radial_1792_4615)" d="M139 97.5c0 2.479-10.086 4.5-22.5 4.5S94 99.979 94 97.5s10.086-4.5 22.5-4.5 22.5 2.016 22.5 4.5Z" opacity=".444"/><path fill="#656565" d="M173.413 60.798c0-4.974-1.437-7.455-4.318-7.547-1.17-.086-2.246.178-3.329.534-.902.265-1.437.62-1.711.89v11.718c1.799 1.154 3.417 1.688 4.86 1.597 2.968-.27 4.498-2.665 4.498-7.192Zm3.509.178c0 2.487-.541 4.527-1.798 6.215-1.35 1.867-3.148 2.843-5.575 2.843-1.799.086-3.597-.534-5.488-1.689V79L161 77.932V54.228a8.145 8.145 0 0 1 1.891-1.597c1.799-1.063 4.05-1.597 6.565-1.597 2.339 0 4.225.977 5.488 2.843 1.344 2.04 1.978 4.256 1.978 7.1Zm18.617 7.014c0 3.371-.36 5.68-.989 6.926-.722 1.241-1.979 2.31-3.87 3.108-1.618.62-3.236.976-5.04.976l-.541-1.867c1.892-.264 3.149-.534 3.87-.712 1.438-.534 2.52-1.24 3.056-2.309.448-.798.628-2.395.628-4.704v-.798c-2.066.976-4.318 1.419-6.564 1.419-1.531 0-2.881-.443-3.958-1.42-1.257-.976-1.891-2.308-1.891-3.905V52.19l3.056-1.063v12.607c0 1.333.448 2.395 1.35 3.107.902.712 1.978 1.063 3.416 1.063 1.437 0 2.88-.534 4.498-1.597V51.563h3.056l-.077 16.427Zm11.872 1.952h-.989c-1.711 0-3.055-.442-4.05-1.24-.99-.799-1.438-1.953-1.438-3.372V53.435h-2.066v-1.872h2.066v-5.06l3.056-1.063v6.123h3.416v1.866h-3.416v11.718c0 1.154.267 1.952.902 2.395.541.356 1.35.62 2.519.712v1.688Zm18.53-.27h-3.056v-11.63c0-1.155-.267-2.218-.809-3.016-.628-.976-1.53-1.419-2.7-1.419-1.437 0-3.148.712-5.214 2.218v13.94h-3.056V41.975l3.056-.976v12.607c1.978-1.419 4.05-2.13 6.384-2.13 1.618 0 2.881.534 3.957 1.596.99 1.063 1.531 2.395 1.531 3.998l-.093 12.602Zm16.19-9.408c0-1.866-.361-3.463-1.077-4.704-.902-1.51-2.159-2.309-4.05-2.395-3.329.178-5.04 2.573-5.04 7.1 0 2.13.361 3.819 1.077 5.237.902 1.775 2.247 2.666 4.05 2.666 3.329-.092 5.04-2.665 5.04-7.904Zm3.329 0c0 2.665-.722 4.974-2.066 6.75-1.531 1.952-3.69 3.015-6.297 3.015-2.7 0-4.766-.977-6.297-3.016-1.35-1.775-2.066-3.997-2.066-6.749 0-2.573.721-4.704 2.246-6.392 1.618-1.867 3.597-2.752 6.117-2.752s4.586.89 6.204 2.752c1.437 1.775 2.159 3.905 2.159 6.392ZM263 69.673h-3.055V57.42c0-1.332-.449-2.395-1.258-3.107-.809-.712-1.891-1.154-3.328-1.063-1.438 0-2.881.534-4.138 1.42v15.18h-3.056V54.314c1.711-1.24 3.329-2.13 4.86-2.487 1.437-.356 2.607-.534 3.689-.534.722 0 1.438.086 2.066.178 1.17.264 2.159.799 2.881 1.51a4.201 4.201 0 0 1 1.257 3.016L263 69.673Z"/><defs><linearGradient id="paint0_linear_1792_4615" x1="80.165" x2="118.748" y1="19.915" y2="52.552" gradientUnits="userSpaceOnUse"><stop stop-color="#5CA0D5"/><stop offset="1" stop-color="#316A99"/></linearGradient><linearGradient id="paint1_linear_1792_4615" x1="133.766" x2="119.733" y1="73.901" y2="54.307" gradientUnits="userSpaceOnUse"><stop stop-color="#FFD43E"/><stop offset="1" stop-color="#FFE975"/></linearGradient><radialGradient id="paint2_radial_1792_4615" cx="0" cy="0" r="1" gradientTransform="matrix(0 -4.48295 19.1529 0 116.484 96.744)" gradientUnits="userSpaceOnUse"><stop stop-color="#B8B8B8" stop-opacity=".498"/><stop offset="1" stop-color="#7F8080" stop-opacity="0"/></radialGradient></defs></svg>