<svg xmlns="http://www.w3.org/2000/svg" width="224" height="67" fill="none" viewBox="0 0 224 67"><path fill="#542E83" d="M2.477 53.503V20.776h13.52c2.45 0 4.564.442 6.343 1.326 1.79.874 3.17 2.13 4.139 3.771.97 1.63 1.454 3.564 1.454 5.801 0 2.27-.495 4.198-1.486 5.785-.99 1.577-2.397 2.78-4.219 3.611-1.821.82-3.979 1.23-6.472 1.23H7.207V36.07h7.08c1.192 0 2.188-.155 2.987-.464.81-.32 1.423-.799 1.838-1.438.416-.65.623-1.48.623-2.493 0-1.012-.207-1.848-.623-2.509-.415-.67-1.028-1.172-1.837-1.502-.81-.34-1.806-.511-2.989-.511h-3.899v26.351h-7.91Zm18.425-14.957 8.15 14.957h-8.63l-7.99-14.957h8.47Zm11.37 14.957V20.776h22.82V27.2h-14.91v6.711h13.743v6.44H40.182v6.728h14.91v6.424h-22.82Zm57.48-20.87h-7.99a6.927 6.927 0 0 0-.655-2.221 5.403 5.403 0 0 0-1.31-1.694 5.595 5.595 0 0 0-1.934-1.07c-.735-.256-1.55-.384-2.445-.384-1.587 0-2.956.389-4.107 1.166-1.14.778-2.019 1.902-2.637 3.372-.607 1.47-.91 3.25-.91 5.337 0 2.174.309 3.995.927 5.466.628 1.46 1.507 2.562 2.636 3.307 1.14.736 2.488 1.103 4.043 1.103.874 0 1.667-.112 2.381-.336a5.839 5.839 0 0 0 1.902-.974 5.388 5.388 0 0 0 1.358-1.582 6.458 6.458 0 0 0 .751-2.126l7.99.048c-.138 1.45-.559 2.877-1.262 4.283-.693 1.406-1.646 2.69-2.86 3.851-1.215 1.15-2.696 2.067-4.443 2.749-1.736.681-3.729 1.022-5.977 1.022-2.961 0-5.614-.65-7.958-1.95-2.333-1.31-4.176-3.217-5.529-5.72-1.353-2.504-2.03-5.55-2.03-9.14 0-3.602.688-6.654 2.062-9.157 1.374-2.504 3.233-4.405 5.577-5.705 2.344-1.3 4.97-1.95 7.878-1.95 1.982 0 3.814.277 5.498.831 1.683.544 3.164 1.343 4.442 2.397 1.278 1.044 2.317 2.328 3.116 3.851.8 1.524 1.294 3.266 1.486 5.226Zm4.527 20.87V20.776h13.519c2.45 0 4.565.442 6.344 1.326 1.79.874 3.169 2.13 4.139 3.771.969 1.63 1.454 3.564 1.454 5.801 0 2.27-.495 4.198-1.486 5.785-.991 1.577-2.397 2.78-4.219 3.611-1.822.82-3.979 1.23-6.472 1.23h-8.55V36.07h7.08c1.193 0 2.189-.155 2.988-.464.81-.32 1.422-.799 1.838-1.438.415-.65.623-1.48.623-2.493 0-1.012-.208-1.848-.623-2.509-.416-.67-1.028-1.172-1.838-1.502-.809-.34-1.805-.511-2.988-.511h-3.899v26.351h-7.91Zm18.425-14.957 8.15 14.957h-8.63l-7.99-14.957h8.47Zm69.841-17.77h7.894v21.11c0 2.44-.581 4.564-1.742 6.375-1.161 1.8-2.78 3.197-4.858 4.187-2.077.98-4.49 1.47-7.239 1.47-2.78 0-5.209-.49-7.287-1.47-2.077-.99-3.691-2.386-4.842-4.187-1.15-1.81-1.726-3.936-1.726-6.376v-21.11h7.911v20.423c0 1.13.245 2.136.735 3.02a5.37 5.37 0 0 0 2.093 2.078c.895.5 1.934.751 3.116.751 1.183 0 2.216-.25 3.1-.751a5.379 5.379 0 0 0 2.094-2.078c.5-.884.751-1.89.751-3.02V20.776Zm11.781 6.424v-6.424h27.662V27.2h-9.924v26.303h-7.798V27.2h-9.94Z"/><path stroke="#542E83" stroke-width="9" d="M153.5 37.09c0 7.306-5.719 13.003-12.5 13.003s-12.5-5.697-12.5-13.003c0-7.305 5.719-13.002 12.5-13.002s12.5 5.697 12.5 13.002Z"/><path stroke="#fff" stroke-width="6" d="M0-3h11.54" transform="matrix(-.5616 .8274 -.81173 -.58404 149.168 20.827)"/><path fill="#009DE5" fill-rule="evenodd" d="M148.509 8.228c.372-.68.599-1.456.637-2.288.128-2.84-2.004-5.25-4.762-5.382-2.758-.132-5.099 2.063-5.227 4.903-.129 2.84 2.003 5.25 4.762 5.381a4.867 4.867 0 0 0 2.889-.78l4.253 4.505a5.283 5.283 0 0 0-.382 1.753 5.229 5.229 0 0 0 1.028 3.374l-9.444 13.012a4.87 4.87 0 0 0-1.162-.198c-2.758-.132-5.098 2.063-5.227 4.903-.128 2.84 2.004 5.25 4.762 5.382 2.759.132 5.099-2.063 5.227-4.903a5.216 5.216 0 0 0-1.451-3.871l9.25-12.745a4.874 4.874 0 0 0 1.779.428c2.758.132 5.099-2.063 5.227-4.903.128-2.84-2.004-5.25-4.762-5.382a4.89 4.89 0 0 0-3.34 1.11l-4.057-4.3Z" clip-rule="evenodd"/></svg>