<svg xmlns="http://www.w3.org/2000/svg" width="177" height="63" fill="none" viewBox="0 0 177 63"><g clip-path="url(#clip0_8022_27451)"><path fill="#6B00FA" stroke="#362745" stroke-miterlimit="10" stroke-width=".159" d="M5.176 45.007c.23-3.426.165-6.95.576-10.457.23-1.91.641-3.802.806-5.71.214-2.61-.05-5.221-.115-7.848-.017-.766-.099-1.533.098-2.3.1-.391.247-.8.658-.88.708-.164.51-.556.362-.98-.164-.473-.312-.946-.493-1.403-.987-2.398-.148-4.552 1.053-6.574 1.02-1.73 2.352-3.28 3.75-4.732 1.563-1.631 3.505-2.447 5.791-2.48.428 0 .856-.016 1.3-.048.214-.017.428-.017.658-.033.197-.016.411 0 .609-.033l.197-.049c.115 0 .23.033.33.033.246.033.476.065.723.114.477.082.954.163 1.431.261.954.18 1.892.408 2.83.653.51.13 1.02.277 1.497.522.872.473 1.497 1.272 2.336 1.795.576.358 1.217.57 1.744.995.592.473.97 1.142 1.332 1.81.395.718.79 1.436 1.053 2.22.066.195.132.407.181.603.197.832.296 1.68.395 2.529.099.832.214 1.68.493 2.48.066.195.148.391.23.587.034.081.083.163.1.244 0 .115-.017.229-.017.343-.016 2.463-.23 4.91-.28 7.374-.082 3.98-.361 7.962-.806 11.926-.082.701.017 1.387.181 2.056.477 1.99.625 3.98.33 6.036-.248 1.73-.248 3.507-.363 5.27-.049.782-.477 1.109-1.25 1.125-.905.016-1.727-.359-2.632-.375-1.267-.033-2.484.26-3.718.391-2.073.196-4.08-.18-6.12-.424-.362-.032-.707-.196-1.07-.18-.378 0-.74.017-1.118 0-.18-.016-.362-.016-.543-.065-.115-.032-.197-.081-.312-.097-.494-.05-.987-.05-1.48-.082-.494-.016-.988-.049-1.482-.065-.986-.05-1.99-.082-2.977-.114l-2.978-.098c-.247 0-.493-.017-.74-.017-.23 0-.494-.049-.724-.016-.066.016-.132.049-.18.065-.231.066-.51.033-.741-.016-.724-.196-.905-.963-.921-1.615-.017-.44.032-.881.049-1.322-.033-.44-.033-.88-.033-1.419Z"/><path fill="#4300BF" stroke="#362745" stroke-miterlimit="10" stroke-width=".159" d="M35.527 58.694c-.132.849-.017 1.811-.264 2.725-.098.359-.18.702-.575.848-.379.13-.642-.032-.823-.359-.131-.228-.362-.212-.592-.228-1.86-.114-3.718-.228-5.56-.326l-19.034-.98c-1.777-.08-3.554-.13-5.33-.228-.478-.032-1.432 0-1.547-.636-.033-.196-.148-.359-.197-.554-.115-.408-.132-.849-.132-1.273-.033-.979-.05-1.974-.082-2.953 0-.163 0-.326-.017-.49a.449.449 0 0 0-.082-.26c-.115-.245-.016-.522.148-.718.214-.261.51-.375.823-.245 1.02.375 2.089.294 3.125.359 4.87.277 9.756.49 14.642.718 4.442.212 8.867.44 13.309.669 1.53.081 2.122.701 2.122 2.235 0 .538.033 1.077.066 1.697Z"/><path fill="#6B00FA" stroke="#362745" stroke-miterlimit="10" stroke-width=".159" d="M21.368 49.963c-1.497-.049-3.01-.114-4.491-.326-.954-.147-1.875-.359-2.83-.49-1.02-.13-2.072-.146-3.092-.163-1.563-.032-3.159-.049-4.672.327-1.514.375-2.994 1.207-3.8 2.545 1.43 1.044 3.306 1.174 5.083 1.272 1.086.065 2.171.114 3.257.18 8.012.44 16.023.88 24.035.897-.247-.75-.493-1.517-.757-2.268-.23-.669-.559-1.452-1.349-1.615-.263-.049-.526 0-.79.016-.46 0-.937-.032-1.398-.049-1.957-.065-3.931-.146-5.89-.212-1.101-.032-2.203-.081-3.306-.114Z"/><path fill="#4300BF" stroke="#362745" stroke-miterlimit="10" stroke-width=".159" d="M39.576 48.593c.246-.13.526-.26.674-.489.148-.228.165-.506.181-.767l.198-3.214c.082-1.207.148-2.414.131-3.621-.016-1.142-.131-2.284-.066-3.41.066-1.044.28-2.072.395-3.116.411-3.687-.46-7.407-.296-11.11.066-1.37.28-2.74.362-4.128a23.94 23.94 0 0 0-1.892-10.98c-.131-.293-.263-.586-.51-.782-.329-.261-.773-.294-1.135-.506-.51-.31-.707-.93-.987-1.468-.691-1.338-2.007-2.252-3.438-2.757-1.432-.506-2.945-.653-4.442-.8-1.053-.098-2.106-.196-3.159-.31-.51-.049-1.25.114-1.168.62 1.514 1.126 3.258 1.942 4.853 2.953 1.596 1.012 3.11 2.3 3.866 4.03.33.734.494 1.533.658 2.333.494 2.284.971 4.568 1.086 6.9.082 1.697-.033 3.41-.148 5.123-.148 2.235-.247 4.487-.345 6.722a228.829 228.829 0 0 0-.198 6.721c-.05 2.252-.066 4.487-.05 6.722 0 1.125.017 2.251.034 3.36 0 .555.016 1.126.033 1.68.016.523-.033 1.094.032 1.632.116.8 1.02.686 1.58.44 1.02-.44 2.007-.962 3.027-1.451.18-.065.543-.327.724-.327Z"/><path fill="#100342" stroke="#362745" stroke-miterlimit="10" stroke-width=".159" d="M35.281 54.011c.066.114.148.245.28.245.082 0 .164-.05.23-.082.757-.506 1.382-1.19 2.204-1.566.56-.261 1.169-.359 1.744-.555.823-.277 1.563-.75 2.303-1.207.264-.163.56-.408.51-.718a.624.624 0 0 0-.148-.294 6.333 6.333 0 0 0-1.464-1.419.805.805 0 0 0-.362-.163c-.164-.016-.329.065-.477.13-1.2.588-2.385 1.175-3.57 1.779-.592.294-1.184.603-1.776.897-.494.245-.905.424-.576 1.012.378.652.773 1.288 1.102 1.941ZM35.808 61.03c.016.114.033.245.099.326.18.196.493.082.723-.049l5.972-3.328c.198-.114.411-.228.543-.424.132-.212.148-.473.165-.718.065-1.321.115-2.643.18-3.98.017-.376.017-.784-.197-1.077-.23-.327-.674-.425-1.07-.376-.394.05-.756.245-1.102.441-1.595.881-3.19 1.746-4.787 2.61-.526.294-1.168.49-1.118 1.175.049.8.18 1.599.263 2.382.05.506.115.995.164 1.5.05.506.165 1.029.165 1.518Z"/><path fill="#4300BF" d="M26.79 9.834c.313.261.28.8-.049 1.044-.33.245-.855.082-1.003-.293-.149-.376.131-.849.526-.914a.703.703 0 0 1 .526.163ZM29.463 12.133c-.017.082-.033.147-.033.229a.375.375 0 0 0 .246.31c.346.18.856-.082.905-.473.033-.392-.395-.767-.773-.653-.033-.016-.082.017-.099.05-.148.179-.18.342-.246.537ZM27.827 14.436h-.724c-.065 0-.131 0-.18.049-.033.032-.033.081-.05.13a6.8 6.8 0 0 0-.066.571c-.016.229-.016.522.181.637.132.065.28.048.412.081.115.033.213.098.329.082.23 0 .378-.245.427-.473.05-.245.066-.49-.049-.718-.115-.229-.345-.392-.592-.36"/><path fill="#6B00FA" d="M38.934 21.53c-.164-.163-.362-.146-.576-.081a.441.441 0 0 0-.296.457c0 .163.115.326.23.44.181.18.51.017.642-.146.165-.164.165-.474 0-.67ZM37.784 24.27a.737.737 0 0 0-.164-.342c-.1-.098-.296-.05-.412 0a1.081 1.081 0 0 0-.28.195c-.032.033-.065.05-.082.098a.692.692 0 0 0-.082.261c0 .05-.05.278 0 .31a.74.74 0 0 0 .691.066c.197-.115.362-.36.33-.588Z"/><path fill="#4300BF" d="M9.435 44.889c-.313 0-.609.146-.757.407-.148.262-.099.637.132.833.246.212 1.052.195 1.283-.017.23-.212-.082-.587-.214-.897a7.514 7.514 0 0 0-.625-.326M8.005 39.489a4.452 4.452 0 0 0-.23.799.192.192 0 0 0 .016.163c.05.082.148.098.247.114.246.017.526.017.674-.163a.444.444 0 0 0 .099-.196c.082-.26.033-.57-.198-.718-.23-.146-.592-.065-.641.196M11.673 42.17c-.033-.082-.098-.212-.18-.245-.05-.016-.132 0-.198 0h-.18c-.05 0-.1 0-.133.017-.065.032-.131.13-.18.179a.128.128 0 0 0-.066.065.593.593 0 0 0-.066.294c0 .033 0 .294.033.294.164.032.74.081.905.114.098.016-.181.049-.1-.017.034-.032.067-.065.1-.114.082-.195.131-.408.065-.587Z"/><path fill="#6B00FA" d="M27.799 59.686c.313.229.823.163 1.036-.163.165-.245.132-.555.083-.848-.017-.082-.033-.163-.083-.212-.049-.05-.131-.066-.213-.066-.23-.032-.428-.016-.659-.016h-.098a.742.742 0 0 0-.23.163.605.605 0 0 0-.182.588c.05.212.165.424.346.554ZM25.708 56.508a.49.49 0 0 0-.264.604.872.872 0 0 0 .478.228c.18.016.378-.098.41-.277.034-.147-.049-.278-.13-.408-.083-.13-.182-.261-.33-.31-.148-.033-.345.098-.28.245M37.24 45.183c-.263-.081-.559.033-.74.229a1.28 1.28 0 0 0-.28.75.578.578 0 0 0 .083.408c.115.147.329.163.51.114.362-.065.69-.326.79-.669.098-.342-.132-.783-.494-.832.263-.032-.05-.18.132 0ZM38.409 41.057c-.346.065-.675.31-.708.652-.033.343.362.67.675.506.312-.294.28-.865-.05-1.142"/><path fill="#100342" d="M27.6 7.84c-.197.05-.28.31-.197.49.082.18.296.278.51.278.098 0 .214-.033.263-.115a.472.472 0 0 0 .033-.146c0-.18 0-.376-.05-.555a2.019 2.019 0 0 0-.542.016M25.79 10.728c-.149.016-.313.033-.445.098-.131.065-.247.212-.23.359.016.196.23.326.411.408.148.065.346.13.477.016.132-.114.082-.31.181-.457.033-.049.082-.098.099-.163.016-.114-.115-.196-.23-.212-.116-.016-.247-.033-.297-.13M23.34 7.207c-.149.082-.314.196-.396.343-.164.277-.033.717.28.783.313.065.592-.212.757-.49.016-.032.033-.065.033-.098 0-.032-.033-.065-.066-.081-.181-.13-.362-.261-.543-.375-.05-.033-.132-.066-.165 0M10.654 10.076a1.434 1.434 0 0 0-.1.653.544.544 0 0 0 .478 0c.148-.082.263-.196.362-.343.016-.032.05-.065.05-.114a.261.261 0 0 0-.083-.18.593.593 0 0 0-.378-.212c-.148-.016-.313.098-.33.229M9.913 12.736c-.132.066-.148.278-.066.392a.482.482 0 0 0 .411.147c.1-.017.214-.05.247-.13.066-.131-.033-.278-.131-.376-.1-.114-.247-.245-.412-.196M16.579 4.351a.86.86 0 0 0-.017.539c.083.13.28.163.412.081a.425.425 0 0 0 .18-.408c-.032-.18-.23-.359-.394-.277M31.021 20.305c-.115.196-.066.49.132.62.197.13.493.065.608-.13.066-.098.066-.245.033-.36a.471.471 0 0 0-.427-.277.686.686 0 0 0-.494.18c.066.016.115.049.181.065M29.954 44.272c-.017.244-.132.473-.132.717 0 .245.165.523.412.523.213 0 .361-.196.46-.376.082-.114.148-.244.214-.359.05-.065.082-.146.05-.228a.197.197 0 0 0-.083-.081 1.66 1.66 0 0 0-.97-.245"/><path stroke="#362745" stroke-miterlimit="10" stroke-width=".159" d="M29.954 44.272c-.017.244-.132.473-.132.717 0 .245.165.523.412.523.213 0 .361-.196.46-.376.082-.114.148-.244.214-.359.05-.065.082-.146.05-.228a.197.197 0 0 0-.083-.081 1.66 1.66 0 0 0-.97-.245"/><path fill="#100641" d="M28.506 41.448c.082.18.214.36.395.408.312.098.674-.277.543-.571-.132-.294-.659-.31-.79 0M21.794 45.82c-.115.294.132.653.445.702.312.049.625-.212.707-.522a.192.192 0 0 0-.016-.163c-.033-.05-.083-.066-.148-.082-.264-.065-.543-.13-.807-.212-.033.081-.066.18-.082.261"/><path fill="#100342" d="M9.504 34.042c-.033.147-.083.294-.05.441.017.147.115.294.263.326.165.05.346-.081.412-.244.066-.164.066-.343.05-.506a39.712 39.712 0 0 1-.577-.098"/><path fill="#100641" d="M7.939 56.017c-.066.212-.116.49.065.636.198.163.478.016.724.065a1.25 1.25 0 0 0 .017-.603c-.05-.196-.198-.392-.395-.425-.197-.049-.428.115-.411.327h.148-.148ZM11.69 57.437c0 .26 0 .505.016.766.18.033.378.05.576.082.049 0 .115.016.164-.016.05-.033.066-.098.082-.163.066-.278.066-.588-.131-.8-.198-.196-.625-.147-.658.13M28.683 57.893c-.181.146-.28.407-.181.62.099.212.395.326.592.18.082-.18.165-.376.132-.572-.033-.196-.296-.343-.46-.212M37.698 57.926a.689.689 0 0 0 0 .408c.05.13.23.212.346.13.049-.032.065-.081.082-.13a.844.844 0 0 0 .082-.44c-.017-.148-.131-.294-.28-.31-.148-.017-.312.13-.263.26M36.814 38.301c-.033.147-.082.294-.05.44.034.148.149.294.297.278.23 0 .329-.277.362-.505.033-.196.033-.457-.148-.539-.198-.081-.379.13-.494.294"/><path fill="#100342" d="M38.474 13.698c-.033.147-.05.31.017.44.065.13.246.212.378.13.066-.032.099-.097.132-.162.049-.13.098-.261.065-.392-.033-.13-.131-.26-.263-.277-.131-.016-.28.114-.247.245M37.568 15.883c0 .18 0 .343.017.522a.475.475 0 0 0 .526-.391.46.46 0 0 0-.411-.506.559.559 0 0 1-.066.326M39.741 16.293c-.066.18-.115.375-.082.57.033.196.23.36.411.327.247-.05.296-.392.28-.653-.017-.18-.033-.391-.181-.49-.148-.097-.428.017-.362.18"/><path fill="#362745" stroke="#362745" stroke-miterlimit="10" stroke-width=".159" d="M14.257 34.856c.28-.979-.247-1.86-1.003-2.74-1.168-1.355-2.238-2.774-2.484-4.666-.543-4.275 1.859-8.451 5.823-9.968 4.162-1.6 8.769-.164 11.253 3.49 1.102 1.616 1.661 3.394 1.661 5.352 0 1.794-.576 3.344-1.842 4.633-.609.604-1.119 1.305-1.76 1.876-.675.588-.922 1.257-.872 2.105.032.669-.05 1.338-.033 2.006v.131c0 .065-.017.114-.017.163 0 .033 0 .343.017.343-.116 0-.23 0-.33.016-.131 0-.263.016-.394 0-.247-.033-.477-.033-.724-.049-.05 0-.099 0-.165-.016-.098 0-.18-.016-.28-.016-.032 0-.065-.017-.114-.017h-.724c0-.098-.017-.196-.017-.294-.016-.195-.016-.391-.016-.587 0-.375-.017-.75-.017-1.126 0-.016 0-.032-.016-.048-.016-.017-.033-.017-.05-.017a5.76 5.76 0 0 0-1.184.05c0 .228 0 .456-.016.7v.197c0 .097 0 .179-.017.277 0 .032-.016.049-.016.065-.017.033-.017.082-.017.114-.016.18-.016.376.017.555h-.362c-.148 0-.313 0-.46-.033-.182-.032-.38-.016-.56-.032-.066 0-.148 0-.214-.017-.18 0-.362-.032-.543-.032h-.28c-.016 0-.263.016-.28.032 0-.163.017-.342.017-.505 0-.082 0-.163.017-.261 0-.082.016-.163.016-.245 0-.326 0-.653-.016-.995a7.047 7.047 0 0 0-1.316-.114c-.017.375-.033.75-.066 1.125-.017.18-.017.376-.033.571v.147c0 .033 0 .065-.016.082-.017.032-.1.032-.132.032-.23.017-.477 0-.707-.016-.1 0-.214-.016-.313-.016-.263-.017-.527-.017-.79-.033-.082 0-.18-.016-.263-.016-.05-.017-.099-.033-.165-.033l-.28-.016v-.62c0-.082-.015-.163.017-.245.017-.033 0-.065 0-.098v-.244c0-.213.017-.408.017-.62.033 0 .033-.066.05-.327Zm5.33-3.002c.148.017.296.017.445.033.23.016.477.033.707.065a9.277 9.277 0 0 0-.263-.718c-.033-.097-.082-.179-.116-.26-.032-.082-.082-.147-.115-.229-.016-.016-.016-.049-.016-.065-.017-.082-.05-.147-.066-.229-.082-.195-.148-.407-.23-.62a1.981 1.981 0 0 0-.115-.277c0 .017-.033.065-.033.065-.017.033-.05.066-.066.098-.214.294-.411.588-.592.898-.1.146-.181.31-.28.473-.05.081-.082.163-.132.228l-.049.098c-.017.065-.082.13-.131.196a1.47 1.47 0 0 0-.181.26h.279c.099 0 .181 0 .28-.016.033 0 .082-.016.115-.016.05 0 .099 0 .148.016.099 0 .181.017.28.017.05-.033.098-.033.131-.017Z"/><path fill="#E0E3BD" stroke="#362745" stroke-miterlimit="10" stroke-width=".159" d="M13.878 34.4c.263-.962-.247-1.827-.987-2.691-1.152-1.338-2.205-2.725-2.435-4.568-.526-4.193 1.826-8.272 5.709-9.756 4.08-1.566 8.587-.163 11.038 3.426 1.07 1.582 1.629 3.328 1.645 5.237 0 1.762-.559 3.279-1.81 4.535-.591.604-1.085 1.289-1.727 1.827-.658.571-.904 1.224-.855 2.072.033.653-.05 1.305-.033 1.958v.13c0 .05-.016.114-.016.163 0 .033 0 .327.016.327h-.33c-.13 0-.262.016-.394 0-.23-.033-.477-.033-.707-.05-.05 0-.099 0-.148-.015-.099 0-.181-.017-.28-.017-.033 0-.066-.016-.099-.016H21.757c0-.098-.016-.18-.016-.278-.016-.195-.016-.375-.016-.57 0-.376-.016-.735-.016-1.11 0-.016 0-.032-.017-.049-.016-.016-.033-.016-.05-.016-.377-.033-.772 0-1.15.049 0 .228 0 .457-.017.685v.196c0 .081 0 .18-.017.277 0 .033-.016.05-.016.066-.017.032-.017.081-.017.114-.016.179-.016.358.017.538h-.346c-.148 0-.296 0-.444-.033-.18-.032-.362-.016-.56-.032-.065 0-.147 0-.213-.017-.181 0-.346-.032-.527-.032h-.28c-.015 0-.262.016-.262.032 0-.163.016-.326.016-.505 0-.082 0-.163.017-.245 0-.082.016-.163.016-.245 0-.326 0-.652-.016-.979a8.532 8.532 0 0 0-1.284-.114l-.049 1.11c-.016.18-.016.375-.033.554v.147c0 .033 0 .065-.016.082-.017.032-.099.032-.132.032-.23.017-.46 0-.69-.016-.1 0-.215-.016-.313-.016-.264-.017-.527-.017-.774-.033-.082 0-.164-.016-.263-.016-.05 0-.098-.033-.164-.033-.017 0-.264-.016-.264-.016V35.885c0-.081-.016-.163.017-.228.016-.033 0-.065 0-.098v-.245c0-.196.016-.408.016-.603-.033 0-.033-.05-.016-.31Zm5.231-2.952c.148.016.296.016.428.032.23.017.46.033.691.066-.082-.229-.148-.473-.247-.718-.033-.098-.082-.18-.115-.261-.033-.082-.082-.147-.115-.229-.017-.016-.017-.049-.017-.065-.016-.081-.049-.147-.065-.228-.083-.196-.148-.408-.23-.604a1.952 1.952 0 0 0-.116-.277c0 .016-.033.049-.033.065-.016.033-.05.065-.066.098-.197.293-.394.587-.575.88-.1.148-.181.31-.264.458-.049.081-.082.146-.131.228l-.05.098c-.016.065-.082.13-.131.18-.066.08-.115.163-.181.244h.28c.098 0 .18 0 .28-.016.032 0 .081-.017.114-.017.05 0 .1 0 .149.017.098 0 .18.016.28.016.032.033.081.033.114.033Z"/><path fill="#362745" d="M25.476 18.334c-3.01-2.381-6.415-2.773-9.936-1.207-5.643 2.513-7.156 9.952-3.767 13.655.477.522.839 1.126 1.332 1.648.444.473.592.979.56 1.615-.05.881-.132 1.778 0 2.74l2.895.131.05-2.039 1.118.033v1.893c0 .048-.016.097-.016.162h.279c.198 0 .379.016.576.016.23.017.477.017.724.033.214.017.444.017.658.033.131 0 .263.016.411.016h.05c.032 0 .049 0 .082-.016 0-.05.016-.114.016-.163v-.017c0-.016 0-.048.017-.065 0-.049.016-.098.016-.13V35.089l1.119.033-.05 2.023c.181 0 3.044.13 3.044.13v-2.61c0-.082 0-.163-.017-.228 0-.196 0-.392.033-.572.033-.195.1-.407.23-.57.034-.033.067-.082.1-.115l.131-.13c.082-.082.164-.18.247-.261.164-.18.329-.343.493-.522l.477-.522c.165-.18.313-.343.461-.522.148-.18.313-.343.46-.522.149-.18.297-.343.445-.523.082-.081.148-.179.23-.26.56-.686.954-1.453 1.086-2.334.592-3.768-.576-6.9-3.554-9.25ZM16.15 34.34h-.165v.244c0 .163-.016.343-.016.506-.017.343-.033.702-.033 1.044l-1.464-.065c0-.147.016-.294.016-.44.017-.327.033-.653.033-.996.017-.342.033-.701.033-1.044 0-.13.016-.26.016-.391 0-.066-.016-.13-.016-.18 0-.065-.017-.13-.017-.196 0-.032-.016-.049-.016-.081-.016-.017-.016-.05-.033-.065-.016-.05-.033-.098-.066-.147l-.148-.294c-.05-.098-.115-.18-.18-.277a1.149 1.149 0 0 0-.132-.163 76.602 76.602 0 0 1-2.007-2.562c-.938-1.272-1.103-2.757-.922-4.258.412-3.377 2.188-5.824 5.363-7.08 3.143-1.24 6.12-.718 8.62 1.517 2.55 2.268 3.488 5.155 2.666 8.532-.198.865-.757 1.485-1.316 2.105-.691.767-1.398 1.517-2.106 2.268-.033.032-.066.049-.082.081 0 .017 0 .017-.017.033-.016.016-.016.032-.033.049-.016.032-.049.065-.065.098-.017.016-.017.032-.033.049-.017.016-.017.016-.017.032l-.098.196a2.23 2.23 0 0 0-.132.473c-.017.082-.017.163-.017.245V36.443c-.016.017-.032 0-.032 0h-.066c-.083 0-.181 0-.263-.016l-1.086-.049c.016-.31.016-.62.033-.914 0-.097.016-.212.016-.31v-.505l-.214-.033a1.281 1.281 0 0 0-.246-.033l-.527-.049c-.18-.016-.362-.016-.543-.016H19.834l-.066 1.876-1.464-.065.066-1.843c-.083-.017-.181-.033-.264-.05a5.805 5.805 0 0 0-.526-.065c-.181-.016-.362-.016-.543-.032-.18 0-.362 0-.543-.017h-.263"/><path fill="#362745" d="M19.8 28.886c-.017-.017-.017-.05-.033-.066-.033-.049-.05-.114-.082-.163l-.05-.098c-.016-.032-.033-.049-.05-.081-.065-.098-.114-.212-.18-.31-.033-.05-.05-.098-.082-.163 0-.017-.017-.033-.017-.033 0-.016-.016-.033-.016-.033-.017 0-.017 0-.017.017 0 .016-.016.016-.016.032 0 .017-.017.033-.017.05a.354.354 0 0 1-.049.08 3.052 3.052 0 0 0-.18.31 3.054 3.054 0 0 0-.182.31c-.082.131-.148.262-.23.409-.033.049-.05.098-.082.13-.033.05-.066.098-.083.147a1.433 1.433 0 0 0-.098.163c-.033.05-.066.114-.1.163-.032.066-.065.114-.098.18-.033.065-.066.114-.099.18-.032.064-.065.13-.098.179-.033.065-.066.13-.099.18-.033.064-.066.113-.099.179-.032.065-.066.114-.098.179-.033.065-.066.114-.099.18-.033.048-.066.114-.099.163a.662.662 0 0 0-.082.146c-.033.05-.05.098-.082.147-.017.05-.05.082-.066.13-.016.034-.05.066-.066.115l-.05.098a.124.124 0 0 0-.032.065c-.017.017-.017.033-.033.05l-.017.015h.017c.099 0 .18 0 .28.017h3.339l.592.016h.017c-.033-.098-.082-.18-.115-.277a302.319 302.319 0 0 0-1.35-2.806c0 .016 0 .016 0 0Zm-1.695 2.463c.395-.669.757-1.272 1.168-1.974.28.75.51 1.338.79 2.056-.675-.033-1.234-.066-1.958-.082Z"/><path fill="#E0E3BD" d="M8.781 18.773c0 .082.017.147.017.212l-.017-.212Zm0 0c0 .082.017.147.017.212l-.017-.212Z"/><path stroke="#362745" stroke-miterlimit="10" stroke-width=".636" d="M8.781 18.773c0 .082.017.147.017.212Zm0 0c0 .082.017.147.017.212l-.017-.212Z"/><path fill="#E0E3BD" d="M43.603 49.934c-.839-.67-1.464-1.534-2.254-2.284.05-.832.149-1.583.149-2.333-.017-2.056.115-4.111-.05-6.167-.099-1.256.247-2.463.592-3.67.675-2.301.296-4.666-.05-6.934-.246-1.615-.279-3.181-.164-4.78.116-1.403.132-2.806.247-4.21.148-1.99.33-3.948-.18-5.954-.445-1.697-.544-3.475-1.235-5.106-.543-1.273-.543-1.273-2.22-3.475-1.498-1.567-1.728-1.583-3.011-2.35-.987-.587-1.958-1.142-3.159-1.256-1.53-.147-2.944-.816-4.458-1.06C25.178-.07 22.58.159 19.98.55c-3.488.539-6.926 1.208-9.608 3.85-1.267 1.257-2.566 2.448-3.11 4.193-.147.49-.476.914-.723 1.354-1.135 1.91-.872 2.774-1.036 5.254.098.18-.23 1.256-.346 1.55-.148 1.664-.164.603-.148 1.321.05 2.17.066 4.34.082 6.493.017 1.958.099 3.916-.263 5.84-.395 2.04-.362 4.096-.378 6.151 0 .457.016.93-.099 1.37-.346 1.534-.263 3.068-.181 4.601.115 2.088.016 4.16.263 6.297-1.217.947-2.418 1.893-3.635 2.807-.428.31-.675.652-.675 1.207.033 2.3.033 4.6.05 6.9 0 .62.296.963.937 1.012 2.978.18 5.939.36 8.9.555 3.85.245 7.683.473 11.532.718 4.36.277 8.72.57 13.079.848a2.784 2.784 0 0 0 1.645-.408c2.287-1.37 4.59-2.74 6.893-4.078.56-.327.773-.75.773-1.387.017-2.007.066-4.013.115-6.004 0-.408-.082-.783-.444-1.06ZM5.75 39.624c.198-1.371.379-2.725.346-4.112-.05-1.795.164-3.556.428-5.319.361-2.447.23-4.91.18-7.373-.016-.898-.032-1.795-.016-2.676 0-.228.016-.457.033-.685.016-.13.033-.261.033-.408 0-.065.05-.114.099-.163.065-.082.148-.163.213-.245a.225.225 0 0 1 .066-.049c.017 0 .05 0 .066.016.296.13.806.604.823.637 0 .016.592.456.592.473.016.016-.362.832-.362.864.707 0 .526-.228 1.102-1.256.033-.065-.576-.473-.576-.554-.098-.098-.131-.229-.18-.343a1.497 1.497 0 0 0-.215-.392c-.049-.065-.098-.114-.148-.18l-.148-.146a.147.147 0 0 1-.049-.114c-.016-.065-.05-.114-.066-.18a4.033 4.033 0 0 1-.18-.473c-.116-.31-.215-.636-.313-.962-.099-.326-.198-.653-.313-.98-.066-.179-.132-.342-.197-.521.115-1.534.411-3.002 1.43-4.242.231-.294.38-.669.494-1.011.461-1.501 1.481-2.578 2.65-3.54.723-.604 1.381-1.322 2.22-1.73.017-.016.082.033.099.033l.098.049a.463.463 0 0 1 .148.163c.066.081.083.196.132.277.033.082.066.18.099.261.066.18.131.343.18.522.017.033.017.05.034.066 0 .016.016.032.016.032s.033.016.05.016c.065.017.131.05.197.066.016 0-.066.44-.066.473v.081c0 .066-.016.147-.016.213-.017.146-.017.293-.033.44 0 .049-.017.114 0 .163.016.05.033.082.05.13.13.262.196 1.24.196 1.24s.214-.554.198-.587c-.017-.049-.017-.081-.033-.13-.016-.082-.033-.18-.05-.261a18.839 18.839 0 0 1-.049-.36c0-.048-.016-.08-.016-.13 0-.032-.017-.049 0-.081.016-.05.033-.098.066-.13.016-.05.049-.099.066-.148 0 0 .098.017.114.033a.236.236 0 0 0 .1.033.73.73 0 0 1 .263.097.346.346 0 0 1 .098.066l.05.098c.082.212.164.44.263.652.016.033.033.082.066.114a.344.344 0 0 0 .098.066c.214.13.444.26.658.391-.098-.163-.247-.293-.378-.457a1.808 1.808 0 0 1-.378-.848c-.017-.065-.017-.13-.017-.196-.164-.114-.329-.212-.493-.326-.066-.049-.149-.082-.198-.13a.124.124 0 0 1-.033-.082c-.016-.049-.033-.082-.05-.13-.065-.18-.114-.36-.18-.523-.016-.049-.033-.114-.082-.13-.017-.017-.05-.017-.083-.033-.049-.032-.065-.098-.082-.147-.016-.065-.033-.146-.05-.212a.584.584 0 0 1-.032-.18V4.45c-.017-.115-.05-.229-.05-.343-.016-.294.05-.587.214-.848C19.963 2.524 25.03 1.92 29.44 5.755v2.284c0 .065 0 .147-.033.212-.017.016-.017.032-.033.065a.326.326 0 0 1-.066.13c-.05.082-.098.164-.164.262a1.125 1.125 0 0 0-.165.31c.017-.017.033-.017.05-.033l.049-.049a.5.5 0 0 1 .115-.082c.082-.049.148-.114.214-.179.033-.033.05-.065.082-.114.033-.05.066-.13.099-.18a.424.424 0 0 0 .099-.212c.016-.032.032-.049.032-.081.017-.033.017-.066.033-.115l.05-.228c.066-.326.082-.653.131-.979.017-.13.05-.245.083-.375 1.365 1.06 2.78 1.99 2.977 3.85.165 1.566.444 3.1.889 4.617.131.44.246.897.246 1.354 0 3.05.148 6.085-.345 9.12-.263 1.615-.247 3.295-.263 4.943a56.23 56.23 0 0 1-.264 5.27c-.164 1.713-.164 3.41.264 5.073.23.881.082 1.762-.017 2.66-.197 1.745-.28 3.507-.395 5.27-.032.423-.016.864-.197 1.32-8.95-.489-17.882-.978-26.865-1.484 0 0-.032-.277-.032-.294l-.05-.342a9.201 9.201 0 0 1-.066-.67c-.016-.228 0-.44.017-.652v-.081c0-.082.016-.18.033-.245.016-.082.033-.18.05-.261a4.01 4.01 0 0 1 .18-.587c.016-.033.016-.05.033-.082a.36.36 0 0 1 .082-.049c.428-.163.84-.326 1.267-.49.05-.016.066-.08.099-.13a.897.897 0 0 1 .115-.147c.033-.032.082-.065.115-.098a.638.638 0 0 0 .132-.228c.065-.13.131-.277.18-.408.033-.065.066-.13.083-.18 0-.016 0-.032.016-.048.05-.082.165-.147.23-.196.149-.114.28-.245.379-.392-.132.066-.23.147-.362.229a.609.609 0 0 1-.181.081c-.016 0-.033 0-.066.017-.016 0-.016.016-.016.016a.908.908 0 0 0-.099.13l-.197.294a6.845 6.845 0 0 0-.247.36c-.082.13-.132.26-.263.325a1.12 1.12 0 0 1-.132.05c-.411.13-.839.277-1.25.407-.082.033-.165.05-.247.114v-.163c.016-.081 0-.163.016-.228v-.326c0-.229-.016-.44-.016-.67-.016-.44-.05-.88-.066-1.304a8.56 8.56 0 0 1-.033-2.513ZM5.387 50.21c.23-.18.527-.13.79-.114 5.28.294 10.562.571 15.842.865 3.455.195 6.91.391 10.381.57.165.017.33.05.51.066.329.652.592 1.321.79 2.137-10.085-.652-20.087-1.289-30.27-1.941.69-.685 1.349-1.11 1.957-1.583Zm28.84 10.914c-.741.115-1.465.017-2.14-.065-.033 0-.065-.032-.082-.049a.287.287 0 0 1-.082-.065 1.045 1.045 0 0 1-.148-.13c-.099-.098-.165-.229-.263-.327-.033-.032-.083-.065-.099-.098a.911.911 0 0 1-.066-.195c0-.017 0-.033-.016-.066-.017-.016-.033-.032-.033-.065a1.24 1.24 0 0 1-.198-.31c-.016-.033-.016-.082-.016-.114.016-.098-.033-.196-.066-.277-.016-.082-.033-.147-.05-.229a.124.124 0 0 0-.032-.065c-.033-.05-.082-.082-.132-.114-.115-.13-.23-.245-.345-.36-.05-.048-.099-.08-.148-.113.033.016.049.065.082.097.017.033.05.066.082.098.05.066.099.13.132.229 0 .032.033.081.05.114.049.098.081.18.098.277.033.13.05.261.05.392.016.114.016.245.032.359 0 0 .082.032.099.032.016.017.016.05.016.082.033.082.083.163.132.245l.05.097v.278c0 .032 0 .081-.017.114-.033.049-.099.082-.082.147-.066 0-.165.016-.23 0-.017 0-.034 0-.05-.016-.115-.017-.214-.017-.33-.017a8.454 8.454 0 0 0-.64-.032c-1.86-.114-3.719-.245-5.578-.36-1.859-.114-3.718-.244-5.576-.358-1.86-.114-3.719-.245-5.577-.36-1.86-.113-3.718-.244-5.577-.358-.938-.065-1.86-.114-2.797-.18-.46-.032-.938-.065-1.398-.081l-.691-.049c-.05 0-.675-.033-.675-.049v-1.566l.017-.017.033-.032c.016-.033.032-.049.049-.082.05-.065.082-.114.132-.18.049-.064.115-.13.164-.195.016-.033.033-.049.05-.081a.5.5 0 0 1 .115-.082c.049-.033.098-.049.148-.082.098-.049.197-.097.312-.13.082-.033.165-.05.247-.033a.393.393 0 0 1 .18.098c.182.13.38.261.593.31.05.016.066-.032.099-.049.082-.081.18-.147.263-.196a.125.125 0 0 1 .066-.032c.05-.033.099-.05.148-.082.197-.081.411-.098.625-.114a2.197 2.197 0 0 0-.493-.098c-.1 0-.198 0-.28.049l-.033.033c-.016.016-.05.032-.066.049l-.148.098c-.016 0-.016.016-.033.016-.033.016-.066.032-.082.065-.017.016-.066.049-.099.049a.28.28 0 0 1-.082-.033c-.016-.016-.05-.016-.066-.032a1.52 1.52 0 0 0-.131-.082c-.132-.098-.264-.228-.395-.342-.017-.017-.033-.017-.05-.033h-.065c-.05.016-.1.016-.148.033-.033 0-.05.016-.083.016h-.05c-.048 0-.098.016-.147.016-.066.017-.148.033-.214.05a8.828 8.828 0 0 0-.625.162v-3.279c10.792.685 21.55 1.387 32.36 2.072v5.677ZM31.15 5.25l-.477-.669h-.214c-.033 0-.05-.033-.082-.033l-.494-.391a14.58 14.58 0 0 0-1.02-.734 15.27 15.27 0 0 0-2.188-1.273c-.346-.032-.625-.196-1.02-.44.428.065.724.114 1.02.163 1.02-.016 1.974.31 2.945.604.756.228 1.513.473 2.303.538 1.2.081 2.139.718 3.076 1.354.74.506.987 1.338 1.218 2.12.164.604-.412.865-.773 1.208v.065c0 .033.016.066.016.098.016.066.05.114.066.18.066.13.131.244.18.375.034.065.05.13.066.196a.467.467 0 0 1 .017.212c0 .032-.05.065-.066.081-.099.13-.214.261-.312.376l.69-.229c.05-.049.083-.098.132-.13.05-.033.099-.082.148-.115-.05-.032-.05-.048-.05-.097-.016-.066-.032-.147-.049-.212l-.049-.196c0-.033-.016-.066-.016-.098 0-.016-.033-.082-.017-.098.181-.359.576-.424.773-.653 1.218.082 1.892.718 2.238 1.811.444 1.387.56 2.855.97 4.242.708 2.48.264 4.927.083 7.39-.1 1.42.049 2.872-.23 4.275-.116.538-.247 1.044-.675 1.354-.148.604-.017 1.158-.05 1.713-.065.163-.213.293-.345.408a3.453 3.453 0 0 1-.378.31l-.017.016c-.115.082-.247.163-.345.26l-.148.148c-.05.049-.116.081-.181.13-.116.066-.23.147-.346.229-.033.032-.082.049-.099.098l-.065.065-.066.065c-.017.016-.033.033-.033.049s.017.016.017.033c.082.098.114.244.18.359.017.032.05.065.066.114.017.016.017.032.017.065.032.065.049.13.049.196v.098c-.017.065.016.13-.033.18-.066.064-.148.13-.214.195-.033.033-.066.065-.098.081-.066.066-.149.115-.214.18-.017.016-.033.016-.033.033-.017.016-.017.049 0 .081.049.36.098.734.148 1.093 0 .05.016.114.016.18-.016.049-.016.098-.016.163 0 .147.016.293.033.424l.312-1.517c.23-.424.806-.506.955-.93 0-.375-.346-.473-.461-.8.609-.44 1.234-.897 1.925-1.403.016-.326.049-.717.065-1.125.23.049.264.228.28.375.115 2.202.658 4.405.181 6.624-.164.799-.444 1.566-.543 2.365-.263 2.252.082 4.487.033 6.722-.033 1.125.115 2.267-.263 3.442-1.645.848-3.307 1.615-5.1 2.463.082-.995.115-1.876.214-2.757.148-1.419.082-2.871.395-4.274.131-.604.082-1.256-.066-1.86-.51-1.958-.494-3.915-.247-5.89.263-2.153.197-4.323.23-6.492.033-2.17.362-4.307.478-6.477.115-2.268.312-4.552-.083-6.787-.312-1.778-.822-3.524-1.036-5.335-.165-1.337-.84-2.447-1.892-3.312-.395-.326-.757-.668-1.152-1.011-.098-.082-.18-.163-.28-.261-.016-.016-.032-.016-.032-.033-.033-.032-.033-.065-.05-.114l.083.147Zm8.653 44.587s.016.016.033.016c.016 0 .016 0 .033.017.033 0 .05.016.066.032.032.033.049.066.065.098 0 .049.017.098.017.163 0 .114.016.245 0 .36 0 .064 0 .113-.017.179v.065c0 .032.033.032.066.049.05.016.082.065.099.098.016.032.033.065.016.098a.124.124 0 0 1-.032.081c-.034.066-.083.098-.149.13a3.534 3.534 0 0 0-.427.23c-1.316.684-2.633 1.386-4.014 2.104-.362-.67-.61-1.338-.856-2.105a819.63 819.63 0 0 0 5.462-2.561c.609.375.987.946 1.431 1.435-.247.278-.56.36-.872.506a89.78 89.78 0 0 0-.098-.049c-.033-.016-.083-.049-.116-.065s-.066-.049-.115-.049a.432.432 0 0 1-.148-.082c-.016-.016-.016-.032-.016-.065-.017-.065-.033-.114-.033-.18a1.197 1.197 0 0 0-.066-.228c-.017-.065-.05-.146-.066-.212l-.263-.065Zm1.119 4.421v-.245c0-.048 0-.114.033-.163.016-.032.016-.049.032-.065 0-.016.017-.016.017-.033.05-.081.099-.163.164-.244.28-.327.445-.702.412-1.159.18-.13.362-.277.674-.26.115 1.598.033 3.262-.016 4.959-2.073 1.223-4.146 2.447-6.301 3.703v-5.53c1.678-.881 3.34-1.746 5.018-2.61a.57.57 0 0 1 .098.228c.017.049 0 .114 0 .163 0 .032-.016.049-.033.082 0 .016-.016.032-.033.065l-.065.065c-.033.016-.05.049-.083.082a.492.492 0 0 0-.082.114c-.016.016-.033.032-.033.065a.124.124 0 0 0-.033.082c-.049.081-.098.18-.164.26-.033.033-.066.082-.066.131 0 .017 0 .033.016.05v.635c0 .115.017.212.017.327a.476.476 0 0 1-.066.26l-.05.05s-.016.016-.016.032c0 .017-.016.017-.032.033-.116.13-.264.228-.412.326a.793.793 0 0 0 .28-.081c.066-.033.132-.082.214-.115.016 0 .032-.032.065-.032h.017c.033-.05.05-.098.082-.163.017-.017.017-.05.033-.082.017-.033.017-.049.033-.081 0-.017.016-.033.016-.05a.906.906 0 0 1 .066-.195c.017-.033.017-.066.033-.098 0-.016.017-.033.017-.065 0-.033 0-.066.016-.082a.09.09 0 0 1 .05-.081h.032l.05-.278Z"/><path stroke="#362745" stroke-miterlimit="10" stroke-width=".159" d="m31.15 5.249-.477-.669h-.214c-.033 0-.05-.033-.082-.033l-.494-.391a14.58 14.58 0 0 0-1.02-.734 15.27 15.27 0 0 0-2.188-1.273c-.346-.032-.625-.196-1.02-.44.428.065.724.114 1.02.163 1.02-.016 1.974.31 2.945.604.756.228 1.513.473 2.303.538 1.2.081 2.139.718 3.076 1.354.74.506.987 1.338 1.218 2.12.164.604-.412.865-.773 1.208v.065c0 .033.016.066.016.098.016.066.05.114.066.18.066.13.131.244.18.375.034.065.05.13.066.196a.467.467 0 0 1 .017.212c0 .032-.05.065-.066.081-.099.13-.214.261-.312.376l.69-.229c.05-.049.083-.098.132-.13.05-.033.099-.082.148-.115-.05-.032-.05-.048-.05-.097-.016-.066-.032-.147-.049-.212l-.049-.196c0-.033-.016-.066-.016-.098 0-.016-.033-.082-.017-.098.181-.359.576-.424.773-.653 1.218.082 1.892.718 2.238 1.811.444 1.387.56 2.855.97 4.242.708 2.48.264 4.927.083 7.39-.1 1.42.049 2.872-.23 4.275-.116.538-.247 1.044-.675 1.354-.148.604-.017 1.158-.05 1.713-.065.163-.213.293-.345.408a3.453 3.453 0 0 1-.378.31l-.017.016c-.115.082-.247.163-.345.26l-.148.148c-.05.049-.116.081-.181.13-.116.066-.23.147-.346.229-.033.032-.082.049-.099.098l-.065.065-.066.065c-.017.016-.033.033-.033.049s.017.016.017.033c.082.098.114.244.18.359.017.032.05.065.066.114.017.016.017.032.017.065.032.065.049.13.049.196v.098c-.017.065.016.13-.033.18-.066.064-.148.13-.214.195-.033.033-.066.065-.098.081-.066.066-.149.115-.214.18-.017.016-.033.016-.033.033-.017.016-.017.049 0 .081.049.36.098.734.148 1.093 0 .05.016.114.016.18-.016.049-.016.098-.016.163 0 .147.016.293.033.424l.312-1.517c.23-.424.806-.506.955-.93 0-.375-.346-.473-.461-.8.609-.44 1.234-.897 1.925-1.403.016-.326.049-.717.065-1.125.23.049.264.228.28.375.115 2.202.658 4.405.181 6.624-.164.799-.444 1.566-.543 2.365-.263 2.252.082 4.487.033 6.722-.033 1.125.115 2.267-.263 3.442-1.645.848-3.307 1.615-5.1 2.463.082-.995.115-1.876.214-2.757.148-1.419.082-2.871.395-4.274.131-.604.082-1.256-.066-1.86-.51-1.958-.494-3.915-.247-5.89.263-2.153.197-4.323.23-6.492.033-2.17.362-4.307.478-6.477.115-2.268.312-4.552-.083-6.787-.312-1.778-.822-3.524-1.036-5.335-.165-1.337-.84-2.447-1.892-3.312-.395-.326-.757-.668-1.152-1.011-.098-.082-.18-.163-.28-.261Zm0 0c-.017-.016-.033-.016-.033-.033-.033-.032-.033-.065-.05-.114l.083.147Zm8.916 44.652c.017.066.05.147.066.212.033.082.05.147.066.229 0 .065.016.114.033.18 0 .032 0 .048.016.064a.432.432 0 0 0 .148.082c.05 0 .082.033.115.049s.083.049.116.065l.098.05c.313-.148.625-.23.872-.507-.444-.489-.822-1.06-1.431-1.435a819.63 819.63 0 0 1-5.462 2.561c.247.767.494 1.436.856 2.105 1.382-.718 2.698-1.42 4.014-2.105.131-.081.28-.163.427-.228.066-.033.115-.066.148-.13a.124.124 0 0 0 .033-.082c.017-.033 0-.066-.016-.098-.017-.033-.05-.082-.099-.098-.033-.017-.066-.017-.066-.05v-.064c.017-.066.017-.115.017-.18.016-.114 0-.245 0-.359 0-.065-.017-.114-.017-.163a.339.339 0 0 0-.066-.098c-.016-.016-.032-.032-.065-.032-.017-.017-.017-.017-.033-.017-.017 0-.033-.016-.033-.016l.263.065Zm0 0-.345-.13m3.882.163c-.839-.67-1.464-1.534-2.254-2.284.05-.832.149-1.583.149-2.333-.017-2.056.115-4.111-.05-6.167-.099-1.256.247-2.463.592-3.67.675-2.301.296-4.666-.05-6.934-.246-1.615-.279-3.181-.164-4.78.116-1.403.132-2.806.247-4.21.148-1.99.33-3.948-.18-5.954-.445-1.697-.544-3.475-1.235-5.106-.543-1.273-.543-1.273-2.22-3.475-1.498-1.567-1.728-1.583-3.011-2.35-.987-.587-1.958-1.142-3.159-1.256-1.53-.147-2.944-.816-4.458-1.06C25.178-.07 22.58.159 19.98.55c-3.488.539-6.926 1.208-9.608 3.85-1.267 1.257-2.566 2.448-3.11 4.193-.147.49-.476.914-.723 1.354-1.135 1.91-.872 2.774-1.036 5.254.098.18-.23 1.256-.346 1.55-.148 1.664-.164.603-.148 1.321.05 2.17.066 4.34.082 6.493.017 1.958.099 3.916-.263 5.84-.395 2.04-.362 4.096-.378 6.151 0 .457.016.93-.099 1.37-.346 1.534-.263 3.068-.181 4.601.115 2.088.016 4.16.263 6.297-1.217.947-2.418 1.893-3.635 2.807-.428.31-.675.652-.675 1.207.033 2.3.033 4.6.05 6.9 0 .62.296.963.937 1.012 2.978.18 5.939.36 8.9.555 3.85.245 7.683.473 11.532.718 4.36.277 8.72.57 13.079.848a2.784 2.784 0 0 0 1.645-.408c2.287-1.37 4.59-2.74 6.893-4.078.56-.327.773-.75.773-1.387.017-2.007.066-4.013.115-6.004 0-.408-.082-.783-.444-1.06ZM5.75 39.624c.198-1.371.379-2.725.346-4.112-.05-1.795.164-3.556.428-5.319.361-2.447.23-4.91.18-7.373-.016-.898-.032-1.795-.016-2.676 0-.228.016-.457.033-.685.016-.13.033-.261.033-.408 0-.065.05-.114.099-.163.065-.082.148-.163.213-.245a.225.225 0 0 1 .066-.049c.017 0 .05 0 .066.016.296.13.806.604.823.637 0 .016.592.456.592.473.016.016-.362.832-.362.864.707 0 .526-.228 1.102-1.256.033-.065-.576-.473-.576-.554-.098-.098-.131-.229-.18-.343a1.497 1.497 0 0 0-.215-.392c-.049-.065-.098-.114-.148-.18l-.148-.146a.147.147 0 0 1-.049-.114c-.016-.065-.05-.114-.066-.18a4.033 4.033 0 0 1-.18-.473c-.116-.31-.215-.636-.313-.962-.099-.326-.198-.653-.313-.98-.066-.179-.132-.342-.197-.521.115-1.534.411-3.002 1.43-4.242.231-.294.38-.669.494-1.011.461-1.501 1.481-2.578 2.65-3.54.723-.604 1.381-1.322 2.22-1.73.017-.016.082.033.099.033l.098.049a.463.463 0 0 1 .148.163c.066.081.083.196.132.277.033.082.066.18.099.261.066.18.131.343.18.522.017.033.017.05.034.066 0 .016.016.032.016.032s.033.016.05.016c.065.017.131.05.197.066.016 0-.066.44-.066.473v.081c0 .066-.016.147-.016.213-.017.146-.017.293-.033.44 0 .049-.017.114 0 .163.016.05.033.082.05.13.13.262.196 1.24.196 1.24s.214-.554.198-.587c-.017-.049-.017-.081-.033-.13-.016-.082-.033-.18-.05-.261a18.839 18.839 0 0 1-.049-.36c0-.048-.016-.08-.016-.13 0-.032-.017-.049 0-.081.016-.05.033-.098.066-.13.016-.05.049-.099.066-.148 0 0 .098.017.114.033a.236.236 0 0 0 .1.033.73.73 0 0 1 .263.097.346.346 0 0 1 .098.066l.05.098c.082.212.164.44.263.652.016.033.033.082.066.114a.344.344 0 0 0 .098.066c.214.13.444.26.658.391-.098-.163-.247-.293-.378-.457a1.808 1.808 0 0 1-.378-.848c-.017-.065-.017-.13-.017-.196-.164-.114-.329-.212-.493-.326-.066-.049-.149-.082-.198-.13a.124.124 0 0 1-.033-.082c-.016-.049-.033-.082-.05-.13-.065-.18-.114-.36-.18-.523-.016-.049-.033-.114-.082-.13-.017-.017-.05-.017-.083-.033-.049-.032-.065-.098-.082-.147-.016-.065-.033-.146-.05-.212a.584.584 0 0 1-.032-.18V4.45c-.017-.115-.05-.229-.05-.343-.016-.294.05-.587.214-.848C19.963 2.524 25.03 1.92 29.44 5.755v2.284c0 .065 0 .147-.033.212-.017.016-.017.032-.033.065a.326.326 0 0 1-.066.13c-.05.082-.098.164-.164.262a1.125 1.125 0 0 0-.165.31c.017-.017.033-.017.05-.033l.049-.049a.5.5 0 0 1 .115-.082c.082-.049.148-.114.214-.179.033-.033.05-.065.082-.114.033-.05.066-.13.099-.18a.424.424 0 0 0 .099-.212c.016-.032.032-.049.032-.081.017-.033.017-.066.033-.115l.05-.228c.066-.326.082-.653.131-.979.017-.13.05-.245.083-.375 1.365 1.06 2.78 1.99 2.977 3.85.165 1.566.444 3.1.889 4.617.131.44.246.897.246 1.354 0 3.05.148 6.085-.345 9.12-.263 1.615-.247 3.295-.263 4.943a56.23 56.23 0 0 1-.264 5.27c-.164 1.713-.164 3.41.264 5.073.23.881.082 1.762-.017 2.66-.197 1.745-.28 3.507-.395 5.27-.032.423-.016.864-.197 1.32-8.95-.489-17.882-.978-26.865-1.484 0 0-.032-.277-.032-.294l-.05-.342a9.201 9.201 0 0 1-.066-.67c-.016-.228 0-.44.017-.652v-.081c0-.082.016-.18.033-.245.016-.082.033-.18.05-.261a4.01 4.01 0 0 1 .18-.587c.016-.033.016-.05.033-.082a.36.36 0 0 1 .082-.049c.428-.163.84-.326 1.267-.49.05-.016.066-.08.099-.13a.897.897 0 0 1 .115-.147c.033-.032.082-.065.115-.098.066-.065.099-.146.132-.228a4.42 4.42 0 0 0 .18-.408c.033-.065.066-.13.083-.18 0-.016 0-.032.016-.048.05-.082.165-.147.23-.196.149-.114.28-.245.379-.392-.132.066-.23.147-.362.229a.609.609 0 0 1-.181.081c-.016 0-.033 0-.066.017-.016 0-.016.016-.016.016a.908.908 0 0 0-.099.13l-.197.294a6.845 6.845 0 0 0-.247.36c-.082.13-.132.26-.263.325a1.12 1.12 0 0 1-.132.05c-.411.13-.839.277-1.25.407-.082.033-.165.05-.247.114v-.163c.016-.081 0-.163.016-.228v-.326c0-.229-.016-.44-.016-.67-.016-.44-.05-.88-.066-1.304a8.56 8.56 0 0 1-.033-2.513ZM5.387 50.21c.23-.18.527-.13.79-.114 5.28.294 10.562.571 15.842.865 3.455.195 6.91.391 10.381.57.165.017.33.05.51.066.329.652.592 1.321.79 2.137-10.085-.652-20.087-1.289-30.27-1.941.69-.685 1.349-1.11 1.957-1.583Zm28.84 10.914c-.741.115-1.465.017-2.14-.065-.033 0-.065-.032-.082-.049a.287.287 0 0 1-.082-.065 1.045 1.045 0 0 1-.148-.13c-.099-.098-.165-.229-.263-.327-.033-.032-.083-.065-.099-.098a.911.911 0 0 1-.066-.195c0-.017 0-.033-.016-.066-.017-.016-.033-.032-.033-.065a1.24 1.24 0 0 1-.198-.31c-.016-.033-.016-.082-.016-.114.016-.098-.033-.196-.066-.277-.016-.082-.033-.147-.05-.229a.124.124 0 0 0-.032-.065c-.033-.05-.082-.082-.132-.114-.115-.13-.23-.245-.345-.36-.05-.048-.099-.08-.148-.113.033.016.049.065.082.097.017.033.05.066.082.098.05.066.099.13.132.229 0 .032.033.081.05.114.049.098.081.18.098.277.033.13.05.261.05.392.016.114.016.245.032.359 0 0 .082.032.099.032.016.017.016.05.016.082.033.082.083.163.132.245l.05.097v.278c0 .032 0 .081-.017.114-.033.049-.099.082-.082.147-.066 0-.165.016-.23 0-.017 0-.034 0-.05-.016-.115-.017-.214-.017-.33-.017a8.454 8.454 0 0 0-.64-.032c-1.86-.114-3.719-.245-5.578-.36-1.859-.114-3.718-.244-5.576-.358-1.86-.114-3.719-.245-5.577-.36-1.86-.113-3.718-.244-5.577-.358-.938-.065-1.86-.114-2.797-.18-.46-.032-.938-.065-1.398-.081l-.691-.049c-.05 0-.675-.033-.675-.049v-1.566l.017-.017.033-.032c.016-.033.032-.05.049-.082.05-.065.082-.114.132-.18.049-.064.115-.13.164-.195.016-.033.033-.049.05-.081a.5.5 0 0 1 .115-.082c.049-.033.098-.049.148-.082.098-.049.197-.097.312-.13.082-.033.165-.05.247-.033a.393.393 0 0 1 .18.098c.182.13.38.261.593.31.05.016.066-.032.099-.049.082-.081.18-.147.263-.196a.125.125 0 0 1 .066-.032c.05-.033.099-.05.148-.082.197-.081.411-.098.625-.114a2.197 2.197 0 0 0-.493-.098c-.1 0-.198 0-.28.049l-.033.033c-.016.016-.05.032-.066.049l-.148.098c-.016 0-.016.016-.033.016-.033.016-.066.032-.082.065-.017.016-.066.049-.099.049a.28.28 0 0 1-.082-.033c-.016-.016-.05-.016-.066-.032a1.52 1.52 0 0 0-.131-.082c-.132-.098-.264-.228-.395-.343-.017-.016-.033-.016-.05-.032h-.065c-.05.016-.1.016-.148.032-.033 0-.05.017-.083.017h-.05c-.048 0-.098.016-.147.016-.066.017-.148.033-.214.05a8.828 8.828 0 0 0-.625.162v-3.279c10.792.685 21.55 1.387 32.36 2.072v5.677Zm6.695-6.868v-.245c0-.048 0-.114.033-.163.016-.032.016-.049.032-.065 0-.016.017-.016.017-.033.05-.081.099-.163.164-.244.28-.327.445-.702.412-1.159.18-.13.362-.277.674-.26.115 1.598.033 3.262-.016 4.959-2.073 1.223-4.146 2.447-6.301 3.703v-5.53c1.678-.881 3.34-1.746 5.018-2.61a.57.57 0 0 1 .098.228c.017.049 0 .114 0 .163 0 .032-.016.049-.033.082 0 .016-.016.032-.033.065l-.065.065c-.033.016-.05.049-.083.082a.492.492 0 0 0-.082.114c-.016.016-.033.032-.033.065a.124.124 0 0 0-.033.082c-.049.081-.098.18-.164.26-.033.033-.066.082-.066.131 0 .017 0 .033.016.05v.635c0 .115.017.212.017.327a.476.476 0 0 1-.066.26l-.05.05s-.016.016-.016.032c0 .017-.016.017-.032.033-.116.13-.264.228-.412.326a.792.792 0 0 0 .28-.081c.066-.033.132-.082.214-.115.016 0 .032-.032.065-.032h.017c.033-.05.05-.098.082-.163.017-.017.017-.05.033-.082.017-.033.017-.049.033-.081 0-.017.016-.033.016-.05a.906.906 0 0 1 .066-.195c.017-.033.017-.066.033-.098 0-.016.017-.033.017-.065 0-.033 0-.066.016-.082a.09.09 0 0 1 .05-.081h.032l.05-.278Z"/><path fill="#6B00FA" stroke="#362745" stroke-miterlimit="10" stroke-width=".159" d="M22.138 25.754c-.395.587-.428 1.387-.148 2.04.082.195.198.374.379.489.361.212.822.016 1.2-.18.494-.26 1.004-.57 1.201-1.093.148-.375.083-.816-.098-1.175a2.187 2.187 0 0 0-.412-.603c-.115-.114-.213-.261-.394-.278-.412-.065-.856.066-1.201.278a1.992 1.992 0 0 0-.527.522ZM14.65 25.87c-.131.228-.23.473-.246.733-.033.441.18.849.378 1.24a.496.496 0 0 0 .148.212.555.555 0 0 0 .23.082 2.456 2.456 0 0 0 2.205-.848 1.44 1.44 0 0 0 .23-.408 1.93 1.93 0 0 0 .05-.685c-.017-.327-.05-.702-.297-.93a1.349 1.349 0 0 0-.41-.261 3.915 3.915 0 0 0-.593-.278c-.148-.032-.33.017-.46.066-.346.114-.642.342-.889.603-.066.082-.132.147-.197.229-.033.049-.066.081-.083.13-.016.017-.033.082-.066.114Z"/><path fill="#362745" d="M15.706 28.593c-1.25 0-2.27-1.012-2.27-2.252 0-1.24 1.02-2.251 2.27-2.251s2.27 1.011 2.27 2.251-1.02 2.252-2.27 2.252Zm0-3.85c-.889 0-1.612.717-1.612 1.598 0 .881.723 1.599 1.612 1.599.888 0 1.612-.718 1.612-1.599 0-.88-.724-1.599-1.612-1.599ZM23.009 28.759a2.265 2.265 0 0 1-2.27-2.252c0-1.24 1.02-2.251 2.27-2.251s2.27 1.011 2.27 2.251-1.02 2.252-2.27 2.252Zm0-3.85c-.889 0-1.613.717-1.613 1.598 0 .881.724 1.599 1.613 1.599.888 0 1.612-.718 1.612-1.599 0-.88-.724-1.599-1.612-1.599Z"/><path fill="#362745" d="M14.653 27.794c-.23-.343-.79-.734-.79-1.126 0-1.158.56-2.088 1.728-2.088h.888c.132.13.264.245.362.375a1.913 1.913 0 0 0-.428-.049c-.97 0-1.776.784-1.776 1.762 0 .474.18.898.493 1.224l-.477-.098ZM22.484 28.084c-.165-.016-1.053-.358-1.218-.39-.23-.343 0-1.616 0-2.04 0-1.11 1.35-.995 2.452-1.06l.329.488a1.772 1.772 0 0 0-2.106 1.73c.017.506.214.946.543 1.272Z"/></g><path fill="#000" d="M76.84 45.5c-.34 0-.62-.11-.838-.328a1.116 1.116 0 0 1-.292-.765v-23.22h2.26v23.22c0 .291-.11.546-.328.765a1.09 1.09 0 0 1-.802.328Zm-8.675-23.437c-.292 0-.547-.098-.766-.292a.975.975 0 0 1-.328-.765c0-.292.11-.535.328-.73.22-.194.474-.291.766-.291h17.35c.292 0 .547.097.766.292.218.194.328.45.328.765 0 .316-.11.571-.328.765-.22.17-.474.256-.766.256h-17.35Zm40.62 14.106c0 1.847-.401 3.511-1.203 4.994a9.176 9.176 0 0 1-3.281 3.462c-1.385.826-2.964 1.24-4.738 1.24-1.725 0-3.293-.414-4.702-1.24-1.385-.85-2.491-2.005-3.317-3.462-.802-1.483-1.203-3.147-1.203-4.994 0-1.871.4-3.536 1.203-4.994.826-1.458 1.932-2.612 3.317-3.463 1.41-.85 2.977-1.275 4.702-1.275 1.774 0 3.353.425 4.738 1.275a9.176 9.176 0 0 1 3.281 3.463c.802 1.458 1.203 3.123 1.203 4.994Zm-2.187 0c0-1.482-.304-2.795-.912-3.937-.607-1.166-1.445-2.077-2.515-2.733-1.045-.68-2.247-1.021-3.608-1.021-1.312 0-2.503.34-3.572 1.02-1.07.657-1.92 1.568-2.552 2.734-.607 1.142-.911 2.455-.911 3.937 0 1.482.304 2.794.911 3.936a7.46 7.46 0 0 0 2.552 2.734c1.069.656 2.26.984 3.572.984 1.361 0 2.563-.328 3.608-.984a7.162 7.162 0 0 0 2.515-2.734c.608-1.142.912-2.454.912-3.936Zm20.321-9.44c1.507 0 2.795.4 3.864 1.202 1.069.778 1.798 1.944 2.187 3.5l-.511.145.219-.656c.316-.729.839-1.41 1.568-2.041a9.12 9.12 0 0 1 2.551-1.568 7.53 7.53 0 0 1 2.88-.583c1.53 0 2.758.328 3.681.984.948.657 1.628 1.544 2.041 2.661.438 1.094.656 2.333.656 3.718v10.316c0 .291-.109.546-.328.765a.973.973 0 0 1-.765.328c-.316 0-.583-.11-.802-.328a1.119 1.119 0 0 1-.292-.765V34.2c0-.997-.158-1.908-.474-2.734-.315-.826-.814-1.482-1.494-1.968s-1.592-.73-2.734-.73c-.996 0-1.956.244-2.879.73a6.42 6.42 0 0 0-2.224 1.968 4.773 4.773 0 0 0-.838 2.733v10.206c0 .292-.109.547-.328.766a.977.977 0 0 1-.766.328 1.09 1.09 0 0 1-.801-.328 1.114 1.114 0 0 1-.292-.765V34.09c0-.996-.146-1.895-.437-2.697-.292-.802-.766-1.434-1.422-1.895-.656-.486-1.543-.73-2.661-.73-.996 0-1.944.244-2.843.73a5.99 5.99 0 0 0-2.151 1.895 4.758 4.758 0 0 0-.801 2.697v10.316c0 .291-.11.546-.328.765a1.05 1.05 0 0 1-.766.328c-.34 0-.607-.11-.802-.328a1.118 1.118 0 0 1-.291-.765v-16.33c0-.292.097-.547.291-.766.219-.218.486-.328.802-.328.316 0 .571.11.766.328.218.22.328.474.328.766v3.39l-.985 1.348c.073-.729.304-1.458.693-2.187a7.713 7.713 0 0 1 1.604-1.968 7.777 7.777 0 0 1 2.223-1.385 6.69 6.69 0 0 1 2.661-.547Zm38.823-.292c1.653 0 3.111.413 4.374 1.239 1.288.826 2.309 1.968 3.062 3.426.753 1.434 1.13 3.098 1.13 4.994 0 1.847-.377 3.511-1.13 4.994-.753 1.482-1.774 2.648-3.062 3.499-1.288.85-2.733 1.276-4.337 1.276a7.456 7.456 0 0 1-2.442-.401 8.794 8.794 0 0 1-2.078-1.057 8.74 8.74 0 0 1-1.677-1.604 8.069 8.069 0 0 1-1.166-1.969l.656-.473v4.118c0 .316-.109.584-.328.802-.194.195-.45.292-.766.292-.315 0-.583-.097-.801-.292a1.162 1.162 0 0 1-.292-.802V19.657c0-.316.097-.571.292-.765.194-.22.461-.328.801-.328.316 0 .572.109.766.328.219.194.328.45.328.765v12.21l-.51-.29a6.783 6.783 0 0 1 1.057-2.042 8.262 8.262 0 0 1 1.676-1.64 7.3 7.3 0 0 1 2.078-1.057 7.03 7.03 0 0 1 2.369-.401Zm-.182 2.04c-1.312 0-2.466.329-3.463.985-.996.656-1.786 1.555-2.369 2.697-.559 1.142-.838 2.455-.838 3.937 0 1.458.279 2.782.838 3.973.583 1.166 1.373 2.09 2.369 2.77.997.656 2.151.984 3.463.984 1.288 0 2.418-.34 3.39-1.02.996-.68 1.786-1.604 2.369-2.77.583-1.191.875-2.503.875-3.937 0-1.482-.292-2.795-.875-3.937s-1.373-2.04-2.369-2.697c-.972-.656-2.102-.984-3.39-.984Z"/><defs><clipPath id="clip0_8022_27451"><path fill="#fff" d="M0 0h44.175v63H0z"/></clipPath></defs></svg>