<svg xmlns="http://www.w3.org/2000/svg" width="345" height="120" fill="none" viewBox="0 0 345 120"><rect width="343.5" height="118.5" x=".75" y=".75" stroke="#41B883" stroke-width="1.5" rx="9.25"/><path fill="#41B883" fill-rule="evenodd" d="M145.566 35H158l-31.397 54L95 35h12.717l18.886 32.509L145.566 35Z" clip-rule="evenodd"/><path fill="#35495E" fill-rule="evenodd" d="M133.849 35H146l-19.579 33L107 35h11.961l7.46 12.705L133.849 35Z" clip-rule="evenodd"/><path fill="#010101" fill-rule="evenodd" d="M166 45.385c0-.395.221-.725.663-.99a2.665 2.665 0 0 1 1.386-.395c.67 0 1.086.25 1.246.752l7.073 23.513 7.033-23.513c.187-.501.589-.752 1.205-.752.509 0 .985.145 1.427.435.442.29.663.62.663.99a.557.557 0 0 1-.02.119.66.66 0 0 0-.02.158l-8.158 26.323c-.295.765-1.005 1.148-2.13 1.148s-1.808-.383-2.049-1.148l-8.238-26.323a1.27 1.27 0 0 1-.081-.317Zm21.013 20.267V55.361c0-.317.167-.594.502-.832.335-.237.73-.356 1.186-.356.428 0 .81.125 1.145.376.335.25.502.521.502.812v10.29c0 1.188.456 2.257 1.367 3.207.91.95 1.996 1.425 3.255 1.425 1.232 0 2.304-.468 3.215-1.405.91-.937 1.366-2.012 1.366-3.226V55.32c0-.29.167-.554.502-.791.335-.238.73-.357 1.186-.357.482 0 .877.113 1.185.337.308.224.462.495.462.811v10.332c0 2.032-.783 3.807-2.35 5.324-1.568 1.517-3.423 2.276-5.566 2.276-2.17 0-4.039-.759-5.606-2.276-1.568-1.517-2.351-3.292-2.351-5.324Zm18.601-.08v-4.156c0-2.031.783-3.786 2.351-5.264 1.567-1.478 3.449-2.217 5.646-2.217 2.09 0 3.898.693 5.425 2.078 1.527 1.386 2.291 3.12 2.291 5.206 0 .765-.094 1.378-.282 1.84-.187.462-.475.792-.864.99-.388.198-.75.323-1.085.376-.335.053-.783.08-1.346.08h-8.801v1.187c0 1.451.529 2.612 1.587 3.483 1.059.87 2.432 1.306 4.12 1.306.884 0 1.654-.132 2.31-.396.657-.263 1.186-.52 1.588-.771.401-.251.723-.376.964-.376.375 0 .697.165.965.494.267.33.401.667.401 1.01 0 .607-.609 1.227-1.828 1.86s-2.726.95-4.521.95c-2.626 0-4.769-.706-6.43-2.118-1.661-1.411-2.491-3.265-2.491-5.561Zm3.335-3.285h7.435c.696 0 1.165-.085 1.406-.257.241-.171.362-.508.362-1.01 0-1.187-.442-2.23-1.326-3.126-.884-.898-1.969-1.346-3.255-1.346-1.26 0-2.345.415-3.255 1.247-.911.83-1.367 1.853-1.367 3.067v1.425Zm14.061 8.827c0-.58.201-1.075.602-1.484a2.003 2.003 0 0 1 1.487-.614c.563 0 1.045.205 1.447.614.402.41.603.904.603 1.484 0 .555-.201 1.036-.603 1.445a1.956 1.956 0 0 1-1.447.614 2.003 2.003 0 0 1-1.487-.614 1.997 1.997 0 0 1-.602-1.445Zm2.968 9.461c0-.422.134-.772.402-1.049.268-.277.59-.416.965-.416 1.045 0 1.728-.382 2.049-1.147.322-.766.482-1.914.482-3.444V55.32c0-.343.155-.62.463-.832.308-.21.703-.316 1.185-.316.482 0 .884.105 1.206.316.321.212.482.489.482.832v19.198c0 2.296-.455 4.116-1.366 5.462S229.555 82 227.706 82c-1.152 0-1.728-.475-1.728-1.425Zm3.456-33.448c0-.502.201-.937.603-1.306.402-.37.898-.555 1.487-.555.563 0 1.045.185 1.447.555.402.369.603.804.603 1.306 0 .501-.201.943-.603 1.326a2.024 2.024 0 0 1-1.447.574 2.095 2.095 0 0 1-1.467-.574c-.415-.383-.623-.825-.623-1.326Zm6.264 23.116c0-.343.114-.68.342-1.01.228-.329.502-.494.824-.494.214 0 .522.158.924.475.402.317.978.627 1.728.93.75.304 1.634.456 2.652.456 1.34 0 2.311-.238 2.914-.713.603-.475.904-1.069.904-1.781 0-.871-.335-1.564-1.005-2.078-.669-.515-1.486-.904-2.451-1.168a60.073 60.073 0 0 1-2.893-.87 5.614 5.614 0 0 1-2.452-1.584c-.67-.74-1.004-1.716-1.004-2.93 0-1.504.542-2.803 1.627-3.898 1.085-1.096 2.739-1.643 4.963-1.643 1.42 0 2.719.218 3.898.653 1.179.435 1.768.93 1.768 1.484 0 .317-.127.673-.381 1.07-.255.395-.57.593-.945.593-.107 0-.623-.191-1.547-.574-.924-.383-1.842-.574-2.753-.574-1.232 0-2.15.284-2.753.851-.602.567-.904 1.207-.904 1.92 0 .739.335 1.32 1.005 1.742.67.422 1.494.752 2.471.99.978.237 1.949.527 2.914.87.964.343 1.782.93 2.451 1.761.67.832 1.005 1.907 1.005 3.227 0 1.636-.589 2.929-1.768 3.879-1.179.95-2.827 1.425-4.943 1.425-1.822 0-3.376-.324-4.662-.97-1.286-.647-1.929-1.326-1.929-2.039Z" clip-rule="evenodd"/></svg>