<svg xmlns="http://www.w3.org/2000/svg" width="90" height="35" fill="none" viewBox="0 0 90 35"><path fill="#FDD9DA" d="M72.857.18H17.143C7.675.18 0 7.79 0 17.18c0 9.389 7.675 17 17.143 17h55.714c9.468 0 17.143-7.611 17.143-17 0-9.39-7.675-17-17.143-17Z"/><path fill="#B52E31" fill-rule="evenodd" d="M32.572 20.802v-7.458h.967l4.596 6.002v-6.002h.92v7.458h-.968l-4.596-6.061v6.061h-.919ZM46.539 20.507a5.625 5.625 0 0 1-1.958.343c-2.722 0-4.083-1.29-4.083-3.883 0-2.45 1.313-3.682 3.94-3.682.752 0 1.456.107 2.1.308v.829a5.505 5.505 0 0 0-1.993-.367c-2.053 0-3.08.97-3.08 2.888 0 2.072 1.015 3.102 3.032 3.102.323 0 .68-.047 1.075-.13v-2.498h.967v3.09ZM48.092 17.925v-4.581h.967v4.581c0 1.433.716 2.155 2.16 2.155 1.433 0 2.161-.722 2.161-2.155v-4.581h.967v4.581c0 1.953-1.038 2.936-3.128 2.936-2.089 0-3.127-.983-3.127-2.936ZM57.043 13.344v6.677h3.94v.781h-4.907v-7.458h.967ZM62.382 20.804h-1.015l3.737-8.44 3.736 8.44h-1.074l-.967-2.344h-2.483l.262-.781h1.899l-1.41-3.374-2.685 6.5ZM69.875 20.802v-7.458h3.211c1.433 0 2.15.592 2.15 1.787 0 .971-.705 1.693-2.102 2.155l2.579 3.516h-1.278l-2.387-3.35v-.628c1.432-.225 2.16-.77 2.16-1.645 0-.687-.394-1.03-1.193-1.03h-2.15v6.653h-.99Z" clip-rule="evenodd"/><path fill="#E23237" fill-rule="evenodd" d="m14.57 11.407 7.614-2.727L30 11.36l-1.263 10.113-6.552 3.64-6.445-3.593-1.169-10.113Z" clip-rule="evenodd"/><path fill="#B52E31" fill-rule="evenodd" d="m30 11.36-7.814-2.68v16.433l6.551-3.64L30 11.359Z" clip-rule="evenodd"/><path fill="#fff" fill-rule="evenodd" d="m22.195 10.602-4.746 10.6 1.77-.036.957-2.395H24.414l1.039 2.419 1.688.035-4.946-10.623Zm.011 3.402 1.606 3.368h-3.01l1.404-3.367Z" clip-rule="evenodd"/></svg>