<svg xmlns="http://www.w3.org/2000/svg" width="90" height="35" fill="none" viewBox="0 0 90 35"><g clip-path="url(#clip0_4477_51058)"><path fill="#FBEFD1" d="M0 17.18c0-9.39 7.611-17 17-17h55.25c9.389 0 17 7.61 17 17 0 9.389-7.611 17-17 17H17c-9.389 0-17-7.611-17-17Z"/><path fill="#F3BA2F" d="m18.142 16.23 2.344-2.31 2.345 2.313 1.363-1.345-3.708-3.658-3.709 3.657 1.364 1.344ZM14.45 17.18l1.363-1.344 1.364 1.344-1.364 1.345-1.364-1.345ZM18.142 18.13l2.344 2.311 2.345-2.312 1.364 1.343v.001l-3.71 3.657-3.708-3.655-.002-.002 1.367-1.343ZM23.791 17.18l1.364-1.344 1.363 1.344-1.363 1.345-1.364-1.345Z"/><path fill="#F3BA2F" d="m21.868 17.181-1.383-1.365-1.023 1.009-.118.116-.242.238-.002.002.002.003 1.383 1.363 1.383-1.366ZM28.646 14.113h2.967c.736 0 1.293.188 1.67.564a1.455 1.455 0 0 1 .438 1.064v.018a1.456 1.456 0 0 1-.513 1.147 1.707 1.707 0 0 1-.323.216c.334.114.634.308.874.564.212.238.319.567.319.987v.018a1.62 1.62 0 0 1-.17.757c-.112.217-.278.403-.482.541a2.31 2.31 0 0 1-.758.325 4.13 4.13 0 0 1-.981.108h-3.04v-6.309Zm2.67 2.551c.257.012.512-.042.74-.158a.55.55 0 0 0 .273-.51v-.017a.55.55 0 0 0-.237-.482c-.158-.111-.387-.166-.686-.166h-1.388v1.333h1.298Zm.375 2.543c.255.014.51-.044.734-.167a.574.574 0 0 0 .265-.519v-.018a.587.587 0 0 0-.247-.5c-.164-.125-.43-.188-.795-.188h-1.63v1.392h1.672ZM35.846 14.113h1.408v6.31h-1.408v-6.31ZM39.385 14.113h1.298l3.001 3.884v-3.884h1.39v6.31h-1.198l-3.1-4.01v4.01h-1.391v-6.31ZM49.337 14.07h1.297l2.743 6.356h-1.47l-.586-1.416h-2.706l-.586 1.416h-1.435l2.743-6.356Zm1.482 3.715-.852-2.047-.849 2.047h1.701ZM54.898 14.113h1.299l3 3.884v-3.884h1.39v6.31h-1.2l-3.099-4.01v4.01h-1.39v-6.31ZM65.654 20.535a3.371 3.371 0 0 1-1.307-.252 3.165 3.165 0 0 1-1.041-.689 3.115 3.115 0 0 1-.688-1.033 3.3 3.3 0 0 1-.247-1.272v-.018a3.25 3.25 0 0 1 .934-2.303c.297-.302.654-.541 1.048-.703a3.463 3.463 0 0 1 1.353-.257c.274-.002.548.022.818.073.23.043.456.109.673.198.197.081.384.184.558.306.17.12.329.252.476.397L67.336 16a3.406 3.406 0 0 0-.763-.524 1.975 1.975 0 0 0-.873-.188 1.792 1.792 0 0 0-1.334.577 1.975 1.975 0 0 0-.386.627 2.121 2.121 0 0 0-.136.762v.018c0 .26.045.518.136.762.087.231.216.445.382.63a1.781 1.781 0 0 0 1.335.587c.32.01.64-.058.927-.199.274-.147.528-.329.754-.54l.896.892c-.158.17-.33.326-.512.47-.179.14-.374.26-.58.356a3.04 3.04 0 0 1-.69.225 4.17 4.17 0 0 1-.838.079ZM69.936 14.113h4.817v1.235H71.32v1.28h3.022v1.235h-3.018v1.326H74.8v1.235h-4.862l-.002-6.31Z"/></g><defs><clipPath id="clip0_4477_51058"><path fill="#fff" d="M0 .18h90v34H0z"/></clipPath></defs></svg>