<svg xmlns="http://www.w3.org/2000/svg" width="90" height="34" fill="none" viewBox="0 0 90 34"><path fill="#E6E3EC" d="M68 0H16C7.163 0 0 7.611 0 17s7.163 17 16 17h52c8.837 0 16-7.611 16-17S76.837 0 68 0Z"/><g clip-path="url(#clip0_8022_27536)"><path fill="#000" d="m18.677 8-2.893 5.143H10L12.892 8h5.785Z" opacity=".45"/><path fill="#554E94" d="M15.783 13.143h5.785L18.677 8H12.89l2.892 5.143Z" opacity=".6"/><path fill="#3F3988" d="m12.892 18.284 2.892-5.14L12.89 8 10 13.143l2.892 5.141Z" opacity=".8"/><path fill="#000" d="m12.918 26 2.894-5.143h5.785l-2.893 5.144h-5.786Z" opacity=".45"/><path fill="#7671A8" d="M15.813 20.857h-5.786l2.892 5.144h5.785l-2.891-5.144Z" opacity=".6"/><path fill="#3F3988" d="m18.703 15.715-2.893 5.141L18.703 26l2.893-5.143-2.893-5.141Z" opacity=".8"/></g><mask id="path-8-outside-1_8022_27536" width="50" height="15" x="24" y="11" fill="#000" maskUnits="userSpaceOnUse"><path fill="#fff" d="M24 11h50v15H24z"/><path d="M31.183 19.553c0-.274-.046-.518-.137-.732a1.486 1.486 0 0 0-.451-.574 3.193 3.193 0 0 0-.834-.478c-.346-.15-.78-.299-1.299-.445a11.859 11.859 0 0 1-1.347-.465 4.703 4.703 0 0 1-1.032-.58 2.297 2.297 0 0 1-.65-.766 2.25 2.25 0 0 1-.225-1.033c0-.382.082-.731.246-1.045a2.45 2.45 0 0 1 .69-.814c.302-.228.655-.403 1.06-.526.41-.123.86-.185 1.347-.185.697 0 1.299.132 1.805.397.51.264.904.622 1.182 1.073.283.446.424.948.424 1.504h-.84a2.18 2.18 0 0 0-.308-1.155 2.045 2.045 0 0 0-.875-.8c-.379-.196-.841-.294-1.388-.294-.547 0-1.007.084-1.38.253-.37.164-.65.385-.842.663-.187.273-.28.579-.28.916 0 .237.046.455.137.656.09.196.239.38.444.554.21.168.485.328.827.478a9.35 9.35 0 0 0 1.265.417c.528.146.998.308 1.408.486.41.177.757.382 1.04.615.282.228.496.494.642.8.146.305.219.66.219 1.066s-.087.77-.26 1.094a2.35 2.35 0 0 1-.718.813 3.38 3.38 0 0 1-1.087.513 4.937 4.937 0 0 1-1.36.178c-.442 0-.882-.057-1.32-.171a4.077 4.077 0 0 1-1.203-.527 2.783 2.783 0 0 1-.868-.93c-.214-.378-.321-.829-.321-1.353h.834c0 .42.084.773.253 1.06.168.287.392.52.67.697.282.178.592.308.93.39.341.077.683.116 1.025.116.524 0 .977-.078 1.36-.233.387-.154.686-.37.895-.649.215-.282.322-.61.322-.984Zm2.723-1.135v-.226c0-.537.078-1.034.233-1.49.155-.456.376-.85.663-1.183.291-.332.64-.59 1.046-.772.405-.187.856-.28 1.353-.28.502 0 .955.093 1.36.28.406.182.755.44 1.046.773.292.332.515.726.67 1.182.155.456.233.953.233 1.49v.226c0 .538-.078 1.035-.233 1.49a3.47 3.47 0 0 1-.67 1.176 3.03 3.03 0 0 1-1.039.78 3.265 3.265 0 0 1-1.353.273c-.502 0-.955-.091-1.36-.274a3.1 3.1 0 0 1-1.046-.779 3.47 3.47 0 0 1-.67-1.176 4.601 4.601 0 0 1-.233-1.49Zm.814-.226v.226c0 .406.054.79.164 1.155.11.36.269.682.478.964.21.278.47.497.78.656.31.16.667.24 1.073.24.4 0 .754-.08 1.06-.24.31-.16.57-.378.779-.656.21-.282.367-.604.471-.964.11-.364.165-.75.165-1.155v-.226c0-.4-.055-.781-.165-1.141a2.94 2.94 0 0 0-.478-.964 2.299 2.299 0 0 0-.78-.67 2.245 2.245 0 0 0-1.066-.246c-.4 0-.756.082-1.066.246a2.387 2.387 0 0 0-.78.67c-.21.282-.369.604-.478.964a4.06 4.06 0 0 0-.157 1.141Zm9.094-6.692V22h-.813V11.5h.813Zm3.845 3.104V22h-.814v-7.396h.814Zm-.957-2.14c0-.155.048-.285.143-.39.1-.11.237-.164.41-.164.174 0 .31.055.41.164a.53.53 0 0 1 .158.39.54.54 0 0 1-.567.547.54.54 0 0 1-.41-.157.572.572 0 0 1-.144-.39Zm8.698 8.1V11.5h.82V22h-.765l-.055-1.436Zm-5.134-2.187v-.144c0-.574.066-1.091.198-1.551.132-.465.322-.862.568-1.19a2.518 2.518 0 0 1 2.091-1.025c.433 0 .816.07 1.149.212.333.141.617.344.854.608.242.264.436.579.581.943.15.365.26.77.328 1.217v1.826a4.52 4.52 0 0 1-.3 1.155c-.146.346-.34.65-.581.909a2.504 2.504 0 0 1-.875.595 3.092 3.092 0 0 1-1.17.205c-.437 0-.83-.091-1.182-.274a2.59 2.59 0 0 1-.895-.772 3.776 3.776 0 0 1-.568-1.197 5.484 5.484 0 0 1-.198-1.517Zm.82-.144v.144c0 .433.044.834.13 1.203.087.37.219.69.397.964.177.273.403.488.676.642.274.155.597.233.971.233.47 0 .864-.089 1.183-.267.319-.182.574-.421.765-.717.192-.301.33-.63.417-.985v-2.126a4.486 4.486 0 0 0-.239-.738 2.54 2.54 0 0 0-.43-.69 1.904 1.904 0 0 0-.684-.513c-.274-.132-.606-.198-.998-.198-.378 0-.704.077-.978.232a1.978 1.978 0 0 0-.683.65c-.178.273-.31.594-.397.963-.086.37-.13.77-.13 1.203Zm8.897-3.63V22h-.814v-7.396h.814Zm-.957-2.14c0-.154.047-.284.143-.389.1-.11.237-.164.41-.164s.31.055.41.164a.53.53 0 0 1 .158.39.54.54 0 0 1-.567.547.54.54 0 0 1-.41-.157.572.572 0 0 1-.144-.39Zm6.688 2.14v.67h-3.705v-.67h3.705Zm-2.345-1.9h.814v7.5c0 .34.045.598.136.772a.71.71 0 0 0 .356.348c.146.06.303.09.472.09.122 0 .241-.008.355-.021.114-.019.216-.037.308-.055l.034.69c-.1.032-.23.057-.39.075-.16.023-.319.035-.478.035-.315 0-.593-.057-.834-.171-.242-.119-.431-.32-.568-.602-.136-.287-.205-.677-.205-1.169v-7.492Zm6.955 8.559 2.304-6.659h.882l-3.131 8.586a6.643 6.643 0 0 1-.246.561 2.599 2.599 0 0 1-.383.588c-.155.191-.351.346-.588.465-.233.123-.517.184-.855.184-.086 0-.198-.011-.335-.034a2.002 2.002 0 0 1-.287-.055l-.007-.69a2.504 2.504 0 0 0 .417.048c.297 0 .545-.05.746-.15.205-.1.376-.251.512-.452.137-.196.258-.442.363-.738l.608-1.654Zm-2.153-6.659 2.358 6.351.219.855-.595.335-2.871-7.54h.889Z"/></mask><path fill="#4C4787" d="M31.183 19.553c0-.274-.046-.518-.137-.732a1.486 1.486 0 0 0-.451-.574 3.193 3.193 0 0 0-.834-.478c-.346-.15-.78-.299-1.299-.445a11.859 11.859 0 0 1-1.347-.465 4.703 4.703 0 0 1-1.032-.58 2.297 2.297 0 0 1-.65-.766 2.25 2.25 0 0 1-.225-1.033c0-.382.082-.731.246-1.045a2.45 2.45 0 0 1 .69-.814c.302-.228.655-.403 1.06-.526.41-.123.86-.185 1.347-.185.697 0 1.299.132 1.805.397.51.264.904.622 1.182 1.073.283.446.424.948.424 1.504h-.84a2.18 2.18 0 0 0-.308-1.155 2.045 2.045 0 0 0-.875-.8c-.379-.196-.841-.294-1.388-.294-.547 0-1.007.084-1.38.253-.37.164-.65.385-.842.663-.187.273-.28.579-.28.916 0 .237.046.455.137.656.09.196.239.38.444.554.21.168.485.328.827.478a9.35 9.35 0 0 0 1.265.417c.528.146.998.308 1.408.486.41.177.757.382 1.04.615.282.228.496.494.642.8.146.305.219.66.219 1.066s-.087.77-.26 1.094a2.35 2.35 0 0 1-.718.813 3.38 3.38 0 0 1-1.087.513 4.937 4.937 0 0 1-1.36.178c-.442 0-.882-.057-1.32-.171a4.077 4.077 0 0 1-1.203-.527 2.783 2.783 0 0 1-.868-.93c-.214-.378-.321-.829-.321-1.353h.834c0 .42.084.773.253 1.06.168.287.392.52.67.697.282.178.592.308.93.39.341.077.683.116 1.025.116.524 0 .977-.078 1.36-.233.387-.154.686-.37.895-.649.215-.282.322-.61.322-.984Zm2.723-1.135v-.226c0-.537.078-1.034.233-1.49.155-.456.376-.85.663-1.183.291-.332.64-.59 1.046-.772.405-.187.856-.28 1.353-.28.502 0 .955.093 1.36.28.406.182.755.44 1.046.773.292.332.515.726.67 1.182.155.456.233.953.233 1.49v.226c0 .538-.078 1.035-.233 1.49a3.47 3.47 0 0 1-.67 1.176 3.03 3.03 0 0 1-1.039.78 3.265 3.265 0 0 1-1.353.273c-.502 0-.955-.091-1.36-.274a3.1 3.1 0 0 1-1.046-.779 3.47 3.47 0 0 1-.67-1.176 4.601 4.601 0 0 1-.233-1.49Zm.814-.226v.226c0 .406.054.79.164 1.155.11.36.269.682.478.964.21.278.47.497.78.656.31.16.667.24 1.073.24.4 0 .754-.08 1.06-.24.31-.16.57-.378.779-.656.21-.282.367-.604.471-.964.11-.364.165-.75.165-1.155v-.226c0-.4-.055-.781-.165-1.141a2.94 2.94 0 0 0-.478-.964 2.299 2.299 0 0 0-.78-.67 2.245 2.245 0 0 0-1.066-.246c-.4 0-.756.082-1.066.246a2.387 2.387 0 0 0-.78.67c-.21.282-.369.604-.478.964a4.06 4.06 0 0 0-.157 1.141Zm9.094-6.692V22h-.813V11.5h.813Zm3.845 3.104V22h-.814v-7.396h.814Zm-.957-2.14c0-.155.048-.285.143-.39.1-.11.237-.164.41-.164.174 0 .31.055.41.164a.53.53 0 0 1 .158.39.54.54 0 0 1-.567.547.54.54 0 0 1-.41-.157.572.572 0 0 1-.144-.39Zm8.698 8.1V11.5h.82V22h-.765l-.055-1.436Zm-5.134-2.187v-.144c0-.574.066-1.091.198-1.551.132-.465.322-.862.568-1.19a2.518 2.518 0 0 1 2.091-1.025c.433 0 .816.07 1.149.212.333.141.617.344.854.608.242.264.436.579.581.943.15.365.26.77.328 1.217v1.826a4.52 4.52 0 0 1-.3 1.155c-.146.346-.34.65-.581.909a2.504 2.504 0 0 1-.875.595 3.092 3.092 0 0 1-1.17.205c-.437 0-.83-.091-1.182-.274a2.59 2.59 0 0 1-.895-.772 3.776 3.776 0 0 1-.568-1.197 5.484 5.484 0 0 1-.198-1.517Zm.82-.144v.144c0 .433.044.834.13 1.203.087.37.219.69.397.964.177.273.403.488.676.642.274.155.597.233.971.233.47 0 .864-.089 1.183-.267.319-.182.574-.421.765-.717.192-.301.33-.63.417-.985v-2.126a4.486 4.486 0 0 0-.239-.738 2.54 2.54 0 0 0-.43-.69 1.904 1.904 0 0 0-.684-.513c-.274-.132-.606-.198-.998-.198-.378 0-.704.077-.978.232a1.978 1.978 0 0 0-.683.65c-.178.273-.31.594-.397.963-.086.37-.13.77-.13 1.203Zm8.897-3.63V22h-.814v-7.396h.814Zm-.957-2.14c0-.154.047-.284.143-.389.1-.11.237-.164.41-.164s.31.055.41.164a.53.53 0 0 1 .158.39.54.54 0 0 1-.567.547.54.54 0 0 1-.41-.157.572.572 0 0 1-.144-.39Zm6.688 2.14v.67h-3.705v-.67h3.705Zm-2.345-1.9h.814v7.5c0 .34.045.598.136.772a.71.71 0 0 0 .356.348c.146.06.303.09.472.09.122 0 .241-.008.355-.021.114-.019.216-.037.308-.055l.034.69c-.1.032-.23.057-.39.075-.16.023-.319.035-.478.035-.315 0-.593-.057-.834-.171-.242-.119-.431-.32-.568-.602-.136-.287-.205-.677-.205-1.169v-7.492Zm6.955 8.559 2.304-6.659h.882l-3.131 8.586a6.643 6.643 0 0 1-.246.561 2.599 2.599 0 0 1-.383.588c-.155.191-.351.346-.588.465-.233.123-.517.184-.855.184-.086 0-.198-.011-.335-.034a2.002 2.002 0 0 1-.287-.055l-.007-.69a2.504 2.504 0 0 0 .417.048c.297 0 .545-.05.746-.15.205-.1.376-.251.512-.452.137-.196.258-.442.363-.738l.608-1.654Zm-2.153-6.659 2.358 6.351.219.855-.595.335-2.871-7.54h.889Z"/><path fill="#000" d="m30.595 18.247-.065.076.002.002.063-.078Zm-.834-.478-.04.091h.002l.038-.091Zm-1.299-.445-.027.096.027-.096Zm-2.379-1.046-.061.08.061-.08Zm-.65-.765-.088.045.089-.045Zm.712-2.892-.06-.08h-.001l.06.08Zm1.06-.526-.03-.096.03.096Zm3.15.212-.046.088.047-.088Zm1.183 1.073-.085.052v.001l.085-.053Zm.424 1.504v.1h.1v-.1h-.1Zm-.84 0h-.1v.1h.1v-.1Zm-.308-1.155-.087.05.001.002.086-.053Zm-.875-.8-.046.088v.001l.046-.09Zm-2.769-.041.04.091h.001l-.04-.091Zm-.84.663-.083-.057.082.057Zm-.144 1.572-.091.041v.001l.09-.042Zm.444.554-.064.076.001.002.063-.078Zm.827.478-.04.092h.001l.04-.092Zm1.265.417.026-.096-.026.096Zm2.447 1.1-.063.078.063-.077Zm.602 2.96-.088-.046.088.047Zm-.718.814-.059-.08.059.08Zm-1.087.513-.027-.096.027.096Zm-3.883-.52-.055.084.055-.084Zm-.868-.93-.087.05.087-.05Zm-.321-1.353v-.1h-.1v.1h.1Zm.834 0h.1v-.1h-.1v.1Zm.253 1.06-.087.05.087-.05Zm.67.697-.054.084.054-.084Zm.93.39-.024.097h.001l.022-.097Zm2.385-.117-.037-.092.037.092Zm.895-.649-.08-.06.08.06Zm.422-.984c0-.285-.048-.542-.145-.77l-.184.077c.085.2.129.43.129.693h.2Zm-.145-.77a1.587 1.587 0 0 0-.48-.614l-.126.156c.2.16.338.339.422.535l.184-.078Zm-.479-.612a3.289 3.289 0 0 0-.86-.495l-.076.185c.345.143.613.298.807.462l.13-.152Zm-.858-.494c-.352-.153-.79-.302-1.312-.45l-.054.194c.517.145.945.291 1.286.44l.08-.184Zm-1.311-.449c-.494-.14-.94-.294-1.336-.46l-.077.184c.405.17.858.326 1.358.468l.055-.192Zm-1.336-.46a4.607 4.607 0 0 1-1.01-.57l-.121.16c.295.225.646.422 1.054.594l.077-.185Zm-1.01-.569a2.198 2.198 0 0 1-.621-.732l-.178.091c.158.306.384.573.677.8l.122-.159Zm-.621-.732a2.151 2.151 0 0 1-.215-.987h-.2c0 .405.078.765.237 1.078l.178-.09Zm-.215-.987c0-.367.079-.7.235-1l-.177-.092c-.172.33-.258.695-.258 1.092h.2Zm.235-1c.157-.3.377-.56.663-.78l-.122-.158a2.55 2.55 0 0 0-.718.846l.177.093Zm.662-.78c.29-.22.633-.39 1.028-.51L27.175 12c-.415.126-.78.307-1.09.542l.12.16Zm1.028-.51c.4-.12.839-.18 1.318-.18v-.2a4.77 4.77 0 0 0-1.375.189l.057.191Zm1.318-.18c.685 0 1.27.13 1.758.385l.093-.177c-.523-.273-1.141-.408-1.851-.408v.2Zm1.759.385a2.84 2.84 0 0 1 1.143 1.037l.17-.105a3.04 3.04 0 0 0-1.221-1.11l-.092.178Zm1.144 1.038c.272.43.408.913.408 1.45h.2c0-.573-.146-1.093-.44-1.557l-.168.107Zm.508 1.35h-.84v.2h.84v-.2Zm-.74.1c0-.449-.107-.852-.323-1.206l-.17.104c.194.32.292.686.292 1.103h.2Zm-.322-1.205a2.144 2.144 0 0 0-.917-.839l-.09.18c.368.183.645.436.834.76l.173-.101Zm-.915-.838c-.396-.205-.876-.305-1.434-.305v.2c.535 0 .981.096 1.342.283l.092-.178Zm-1.434-.305c-.557 0-1.032.085-1.422.261l.082.183c.358-.161.803-.244 1.34-.244v-.2Zm-1.421.261c-.383.17-.68.402-.883.698l.165.114c.179-.26.443-.47.799-.629l-.081-.183Zm-.883.698c-.199.29-.298.616-.298.973h.2c0-.318.088-.603.263-.86l-.165-.113Zm-.298.973c0 .25.048.483.146.697l.182-.082a1.468 1.468 0 0 1-.128-.615h-.2Zm.146.698c.099.212.257.408.47.588l.13-.153a1.545 1.545 0 0 1-.419-.52l-.18.085Zm.472.59c.219.175.503.34.85.492l.08-.183a3.603 3.603 0 0 1-.804-.465l-.126.156Zm.851.492c.348.149.774.289 1.278.422l.051-.193a9.25 9.25 0 0 1-1.25-.413l-.079.184Zm1.277.422c.525.145.99.305 1.395.48l.08-.183c-.415-.18-.89-.343-1.422-.49l-.053.193Zm1.395.48c.404.175.742.376 1.016.601l.127-.154a4.445 4.445 0 0 0-1.063-.63l-.08.183Zm1.016.602c.272.219.477.474.615.765l.181-.086a2.392 2.392 0 0 0-.67-.835l-.126.156Zm.615.765c.139.29.21.63.21 1.023h.2c0-.418-.076-.788-.229-1.11l-.18.087Zm.21 1.023c0 .391-.084.74-.248 1.047l.176.094c.182-.34.271-.72.271-1.14h-.2Zm-.249 1.047a2.25 2.25 0 0 1-.688.78l.117.161c.322-.231.572-.514.748-.848l-.177-.093Zm-.688.78a3.28 3.28 0 0 1-1.055.497l.054.192a3.479 3.479 0 0 0 1.119-.528l-.118-.161Zm-1.055.497a4.838 4.838 0 0 1-1.333.174v.2c.5 0 .963-.06 1.387-.182l-.054-.192Zm-1.333.174c-.434 0-.865-.056-1.295-.168l-.05.194c.446.116.894.174 1.345.174v-.2Zm-1.295-.168a3.974 3.974 0 0 1-1.173-.513l-.11.167c.375.243.786.423 1.233.54l.05-.194Zm-1.172-.513a2.681 2.681 0 0 1-.837-.896l-.174.1c.227.391.527.712.9.963l.11-.167Zm-.837-.896c-.204-.36-.308-.793-.308-1.304h-.2c0 .538.11 1.007.334 1.403l.174-.099Zm-.408-1.204h.834v-.2h-.834v.2Zm.734-.1c0 .433.087.805.266 1.11l.173-.1c-.158-.27-.24-.604-.24-1.01h-.2Zm.266 1.11c.177.301.411.545.703.731l.107-.168a1.944 1.944 0 0 1-.637-.664l-.173.102Zm.703.732c.292.183.612.317.96.402l.047-.194a3.016 3.016 0 0 1-.9-.378l-.107.17Zm.961.402c.349.08.698.119 1.048.119v-.2c-.335 0-.669-.038-1.004-.114l-.044.195Zm1.048.119c.533 0 1-.079 1.397-.24l-.075-.185c-.368.149-.808.225-1.322.225v.2Zm1.397-.24c.401-.16.716-.387.938-.682l-.16-.12c-.196.26-.478.467-.852.617l.074.185Zm.938-.681c.228-.301.342-.651.342-1.045h-.2c0 .353-.1.66-.301.924l.16.12Zm3.86-5.078-.074-.066.075.066Zm1.047-.773.04.091h.002l-.042-.09Zm2.714 0-.042.09v.001l.041-.09Zm1.715 1.955-.094.032.094-.032Zm0 3.206.095.033-.095-.033Zm-.67 1.176-.075-.066.075.066Zm-1.039.78.041.09h.001l-.042-.09Zm-2.713 0-.042.09.041-.09Zm-1.716-1.956-.095.032.095-.032Zm.745-.335-.096.029.096-.029Zm.478.964-.08.06.08-.06Zm.78.656-.046.09.046-.09Zm2.132 0-.045-.089.045.09Zm.78-.656.08.06-.08-.06Zm.471-.964-.095-.029v.001l.095.028Zm0-2.522-.096.028.096-.028Zm-.478-.964-.08.06.08-.06Zm-2.912-.67-.047-.088.047.088Zm-.78.67-.08-.06.08.06Zm-.478.964-.096-.03v.002l.096.028Zm-.87 1.367v-.226h-.2v.226h.2Zm0-.226c0-.528.075-1.013.226-1.458l-.189-.064a4.7 4.7 0 0 0-.238 1.522h.2Zm.226-1.458c.152-.444.367-.827.645-1.15l-.152-.13a3.623 3.623 0 0 0-.682 1.216l.19.064Zm.644-1.149c.282-.321.62-.57 1.012-.747l-.082-.182a3.121 3.121 0 0 0-1.08.798l.15.131Zm1.012-.747c.392-.18.828-.271 1.312-.271v-.2c-.51 0-.975.096-1.395.29l.084.18Zm1.312-.271c.489 0 .928.09 1.319.27l.083-.18a3.314 3.314 0 0 0-1.402-.29v.2Zm1.32.271c.392.177.73.426 1.011.748l.15-.132a3.122 3.122 0 0 0-1.08-.798l-.081.182Zm1.011.748c.283.321.5.704.65 1.148l.19-.064a3.56 3.56 0 0 0-.69-1.216l-.15.131Zm.65 1.148c.152.445.228.93.228 1.458h.2a4.7 4.7 0 0 0-.238-1.522l-.19.064Zm.228 1.458v.226h.2v-.226h-.2Zm0 .226c0 .528-.076 1.014-.227 1.458l.189.064c.159-.467.238-.975.238-1.522h-.2Zm-.227 1.458c-.151.44-.368.82-.65 1.142l.15.132c.3-.343.53-.747.689-1.21l-.19-.064Zm-.651 1.143a2.93 2.93 0 0 1-1.005.754l.083.181a3.129 3.129 0 0 0 1.073-.805l-.151-.13Zm-1.005.753a3.166 3.166 0 0 1-1.312.265v.2c.51 0 .974-.094 1.394-.282l-.082-.183Zm-1.312.265c-.49 0-.928-.09-1.32-.265l-.082.183c.42.188.888.282 1.402.282v-.2Zm-1.319-.264a3.001 3.001 0 0 1-1.012-.755l-.15.132a3.2 3.2 0 0 0 1.079.804l.083-.181Zm-1.012-.755a3.372 3.372 0 0 1-.65-1.142l-.19.065c.159.462.389.866.69 1.209l.15-.132Zm-.65-1.142a4.503 4.503 0 0 1-.228-1.458h-.2c0 .547.08 1.055.238 1.522l.19-.064Zm.386-1.684v.226h.2v-.226h-.2Zm0 .226c0 .415.056.81.168 1.184l.192-.058a3.9 3.9 0 0 1-.16-1.126h-.2Zm.168 1.184c.113.37.277.702.494.995l.16-.12a3.028 3.028 0 0 1-.462-.933l-.192.058Zm.495.995c.218.29.49.519.813.685l.091-.178a2.157 2.157 0 0 1-.745-.627l-.16.12Zm.813.685c.326.168.7.25 1.119.25v-.2c-.392 0-.734-.076-1.028-.228l-.091.178Zm1.119.25c.414 0 .784-.082 1.106-.25l-.093-.177c-.289.15-.626.228-1.013.228v.2Zm1.105-.25a2.36 2.36 0 0 0 .814-.685l-.16-.12c-.2.266-.449.475-.745.627l.091.178Zm.814-.685c.217-.293.38-.625.487-.996l-.192-.056c-.101.35-.254.66-.456.932l.161.12Zm.487-.995c.112-.375.168-.77.168-1.184h-.2a3.9 3.9 0 0 1-.16 1.127l.192.057Zm.168-1.184v-.226h-.2v.226h.2Zm0-.226c0-.41-.056-.8-.168-1.17l-.191.058c.106.35.16.72.16 1.112h.2Zm-.168-1.17a3.038 3.038 0 0 0-.494-.995l-.16.12c.207.273.36.583.462.932l.192-.056Zm-.494-.995a2.398 2.398 0 0 0-.813-.698l-.093.176c.297.157.545.37.746.641l.16-.119Zm-.813-.698a2.345 2.345 0 0 0-1.113-.258v.2c.387 0 .726.079 1.02.234l.093-.176Zm-1.113-.258c-.415 0-.787.085-1.113.258l.094.176a2.145 2.145 0 0 1 1.02-.234v-.2Zm-1.114.258a2.486 2.486 0 0 0-.811.697l.16.121c.205-.271.454-.485.746-.642l-.095-.176Zm-.812.698a3.226 3.226 0 0 0-.494.995l.192.058c.106-.35.26-.66.463-.933l-.16-.12Zm-.494.996c-.108.37-.161.76-.161 1.17h.2c0-.393.051-.764.153-1.114l-.192-.056Zm9.033-5.523h.1v-.1h-.1v.1Zm0 10.5v.1h.1V22h-.1Zm-.813 0h-.1v.1h.1V22Zm0-10.5v-.1h-.1v.1h.1Zm.713 0V22h.2V11.5h-.2Zm.1 10.4h-.813v.2h.813v-.2Zm-.713.1V11.5h-.2V22h.2ZM43 11.6h.813v-.2h-.813v.2Zm4.658 3.004h.1v-.1h-.1v.1Zm0 7.396v.1h.1V22h-.1Zm-.814 0h-.1v.1h.1V22Zm0-7.396v-.1h-.1v.1h.1Zm0-2.53-.073-.067.073.067Zm.82 0-.073.068.003.003.07-.07Zm0 .78-.072-.07.073.07Zm-.82 0-.075.065.003.004.072-.07Zm.714 1.75V22h.2v-7.396h-.2Zm.1 7.296h-.814v.2h.814v-.2Zm-.714.1v-7.396h-.2V22h.2Zm-.1-7.296h.814v-.2h-.814v.2Zm-.043-2.24c0-.133.04-.238.117-.322l-.147-.135a.656.656 0 0 0-.17.457h.2Zm.117-.322a.43.43 0 0 1 .337-.132v-.2a.628.628 0 0 0-.484.197l.147.135Zm.337-.132a.43.43 0 0 1 .336.132l.147-.135a.628.628 0 0 0-.483-.197v.2Zm.339.135a.43.43 0 0 1 .128.319h.2a.629.629 0 0 0-.187-.46l-.141.14Zm.128.319c0 .124-.042.23-.13.32l.145.139a.644.644 0 0 0 .185-.46h-.2Zm-.13.32a.442.442 0 0 1-.338.127v.2a.64.64 0 0 0 .483-.188l-.145-.139Zm-.338.127a.442.442 0 0 1-.337-.127l-.145.139a.64.64 0 0 0 .482.188v-.2Zm-.334-.123a.472.472 0 0 1-.12-.324h-.2c0 .174.057.327.17.455l.15-.131Zm8.479 7.776h-.1v.004l.1-.004Zm0-9.064v-.1h-.1v.1h.1Zm.82 0h.1v-.1h-.1v.1Zm0 10.5v.1h.1V22h-.1Zm-.765 0-.1.004.003.096h.097V22Zm-4.99-5.318.095.027-.096-.027Zm.567-1.19-.08-.06.08.06Zm.902-.759.044.09h.001l-.045-.09Zm3.192.554-.074.067.074-.067Zm.581.943-.092.038.092-.038Zm.328 1.217h.1v-.015l-.1.015Zm0 1.826.1.012v-.012h-.1Zm-.3 1.155.092.038-.092-.038Zm-.581.909.072.069v-.001l-.072-.068Zm-.875.595.037.092-.037-.092Zm-3.247-.841-.081.059.08-.06Zm.184-1.51-.097.022.097-.023Zm3.227 1.571.048.088h.001l-.05-.088Zm.765-.717.084.054-.084-.054Zm.417-.985.097.024.003-.012v-.012h-.1Zm0-2.126h.1v-.011l-.002-.01-.098.021Zm-.67-1.429-.076.064.001.002.075-.066Zm-.683-.512-.044.09h.002l.042-.09Zm-2.66.683-.083-.054.084.054Zm-.396.964-.097-.023.097.023Zm4.284 3.534V11.5h-.2v9.064h.2Zm-.1-8.964h.82v-.2h-.82v.2Zm.72-.1V22h.2V11.5h-.2Zm.1 10.4h-.765v.2h.765v-.2Zm-.666.096-.054-1.435-.2.007.055 1.436.2-.008Zm-5.188-3.619v-.144h-.2v.144h.2Zm0-.144c0-.566.065-1.074.194-1.524l-.192-.055c-.135.47-.202.998-.202 1.58h.2Zm.194-1.524c.13-.455.314-.84.552-1.157l-.16-.12c-.255.34-.449.748-.584 1.222l.192.055Zm.551-1.157c.242-.32.531-.563.867-.729l-.088-.18c-.366.181-.679.445-.938.789l.16.12Zm.868-.73c.335-.17.716-.255 1.144-.255v-.2c-.455 0-.868.091-1.234.277l.09.179Zm1.144-.255c.423 0 .792.069 1.11.204l.078-.184a3.016 3.016 0 0 0-1.188-.22v.2Zm1.11.204c.32.135.592.33.819.583l.149-.134a2.483 2.483 0 0 0-.89-.633l-.078.184Zm.82.584c.232.254.42.558.562.913l.185-.075c-.15-.374-.35-.7-.6-.973l-.148.135Zm.562.914c.147.356.254.754.322 1.193l.197-.03a5.38 5.38 0 0 0-.334-1.24l-.185.077Zm.32 1.178v1.826h.2v-1.826h-.2Zm.001 1.813a4.425 4.425 0 0 1-.294 1.13l.185.076c.15-.36.252-.754.308-1.18l-.199-.027Zm-.293 1.129c-.142.336-.33.63-.563.88l.147.136c.25-.269.45-.582.6-.939l-.184-.077Zm-.562.88a2.407 2.407 0 0 1-.84.57l.076.185c.354-.146.658-.352.91-.618l-.146-.138Zm-.84.57c-.323.13-.7.198-1.131.198v.2c.452 0 .855-.07 1.206-.213l-.075-.185Zm-1.131.198c-.423 0-.801-.088-1.137-.262l-.092.177c.367.19.777.285 1.229.285v-.2Zm-1.137-.262a2.491 2.491 0 0 1-.861-.744l-.16.12c.254.344.564.611.929.801l.092-.178Zm-.86-.743a3.68 3.68 0 0 1-.553-1.165l-.192.055c.135.47.329.88.583 1.228l.161-.118Zm-.553-1.165a5.383 5.383 0 0 1-.194-1.49h-.2c0 .56.067 1.075.202 1.545l.192-.055Zm.426-1.634v.144h.2v-.144h-.2Zm0 .144c0 .44.044.848.133 1.226l.195-.046a5.163 5.163 0 0 1-.128-1.18h-.2Zm.133 1.226c.089.378.225.71.41.995l.167-.109a2.917 2.917 0 0 1-.382-.932l-.195.046Zm.41.995c.186.287.423.512.711.675l.099-.174a1.84 1.84 0 0 1-.642-.61l-.168.11Zm.711.675c.291.166.632.246 1.02.246v-.2c-.36 0-.666-.075-.921-.22l-.099.174Zm1.02.246c.482 0 .894-.091 1.231-.28l-.097-.174c-.3.167-.677.254-1.134.254v.2Zm1.232-.28c.333-.19.6-.44.8-.75l-.168-.109c-.182.283-.425.51-.73.686l.098.173Zm.8-.75c.198-.311.341-.65.43-1.015l-.194-.047a3.153 3.153 0 0 1-.404.954l.169.107Zm.433-1.039v-2.126h-.2v2.126h.2Zm-.002-2.148a4.581 4.581 0 0 0-.245-.755l-.184.078c.103.245.18.486.234.721l.195-.044Zm-.245-.755c-.109-.26-.258-.5-.447-.717l-.151.131c.175.202.313.423.414.664l.184-.078Zm-.446-.715a2.004 2.004 0 0 0-.718-.54l-.084.182c.266.122.481.284.649.485l.153-.127Zm-.717-.54c-.29-.14-.638-.207-1.041-.207v.2c.38 0 .698.064.954.188l.087-.18Zm-1.041-.207c-.392 0-.736.08-1.027.245l.099.174c.255-.145.563-.22.928-.22v-.2Zm-1.027.245a2.077 2.077 0 0 0-.718.682l.167.11c.174-.266.39-.471.65-.618l-.099-.174Zm-.718.682a3.119 3.119 0 0 0-.41.995l.195.046c.084-.36.212-.67.383-.932l-.168-.11Zm-.41.995a5.362 5.362 0 0 0-.133 1.226h.2c0-.426.043-.82.128-1.18l-.195-.046Zm8.864-2.404h.1v-.1h-.1v.1Zm0 7.397v.1h.1V22h-.1Zm-.814 0h-.1v.1h.1V22Zm0-7.396v-.1h-.1v.1h.1Zm0-2.53-.074-.067.074.067Zm.82 0-.073.068.003.003.07-.07Zm0 .78-.072-.07.072.07Zm-.82 0-.075.065.003.004.072-.07Zm.714 1.75V22h.2v-7.396h-.2Zm.1 7.296h-.814v.2h.814v-.2Zm-.714.1v-7.396h-.2V22h.2Zm-.1-7.296h.814v-.2h-.814v.2Zm-.043-2.24c0-.133.04-.238.117-.322l-.148-.135a.656.656 0 0 0-.17.457h.2Zm.117-.322a.43.43 0 0 1 .336-.132v-.2a.628.628 0 0 0-.484.197l.148.135Zm.336-.132a.43.43 0 0 1 .337.132l.147-.135a.628.628 0 0 0-.484-.197v.2Zm.34.135a.43.43 0 0 1 .128.319h.2a.629.629 0 0 0-.187-.46l-.141.14Zm.128.319c0 .124-.043.23-.13.32l.145.139a.643.643 0 0 0 .185-.46h-.2Zm-.13.32a.442.442 0 0 1-.338.127v.2a.64.64 0 0 0 .483-.188l-.145-.139Zm-.338.127a.442.442 0 0 1-.338-.127l-.144.139a.64.64 0 0 0 .482.188v-.2Zm-.335-.123a.472.472 0 0 1-.118-.324h-.2c0 .174.056.327.168.455l.15-.131Zm6.47 1.816h.1v-.1h-.1v.1Zm0 .67v.1h.1v-.1h-.1Zm-3.705 0h-.1v.1h.1v-.1Zm0-.67v-.1h-.1v.1h.1Zm1.36-1.9v-.1h-.1v.1h.1Zm.814 0h.1v-.1h-.1v.1Zm.136 8.27-.088.047.088-.046Zm1.183.418.012.099h.004l-.016-.1Zm.308-.055.1-.005-.006-.116-.114.023.02.098Zm.034.69.03.096.073-.024-.003-.077-.1.005Zm-.39.075-.011-.099h-.003l.014.1Zm-1.312-.136-.044.09.044-.09Zm-.568-.602-.09.043.09-.043Zm2.04-6.76v.67h.2v-.67h-.2Zm.1.57h-3.705v.2h3.705v-.2Zm-3.605.1v-.67h-.2v.67h.2Zm-.1-.57h3.705v-.2h-3.705v.2Zm1.36-1.9h.814v-.2h-.814v.2Zm.714-.1v7.498h.2v-7.499h-.2Zm0 7.498c0 .348.045.625.148.82l.177-.094c-.08-.152-.125-.39-.125-.726h-.2Zm.148.82a.81.81 0 0 0 .406.394l.075-.185a.612.612 0 0 1-.304-.303l-.177.093Zm.406.394c.159.064.329.096.51.096v-.2c-.157 0-.302-.027-.435-.081l-.075.185Zm.51.096c.126 0 .249-.007.367-.021l-.024-.199c-.11.013-.224.02-.343.02v.2Zm.37-.022c.116-.018.22-.037.312-.055l-.039-.196a8.19 8.19 0 0 1-.304.054l.032.197Zm.193-.148.034.69.2-.01-.035-.69-.2.01Zm.103.59c-.091.03-.214.053-.37.071l.023.199c.162-.019.3-.045.408-.08l-.06-.19Zm-.373.072a3.27 3.27 0 0 1-.464.033v.2c.164 0 .328-.012.492-.035l-.028-.199Zm-.464.033c-.303 0-.566-.055-.792-.162l-.085.181c.257.121.55.18.877.18v-.2Zm-.79-.161c-.219-.107-.393-.29-.522-.555l-.18.087c.145.299.349.518.614.648l.088-.18Zm-.522-.555c-.127-.268-.195-.641-.195-1.126h-.2c0 .5.07.906.215 1.212l.18-.086Zm-.195-1.126v-7.492h-.2v7.492h.2Zm6.855 1.067.094.034v-.002l-.094-.032Zm2.304-6.659v-.1h-.072l-.023.068.095.033Zm.882 0 .093.035.05-.134h-.143v.1Zm-3.131 8.586.093.036v-.001l-.093-.035Zm-.246.561-.09-.044-.001.002.09.042Zm-.383.588-.076-.065-.002.002.078.063Zm-.588.465-.045-.09-.002.001.047.089Zm-1.19.15.017-.099h-.003l-.014.1Zm-.287-.055-.1.001.001.073.07.022.03-.096Zm-.007-.69.027-.096-.128-.035.002.132.1-.001Zm1.163-.102-.044-.09h-.001l.045.09Zm.512-.452-.082-.057v.001l.082.056Zm.363-.738-.094-.035v.002l.094.033Zm-1.545-8.313.093-.034-.024-.066h-.07v.1Zm2.358 6.351.097-.025-.003-.01-.094.035Zm.219.855.049.087.067-.038-.02-.074-.096.025Zm-.595.335-.093.035.041.109.101-.057-.049-.087Zm-2.871-7.54v-.1h-.145l.052.135.093-.035Zm3.136 6.69 2.304-6.658-.189-.065-2.303 6.658.188.065Zm2.21-6.59h.882v-.2h-.882v.2Zm.788-.135-3.131 8.586.188.069 3.13-8.586-.187-.069Zm-3.13 8.585a6.59 6.59 0 0 1-.243.552l.18.088c.1-.207.184-.397.25-.57l-.188-.07Zm-.244.554a2.497 2.497 0 0 1-.368.565l.152.13c.165-.193.297-.397.397-.61l-.181-.085Zm-.37.567c-.145.18-.33.326-.555.438l.09.18c.248-.125.456-.289.62-.492l-.155-.126Zm-.557.44c-.214.113-.482.172-.808.172v.2c.35 0 .651-.063.902-.196l-.094-.177Zm-.808.172c-.078 0-.184-.01-.318-.032l-.033.197c.14.023.257.035.351.035v-.2Zm-.32-.033a1.948 1.948 0 0 1-.272-.051l-.06.191c.068.02.17.04.304.058l.027-.198Zm-.202.043-.007-.69-.2.002.007.69.2-.002Zm-.133-.592c.059.015.138.027.236.037l.019-.2a1.292 1.292 0 0 1-.202-.03l-.053.193Zm.236.037c.095.009.166.014.207.014v-.2c-.03 0-.092-.004-.188-.013l-.02.199Zm.207.014c.308 0 .572-.052.79-.161l-.09-.179c-.182.092-.414.14-.7.14v.2Zm.79-.16c.221-.11.405-.271.55-.485l-.164-.113a1.213 1.213 0 0 1-.474.418l.088.18Zm.55-.485c.144-.205.268-.46.375-.762l-.189-.066c-.102.29-.22.527-.35.714l.164.114Zm.374-.76.609-1.655-.188-.069-.608 1.654.188.07Zm-1.732-8.313 2.358 6.35.188-.069-2.359-6.35-.187.07Zm2.355 6.34.219.855.194-.05-.219-.854-.194.05Zm.267.743-.595.335.098.175.595-.335-.098-.175Zm-.452.387-2.871-7.54-.187.071 2.87 7.54.188-.071Zm-2.965-7.405h.889v-.2h-.889v.2Z" mask="url(#path-8-outside-1_8022_27536)"/><defs><clipPath id="clip0_8022_27536"><path fill="#fff" d="M10 8h11.599v18H10z"/></clipPath></defs></svg>