<svg xmlns="http://www.w3.org/2000/svg" width="176" height="44" fill="none" viewBox="0 0 176 44"><path fill="#BBCE00" d="M158 4.518v3.105c8.355 1.355 9.691 6.962 9.315 9.597h3.104c0-10.387-8.279-12.796-12.419-12.702ZM11.942 16.594c1.612 0 3.037.236 4.277.707 1.264.471 2.455 1.178 3.57 2.12l-2.9 3.459c-.77-.595-1.525-1.042-2.27-1.34a6.348 6.348 0 0 0-2.38-.446c-1.735 0-3.111.732-4.128 2.195-.992 1.463-1.487 3.719-1.487 6.769 0 3 .495 5.231 1.487 6.694 1.017 1.438 2.418 2.157 4.203 2.157.942 0 1.797-.173 2.566-.52.769-.372 1.6-.893 2.492-1.563l2.715 3.497c-.967.966-2.145 1.76-3.533 2.38-1.364.62-2.876.93-4.538.93-2.38 0-4.45-.521-6.21-1.562-1.761-1.042-3.137-2.58-4.129-4.612C.71 35.4.227 32.934.227 30.058c0-2.802.495-5.22 1.487-7.253 1.017-2.033 2.405-3.57 4.166-4.611 1.785-1.067 3.806-1.6 6.062-1.6Zm16.38 27.039c-1.71 0-3.05-.484-4.016-1.45-.943-.993-1.414-2.394-1.414-4.203V15.404l5.877-.632v22.984c0 .819.334 1.228 1.004 1.228.347 0 .67-.062.967-.186l1.153 4.165c-1.067.447-2.257.67-3.57.67Zm23.579-10.897c0 .818-.037 1.524-.111 2.12H39.554c.198 1.66.67 2.826 1.413 3.495.744.67 1.773 1.005 3.087 1.005.793 0 1.562-.137 2.306-.41.744-.297 1.55-.743 2.417-1.338l2.418 3.272c-2.306 1.835-4.872 2.753-7.699 2.753-3.198 0-5.653-.943-7.364-2.827-1.71-1.884-2.566-4.413-2.566-7.587 0-2.008.36-3.806 1.079-5.393.719-1.611 1.772-2.876 3.16-3.793 1.39-.943 3.05-1.414 4.985-1.414 2.85 0 5.082.893 6.694 2.678s2.417 4.265 2.417 7.439Zm-5.764-1.674c-.05-3.025-1.116-4.538-3.199-4.538-1.016 0-1.81.372-2.38 1.116-.545.744-.88 1.971-1.004 3.682h6.583v-.26Zm26.516-7.81L66.44 43h-6.954l-6.36-19.748h6.397l3.496 15.285 3.645-15.285h5.987Zm19.744 9.484c0 .818-.037 1.524-.112 2.12H80.05c.199 1.66.67 2.826 1.414 3.495.743.67 1.772 1.005 3.087 1.005.793 0 1.562-.137 2.305-.41.744-.297 1.55-.743 2.418-1.338l2.417 3.272c-2.306 1.835-4.872 2.753-7.698 2.753-3.199 0-5.654-.943-7.364-2.827-1.711-1.884-2.567-4.413-2.567-7.587 0-2.008.36-3.806 1.079-5.393.719-1.611 1.773-2.876 3.161-3.793 1.389-.943 3.05-1.414 4.984-1.414 2.851 0 5.083.893 6.695 2.678 1.611 1.785 2.417 4.265 2.417 7.439Zm-5.765-1.674c-.05-3.025-1.116-4.538-3.198-4.538-1.017 0-1.81.372-2.38 1.116-.546.744-.88 1.971-1.005 3.682h6.583v-.26Zm20.521-8.368c.719 0 1.376.087 1.971.26l-.93 5.69c-.743-.173-1.339-.26-1.785-.26-1.165 0-2.058.41-2.678 1.227-.595.794-1.066 1.996-1.413 3.608V43h-5.876V23.252h5.132l.484 3.83c.446-1.363 1.115-2.43 2.008-3.198.917-.794 1.946-1.19 3.087-1.19Zm12.388-.074c1.364 0 2.591.198 3.682.594 1.091.397 2.12 1.005 3.087 1.823l-2.529 3.496c-1.24-.942-2.492-1.414-3.756-1.414-1.314 0-2.306.484-2.976 1.451-.669.967-1.004 2.529-1.004 4.686 0 2.083.335 3.558 1.004 4.426.67.868 1.637 1.302 2.901 1.302.67 0 1.277-.1 1.823-.298.545-.223 1.202-.57 1.971-1.041l2.566 3.644c-1.959 1.563-4.178 2.344-6.657 2.344-2.008 0-3.744-.422-5.207-1.265a8.79 8.79 0 0 1-3.384-3.608c-.794-1.561-1.191-3.384-1.191-5.467 0-2.082.397-3.93 1.191-5.541.793-1.612 1.921-2.864 3.384-3.757 1.463-.917 3.161-1.376 5.095-1.376Zm15.863.632V43h-5.876V23.252h5.876Zm-2.975-10.414c1.016 0 1.847.322 2.492.967.669.62 1.004 1.413 1.004 2.38 0 .967-.335 1.773-1.004 2.418-.645.62-1.476.93-2.492.93-1.017 0-1.847-.31-2.492-.93-.645-.645-.967-1.45-.967-2.418 0-.967.322-1.76.967-2.38.645-.645 1.475-.967 2.492-.967Zm20.724 29.232c-.719.496-1.562.88-2.529 1.154-.942.272-1.884.409-2.827.409-4.314-.025-6.471-2.405-6.471-7.141v-9.15h-2.789v-4.09h2.789v-4.277l5.876-.67v4.947h4.538l-.632 4.09h-3.906v9.075c0 .918.149 1.575.447 1.972.297.396.768.595 1.413.595.669 0 1.376-.211 2.12-.633l1.971 3.72Zm8.582-18.818V43h-5.877V23.252h5.877Zm-2.976-10.414c1.017 0 1.848.322 2.492.967.67.62 1.004 1.413 1.004 2.38 0 .967-.334 1.773-1.004 2.418-.644.62-1.475.93-2.492.93-1.016 0-1.847-.31-2.491-.93-.645-.645-.967-1.45-.967-2.418 0-.967.322-1.76.967-2.38.644-.645 1.475-.967 2.491-.967Z"/><path fill="#BBCE00" d="M158 0v2.823c11.968 1.58 14.395 10.255 14.113 14.395h3.105C174.089 3.444 163.269 0 158 0Z"/></svg>