<svg xmlns="http://www.w3.org/2000/svg" width="292" height="76" fill="none" viewBox="0 0 292 76"><g clip-path="url(#clip0_3596_25880)"><path fill="#0D2D44" d="M65.651.097c6.36 2.797 10.014 7.863 12.062 14.255 2.871 8.906 6.066 17.743 6.467 27.224.51 11.692-5.281 20.198-14.56 26.308-5.468 3.605-18.363 7.2-18.363 7.2l-6.173.838L43 76c-3 0-4.315.166-6.5-.078C23 74 14.56 69.228 7.986 58.92c-1.813-2.846-3.547-4.872-6.957-4.999-1.548-2.835.529-3.975 2.596-5.154-.872-1.374-2.782-.731-3.586-2.008v-1.948c9.074-2.7 8.496-10.718 9.348-17.539.666-5.398-.108-10.922 1.519-16.3C14.11.38 23.017-2.252 31.483 5.027c2.753 2.367 4.566 5.456 6.399 8.486 1.597 2.65 3.537 3.84 6.8 3.42 3.263-.419 5.595-1.305 6.3-4.871a30.645 30.645 0 0 1 1.872-4.98C54.314 3.43 56.577.732 60.693.079l4.958.02Z"/><path fill="#0F2E45" d="M285.23 46.77c-3.302 4.326-9.975 5.524-12.62 2.26-1.049-1.276-2.235-2.553-.794-4.229 1.44-1.675 2.626-.438 3.919.156 1.049.487 1.715 2.232 3.293.975 1.342-1.043 2.116-2.115.274-3.4a15.689 15.689 0 0 0-2.773-1.9c-3.547-1.443-5.879-3.645-4.772-7.747.813-3.07 5.673-5.232 9.799-4.414 1.53.435 3.014 1.02 4.429 1.744v2.923c-1.186 2.436-3.547 1.686-6.742 2.105 5.899 2.543 7.31 6.49 5.987 11.527Z"/><path fill="#F6F7F8" d="M285.228 46.769c.98-4.872-1.088-8.107-5.536-10.133-.98-.439-3.067-.575-2.136-2.436.656-1.306 2.155-1.14 3.449-.526a4.924 4.924 0 0 0 5.007-.526v13.64h-.392l-.392-.019Z"/><path fill="#0E2E45" d="M164.519 50.667a11.513 11.513 0 0 1-4.447-.57 11.466 11.466 0 0 1-3.886-2.224 11.38 11.38 0 0 1-3.886-7.846c-.156-6.499 4.9-11.77 10.916-11.692 7.271.078 12.052 4.755 11.896 11.634-.157 6.879-4.086 10.698-10.593 10.698ZM138.044 50.881c-6.438-.136-11.622-4.501-11.553-9.743.078-6.275 5.575-12.034 11.327-12.073 7.065 0 10.514 6.412 10.602 11.556.098 6.392-4.321 10.387-10.376 10.26ZM246.7 49.38a2.568 2.568 0 0 1-1.744 1.199c-1.284.195-2.783.273-3.018-1.54-.48-3.73-3.175-3.195-5.81-3.331-2.94-.156-2.94 1.461-3.107 3.585-.166 2.124-2.234 1.325-3.498 1.325a1.81 1.81 0 0 1-1.73-.755 1.786 1.786 0 0 1-.102-1.876c2.116-5.056.98-10.795 3.968-15.765 2.685-4.51 6.565-5.592 9.133-1.159a40.116 40.116 0 0 1 5.908 18.318Z"/><path fill="#0F2F45" d="M205.703 39.11c-.98-5.846 3.341-10.113 8.034-11.692 3.097-1.023 5.723 0 7.751 2.514a2.6 2.6 0 0 1 .128 3.137c-.755 1.394-1.96 1.218-2.94.77-1.764-.799-3.038-2.923-5.34-.38-2.068 2.27-2.94 4.54-2.342 7.425.823 4.16 2.939 5.154 7.29 3.897 1.489-.419 3.479-.555 4.243 1.374.872 2.222-1.068 3.498-2.538 3.946-6.634 2.046-13.718-.321-14.306-8.613-.029-.76.02-1.54.02-2.377ZM116.163 50.667c-5.173 0-8.819-2.67-9.7-7.883-1.372-8.33.813-13.124 7.211-15.706 2.881-1.16 5.047 0 7.291 1.325a2.937 2.937 0 0 1 1.557 1.816 2.908 2.908 0 0 1-.323 2.364c-.833 1.393-2.587 1.267-3.86.224-2.803-2.29-4.782-.224-6.134 1.559a7.445 7.445 0 0 0-.275 8.642c1.254 2.134 2.999 3.508 5.615 2.777 1.96-.555 4.419-2.923 4.968 1.18.47 3.556-2.401 3.556-4.9 3.702h-1.45Z"/><path fill="#102F46" d="M257.548 29.143c2.596 0 5.203-.156 7.78.059 1.362.116 3.165.526 2.939 2.474a2.57 2.57 0 0 1-.997 1.926 2.609 2.609 0 0 1-2.119.5c-3.919-.662-4.184 1.404-3.919 4.405a64.107 64.107 0 0 1 0 8.223c-.088 1.88 0 4.034-2.94 3.985-2.822-.048-3.047-1.86-3.028-3.946 0-2.25-.088-4.52.098-6.771.294-3.761.059-6.821-5.134-5.847a2.663 2.663 0 0 1-2.133-.37 2.633 2.633 0 0 1-1.14-1.832c-.353-2.124 1.646-2.28 2.871-2.475 2.548-.4 5.174-.37 7.771-.516l-.049.185ZM179.56 38.195c0-2.25-.108-4.52 0-6.762.107-1.744.979-3.205 2.939-3.118a3.078 3.078 0 0 1 2.173 1.02 3.047 3.047 0 0 1 .767 2.264c.078 3.06.078 6.129-.147 9.169-.255 3.39.98 4.725 4.468 4.111 2.166-.38 4.684-.233 4.831 2.465.157 2.992-2.665 2.7-4.684 2.758-9.23.273-10.416-1.101-10.347-11.907Z"/><path fill="#FCFCFC" d="M36.529 59.631a15.13 15.13 0 0 1-7.986-1.9c-2.263-1.383-3.547-3.42-2.94-6.109.569-2.504 2.509-3.722 4.9-4.014a74.755 74.755 0 0 1 9.181-.76c3.42 0 6.075 1.598 6.565 5.232.53 3.985-2.4 5.778-5.448 7.093-1.215.556-2.822.332-4.272.458Z"/><path fill="#F7F8F9" d="M49.061 48.396c.206-2.728.98-6.275 5.066-6.362 4.086-.088 5.252 3.478 5.213 6.82 0 3.07-.578 6.577-4.782 6.636-4.204.058-5.566-2.64-5.497-7.094Z"/><path fill="#F5F6F7" d="M23.616 47.9c-.539 3.663-.843 7.336-5.164 7.482-3.753.137-4.9-2.874-4.752-6.021.147-3.147.108-7.113 4.546-7.386 4.047-.244 4.704 3.215 5.37 5.924Z"/><path fill="#E0E4E7" d="M72.304 47.744c-1.332-.293-3.606.906-3.665-1.14-.058-2.047 2.372-1.783 3.87-1.783 1.5 0 4.126-.81 4.136 1.14-.01 2.27-2.812 1.247-4.34 1.783Z"/><path fill="#ECEEF0" d="M71.961 50.384c1.52.546 4.018-.263 4.292 2.066.186 1.55-1.744 1.257-2.665.926-1.676-.604-4.498.35-4.811-2.008-.186-1.627 1.989-.799 3.184-.984Z"/><path fill="#FBFCFC" d="M157.76 40.221c-.079-4.19 2.126-6.82 5.771-6.752 4.106.107 5.987 2.3 6.017 6.382 0 3.39-1.392 5.593-4.743 6.12-2.783.438-7.045-3.236-7.045-5.75Z"/><path fill="#FBFBFB" d="M142.709 40.368c-.412 2.923-.892 6.284-4.665 6.187-3.106-.078-5.879-2.65-5.506-5.603.303-2.514 0-6.586 4.723-6.927 4.977-.37 4.673 3.342 5.448 6.343Z"/><path fill="#D0D6DB" d="M236.519 35.34c-.166 2.017 2.646 3.244 1.284 5.183a2.255 2.255 0 0 1-2.195.088c-1.617-1.91 1.313-3.361.911-5.271Z"/><path fill="#19374D" d="M36.501 57c-1.393 0-4.174.468-3.626-1.783.784-3.186 4.175-4.141 7.34-4.434 1.509-.146 3.331.156 2.831 2.193-.793 3.264-3.545 3.524-6.545 4.024Z"/><path fill="#234055" d="M56 49.264c-.304 1.237.235 3.244-1.813 3.254-2.048.01-1.96-1.949-1.872-3.274.088-1.5.098-3.897 1.96-3.897 1.862 0 1.626 2.328 1.724 3.917Z"/><path fill="#264357" d="M18.362 45.094c.402.146.627.156.696.263a5.979 5.979 0 0 1 0 6.713 1.447 1.447 0 0 1-1.235 0c-1.49-2.494-.97-4.774.539-6.976Z"/></g><defs><clipPath id="clip0_3596_25880"><path fill="#fff" d="M0 0h292v76H0z"/></clipPath></defs></svg>