<svg xmlns="http://www.w3.org/2000/svg" width="159" height="57" fill="none" viewBox="0 0 159 57"><path fill="#262626" d="M72.182 27.37c.139 0 .262.046.369.14l1.002.94a5.474 5.474 0 0 1-2.052 1.367c-.806.317-1.777.475-2.911.475-1.015 0-1.93-.15-2.742-.45a6.13 6.13 0 0 1-2.07-1.252 5.447 5.447 0 0 1-1.324-1.916 6.38 6.38 0 0 1-.454-2.43c0-.89.164-1.703.492-2.44a5.59 5.59 0 0 1 1.38-1.914 6.39 6.39 0 0 1 2.137-1.245c.825-.3 1.74-.45 2.741-.45.996 0 1.879.142 2.647.426.776.284 1.434.655 1.976 1.113l-.85 1.023a.702.702 0 0 1-.199.172.59.59 0 0 1-.321.074.735.735 0 0 1-.293-.066c-.101-.049-.212-.106-.331-.172a8.624 8.624 0 0 0-.416-.229 3.422 3.422 0 0 0-.549-.22 4.39 4.39 0 0 0-.728-.173 5.357 5.357 0 0 0-.945-.073c-.612 0-1.172.095-1.683.286a3.61 3.61 0 0 0-1.305.818c-.365.355-.649.792-.85 1.31-.202.513-.303 1.1-.303 1.76 0 .665.107 1.257.321 1.776.221.518.517.954.89 1.31.37.354.809.627 1.313.818a4.673 4.673 0 0 0 1.626.278c.347 0 .659-.017.936-.05.284-.032.542-.084.775-.155.24-.07.464-.16.672-.27.214-.114.425-.254.633-.417a.795.795 0 0 1 .199-.115.503.503 0 0 1 .217-.049ZM77.469 23.222c.302-.502.661-.895 1.077-1.179.416-.289.908-.434 1.475-.434.448 0 .807.085 1.078.254l-.151 1.514a.394.394 0 0 1-.142.213.42.42 0 0 1-.237.057c-.094 0-.236-.013-.425-.04a3.631 3.631 0 0 0-.539-.042c-.258 0-.488.033-.69.099a1.818 1.818 0 0 0-.548.286c-.158.12-.3.267-.426.442-.12.175-.233.374-.34.598v5.172h-2.335v-8.397h1.37c.24 0 .407.038.502.114.094.071.157.202.189.393l.142.95ZM91.511 21.766 86.226 32.47a.747.747 0 0 1-.274.319c-.107.076-.274.115-.5.115h-1.74l1.815-3.372-3.924-7.767h2.052c.183 0 .325.038.425.114a.743.743 0 0 1 .237.262l2.06 4.354c.07.148.127.295.171.442.05.148.098.297.142.45l.17-.45a5.96 5.96 0 0 1 .189-.45l1.947-4.346c.05-.109.133-.199.247-.27a.762.762 0 0 1 .397-.106h1.871ZM95.382 27.985c.265.278.551.475.86.59.316.114.656.171 1.022.171.352 0 .67-.057.955-.172.283-.114.523-.289.718-.524.202-.234.356-.529.463-.884.108-.36.161-.782.161-1.268 0-.491-.047-.906-.142-1.244-.088-.344-.218-.622-.387-.835a1.509 1.509 0 0 0-.624-.466 2.153 2.153 0 0 0-.823-.148c-.485 0-.898.09-1.238.27-.34.175-.662.423-.965.745v3.765Zm-.122-5.074a4.99 4.99 0 0 1 1.352-.942c.504-.24 1.096-.36 1.776-.36.53 0 1.012.096 1.447.287.442.19.819.469 1.134.835.323.36.568.807.738 1.342.176.53.264 1.137.264 1.825 0 .627-.097 1.209-.292 1.743a4.068 4.068 0 0 1-.842 1.392 3.8 3.8 0 0 1-1.314.924c-.51.219-1.084.328-1.72.328-.543 0-1.006-.071-1.39-.213a3.528 3.528 0 0 1-1.03-.606v3.438h-2.336v-11.14h1.428c.303 0 .5.124.595.37l.19.777ZM107.28 30.293c-.844 0-1.494-.204-1.948-.613-.448-.415-.671-.985-.671-1.711v-4.69h-.993a.495.495 0 0 1-.321-.106c-.089-.071-.132-.177-.132-.32v-.801l1.56-.221.491-2.292a.445.445 0 0 1 .18-.254.59.59 0 0 1 .34-.09h1.21v2.644h2.591v1.44h-2.591v4.55c0 .263.073.467.218.615.151.147.356.22.615.22.144 0 .264-.013.358-.04.101-.033.187-.066.256-.098l.199-.09a.333.333 0 0 1 .169-.05c.07 0 .127.017.171.05.044.027.091.07.141.13l.7.983c-.34.245-.731.43-1.173.556-.44.126-.897.188-1.37.188ZM115.677 21.635c.72 0 1.372.1 1.957.302a4.343 4.343 0 0 1 1.513.86c.423.37.747.824.974 1.359.227.534.341 1.132.341 1.792 0 .666-.114 1.266-.341 1.8a3.78 3.78 0 0 1-.974 1.367c-.416.377-.92.666-1.513.868-.585.202-1.237.303-1.957.303-.724 0-1.383-.101-1.975-.303a4.366 4.366 0 0 1-1.522-.868 3.942 3.942 0 0 1-.974-1.366c-.227-.535-.341-1.135-.341-1.801 0-.66.114-1.258.341-1.792a3.86 3.86 0 0 1 .974-1.359 4.44 4.44 0 0 1 1.522-.86 6.096 6.096 0 0 1 1.975-.302Zm0 7.096c.807 0 1.403-.235 1.788-.704.39-.47.585-1.157.585-2.063 0-.905-.195-1.596-.585-2.07-.385-.475-.981-.712-1.788-.712-.819 0-1.427.24-1.824.72-.391.474-.586 1.162-.586 2.062 0 .9.195 1.588.586 2.063.397.469 1.005.704 1.824.704ZM127.136 24.276c.467 0 .874-.049 1.22-.147.347-.104.634-.248.861-.434.232-.19.407-.42.52-.687.113-.273.169-.576.169-.909 0-.316-.056-.603-.169-.86a1.706 1.706 0 0 0-.511-.654 2.346 2.346 0 0 0-.86-.41 4.547 4.547 0 0 0-1.23-.146h-1.9v4.247h1.9Zm0-5.95c.915 0 1.706.093 2.374.278.668.186 1.219.445 1.654.778.435.333.757.731.965 1.195.214.464.321.971.321 1.522 0 .573-.11 1.1-.331 1.58a3.326 3.326 0 0 1-.993 1.227c-.44.344-.996.611-1.663.803-.662.19-1.438.286-2.327.286h-1.9v4.166h-2.543V18.326h4.443ZM138.258 21.635c.718 0 1.37.1 1.956.302a4.362 4.362 0 0 1 1.513.86c.422.37.746.824.974 1.359.227.534.34 1.132.34 1.792 0 .666-.113 1.266-.34 1.8-.228.535-.552.99-.974 1.367a4.29 4.29 0 0 1-1.513.868 5.976 5.976 0 0 1-1.956.303c-.726 0-1.385-.101-1.977-.303a4.376 4.376 0 0 1-1.522-.868 3.927 3.927 0 0 1-.973-1.366c-.228-.535-.341-1.135-.341-1.801 0-.66.113-1.258.341-1.792.232-.535.557-.988.973-1.359a4.45 4.45 0 0 1 1.522-.86 6.1 6.1 0 0 1 1.977-.302Zm0 7.096c.806 0 1.402-.235 1.786-.704.391-.47.587-1.157.587-2.063 0-.905-.196-1.596-.587-2.07-.384-.475-.98-.712-1.786-.712-.82 0-1.428.24-1.826.72-.39.474-.586 1.162-.586 2.062 0 .9.196 1.588.586 2.063.398.469 1.006.704 1.826.704ZM149.491 21.635c.719 0 1.371.1 1.958.302a4.348 4.348 0 0 1 1.512.86c.422.37.747.824.974 1.359.227.534.34 1.132.34 1.792 0 .666-.113 1.266-.34 1.8-.227.535-.552.99-.974 1.367-.416.377-.92.666-1.512.868a5.989 5.989 0 0 1-1.958.303c-.724 0-1.383-.101-1.975-.303a4.38 4.38 0 0 1-1.523-.868 3.942 3.942 0 0 1-.974-1.366c-.226-.535-.339-1.135-.339-1.801 0-.66.113-1.258.339-1.792a3.86 3.86 0 0 1 .974-1.359c.423-.371.93-.658 1.523-.86a6.096 6.096 0 0 1 1.975-.302Zm0 7.096c.807 0 1.402-.235 1.787-.704.391-.47.586-1.157.586-2.063 0-.905-.195-1.596-.586-2.07-.385-.475-.98-.712-1.787-.712-.819 0-1.427.24-1.825.72-.39.474-.585 1.162-.585 2.062 0 .9.195 1.588.585 2.063.398.469 1.006.704 1.825.704ZM158.802 18v12.162h-2.335V18h2.335ZM70.607 39.353v5.132h-.704v-3.77c0-.05.002-.105.005-.162l.016-.175-2.035 3.208a.314.314 0 0 1-.29.161h-.115a.314.314 0 0 1-.29-.161l-2.076-3.223c.016.127.025.244.025.351v3.77h-.704v-5.13h.592c.072 0 .127.005.165.017.039.012.076.046.112.1l2.047 3.159c.034.057.065.117.096.179.033.062.063.125.09.19.028-.065.057-.128.088-.19.03-.065.063-.125.099-.183l2.01-3.154c.033-.055.069-.089.108-.1a.638.638 0 0 1 .17-.019h.59ZM75.6 42.58l-.93-2.088a3.942 3.942 0 0 1-.174-.48 3.534 3.534 0 0 1-.178.484l-.93 2.084H75.6Zm1.672 1.905h-.62a.296.296 0 0 1-.175-.047.294.294 0 0 1-.099-.118l-.554-1.239h-2.66l-.554 1.239a.257.257 0 0 1-.095.115.292.292 0 0 1-.174.05h-.62l2.37-5.132h.81l2.37 5.132ZM79.181 41.602h.302c.105 0 .189-.01.252-.032a.467.467 0 0 0 .174-.118l1.973-1.934a.463.463 0 0 1 .174-.129.611.611 0 0 1 .223-.036h.678l-2.258 2.21a1.24 1.24 0 0 1-.161.143.784.784 0 0 1-.162.09.668.668 0 0 1 .203.096.9.9 0 0 1 .178.161l2.358 2.432h-.695a.472.472 0 0 1-.232-.036.497.497 0 0 1-.074-.047.732.732 0 0 1-.058-.064L80.012 42.3a.468.468 0 0 0-.177-.125.802.802 0 0 0-.29-.04h-.364v2.35h-.798v-5.132h.798v2.25ZM84.991 44.485h-.802v-5.132h.802v5.132ZM91.645 39.353v5.132h-.4a.41.41 0 0 1-.162-.029.4.4 0 0 1-.123-.097l-3.43-3.867a4.245 4.245 0 0 1 .017.337v3.656h-.703v-5.132h.413a.506.506 0 0 1 .158.026c.019.007.038.019.057.035.02.015.04.034.063.058l3.428 3.863a8.065 8.065 0 0 0-.016-.179 3.85 3.85 0 0 1-.004-.168v-3.635h.703ZM98.3 42.016v1.97a3.585 3.585 0 0 1-.956.419c-.336.09-.706.136-1.108.136-.477 0-.907-.064-1.29-.19a2.987 2.987 0 0 1-.984-.537 2.367 2.367 0 0 1-.625-.83 2.543 2.543 0 0 1-.22-1.064c0-.392.07-.749.212-1.071.143-.322.345-.598.607-.827.262-.232.581-.41.956-.537.375-.127.794-.19 1.257-.19.234 0 .453.015.654.047a3.145 3.145 0 0 1 1.034.333c.146.078.282.168.41.268l-.228.315a.244.244 0 0 1-.14.093.278.278 0 0 1-.187-.035 6.088 6.088 0 0 1-.227-.122 2.59 2.59 0 0 0-.749-.25 3.252 3.252 0 0 0-.591-.047c-.335 0-.636.047-.906.143-.27.093-.5.228-.69.404-.191.175-.338.387-.44.638a2.187 2.187 0 0 0-.153.838c0 .322.053.61.158.866.107.253.258.47.454.648.199.177.44.312.72.405.281.093.597.14.947.14.276 0 .52-.027.733-.08.215-.054.424-.13.628-.225v-1.128h-.922a.2.2 0 0 1-.128-.04.124.124 0 0 1-.046-.096v-.394h1.82ZM106.47 43.423c.045 0 .083.016.116.047l.319.297a2.526 2.526 0 0 1-.885.57c-.345.136-.762.204-1.253.204a3.37 3.37 0 0 1-1.159-.19 2.627 2.627 0 0 1-.889-.537 2.41 2.41 0 0 1-.571-.83 2.726 2.726 0 0 1-.203-1.064c0-.387.071-.742.212-1.064.14-.322.338-.599.591-.83.257-.232.562-.411.918-.538a3.441 3.441 0 0 1 1.179-.193c.422 0 .794.058 1.117.175.323.117.607.276.852.477l-.265.318a.213.213 0 0 1-.066.061.206.206 0 0 1-.103.022.358.358 0 0 1-.182-.068 2.338 2.338 0 0 0-.716-.312 2.456 2.456 0 0 0-.641-.071c-.306 0-.586.046-.84.14-.254.09-.472.222-.658.397a1.816 1.816 0 0 0-.425.637c-.102.25-.154.534-.154.849 0 .32.053.605.158.855.107.251.252.464.434.638.185.172.401.303.65.394.251.09.52.136.81.136.177 0 .335-.009.476-.025a2.27 2.27 0 0 0 .393-.086 1.8 1.8 0 0 0 .335-.144c.105-.06.208-.13.31-.21a.232.232 0 0 1 .14-.055ZM109.811 41.839c.231 0 .435-.024.612-.072.179-.05.328-.12.446-.208a.899.899 0 0 0 .274-.322.934.934 0 0 0 .09-.412c0-.305-.116-.536-.347-.69-.232-.156-.579-.234-1.042-.234h-.878v1.938h.845Zm2.737 2.646h-.711c-.146 0-.254-.05-.323-.147l-1.538-1.834a.414.414 0 0 0-.153-.121.582.582 0 0 0-.248-.04h-.609v2.142h-.798v-5.132h1.676c.374 0 .699.034.971.1.274.065.498.16.675.284.179.124.312.274.397.45.085.175.128.37.128.588 0 .181-.033.351-.099.509-.067.157-.163.3-.29.426-.124.124-.277.23-.459.318a2.453 2.453 0 0 1-.612.2c.102.051.19.124.265.22l1.728 2.037ZM115.684 42.44v2.045h-.803V42.44l-2.172-3.087h.703c.072 0 .128.016.17.047a.38.38 0 0 1 .107.115l1.357 1.994c.05.084.095.163.137.236.041.072.077.145.107.219.031-.074.065-.147.104-.218.038-.075.081-.153.128-.237l1.352-1.994a.43.43 0 0 1 .104-.111c.044-.034.1-.05.17-.05h.707l-2.171 3.086ZM120.699 42.014c.229 0 .43-.026.604-.079.177-.052.324-.125.442-.218a.922.922 0 0 0 .274-.34c.061-.132.091-.276.091-.434 0-.327-.117-.582-.352-.766-.231-.184-.585-.276-1.059-.276h-.951v2.113h.951Zm0-2.66c.375 0 .701.038.977.114.278.074.508.18.69.319a1.3 1.3 0 0 1 .406.501c.09.196.136.414.136.655 0 .24-.048.458-.145.656a1.437 1.437 0 0 1-.426.512 2.06 2.06 0 0 1-.691.336 3.417 3.417 0 0 1-.947.118h-.951v1.92h-.799v-5.132h1.75ZM128.258 39.937h-1.92v4.548h-.798v-4.548h-1.923v-.584h4.641v.584ZM134.681 41.92c0 .384-.071.737-.211 1.06-.141.32-.34.595-.596.827a2.726 2.726 0 0 1-.927.54 3.55 3.55 0 0 1-1.19.19c-.437 0-.834-.063-1.192-.19a2.75 2.75 0 0 1-.922-.54 2.405 2.405 0 0 1-.596-.828 2.615 2.615 0 0 1-.211-1.06c0-.384.07-.736.211-1.056.141-.322.339-.599.596-.83.257-.234.564-.416.922-.545a3.497 3.497 0 0 1 1.192-.193c.435 0 .833.064 1.19.193.362.13.671.31.927.545.256.231.455.508.596.83.14.32.211.672.211 1.057Zm-.823 0c0-.316-.05-.598-.149-.849a1.734 1.734 0 0 0-.422-.634 1.847 1.847 0 0 0-.662-.4 2.558 2.558 0 0 0-.868-.14c-.317 0-.605.046-.865.14a1.891 1.891 0 0 0-.666.4 1.734 1.734 0 0 0-.422.634c-.099.25-.149.534-.149.849 0 .315.05.598.149.848.099.248.24.46.422.634.185.172.407.304.666.398.26.09.548.136.865.136.319 0 .609-.046.868-.136.259-.094.48-.226.662-.398.182-.174.323-.386.422-.634.099-.25.149-.533.149-.848ZM142.26 43.919l-.005.566h-3.651v-5.132h3.651v.566h-2.85v1.705h2.309v.544h-2.309v1.75h2.855ZM146.858 42.58l-.93-2.088a3.38 3.38 0 0 1-.173-.48 3.631 3.631 0 0 1-.179.484l-.93 2.084h2.212Zm1.672 1.905h-.621a.298.298 0 0 1-.174-.047.293.293 0 0 1-.099-.118l-.554-1.239h-2.659l-.555 1.239a.258.258 0 0 1-.095.115.293.293 0 0 1-.174.05h-.62l2.37-5.132h.81l2.371 5.132ZM152.673 40.154a.285.285 0 0 1-.082.083.195.195 0 0 1-.103.025.315.315 0 0 1-.165-.061 2.612 2.612 0 0 0-.584-.269 1.667 1.667 0 0 0-.484-.06c-.179 0-.337.02-.476.064-.135.04-.249.096-.343.168a.716.716 0 0 0-.277.566c0 .143.039.262.12.358.082.093.19.173.323.24.134.067.286.125.455.175.17.048.345.098.52.15.18.053.354.113.522.18.17.064.323.147.455.247a1.07 1.07 0 0 1 .447.906c0 .224-.045.435-.133.633a1.436 1.436 0 0 1-.389.513c-.168.145-.376.26-.624.343a2.6 2.6 0 0 1-.84.126c-.386 0-.736-.06-1.051-.18a2.52 2.52 0 0 1-.806-.49l.232-.33a.277.277 0 0 1 .078-.064.212.212 0 0 1 .108-.028c.036 0 .076.013.119.039.047.024.1.055.158.093.057.038.123.08.198.125a1.785 1.785 0 0 0 .579.222c.122.024.258.036.41.036.19 0 .36-.023.509-.068a1.12 1.12 0 0 0 .376-.19.842.842 0 0 0 .323-.68.561.561 0 0 0-.125-.38.925.925 0 0 0-.318-.25 2.336 2.336 0 0 0-.455-.169l-.521-.143a6.627 6.627 0 0 1-.521-.172 1.73 1.73 0 0 1-.455-.25 1.212 1.212 0 0 1-.323-.383 1.24 1.24 0 0 1-.119-.573c0-.182.039-.357.119-.527.083-.17.202-.32.356-.45.158-.132.349-.237.574-.316.229-.079.491-.118.787-.118.33 0 .632.045.901.136.274.09.513.222.72.394l-.195.33ZM156.566 42.44v2.045h-.802V42.44l-2.172-3.087h.703c.072 0 .128.016.17.047a.392.392 0 0 1 .107.115l1.357 1.994c.05.084.095.163.137.236.041.072.076.145.107.219.03-.074.065-.147.103-.218.039-.075.081-.153.128-.237l1.353-1.994a.398.398 0 0 1 .104-.111.27.27 0 0 1 .17-.05h.706l-2.171 3.086Z"/><path fill="#F65E64" d="M57 28.5C57 44.24 44.24 57 28.5 57S0 44.24 0 28.5 12.76 0 28.5 0 57 12.76 57 28.5Zm-51.451 0c0 12.675 10.276 22.951 22.951 22.951S51.451 41.175 51.451 28.5 41.175 5.549 28.5 5.549 5.549 15.825 5.549 28.5Z"/><path fill="#6868EE" d="M21.39 8.565A20.5 20.5 0 1 1 9.63 18.95l4.425 2.163a15.574 15.574 0 1 0 8.935-7.89l-1.6-4.66Z"/><path fill="#611DD2" d="M38.386 34.498a12.036 12.036 0 1 1 .556-10.977l-3.576 1.612a8.114 8.114 0 1 0-.375 7.4l3.395 1.965Z"/></svg>