<svg xmlns="http://www.w3.org/2000/svg" width="247" height="56" fill="none" viewBox="0 0 247 56"><g clip-path="url(#clip0_4477_51004)"><path fill="#2B2D42" d="M94.362 43.42h-8.583V19.13h8.647c2.424 0 4.53.48 6.285 1.44a9.788 9.788 0 0 1 4.052 4.16c.957 1.825 1.404 3.97 1.404 6.498s-.479 4.704-1.436 6.529c-.957 1.824-2.297 3.2-4.084 4.192-1.723.992-3.829 1.472-6.285 1.472Zm-3.478-4.416h3.254c2.266 0 3.989-.608 5.17-1.856 1.18-1.217 1.754-3.201 1.754-5.921 0-2.689-.574-4.641-1.755-5.89-1.18-1.215-2.903-1.823-5.169-1.823h-3.254v15.49ZM109.995 43.42h-5.487l8.359-24.26h6.604l8.327 24.26h-5.487l-1.787-5.537h-8.742l-1.787 5.537Zm3.095-9.538h6.158l-2.967-9.185h-.192l-2.999 9.185ZM148.793 31.29c0 2.656-.51 4.897-1.499 6.753-.989 1.856-2.361 3.264-4.052 4.256-1.724.96-3.638 1.473-5.776 1.473-2.137 0-4.084-.48-5.774-1.473-1.723-.992-3.063-2.4-4.052-4.256-.989-1.856-1.499-4.097-1.499-6.721 0-2.657.51-4.897 1.499-6.753.989-1.857 2.329-3.265 4.052-4.257 1.722-.96 3.637-1.472 5.774-1.472 2.138 0 4.052.48 5.776 1.472 1.723.96 3.063 2.4 4.052 4.257 1.021 1.792 1.499 4.064 1.499 6.72Zm-5.169 0c0-2.56-.574-4.545-1.69-5.89-1.117-1.343-2.617-2.047-4.468-2.047-1.849 0-3.35.672-4.466 2.048-1.117 1.376-1.692 3.328-1.692 5.889 0 2.56.575 4.544 1.692 5.889 1.116 1.344 2.617 2.048 4.466 2.048 1.851 0 3.351-.672 4.468-2.048 1.116-1.377 1.69-3.329 1.69-5.89ZM155.65 19.129h6.317l6.669 16.322h.287l6.669-16.322h6.284V43.42H176.9V27.61h-.193l-6.252 15.682h-3.383l-6.253-15.746h-.192V43.42h-4.977V19.13ZM189.311 43.74c-1.723 0-3.159-.448-4.307-1.376-1.149-.896-1.723-2.273-1.723-4.065 0-1.344.318-2.432.957-3.2.638-.768 1.467-1.344 2.52-1.697a13.51 13.51 0 0 1 3.351-.704c1.563-.16 2.711-.32 3.381-.512.671-.192 1.021-.544 1.021-1.152v-.064c0-.736-.223-1.344-.702-1.728-.478-.416-1.116-.608-1.978-.608-.894 0-1.627.192-2.17.608a2.626 2.626 0 0 0-1.052 1.504l-4.658-.384c.351-1.664 1.212-2.976 2.584-3.937 1.371-.96 3.158-1.472 5.328-1.472 1.341 0 2.617.224 3.765.64a6.285 6.285 0 0 1 2.84 1.985c.733.896 1.085 2.08 1.085 3.52V43.42h-4.787V40.89h-.127a5.353 5.353 0 0 1-1.978 2.08c-.894.513-2.01.769-3.35.769Zm1.435-3.457c1.117 0 2.01-.32 2.713-.96.702-.64 1.052-1.44 1.052-2.4v-1.92c-.191.128-.511.256-.925.352-.414.096-.862.192-1.308.256a26.9 26.9 0 0 0-1.244.192c-.893.128-1.596.384-2.139.736-.541.384-.796.928-.796 1.632 0 .704.255 1.216.766 1.568.478.352 1.115.544 1.881.544ZM201.467 43.42V19.13h5.041V32.09h.287l5.806-6.913h5.776l-6.732 7.873 7.082 10.337h-5.901l-4.978-7.329-1.371 1.569v5.792h-5.01Z"/><path fill="#2B2D42" d="M226.002 43.771c-1.851 0-3.447-.384-4.818-1.152a7.74 7.74 0 0 1-3.095-3.233c-.734-1.408-1.085-3.072-1.085-4.992 0-1.856.351-3.52 1.085-4.929.734-1.408 1.755-2.528 3.063-3.296 1.308-.8 2.872-1.185 4.658-1.185 1.595 0 3.031.352 4.34 1.024 1.276.673 2.297 1.697 3.063 3.073.765 1.376 1.148 3.073 1.148 5.153v1.376h-12.347c0 1.344.382 2.432 1.116 3.2.733.768 1.754 1.185 2.999 1.185.829 0 1.563-.192 2.17-.544a3.022 3.022 0 0 0 1.308-1.569l4.657.32c-.35 1.697-1.244 3.04-2.679 4.065-1.467.992-3.318 1.504-5.583 1.504Zm-4.02-11.297h7.625c0-1.089-.351-1.985-1.053-2.689s-1.564-1.056-2.681-1.056c-1.116 0-2.042.352-2.743 1.088a4.115 4.115 0 0 0-1.148 2.657ZM235.605 43.42V25.21h4.882v3.168h.191c.32-1.12.894-1.985 1.66-2.56.766-.577 1.691-.865 2.679-.865a6.41 6.41 0 0 1 1.596.192v4.48a9.12 9.12 0 0 0-.989-.191c-.415-.064-.798-.064-1.149-.064-1.116 0-2.042.352-2.744 1.056-.733.704-1.085 1.6-1.085 2.72V43.42h-5.041Z"/><path fill="url(#paint0_linear_4477_51004)" d="M.977 55.085 25.147 9.7 46.46.18 22.29 45.565.977 55.085Z"/><path fill="url(#paint1_linear_4477_51004)" d="m25.082 44.712 18.363-34.474 10.421 10.374-18.111 34.569-10.673-10.469Z"/><path fill="url(#paint2_linear_4477_51004)" d="m55.906 21.656 13.592 4.997-6.78 12.588-16.48.57 9.668-18.155Z"/></g><defs><linearGradient id="paint0_linear_4477_51004" x1="1.026" x2="71.488" y1="55.052" y2=".574" gradientUnits="userSpaceOnUse"><stop stop-color="#48D5FF"/><stop offset="1" stop-color="#1FA5FF"/></linearGradient><linearGradient id="paint1_linear_4477_51004" x1="1.631" x2="74.996" y1="55.206" y2=".587" gradientUnits="userSpaceOnUse"><stop stop-color="#48D5FF"/><stop offset="1" stop-color="#1FA5FF"/></linearGradient><linearGradient id="paint2_linear_4477_51004" x1="1.327" x2="72.478" y1="54.977" y2="1.69" gradientUnits="userSpaceOnUse"><stop stop-color="#48D5FF"/><stop offset="1" stop-color="#1FA5FF"/></linearGradient><clipPath id="clip0_4477_51004"><path fill="#fff" d="M0 .18h246.613v55H0z"/></clipPath></defs></svg>