<svg xmlns="http://www.w3.org/2000/svg" width="90" height="35" fill="none" viewBox="0 0 90 35"><g clip-path="url(#clip0_4477_51044)"><path fill="#E2E8FF" d="M72.857.18H17.143C7.675.18 0 7.79 0 17.18c0 9.389 7.675 17 17.143 17h55.714c9.468 0 17.143-7.611 17.143-17 0-9.39-7.675-17-17.143-17Z"/><path fill="#627EEA" fill-rule="evenodd" d="M32.315 18.43a.204.204 0 0 1-.058.137.192.192 0 0 1-.134.058h-3.68c.092.942.788 1.799 1.742 1.799.3.012.598-.056.865-.2.266-.142.492-.354.655-.614a.188.188 0 0 1 .112-.1.18.18 0 0 1 .204.07.193.193 0 0 1 .03.15.192.192 0 0 1-.03.072 2.104 2.104 0 0 1-.79.754c-.324.176-.686.26-1.05.245-1.244 0-2.13-1.148-2.13-2.377 0-1.229.886-2.374 2.13-2.374 1.243 0 2.14 1.142 2.142 2.369l-.008.01Zm-.397-.188c-.079-.94-.789-1.798-1.746-1.798s-1.65.857-1.743 1.799h3.489Zm4.879-2.086a.187.187 0 0 1 .129.057.198.198 0 0 1 .042.206.19.19 0 0 1-.1.103.178.178 0 0 1-.071.014h-.991v4.01a.199.199 0 0 1-.055.133.186.186 0 0 1-.13.057.183.183 0 0 1-.128-.057.196.196 0 0 1-.055-.133v-4.01h-.952a.175.175 0 0 1-.131-.054.186.186 0 0 1-.053-.136.199.199 0 0 1 .056-.133.187.187 0 0 1 .128-.057h.952v-1.468c0-.05.02-.098.054-.134a.181.181 0 0 1 .26 0 .193.193 0 0 1 .054.134v1.474l.991-.006Zm6.046 1.937v2.442c0 .05-.02.099-.054.134a.187.187 0 0 1-.13.059.176.176 0 0 1-.131-.056.189.189 0 0 1-.053-.137v-2.442c0-.814-.45-1.628-1.335-1.628-1.136 0-1.625 1.026-1.559 2.076v1.986a.196.196 0 0 1-.04.123.178.178 0 0 1-.262.029.189.189 0 0 1-.066-.15v-7.976c0-.05.02-.099.054-.134a.181.181 0 0 1 .26 0 .193.193 0 0 1 .054.134v4.515c.149-.292.37-.537.643-.71.272-.172.584-.267.903-.272 1.085 0 1.706.982 1.706 2.018l.01-.01Zm6.622.337a.202.202 0 0 1-.057.138.189.189 0 0 1-.134.057h-3.705c.092.942.79 1.799 1.746 1.799.3.012.598-.057.864-.2a1.75 1.75 0 0 0 .655-.614.186.186 0 0 1 .103-.086.179.179 0 0 1 .2.063c.02.024.031.052.037.083a.2.2 0 0 1-.024.132 2.11 2.11 0 0 1-.79.754 2.03 2.03 0 0 1-1.05.245c-1.241 0-2.127-1.148-2.127-2.377 0-1.229.886-2.374 2.127-2.374 1.24 0 2.142 1.142 2.145 2.369l.01.01Zm-.391-.174c-.082-.941-.789-1.799-1.746-1.799s-1.653.858-1.745 1.799h3.49Zm4.929-1.9a.196.196 0 0 1-.044.141.184.184 0 0 1-.127.066c-1.086.163-1.577 1.085-1.577 2.14v1.824a.199.199 0 0 1-.046.15.188.188 0 0 1-.14.065.183.183 0 0 1-.14-.064.194.194 0 0 1-.045-.151v-4.17a.2.2 0 0 1 .042-.124.189.189 0 0 1 .108-.069.178.178 0 0 1 .154.04.19.19 0 0 1 .067.15v.847c.302-.543.912-1.04 1.545-1.04a.186.186 0 0 1 .133.048c.037.033.06.079.065.129l.005.019Zm6.067 2.098a.2.2 0 0 1-.057.138.189.189 0 0 1-.135.057h-3.706c.092.942.788 1.8 1.745 1.8.3.011.598-.058.864-.2a1.75 1.75 0 0 0 .656-.615.186.186 0 0 1 .102-.085.18.18 0 0 1 .201.062.19.19 0 0 1 .036.083.2.2 0 0 1-.024.133 2.108 2.108 0 0 1-.79.753c-.324.175-.685.26-1.05.245-1.243 0-2.127-1.147-2.127-2.376 0-1.23.884-2.374 2.127-2.374 1.243 0 2.14 1.142 2.142 2.368l.016.011Zm-.394-.187c-.082-.941-.789-1.799-1.746-1.799-.956 0-1.653.858-1.745 1.799h3.49Zm6.356-1.861v4.164a.2.2 0 0 1-.055.133.187.187 0 0 1-.129.057.174.174 0 0 1-.131-.054.185.185 0 0 1-.053-.136v-.792c-.129.313-.342.582-.614.774-.272.192-.591.3-.92.311-1.097 0-1.704-.982-1.704-2.018v-2.442c0-.05.02-.099.054-.134a.181.181 0 0 1 .26 0 .193.193 0 0 1 .054.134v2.442c0 .814.45 1.628 1.335 1.628 1.241 0 1.533-1.202 1.533-2.526v-1.555a.195.195 0 0 1 .074-.152.18.18 0 0 1 .162-.03c.04.014.074.04.098.074a.206.206 0 0 1 .037.119v.003Zm9.33 1.671v2.442c0 .05-.02.098-.054.134a.177.177 0 0 1-.261.002.189.189 0 0 1-.053-.136v-2.442c0-.814-.45-1.628-1.335-1.628-1.112 0-1.533 1.23-1.533 2.17v1.884c0 .05-.02.099-.055.135a.186.186 0 0 1-.203.043.18.18 0 0 1-.1-.105.192.192 0 0 1-.013-.073V18.06c0-.814-.446-1.628-1.332-1.628-1.126 0-1.578.914-1.546 2.13v1.931c0 .046-.014.09-.042.125a.186.186 0 0 1-.265.028.191.191 0 0 1-.066-.15v-4.14c-.001-.045.013-.09.04-.124a.185.185 0 0 1 .191-.067.181.181 0 0 1 .123.105.196.196 0 0 1 .016.083v.695c.15-.29.373-.531.645-.7.272-.17.583-.26.901-.263.355 0 .7.117.985.337.284.219.492.527.592.878.129-.35.356-.654.652-.87a1.784 1.784 0 0 1 1.012-.345c1.086 0 1.707.966 1.707 2.002l-.006-.011Z" clip-rule="evenodd"/><mask id="mask0_4477_51044" width="51" height="12" x="26" y="10" maskUnits="userSpaceOnUse" style="mask-type:luminance"><path fill="#fff" stroke="#6880DD" d="M76.05 11.363h-49v10h49v-10Z"/><path fill-rule="evenodd" stroke="#6880DD" d="M32.315 18.43a.204.204 0 0 1-.058.137.192.192 0 0 1-.134.058h-3.68c.092.942.788 1.799 1.742 1.799.3.012.598-.056.865-.2.266-.142.492-.354.655-.614a.188.188 0 0 1 .112-.1.18.18 0 0 1 .204.07.193.193 0 0 1 .03.15.192.192 0 0 1-.03.072 2.104 2.104 0 0 1-.79.754c-.324.176-.686.26-1.05.245-1.244 0-2.13-1.148-2.13-2.377 0-1.229.886-2.374 2.13-2.374 1.243 0 2.14 1.142 2.142 2.369l-.008.01Zm-.397-.188c-.079-.94-.789-1.798-1.746-1.798s-1.65.857-1.743 1.799h3.489Zm4.879-2.086a.187.187 0 0 1 .129.057.198.198 0 0 1 .042.206.19.19 0 0 1-.1.103.178.178 0 0 1-.071.014h-.991v4.01a.199.199 0 0 1-.055.133.186.186 0 0 1-.13.057.183.183 0 0 1-.128-.057.196.196 0 0 1-.055-.133v-4.01h-.952a.175.175 0 0 1-.131-.054.186.186 0 0 1-.053-.136.199.199 0 0 1 .056-.133.187.187 0 0 1 .128-.057h.952v-1.468c0-.05.02-.098.054-.134a.181.181 0 0 1 .26 0 .193.193 0 0 1 .054.134v1.474l.991-.006Zm6.046 1.937v2.442c0 .05-.02.099-.054.134a.187.187 0 0 1-.13.059.176.176 0 0 1-.131-.056.189.189 0 0 1-.053-.137v-2.442c0-.814-.45-1.628-1.335-1.628-1.136 0-1.625 1.026-1.559 2.076v1.986a.196.196 0 0 1-.04.123.178.178 0 0 1-.262.029.189.189 0 0 1-.066-.15v-7.976c0-.05.02-.099.054-.134a.181.181 0 0 1 .26 0 .193.193 0 0 1 .054.134v4.515c.149-.292.37-.537.643-.71.272-.172.584-.267.903-.272 1.085 0 1.706.982 1.706 2.018l.01-.01Zm6.622.337a.202.202 0 0 1-.057.138.189.189 0 0 1-.134.057h-3.705c.092.942.79 1.799 1.746 1.799.3.012.598-.057.864-.2a1.75 1.75 0 0 0 .655-.614.186.186 0 0 1 .103-.086.179.179 0 0 1 .2.063c.02.024.031.052.037.083a.2.2 0 0 1-.024.132 2.11 2.11 0 0 1-.79.754 2.03 2.03 0 0 1-1.05.245c-1.241 0-2.127-1.148-2.127-2.377 0-1.229.886-2.374 2.127-2.374 1.24 0 2.142 1.142 2.145 2.369l.01.01Zm-.391-.174c-.082-.941-.789-1.799-1.746-1.799s-1.653.858-1.745 1.799h3.49Zm4.929-1.9a.196.196 0 0 1-.044.141.184.184 0 0 1-.127.066c-1.086.163-1.577 1.085-1.577 2.14v1.824a.199.199 0 0 1-.046.15.188.188 0 0 1-.14.065.183.183 0 0 1-.14-.064.194.194 0 0 1-.045-.151v-4.17a.2.2 0 0 1 .042-.124.189.189 0 0 1 .108-.069.178.178 0 0 1 .154.04.19.19 0 0 1 .067.15v.847c.302-.543.912-1.04 1.545-1.04a.186.186 0 0 1 .133.048c.037.033.06.079.065.129l.005.019Zm6.067 2.098a.2.2 0 0 1-.057.138.189.189 0 0 1-.135.057h-3.706c.092.942.788 1.8 1.745 1.8.3.011.598-.058.864-.2a1.75 1.75 0 0 0 .656-.615.186.186 0 0 1 .102-.085.18.18 0 0 1 .201.062.19.19 0 0 1 .036.083.2.2 0 0 1-.024.133 2.108 2.108 0 0 1-.79.753c-.324.175-.685.26-1.05.245-1.243 0-2.127-1.147-2.127-2.376 0-1.23.884-2.374 2.127-2.374 1.243 0 2.14 1.142 2.142 2.368l.016.011Zm-.394-.187c-.082-.941-.789-1.799-1.746-1.799-.956 0-1.653.858-1.745 1.799h3.49Zm6.356-1.861v4.164a.2.2 0 0 1-.055.133.187.187 0 0 1-.129.057.174.174 0 0 1-.131-.054.185.185 0 0 1-.053-.136v-.792c-.129.313-.342.582-.614.774-.272.192-.591.3-.92.311-1.097 0-1.704-.982-1.704-2.018v-2.442c0-.05.02-.099.054-.134a.181.181 0 0 1 .26 0 .193.193 0 0 1 .054.134v2.442c0 .814.45 1.628 1.335 1.628 1.241 0 1.533-1.202 1.533-2.526v-1.555a.195.195 0 0 1 .074-.152.18.18 0 0 1 .162-.03c.04.014.074.04.098.074a.206.206 0 0 1 .037.119v.003Zm9.33 1.671v2.442c0 .05-.02.098-.054.134a.177.177 0 0 1-.261.002.189.189 0 0 1-.053-.136v-2.442c0-.814-.45-1.628-1.335-1.628-1.112 0-1.533 1.23-1.533 2.17v1.884c0 .05-.02.099-.055.135a.186.186 0 0 1-.203.043.18.18 0 0 1-.1-.105.192.192 0 0 1-.013-.073V18.06c0-.814-.446-1.628-1.332-1.628-1.126 0-1.578.914-1.546 2.13v1.931c0 .046-.014.09-.042.125a.186.186 0 0 1-.265.028.191.191 0 0 1-.066-.15v-4.14c-.001-.045.013-.09.04-.124a.185.185 0 0 1 .191-.067.181.181 0 0 1 .123.105.196.196 0 0 1 .016.083v.695c.15-.29.373-.531.645-.7.272-.17.583-.26.901-.263.355 0 .7.117.985.337.284.219.492.527.592.878.129-.35.356-.654.652-.87a1.784 1.784 0 0 1 1.012-.345c1.086 0 1.707.966 1.707 2.002l-.006-.011Z" clip-rule="evenodd"/></mask><g mask="url(#mask0_4477_51044)"><path stroke="#6880DD" d="M32.315 18.43a.204.204 0 0 1-.058.137.192.192 0 0 1-.134.058h-3.68c.092.942.788 1.799 1.742 1.799.3.012.598-.056.865-.2.266-.142.492-.354.655-.614a.188.188 0 0 1 .112-.1.18.18 0 0 1 .204.07.193.193 0 0 1 .03.15.192.192 0 0 1-.03.072 2.104 2.104 0 0 1-.79.754c-.324.176-.686.26-1.05.245-1.244 0-2.13-1.148-2.13-2.377 0-1.229.886-2.374 2.13-2.374 1.243 0 2.14 1.142 2.142 2.369l-.008.01Zm-.397-.188c-.079-.94-.789-1.798-1.746-1.798s-1.65.857-1.743 1.799h3.489Zm4.879-2.086a.187.187 0 0 1 .129.057.198.198 0 0 1 .042.206.19.19 0 0 1-.1.103.178.178 0 0 1-.071.014h-.991v4.01a.199.199 0 0 1-.055.133.186.186 0 0 1-.13.057.183.183 0 0 1-.128-.057.196.196 0 0 1-.055-.133v-4.01h-.952a.175.175 0 0 1-.131-.054.186.186 0 0 1-.053-.136.199.199 0 0 1 .056-.133.187.187 0 0 1 .128-.057h.952v-1.468c0-.05.02-.098.054-.134a.181.181 0 0 1 .26 0 .193.193 0 0 1 .054.134v1.474l.991-.006Zm6.046 1.937v2.442c0 .05-.02.099-.054.134a.187.187 0 0 1-.13.059.176.176 0 0 1-.131-.056.189.189 0 0 1-.053-.137v-2.442c0-.814-.45-1.628-1.335-1.628-1.136 0-1.625 1.026-1.559 2.076v1.986a.196.196 0 0 1-.04.123.178.178 0 0 1-.262.029.189.189 0 0 1-.066-.15v-7.976c0-.05.02-.099.054-.134a.181.181 0 0 1 .26 0 .193.193 0 0 1 .054.134v4.515c.149-.292.37-.537.643-.71.272-.172.584-.267.903-.272 1.085 0 1.706.982 1.706 2.018l.01-.01Zm6.622.337a.202.202 0 0 1-.057.138.189.189 0 0 1-.134.057h-3.705c.092.942.79 1.799 1.746 1.799.3.012.598-.057.864-.2a1.75 1.75 0 0 0 .655-.614.186.186 0 0 1 .103-.086.179.179 0 0 1 .2.063c.02.024.031.052.037.083a.2.2 0 0 1-.024.132 2.11 2.11 0 0 1-.79.754 2.03 2.03 0 0 1-1.05.245c-1.241 0-2.127-1.148-2.127-2.377 0-1.229.886-2.374 2.127-2.374 1.24 0 2.142 1.142 2.145 2.369l.01.01Zm-.391-.174c-.082-.941-.789-1.799-1.746-1.799s-1.653.858-1.745 1.799h3.49Zm4.929-1.9a.196.196 0 0 1-.044.141.184.184 0 0 1-.127.066c-1.086.163-1.577 1.085-1.577 2.14v1.824a.199.199 0 0 1-.046.15.188.188 0 0 1-.14.065.183.183 0 0 1-.14-.064.194.194 0 0 1-.045-.151v-4.17a.2.2 0 0 1 .042-.124.189.189 0 0 1 .108-.069.178.178 0 0 1 .154.04.19.19 0 0 1 .067.15v.847c.302-.543.912-1.04 1.545-1.04a.186.186 0 0 1 .133.048c.037.033.06.079.065.129l.005.019Zm6.067 2.098a.2.2 0 0 1-.057.138.189.189 0 0 1-.135.057h-3.706c.092.942.788 1.8 1.745 1.8.3.011.598-.058.864-.2a1.75 1.75 0 0 0 .656-.615.186.186 0 0 1 .102-.085.18.18 0 0 1 .201.062.19.19 0 0 1 .036.083.2.2 0 0 1-.024.133 2.108 2.108 0 0 1-.79.753c-.324.175-.685.26-1.05.245-1.243 0-2.127-1.147-2.127-2.376 0-1.23.884-2.374 2.127-2.374 1.243 0 2.14 1.142 2.142 2.368l.016.011Zm-.394-.187c-.082-.941-.789-1.799-1.746-1.799-.956 0-1.653.858-1.745 1.799h3.49Zm6.356-1.861v4.164a.2.2 0 0 1-.055.133.187.187 0 0 1-.129.057.174.174 0 0 1-.131-.054.185.185 0 0 1-.053-.136v-.792c-.129.313-.342.582-.614.774-.272.192-.591.3-.92.311-1.097 0-1.704-.982-1.704-2.018v-2.442c0-.05.02-.099.054-.134a.181.181 0 0 1 .26 0 .193.193 0 0 1 .054.134v2.442c0 .814.45 1.628 1.335 1.628 1.241 0 1.533-1.202 1.533-2.526v-1.555a.195.195 0 0 1 .074-.152.18.18 0 0 1 .162-.03c.04.014.074.04.098.074a.206.206 0 0 1 .037.119v.003Zm9.33 1.671v2.442c0 .05-.02.098-.054.134a.177.177 0 0 1-.261.002.189.189 0 0 1-.053-.136v-2.442c0-.814-.45-1.628-1.335-1.628-1.112 0-1.533 1.23-1.533 2.17v1.884c0 .05-.02.099-.055.135a.186.186 0 0 1-.203.043.18.18 0 0 1-.1-.105.192.192 0 0 1-.013-.073V18.06c0-.814-.446-1.628-1.332-1.628-1.126 0-1.578.914-1.546 2.13v1.931c0 .046-.014.09-.042.125a.186.186 0 0 1-.265.028.191.191 0 0 1-.066-.15v-4.14c-.001-.045.013-.09.04-.124a.185.185 0 0 1 .191-.067.181.181 0 0 1 .123.105.196.196 0 0 1 .016.083v.695c.15-.29.373-.531.645-.7.272-.17.583-.26.901-.263.355 0 .7.117.985.337.284.219.492.527.592.878.129-.35.356-.654.652-.87a1.784 1.784 0 0 1 1.012-.345c1.086 0 1.707.966 1.707 2.002l-.006-.011Z" clip-rule="evenodd"/></g><path fill="#6880DD" d="m19.832 8.68-.117.4v11.615l.117.118 5.382-3.187-5.382-8.946Z"/><path fill="#9FB2FB" d="m19.83 8.68-5.38 8.946 5.38 3.187V8.68Z"/><path fill="#4D66C9" d="m19.832 21.834-.066.08v4.138l.066.194 5.385-7.598-5.385 3.186Z"/><path fill="#A8BAFF" d="M19.83 26.246v-4.412l-5.38-3.186 5.38 7.598Z"/><path fill="#4D66C9" d="m19.832 20.814 5.382-3.187-5.382-2.451v5.638ZM14.45 17.627l5.38 3.187v-5.638l-5.38 2.45Z"/></g><defs><clipPath id="clip0_4477_51044"><path fill="#fff" d="M0 .18h90v34H0z"/></clipPath></defs></svg>