<svg xmlns="http://www.w3.org/2000/svg" width="90" height="34" fill="none" viewBox="0 0 90 34"><path fill="#FFF5D8" d="M72.5 0H17.25c-9.389 0-17 7.611-17 17s7.611 17 17 17H72.5c9.389 0 17-7.611 17-17s-7.611-17-17-17Z"/><path fill="#FFC24A" d="m9 22.04.105-.148 4.981-9.451.011-.1-2.196-4.125a.407.407 0 0 0-.762.129L9 22.04Z"/><path fill="#FFA712" d="m9.063 21.925.08-.155 4.928-9.352-2.19-4.142c-.182-.342-.644-.255-.705.128L9.062 21.925Z"/><path fill="#F6820C" d="m9.063 21.93.08-.156 4.928-9.353-2.19-4.14c-.182-.343-.644-.256-.705.127L9.062 21.93Z"/><path fill="#FFA50E" d="m15.665 15.39 1.59-1.628-1.59-3.027c-.15-.288-.517-.317-.667-.03l-.878 1.692-.026.087 1.571 2.906Z"/><path fill="#FF9224" d="m15.64 15.47 1.66-1.65-1.66-3.066c-.157-.292-.54-.322-.696-.03l-.917 1.714-.027.087 1.64 2.944Z"/><path fill="#FF9224" d="M14.086 12.32 9 22.04l.048-.048.173-.07 6.374-6.35.08-.22-1.59-3.03Z"/><path fill="#FDE068" d="m15.902 25.245 5.769-3.217-1.647-10.146a.394.394 0 0 0-.668-.215L9 22.043l5.736 3.202a1.198 1.198 0 0 0 1.166 0"/><path fill="#FCCA3F" d="m21.617 22-1.635-10.07c-.051-.314-.375-.445-.6-.219l-10.32 10.31 5.673 3.17c.36.2.798.201 1.158 0L21.617 22Z"/><path fill="#EEAB37" d="M15.902 25.147a1.197 1.197 0 0 1-1.166 0l-5.69-3.157-.046.05 5.736 3.201c.362.203.803.203 1.166 0l5.769-3.217-.014-.087-5.755 3.21Z"/><path fill="#000" d="M27.21 22a.57.57 0 0 1-.42-.168.58.58 0 0 1-.154-.406V12.76a.553.553 0 0 1 .56-.56h4.914a.58.58 0 0 1 .406.154.508.508 0 0 1 .168.392c0 .15-.056.275-.168.378a.58.58 0 0 1-.406.154H27.7l.084-.112v3.43l-.07-.154h3.766c.159 0 .294.056.406.168a.522.522 0 0 1 0 .77.58.58 0 0 1-.406.154h-3.794l.098-.126v4.018a.553.553 0 0 1-.168.406.553.553 0 0 1-.406.168Zm8.224-.574a.553.553 0 0 1-.168.406.508.508 0 0 1-.392.168.525.525 0 0 1-.406-.168.58.58 0 0 1-.154-.406V15.21a.553.553 0 0 1 .56-.56c.159 0 .29.056.392.168a.508.508 0 0 1 .168.392v6.216Zm-.56-7.714c-.233 0-.406-.047-.518-.14-.112-.093-.168-.238-.168-.434v-.196c0-.196.061-.34.182-.434.122-.093.294-.14.518-.14.224 0 .392.047.504.14.112.093.168.238.168.434v.196c0 .196-.06.34-.182.434-.112.093-.28.14-.504.14ZM38.006 22a.553.553 0 0 1-.406-.168.58.58 0 0 1-.154-.406v-6.104a.553.553 0 0 1 .56-.56c.168 0 .303.056.406.168a.531.531 0 0 1 .154.392v1.848l-.168-.294a2.93 2.93 0 0 1 .854-1.582c.224-.224.48-.397.77-.518.29-.13.607-.196.952-.196.206 0 .392.051.56.154.178.093.266.229.266.406 0 .196-.051.34-.154.434a.506.506 0 0 1-.35.14.9.9 0 0 1-.35-.07.935.935 0 0 0-.42-.084c-.233 0-.467.065-.7.196a2.202 2.202 0 0 0-.63.532c-.186.233-.34.5-.462.798-.112.29-.168.602-.168.938v3.402a.553.553 0 0 1-.168.406.509.509 0 0 1-.392.168Zm8.09.14c-.746 0-1.4-.159-1.96-.476a3.457 3.457 0 0 1-1.315-1.302c-.308-.56-.462-1.204-.462-1.932 0-.812.158-1.503.476-2.072.326-.579.746-1.017 1.26-1.316a3.205 3.205 0 0 1 1.652-.462c.43 0 .845.08 1.246.238.401.159.756.392 1.064.7.308.299.555.663.742 1.092.187.42.285.891.294 1.414 0 .15-.056.275-.168.378a.562.562 0 0 1-.392.154h-5.53l-.252-.966h5.39l-.224.196v-.308a1.767 1.767 0 0 0-.392-.98 2.14 2.14 0 0 0-.798-.644 2.218 2.218 0 0 0-.98-.224c-.28 0-.56.051-.84.154a1.94 1.94 0 0 0-.742.476 2.498 2.498 0 0 0-.532.84c-.13.345-.196.76-.196 1.246 0 .541.107 1.017.322 1.428.224.41.532.737.924.98.392.233.85.35 1.372.35.327 0 .611-.042.854-.126a2.64 2.64 0 0 0 .63-.308c.177-.13.326-.261.448-.392a.619.619 0 0 1 .35-.126.43.43 0 0 1 .336.14c.093.093.14.205.14.336 0 .159-.075.299-.224.42-.261.29-.616.546-1.064.77a3.263 3.263 0 0 1-1.428.322Zm8.25-7.56c.635 0 1.204.163 1.708.49.504.317.9.756 1.19 1.316.299.56.448 1.209.448 1.946 0 .737-.15 1.39-.448 1.96a3.506 3.506 0 0 1-1.19 1.358 2.98 2.98 0 0 1-1.68.49c-.345 0-.672-.051-.98-.154a3.666 3.666 0 0 1-.826-.434 3.437 3.437 0 0 1-.616-.602 2.451 2.451 0 0 1-.364-.658l.308-.196v1.4a.58.58 0 0 1-.154.406.525.525 0 0 1-.406.168.58.58 0 0 1-.406-.154.598.598 0 0 1-.154-.42v-9.282a.58.58 0 0 1 .154-.406.553.553 0 0 1 .406-.168c.168 0 .304.056.406.168a.58.58 0 0 1 .154.406v4.312l-.21-.112c.066-.233.178-.457.336-.672a2.77 2.77 0 0 1 .602-.588c.243-.177.509-.317.798-.42.299-.103.607-.154.924-.154Zm-.126 1.036c-.466 0-.882.117-1.246.35a2.427 2.427 0 0 0-.84.966c-.196.41-.294.877-.294 1.4 0 .523.098.994.294 1.414.206.42.486.751.84.994.364.243.78.364 1.246.364.467 0 .878-.121 1.232-.364.355-.243.635-.574.84-.994.206-.42.308-.891.308-1.414 0-.523-.102-.99-.308-1.4a2.426 2.426 0 0 0-.84-.966 2.19 2.19 0 0 0-1.232-.35Zm11.12-.924c.159 0 .29.056.392.168a.508.508 0 0 1 .168.392v6.174a.553.553 0 0 1-.168.406.508.508 0 0 1-.392.168.525.525 0 0 1-.406-.168.58.58 0 0 1-.154-.406v-1.33l.266-.028c0 .205-.07.43-.21.672-.14.243-.332.471-.574.686a3.292 3.292 0 0 1-.868.518c-.327.13-.681.196-1.064.196a3.072 3.072 0 0 1-1.708-.49 3.617 3.617 0 0 1-1.204-1.358c-.29-.57-.434-1.218-.434-1.946 0-.737.145-1.386.434-1.946.299-.57.7-1.013 1.204-1.33a3.024 3.024 0 0 1 1.68-.49c.401 0 .775.065 1.12.196.345.13.644.308.896.532.261.224.462.471.602.742.15.27.224.541.224.812l-.364-.084v-1.526c0-.159.051-.29.154-.392a.525.525 0 0 1 .406-.168Zm-2.884 6.412c.466 0 .877-.121 1.232-.364.364-.243.644-.57.84-.98.205-.42.308-.891.308-1.414 0-.513-.103-.975-.308-1.386a2.276 2.276 0 0 0-.84-.98 2.128 2.128 0 0 0-1.232-.364c-.458 0-.868.117-1.232.35a2.427 2.427 0 0 0-.84.966c-.206.41-.308.882-.308 1.414 0 .523.098.994.294 1.414.205.41.485.737.84.98.364.243.78.364 1.246.364Zm5.114-.252a.578.578 0 0 1-.112-.378c.009-.14.088-.261.237-.364a.48.48 0 0 1 .323-.084c.13.01.247.07.35.182.26.308.56.555.895.742.337.177.747.266 1.233.266a2.81 2.81 0 0 0 .672-.112c.223-.065.41-.177.56-.336.158-.168.238-.387.238-.658 0-.261-.08-.467-.238-.616a1.682 1.682 0 0 0-.616-.378 6.134 6.134 0 0 0-.826-.266 14.645 14.645 0 0 1-.91-.28 4.12 4.12 0 0 1-.813-.406 2.122 2.122 0 0 1-.573-.616c-.14-.252-.21-.555-.21-.91 0-.42.111-.784.335-1.092.234-.308.542-.546.925-.714a3.2 3.2 0 0 1 1.273-.252c.262 0 .532.033.813.098.289.056.569.159.84.308.27.14.508.336.714.588.083.093.13.21.14.35.009.14-.052.266-.182.378a.515.515 0 0 1-.659-.042 1.87 1.87 0 0 0-.742-.532 2.32 2.32 0 0 0-.965-.196c-.225 0-.444.033-.659.098a1.225 1.225 0 0 0-.546.336c-.14.15-.21.36-.21.63.01.252.094.457.252.616.16.159.374.29.645.392.27.093.569.187.895.28.3.075.584.163.855.266.28.093.531.22.755.378.225.159.402.364.532.616.131.243.197.55.197.924 0 .43-.122.803-.364 1.12a2.362 2.362 0 0 1-.966.714 3.363 3.363 0 0 1-1.275.238 4.18 4.18 0 0 1-1.525-.294c-.495-.196-.925-.527-1.288-.994Zm10.382 1.288c-.746 0-1.4-.159-1.96-.476a3.457 3.457 0 0 1-1.316-1.302c-.308-.56-.462-1.204-.462-1.932 0-.812.159-1.503.476-2.072.327-.579.747-1.017 1.26-1.316a3.205 3.205 0 0 1 1.652-.462c.43 0 .845.08 1.246.238.402.159.756.392 1.064.7.308.299.556.663.742 1.092.187.42.285.891.294 1.414 0 .15-.056.275-.168.378a.562.562 0 0 1-.392.154h-5.53l-.252-.966h5.39l-.224.196v-.308a1.767 1.767 0 0 0-.392-.98 2.14 2.14 0 0 0-.798-.644 2.218 2.218 0 0 0-.98-.224c-.28 0-.56.051-.84.154a1.94 1.94 0 0 0-.742.476 2.496 2.496 0 0 0-.532.84c-.13.345-.196.76-.196 1.246 0 .541.108 1.017.322 1.428.224.41.532.737.924.98.392.233.85.35 1.372.35.327 0 .612-.042.854-.126a2.64 2.64 0 0 0 .63-.308c.178-.13.327-.261.448-.392a.619.619 0 0 1 .35-.126.43.43 0 0 1 .336.14c.094.093.14.205.14.336 0 .159-.074.299-.224.42-.261.29-.616.546-1.064.77a3.263 3.263 0 0 1-1.428.322Z"/></svg>