<svg xmlns="http://www.w3.org/2000/svg" width="90" height="35" fill="none" viewBox="0 0 90 35"><g clip-path="url(#clip0_4477_50894)"><path fill="#E535AB" fill-opacity=".22" d="M72.5.18H17.25c-9.389 0-17 7.61-17 17 0 9.389 7.611 17 17 17H72.5c9.389 0 17-7.611 17-17 0-9.39-7.611-17-17-17Z"/><path fill="#1E1E1E" d="M27.908 22.263a5.753 5.753 0 0 1-2.072-.364 5.08 5.08 0 0 1-1.638-1.05 4.906 4.906 0 0 1-1.078-1.582 5.132 5.132 0 0 1-.378-1.988c0-.719.126-1.381.378-1.988a4.8 4.8 0 0 1 1.092-1.582 4.894 4.894 0 0 1 1.638-1.036 5.564 5.564 0 0 1 2.072-.378 5.73 5.73 0 0 1 2.044.35 4.072 4.072 0 0 1 1.596 1.064l-.644.658a3.663 3.663 0 0 0-1.358-.882 4.696 4.696 0 0 0-1.596-.266c-.606 0-1.166.103-1.68.308-.504.196-.947.48-1.33.854a4.003 4.003 0 0 0-.882 1.288 4.09 4.09 0 0 0-.308 1.61c0 .579.103 1.115.308 1.61.215.495.509.929.882 1.302.383.364.826.649 1.33.854a4.631 4.631 0 0 0 1.666.294c.56 0 1.088-.084 1.582-.252a3.684 3.684 0 0 0 1.386-.854l.588.784a4.817 4.817 0 0 1-1.638.938 6.244 6.244 0 0 1-1.96.308Zm2.604-1.372v-3.612h.994v3.738l-.994-.126Zm3.716 1.288v-7.35h.952v2.002l-.098-.35c.206-.56.551-.985 1.036-1.274.486-.299 1.088-.448 1.806-.448v.966h-.112a.462.462 0 0 0-.112-.014c-.774 0-1.381.238-1.82.714-.438.467-.658 1.134-.658 2.002v3.752h-.994Zm9.57 0v-1.624l-.043-.266v-2.716c0-.625-.177-1.106-.532-1.442-.345-.336-.863-.504-1.554-.504-.476 0-.928.08-1.358.238-.43.159-.793.369-1.092.63l-.448-.742c.373-.317.822-.56 1.344-.728a5.107 5.107 0 0 1 1.652-.266c.952 0 1.685.238 2.198.714.523.467.784 1.18.784 2.142v4.564h-.952Zm-2.535.07c-.55 0-1.031-.089-1.442-.266-.401-.187-.71-.439-.924-.756a1.993 1.993 0 0 1-.322-1.12c0-.383.089-.728.266-1.036.187-.317.486-.57.896-.756.42-.196.98-.294 1.68-.294h2.534v.742h-2.506c-.71 0-1.204.126-1.484.378a1.23 1.23 0 0 0-.406.938c0 .42.163.756.49 1.008.327.252.784.378 1.372.378.56 0 1.04-.126 1.442-.378.41-.261.71-.635.896-1.12l.224.686a2.326 2.326 0 0 1-.98 1.162c-.457.29-1.036.434-1.736.434Zm9.98 0a3.446 3.446 0 0 1-1.722-.434 3.303 3.303 0 0 1-1.232-1.274c-.299-.56-.448-1.241-.448-2.044 0-.803.15-1.48.448-2.03a3.09 3.09 0 0 1 1.218-1.274 3.474 3.474 0 0 1 1.736-.434c.7 0 1.325.159 1.876.476.56.308.999.747 1.316 1.316.317.56.476 1.209.476 1.946 0 .747-.159 1.4-.476 1.96-.317.56-.756.999-1.316 1.316-.55.317-1.176.476-1.876.476Zm-3.794 2.646V14.829h.952v2.212l-.098 1.47.14 1.484v4.9h-.994Zm3.724-3.528c.523 0 .99-.117 1.4-.35.41-.243.737-.579.98-1.008.243-.439.364-.943.364-1.512 0-.57-.121-1.069-.364-1.498a2.676 2.676 0 0 0-.98-1.008 2.7 2.7 0 0 0-1.4-.364c-.523 0-.994.121-1.414.364-.41.243-.737.579-.98 1.008-.233.43-.35.929-.35 1.498 0 .57.117 1.073.35 1.512.243.43.57.765.98 1.008.42.233.891.35 1.414.35Zm9.516-6.608c.598 0 1.12.117 1.568.35.458.224.812.57 1.064 1.036.262.467.392 1.055.392 1.764v4.27h-.994v-4.172c0-.775-.196-1.358-.588-1.75-.382-.401-.924-.602-1.624-.602-.522 0-.98.107-1.372.322a2.16 2.16 0 0 0-.896.91c-.205.392-.308.868-.308 1.428v3.864h-.994V11.791h.994v5.054l-.196-.378a2.637 2.637 0 0 1 1.12-1.246c.514-.308 1.125-.462 1.834-.462Zm10.203 7.504a5.714 5.714 0 0 1-2.058-.364 5.082 5.082 0 0 1-1.638-1.05 5.12 5.12 0 0 1-1.078-1.582 5.132 5.132 0 0 1-.378-1.988c0-.719.126-1.377.378-1.974a4.909 4.909 0 0 1 1.078-1.582 4.789 4.789 0 0 1 1.638-1.05 5.457 5.457 0 0 1 2.058-.378c.738 0 1.419.126 2.044.378a4.743 4.743 0 0 1 1.624 1.036c.467.448.826.975 1.078 1.582a4.97 4.97 0 0 1 .392 1.988 4.97 4.97 0 0 1-.392 1.988 4.629 4.629 0 0 1-1.078 1.582 4.92 4.92 0 0 1-1.624 1.05 5.601 5.601 0 0 1-2.044.364Zm3.206 1.862c-.298 0-.588-.037-.868-.112a3.508 3.508 0 0 1-.854-.364 5.32 5.32 0 0 1-.868-.63 15.03 15.03 0 0 1-.98-.952l1.134-.28c.29.345.57.63.84.854.28.224.55.387.812.49.27.112.537.168.798.168.728 0 1.349-.299 1.862-.896l.504.602c-.616.747-1.41 1.12-2.38 1.12Zm-3.206-2.786a4.37 4.37 0 0 0 1.624-.294 3.794 3.794 0 0 0 1.302-.868c.374-.373.663-.803.868-1.288a4.157 4.157 0 0 0 .308-1.61 4.09 4.09 0 0 0-.308-1.61 3.825 3.825 0 0 0-.868-1.288 3.633 3.633 0 0 0-1.302-.854 4.195 4.195 0 0 0-1.624-.308 4.3 4.3 0 0 0-1.638.308c-.504.196-.942.48-1.316.854a4.121 4.121 0 0 0-.868 1.288 4.092 4.092 0 0 0-.308 1.61c0 .579.103 1.115.308 1.61.215.485.504.915.868 1.288.374.373.812.663 1.316.868a4.48 4.48 0 0 0 1.638.294Zm7.46.84v-9.8h1.036v8.904h5.488v.896h-6.524Z"/><mask id="mask0_4477_50894" width="13" height="17" x="7" y="9" maskUnits="userSpaceOnUse" style="mask-type:luminance"><path fill="#fff" d="M20 25.18H7v-16h13v16Z"/></mask><g mask="url(#mask0_4477_50894)"><path fill="#E535AB" fill-rule="evenodd" d="m14.748 23.348 3.004-1.897c.084.098.183.184.295.256.623.391 1.417.159 1.78-.523.357-.681.145-1.55-.478-1.946a1.245 1.245 0 0 0-.347-.151V15.29c.117-.031.233-.081.343-.15.627-.396.84-1.265.477-1.947-.358-.681-1.156-.914-1.779-.522a1.325 1.325 0 0 0-.322.286l-2.985-1.886c.043-.14.066-.292.066-.449 0-.783-.582-1.424-1.302-1.424-.72 0-1.302.637-1.302 1.424 0 .14.019.276.053.403l-3.003 1.897a1.337 1.337 0 0 0-.291-.251c-.627-.392-1.421-.16-1.78.522-.358.682-.145 1.55.478 1.947.11.069.226.119.343.15v3.796a1.245 1.245 0 0 0-.347.15c-.623.393-.835 1.266-.477 1.947.358.682 1.156.914 1.78.523.11-.071.209-.157.293-.255l3.004 1.898a1.555 1.555 0 0 0-.053.405c0 .788.582 1.424 1.302 1.424.72 0 1.302-.636 1.302-1.424 0-.141-.019-.278-.054-.407Zm-.313-.584 3.01-1.902a1.54 1.54 0 0 1 .125-1.102c.183-.349.481-.58.813-.67v-3.8a1.15 1.15 0 0 1-.05-.015l-3.933 7.45.035.039Zm-1.834-.04-3.932-7.45c-.017.006-.034.01-.052.015v3.801c.332.09.63.321.814.67.183.348.216.746.123 1.104l3.01 1.901a1.44 1.44 0 0 1 .037-.04Zm1.263-.337 3.93-7.449a1.402 1.402 0 0 1-.228-.32 1.51 1.51 0 0 1-.137-.375H9.572a1.423 1.423 0 0 1-.366.694l3.931 7.45a1.202 1.202 0 0 1 .727 0Zm.599-10.804 2.99 1.89-.023.093H9.57a1.536 1.536 0 0 0-.014-.056l3.006-1.898c.237.269.57.436.938.436.382 0 .725-.18.963-.465Z" clip-rule="evenodd"/></g></g><defs><clipPath id="clip0_4477_50894"><path fill="#fff" d="M0 .18h90v34H0z"/></clipPath></defs></svg>