<svg xmlns="http://www.w3.org/2000/svg" width="150" height="33" fill="none" viewBox="0 0 150 33"><mask id="mask0_6544_117326" width="150" height="33" x="0" y="0" maskUnits="userSpaceOnUse" style="mask-type:luminance"><path fill="#fff" d="M150 0H0v32.976h150V0Z"/></mask><g mask="url(#mask0_6544_117326)"><mask id="mask1_6544_117326" width="150" height="34" x="0" y="0" maskUnits="userSpaceOnUse" style="mask-type:luminance"><path fill="#fff" d="M150 .508H0v32.975h150V.508Z"/></mask><g mask="url(#mask1_6544_117326)"><path fill="#1CBC29" d="m1.36 14.258 10.098 11.568h6.203L4.463 10.703l-3.104 3.555ZM23.754 19.735 13.656 8.168H7.453l13.198 15.12 3.103-3.553Z"/><path fill="#202020" d="M33.964 18.32v10.662h15.083l-1.4 3.66H28.577V.637h22.618l-1.794 3.532H33.963V14.83h8.165l-1.44 3.49h-6.725ZM124.336 1.902h25.67l-3.645 4.23h-6.459v26.51h-5.462V6.132h-6.627l-3.477-4.23ZM88.872 15.062h3.648c2.263 0 4.103-2.108 4.103-4.7 0-2.591-1.84-4.7-4.103-4.7h-7.95v26.98h-5.46V.637h13.41c4.689 0 8.489 4.354 8.489 9.725 0 5.372-3.425 9.277-7.78 9.689l11.174 12.802h-5.82l-9.71-10.457V15.06l-.001.002Z"/><path fill="#1CBC29" d="M5.504.508H-.03V32.64h5.535V.508ZM24.52.508h-5.536V32.64h5.536V.508Z"/><path fill="#202020" d="M65.727.637h-4.056l-10.96 32.005h5.503L63.7 10.799l7.486 21.843h5.502L65.728.637ZM124.107 18.998c-.608-.695-1.368-1.368-2.285-2.023-.916-.652-1.759-1.17-2.525-1.554a44.616 44.616 0 0 0-2.563-1.17c-.423-.17-.918-.367-1.487-.597a78.954 78.954 0 0 1-2.471-1.063 15.023 15.023 0 0 1-1.691-.915c-.569-.356-.985-.725-1.244-1.108-.259-.383-.439-.843-.539-1.384a9.057 9.057 0 0 1-.037-.873c0-.328.076-.708.223-1.15.148-.438.346-.843.594-1.212.94-1.333 2.489-2 4.644-2 2.155 0 3.856.811 5.349 2.423h4.984c-2.237-3.767-5.703-5.657-10.407-5.657-1.361 0-2.618.186-3.768.553-1.152.369-2.12.859-2.9 1.467a9.876 9.876 0 0 0-2.007 2.106c-.557.795-.96 1.591-1.208 2.383a7.73 7.73 0 0 0-.371 2.3c0 .738.067 1.425.205 2.064.136.638.358 1.228.669 1.767.31.538.614 1.022.91 1.447.298.425.711.838 1.245 1.235.532.397.984.725 1.355.978.372.255.886.545 1.543.873.655.327 1.17.566 1.543.724l1.561.66 1.076.425a46.54 46.54 0 0 1 2.453 1.042c.569.27 1.175.584 1.82.936.644.356 1.121.688 1.431 1.001.311.314.563.674.762 1.085.199.411.299.873.299 1.384 0 1.447-.534 2.603-1.598 3.47a5.61 5.61 0 0 1-3.64 1.297c-3.203 0-5.387-1.059-6.56-3.167h-4.393c.637 1.925 1.717 3.455 3.243 4.593 1.845 1.377 4.18 2.065 7.004 2.065 1.337 0 2.626-.155 3.863-.47a12.869 12.869 0 0 0 3.493-1.446c1.089-.653 1.956-1.568 2.601-2.745.644-1.177.967-2.533.967-4.064a8.222 8.222 0 0 0-.612-3.149c-.41-.994-.917-1.837-1.523-2.531h-.008Z"/></g></g></svg>