<svg xmlns="http://www.w3.org/2000/svg" width="95" height="34" fill="none" viewBox="0 0 95 34"><path fill="#FCC796" d="M76.905 0h-58.81C8.102 0 0 7.611 0 17s8.102 17 18.095 17h58.81C86.898 34 95 26.389 95 17S86.898 0 76.905 0Z"/><path fill="#131313" d="M49.558 18.61v-7.985h.96v7.984c0 .766-.15 1.412-.452 1.938a3.01 3.01 0 0 1-1.22 1.203c-.515.27-1.103.406-1.765.406-.677 0-1.276-.12-1.797-.36a2.675 2.675 0 0 1-1.203-1.085c-.286-.49-.43-1.107-.43-1.852h.961c0 .547.097 1.006.29 1.375.197.365.481.641.851.828.37.183.813.274 1.328.274.464 0 .88-.102 1.25-.305a2.25 2.25 0 0 0 .89-.914c.225-.406.337-.909.337-1.508Zm9.51 1.874v-4.359c0-.401-.083-.747-.25-1.04a1.645 1.645 0 0 0-.734-.67c-.323-.157-.721-.235-1.195-.235-.437 0-.828.078-1.172.234a2.018 2.018 0 0 0-.804.617 1.38 1.38 0 0 0-.29.852l-.937-.008c0-.318.078-.625.234-.922.157-.297.378-.562.664-.797a3.27 3.27 0 0 1 1.024-.554c.4-.141.841-.211 1.32-.211.604 0 1.136.101 1.594.304a2.4 2.4 0 0 1 1.086.914c.26.407.39.917.39 1.532v4.086c0 .291.021.593.063.906a3.4 3.4 0 0 0 .195.773V22h-.992a3.82 3.82 0 0 1-.148-.703 7.522 7.522 0 0 1-.047-.813Zm.22-3.406.015.719h-1.836a5.7 5.7 0 0 0-1.289.133 2.938 2.938 0 0 0-.953.375c-.26.161-.46.357-.602.586-.135.229-.203.49-.203.78 0 .303.076.579.227.829.156.25.375.45.656.602.287.145.625.218 1.016.218.52 0 .979-.096 1.375-.289a2.91 2.91 0 0 0 .992-.758c.26-.312.435-.653.523-1.023l.407.54c-.068.26-.193.528-.375.804-.178.27-.41.526-.696.765a3.69 3.69 0 0 1-1.015.578 3.69 3.69 0 0 1-1.313.22c-.552 0-1.034-.105-1.445-.313a2.404 2.404 0 0 1-.953-.852 2.311 2.311 0 0 1-.336-1.234c0-.417.088-.79.265-1.117.178-.334.433-.615.766-.844a3.724 3.724 0 0 1 1.219-.531 6.38 6.38 0 0 1 1.61-.188h1.944Zm6.385 4.024 2.711-7.555h.961L66.181 22h-.68l.172-.898Zm-2.453-7.555 2.743 7.578.148.875h-.688l-3.171-8.453h.968Zm13.48 6.937v-4.359c0-.401-.083-.747-.25-1.04a1.646 1.646 0 0 0-.734-.67c-.323-.157-.722-.235-1.196-.235-.437 0-.828.078-1.172.234a2.02 2.02 0 0 0-.804.617 1.38 1.38 0 0 0-.29.852l-.937-.008c0-.318.078-.625.235-.922.156-.297.377-.562.664-.797a3.27 3.27 0 0 1 1.023-.554c.401-.141.841-.211 1.32-.211.605 0 1.136.101 1.594.304a2.4 2.4 0 0 1 1.086.914c.26.407.39.917.39 1.532v4.086c0 .291.021.593.063.906a3.4 3.4 0 0 0 .196.773V22h-.993a3.812 3.812 0 0 1-.148-.703 7.497 7.497 0 0 1-.047-.813Zm.219-3.406.015.719h-1.836a5.7 5.7 0 0 0-1.289.133 2.94 2.94 0 0 0-.953.375c-.26.161-.46.357-.601.586-.136.229-.203.49-.203.78 0 .303.075.579.226.829.156.25.375.45.656.602.287.145.625.218 1.016.218.52 0 .98-.096 1.375-.289a2.91 2.91 0 0 0 .992-.758c.26-.312.435-.653.524-1.023l.406.54c-.068.26-.193.528-.375.804-.177.27-.409.526-.695.765a3.69 3.69 0 0 1-1.016.578 3.69 3.69 0 0 1-1.313.22c-.552 0-1.033-.105-1.445-.313a2.405 2.405 0 0 1-.953-.852 2.31 2.31 0 0 1-.336-1.234c0-.417.089-.79.266-1.117.177-.334.432-.615.765-.844a3.725 3.725 0 0 1 1.22-.531 6.38 6.38 0 0 1 1.608-.188h1.946Z"/><g clip-path="url(#clip0_7098_29623)"><path fill="#4E7896" d="M19.264 22.463s-.77.467.534.6c1.569.2 2.404.168 4.14-.166.35.214.719.393 1.102.534-3.906 1.67-8.849-.1-5.776-.968Zm-.5-2.17s-.835.633.467.768c1.703.167 3.039.2 5.344-.267.224.227.498.399.801.5-4.709 1.403-9.985.134-6.613-1.002Zm9.216 3.805s.568.468-.634.835c-2.238.67-9.384.87-11.387 0-.702-.3.634-.734 1.062-.8.434-.1.669-.1.669-.1-.769-.535-5.11 1.1-2.204 1.568 7.981 1.302 14.56-.568 12.49-1.503h.004Zm-8.355-6.077s-3.64.869-1.303 1.169c1.002.133 2.972.1 4.809-.034 1.503-.133 3.006-.4 3.006-.4s-.534.234-.902.468c-3.706.969-10.82.534-8.782-.468 1.736-.835 3.172-.734 3.172-.734v-.001Zm6.512 3.64c3.74-1.938 2.004-3.806.802-3.573-.3.067-.435.133-.435.133s.1-.2.334-.266c2.371-.835 4.241 2.504-.769 3.806 0 0 .033-.033.067-.1h.001Zm-6.143 5.276c3.606.234 9.116-.134 9.25-1.837 0 0-.267.668-2.972 1.168-3.073.568-6.88.5-9.117.134 0 0 .467.4 2.838.535Z"/><path fill="#F58219" d="M23.873 7s2.07 2.104-1.97 5.276c-3.24 2.572-.735 4.04 0 5.71-1.904-1.702-3.273-3.205-2.338-4.607 1.369-2.072 5.143-3.067 4.308-6.379Zm-1.063 9.584c.969 1.102-.267 2.104-.267 2.104s2.472-1.269 1.336-2.839c-1.035-1.502-1.838-2.237 2.504-4.742 0 0-6.845 1.704-3.573 5.477Z"/></g><defs><clipPath id="clip0_7098_29623"><path fill="#fff" d="M12 7h20v20H12z"/></clipPath></defs></svg>