<svg xmlns="http://www.w3.org/2000/svg" width="180" height="47" fill="none" viewBox="0 0 180 47"><path fill="#131313" d="M60.055 24.762v15.123h-6.992V5.957h6.992v15.267L72.76 6.005h8.443l-14.4 16.82 14.795 17.108H72.72l-12.665-15.17Z"/><path fill="#131313" d="M91.084 12.518c1.766-.058 3.52.301 5.112 1.046a10.89 10.89 0 0 1 4.032 3.23V12.96h7.052v26.927h-7.052v-3.912a10.843 10.843 0 0 1-4.041 3.301 11.17 11.17 0 0 1-5.162 1.071c-6.993 0-12.595-5.59-12.595-13.99 0-8.401 5.622-13.838 12.654-13.838ZM92.88 18.5c-3.758 0-7.3 2.724-7.3 7.826 0 5.101 3.542 8.036 7.3 8.036s7.348-2.82 7.348-7.931c0-5.111-3.502-7.93-7.348-7.93ZM130.719 18.452l-12.152 15.842h12.359v5.59h-20.348V34.4l12.083-15.851h-12.083v-5.591h20.131l.01 5.495ZM173.025 25.06c0-4.278-2.456-6.512-6.155-6.512-3.698 0-6.203 2.234-6.203 6.511v14.873h-6.974V25.06c0-4.277-2.446-6.511-6.155-6.511-3.708 0-6.282 2.215-6.282 6.511v14.873h-6.904V12.957h6.904v3.27a10.04 10.04 0 0 1 3.629-2.752 10.448 10.448 0 0 1 4.518-.901c4.3 0 7.89 1.802 9.745 5.15a10.867 10.867 0 0 1 4.053-3.798 11.258 11.258 0 0 1 5.455-1.352c6.638 0 11.343 4.085 11.343 11.507v15.794h-7.013l.039-14.816Z"/><path fill="#131313" fill-rule="evenodd" d="m27.57 14.81-7.74 9.46 7.623 7.934-5.803 11.709 20.152-14.174-7.99-23.782H21.936l5.632 8.853ZM0 29.782l7.973-23.79h12.269l.986 6.145-8.206 12.151 7.48 11.518-1.229 7.56L0 29.782Z" clip-rule="evenodd"/></svg>