<svg xmlns="http://www.w3.org/2000/svg" width="95" height="34" fill="none" viewBox="0 0 95 34"><path fill="#F9E7D5" d="M76.905 0h-58.81C8.102 0 0 7.611 0 17s8.102 17 18.095 17h58.81C86.898 34 95 26.389 95 17S86.898 0 76.905 0Z"/><path fill="#131313" d="M41.406 10.625V22h-.96V10.625h.96Zm7.032 0-4.907 5.21-2.468 2.43-.094-1.07 1.984-2.062 4.281-4.508h1.203ZM47.64 22l-4.79-5.844.579-.773L48.805 22H47.64Zm2.76-4.094v-.258c0-.614.09-1.182.266-1.703.177-.52.43-.971.758-1.351.333-.38.732-.675 1.195-.883.464-.214.98-.32 1.547-.32.573 0 1.091.106 1.555.32.463.208.862.502 1.195.883.334.38.589.83.766 1.351a5.26 5.26 0 0 1 .265 1.703v.258a5.26 5.26 0 0 1-.265 1.703 3.969 3.969 0 0 1-.766 1.344c-.328.38-.724.677-1.187.89-.464.21-.98.313-1.547.313a3.752 3.752 0 0 1-1.555-.312 3.544 3.544 0 0 1-1.195-.89 3.969 3.969 0 0 1-.766-1.345 5.26 5.26 0 0 1-.265-1.703Zm.93-.258v.258c0 .464.063.904.188 1.32.125.412.307.78.547 1.102.24.318.536.568.89.75.354.182.763.274 1.227.274.458 0 .862-.092 1.21-.274.355-.182.652-.432.891-.75.24-.323.42-.69.54-1.101.124-.417.187-.857.187-1.32v-.259c0-.458-.063-.893-.188-1.304a3.359 3.359 0 0 0-.546-1.102 2.626 2.626 0 0 0-.891-.765 2.565 2.565 0 0 0-1.219-.282c-.458 0-.864.094-1.219.282a2.728 2.728 0 0 0-.89.765c-.24.323-.422.69-.547 1.102-.12.411-.18.846-.18 1.304Zm12.55-4.101v.765h-4.234v-.765h4.234Zm-2.68-2.172h.93v8.57c0 .39.052.685.157.883.104.198.24.33.406.399.166.067.346.101.539.101.14 0 .276-.008.406-.023.13-.021.247-.042.352-.063l.039.79a2.405 2.405 0 0 1-.446.085 3.869 3.869 0 0 1-.547.04 2.21 2.21 0 0 1-.953-.196c-.276-.135-.492-.365-.648-.688-.156-.328-.234-.773-.234-1.335v-8.563ZM67.682 10v12h-.93V10h.93Zm4.394 3.547V22h-.93v-8.453h.93Zm-1.094-2.445c0-.178.055-.326.164-.446a.604.604 0 0 1 .47-.187c.197 0 .353.062.468.187.12.12.18.268.18.446a.618.618 0 0 1-.648.625.618.618 0 0 1-.47-.18.654.654 0 0 1-.164-.445Zm5.378 4.25V22h-.93v-8.453h.891l.04 1.805Zm-.21 1.898-.415-.234c.032-.5.133-.97.305-1.407.172-.437.404-.822.695-1.156a3.233 3.233 0 0 1 1.04-.781 3.097 3.097 0 0 1 1.328-.281c.421 0 .799.057 1.132.171.334.115.618.297.852.547.234.25.411.57.531.961.125.39.188.867.188 1.43V22h-.938v-5.508c0-.583-.08-1.039-.242-1.367-.162-.333-.39-.57-.688-.71-.296-.142-.648-.212-1.054-.212-.448 0-.841.1-1.18.297a2.73 2.73 0 0 0-.844.758 3.672 3.672 0 0 0-.515.992c-.12.349-.185.682-.196 1Z"/><g clip-path="url(#clip0_7092_29323)"><path fill="#4971A9" d="M14 22.894v.064a2.858 2.858 0 0 0 2.863 2.863 2.858 2.858 0 0 0 2.863-2.863v-3.154L14 22.894Zm17.31.016a2.554 2.554 0 0 0-.744-1.618v-.016l-5.144-4.545-4.998 2.685 6.454 5.742c.485.42 1.1.647 1.747.647.08 0 .162 0 .226-.016a2.69 2.69 0 0 0 1.812-.938c.485-.534.695-1.23.647-1.941ZM19.726 11.264v-.372a2.868 2.868 0 0 0-2.863-2.863A2.858 2.858 0 0 0 14 10.892v3.51l5.726-3.138Z"/><path fill="#F58A1F" d="m14 15.631 13.376-7.294c.388-.21.825-.308 1.262-.308.275 0 .55.049.825.13a2.665 2.665 0 0 1 1.714 3.364 2.713 2.713 0 0 1-1.083 1.423v.017l-.162.097L14 21.664v-6.033Z"/></g><defs><clipPath id="clip0_7092_29323"><path fill="#fff" d="M14 8h17.332v17.875H14z"/></clipPath></defs></svg>