<svg xmlns="http://www.w3.org/2000/svg" width="147" height="71" fill="none" viewBox="0 0 147 71"><path fill="#007BC0" d="M97.086 64.367H45.875v3.62h51.21v-3.62ZM97.086 1.863H45.875v3.62h51.21v-3.62Z"/><path fill="#231F20" d="M4.867 42.008H5.97v6.942H9.7v1.011H4.866v-7.953ZM14.915 46.86a2.126 2.126 0 0 0-.11-.618 1.352 1.352 0 0 0-.292-.489 1.332 1.332 0 0 0-.487-.325 1.82 1.82 0 0 0-.684-.12c-.252 0-.484.047-.693.141a1.682 1.682 0 0 0-.873.866c-.08.183-.12.364-.12.544h3.259Zm-3.26.808c0 .232.052.444.155.635.104.19.24.353.408.489.168.134.363.24.585.314.222.075.451.113.689.113.321 0 .6-.075.838-.22.237-.146.455-.339.654-.578l.78.584c-.574.726-1.376 1.09-2.41 1.09-.428 0-.816-.072-1.164-.214a2.539 2.539 0 0 1-.884-.59 2.602 2.602 0 0 1-.556-.886 3.06 3.06 0 0 1-.195-1.108c0-.397.07-.765.212-1.106a2.663 2.663 0 0 1 1.474-1.477c.345-.141.72-.214 1.124-.214.483 0 .89.083 1.223.248a2.411 2.411 0 0 1 1.286 1.544c.095.333.143.672.143 1.017v.359h-4.361ZM20.514 47.398c-.245 0-.495.013-.752.04a3 3 0 0 0-.7.151c-.21.075-.382.18-.516.315a.702.702 0 0 0-.2.517c0 .307.104.528.315.662.21.135.495.202.855.202.283 0 .524-.047.723-.14.199-.094.36-.215.482-.364.123-.15.21-.317.264-.5.053-.185.08-.365.08-.545v-.338h-.551Zm-2.915-2.112c.29-.263.628-.459 1.01-.59a3.518 3.518 0 0 1 1.148-.196c.397 0 .74.05 1.027.146.286.097.522.23.706.393.183.165.319.354.407.568.088.212.132.435.132.668v2.718c0 .187.004.36.011.517.008.157.019.307.035.45h-.919a9.52 9.52 0 0 1-.034-.81H21.1c-.23.345-.5.588-.815.73a2.612 2.612 0 0 1-1.09.214c-.252 0-.493-.034-.723-.1a1.78 1.78 0 0 1-.602-.305 1.447 1.447 0 0 1-.408-.5 1.517 1.517 0 0 1-.148-.69c0-.344.077-.633.234-.865.157-.232.372-.422.643-.568.271-.145.589-.25.952-.314a6.737 6.737 0 0 1 1.165-.095h.758v-.225c0-.135-.028-.27-.082-.404a1.087 1.087 0 0 0-.24-.365 1.152 1.152 0 0 0-.402-.259 1.55 1.55 0 0 0-.574-.096 2.126 2.126 0 0 0-1.262.395c-.1.073-.195.146-.287.212l-.619-.629ZM26.478 49.15c.275 0 .524-.047.746-.141.222-.094.41-.221.563-.382.153-.16.27-.355.355-.584a2.16 2.16 0 0 0 .126-.747c0-.27-.042-.518-.126-.747a1.666 1.666 0 0 0-.355-.584 1.655 1.655 0 0 0-.563-.382 1.903 1.903 0 0 0-.746-.14c-.275 0-.524.046-.746.14-.221.094-.41.22-.562.382a1.66 1.66 0 0 0-.356.584c-.084.229-.126.477-.126.747s.042.518.126.747c.083.229.203.423.356.584.153.16.34.288.562.382.222.094.471.14.746.14Zm2.823.808h-1.033v-.764h-.022c-.2.285-.473.505-.821.663a2.576 2.576 0 0 1-1.073.236c-.42 0-.802-.072-1.142-.214-.34-.142-.63-.34-.872-.595a2.663 2.663 0 0 1-.557-.888 3.03 3.03 0 0 1-.195-1.1c0-.398.065-.767.195-1.108.13-.34.316-.636.557-.887a2.57 2.57 0 0 1 .872-.59c.34-.142.721-.212 1.142-.212.39 0 .757.08 1.101.241.344.16.608.38.792.657h.023v-3.932H29.3v8.493ZM35.228 46.86a2.143 2.143 0 0 0-.11-.618 1.35 1.35 0 0 0-.292-.489 1.333 1.333 0 0 0-.488-.325 1.818 1.818 0 0 0-.683-.12 1.686 1.686 0 0 0-1.227.506c-.146.15-.26.317-.34.5-.08.184-.12.365-.12.545h3.26Zm-3.26.808c0 .232.05.444.155.635.103.19.239.353.407.489.169.134.363.24.585.314.222.075.451.113.689.113.322 0 .6-.075.838-.22a2.7 2.7 0 0 0 .654-.578l.78.584c-.573.726-1.376 1.09-2.41 1.09-.428 0-.816-.072-1.164-.214a2.55 2.55 0 0 1-.884-.59 2.601 2.601 0 0 1-.555-.886 3.068 3.068 0 0 1-.196-1.108c0-.397.07-.765.212-1.106.142-.34.337-.637.586-.887a2.66 2.66 0 0 1 .889-.59 2.94 2.94 0 0 1 1.124-.214c.483 0 .89.083 1.223.248a2.42 2.42 0 0 1 1.285 1.544c.096.333.144.672.144 1.017v.359h-4.362ZM37.89 44.634h1.033v.82h.023c.069-.141.16-.271.275-.387a1.906 1.906 0 0 1 .85-.494 1.83 1.83 0 0 1 .505-.073c.168 0 .321.022.46.067l-.047 1.09a2.966 2.966 0 0 0-.253-.057 1.413 1.413 0 0 0-.252-.023c-.504 0-.89.139-1.159.416-.267.277-.401.708-.401 1.292v2.674h-1.032v-5.325h-.001ZM45.342 45.968a1.588 1.588 0 0 0-.452-.376c-.18-.1-.4-.152-.66-.152a1.28 1.28 0 0 0-.637.152.483.483 0 0 0-.27.444c0 .157.052.285.156.381.102.097.225.176.367.236.141.06.293.105.454.135.16.03.297.056.412.08.222.05.43.114.625.19.196.075.364.172.505.291.142.12.253.267.334.439.08.173.12.381.12.63 0 .298-.065.554-.195.768-.13.214-.299.387-.505.523a2.14 2.14 0 0 1-.705.291c-.265.06-.53.09-.799.09-.452 0-.847-.067-1.188-.202-.34-.135-.644-.382-.912-.741l.78-.63c.168.166.356.312.564.438.206.128.458.192.756.192.13 0 .262-.013.397-.04.133-.026.252-.067.355-.123a.765.765 0 0 0 .252-.213.485.485 0 0 0 .098-.298.508.508 0 0 0-.143-.371 1.056 1.056 0 0 0-.345-.231 2.522 2.522 0 0 0-.424-.134c-.15-.034-.28-.062-.396-.084a7.179 7.179 0 0 1-.631-.18 1.94 1.94 0 0 1-.528-.27 1.237 1.237 0 0 1-.367-.426 1.355 1.355 0 0 1-.138-.64c0-.278.06-.52.178-.725.118-.206.275-.377.47-.512.196-.135.417-.235.667-.303.248-.068.498-.1.751-.1.367 0 .718.066 1.055.201.337.135.604.36.804.674l-.805.596ZM47.868 41.465H48.9v3.988h.023c.13-.285.356-.514.677-.691a2.278 2.278 0 0 1 1.113-.264c.26 0 .51.04.752.119.24.078.451.2.631.364.18.165.323.377.43.635.108.258.161.563.161.915v3.427h-1.033v-3.146c0-.247-.034-.458-.103-.635a1.146 1.146 0 0 0-.275-.426 1.04 1.04 0 0 0-.396-.236 1.507 1.507 0 0 0-.465-.072c-.214 0-.413.033-.597.1a1.244 1.244 0 0 0-.482.32c-.138.147-.245.332-.321.557-.077.224-.115.49-.115.797v2.741h-1.033v-8.493ZM54.655 44.635h1.033v5.325h-1.033v-5.325Zm-.24-1.91c0-.2.073-.375.222-.522a.739.739 0 0 1 .535-.219c.206 0 .384.074.532.22.15.146.225.32.225.522a.703.703 0 0 1-.225.522.734.734 0 0 1-.532.219.737.737 0 0 1-.535-.22.705.705 0 0 1-.223-.521ZM60.471 45.443c-.275 0-.524.046-.745.14-.222.094-.41.221-.563.383-.153.16-.271.354-.356.583-.084.23-.126.478-.126.748s.042.518.126.747c.084.228.203.423.356.583.153.161.341.289.563.383.22.094.47.14.745.14.276 0 .524-.047.747-.14.221-.094.409-.221.562-.383.153-.16.271-.355.355-.583a2.14 2.14 0 0 0 .127-.747c0-.27-.042-.518-.127-.748a1.653 1.653 0 0 0-.355-.583 1.651 1.651 0 0 0-.562-.383 1.894 1.894 0 0 0-.747-.14Zm-2.823-.809h1.033v.764h.023c.2-.285.472-.505.82-.662a2.575 2.575 0 0 1 1.074-.236c.42 0 .802.07 1.142.214.34.142.63.34.871.594.242.255.427.553.558.894.13.34.194.706.194 1.095 0 .397-.064.766-.194 1.107-.131.34-.316.637-.557.887-.241.25-.532.447-.872.59a2.94 2.94 0 0 1-1.142.213c-.39 0-.757-.08-1.102-.242a1.874 1.874 0 0 1-.792-.657h-.022v3.932h-1.033v-8.493ZM69.671 48.95h1.39c.466 0 .908-.062 1.325-.186a3.235 3.235 0 0 0 1.096-.555c.314-.248.562-.556.746-.928.183-.37.275-.803.275-1.296a3.81 3.81 0 0 0-.126-.893 2.664 2.664 0 0 0-.476-.973c-.233-.307-.557-.567-.97-.78-.413-.214-.949-.32-1.606-.32h-1.653v5.93Zm-1.1-6.942h2.834c.572 0 1.076.063 1.508.19a4.03 4.03 0 0 1 1.124.512c.318.213.582.459.792.736.21.276.378.56.499.854a4.49 4.49 0 0 1 .345 1.685c0 .509-.096 1-.287 1.477a3.739 3.739 0 0 1-.849 1.27c-.375.37-.84.667-1.394.892-.555.225-1.195.337-1.923.337h-2.65v-7.953ZM81.352 46.86a2.11 2.11 0 0 0-.11-.618 1.343 1.343 0 0 0-.292-.489 1.332 1.332 0 0 0-.488-.325 1.82 1.82 0 0 0-.683-.12 1.684 1.684 0 0 0-1.227.506c-.146.15-.259.317-.34.5-.08.184-.12.365-.12.545h3.26Zm-3.26.808c0 .232.052.444.156.635.103.19.239.353.407.489.168.134.363.24.585.314.222.075.451.113.689.113.321 0 .6-.075.838-.22.237-.146.455-.339.654-.578l.78.584c-.573.726-1.376 1.09-2.41 1.09a3.05 3.05 0 0 1-1.164-.214 2.544 2.544 0 0 1-.884-.59 2.61 2.61 0 0 1-.556-.886 3.079 3.079 0 0 1-.195-1.108c0-.397.071-.765.212-1.106.142-.34.337-.637.586-.887.248-.251.544-.448.89-.59a2.932 2.932 0 0 1 1.123-.214c.483 0 .89.083 1.222.248a2.416 2.416 0 0 1 1.286 1.544c.095.333.143.672.143 1.017v.359h-4.361ZM83.367 44.637h1.194l1.63 4.078 1.56-4.078h1.1l-2.133 5.325h-1.136l-2.215-5.325ZM94.118 46.864a2.097 2.097 0 0 0-.11-.618 1.35 1.35 0 0 0-.292-.489 1.337 1.337 0 0 0-.488-.325 1.82 1.82 0 0 0-.682-.12 1.68 1.68 0 0 0-.694.14 1.681 1.681 0 0 0-.873.866c-.08.184-.12.365-.12.545h3.259Zm-3.26.808c0 .232.052.443.155.635.103.19.24.353.408.489.168.134.363.24.585.313.222.075.451.113.689.113.321 0 .6-.074.838-.219.236-.146.454-.339.653-.578l.781.584c-.574.726-1.377 1.09-2.41 1.09-.428 0-.817-.072-1.164-.214a2.543 2.543 0 0 1-.884-.59 2.625 2.625 0 0 1-.557-.887 3.09 3.09 0 0 1-.194-1.107c0-.397.07-.766.212-1.106a2.662 2.662 0 0 1 1.475-1.477 2.935 2.935 0 0 1 1.124-.214c.482 0 .89.083 1.222.248a2.411 2.411 0 0 1 1.285 1.544c.096.333.144.672.144 1.017v.358H90.86ZM97.892 41.469H96.86v8.493h1.033V41.47ZM100.688 47.3c0 .27.042.52.125.748.084.228.203.423.357.585.153.16.34.288.562.38.222.094.471.141.746.141.276 0 .524-.047.746-.14.222-.094.41-.221.562-.381.154-.162.272-.357.356-.585.085-.228.127-.477.127-.747s-.042-.518-.127-.747a1.648 1.648 0 0 0-.356-.584 1.62 1.62 0 0 0-.562-.381 1.888 1.888 0 0 0-.746-.142c-.275 0-.524.047-.746.142a1.63 1.63 0 0 0-.562.381 1.66 1.66 0 0 0-.357.584c-.083.229-.125.477-.125.747Zm-1.102 0c0-.388.075-.752.224-1.089a2.842 2.842 0 0 1 1.532-1.488c.352-.146.73-.22 1.136-.22a2.926 2.926 0 0 1 2.053.82c.26.255.465.551.614.888.149.337.224.7.224 1.09a2.738 2.738 0 0 1-.838 1.982 2.93 2.93 0 0 1-2.053.815 2.931 2.931 0 0 1-2.054-.815 2.751 2.751 0 0 1-.838-1.982ZM109.815 45.447c-.275 0-.524.046-.746.14a1.66 1.66 0 0 0-.563.383c-.152.16-.27.354-.354.583-.085.23-.127.478-.127.747 0 .27.042.518.127.748.083.228.202.422.354.583.154.161.341.289.563.383.222.094.471.14.746.14a1.9 1.9 0 0 0 .746-.14 1.66 1.66 0 0 0 .563-.383c.153-.16.271-.355.355-.584.084-.229.127-.477.127-.747s-.043-.518-.127-.747a1.645 1.645 0 0 0-.355-.583 1.66 1.66 0 0 0-.563-.383 1.893 1.893 0 0 0-.746-.14Zm-2.823-.81h1.033v.765h.023c.199-.285.472-.505.821-.662a2.578 2.578 0 0 1 1.073-.236c.421 0 .801.07 1.141.213.341.142.632.341.873.595.241.255.426.553.556.894.13.34.195.706.195 1.095 0 .397-.065.766-.195 1.107-.13.34-.315.637-.556.887a2.555 2.555 0 0 1-.873.59c-.34.141-.72.213-1.141.213-.391 0-.758-.08-1.102-.242a1.873 1.873 0 0 1-.792-.657h-.023v3.932h-1.032v-8.493h-.001ZM114.32 44.638h.964v.832h.023a.877.877 0 0 1 .178-.282c.095-.111.218-.218.367-.32.15-.1.325-.186.528-.257.202-.072.426-.107.671-.107.406 0 .746.083 1.022.247.275.165.501.413.676.74.176-.328.425-.575.747-.74.321-.164.646-.247.975-.247.42 0 .765.067 1.033.202.267.135.478.313.631.533.153.221.258.472.315.753.058.28.086.571.086.87v3.1h-1.032v-2.964a4.11 4.11 0 0 0-.04-.585 1.34 1.34 0 0 0-.167-.495.931.931 0 0 0-.356-.341c-.153-.087-.355-.13-.608-.13-.497 0-.853.15-1.067.45-.214.298-.322.684-.322 1.156v2.91h-1.032v-2.786c0-.254-.013-.487-.04-.697a1.645 1.645 0 0 0-.161-.545.878.878 0 0 0-.344-.358c-.149-.087-.351-.13-.602-.13-.185 0-.362.035-.534.106a1.264 1.264 0 0 0-.454.32 1.564 1.564 0 0 0-.309.545 2.377 2.377 0 0 0-.115.782v2.763h-1.032v-5.325h-.001ZM128.461 46.864a2.167 2.167 0 0 0-.11-.618 1.35 1.35 0 0 0-.292-.489 1.343 1.343 0 0 0-.488-.325 1.822 1.822 0 0 0-.684-.12c-.251 0-.483.047-.693.14a1.672 1.672 0 0 0-.873.866c-.08.184-.12.365-.12.545h3.26Zm-3.26.808c0 .232.052.443.155.635.103.19.24.353.408.489.168.134.363.24.585.313.222.075.452.113.689.113.321 0 .6-.074.837-.219.237-.146.455-.339.655-.578l.78.584c-.574.726-1.377 1.09-2.409 1.09-.429 0-.818-.072-1.165-.214a2.549 2.549 0 0 1-.884-.59 2.612 2.612 0 0 1-.556-.887 3.061 3.061 0 0 1-.194-1.107c0-.397.07-.766.211-1.106.142-.34.337-.637.586-.887.248-.251.544-.448.889-.59a2.936 2.936 0 0 1 1.124-.214c.482 0 .89.083 1.222.248.333.164.607.38.821.645.215.265.369.566.465.899.095.333.144.672.144 1.017v.358h-4.363ZM131.118 44.638h1.032v.82h.023c.13-.283.356-.514.677-.69a2.27 2.27 0 0 1 1.113-.264c.26 0 .511.04.752.117.241.08.45.2.631.366.179.164.323.377.43.635.107.258.161.564.161.915v3.426h-1.033v-3.145c0-.247-.034-.459-.103-.635a1.14 1.14 0 0 0-.276-.426 1.032 1.032 0 0 0-.395-.237 1.511 1.511 0 0 0-.465-.073c-.214 0-.413.034-.597.102a1.246 1.246 0 0 0-.482.32c-.138.146-.245.331-.322.556-.077.224-.115.49-.115.797v2.742h-1.032v-5.326h.001ZM140.73 45.514h-1.48v2.416c0 .15.004.297.012.444.007.145.036.276.085.392.05.117.126.21.229.28.104.072.255.108.454.108.122 0 .248-.011.378-.033.13-.023.249-.065.356-.125v.922a1.366 1.366 0 0 1-.476.14c-.195.026-.346.04-.453.04-.398 0-.706-.054-.924-.164a1.137 1.137 0 0 1-.482-.42 1.362 1.362 0 0 1-.184-.579 7.298 7.298 0 0 1-.028-.646v-2.775h-1.194v-.876h1.194v-1.493h1.033v1.493h1.48v.876ZM4.773 32.008h1.042l2 4.527h.016l2.017-4.527h1.017v5.775h-.7v-4.845h-.018l-2.116 4.845h-.425l-2.117-4.845h-.016v4.845h-.7v-5.775ZM13.02 35.874c0 .201.033.387.096.559a1.299 1.299 0 0 0 .717.751c.169.074.36.11.57.11a1.342 1.342 0 0 0 1.009-.412c.122-.128.216-.278.28-.45a1.58 1.58 0 0 0 .095-.558c0-.2-.032-.387-.096-.559a1.313 1.313 0 0 0-.278-.449 1.346 1.346 0 0 0-.438-.3c-.17-.074-.36-.111-.571-.111-.211 0-.402.037-.571.11a1.334 1.334 0 0 0-.437.301 1.316 1.316 0 0 0-.28.45 1.6 1.6 0 0 0-.096.558Zm-.7 0c0-.299.053-.57.16-.815.105-.245.249-.456.432-.633a1.93 1.93 0 0 1 .659-.411c.255-.099.532-.148.833-.148.3 0 .578.05.833.148.255.098.475.235.658.411.184.177.328.387.434.633.105.244.158.516.158.815 0 .3-.052.572-.158.816-.106.245-.25.456-.434.632a1.947 1.947 0 0 1-.658.412 2.301 2.301 0 0 1-.833.147c-.3 0-.578-.049-.833-.147a1.93 1.93 0 0 1-.659-.412 1.942 1.942 0 0 1-.433-.632 2.045 2.045 0 0 1-.159-.816ZM17.828 31.617h.65v2.879h.016c.045-.076.106-.15.184-.224.077-.073.172-.14.28-.2.108-.06.229-.108.362-.146.133-.038.275-.057.425-.057.255 0 .476.038.662.114.186.076.34.182.463.318.121.136.212.3.27.493.059.194.088.404.088.632v2.358h-.65V35.49c0-.32-.073-.573-.218-.758-.144-.185-.369-.278-.674-.278a1.28 1.28 0 0 0-.545.107.958.958 0 0 0-.375.3c-.097.132-.17.287-.217.466-.047.18-.07.379-.07.596v1.86h-.65v-6.167ZM24.63 35.947c-.417 0-.748.057-.993.171-.245.114-.366.302-.366.564 0 .238.082.409.246.51.163.1.368.15.612.15.19 0 .354-.03.496-.094.142-.063.26-.145.354-.248.095-.104.167-.225.217-.364.05-.138.078-.287.083-.444v-.245h-.65Zm-1.885-1.493c.2-.201.438-.349.713-.445.275-.095.555-.142.838-.142.577 0 .994.133 1.25.4.255.266.383.671.383 1.216v1.639c0 .11.006.222.017.338.01.117.025.225.041.323h-.625a1.323 1.323 0 0 1-.038-.29l-.003-.28h-.017c-.128.195-.3.355-.512.481a1.51 1.51 0 0 1-.772.187 2.1 2.1 0 0 1-.562-.073 1.419 1.419 0 0 1-.458-.216 1.067 1.067 0 0 1-.313-.355.999.999 0 0 1-.117-.49c0-.316.084-.563.25-.742.166-.18.374-.313.62-.4.249-.086.514-.141.8-.162.287-.022.55-.033.789-.033h.25v-.114c0-.277-.085-.487-.255-.629-.17-.14-.407-.212-.712-.212-.212 0-.418.034-.621.103a1.492 1.492 0 0 0-.537.314l-.409-.418ZM27.456 34.871c0-.174-.007-.337-.018-.49a5.98 5.98 0 0 1-.016-.416h.617c0 .104.003.207.008.31.005.103.01.21.01.318h.015c.045-.093.108-.182.188-.27.08-.086.176-.164.287-.232a1.559 1.559 0 0 1 .826-.224c.21 0 .387.026.528.077.142.052.26.115.355.188a.947.947 0 0 1 .221.236c.053.084.095.159.129.225a1.76 1.76 0 0 1 .5-.534c.189-.128.434-.192.733-.192.278 0 .511.036.7.11.189.073.34.18.459.318.116.139.2.307.249.506.05.199.075.42.075.664v2.317h-.65V35.5c0-.131-.014-.259-.042-.384a.877.877 0 0 0-.15-.334.776.776 0 0 0-.291-.237 1.068 1.068 0 0 0-.467-.09.961.961 0 0 0-.712.31 1.06 1.06 0 0 0-.218.356c-.052.139-.079.292-.079.46v2.203h-.65v-2.162c0-.423-.059-.724-.176-.9-.116-.178-.307-.267-.574-.267-.212 0-.393.036-.546.106a.968.968 0 0 0-.375.302 1.33 1.33 0 0 0-.216.465 2.33 2.33 0 0 0-.071.596v1.86h-.65V34.87ZM34.884 34.871a7.37 7.37 0 0 0-.016-.49 5.757 5.757 0 0 1-.016-.416h.616c0 .104.003.207.009.31.005.103.008.21.008.318h.017a1.1 1.1 0 0 1 .187-.27c.08-.086.176-.164.287-.232a1.569 1.569 0 0 1 .826-.224c.212 0 .387.026.529.077.141.052.26.115.354.188a.944.944 0 0 1 .221.236c.053.084.096.159.13.225.143-.229.31-.407.5-.534.188-.128.432-.192.732-.192.278 0 .512.036.7.11.19.073.342.18.458.318.117.139.2.307.25.506.05.198.075.42.075.664v2.317h-.65V35.5c0-.131-.013-.259-.041-.384a.906.906 0 0 0-.15-.334.783.783 0 0 0-.292-.237 1.069 1.069 0 0 0-.467-.09.967.967 0 0 0-.713.31 1.057 1.057 0 0 0-.216.356 1.28 1.28 0 0 0-.08.46v2.203h-.65v-2.162c0-.423-.058-.724-.175-.9-.117-.178-.308-.267-.575-.267-.211 0-.393.036-.545.106a.972.972 0 0 0-.376.302 1.34 1.34 0 0 0-.216.465c-.047.18-.07.379-.07.596v1.86h-.651V34.87ZM45.244 35.53c-.011-.326-.119-.587-.325-.783-.205-.196-.489-.294-.85-.294-.36 0-.653.099-.875.294a1.22 1.22 0 0 0-.4.783h2.45Zm.558 1.558c-.233.294-.489.5-.767.617-.277.117-.599.175-.966.175-.306 0-.581-.053-.825-.159a1.844 1.844 0 0 1-.621-.428 1.86 1.86 0 0 1-.392-.636 2.225 2.225 0 0 1-.137-.784c0-.293.05-.564.15-.81.1-.249.239-.46.416-.638.178-.177.39-.314.634-.411.244-.099.51-.147.8-.147.273 0 .523.045.75.135.227.089.423.22.587.39.163.172.29.382.379.63.088.247.133.528.133.844v.203h-3.15a1.362 1.362 0 0 0 .39.861c.113.111.244.2.394.265.15.066.314.098.492.098.283 0 .521-.048.715-.146.195-.098.37-.242.526-.433l.492.374ZM50.529 35.875c0-.201-.032-.387-.096-.558a1.283 1.283 0 0 0-.28-.45 1.333 1.333 0 0 0-.436-.301c-.17-.074-.36-.11-.571-.11a1.345 1.345 0 0 0-1.008.412 1.302 1.302 0 0 0-.28.449 1.594 1.594 0 0 0-.095.558c0 .201.032.388.095.559a1.301 1.301 0 0 0 .717.75c.17.074.36.11.57.11.212 0 .402-.036.572-.11a1.294 1.294 0 0 0 .716-.75 1.58 1.58 0 0 0 .096-.56Zm0 1.233h-.017c-.121.217-.315.4-.579.55-.264.149-.57.223-.92.223-.273 0-.528-.05-.767-.15-.24-.101-.446-.24-.621-.42a1.948 1.948 0 0 1-.412-.637c-.1-.244-.15-.51-.15-.8 0-.288.05-.553.15-.799a1.862 1.862 0 0 1 1.062-1.056c.252-.1.532-.15.837-.15.284 0 .543.057.78.17.236.116.443.275.62.482h.017v-2.904h.65v6.167h-.65v-.676ZM56.177 37.147h1.184c.172 0 .343-.017.512-.053.17-.034.322-.092.459-.171a.954.954 0 0 0 .328-.31.837.837 0 0 0 .125-.468c0-.202-.04-.37-.12-.507a.946.946 0 0 0-.317-.326 1.31 1.31 0 0 0-.45-.171 2.75 2.75 0 0 0-.522-.05h-1.2v2.056h.001Zm0-2.692h.967c.166 0 .33-.01.488-.032.159-.022.301-.067.43-.135a.817.817 0 0 0 .307-.285.9.9 0 0 0 .117-.486.797.797 0 0 0-.108-.437.799.799 0 0 0-.287-.265 1.276 1.276 0 0 0-.409-.135 2.861 2.861 0 0 0-.462-.036h-1.042l-.001 1.811Zm-.7-2.447h1.8c.245 0 .484.024.717.073.233.05.442.13.625.241.183.112.331.257.446.436.113.18.17.403.17.67 0 .337-.093.615-.279.835a1.511 1.511 0 0 1-.754.47v.016a1.503 1.503 0 0 1 .954.45c.12.124.213.27.28.436.066.165.1.344.1.534 0 .321-.068.584-.204.79a1.512 1.512 0 0 1-.534.494c-.219.122-.467.208-.741.257a4.66 4.66 0 0 1-.821.073h-1.76l.001-5.775ZM61.002 33.966h.65v3.817h-.65v-3.817Zm-.15-1.493a.45.45 0 0 1 .137-.326.46.46 0 0 1 .338-.14c.133 0 .245.047.337.14a.45.45 0 0 1 .138.326.45.45 0 0 1-.133.335.47.47 0 0 1-.342.13.47.47 0 0 1-.342-.13.446.446 0 0 1-.133-.335ZM63.275 34.871c0-.174-.006-.337-.016-.49a5.757 5.757 0 0 1-.017-.416h.617c0 .104.003.207.008.31.006.103.01.21.01.318h.016c.044-.093.107-.182.187-.27.08-.086.177-.164.288-.232a1.551 1.551 0 0 1 .825-.224c.255 0 .477.038.662.114.187.076.34.182.463.319.121.136.212.3.27.492.06.194.089.405.089.632v2.358h-.65V35.49c0-.321-.073-.574-.218-.759-.144-.185-.369-.277-.674-.277a1.3 1.3 0 0 0-.546.105.965.965 0 0 0-.375.302c-.097.131-.17.287-.217.466-.047.179-.07.378-.07.595v1.86h-.65v-2.91h-.002ZM71.708 34.553h.625c.194 0 .395-.005.603-.016.209-.01.4-.047.576-.106a.995.995 0 0 0 .434-.282c.113-.127.17-.311.17-.55 0-.207-.041-.372-.124-.497a.836.836 0 0 0-.33-.29 1.437 1.437 0 0 0-.458-.135 4.011 4.011 0 0 0-.512-.032h-.984v1.908Zm-.7-2.545h1.508c.284 0 .565.016.846.049.28.032.531.103.754.212.222.109.403.269.542.477.139.21.209.493.209.852 0 .425-.132.767-.393 1.028-.26.261-.621.428-1.083.498l1.675 2.659h-.858l-1.6-2.594h-.9v2.594h-.7v-5.775ZM78.152 35.947c-.417 0-.748.057-.992.171-.244.114-.366.302-.366.564 0 .238.082.409.246.51.164.1.368.15.612.15.19 0 .355-.03.496-.094.142-.063.26-.145.354-.248.095-.104.167-.225.217-.364.05-.138.078-.287.083-.444v-.245h-.65Zm-1.884-1.493c.2-.201.438-.349.713-.445.275-.095.555-.142.838-.142.577 0 .994.133 1.25.4.255.266.383.671.383 1.216v1.639a4.285 4.285 0 0 0 .058.66h-.625a1.3 1.3 0 0 1-.037-.289 9.53 9.53 0 0 1-.004-.28h-.017a1.525 1.525 0 0 1-.512.481 1.507 1.507 0 0 1-.772.187c-.199 0-.386-.025-.562-.073a1.418 1.418 0 0 1-.458-.216 1.003 1.003 0 0 1-.429-.845c0-.316.083-.563.249-.742.167-.18.374-.313.621-.4a3.11 3.11 0 0 1 .8-.162c.286-.022.549-.033.788-.033h.25v-.114c0-.277-.085-.487-.255-.629-.169-.14-.407-.212-.712-.212-.211 0-.418.034-.62.103a1.49 1.49 0 0 0-.538.314l-.409-.418ZM81.063 36.779c.128.157.268.283.42.376.153.091.347.138.58.138.1 0 .201-.01.304-.033a.943.943 0 0 0 .28-.105c.083-.049.15-.11.2-.184a.462.462 0 0 0 .075-.265.423.423 0 0 0-.07-.253.618.618 0 0 0-.189-.167 1.083 1.083 0 0 0-.267-.11 4.803 4.803 0 0 0-.308-.073 7.007 7.007 0 0 1-.525-.131 1.7 1.7 0 0 1-.437-.192.903.903 0 0 1-.3-.306.923.923 0 0 1-.113-.481c0-.185.042-.348.125-.49a1.07 1.07 0 0 1 .334-.35c.138-.093.294-.164.466-.213a1.952 1.952 0 0 1 1.304.09c.236.108.421.285.555.53l-.542.351a1.002 1.002 0 0 0-.33-.33.925.925 0 0 0-.496-.127c-.088 0-.178.011-.27.033a.842.842 0 0 0-.245.098.594.594 0 0 0-.18.167.4.4 0 0 0-.07.232c0 .082.026.151.078.208a.672.672 0 0 0 .217.151c.091.044.197.082.317.115.12.032.243.06.37.082.173.032.337.074.492.126.156.052.292.121.409.208a.922.922 0 0 1 .274.326c.067.13.1.29.1.482 0 .217-.044.401-.133.554a1.094 1.094 0 0 1-.354.37 1.574 1.574 0 0 1-.5.209 2.494 2.494 0 0 1-.571.065c-.334 0-.62-.05-.863-.15-.24-.1-.46-.287-.653-.56l.516-.391ZM84.86 31.617h.649v2.879h.017c.044-.076.105-.15.183-.224.078-.073.171-.14.28-.2.108-.06.229-.108.362-.146.133-.038.275-.057.425-.057.255 0 .476.038.662.114.186.076.34.182.463.318.121.136.212.3.27.493.06.194.088.404.088.632v2.358h-.65V35.49c0-.32-.073-.573-.217-.758-.144-.185-.37-.278-.675-.278-.21 0-.393.036-.545.107a.96.96 0 0 0-.375.3 1.34 1.34 0 0 0-.217.466c-.047.18-.071.379-.071.596v1.86h-.65v-6.167ZM89.885 33.966h.65v3.817h-.65v-3.817Zm-.15-1.493a.45.45 0 0 1 .137-.326.458.458 0 0 1 .338-.14c.134 0 .245.047.338.14a.45.45 0 0 1 .137.326.45.45 0 0 1-.475.465.45.45 0 0 1-.476-.465ZM95.404 35.875c0-.201-.032-.387-.096-.558a1.283 1.283 0 0 0-.28-.45 1.336 1.336 0 0 0-.436-.301 1.43 1.43 0 0 0-.571-.11c-.211 0-.401.036-.571.11a1.297 1.297 0 0 0-.716.751 1.585 1.585 0 0 0-.097.558c0 .201.033.388.097.559a1.294 1.294 0 0 0 .716.75c.17.074.36.11.57.11.212 0 .402-.036.572-.11a1.295 1.295 0 0 0 .716-.75 1.6 1.6 0 0 0 .096-.56Zm0 1.233h-.017c-.121.217-.315.4-.579.55-.264.149-.57.223-.92.223a1.95 1.95 0 0 1-.767-.15c-.24-.101-.446-.24-.621-.42a1.97 1.97 0 0 1-.412-.637c-.1-.244-.15-.51-.15-.8 0-.288.05-.553.15-.799a1.86 1.86 0 0 1 1.062-1.056c.252-.1.532-.15.838-.15.283 0 .543.057.779.17.236.116.443.275.62.482h.017v-2.904h.65v6.167h-.65v-.676ZM104.482 33.196a1.66 1.66 0 0 0-.658-.525 1.96 1.96 0 0 0-.816-.176c-.328 0-.63.065-.905.196-.274.13-.512.306-.712.526-.2.22-.356.476-.467.767-.111.29-.166.594-.166.91 0 .337.055.65.166.941.111.291.266.544.463.759a2.17 2.17 0 0 0 1.621.698c.361 0 .684-.07.967-.209.284-.138.53-.338.742-.6l.525.433a2.413 2.413 0 0 1-.963.767 3.158 3.158 0 0 1-1.27.245c-.423 0-.817-.076-1.184-.229a2.909 2.909 0 0 1-.954-.632 2.9 2.9 0 0 1-.633-.958 3.145 3.145 0 0 1-.23-1.215c0-.425.074-.822.221-1.192.147-.369.354-.69.621-.963.267-.27.583-.486.95-.643a3.019 3.019 0 0 1 1.208-.237c.4 0 .785.07 1.154.212.37.142.679.373.929.694l-.609.431ZM109.361 35.53c-.011-.326-.12-.587-.325-.783-.206-.196-.489-.294-.85-.294s-.653.099-.875.294a1.222 1.222 0 0 0-.4.783h2.45Zm.559 1.558c-.234.294-.489.5-.767.617-.277.117-.6.175-.967.175-.306 0-.581-.053-.825-.159a1.839 1.839 0 0 1-.621-.428c-.169-.18-.3-.391-.391-.636a2.21 2.21 0 0 1-.138-.784c0-.293.05-.564.15-.81.1-.249.239-.46.417-.638.177-.176.389-.314.633-.411.244-.099.511-.147.8-.147.272 0 .523.045.75.135.228.089.423.22.588.39.163.172.29.382.378.63.09.247.134.528.134.844v.203h-3.15a1.348 1.348 0 0 0 .391.861c.112.111.242.2.392.265.15.066.314.098.492.098.283 0 .521-.048.716-.146.194-.098.369-.242.525-.433l.493.374ZM111.4 34.871c0-.174-.006-.337-.016-.49a5.822 5.822 0 0 1-.017-.416h.617c0 .104.003.207.008.31.007.103.01.21.01.318h.016c.045-.093.107-.182.187-.27.081-.086.177-.164.288-.232a1.552 1.552 0 0 1 .825-.224c.256 0 .476.038.662.114.187.076.341.182.463.319.121.136.212.3.271.492.058.194.087.405.087.632v2.358h-.65V35.49c0-.321-.073-.574-.217-.759-.144-.185-.369-.277-.674-.277-.212 0-.394.035-.546.105a.964.964 0 0 0-.375.302c-.097.131-.17.287-.216.466-.048.179-.072.378-.072.595v1.86h-.65v-2.91h-.001ZM118.502 34.506h-1.15v1.908c0 .126.002.242.008.347.006.106.028.2.067.278a.44.44 0 0 0 .175.187c.078.046.189.07.333.07a1.36 1.36 0 0 0 .575-.13l.026.578c-.112.05-.235.084-.371.106a2.398 2.398 0 0 1-.388.032c-.233 0-.419-.029-.558-.089a.752.752 0 0 1-.325-.252.942.942 0 0 1-.155-.404 3.629 3.629 0 0 1-.037-.534v-2.097h-.85v-.538h.85v-1.085h.651v1.085h1.149v.538ZM122.557 35.53c-.012-.326-.12-.587-.325-.783-.207-.196-.49-.294-.851-.294-.36 0-.653.099-.874.294a1.218 1.218 0 0 0-.4.783h2.45Zm.558 1.558c-.233.294-.489.5-.767.617a2.469 2.469 0 0 1-.967.175 2.05 2.05 0 0 1-.824-.159 1.839 1.839 0 0 1-.621-.428 1.86 1.86 0 0 1-.392-.636 2.21 2.21 0 0 1-.138-.784c0-.293.05-.564.15-.81.1-.249.239-.46.417-.638a1.87 1.87 0 0 1 .633-.411c.245-.099.511-.147.801-.147.272 0 .522.045.75.135.227.089.423.22.587.39.163.172.29.382.379.63.088.247.133.528.133.844v.203h-3.149a1.365 1.365 0 0 0 .39.861c.112.111.242.2.392.265.15.066.314.098.492.098.283 0 .522-.048.716-.146.195-.098.37-.242.526-.433l.492.374ZM124.596 34.871c0-.174-.006-.337-.016-.49a5.862 5.862 0 0 1-.018-.416h.618c0 .104.003.207.008.31.005.103.009.21.009.318h.016a1.11 1.11 0 0 1 .188-.27c.081-.086.176-.164.287-.232a1.56 1.56 0 0 1 .959-.216.562.562 0 0 1 .133.033l-.042.644a1.235 1.235 0 0 0-.349-.049c-.4 0-.691.127-.871.38-.181.253-.271.6-.271 1.04v1.86h-.65V34.87h-.001ZM130.85 34.505H130v-.538h.85v-.857c0-.233.022-.447.067-.64.044-.193.12-.36.229-.502.108-.141.251-.252.429-.33.177-.079.397-.119.658-.119.083 0 .173.009.267.025a.777.777 0 0 1 .233.074l-.091.57a1.345 1.345 0 0 0-.442-.081.758.758 0 0 0-.392.085.54.54 0 0 0-.212.237.984.984 0 0 0-.083.362 7.275 7.275 0 0 0-.012.457v.718h.95v.538h-.95v3.28h-.651v-3.279ZM133.95 35.874c0 .201.032.387.096.559a1.303 1.303 0 0 0 .716.751c.17.074.36.11.571.11.211 0 .402-.036.571-.11a1.314 1.314 0 0 0 .717-.751c.064-.172.096-.358.096-.559 0-.2-.032-.387-.096-.559a1.301 1.301 0 0 0-.717-.75 1.425 1.425 0 0 0-.571-.11c-.211 0-.401.037-.571.11a1.339 1.339 0 0 0-.437.301 1.314 1.314 0 0 0-.279.45 1.585 1.585 0 0 0-.096.558Zm-.7 0c0-.299.053-.57.159-.815a1.891 1.891 0 0 1 1.091-1.044 2.29 2.29 0 0 1 .833-.148c.301 0 .578.05.834.148.255.098.475.235.658.411.183.177.327.387.433.633.106.244.158.516.158.815 0 .3-.052.572-.158.816-.105.245-.25.456-.433.632a1.935 1.935 0 0 1-.658.412 2.303 2.303 0 0 1-.834.147c-.3 0-.578-.049-.833-.147a1.925 1.925 0 0 1-.658-.412 1.913 1.913 0 0 1-.433-.632 2.051 2.051 0 0 1-.159-.816ZM138.76 34.871a6.84 6.84 0 0 0-.017-.49 6.427 6.427 0 0 1-.016-.416h.617c0 .104.002.207.008.31.006.103.009.21.009.318h.016a1.11 1.11 0 0 1 .188-.27 1.37 1.37 0 0 1 .287-.232 1.569 1.569 0 0 1 .959-.216.574.574 0 0 1 .133.033l-.041.644a1.248 1.248 0 0 0-.35-.049c-.401 0-.691.127-.871.38-.181.253-.271.6-.271 1.04v1.86h-.65V34.87h-.001ZM7.008 19.054c0-.066.026-.121.077-.165a.252.252 0 0 1 .17-.065h.715a.23.23 0 0 1 .168.065.219.219 0 0 1 .066.165v.781c0 .06-.021.111-.066.156a.233.233 0 0 1-.168.064h-.716a.256.256 0 0 1-.169-.064.2.2 0 0 1-.077-.156v-.781Zm-1.36 4.495c0 .381.085.663.256.846.17.184.45.276.839.276h.363c.139 0 .256-.004.352-.01v-2.433a2.98 2.98 0 0 0-.266-.025 8.895 8.895 0 0 0-.316-.004c-.417 0-.725.105-.927.319-.201.214-.302.514-.302.901v.13Zm-.532-4.495c0-.066.024-.121.071-.165a.248.248 0 0 1 .175-.065h.706c.067 0 .128.022.178.065a.206.206 0 0 1 .077.165v.781c0 .06-.028.111-.081.156a.279.279 0 0 1-.175.064h-.706a.253.253 0 0 1-.174-.064.206.206 0 0 1-.071-.156v-.781Zm-.757 4.455c0-.787.224-1.396.67-1.827.447-.43 1.12-.645 2.02-.645.137 0 .278.005.425.015.146.01.288.022.424.035.137.013.265.03.384.05.119.02.216.043.291.07a.39.39 0 0 1 .144.074c.02.024.03.062.03.116v2.753c0 .22-.002.467-.005.741a8.311 8.311 0 0 1-.046.78c0 .074-.02.124-.062.151a.363.363 0 0 1-.163.05c-.294.013-.561.023-.803.03-.242.006-.476.01-.7.01h-.205c-.777 0-1.372-.186-1.785-.556-.412-.37-.618-.92-.618-1.647v-.2ZM9.985 24.811c0-.053.02-.096.061-.13a.22.22 0 0 1 .144-.05h2.668l-.02-.91a2.447 2.447 0 0 0-.118-.656 1.185 1.185 0 0 0-.306-.486 1.373 1.373 0 0 0-.543-.305 2.692 2.692 0 0 0-.812-.106h-.298a2.796 2.796 0 0 0-.336.02c-.13 0-.195-.048-.195-.148v-.735a.2.2 0 0 1 .046-.134c.031-.037.084-.061.16-.074.19-.033.38-.053.571-.06.191-.006.335-.01.43-.01.505 0 .926.074 1.263.22.338.146.607.343.808.59.201.246.348.53.44.853.092.324.145.66.158 1.015 0 .053.002.13.006.229.002.1.006.21.01.33.003.12.005.238.005.355v.284c0 .094-.002.224-.005.39a4.565 4.565 0 0 1-.026.43.184.184 0 0 1-.056.135c-.038.036-.094.055-.17.055h-3.68a.222.222 0 0 1-.144-.05.16.16 0 0 1-.062-.13v-.922ZM15.578 18.493c0-.054.02-.1.061-.14.041-.04.093-.06.154-.06h.91c.068 0 .12.02.154.06.034.04.05.086.05.14v5.627c0 .227.049.368.144.425.095.056.239.084.43.084h.337v1.282h-.716c-.231 0-.44-.019-.628-.055a1.116 1.116 0 0 1-.481-.21.982.982 0 0 1-.307-.431c-.071-.183-.107-.422-.107-.715v-6.007Z"/><path fill="#231F20" d="M21.167 19.004c0-.066.026-.12.077-.165a.256.256 0 0 1 .17-.066h.715a.225.225 0 0 1 .235.23v.782c0 .06-.022.112-.066.155a.232.232 0 0 1-.17.065h-.714a.254.254 0 0 1-.17-.065.2.2 0 0 1-.077-.155v-.78Zm.481 5.666v-2.522a6.707 6.707 0 0 0-.665-.03c-.81 0-1.216.387-1.216 1.162v.18c0 .393.086.694.26.9.174.208.455.31.844.31h.777Zm-2.372-5.666c0-.066.023-.12.07-.165a.251.251 0 0 1 .175-.066h.706a.27.27 0 0 1 .179.066c.05.044.077.099.077.165v.78c0 .06-.027.113-.082.156a.272.272 0 0 1-.174.065h-.706a.25.25 0 0 1-.175-.065.205.205 0 0 1-.071-.155v-.78Zm-1.862 5.746c0-.033.038-.061.113-.084a.757.757 0 0 1 .225-.035h1.135a1.19 1.19 0 0 1-.301-.486 2.212 2.212 0 0 1-.109-.736v-.19c0-.367.064-.69.19-.972a1.87 1.87 0 0 1 .537-.7c.232-.187.51-.328.834-.425a3.753 3.753 0 0 1 1.078-.145c.144 0 .294.003.45.01.158.006.309.018.456.034.147.017.285.035.414.055.13.02.239.04.328.06.075.02.122.046.142.076.021.03.031.071.031.124v3.294h.89v1.282h-6.075a.865.865 0 0 1-.225-.03c-.075-.02-.113-.05-.113-.09V24.75Z"/><path fill="#231F20" d="M23.414 24.75c0-.032.038-.061.113-.084a.757.757 0 0 1 .225-.035h.696c.163 0 .27-.015.322-.046.05-.03.077-.124.077-.285v-5.797c0-.06.02-.11.061-.15a.2.2 0 0 1 .143-.06h.93c.056 0 .101.02.14.06.037.04.056.09.056.15v5.817c0 .18-.004.38-.01.596-.008.216-.021.415-.042.595a.503.503 0 0 1-.066.17.355.355 0 0 1-.169.12 1.95 1.95 0 0 1-.311.05 10.868 10.868 0 0 1-.92.056c-.168.004-.32.006-.456.006h-.45a.865.865 0 0 1-.225-.03c-.075-.02-.113-.05-.113-.091V24.75ZM27.75 18.493a.2.2 0 0 1 .205-.2h.92c.061 0 .11.02.148.06a.2.2 0 0 1 .056.14v7.208a.217.217 0 0 1-.056.145.186.186 0 0 1-.148.066h-.92a.186.186 0 0 1-.149-.066.218.218 0 0 1-.056-.145v-7.208ZM32.93 24.811a.16.16 0 0 1 .061-.13.221.221 0 0 1 .144-.05h2.669l-.02-.91a2.428 2.428 0 0 0-.118-.656 1.19 1.19 0 0 0-.307-.486 1.37 1.37 0 0 0-.542-.305 2.694 2.694 0 0 0-.814-.106h-.296a2.82 2.82 0 0 0-.338.02c-.129 0-.194-.048-.194-.148v-.735a.2.2 0 0 1 .047-.134c.03-.037.083-.061.157-.074.192-.033.383-.053.573-.06.192-.006.335-.01.43-.01.505 0 .926.074 1.263.22a2.1 2.1 0 0 1 .808.59c.202.246.348.53.44.853.093.324.145.66.158 1.015 0 .053.002.13.006.229l.01.33c.004.12.004.238.004.355v.284c0 .094 0 .224-.005.39a4.599 4.599 0 0 1-.025.43.183.183 0 0 1-.056.135c-.038.036-.094.055-.17.055h-3.68a.222.222 0 0 1-.144-.05.162.162 0 0 1-.061-.13v-.922ZM38.586 18.493c0-.054.019-.1.057-.14a.194.194 0 0 1 .148-.06h.92a.196.196 0 0 1 .204.2v7.208a.22.22 0 0 1-.055.145.187.187 0 0 1-.149.066h-.92a.185.185 0 0 1-.148-.066.215.215 0 0 1-.057-.145v-7.208ZM41.21 24.811a.16.16 0 0 1 .062-.13.22.22 0 0 1 .144-.05h2.668l-.02-.91a2.447 2.447 0 0 0-.118-.656 1.211 1.211 0 0 0-.302-.486 1.33 1.33 0 0 0-.536-.305 2.656 2.656 0 0 0-.803-.106h-.302a3.143 3.143 0 0 0-.352.02c-.13 0-.194-.048-.194-.148v-.735c0-.053.014-.1.045-.139.031-.04.084-.064.159-.07.191-.032.381-.052.572-.06.192-.006.335-.009.43-.009.498 0 .915.073 1.253.22.338.146.609.343.813.588.204.247.353.531.445.854.093.323.145.661.158 1.014l.01.928h.645v1.282h-4.572a.222.222 0 0 1-.143-.05.162.162 0 0 1-.061-.13v-.922Z"/><path fill="#231F20" d="M45.586 24.75c0-.034.038-.062.113-.085a.758.758 0 0 1 .225-.035h1.104a1.496 1.496 0 0 1-.28-.556 2.731 2.731 0 0 1-.108-.795v-.11c0-.388.068-.717.204-.987a1.85 1.85 0 0 1 .557-.666c.235-.173.508-.3.819-.38.31-.08.639-.12.987-.12.246 0 .459.008.639.025s.383.045.609.084a.551.551 0 0 1 .174.056c.04.023.061.068.061.135v.73c0 .134-.072.195-.215.18a13.522 13.522 0 0 1-.29-.02 11.403 11.403 0 0 0-.783-.03c-.47.001-.834.09-1.09.266-.255.177-.383.476-.383.897v.11c0 .28.062.531.184.755.123.223.263.366.42.426h2.137c.054 0 .102.017.143.05.04.033.061.076.061.13v.93c0 .055-.02.096-.06.126a.236.236 0 0 1-.144.046h-4.746a.866.866 0 0 1-.225-.03c-.075-.02-.113-.05-.113-.091V24.75ZM53.278 19.134c0-.127.067-.19.204-.19h.89c.13 0 .194.063.194.19v4.535c0 .06-.019.11-.056.15a.185.185 0 0 1-.139.06h-.9c-.054 0-.1-.02-.138-.06a.213.213 0 0 1-.056-.15v-4.535Zm-.215 9.31c-.109 0-.164-.04-.164-.12v-.29c0-.067.055-.1.164-.1h.194a.89.89 0 0 1-.123-.271c-.027-.1-.04-.2-.04-.3 0-.56.34-.841 1.022-.841.054 0 .128.003.22.01.092.006.18.023.261.05.075.013.112.046.112.1v.27c0 .067-.044.1-.133.1h-.358c-.177 0-.307.03-.389.09-.081.06-.122.164-.122.31 0 .114.02.212.062.296.04.083.091.142.153.175h.716c.109 0 .163.034.163.1v.3c0 .08-.054.121-.163.121h-1.575Zm-.993-3.634c0-.053.02-.096.057-.13a.2.2 0 0 1 .138-.05h3.774c.164 0 .27-.015.323-.045.05-.03.076-.125.076-.286v-5.806c0-.054.02-.1.06-.14a.2.2 0 0 1 .144-.06h.931c.054 0 .101.02.139.06.037.04.056.086.056.14v5.827c0 .253-.006.472-.016.656-.01.183-.022.362-.035.535a.566.566 0 0 1-.062.17c-.028.047-.082.087-.164.12-.075.02-.183.037-.327.05a13.93 13.93 0 0 1-.987.056c-.18.003-.342.005-.486.005h-3.426a.203.203 0 0 1-.138-.05.168.168 0 0 1-.057-.13v-.922ZM61.555 24.811c0-.053.02-.096.061-.13a.218.218 0 0 1 .144-.05h2.668l-.02-.91a2.447 2.447 0 0 0-.118-.656 1.211 1.211 0 0 0-.301-.486 1.332 1.332 0 0 0-.537-.305 2.66 2.66 0 0 0-.803-.106h-.302a3.162 3.162 0 0 0-.352.02c-.13 0-.194-.048-.194-.148v-.735c0-.053.015-.1.046-.139.03-.04.084-.064.158-.07.19-.032.382-.052.573-.06.191-.006.334-.009.43-.009.497 0 .915.073 1.252.22.339.146.609.343.814.588.204.247.353.531.444.854.093.323.146.661.159 1.014l.01.928h.645v1.282H61.76a.22.22 0 0 1-.143-.05.16.16 0 0 1-.062-.13v-.922Z"/><path fill="#231F20" d="M70.648 19.654c0-.066.025-.12.076-.16.05-.04.107-.06.168-.06h.717a.24.24 0 0 1 .168.06c.045.04.067.094.067.16v.73a.198.198 0 0 1-.067.146.23.23 0 0 1-.168.065h-.717a.253.253 0 0 1-.168-.065c-.05-.043-.076-.092-.076-.145v-.731Zm-.901-1.422c0-.06.026-.112.077-.155a.24.24 0 0 1 .158-.065h.675c.068 0 .126.022.174.065a.202.202 0 0 1 .072.155v.61c0 .06-.027.111-.077.15a.279.279 0 0 1-.178.062h-.676a.233.233 0 0 1-.153-.061.189.189 0 0 1-.072-.15v-.61Zm-.992 1.422c0-.066.024-.12.072-.16a.26.26 0 0 1 .174-.06h.706a.28.28 0 0 1 .179.06c.05.04.076.094.076.16v.73c0 .054-.028.103-.082.146a.274.274 0 0 1-.174.065H69a.252.252 0 0 1-.174-.065.192.192 0 0 1-.071-.145v-.731Zm-2.833 5.096c0-.033.038-.062.113-.085a.76.76 0 0 1 .225-.035h.327c.13 0 .258-.019.383-.054.127-.038.19-.133.19-.286v-2.033c0-.06.02-.11.061-.15.041-.04.088-.06.143-.06h.87c.054 0 .1.02.138.06.038.04.056.09.056.15v2.232c.02.04.058.072.113.095a.927.927 0 0 0 .174.056c.062.013.124.022.19.025.064.004.12.005.168.005h.154c.06 0 .124-.003.189-.01a.637.637 0 0 0 .18-.045.342.342 0 0 0 .132-.1.275.275 0 0 0 .05-.176v-2.442c0-.054.021-.1.062-.135a.207.207 0 0 1 .143-.056h.86c.054 0 .101.019.142.056.041.035.062.081.062.134v2.593c.041.08.133.13.276.15.143.02.283.03.42.03h.234c.164 0 .273-.012.327-.04.055-.026.082-.12.082-.28v-1.341a47.645 47.645 0 0 0-.02-1.492c0-.046.017-.09.05-.13a.177.177 0 0 1 .144-.06h.87c.075 0 .129.019.163.055a.19.19 0 0 1 .051.135c.007.22.011.427.015.621l.01.55c.004.175.006.346.006.516V24.29c0 .186-.002.387-.005.6a6.537 6.537 0 0 1-.036.6.636.636 0 0 1-.062.166c-.027.05-.082.091-.163.125-.144.04-.317.07-.522.085a7.891 7.891 0 0 1-.665.025h-.133c-.239 0-.498-.018-.777-.055a1.553 1.553 0 0 1-.716-.265 1.377 1.377 0 0 1-.567.265c-.222.05-.453.076-.691.076h-.133a3.42 3.42 0 0 1-.706-.07 1.588 1.588 0 0 1-.603-.27c-.177.133-.39.223-.64.27-.249.046-.489.07-.72.07h-.276a.87.87 0 0 1-.226-.03c-.075-.02-.112-.05-.112-.09V24.75ZM75.258 18.493a.198.198 0 0 1 .204-.2h.92a.197.197 0 0 1 .205.2v7.208a.22.22 0 0 1-.055.145.187.187 0 0 1-.15.066h-.92a.185.185 0 0 1-.148-.066.217.217 0 0 1-.056-.145v-7.208ZM77.266 27.342c0-.107.065-.16.194-.16h.205c.143 0 .27-.008.378-.025a.542.542 0 0 0 .271-.115.56.56 0 0 0 .164-.266c.037-.117.056-.279.056-.485v-4.496c0-.053.02-.098.061-.135a.207.207 0 0 1 .144-.055h.89c.054 0 .1.019.137.055a.182.182 0 0 1 .057.135v4.345c0 .254-.012.5-.036.736-.024.237-.09.455-.199.656a1.188 1.188 0 0 1-.614.596c-.266.11-.593.165-.982.165l-.255-.005a2.211 2.211 0 0 1-.297-.025c-.116-.02-.174-.084-.174-.19v-.73ZM85.695 20.003c0-.066.025-.122.072-.164a.245.245 0 0 1 .174-.066h.808c.062 0 .114.022.158.066a.217.217 0 0 1 .067.164v.781a.21.21 0 0 1-.067.155.232.232 0 0 1-.168.066h-.798a.244.244 0 0 1-.179-.066.208.208 0 0 1-.067-.155v-.78Zm-.97 2.923c.128 0 .187.064.174.191a9.434 9.434 0 0 0-.04.86c-.001.375.025.712.075 1.012.052.302.154.556.307.766.154.211.372.372.655.486.283.113.653.17 1.11.17.13 0 .25-.003.362-.01.113-.006.248-.02.404-.04.007-.327.01-.614.01-.86v-3.704c0-.054.02-.1.062-.136a.206.206 0 0 1 .144-.055h.889c.062 0 .109.018.143.055a.192.192 0 0 1 .051.136v2.833h.91v1.28h-.91v.706c0 .251-.007.47-.02.656 0 .114-.072.187-.215.221a5.74 5.74 0 0 1-.905.15c-.31.026-.625.04-.946.04-1.153 0-2.003-.25-2.552-.75-.55-.502-.824-1.296-.824-2.384a16.942 16.942 0 0 1 .036-.665c.01-.137.024-.272.041-.406.018-.133.036-.25.057-.35a.321.321 0 0 1 .06-.155c.029-.03.08-.046.155-.046h.766Z"/><path fill="#231F20" d="M90.204 27.011c0-.067.024-.122.072-.165a.234.234 0 0 1 .163-.065h.788c.068 0 .128.022.179.065a.205.205 0 0 1 .076.165v.801c0 .053-.025.102-.076.145a.27.27 0 0 1-.18.065h-.787a.237.237 0 0 1-.163-.065.195.195 0 0 1-.072-.145v-.8Zm-.634-2.262c0-.034.038-.062.113-.085a.76.76 0 0 1 .225-.035h.644c.163 0 .273-.015.327-.046.055-.03.082-.124.082-.285v-1.192c0-.414-.007-.86-.02-1.342 0-.052.019-.098.056-.134a.204.204 0 0 1 .148-.056h.86c.074 0 .129.019.163.056a.24.24 0 0 1 .061.134c.007.214.013.402.016.567.003.163.004.318.004.465v.931c0 .428 0 .786-.004 1.076-.004.29-.016.526-.037.706a.484.484 0 0 1-.065.17.36.36 0 0 1-.17.12c-.074.021-.175.038-.301.05a9.907 9.907 0 0 1-.894.055 18.5 18.5 0 0 1-.451.006h-.42a.868.868 0 0 1-.224-.03c-.076-.02-.113-.05-.113-.09v-1.041ZM96.047 24.811c0-.053.02-.096.061-.13a.218.218 0 0 1 .143-.05h2.67l-.02-.91a2.463 2.463 0 0 0-.119-.656 1.207 1.207 0 0 0-.302-.486 1.328 1.328 0 0 0-.536-.305 2.656 2.656 0 0 0-.803-.106h-.302a3.15 3.15 0 0 0-.352.02c-.13 0-.194-.048-.194-.148v-.735c0-.053.015-.1.046-.139.031-.04.084-.064.159-.07a4.37 4.37 0 0 1 .572-.06c.191-.006.335-.009.43-.009.498 0 .915.073 1.253.22.337.146.608.343.813.588.204.247.353.531.445.854.092.323.145.661.158 1.014l.011.928h.643v1.282h-4.571a.22.22 0 0 1-.143-.05.16.16 0 0 1-.062-.13v-.922Z"/><path fill="#231F20" d="M102.961 23.404v.43c0 .158.01.308.03.448.054.24.164.41.327.514.164.103.375.154.634.154.342 0 .59-.088.748-.264.156-.177.234-.46.234-.853v-.429c0-.405-.076-.7-.229-.882-.155-.183-.405-.275-.753-.275-.347 0-.6.092-.756.275-.157.182-.235.477-.235.882Zm-2.547 1.346c0-.033.038-.061.113-.085a.758.758 0 0 1 .225-.034h.306c.048 0 .104-.002.169-.006a1.02 1.02 0 0 0 .185-.025.353.353 0 0 0 .147-.07.235.235 0 0 0 .082-.13.748.748 0 0 0 .031-.24v-.841c0-.735.209-1.29.624-1.667.416-.378.974-.566 1.677-.566.695 0 1.244.185 1.647.556.402.37.603.926.603 1.666V24.104c0 .07-.007.14-.02.205.013.067.045.12.097.16a.65.65 0 0 0 .169.096c.061.023.126.04.194.05.068.01.122.015.164.015h.234v1.281h-.204c-.232 0-.46-.027-.686-.08a1.807 1.807 0 0 1-.603-.26 1.598 1.598 0 0 1-.68.43c-.276.093-.588.14-.936.14-.347 0-.683-.047-1.007-.14-.324-.094-.567-.238-.731-.43a1.057 1.057 0 0 1-.532.27c-.218.046-.44.07-.664.07h-.266a.866.866 0 0 1-.225-.03c-.075-.02-.113-.05-.113-.09v-1.04Z"/><path fill="#231F20" d="M106.986 25.91a.64.64 0 0 1-.23-.04c-.071-.027-.108-.053-.108-.08v-1.042c0-.033.038-.061.113-.085a.77.77 0 0 1 .225-.034h4.347l-.277-.622-.204-.42a2.356 2.356 0 0 0-.859-1.006c-.376-.243-.886-.365-1.535-.365l-.255.005a6.11 6.11 0 0 0-.296.015c-.144.014-.215-.04-.215-.16v-.74c0-.101.067-.164.204-.191a4.54 4.54 0 0 1 .497-.07c.16-.013.328-.02.506-.02.375 0 .723.038 1.043.115.32.077.621.208.9.391.279.183.538.427.777.73.238.305.46.683.665 1.137l.133.28c.02.053.047.12.082.196l.102.23c.034.077.065.149.092.215a.74.74 0 0 0 .071.14.35.35 0 0 0 .102.11c.034.02.08.03.134.03h.101v1.281h-6.115Z"/><path fill="#231F20" d="M115.242 23.782c0 .153.01.3.03.439.055.246.164.414.328.504.163.089.374.134.634.134.347 0 .596-.083.746-.25.151-.166.225-.458.225-.877v-.369c0-.4-.074-.69-.225-.873-.15-.183-.398-.274-.746-.274s-.6.094-.757.28c-.157.185-.235.475-.235.867v.419Zm-2.547.967c0-.033.038-.062.113-.085a.755.755 0 0 1 .225-.035h.307c.046 0 .102-.003.163-.01a.849.849 0 0 0 .179-.04.502.502 0 0 0 .154-.085.252.252 0 0 0 .086-.145.767.767 0 0 0 .031-.23v-.84c0-.73.208-1.281.624-1.658.415-.377.974-.566 1.677-.566.695 0 1.243.183 1.642.55.398.367.598.918.598 1.653v.59c0 .747-.196 1.301-.588 1.66-.392.362-.949.542-1.672.542-.348 0-.684-.04-1.007-.125-.324-.083-.568-.222-.731-.416a1.045 1.045 0 0 1-.537.316 3.046 3.046 0 0 1-.762.085h-.164a.866.866 0 0 1-.225-.03c-.075-.02-.113-.05-.113-.09v-1.041ZM122.677 19.495a.21.21 0 0 1 .072-.165.248.248 0 0 1 .173-.064h.808a.223.223 0 0 1 .225.23v.78a.21.21 0 0 1-.066.156.234.234 0 0 1-.169.065h-.798a.243.243 0 0 1-.179-.065.206.206 0 0 1-.066-.156v-.78Zm-1.443 7.84c0-.1.058-.15.175-.15h.214c.191 0 .353-.009.486-.026a.688.688 0 0 0 .323-.114.511.511 0 0 0 .178-.266c.039-.117.057-.28.057-.485v-4.495c0-.053.019-.099.056-.135a.2.2 0 0 1 .148-.056h.89c.055 0 .101.019.138.056a.18.18 0 0 1 .057.135v2.834h.91v1.28h-.941v.471c0 .227-.015.437-.046.631a1.55 1.55 0 0 1-.158.5 1.318 1.318 0 0 1-.644.605c-.273.117-.624.176-1.053.176l-.297-.005a2.935 2.935 0 0 1-.348-.025c-.095-.02-.143-.084-.143-.19v-.741h-.002Z"/><path fill="#231F20" d="M124.453 24.809c0-.053.035-.097.103-.13a.524.524 0 0 1 .235-.05H129.326c.146 0 .285-.002.415-.005.129-.003.222-.009.276-.015a12.4 12.4 0 0 0 .021-.7c0-.294-.047-.54-.139-.736a1.164 1.164 0 0 0-.398-.475 1.757 1.757 0 0 0-.635-.262 4.14 4.14 0 0 0-.854-.08h-2.178c-.15 0-.229-.053-.236-.16a14.607 14.607 0 0 1-.02-.28v-.06a2.568 2.568 0 0 1 .169-.941c.058-.153.128-.313.21-.48.082-.167.176-.346.286-.54l.767-1.402a.646.646 0 0 1 .117-.14.246.246 0 0 1 .169-.06h.921c.054 0 .092.011.112.035a.12.12 0 0 1 .031.084c0 .035-.01.07-.031.11l-.961 1.793a6.28 6.28 0 0 0-.235.49c-.035.08-.063.156-.087.226a.535.535 0 0 0-.035.145c.292-.013.526-.024.7-.03.174-.006.332-.01.475-.01.58 0 1.071.064 1.473.191.402.126.729.313.982.56.251.247.436.556.552.926.116.37.174.797.174 1.276v.252a17.835 17.835 0 0 1-.02.665 21.101 21.101 0 0 1-.052.665c-.021.12-.102.184-.245.191a4.74 4.74 0 0 1-.441.025l-.582.015c-.212.007-.424.01-.639.01h-4.597a.53.53 0 0 1-.235-.05c-.068-.033-.103-.077-.103-.13v-.923ZM131.648 27.332c0-.1.058-.15.174-.15h.215a3.9 3.9 0 0 0 .485-.025.684.684 0 0 0 .323-.115.519.519 0 0 0 .179-.266c.038-.117.056-.28.056-.485v-4.495a.18.18 0 0 1 .057-.135.2.2 0 0 1 .148-.056h.889a.191.191 0 0 1 .195.191v2.834h.91v1.28h-.94v.471c0 .227-.015.437-.047.631a1.55 1.55 0 0 1-.157.5 1.315 1.315 0 0 1-.645.605c-.272.117-.624.177-1.053.177-.055 0-.154-.003-.297-.006a2.88 2.88 0 0 1-.347-.025c-.096-.02-.143-.084-.143-.19v-.741h-.002Z"/><path fill="#231F20" d="M137.414 23.782c0 .153.01.3.031.439.054.246.163.414.327.504.163.089.374.134.634.134.347 0 .596-.083.747-.25.149-.166.225-.458.225-.877v-.369c0-.4-.076-.69-.225-.873-.151-.183-.399-.274-.747-.274s-.6.094-.757.28c-.157.185-.235.475-.235.867v.419Zm-2.547.967c0-.033.038-.062.113-.085a.755.755 0 0 1 .225-.035h.306c.048 0 .103-.003.164-.01a.835.835 0 0 0 .179-.04.502.502 0 0 0 .154-.085.259.259 0 0 0 .087-.145.802.802 0 0 0 .03-.23v-.84c0-.73.208-1.281.624-1.658.415-.377.975-.566 1.677-.566.695 0 1.243.183 1.642.55.398.367.598.918.598 1.653v.59c0 .747-.196 1.301-.588 1.66-.392.362-.949.542-1.672.542-.348 0-.683-.04-1.007-.125-.325-.083-.568-.222-.732-.416a1.038 1.038 0 0 1-.536.316 3.049 3.049 0 0 1-.763.085h-.163a.866.866 0 0 1-.225-.03c-.075-.02-.113-.05-.113-.09v-1.041Z"/></svg>