<svg xmlns="http://www.w3.org/2000/svg" width="90" height="35" fill="none" viewBox="0 0 90 35"><g fill="#512BD4" clip-path="url(#clip0_4477_50902)"><path fill-opacity=".28" d="M72.25.18H17c-9.389 0-17 7.61-17 17 0 9.389 7.611 17 17 17h55.25c9.389 0 17-7.611 17-17 0-9.39-7.611-17-17-17Z"/><path d="M31.042 22.18c-.29 0-.535-.098-.738-.294a.978.978 0 0 1-.304-.718c0-.282.101-.524.304-.725.203-.202.449-.302.738-.302.294 0 .543.1.746.302a.975.975 0 0 1 .31.725.967.967 0 0 1-.31.718 1.03 1.03 0 0 1-.746.294ZM42.615 22.014h-1.882l-4.957-7.963a3.592 3.592 0 0 1-.311-.627h-.044c.039.231.058.727.058 1.488v7.101h-1.664V11.18h2.004l4.791 7.774c.203.322.333.544.391.665h.029c-.048-.288-.072-.773-.072-1.459v-6.98h1.657v10.834ZM50.72 22.014h-5.825V11.18h5.594v1.526h-3.872v3.067h3.568v1.519h-3.568v3.203h4.103v1.518ZM59 12.706h-2.98v9.308h-1.723v-9.308h-2.975V11.18h7.679v1.526Z"/></g><defs><clipPath id="clip0_4477_50902"><path fill="#fff" d="M0 .18h90v34H0z"/></clipPath></defs></svg>