<svg xmlns="http://www.w3.org/2000/svg" width="90" height="35" fill="none" viewBox="0 0 90 35"><g clip-path="url(#clip0_4477_51020)"><path fill="#D8F4D3" d="M72.857.18H17.143C7.675.18 0 7.79 0 17.18c0 9.389 7.675 17 17.143 17h55.714c9.468 0 17.143-7.611 17.143-17 0-9.39-7.675-17-17.143-17Z"/><mask id="mask0_4477_51020" width="18" height="20" x="10" y="7" maskUnits="userSpaceOnUse" style="mask-type:luminance"><path fill="#fff" d="M27.111 7.18H10v19.444h17.111V7.18Z"/></mask><g mask="url(#mask0_4477_51020)"><path fill="#539E43" d="M18.556 26.588c-.266 0-.514-.071-.744-.196l-2.356-1.409c-.355-.196-.177-.267-.071-.303.478-.16.567-.196 1.063-.481.053-.036.124-.018.177.018l1.807 1.087c.07.036.159.036.212 0l7.068-4.118c.07-.036.106-.108.106-.197v-8.22c0-.089-.035-.16-.106-.196l-7.068-4.1c-.07-.036-.16-.036-.212 0l-7.068 4.1c-.07.036-.106.125-.106.197v8.22c0 .07.035.16.106.196l1.93 1.123c1.046.535 1.701-.09 1.701-.713v-8.113c0-.107.089-.214.213-.214h.903c.106 0 .213.089.213.214v8.113c0 1.408-.762 2.228-2.09 2.228-.408 0-.727 0-1.63-.445l-1.86-1.07A1.507 1.507 0 0 1 10 21.007v-8.22c0-.535.283-1.034.744-1.301l7.068-4.12a1.572 1.572 0 0 1 1.487 0l7.068 4.12c.46.267.744.766.744 1.301v8.22c0 .535-.283 1.034-.744 1.302L19.3 26.428c-.23.107-.495.16-.743.16Zm2.178-5.652c-3.1 0-3.737-1.427-3.737-2.64 0-.106.088-.213.212-.213h.921c.107 0 .195.071.195.178.142.945.55 1.409 2.427 1.409 1.488 0 2.126-.339 2.126-1.141 0-.464-.177-.803-2.498-1.034-1.93-.197-3.135-.625-3.135-2.176 0-1.444 1.204-2.3 3.224-2.3 2.267 0 3.383.785 3.525 2.496a.29.29 0 0 1-.054.16c-.035.036-.088.072-.141.072h-.921a.208.208 0 0 1-.195-.16c-.213-.98-.762-1.302-2.214-1.302-1.63 0-1.825.57-1.825.999 0 .517.23.677 2.427.962 2.179.286 3.206.696 3.206 2.23-.018 1.568-1.293 2.46-3.543 2.46Z"/></g><path fill="#1E1E1E" d="M29.71 22.181v-9.8h.855l6.762 8.512h-.448v-8.512H37.9v9.8h-.854l-6.748-8.512h.448v8.512H29.71Zm14.176.07c-.71 0-1.35-.159-1.918-.476a3.636 3.636 0 0 1-1.33-1.33c-.327-.57-.49-1.218-.49-1.946 0-.737.163-1.386.49-1.946a3.53 3.53 0 0 1 1.33-1.316c.56-.317 1.199-.476 1.918-.476.728 0 1.372.159 1.932.476.569.317 1.012.756 1.33 1.316.326.56.49 1.209.49 1.946 0 .728-.164 1.377-.49 1.946a3.5 3.5 0 0 1-1.33 1.33c-.57.317-1.214.476-1.932.476Zm0-.882c.532 0 1.003-.117 1.414-.35.41-.243.732-.579.966-1.008.242-.439.364-.943.364-1.512 0-.579-.122-1.083-.364-1.512a2.477 2.477 0 0 0-.966-.994 2.7 2.7 0 0 0-1.4-.364 2.7 2.7 0 0 0-1.4.364c-.411.233-.738.565-.98.994-.243.43-.364.933-.364 1.512 0 .57.12 1.073.364 1.512.242.43.569.765.98 1.008.41.233.872.35 1.386.35Zm8.707.882c-.7 0-1.33-.159-1.89-.476a3.457 3.457 0 0 1-1.302-1.316c-.317-.57-.476-1.223-.476-1.96 0-.747.159-1.4.476-1.96.317-.56.751-.994 1.302-1.302.56-.317 1.19-.476 1.89-.476.644 0 1.218.145 1.722.434.513.29.92.714 1.218 1.274.308.55.462 1.227.462 2.03 0 .793-.15 1.47-.448 2.03-.299.56-.705.99-1.218 1.288-.504.29-1.083.434-1.736.434Zm.07-.882c.523 0 .99-.117 1.4-.35.42-.243.747-.579.98-1.008.243-.439.364-.943.364-1.512 0-.579-.121-1.083-.364-1.512-.233-.43-.56-.76-.98-.994a2.7 2.7 0 0 0-1.4-.364c-.513 0-.975.121-1.386.364-.41.233-.737.565-.98.994-.243.43-.364.933-.364 1.512 0 .57.121 1.073.364 1.512.243.43.57.765.98 1.008.41.233.873.35 1.386.35Zm2.772.812v-2.212l.098-1.484-.14-1.484v-5.208h.994v10.388h-.952Zm6.842.07c-.765 0-1.437-.159-2.016-.476a3.576 3.576 0 0 1-1.358-1.33c-.326-.57-.49-1.218-.49-1.946s.154-1.372.462-1.932a3.49 3.49 0 0 1 1.288-1.316 3.553 3.553 0 0 1 1.848-.49c.69 0 1.302.159 1.834.476.542.308.966.747 1.274 1.316.308.56.462 1.209.462 1.946a.935.935 0 0 1-.014.154v.154H59.17v-.742h5.866l-.392.294c0-.532-.116-1.003-.35-1.414a2.462 2.462 0 0 0-.924-.98c-.392-.233-.844-.35-1.358-.35-.504 0-.956.117-1.358.35-.401.233-.714.56-.938.98-.224.42-.336.9-.336 1.442v.154c0 .56.122 1.055.364 1.484.252.42.598.751 1.036.994.448.233.957.35 1.526.35.448 0 .864-.08 1.246-.238a2.592 2.592 0 0 0 1.008-.728l.56.644c-.326.392-.737.69-1.232.896a4.092 4.092 0 0 1-1.61.308Zm5.425 0a.727.727 0 0 1-.531-.224.769.769 0 0 1-.21-.546c0-.224.07-.406.21-.546.149-.14.326-.21.531-.21.206 0 .379.07.519.21.149.14.224.322.224.546a.743.743 0 0 1-.224.546.682.682 0 0 1-.519.224Zm1.914 2.716c-.299 0-.583-.042-.854-.126a1.765 1.765 0 0 1-.7-.35l.35-.756c.299.252.681.378 1.148.378.392 0 .69-.117.896-.35.215-.233.322-.579.322-1.036v-7.896h.994v7.896c0 .681-.187 1.223-.56 1.624-.364.41-.896.616-1.596.616Zm1.666-11.76a.704.704 0 0 1-.518-.21.687.687 0 0 1-.21-.504c0-.196.07-.36.21-.49.14-.14.313-.21.518-.21a.73.73 0 0 1 .518.196c.14.13.21.294.21.49 0 .205-.07.378-.21.518a.675.675 0 0 1-.518.21Zm5.242 9.044c-.607 0-1.18-.084-1.722-.252-.542-.177-.966-.397-1.274-.658l.448-.784c.298.224.681.42 1.148.588.466.159.956.238 1.47.238.7 0 1.204-.107 1.512-.322.308-.224.462-.518.462-.882 0-.27-.089-.48-.266-.63a1.534 1.534 0 0 0-.672-.35 7.398 7.398 0 0 0-.938-.21c-.346-.056-.69-.121-1.036-.196a3.998 3.998 0 0 1-.924-.322c-.28-.15-.509-.35-.686-.602-.168-.252-.252-.588-.252-1.008 0-.401.112-.76.336-1.078.224-.317.55-.565.98-.742.438-.187.97-.28 1.596-.28.476 0 .952.065 1.428.196.476.121.868.285 1.176.49l-.434.798a3.23 3.23 0 0 0-1.05-.476 4.207 4.207 0 0 0-1.12-.154c-.663 0-1.153.117-1.47.35-.308.224-.462.513-.462.868 0 .28.084.5.252.658.177.159.406.285.686.378.29.084.602.154.938.21.345.056.686.126 1.022.21.345.075.658.182.938.322.29.13.518.322.686.574.177.243.266.565.266.966 0 .43-.122.803-.364 1.12-.234.308-.579.55-1.036.728-.448.168-.994.252-1.638.252Z"/></g><defs><clipPath id="clip0_4477_51020"><path fill="#fff" d="M0 .18h90v34H0z"/></clipPath></defs></svg>