<svg xmlns="http://www.w3.org/2000/svg" width="160" height="43" fill="none" viewBox="0 0 160 43"><path fill="url(#paint0_linear_9591_36308)" d="M40.258 34.113h-4.87v7.157h4.87v-7.157Z"/><path fill="url(#paint1_linear_9591_36308)" d="M4.957 34.113H.087v7.157h4.87v-7.157Z"/><path fill="url(#paint2_linear_9591_36308)" d="M15.103 27.844H10.03v5.071h5.072v-5.071Z"/><path fill="url(#paint3_linear_9591_36308)" d="M20.175 20.6h-5.072v5.071h5.072V20.6Z"/><path fill="url(#paint4_linear_9591_36308)" d="M10.03 16.111H4.96v5.072h5.072V16.11Z"/><path fill="url(#paint5_linear_9591_36308)" d="M25.238 33.445h-5.072v5.072h5.072v-5.072Z"/><path fill="url(#paint6_linear_9591_36308)" d="M35.39 17.545h-5.072v5.071h5.072v-5.071Z"/><path fill="url(#paint7_linear_9591_36308)" d="M30.318 28.375h-5.072v5.072h5.072v-5.072Z"/><path fill="url(#paint8_linear_9591_36308)" d="M.088 1.096v28.842h4.87V11.119h5.07v3.092H15.1v2.011h15.215v-2.134h5.071v15.85h4.87V1.096H.087Zm25.155 12.992h-5.071V9.016h5.071v5.072Z"/><path fill="url(#paint9_linear_9591_36308)" d="m.031 29.86.122.164 4.87-3.63-.122-.163L.03 29.86Z"/><path fill="url(#paint10_linear_9591_36308)" d="m20.24 25.599-3.178-3.177a.48.48 0 0 0-.669-.669l-1.225-1.226-.145.145 1.233 1.232a.477.477 0 0 0 .655.655l3.184 3.184.144-.144Z"/><path fill="url(#paint11_linear_9591_36308)" d="m35.326 27.011 4.87 3.019.107-.173-4.87-3.02-.107.174Z"/><path fill="url(#paint12_linear_9591_36308)" d="m40.347 34.164-.169-.115-2.316 3.403a.476.476 0 0 0-.701.425c0 .145.065.273.166.361l-2.018 2.967.168.115 2.03-2.983a.48.48 0 0 0 .513-.753l2.327-3.42Z"/><path fill="url(#paint13_linear_9591_36308)" d="m20.127 38.426.091.183 5.072-2.536-.092-.182-5.071 2.535Z"/><path fill="url(#paint14_linear_9591_36308)" d="m31.718 10.609 8.487 5 .103-.177-8.466-4.987a.476.476 0 0 0 .026-.322l5.056-2.734 3.3 1.129.066-.193-3.122-1.068 3.137-1.697-.097-.18-3.303 1.787-8.842-3.026L40.28 1.2 40.233 1l-12.53 3.018-3.8-1.3c.002-.014.005-.028.005-.042a.48.48 0 0 0-.953-.086L6.49 3.4a.479.479 0 0 0-.732-.122L.127 1.005l-.076.19 5.583 2.252a.48.48 0 0 0 .091.518l-2.58 4.578L.123 7.458l-.069.192 2.99 1.074L0 14.124l.178.1 3.06-5.43 6.757 2.425.033.012 14.65-4.769 6.257 3.686a.472.472 0 0 0 .07.365l-5.28 5.644.149.14 5.278-5.643c.074.046.16.074.253.074.12 0 .23-.046.313-.12Zm-4.385-6.502-11.8 2.842a.48.48 0 0 0-.83-.061L6.56 3.6l16.402-.807a.48.48 0 0 0 .881.119l3.49 1.194Zm-2.59 2.156-.04-.024-14.671 4.775L3.34 8.613l2.554-4.531a.477.477 0 0 0 .63-.276l8.105 3.271a.48.48 0 1 0 .953.08v-.01L27.692 4.23l8.968 3.069-4.886 2.642a.478.478 0 0 0-.754.02l-6.279-3.698Z"/><path fill="url(#paint15_linear_9591_36308)" d="M2.229 39.412a.48.48 0 0 0-.863-.29L.14 38.43l-.1.177 1.24.7a.48.48 0 0 0 .8.452l2.83 1.597.1-.178-2.815-1.588a.477.477 0 0 0 .035-.178Z"/><path fill="url(#paint16_linear_9591_36308)" d="M143.01 11.129V7.123h15.066v4.006h-6.027v24.036h-3.013V11.129h-6.026Z"/><path fill="url(#paint17_linear_9591_36308)" d="M136.094 35.165h-9.04v-2.003h-1.506v-2.003h-1.507v-20.03h1.507V9.126h1.506V7.123h9.04v2.003h1.506v2.003h1.507v4.006h-3.013v-2.003h-1.507v-2.003h-6.026v2.003h-1.507v16.024h1.507v2.003h6.026v-2.003h1.507v-2.003h3.013v4.006H137.6v2.003h-1.506v2.003Z"/><path fill="url(#paint18_linear_9591_36308)" d="M111.08 35.165v-4.006h3.013v-20.03h-3.013V7.123h9.04v4.006h-3.014v20.03h3.014v4.006h-9.04Z"/><path fill="url(#paint19_linear_9591_36308)" d="M101.143 35.165h-9.04V7.123h9.04v2.003h1.507v2.003h1.506v2.003h1.507v2.003h1.507v12.018h-1.507v2.003h-1.507v2.003h-1.506v2.003h-1.507v2.003Zm-6.026-4.006h4.52v-2.003h1.506v-2.003h1.507V25.15h1.506v-8.012h-1.506v-2.003h-1.507v-2.003h-1.507v-2.003h-4.52v20.03Z"/><path fill="url(#paint20_linear_9591_36308)" d="M73.143 35.165V7.123h12.052v2.003h1.507v2.003h1.507v8.012h-1.507v2.003h-1.507v2.003h-3.013v2.003h1.507v2.003h1.506v2.003h1.507v2.003h1.507v4.006h-3.014v-2.003H83.69v-2.003h-1.507v-2.003h-1.506v-2.003h-1.507V25.15h-1.507v-2.003h-1.506v12.018h-3.013Zm3.013-16.024h7.533v-2.003h1.506v-4.006H83.69v-2.003h-7.533v8.012Z"/><path fill="url(#paint21_linear_9591_36308)" d="M66.219 35.165h-9.04v-2.003h-1.506v-2.003h-1.507v-20.03h1.507V9.126h1.506V7.123h9.04v2.003h1.506v2.003h1.507v20.03h-1.507v2.003H66.22v2.003Zm-7.533-4.006h6.026v-2.003h1.507V13.132h-1.507v-2.003h-6.026v2.003h-1.507v16.024h1.507v2.003Z"/><path fill="#FA7714" fill-rule="evenodd" d="M142.107 12.33V5.896H159v6.434h-6.027v24.036h-4.839V12.33h-6.027Zm6.94-1.214v24.036h3.013V11.116h6.027V7.11h-15.066v4.006h6.026ZM137.018 36.366h-10.866v-2.003h-1.507V32.36h-1.506V9.902h1.506V7.9h1.507V5.896h10.866V7.9h1.506v2.003h1.507v6.434h-4.84v-2.003h-1.506V12.33h-4.2v2.003h-1.507V27.93h1.507v2.003h4.2V27.93h1.506v-2.003h4.84v6.434h-1.507v2.003h-1.506v2.003Zm-8.446-5.22v-2.003h-1.507V13.12h1.507v-2.003h6.026v2.003h1.507v2.003h3.013v-4.006h-1.507V9.113h-1.506V7.11h-9.04v2.003h-1.507v2.003h-1.506v20.03h1.506v2.003h1.507v2.003h9.04V33.15h1.506v-2.003h1.507V27.14h-3.013v2.003h-1.507v2.003h-6.026ZM110.178 36.366v-6.434h3.013V12.33h-3.013V5.896h10.866v6.434h-3.014v17.602h3.014v6.434h-10.866Zm6.939-5.22v-20.03h3.013V7.11h-9.039v4.006h3.013v20.03h-3.013v4.006h9.039v-4.006h-3.013ZM102.067 36.366H91.201V5.896h10.866V7.9h1.507v2.003h1.506v2.004h1.507v2.002h1.506v14.446h-1.506v2.003h-1.507v2.003h-1.506v2.003h-1.507v2.003Zm-3.333-8.437h1.507v-2.003h1.506v-2.003h1.507V18.34h-1.507v-2.003h-1.506v-2.003h-1.507V12.33h-2.693v17.602h2.693V27.93Zm-3.606 3.217v-20.03h4.52v2.003h1.506v2.003h1.506v2.003h1.507v8.012h-1.507v2.003h-1.506v2.003h-1.507v2.003h-4.52Zm6.026 4.006V33.15h1.506v-2.003h1.507v-2.003h1.507V27.14h1.506V15.122h-1.506V13.12h-1.507v-2.003h-1.507V9.113h-1.506V7.11h-9.04v28.042h9.04ZM72.24 36.366V5.896h13.88V7.9h1.506v2.003h1.506v10.44h-1.506v2.003h-1.507v2.003h-1.506v1.578h1.506v2.003h1.507v2.003h1.506v6.434h-4.839v-2.003h-1.507V32.36H81.28v-2.003h-1.507v-2.003h-1.506v-2.003H77.08v10.015h-4.84Zm3.927-13.232h1.506v2.003h1.507v2.003h1.506v2.003h1.507v2.003H83.7v2.003h1.506v2.003h3.013v-4.006h-1.506v-2.003h-1.507V27.14H83.7v-2.003h-1.506v-2.003h3.013v-2.003h1.507v-2.003h1.506v-8.012h-1.506V9.113h-1.507V7.11H73.153v28.042h3.013V23.134Zm6.62-7.223h1.506v-1.578h-1.507V12.33H77.08v5.584h5.707v-2.003Zm-6.62 3.217v-8.012h7.532v2.003h1.507v4.006H83.7v2.003h-7.532ZM67.143 36.366H56.277v-2.003H54.77V32.36h-1.506V9.902h1.506V7.9h1.507V5.896h10.866V7.9h1.506v2.003h1.507V32.36h-1.507v2.003h-1.506v2.003ZM63.81 27.93h1.507V14.333H63.81V12.33h-4.2v2.003h-1.507V27.93h1.507v2.003h4.2V27.93Zm-5.113 3.217v-2.003H57.19V13.12h1.507v-2.003h6.026v2.003h1.507v16.024h-1.507v2.003h-6.026Zm7.533 4.006V33.15h1.506v-2.003h1.507v-20.03h-1.507V9.113H66.23V7.11h-9.04v2.003h-1.507v2.003h-1.506v20.03h1.506v2.003h1.507v2.003h9.04Z" clip-rule="evenodd"/><defs><linearGradient id="paint0_linear_9591_36308" x1="39.327" x2="34.604" y1="34.876" y2="38.09" gradientUnits="userSpaceOnUse"><stop stop-color="#F89945"/><stop offset="1" stop-color="#C65500"/></linearGradient><linearGradient id="paint1_linear_9591_36308" x1="4.026" x2="-.697" y1="34.876" y2="38.09" gradientUnits="userSpaceOnUse"><stop stop-color="#F89945"/><stop offset="1" stop-color="#C65500"/></linearGradient><linearGradient id="paint2_linear_9591_36308" x1="14.133" x2="10.535" y1="28.384" y2="31.983" gradientUnits="userSpaceOnUse"><stop stop-color="#F89945"/><stop offset="1" stop-color="#C65500"/></linearGradient><linearGradient id="paint3_linear_9591_36308" x1="19.206" x2="15.607" y1="21.14" y2="24.739" gradientUnits="userSpaceOnUse"><stop stop-color="#F89945"/><stop offset="1" stop-color="#C65500"/></linearGradient><linearGradient id="paint4_linear_9591_36308" x1="9.061" x2="5.462" y1="16.652" y2="20.251" gradientUnits="userSpaceOnUse"><stop stop-color="#F89945"/><stop offset="1" stop-color="#C65500"/></linearGradient><linearGradient id="paint5_linear_9591_36308" x1="24.268" x2="20.669" y1="33.986" y2="37.584" gradientUnits="userSpaceOnUse"><stop stop-color="#F89945"/><stop offset="1" stop-color="#C65500"/></linearGradient><linearGradient id="paint6_linear_9591_36308" x1="34.42" x2="30.822" y1="18.086" y2="21.684" gradientUnits="userSpaceOnUse"><stop stop-color="#F89945"/><stop offset="1" stop-color="#C65500"/></linearGradient><linearGradient id="paint7_linear_9591_36308" x1="29.348" x2="25.75" y1="28.916" y2="32.514" gradientUnits="userSpaceOnUse"><stop stop-color="#F89945"/><stop offset="1" stop-color="#C65500"/></linearGradient><linearGradient id="paint8_linear_9591_36308" x1="32.576" x2="13.184" y1="4.171" y2="31.177" gradientUnits="userSpaceOnUse"><stop stop-color="#F89945"/><stop offset="1" stop-color="#C65500"/></linearGradient><linearGradient id="paint9_linear_9591_36308" x1="2.527" x2="2.527" y1="26.23" y2="30.024" gradientUnits="userSpaceOnUse"><stop stop-color="#DA8C4F"/><stop offset="1" stop-color="#AA370B"/></linearGradient><linearGradient id="paint10_linear_9591_36308" x1="17.631" x2="17.631" y1="20.527" y2="25.743" gradientUnits="userSpaceOnUse"><stop stop-color="#DA8C4F"/><stop offset="1" stop-color="#AA370B"/></linearGradient><linearGradient id="paint11_linear_9591_36308" x1="39.352" x2="37.293" y1="27.178" y2="30.388" gradientUnits="userSpaceOnUse"><stop stop-color="#F89945"/><stop offset="1" stop-color="#C65500"/></linearGradient><linearGradient id="paint12_linear_9591_36308" x1="37.828" x2="37.828" y1="34.049" y2="41.32" gradientUnits="userSpaceOnUse"><stop stop-color="#DA8C4F"/><stop offset="1" stop-color="#AA370B"/></linearGradient><linearGradient id="paint13_linear_9591_36308" x1="22.708" x2="22.708" y1="35.891" y2="38.609" gradientUnits="userSpaceOnUse"><stop stop-color="#DA8C4F"/><stop offset="1" stop-color="#AA370B"/></linearGradient><linearGradient id="paint14_linear_9591_36308" x1="20.154" x2="20.154" y1="1" y2="16.296" gradientUnits="userSpaceOnUse"><stop stop-color="#DA8C4F"/><stop offset="1" stop-color="#AA370B"/></linearGradient><linearGradient id="paint15_linear_9591_36308" x1="2.524" x2="2.524" y1="38.43" y2="41.356" gradientUnits="userSpaceOnUse"><stop stop-color="#DA8C4F"/><stop offset="1" stop-color="#AA370B"/></linearGradient><linearGradient id="paint16_linear_9591_36308" x1="155.196" x2="138.604" y1="10.113" y2="19.027" gradientUnits="userSpaceOnUse"><stop stop-color="#F59F47"/><stop offset="1" stop-color="#FA7714"/></linearGradient><linearGradient id="paint17_linear_9591_36308" x1="136.227" x2="119.636" y1="10.113" y2="19.027" gradientUnits="userSpaceOnUse"><stop stop-color="#F59F47"/><stop offset="1" stop-color="#FA7714"/></linearGradient><linearGradient id="paint18_linear_9591_36308" x1="118.392" x2="106.771" y1="10.113" y2="13.859" gradientUnits="userSpaceOnUse"><stop stop-color="#F59F47"/><stop offset="1" stop-color="#FA7714"/></linearGradient><linearGradient id="paint19_linear_9591_36308" x1="104.289" x2="87.698" y1="10.113" y2="19.027" gradientUnits="userSpaceOnUse"><stop stop-color="#F59F47"/><stop offset="1" stop-color="#FA7714"/></linearGradient><linearGradient id="paint20_linear_9591_36308" x1="85.328" x2="68.737" y1="10.113" y2="19.027" gradientUnits="userSpaceOnUse"><stop stop-color="#F59F47"/><stop offset="1" stop-color="#FA7714"/></linearGradient><linearGradient id="paint21_linear_9591_36308" x1="66.352" x2="49.761" y1="10.113" y2="19.027" gradientUnits="userSpaceOnUse"><stop stop-color="#F59F47"/><stop offset="1" stop-color="#FA7714"/></linearGradient></defs></svg>