<svg xmlns="http://www.w3.org/2000/svg" width="220" height="52" fill="none" viewBox="0 0 220 52"><path fill="#000" d="M73.901 22.53c-.074-.746-.39-1.324-.95-1.737-.56-.412-1.321-.618-2.281-.618-.653 0-1.204.092-1.653.277-.45.178-.794.427-1.034.748a1.8 1.8 0 0 0-.35 1.09c-.013.338.058.633.212.885.16.253.378.471.655.656.277.178.597.335.96.47.363.13.751.24 1.164.333l1.698.407c.825.184 1.582.43 2.272.738a6.9 6.9 0 0 1 1.79 1.136c.506.45.897.979 1.174 1.588.283.61.427 1.308.433 2.096-.006 1.157-.301 2.16-.886 3.01-.579.843-1.416 1.498-2.511 1.966-1.09.462-2.404.693-3.943.693-1.526 0-2.856-.234-3.988-.702-1.127-.468-2.007-1.16-2.641-2.077-.628-.924-.957-2.065-.988-3.426h3.869c.043.634.224 1.164.544 1.588.327.419.76.736 1.302.951.548.21 1.167.314 1.856.314.677 0 1.265-.098 1.764-.295.504-.197.895-.471 1.172-.822.277-.35.416-.754.416-1.21 0-.424-.126-.781-.379-1.07-.246-.29-.61-.536-1.09-.74a11.07 11.07 0 0 0-1.744-.553l-2.06-.517c-1.594-.388-2.852-.994-3.776-1.82-.923-.824-1.382-1.935-1.375-3.332-.007-1.145.298-2.145.914-3 .621-.856 1.474-1.524 2.557-2.004 1.084-.48 2.315-.72 3.693-.72 1.404 0 2.629.24 3.675.72 1.053.48 1.871 1.148 2.456 2.003.585.856.886 1.847.905 2.973h-3.832Zm23.464 1.18H93.32a3.956 3.956 0 0 0-.453-1.393 3.546 3.546 0 0 0-.877-1.053 3.86 3.86 0 0 0-1.237-.665 4.732 4.732 0 0 0-1.505-.23c-.979 0-1.831.243-2.558.729-.726.48-1.29 1.182-1.69 2.105-.4.917-.6 2.031-.6 3.343 0 1.348.2 2.48.6 3.397.407.917.973 1.61 1.7 2.078.726.467 1.566.701 2.52.701.536 0 1.031-.07 1.487-.212.461-.142.87-.348 1.228-.619.357-.277.652-.612.886-1.006.24-.394.406-.843.498-1.348l4.045.018a7.315 7.315 0 0 1-.785 2.512c-.413.8-.97 1.517-1.671 2.151-.696.628-1.527 1.126-2.493 1.496-.96.363-2.047.544-3.26.544-1.686 0-3.194-.381-4.524-1.144-1.323-.764-2.37-1.868-3.139-3.315-.763-1.447-1.145-3.198-1.145-5.253 0-2.063.388-3.817 1.163-5.263.776-1.447 1.829-2.549 3.158-3.306 1.33-.763 2.826-1.145 4.487-1.145 1.096 0 2.112.154 3.047.462a7.726 7.726 0 0 1 2.502 1.348 6.935 6.935 0 0 1 1.773 2.151c.462.85.757 1.822.887 2.918ZM100.23 36V17.09h3.998v7.803h8.116V17.09h3.989V36h-3.989v-7.811h-8.116V36h-3.998Zm19.399 0V17.09h12.741v3.297h-8.743v4.506h8.088v3.296h-8.088v4.515h8.78V36H119.63Zm22.623 0h-6.703V17.09h6.758c1.902 0 3.54.38 4.912 1.137 1.373.75 2.428 1.83 3.167 3.24.745 1.41 1.117 3.096 1.117 5.06 0 1.97-.372 3.662-1.117 5.078a7.678 7.678 0 0 1-3.185 3.26c-1.379.756-3.029 1.135-4.949 1.135Zm-2.705-3.425h2.539c1.181 0 2.176-.21 2.982-.628.812-.425 1.422-1.08 1.828-1.967.412-.892.619-2.043.619-3.453 0-1.397-.207-2.54-.619-3.425-.406-.887-1.013-1.54-1.819-1.958-.806-.418-1.8-.628-2.982-.628h-2.548v12.059Zm26.597-15.484h3.998v12.28c0 1.379-.329 2.585-.988 3.62-.652 1.033-1.566 1.84-2.742 2.418-1.175.572-2.545.859-4.108.859-1.57 0-2.943-.287-4.118-.859-1.176-.578-2.09-1.385-2.743-2.419-.652-1.034-.978-2.24-.978-3.62V17.09h3.998v11.94c0 .72.157 1.36.47 1.92.321.56.77 1 1.348 1.32.579.32 1.253.48 2.023.48.775 0 1.449-.16 2.022-.48a3.373 3.373 0 0 0 1.338-1.32c.32-.56.48-1.2.48-1.92V17.09ZM173.433 36V17.09h3.997v15.614h8.107V36h-12.104Zm14.751 0V17.09h12.742v3.297h-8.744v4.506h8.088v3.296h-8.088v4.515h8.781V36h-12.779Zm15.92 0V17.09h7.461c1.428 0 2.646.256 3.656.767 1.016.505 1.788 1.222 2.317 2.152.536.923.804 2.01.804 3.259 0 1.255-.271 2.336-.813 3.24-.542.9-1.326 1.589-2.354 2.069-1.022.48-2.259.72-3.712.72h-4.995v-3.213h4.349c.763 0 1.397-.105 1.902-.314.504-.21.88-.523 1.126-.942.253-.418.379-.939.379-1.56 0-.628-.126-1.157-.379-1.588-.246-.431-.625-.757-1.135-.979-.505-.228-1.142-.342-1.912-.342h-2.696V36h-3.998Zm10.212-8.605 4.7 8.605h-4.414l-4.598-8.605h4.312ZM1 0h12v52H1z"/><path fill="#6490BF" d="M0 0h1v52H0z"/><path fill="#000" d="M27 0h12v52H27zM14 0h12v52H14zM40 0h12v52H40z"/><path fill="#fff" d="M4.632 46v-7.273h2.87c.551 0 1.021.106 1.41.316.387.209.683.499.887.87.206.37.309.796.309 1.279 0 .483-.104.909-.313 1.278-.208.37-.51.657-.905.863-.393.206-.869.309-1.428.309H5.634V42.41h1.58c.296 0 .54-.051.731-.153.194-.104.339-.247.434-.43.097-.184.145-.396.145-.635 0-.242-.048-.452-.145-.632a.972.972 0 0 0-.434-.423c-.194-.102-.44-.153-.738-.153H6.17V46H4.632ZM17.886 46h-1.648l2.51-7.273h1.982L23.237 46H21.59l-1.822-5.61h-.057L17.886 46Zm-.103-2.859h3.892v1.2h-3.892v-1.2ZM36.049 41.273h-1.555a1.521 1.521 0 0 0-.174-.536 1.363 1.363 0 0 0-.338-.405 1.484 1.484 0 0 0-.476-.255 1.82 1.82 0 0 0-.578-.09c-.377 0-.705.094-.984.282-.28.184-.496.454-.65.81-.154.352-.23.78-.23 1.285 0 .518.076.954.23 1.306.156.353.374.62.653.8.28.18.603.27.97.27.206 0 .396-.028.572-.082a1.37 1.37 0 0 0 .813-.625c.092-.152.156-.325.192-.519l1.555.007a2.903 2.903 0 0 1-.945 1.793 3.024 3.024 0 0 1-.958.576c-.37.14-.788.21-1.254.21-.649 0-1.229-.147-1.74-.44a3.126 3.126 0 0 1-1.207-1.276c-.294-.556-.44-1.23-.44-2.02 0-.793.148-1.468.447-2.024.298-.557.703-.98 1.214-1.272a3.403 3.403 0 0 1 1.726-.44c.421 0 .812.059 1.172.177.362.119.683.292.962.519.28.225.507.5.682.827.178.327.291.701.341 1.122ZM43.632 46v-7.273h4.9v1.268H45.17v1.733h3.11v1.268h-3.11v1.736h3.377V46h-4.915Z"/><path fill="#6490BF" d="M13 0h1v52h-1zM26 0h1v52h-1zM39 0h1v52h-1zM52 0h1v52h-1z"/></svg>