<svg xmlns="http://www.w3.org/2000/svg" width="95" height="34" fill="none" viewBox="0 0 95 34"><path fill="#FEF3CD" d="M76.905 0h-58.81C8.102 0 0 7.611 0 17s8.102 17 18.095 17h58.81C86.898 34 95 26.389 95 17S86.898 0 76.905 0Z"/><path fill="#131313" d="M36.536 17.367h-3.242v-.82h3.242c.677 0 1.227-.11 1.648-.328.428-.224.737-.526.93-.907.198-.38.297-.807.297-1.28 0-.464-.099-.891-.297-1.282-.193-.39-.502-.703-.93-.938-.421-.24-.971-.359-1.648-.359H33.63V22h-.961V10.625h3.867c.833 0 1.534.143 2.102.43.572.286 1.005.685 1.296 1.195.292.51.438 1.099.438 1.766 0 .697-.146 1.3-.438 1.804-.291.5-.721.883-1.289 1.149-.567.265-1.27.398-2.11.398Zm7.503-2.422V22h-.93v-8.453h.907l.023 1.398Zm2.992-1.46-.023.859a6.845 6.845 0 0 0-.305-.04 3.072 3.072 0 0 0-.32-.015c-.406 0-.763.076-1.07.227a2.148 2.148 0 0 0-.766.617c-.208.26-.367.568-.477.922-.11.349-.172.724-.187 1.125l-.344.133c0-.553.057-1.066.172-1.54.114-.473.289-.888.523-1.242.24-.36.54-.638.899-.836.364-.203.791-.304 1.281-.304.12 0 .237.01.352.03.12.017.208.037.265.063Zm5.378 8.671c-.552 0-1.06-.101-1.523-.304a3.643 3.643 0 0 1-1.203-.86 3.96 3.96 0 0 1-.79-1.312 4.938 4.938 0 0 1-.273-1.672v-.336c0-.651.097-1.24.29-1.766a4.09 4.09 0 0 1 .796-1.351 3.529 3.529 0 0 1 1.156-.86 3.228 3.228 0 0 1 1.375-.304c.537 0 1.014.096 1.43.289a2.8 2.8 0 0 1 1.047.804c.287.344.503.753.648 1.227.146.469.22.987.22 1.555v.57h-6.4v-.797h5.47v-.11a3.432 3.432 0 0 0-.29-1.327 2.4 2.4 0 0 0-.796-1.016c-.355-.26-.797-.39-1.329-.39-.395 0-.76.083-1.093.25a2.487 2.487 0 0 0-.852.718 3.462 3.462 0 0 0-.547 1.102 4.94 4.94 0 0 0-.187 1.406v.336c0 .469.068.906.203 1.312.14.401.338.756.594 1.063a2.8 2.8 0 0 0 .922.719c.354.171.744.257 1.171.257.5 0 .943-.09 1.329-.273.385-.188.731-.482 1.039-.883l.586.453c-.183.271-.412.521-.688.75a3.11 3.11 0 0 1-.977.547c-.38.136-.822.203-1.328.203Zm9.011-8.61v.767h-4.234v-.766h4.234Zm-2.68-2.171h.93v8.57c0 .39.052.685.157.883.104.198.24.33.406.399.167.067.346.101.539.101.14 0 .276-.008.406-.023.13-.021.248-.042.352-.063l.039.79a2.407 2.407 0 0 1-.446.085 3.867 3.867 0 0 1-.546.04 2.21 2.21 0 0 1-.954-.196c-.276-.135-.492-.365-.648-.688-.156-.328-.234-.773-.234-1.335v-8.563Zm8.637 2.172v.765h-4.235v-.765h4.235Zm-2.68-2.172h.93v8.57c0 .39.052.685.156.883.104.198.24.33.406.399.167.067.346.101.54.101.14 0 .275-.008.405-.023.13-.021.248-.042.352-.063l.039.79a2.405 2.405 0 0 1-.445.085 3.869 3.869 0 0 1-.547.04 2.21 2.21 0 0 1-.953-.196c-.276-.135-.492-.365-.649-.688-.156-.328-.234-.773-.234-1.335v-8.563Zm6.48 2.172V22h-.93v-8.453h.93Zm-1.094-2.445c0-.178.055-.326.164-.446a.604.604 0 0 1 .469-.187c.198 0 .354.062.468.187.12.12.18.268.18.446a.618.618 0 0 1-.648.625.618.618 0 0 1-.47-.18.654.654 0 0 1-.163-.445Zm7.714 11.054c-.552 0-1.06-.101-1.524-.304a3.643 3.643 0 0 1-1.203-.86 3.963 3.963 0 0 1-.789-1.312 4.94 4.94 0 0 1-.273-1.672v-.336c0-.651.096-1.24.289-1.766a4.09 4.09 0 0 1 .797-1.351 3.529 3.529 0 0 1 1.156-.86 3.228 3.228 0 0 1 1.375-.304c.537 0 1.013.096 1.43.289a2.8 2.8 0 0 1 1.047.804c.286.344.502.753.648 1.227.146.469.219.987.219 1.555v.57H74.57v-.797h5.47v-.11a3.432 3.432 0 0 0-.29-1.327 2.4 2.4 0 0 0-.797-1.016c-.354-.26-.797-.39-1.328-.39-.396 0-.76.083-1.094.25a2.487 2.487 0 0 0-.851.718 3.462 3.462 0 0 0-.547 1.102 4.94 4.94 0 0 0-.188 1.406v.336c0 .469.068.906.203 1.312.141.401.339.756.594 1.063a2.8 2.8 0 0 0 .922.719c.354.171.745.257 1.172.257.5 0 .943-.09 1.328-.273.385-.188.732-.482 1.04-.883l.585.453c-.182.271-.411.521-.687.75a3.11 3.11 0 0 1-.977.547c-.38.136-.823.203-1.328.203Zm6.745-7.21V22h-.93v-8.453h.907l.023 1.398Zm2.992-1.462-.023.86a6.826 6.826 0 0 0-.305-.04 3.072 3.072 0 0 0-.32-.015c-.406 0-.763.076-1.07.227a2.148 2.148 0 0 0-.766.617c-.208.26-.367.568-.477.922-.109.349-.171.724-.187 1.125l-.344.133c0-.553.058-1.066.172-1.54.115-.473.29-.888.523-1.242.24-.36.54-.638.899-.836.365-.203.792-.304 1.281-.304.12 0 .237.01.352.03.12.017.208.037.265.063Z"/><path fill="#F7B93E" d="M16.428 25.572A.428.428 0 0 1 16 26h-4.285a.429.429 0 0 1 0-.857H16c.237 0 .428.192.428.429ZM16 23.427h-.857a.429.429 0 0 0 0 .858H16a.428.428 0 1 0 0-.858Zm-4.285.858h1.713a.428.428 0 1 0 0-.858h-1.713a.429.429 0 0 0 0 .858ZM16 21.715h-4.285a.429.429 0 0 0 0 .857H16a.428.428 0 0 0 0-.857ZM22 20h-7.714a.429.429 0 0 0 0 .857H22A.428.428 0 0 0 22 20Zm-10.285.857h.857a.429.429 0 0 0 0-.857h-.857a.429.429 0 0 0 0 .857Zm12.857-2.572H22a.429.429 0 0 0 0 .858h2.572a.429.429 0 1 0 0-.858Zm-7.714.858h3.428a.428.428 0 1 0 0-.858h-3.428a.429.429 0 0 0 0 .858Zm-5.143 0h3.428a.429.429 0 1 0 0-.858h-3.428a.429.429 0 0 0 0 .858Zm13.713-2.57h-6.855a.429.429 0 0 0 0 .856h6.856a.428.428 0 0 0 0-.856h-.001ZM17.286 17a.428.428 0 0 0-.428-.428h-2.572a.429.429 0 0 0 0 .856h2.572a.428.428 0 0 0 .428-.428Zm-5.571.428h.857a.428.428 0 0 0 0-.856h-.857a.429.429 0 0 0 0 .856Zm14.57-2.57H22a.429.429 0 0 0 0 .856h4.286a.429.429 0 0 0 0-.857Zm-14.57.856H16a.429.429 0 0 0 0-.857h-4.285a.429.429 0 0 0 0 .857Zm9.857-2.142c0 .236.191.428.428.428h4.286a.429.429 0 0 0 0-.857H22a.43.43 0 0 0-.428.429Zm-6.429-.43a.429.429 0 0 0 0 .858H16a.429.429 0 0 0 0-.857h-.857ZM11.715 14h1.713a.429.429 0 0 0 0-.857h-1.713a.429.429 0 0 0 0 .857Zm12.428-2.143c0 .237.192.429.429.429h.857a.429.429 0 0 0 0-.858h-.856a.429.429 0 0 0-.43.43Zm-.857 0a.428.428 0 0 0-.428-.429h-3.43a.429.429 0 1 0 0 .857h3.429a.428.428 0 0 0 .428-.428Zm-11.571.429h6a.429.429 0 0 0 0-.858h-6a.429.429 0 1 0 0 .857Zm3.857-2.143c0 .237.191.429.428.429h8.572a.429.429 0 1 0 0-.857H16a.429.429 0 0 0-.428.428Zm-3.857.429h2.57a.428.428 0 1 0 0-.857h-2.57a.429.429 0 1 0 0 .857Zm0-1.715H22A.428.428 0 0 0 22 8H11.715a.429.429 0 1 0 0 .857Z"/></svg>