<svg xmlns="http://www.w3.org/2000/svg" width="314" height="89" fill="none" viewBox="0 0 314 89"><path fill="#B27EFF" d="m37.048 84.335-.392-.203-10.95-5.727a1.63 1.63 0 0 1-.877-1.453V65.588l-9.089 5.738a1.23 1.23 0 0 1-.96.155l-.025.014a1.147 1.147 0 0 1-1.157-.043l-8.73-5.457a1.751 1.751 0 0 1-.83-1.5V50.958a.807.807 0 0 1 .421-.71.942.942 0 0 1 .211-.167l8.281-4.852-8.636-4.656a1.573 1.573 0 0 1-.829-1.395v-12.73a1.143 1.143 0 0 1 .435-.894 1.163 1.163 0 0 1 .573-.745l9.98-5.445a1.67 1.67 0 0 1 1.63.024l8.727 5.089V13.448a.809.809 0 0 1 .4-.697c.07-.04.145-.07.224-.087.082-.088.176-.162.281-.218L37.09 6.305a1.623 1.623 0 0 1 1.619.047l30.925 19.132c.216.132.386.33.484.564l.016.009a.998.998 0 0 1 .5.864v37.37a1.71 1.71 0 0 1-.833 1.46l-9.588 5.666a1.215 1.215 0 0 1-.926.13 1.12 1.12 0 0 1-1.056-.041l-8.71-5.112v10.11a1.67 1.67 0 0 1-.796 1.417l-.03.017-11.258 6.158-.388.24ZM26.373 38.831v38.12a.09.09 0 0 0 .048.078l9.817 5.135-.207-23.18a1.322 1.322 0 0 1 .651-1.153 1.307 1.307 0 0 1 1.32 0l20.373 11.966v-36.49L26.373 14.741v24.09Zm11.204 20.547.203 22.767 10.16-5.556a.104.104 0 0 0 .044-.085V65.488l-10.407-6.11ZM5.582 52.38v12.113a.216.216 0 0 0 .103.184l8.185 5.117.545-11.231-8.833-6.183Zm54.335-19.078V69.79l9.1-5.376a.145.145 0 0 0 .07-.124V27.885l-9.17 5.417ZM15.899 59.716l-.485 9.987 9.417-5.945V53.642l-8.833 4.975a.089.089 0 0 0-.044.073l-.055 1.026Zm-2.221-3.55 1.567 1.097 9.586-5.397V40.062l-9.904 5.803-.37.228-.01-.005-8.305 4.866 7.436 5.212Zm-8.65-28.994v12.01a.03.03 0 0 0 .016.026l9.46 5.098L24.1 38.41 5.03 27.172Zm.798-1.326L24.83 37.044V26.265l-9.5-5.535a.123.123 0 0 0-.121 0l-9.384 5.116Zm21.36-12.423 31.96 18.54 9.219-5.447L37.9 7.673a.083.083 0 0 0-.083 0l-10.632 5.75Zm21.318 39.61-12.646-7.387V31.48l12.646 7.746v13.807Zm-10.256-7.779 8.714 5.086v-9.428l-8.714 4.342ZM37.4 34.237v9.71l8.739-4.357-8.739-5.353ZM94.014 63.85h-1.928V34.224h13.259l.067.009c1.61.286 3.152.88 4.541 1.748 2.106 1.328 4.615 3.885 4.615 8.526 0 4.654-2.408 7.067-4.429 8.271a11.22 11.22 0 0 1-4.37 1.472h-.093l-11.662-.164v9.762Zm0-11.697 11.637.164c.625-.065 6.989-.9 6.989-7.811 0-2.994-1.234-5.3-3.659-6.852a11.094 11.094 0 0 0-3.783-1.495H94.017l-.003 15.994ZM229.545 63.85h-1.928V34.224h13.258l.068.009c1.611.287 3.152.88 4.541 1.748 2.105 1.328 4.615 3.885 4.615 8.526 0 4.654-2.409 7.067-4.429 8.271a11.213 11.213 0 0 1-4.371 1.472h-.092l-11.662-.164v9.762Zm0-11.697 11.637.164c.625-.065 6.989-.9 6.989-7.811 0-2.994-1.233-5.3-3.659-6.852a11.092 11.092 0 0 0-3.783-1.495h-11.181l-.003 15.994ZM130.956 64.446c-2.658 0-4.796-.78-6.357-2.317-2.519-2.479-2.544-6.02-2.544-6.169V41.243h1.927V55.96c0 .026.041 2.897 1.983 4.799 1.229 1.203 2.988 1.792 5.225 1.748 3.034-.059 5.356-1.458 6.9-4.161a12.594 12.594 0 0 0 1.448-4.114V41.246h1.927V63.85h-1.927v-4.163c-1.885 3.045-4.75 4.687-8.311 4.756l-.271.003ZM294.98 64.446c-2.659 0-4.796-.78-6.357-2.317-2.519-2.479-2.545-6.02-2.545-6.169V41.243h1.928V55.96c0 .026.04 2.897 1.982 4.799 1.23 1.203 2.988 1.792 5.226 1.748 3.034-.059 5.356-1.458 6.9-4.161.728-1.29 1.22-2.7 1.454-4.165l1.914.233a14.421 14.421 0 0 1-1.697 4.892c-1.878 3.287-4.829 5.062-8.535 5.135l-.27.005ZM153.275 41.245h-1.927V63.85h1.927V41.245Z"/><path fill="#B27EFF" d="M187.846 63.85h-1.928V48.216c-.125-.614-1.223-4.976-6.91-4.976-2.587 0-4.767.822-6.478 2.444a8.69 8.69 0 0 0-1.773 2.341V63.85h-1.928V47.984a8.415 8.415 0 0 0-1.388-2.28c-1.329-1.55-3.041-2.378-5.09-2.464-4.657-.196-7.961 3.53-9.046 4.755a7.163 7.163 0 0 1-.313.342l-1.363-1.37c.042-.041.136-.148.236-.26.587-.662 1.809-2.04 3.581-3.248 2.245-1.529 4.596-2.253 6.986-2.153 2.594.108 4.85 1.215 6.522 3.199.34.404.648.833.922 1.283.377-.517.798-1.001 1.259-1.445 1.439-1.386 3.973-3.039 7.873-3.039 3.976 0 6.169 1.801 7.305 3.312 1.234 1.636 1.511 3.286 1.522 3.356l.012.078-.001 15.8ZM217.066 41.72h-1.927v22.13h1.927V41.72Z"/><path fill="#B27EFF" d="M206.059 63.888c-6.068 0-11.004-4.957-11.004-11.054s4.935-11.055 11.004-11.055c6.07 0 11.006 4.958 11.006 11.055 0 6.098-4.937 11.054-11.006 11.054Zm0-20.172a9.05 9.05 0 0 0-5.043 1.536 9.108 9.108 0 0 0-3.343 4.093 9.16 9.16 0 0 0-.517 5.268 9.133 9.133 0 0 0 2.484 4.669 9.067 9.067 0 0 0 4.648 2.495 9.04 9.04 0 0 0 5.245-.519 9.082 9.082 0 0 0 4.074-3.358 9.143 9.143 0 0 0-1.132-11.51 9.067 9.067 0 0 0-6.416-2.674ZM276.354 41.72h-1.928v22.13h1.928V41.72Z"/><path fill="#B27EFF" d="M265.348 63.888c-6.068 0-11.004-4.957-11.004-11.054s4.935-11.055 11.004-11.055c6.07 0 11.005 4.958 11.005 11.055 0 6.098-4.937 11.054-11.005 11.054Zm0-20.172c-1.795 0-3.55.534-5.043 1.536a9.109 9.109 0 0 0-3.344 4.092 9.16 9.16 0 0 0-.517 5.269 9.135 9.135 0 0 0 2.485 4.669 9.04 9.04 0 0 0 9.892 1.977 9.083 9.083 0 0 0 4.074-3.359 9.144 9.144 0 0 0-1.131-11.51 9.068 9.068 0 0 0-6.416-2.674ZM296.305 72.511h-.118c-7.143 0-9.854-4.23-9.966-4.41l1.634-1.026s.575.883 1.878 1.748c1.751 1.162 3.924 1.752 6.458 1.752h.01c2.198.02 3.932-.613 5.166-1.88 2.287-2.352 2.192-6.177 2.19-6.216V41.245h1.928v21.187c.011.376.068 4.72-2.727 7.606-1.589 1.642-3.761 2.473-6.453 2.473Z"/></svg>