<svg xmlns="http://www.w3.org/2000/svg" width="95" height="35" fill="none" viewBox="0 0 95 35"><g clip-path="url(#clip0_4477_50191)"><path fill="#397FB9" fill-opacity=".35" d="M78.468.18H16.066C7.32.18.232 7.79.232 17.18c0 9.389 7.09 17 15.834 17h62.402c8.744 0 15.833-7.611 15.833-17 0-9.39-7.089-17-15.833-17Z"/><mask id="mask0_4477_50191" width="22" height="23" x="7" y="6" maskUnits="userSpaceOnUse" style="mask-type:luminance"><path fill="#fff" d="M29 6.18H7v22h22v-22Z"/></mask><g mask="url(#mask0_4477_50191)"><path fill="url(#paint0_linear_4477_50191)" d="M17.906 6.186c-5.571 0-5.223 2.425-5.223 2.425l.006 2.513h5.317v.755h-7.429s-3.565-.406-3.565 5.237c0 5.644 3.112 5.444 3.112 5.444h1.857v-2.619s-.1-3.124 3.062-3.124h5.273s2.963.048 2.963-2.874V9.11s.45-2.924-5.373-2.924Zm-2.931 1.69c.529 0 .956.429.956.96a.957.957 0 1 1-1.913 0c0-.531.427-.96.957-.96Z"/><path fill="url(#paint1_linear_4477_50191)" d="M18.064 28.104c5.572 0 5.224-2.426 5.224-2.426l-.006-2.513h-5.317v-.754h7.428s3.566.406 3.566-5.238-3.112-5.444-3.112-5.444H23.99v2.62s.1 3.123-3.062 3.123h-5.274s-2.962-.048-2.962 2.875v4.832s-.45 2.925 5.372 2.925Zm2.932-1.69a.957.957 0 0 1-.956-.96.957.957 0 1 1 1.913 0c0 .53-.428.96-.957.96Z"/></g><path fill="#1E1E1E" d="M33 21.052v-11.2h4.192c.95 0 1.765.154 2.448.464.683.298 1.205.736 1.568 1.312.373.565.56 1.253.56 2.064 0 .789-.187 1.472-.56 2.048-.363.565-.885 1.002-1.568 1.312-.683.309-1.499.464-2.448.464h-3.536l.528-.56v4.096H33Zm1.184-4-.528-.576h3.504c1.12 0 1.968-.24 2.544-.72.587-.491.88-1.179.88-2.064 0-.896-.293-1.59-.88-2.08-.576-.491-1.424-.736-2.544-.736h-3.504l.528-.56v6.736Zm10 7.184c-.395 0-.774-.064-1.137-.192a2.462 2.462 0 0 1-.912-.576l.528-.848c.214.202.443.357.688.464.256.117.54.176.848.176.374 0 .694-.107.96-.32.278-.203.54-.566.784-1.088l.544-1.232.128-.176 3.456-7.792h1.12l-4.208 9.408c-.234.544-.496.976-.784 1.296-.277.32-.58.544-.912.672-.33.138-.698.208-1.104.208Zm2.24-2.944-3.873-8.64h1.184l3.424 7.712-.736.928Zm9.258-.16c-.79 0-1.398-.214-1.824-.64-.427-.427-.64-1.03-.64-1.808v-7.888h1.136v7.824c0 .49.122.869.368 1.136.256.266.618.4 1.088.4.501 0 .917-.144 1.248-.432l.4.816a2.092 2.092 0 0 1-.816.448 3.22 3.22 0 0 1-.96.144Zm-3.968-7.536v-.944h5.2v.944h-5.2Zm12.1-1.024c.682 0 1.28.133 1.792.4.522.256.928.65 1.216 1.184.298.533.448 1.205.448 2.016v4.88h-1.136v-4.768c0-.886-.224-1.552-.672-2-.438-.459-1.056-.688-1.856-.688-.598 0-1.12.122-1.568.368a2.47 2.47 0 0 0-1.024 1.04c-.235.448-.352.992-.352 1.632v4.416h-1.136V9.18h1.136v5.776l-.224-.432a3.013 3.013 0 0 1 1.28-1.424c.586-.352 1.285-.528 2.096-.528Zm9.948 8.56c-.81 0-1.541-.182-2.192-.544a4.154 4.154 0 0 1-1.52-1.52c-.373-.651-.56-1.392-.56-2.224 0-.843.187-1.584.56-2.224.374-.64.88-1.142 1.52-1.504.64-.363 1.37-.544 2.192-.544.832 0 1.568.181 2.208.544.65.362 1.157.864 1.52 1.504.374.64.56 1.381.56 2.224 0 .832-.186 1.573-.56 2.224a4.001 4.001 0 0 1-1.52 1.52c-.65.362-1.386.544-2.208.544Zm0-1.008c.608 0 1.147-.134 1.616-.4.47-.278.838-.662 1.104-1.152.278-.502.416-1.078.416-1.728 0-.662-.138-1.238-.416-1.728a2.831 2.831 0 0 0-1.104-1.136 3.086 3.086 0 0 0-1.6-.416c-.597 0-1.13.138-1.6.416a2.94 2.94 0 0 0-1.12 1.136c-.277.49-.416 1.066-.416 1.728 0 .65.139 1.226.416 1.728.277.49.65.874 1.12 1.152.47.266.998.4 1.584.4Zm10.895-7.552c.683 0 1.28.133 1.792.4.523.256.928.65 1.216 1.184.3.533.448 1.205.448 2.016v4.88h-1.136v-4.768c0-.886-.224-1.552-.672-2-.437-.459-1.056-.688-1.856-.688-.597 0-1.12.122-1.568.368a2.47 2.47 0 0 0-1.024 1.04c-.234.448-.352.992-.352 1.632v4.416H80.37v-8.4h1.088v2.304l-.176-.432a3.014 3.014 0 0 1 1.28-1.424c.587-.352 1.286-.528 2.096-.528Z"/></g><defs><linearGradient id="paint0_linear_4477_50191" x1="217.927" x2="1309.76" y1="203.336" y2="1280.05" gradientUnits="userSpaceOnUse"><stop stop-color="#387EB8"/><stop offset="1" stop-color="#366994"/></linearGradient><linearGradient id="paint1_linear_4477_50191" x1="323.986" x2="1496.29" y1="348.721" y2="1452.6" gradientUnits="userSpaceOnUse"><stop stop-color="#FFE052"/><stop offset="1" stop-color="#FFC331"/></linearGradient><clipPath id="clip0_4477_50191"><path fill="#fff" d="M0 .18h95v34H0z"/></clipPath></defs></svg>