<svg xmlns="http://www.w3.org/2000/svg" width="146" height="34" fill="none" viewBox="0 0 146 34"><g clip-path="url(#clip0_7156_44133)"><path fill="#27C4EF" fill-opacity=".11" d="M128.25 0h-111c-9.389 0-17 7.611-17 17s7.611 17 17 17h111c9.389 0 17-7.611 17-17s-7.611-17-17-17Z"/><path fill="#1E1E1E" d="M35.422 23V11.8h4.192c.95 0 1.765.156 2.448.465.683.299 1.205.736 1.568 1.312.373.565.56 1.253.56 2.064 0 .79-.187 1.472-.56 2.048-.363.565-.885 1.003-1.568 1.312-.683.299-1.499.448-2.448.448h-3.536l.528-.544V23h-1.184Zm7.648 0-2.88-4.063h1.28L44.366 23H43.07Zm-6.464-4-.528-.56h3.504c1.12 0 1.968-.244 2.544-.735.587-.49.88-1.179.88-2.064 0-.896-.293-1.59-.88-2.08-.576-.49-1.424-.736-2.544-.736h-3.504l.528-.56V19Zm13.706 4.08c-.874 0-1.642-.18-2.304-.543a4.086 4.086 0 0 1-1.552-1.52c-.373-.65-.56-1.392-.56-2.224 0-.832.176-1.568.528-2.208a3.988 3.988 0 0 1 1.472-1.504 4.061 4.061 0 0 1 2.112-.56c.79 0 1.488.181 2.096.544a3.732 3.732 0 0 1 1.456 1.504c.352.64.528 1.381.528 2.224 0 .053-.005.112-.016.176v.176H46.76v-.848h6.704l-.448.336c0-.608-.133-1.147-.4-1.616a2.815 2.815 0 0 0-1.056-1.12c-.448-.267-.965-.4-1.552-.4a3.03 3.03 0 0 0-1.552.4c-.458.267-.816.64-1.072 1.12-.256.48-.384 1.03-.384 1.648v.176c0 .64.14 1.205.416 1.696.288.48.683.859 1.184 1.136.512.267 1.094.4 1.744.4.512 0 .987-.09 1.424-.272a2.962 2.962 0 0 0 1.152-.832l.64.736c-.373.448-.842.79-1.408 1.024a4.675 4.675 0 0 1-1.84.352ZM61.43 23v-1.855l-.048-.304v-3.104c0-.715-.202-1.264-.608-1.648-.394-.384-.986-.576-1.776-.576-.544 0-1.061.09-1.552.272-.49.181-.906.421-1.248.72l-.512-.848c.427-.363.939-.64 1.536-.832a5.835 5.835 0 0 1 1.888-.304c1.088 0 1.926.272 2.512.816.598.533.896 1.35.896 2.448V23H61.43Zm-2.896.08c-.629 0-1.178-.1-1.648-.303-.458-.213-.81-.501-1.056-.864a2.278 2.278 0 0 1-.368-1.28c0-.437.102-.832.304-1.184.214-.363.555-.65 1.024-.864.48-.224 1.12-.336 1.92-.336h2.896v.848h-2.864c-.81 0-1.376.144-1.696.432-.309.288-.464.645-.464 1.072 0 .48.187.864.56 1.152.374.288.896.432 1.568.432.64 0 1.19-.144 1.648-.432.47-.299.811-.725 1.024-1.28l.256.784a2.658 2.658 0 0 1-1.12 1.328c-.522.33-1.184.496-1.984.496Zm10.558 0c-.832 0-1.579-.18-2.24-.543a4.118 4.118 0 0 1-1.536-1.52c-.374-.65-.56-1.392-.56-2.224 0-.843.186-1.584.56-2.224a4.001 4.001 0 0 1 1.536-1.504c.661-.363 1.408-.544 2.24-.544.715 0 1.36.139 1.936.416.576.277 1.03.693 1.36 1.248l-.848.576a2.665 2.665 0 0 0-1.072-.944 3.202 3.202 0 0 0-1.392-.304c-.597 0-1.136.139-1.616.416-.48.267-.859.645-1.136 1.136-.278.49-.416 1.067-.416 1.728s.138 1.237.416 1.728c.277.49.656.875 1.136 1.152.48.267 1.019.4 1.616.4.501 0 .965-.101 1.392-.304a2.705 2.705 0 0 0 1.072-.928l.848.576a3.27 3.27 0 0 1-1.36 1.248c-.576.277-1.222.416-1.936.416Zm8.277 0c-.79 0-1.397-.212-1.824-.64-.427-.426-.64-1.028-.64-1.807v-7.888h1.136v7.824c0 .49.123.87.368 1.136.256.267.619.4 1.088.4.502 0 .918-.144 1.248-.432l.4.816a2.092 2.092 0 0 1-.816.448 3.22 3.22 0 0 1-.96.144Zm-3.968-7.535V14.6h5.2v.944h-5.2ZM85.641 23V11.8h.976l7.728 9.728h-.512V11.8H95V23h-.976l-7.712-9.728h.512V23H85.64Zm18.039 0v-1.856l-.048-.304v-3.104c0-.715-.203-1.264-.608-1.648-.395-.384-.987-.576-1.776-.576a4.44 4.44 0 0 0-1.552.272c-.49.181-.906.421-1.248.72l-.512-.848c.427-.363.939-.64 1.536-.832a5.832 5.832 0 0 1 1.888-.304c1.088 0 1.925.272 2.512.816.597.533.896 1.35.896 2.448V23h-1.088Zm-2.896.08c-.629 0-1.178-.101-1.648-.304-.458-.213-.81-.501-1.056-.864a2.278 2.278 0 0 1-.368-1.28c0-.437.102-.832.304-1.184.214-.363.555-.65 1.024-.864.48-.224 1.12-.336 1.92-.336h2.896v.848h-2.864c-.811 0-1.376.144-1.696.432-.309.288-.464.645-.464 1.072 0 .48.187.864.56 1.152.374.288.896.432 1.568.432.64 0 1.189-.144 1.648-.432a2.556 2.556 0 0 0 1.024-1.28l.256.784a2.658 2.658 0 0 1-1.12 1.328c-.523.33-1.184.496-1.984.496Zm9.725 0c-.789 0-1.397-.213-1.824-.64-.426-.427-.64-1.03-.64-1.808v-7.888h1.136v7.824c0 .49.123.87.368 1.136.256.267.619.4 1.088.4.502 0 .918-.144 1.248-.432l.4.816a2.092 2.092 0 0 1-.816.448 3.217 3.217 0 0 1-.96.144Zm-3.968-7.536V14.6h5.2v.944h-5.2ZM114.353 23v-8.4h1.136V23h-1.136Zm.576-10.256a.805.805 0 0 1-.592-.24.786.786 0 0 1-.24-.576c0-.224.08-.41.24-.56.16-.16.358-.24.592-.24.235 0 .432.075.592.224.16.15.24.336.24.56 0 .235-.08.432-.24.592a.77.77 0 0 1-.592.24ZM120.81 23l-3.728-8.4h1.184l3.424 7.792h-.56l3.472-7.792h1.12l-3.744 8.4h-1.168Zm9.846.08c-.875 0-1.643-.181-2.304-.544a4.086 4.086 0 0 1-1.552-1.52c-.373-.65-.56-1.392-.56-2.224 0-.832.176-1.568.528-2.208a3.987 3.987 0 0 1 1.472-1.504 4.06 4.06 0 0 1 2.112-.56c.789 0 1.488.181 2.096.544a3.73 3.73 0 0 1 1.456 1.504c.352.64.528 1.381.528 2.224 0 .053-.005.112-.016.176v.176h-7.312v-.848h6.704l-.448.336c0-.608-.133-1.147-.4-1.616a2.815 2.815 0 0 0-1.056-1.12c-.448-.267-.965-.4-1.552-.4-.576 0-1.093.133-1.552.4-.459.267-.816.64-1.072 1.12-.256.48-.384 1.03-.384 1.648v.176c0 .64.139 1.205.416 1.696.288.48.683.859 1.184 1.136.512.267 1.093.4 1.744.4.512 0 .987-.09 1.424-.272a2.962 2.962 0 0 0 1.152-.832l.64.736c-.373.448-.843.79-1.408 1.024a4.677 4.677 0 0 1-1.84.352Z"/><path fill="#0AC3F5" d="M30.162 17.002c0-1.487-1.81-2.897-4.585-3.772.64-2.911.356-5.227-.899-5.97a1.906 1.906 0 0 0-.996-.255v1.02c.205 0 .37.042.507.12.605.356.868 1.716.663 3.465-.049.43-.129.883-.227 1.346-.872-.22-1.823-.39-2.824-.5a22.185 22.185 0 0 0-1.85-2.288c1.45-1.387 2.81-2.147 3.736-2.147V7c-1.223 0-2.824.897-4.443 2.454-1.619-1.548-3.22-2.436-4.443-2.436V8.04c.92 0 2.286.755 3.736 2.133a21.492 21.492 0 0 0-1.837 2.285c-1.005.11-1.957.279-2.828.503a14.184 14.184 0 0 1-.232-1.327c-.209-1.749.05-3.109.65-3.47.133-.083.307-.12.511-.12v-1.02c-.373 0-.711.082-1.005.256-1.25.742-1.53 3.054-.885 5.956-2.766.879-4.567 2.284-4.567 3.767 0 1.488 1.81 2.898 4.585 3.772-.64 2.912-.356 5.228.898 5.97.29.174.627.256 1 .256 1.224 0 2.825-.897 4.444-2.454 1.618 1.548 3.22 2.436 4.442 2.436.374 0 .712-.083 1.006-.257 1.25-.741 1.53-3.053.884-5.955 2.758-.875 4.559-2.285 4.559-3.768Zm-5.79-3.053c-.165.59-.37 1.2-.6 1.808a24.957 24.957 0 0 0-1.223-2.17c.63.096 1.24.215 1.823.362Zm-2.037 4.875a24.47 24.47 0 0 1-1.072 1.749 22.488 22.488 0 0 1-4.011.005 24.093 24.093 0 0 1-2.001-3.561 24.511 24.511 0 0 1 1.992-3.575 22.489 22.489 0 0 1 4.011-.006 24.095 24.095 0 0 1 2.001 3.562c-.28.613-.587 1.227-.92 1.826Zm1.436-.595c.234.597.438 1.205.614 1.822-.583.147-1.196.27-1.832.366a25.478 25.478 0 0 0 1.218-2.188Zm-4.51 4.885a18.72 18.72 0 0 1-1.236-1.465c.4.018.81.032 1.223.032.418 0 .832-.01 1.237-.032-.382.51-.79 1-1.223 1.465Zm-3.308-2.697a19.537 19.537 0 0 1-1.823-.361c.164-.59.369-1.2.6-1.809.182.367.374.733.583 1.1.209.365.422.722.64 1.07Zm3.287-9.526c.413.44.827.93 1.236 1.465-.4-.018-.81-.032-1.223-.032-.418 0-.832.009-1.236.032.381-.51.79-1 1.223-1.465Zm-3.291 2.696a25.553 25.553 0 0 0-1.219 2.184 19.989 19.989 0 0 1-.614-1.822 21.072 21.072 0 0 1 1.832-.362Zm-4.025 5.732c-1.574-.692-2.593-1.598-2.593-2.317 0-.718 1.019-1.63 2.593-2.316.382-.17.8-.32 1.232-.462.253.897.587 1.83 1 2.788a22.09 22.09 0 0 0-.987 2.774c-.44-.142-.858-.298-1.245-.467Zm2.392 6.541c-.604-.357-.867-1.716-.662-3.465.049-.43.129-.884.227-1.346.871.22 1.823.39 2.824.499.6.847 1.223 1.616 1.85 2.289-1.45 1.387-2.811 2.147-3.736 2.147a1.037 1.037 0 0 1-.503-.124Zm10.55-3.488c.208 1.749-.05 3.108-.65 3.47-.133.082-.307.119-.512.119-.92 0-2.285-.755-3.735-2.133a21.495 21.495 0 0 0 1.837-2.285c1.005-.11 1.956-.279 2.828-.503.102.462.182.906.231 1.332Zm1.712-3.053c-.383.169-.801.32-1.232.462a22.402 22.402 0 0 0-1.001-2.788c.41-.952.738-1.881.987-2.774.44.142.858.298 1.25.467 1.574.691 2.593 1.598 2.593 2.316-.005.72-1.023 1.63-2.598 2.317Z"/><path fill="#0AC3F5" d="M19.208 19.078c.819 0 1.482-.676 1.482-1.51s-.663-1.51-1.482-1.51c-.818 0-1.481.677-1.481 1.51 0 .834.663 1.51 1.481 1.51Z"/></g><defs><clipPath id="clip0_7156_44133"><path fill="#fff" d="M0 0h146v34H0z"/></clipPath></defs></svg>