<svg xmlns="http://www.w3.org/2000/svg" width="90" height="35" fill="none" viewBox="0 0 90 35"><g clip-path="url(#clip0_4477_51133)"><path fill="#27C4EF" fill-opacity=".24" d="M72.25.18H17c-9.389 0-17 7.61-17 17 0 9.389 7.611 17 17 17h55.25c9.389 0 17-7.611 17-17 0-9.39-7.611-17-17-17Z"/><path fill="#1E1E1E" d="M35.701 23.18v-11.2h4.192c.95 0 1.765.155 2.448.464.683.3 1.206.736 1.568 1.313.373.565.56 1.253.56 2.063 0 .79-.187 1.473-.56 2.049-.362.565-.885 1.002-1.568 1.311-.683.3-1.498.448-2.448.448h-3.536l.528-.544v4.096h-1.184Zm7.648 0-2.88-4.064h1.28l2.896 4.064H43.35Zm-6.464-4-.528-.56h3.504c1.12 0 1.968-.245 2.544-.736.587-.49.88-1.178.88-2.064 0-.896-.293-1.589-.88-2.08-.576-.49-1.424-.736-2.544-.736h-3.504l.528-.56v6.736Zm13.707 4.08c-.875 0-1.643-.18-2.304-.544a4.086 4.086 0 0 1-1.552-1.52c-.374-.65-.56-1.392-.56-2.224 0-.832.176-1.568.528-2.207a3.987 3.987 0 0 1 1.472-1.505 4.061 4.061 0 0 1 2.112-.56c.789 0 1.488.182 2.096.545a3.732 3.732 0 0 1 1.456 1.504c.352.64.528 1.38.528 2.224 0 .053-.006.111-.016.175v.177H47.04v-.848h6.704l-.448.335c0-.608-.134-1.146-.4-1.616a2.815 2.815 0 0 0-1.056-1.12c-.448-.266-.966-.4-1.552-.4a3.03 3.03 0 0 0-1.552.4 2.78 2.78 0 0 0-1.072 1.12c-.256.48-.384 1.03-.384 1.648v.176c0 .64.138 1.206.416 1.697.288.48.682.858 1.184 1.136.512.266 1.093.4 1.744.4.512 0 .986-.091 1.424-.273a2.962 2.962 0 0 0 1.152-.832l.64.736c-.374.448-.843.79-1.408 1.024a4.676 4.676 0 0 1-1.84.352Zm11.118-.08v-1.855l-.048-.305v-3.104c0-.714-.203-1.264-.608-1.648-.395-.384-.987-.575-1.776-.575-.544 0-1.062.09-1.552.271-.491.182-.907.422-1.248.72l-.512-.848c.426-.362.938-.64 1.536-.832a5.835 5.835 0 0 1 1.888-.303c1.088 0 1.925.271 2.512.816.597.533.896 1.349.896 2.448v5.215H61.71Zm-2.896.08c-.63 0-1.18-.1-1.648-.304-.46-.213-.811-.5-1.056-.863a2.277 2.277 0 0 1-.368-1.28c0-.438.1-.832.304-1.184.213-.363.554-.651 1.024-.864.48-.224 1.12-.337 1.92-.337h2.896v.848h-2.864c-.811 0-1.376.145-1.696.433-.31.288-.464.645-.464 1.072 0 .48.186.864.56 1.152.373.288.896.431 1.568.431.64 0 1.189-.143 1.648-.431.469-.3.81-.726 1.024-1.28l.256.784a2.659 2.659 0 0 1-1.12 1.328c-.523.33-1.184.495-1.984.495Zm10.557 0c-.832 0-1.579-.18-2.24-.544a4.118 4.118 0 0 1-1.536-1.52c-.373-.65-.56-1.392-.56-2.224 0-.842.187-1.584.56-2.224a4.001 4.001 0 0 1 1.536-1.504c.661-.362 1.408-.543 2.24-.543.715 0 1.36.138 1.936.415.576.278 1.03.694 1.36 1.248l-.848.576a2.666 2.666 0 0 0-1.072-.944 3.202 3.202 0 0 0-1.392-.303c-.597 0-1.136.138-1.616.415-.48.267-.859.646-1.136 1.136-.277.491-.416 1.067-.416 1.729 0 .66.139 1.237.416 1.728.277.49.656.874 1.136 1.151.48.267 1.019.4 1.616.4.501 0 .965-.1 1.392-.303a2.706 2.706 0 0 0 1.072-.929l.848.576a3.27 3.27 0 0 1-1.36 1.248c-.576.278-1.221.416-1.936.416Zm8.278 0c-.79 0-1.398-.213-1.825-.64-.426-.426-.64-1.029-.64-1.808v-7.888h1.136v7.825c0 .49.123.869.369 1.136.256.266.618.4 1.088.4.5 0 .917-.145 1.248-.433l.4.817a2.092 2.092 0 0 1-.816.447 3.22 3.22 0 0 1-.96.145Zm-3.969-7.536v-.944h5.2v.945h-5.2Z"/><path fill="#27C4EF" d="M29.91 17.182c0-1.488-1.81-2.898-4.585-3.772.64-2.911.356-5.228-.898-5.97a1.906 1.906 0 0 0-.997-.256v1.021c.205 0 .37.041.507.12.605.356.868 1.716.663 3.465-.049.43-.129.883-.227 1.345-.872-.22-1.823-.389-2.824-.499a22.185 22.185 0 0 0-1.85-2.288C21.15 8.96 22.51 8.2 23.435 8.2V7.18c-1.223 0-2.824.897-4.443 2.453-1.619-1.547-3.22-2.435-4.443-2.435v1.02c.92 0 2.286.756 3.736 2.134a21.492 21.492 0 0 0-1.837 2.284c-1.005.11-1.957.28-2.828.504a14.184 14.184 0 0 1-.232-1.328c-.208-1.748.05-3.108.65-3.47.133-.082.307-.119.511-.119v-1.02c-.373 0-.711.082-1.005.256-1.25.742-1.53 3.053-.885 5.956-2.766.879-4.567 2.284-4.567 3.767 0 1.488 1.81 2.898 4.585 3.772-.64 2.912-.356 5.228.898 5.97.29.173.627.256 1 .256 1.224 0 2.825-.898 4.444-2.454 1.618 1.547 3.22 2.436 4.443 2.436.373 0 .711-.083 1.005-.257 1.25-.742 1.53-3.053.885-5.956 2.757-.874 4.558-2.284 4.558-3.767Zm-5.79-3.053c-.165.59-.37 1.199-.6 1.808a24.957 24.957 0 0 0-1.223-2.17c.63.096 1.24.215 1.823.362Zm-2.037 4.875a24.47 24.47 0 0 1-1.072 1.749 22.488 22.488 0 0 1-4.011.004 24.093 24.093 0 0 1-2.001-3.561 24.511 24.511 0 0 1 1.992-3.575 22.489 22.489 0 0 1 4.011-.005 24.095 24.095 0 0 1 2.001 3.561c-.28.614-.587 1.227-.92 1.827Zm1.436-.595c.234.597.439 1.204.614 1.822-.583.146-1.196.27-1.832.366a25.478 25.478 0 0 0 1.218-2.188Zm-4.51 4.884a18.72 18.72 0 0 1-1.236-1.465c.4.019.81.032 1.223.032.419 0 .832-.009 1.237-.032-.382.511-.79 1-1.223 1.465Zm-3.308-2.696a19.537 19.537 0 0 1-1.823-.362c.164-.59.369-1.199.6-1.808.182.366.374.733.583 1.099.209.366.422.723.64 1.071Zm3.287-9.526c.413.44.827.929 1.236 1.465-.4-.019-.81-.032-1.223-.032-.418 0-.832.009-1.236.032.381-.511.79-1 1.223-1.465Zm-3.291 2.696a25.553 25.553 0 0 0-1.219 2.184 19.989 19.989 0 0 1-.614-1.822 21.072 21.072 0 0 1 1.832-.362Zm-4.025 5.731c-1.575-.69-2.593-1.597-2.593-2.316 0-.719 1.018-1.63 2.593-2.316.382-.17.8-.32 1.232-.463.253.898.587 1.831 1 2.788-.409.952-.738 1.882-.987 2.774-.44-.142-.858-.297-1.245-.467Zm2.392 6.542c-.604-.357-.867-1.717-.662-3.465.049-.43.129-.884.227-1.346.871.22 1.823.389 2.824.499.6.846 1.223 1.616 1.85 2.288-1.45 1.388-2.811 2.147-3.736 2.147a1.037 1.037 0 0 1-.503-.123Zm10.55-3.488c.208 1.748-.05 3.108-.65 3.47-.133.082-.307.119-.511.119-.921 0-2.286-.756-3.736-2.134a21.495 21.495 0 0 0 1.837-2.284c1.005-.11 1.956-.28 2.828-.503.102.462.182.906.231 1.332Zm1.712-3.054c-.383.17-.801.32-1.232.463a22.402 22.402 0 0 0-1.001-2.788c.41-.952.738-1.882.987-2.774.44.142.859.297 1.25.467 1.574.69 2.593 1.597 2.593 2.316-.005.719-1.023 1.63-2.597 2.316Z"/><path fill="#27C4EF" d="M18.958 19.258c.819 0 1.482-.676 1.482-1.51s-.663-1.51-1.482-1.51c-.818 0-1.481.676-1.481 1.51s.663 1.51 1.481 1.51Z"/></g><defs><clipPath id="clip0_4477_51133"><path fill="#fff" d="M0 .18h90v34H0z"/></clipPath></defs></svg>