<svg xmlns="http://www.w3.org/2000/svg" width="170" height="48" fill="none" viewBox="0 0 170 48"><path fill="#542E83" d="M1.858 38.648V14.103h10.14c1.837 0 3.423.332 4.757.995 1.343.655 2.377 1.598 3.104 2.828.727 1.223 1.09 2.673 1.09 4.35 0 1.703-.37 3.149-1.114 4.34-.743 1.182-1.797 2.085-3.164 2.708-1.366.615-2.984.923-4.854.923H5.405v-4.674h5.31c.895 0 1.642-.116 2.24-.348.608-.24 1.068-.6 1.38-1.079.31-.487.467-1.11.467-1.87 0-.758-.156-1.386-.468-1.88-.311-.504-.77-.88-1.378-1.127-.607-.256-1.354-.384-2.241-.384H7.79v19.763H1.858ZM15.677 27.43l6.112 11.218h-6.472L9.324 27.43h6.353Zm8.527 11.218V14.103h17.115v4.818H30.136v5.034h10.308v4.83H30.136v5.045H41.32v4.818H24.204Zm43.11-15.652h-5.992a5.193 5.193 0 0 0-.492-1.666 4.05 4.05 0 0 0-.983-1.27 4.195 4.195 0 0 0-1.45-.803 5.551 5.551 0 0 0-1.833-.288c-1.19 0-2.218.292-3.08.875-.855.583-1.515 1.426-1.978 2.529-.456 1.102-.683 2.437-.683 4.003 0 1.63.231 2.996.695 4.099.471 1.094 1.13 1.921 1.977 2.48.855.552 1.866.828 3.033.828.655 0 1.25-.084 1.785-.252a4.38 4.38 0 0 0 1.427-.731 4.043 4.043 0 0 0 1.018-1.187c.272-.471.46-1.003.564-1.594l5.992.036c-.104 1.087-.42 2.157-.947 3.212a10.256 10.256 0 0 1-2.145 2.889c-.91.863-2.021 1.55-3.332 2.061-1.302.511-2.796.767-4.482.767-2.221 0-4.211-.487-5.969-1.462-1.75-.983-3.132-2.413-4.147-4.29-1.014-1.878-1.522-4.164-1.522-6.856 0-2.7.516-4.99 1.546-6.868 1.031-1.877 2.425-3.304 4.183-4.278 1.758-.975 3.727-1.463 5.909-1.463 1.486 0 2.86.208 4.123.624 1.262.407 2.373 1.006 3.331 1.797a9.193 9.193 0 0 1 2.338 2.889c.599 1.142.97 2.449 1.114 3.919Zm3.395 15.652V14.103h10.14c1.837 0 3.423.332 4.757.995 1.343.655 2.378 1.598 3.105 2.828.727 1.223 1.09 2.673 1.09 4.35 0 1.703-.371 3.149-1.114 4.34-.743 1.182-1.798 2.085-3.164 2.708-1.367.615-2.985.923-4.854.923h-6.412v-4.674h5.309c.895 0 1.642-.116 2.241-.348.607-.24 1.067-.6 1.379-1.079.311-.487.467-1.11.467-1.87 0-.758-.156-1.386-.468-1.88-.311-.504-.77-.88-1.378-1.127-.607-.256-1.354-.384-2.241-.384h-2.924v19.763h-5.933ZM84.528 27.43l6.112 11.218h-6.472L78.176 27.43h6.352Zm52.381-13.327h5.92v15.832c0 1.83-.435 3.424-1.306 4.782-.871 1.35-2.086 2.397-3.644 3.14-1.558.736-3.367 1.103-5.429 1.103-2.085 0-3.907-.367-5.465-1.103-1.558-.743-2.769-1.79-3.632-3.14-.862-1.358-1.294-2.952-1.294-4.782V14.103h5.933V29.42c0 .847.183 1.602.551 2.265a4.036 4.036 0 0 0 1.57 1.558c.671.376 1.45.563 2.337.563.887 0 1.662-.187 2.325-.563a4.03 4.03 0 0 0 1.57-1.558c.376-.663.564-1.418.564-2.265V14.103Zm8.836 4.818v-4.818h20.746v4.818h-7.443v19.727h-5.849V18.921h-7.454Z"/><path fill="#009DE5" fill-rule="evenodd" d="M110.841 5.448c.258-.461.414-.99.439-1.557.082-1.925-1.391-3.563-3.29-3.659-1.9-.096-3.506 1.386-3.589 3.31-.082 1.925 1.391 3.563 3.29 3.66a3.374 3.374 0 0 0 1.986-.522l2.896 3.037a3.525 3.525 0 0 0 .459 3.513l-6.499 8.856a3.422 3.422 0 0 0-.795-.135c-1.899-.096-3.506 1.386-3.588 3.31-.083 1.925 1.39 3.563 3.289 3.66 1.9.095 3.506-1.387 3.589-3.311a3.529 3.529 0 0 0-1.022-2.643l6.366-8.675c.376.168.788.27 1.222.292 1.899.096 3.506-1.386 3.588-3.31.083-1.925-1.39-3.563-3.289-3.66a3.381 3.381 0 0 0-2.286.736l-2.766-2.902Z" clip-rule="evenodd"/><path fill="#542E83" fill-rule="evenodd" d="M112 25.5a6.5 6.5 0 1 1-5.213-6.373l4.487-5.833A13.446 13.446 0 0 0 105.5 12C98.044 12 92 18.044 92 25.5S98.044 39 105.5 39 119 32.956 119 25.5c0-3.709-1.495-7.068-3.916-9.508l-4.558 5.386A6.474 6.474 0 0 1 112 25.5Z" clip-rule="evenodd"/></svg>