<svg xmlns="http://www.w3.org/2000/svg" width="90" height="34" fill="none" viewBox="0 0 90 34"><path fill="#E0FFBE" d="M72.857 0H17.143C7.675 0 0 7.611 0 17s7.675 17 17.143 17h55.714C82.325 34 90 26.389 90 17S82.325 0 72.857 0Z"/><path fill="#131313" d="M50.308 19.203c0-.312-.052-.591-.156-.836a1.698 1.698 0 0 0-.516-.656c-.234-.198-.552-.38-.953-.547-.396-.172-.89-.341-1.485-.508a13.522 13.522 0 0 1-1.539-.531 5.375 5.375 0 0 1-1.18-.664 2.626 2.626 0 0 1-.742-.875c-.171-.339-.257-.732-.257-1.18 0-.437.093-.836.28-1.195.188-.36.452-.67.79-.93.344-.26.747-.46 1.21-.601.47-.14.983-.211 1.54-.211.797 0 1.484.15 2.063.453a3.36 3.36 0 0 1 1.351 1.226c.323.51.484 1.084.484 1.72h-.96a2.49 2.49 0 0 0-.352-1.321 2.337 2.337 0 0 0-1-.914c-.432-.224-.961-.336-1.586-.336-.625 0-1.151.096-1.578.289-.422.187-.742.44-.961.758-.214.312-.32.661-.32 1.047 0 .27.052.52.156.75.104.224.273.434.508.632.24.193.554.375.945.547.39.167.872.326 1.445.477.605.166 1.14.351 1.61.555.468.203.864.437 1.187.703.323.26.568.565.735.914.166.349.25.755.25 1.218 0 .464-.1.88-.297 1.25a2.685 2.685 0 0 1-.82.93c-.35.255-.764.45-1.243.586a5.644 5.644 0 0 1-1.555.203 5.961 5.961 0 0 1-1.507-.195c-.5-.13-.959-.33-1.375-.602a3.178 3.178 0 0 1-.992-1.062c-.245-.432-.368-.948-.368-1.547h.953c0 .48.097.883.29 1.21.192.33.447.595.765.798a3.56 3.56 0 0 0 1.063.445c.39.089.78.133 1.171.133.6 0 1.118-.089 1.555-.266.443-.177.784-.424 1.024-.742a1.81 1.81 0 0 0 .367-1.125Zm8.769 1.281v-4.359c0-.401-.084-.747-.25-1.04a1.646 1.646 0 0 0-.735-.67c-.323-.157-.721-.235-1.195-.235-.438 0-.828.078-1.172.234a2.019 2.019 0 0 0-.805.617 1.38 1.38 0 0 0-.289.852l-.937-.008c0-.318.078-.625.234-.922.156-.297.378-.562.664-.797a3.27 3.27 0 0 1 1.024-.554c.4-.141.84-.211 1.32-.211.604 0 1.135.101 1.594.304a2.4 2.4 0 0 1 1.086.914c.26.407.39.917.39 1.532v4.086c0 .291.021.593.063.906.047.312.112.57.195.773V22h-.992a3.82 3.82 0 0 1-.149-.703 7.521 7.521 0 0 1-.046-.813Zm.218-3.406.016.719h-1.836a5.7 5.7 0 0 0-1.29.133 2.938 2.938 0 0 0-.952.375c-.26.161-.461.357-.602.586-.135.229-.203.49-.203.78 0 .303.076.579.227.829.156.25.375.45.656.602.286.145.625.218 1.016.218.52 0 .979-.096 1.375-.289a2.91 2.91 0 0 0 .992-.758c.26-.312.435-.653.523-1.023l.406.54c-.067.26-.192.528-.375.804-.177.27-.408.526-.695.765a3.69 3.69 0 0 1-1.015.578 3.69 3.69 0 0 1-1.313.22c-.552 0-1.034-.105-1.445-.313a2.403 2.403 0 0 1-.953-.852 2.31 2.31 0 0 1-.336-1.234c0-.417.088-.79.265-1.117.177-.334.432-.615.766-.844a3.724 3.724 0 0 1 1.219-.531 6.38 6.38 0 0 1 1.609-.188h1.945Zm9.16 3.406v-4.359c0-.401-.084-.747-.25-1.04a1.646 1.646 0 0 0-.735-.67c-.323-.157-.721-.235-1.195-.235-.438 0-.828.078-1.172.234a2.02 2.02 0 0 0-.805.617 1.38 1.38 0 0 0-.289.852l-.937-.008c0-.318.078-.625.234-.922.157-.297.378-.562.664-.797.287-.234.628-.419 1.024-.554.4-.141.84-.211 1.32-.211.604 0 1.136.101 1.594.304.463.203.825.508 1.086.914.26.407.39.917.39 1.532v4.086c0 .291.021.593.063.906.047.312.112.57.195.773V22h-.992a3.812 3.812 0 0 1-.148-.703 7.497 7.497 0 0 1-.047-.813Zm.218-3.406.016.719h-1.836a5.7 5.7 0 0 0-1.289.133 2.94 2.94 0 0 0-.953.375c-.26.161-.461.357-.602.586-.135.229-.203.49-.203.78 0 .303.076.579.227.829.156.25.375.45.656.602.287.145.625.218 1.016.218.52 0 .979-.096 1.375-.289a2.91 2.91 0 0 0 .992-.758c.26-.312.435-.653.523-1.023l.407.54c-.068.26-.193.528-.375.804-.177.27-.41.526-.696.765a3.69 3.69 0 0 1-1.015.578 3.69 3.69 0 0 1-1.313.22c-.552 0-1.034-.105-1.445-.313a2.405 2.405 0 0 1-.953-.852 2.31 2.31 0 0 1-.336-1.234c0-.417.088-.79.265-1.117.178-.334.433-.615.766-.844a3.724 3.724 0 0 1 1.219-.531 6.381 6.381 0 0 1 1.61-.188h1.944Zm9.082 2.766c0-.23-.058-.456-.172-.68-.115-.224-.336-.43-.664-.617-.323-.188-.8-.346-1.43-.477a10.983 10.983 0 0 1-1.258-.351 3.635 3.635 0 0 1-.922-.469 1.848 1.848 0 0 1-.57-.656 1.971 1.971 0 0 1-.195-.907c0-.312.068-.606.203-.882.14-.282.338-.526.594-.735.26-.213.573-.38.937-.5.37-.12.784-.18 1.242-.18.651 0 1.209.113 1.672.337.469.218.826.518 1.07.898.25.38.376.81.376 1.29h-.93c0-.293-.086-.569-.258-.83-.167-.26-.414-.473-.742-.64-.323-.166-.719-.25-1.188-.25-.484 0-.877.073-1.18.22-.302.145-.523.33-.663.554a1.325 1.325 0 0 0-.204.695c0 .188.03.36.086.516.063.15.172.291.329.422.161.13.39.252.687.367.297.114.682.226 1.156.336.683.15 1.24.336 1.672.554.438.214.76.48.969.797.208.313.312.693.312 1.14 0 .35-.072.67-.218.962a2.143 2.143 0 0 1-.633.742c-.271.208-.6.37-.985.484-.38.115-.807.172-1.28.172-.714 0-1.319-.117-1.813-.351-.49-.24-.862-.552-1.117-.938a2.266 2.266 0 0 1-.376-1.242h.93c.031.438.17.784.414 1.04.245.25.544.426.899.53.36.104.713.157 1.062.157.48 0 .88-.07 1.203-.211.323-.141.568-.326.735-.555.166-.23.25-.477.25-.742Z"/><g clip-path="url(#clip0_9683_36411)"><path fill="#8CC84B" d="M31.157 18.347a4.969 4.969 0 0 0-2.175.504c-.223-.443-.447-.837-.486-1.127-.044-.337-.097-.543-.044-.946.052-.404.29-.978.285-1.022-.004-.044-.053-.25-.535-.254-.482-.005-.899.092-.947.22-.048.126-.14.415-.201.714-.084.438-.965 2.003-1.47 2.823-.161-.32-.302-.6-.332-.824-.044-.338-.097-.544-.044-.947.053-.404.29-.978.285-1.022-.005-.044-.053-.25-.535-.254-.482-.004-.899.092-.947.22-.048.126-.1.425-.201.714-.101.29-1.272 2.902-1.579 3.577-.158.346-.293.623-.39.811 0 0-.004.013-.017.035-.084.162-.132.25-.132.25v.004c-.066.119-.136.228-.17.228-.027 0-.075-.315.008-.745.175-.907.592-2.319.587-2.367 0-.026.08-.272-.271-.4-.342-.126-.465.084-.496.084-.03 0-.053.075-.053.075s.382-1.587-.727-1.587c-.693 0-1.648.758-2.122 1.442l-1.613.881c-.259.145-.526.29-.776.425-.018-.017-.035-.039-.053-.057-1.341-1.433-3.822-2.446-3.717-4.37.04-.702.28-2.543 4.765-4.779 3.691-1.819 6.628-1.315 7.137-.197.728 1.596-1.574 4.56-5.388 4.989-1.455.162-2.218-.399-2.411-.61-.202-.219-.232-.232-.307-.188-.123.066-.044.263 0 .377.114.298.583.824 1.377 1.083.701.228 2.406.355 4.471-.443 2.31-.894 4.117-3.38 3.586-5.462-.53-2.113-4.037-2.81-7.356-1.631-1.973.701-4.112 1.806-5.65 3.244-1.829 1.71-2.118 3.196-2 3.818.425 2.21 3.472 3.648 4.691 4.713-.061.035-.118.066-.167.092-.609.303-2.932 1.517-3.511 2.801-.658 1.456.105 2.5.61 2.64 1.564.433 3.173-.347 4.037-1.636.863-1.289.758-2.963.36-3.73a.093.093 0 0 0-.018-.027l.478-.28c.31-.184.618-.355.88-.496-.148.408-.258.895-.31 1.596-.066.824.271 1.894.714 2.315.197.184.43.188.579.188.517 0 .75-.43 1.008-.938.316-.622.6-1.346.6-1.346s-.354 1.956.61 1.956c.35 0 .706-.457.864-.689v.005l.026-.044.057-.092v-.01c.14-.245.456-.801.925-1.726.605-1.193 1.188-2.683 1.188-2.683s.052.364.232.969c.105.355.325.745.5 1.122-.14.197-.228.307-.228.307l.004.004c-.114.15-.236.311-.372.47-.478.57-1.048 1.222-1.127 1.41-.092.224-.07.387.105.518.127.096.355.11.588.096a2.7 2.7 0 0 0 .88-.201 2.96 2.96 0 0 0 .76-.4c.468-.345.753-.84.727-1.494-.013-.36-.131-.719-.276-1.056.044-.062.083-.123.127-.185a20.09 20.09 0 0 0 1.315-2.27s.053.363.233.968c.087.307.267.64.425.965-.697.565-1.127 1.223-1.28 1.653-.277.797-.062 1.157.346 1.24.184.04.447-.048.64-.131.245-.08.535-.215.811-.417.47-.346.92-.828.894-1.482a2.803 2.803 0 0 0-.201-.876c.591-.246 1.354-.382 2.327-.268 2.087.246 2.5 1.548 2.42 2.096-.079.548-.517.846-.662.938-.144.092-.193.123-.18.188.018.097.088.093.211.075.171-.03 1.096-.443 1.136-1.451.065-1.289-1.162-2.696-3.332-2.683Zm-16.098 5.427c-.692.754-1.657 1.04-2.073.798-.447-.259-.272-1.372.578-2.17.518-.487 1.184-.938 1.627-1.214.1-.062.25-.15.43-.259a.973.973 0 0 1 .048-.026l.105-.066c.311 1.14.013 2.144-.715 2.937Zm5.042-3.428c-.241.587-.745 2.091-1.052 2.008-.263-.07-.426-1.21-.053-2.337.189-.565.587-1.24.82-1.503.377-.421.793-.562.894-.39.127.223-.46 1.854-.61 2.222Zm4.16 1.99c-.1.053-.197.088-.241.062-.03-.018.044-.088.044-.088s.521-.561.727-.815c.119-.15.26-.325.408-.522v.057c0 .67-.649 1.122-.938 1.306Zm3.209-.732c-.075-.052-.061-.228.189-.776.096-.215.324-.574.714-.92.044.14.075.276.07.403-.004.846-.61 1.162-.973 1.293Z"/></g><defs><clipPath id="clip0_9683_36411"><path fill="#fff" d="M10.488 8h24.015v18H10.488z"/></clipPath></defs></svg>