<svg xmlns="http://www.w3.org/2000/svg" width="86" height="34" fill="none" viewBox="0 0 86 34"><path fill="#ECF4DC" d="M69.619 0H16.381C7.334 0 0 7.611 0 17s7.334 17 16.381 17h53.238C78.666 34 86 26.389 86 17S78.666 0 69.619 0Z"/><path fill="#96BF49" d="M21.385 8.95s-.233.07-.63.199a4.482 4.482 0 0 0-.303-.735c-.444-.852-1.097-1.295-1.89-1.307-.059 0-.105 0-.164.012-.023-.023-.046-.058-.07-.082-.338-.373-.781-.548-1.306-.536-1.015.035-2.03.77-2.859 2.076-.583.922-1.015 2.077-1.143 2.963-1.167.362-1.983.619-2.007.619-.595.186-.606.21-.688.758-.058.42-1.598 12.367-1.598 12.367l12.81 2.216V8.927a.518.518 0 0 0-.152.024Zm-2.963.922c-.677.21-1.424.444-2.159.665.21-.805.607-1.598 1.097-2.123.187-.198.432-.408.735-.537.28.595.338 1.424.327 1.995Zm-1.389-2.695c.234 0 .444.047.619.164-.28.14-.537.35-.794.618-.641.688-1.143 1.773-1.341 2.812-.619.186-1.214.373-1.774.548.35-1.645 1.727-4.095 3.29-4.142ZM15.05 16.5c.07 1.085 2.94 1.33 3.103 3.885.129 2.006-1.061 3.383-2.788 3.488-2.053.128-3.197-1.085-3.197-1.085l.432-1.855s1.143.864 2.053.805c.595-.035.805-.525.794-.863-.094-1.423-2.427-1.342-2.567-3.675-.128-1.972 1.167-3.955 4.013-4.142 1.109-.07 1.669.21 1.669.21l-.654 2.439s-.723-.327-1.586-.28c-1.26.081-1.284.874-1.272 1.073Zm4.048-6.837c-.011-.513-.07-1.236-.315-1.855.77.152 1.155 1.015 1.319 1.54-.292.094-.63.199-1.004.315Zm2.859 17.792 5.32-1.319s-2.287-15.47-2.299-15.575c-.011-.104-.105-.163-.186-.175a84.445 84.445 0 0 0-1.575-.034s-.91-.887-1.26-1.225v18.328Z"/><path fill="#000" d="m41.003 15.91-.81.685a1.46 1.46 0 0 0-.572-.523 1.546 1.546 0 0 0-.796-.212c-.299 0-.556.067-.772.2a.617.617 0 0 0-.323.572c0 .232.104.41.31.535.208.125.553.24 1.034.349 1.319.29 1.978.87 1.978 1.742 0 .647-.228 1.128-.684 1.443-.448.307-1.004.46-1.668.46-.464 0-.908-.09-1.331-.273a2.678 2.678 0 0 1-1.045-.784l.833-.71c.158.241.378.44.66.598.29.15.593.224.908.224.332 0 .61-.066.834-.2.224-.14.336-.36.336-.659 0-.257-.12-.452-.36-.585-.233-.132-.627-.265-1.183-.398a5.44 5.44 0 0 1-.61-.186 2.98 2.98 0 0 1-.535-.274 1.286 1.286 0 0 1-.423-.473c-.1-.2-.15-.431-.15-.697 0-.597.216-1.045.648-1.344.44-.307.966-.46 1.58-.46.432 0 .842.087 1.232.26.398.167.701.403.909.71Zm2.73.087h.024c.141-.298.382-.547.722-.746.348-.208.73-.311 1.145-.311.721 0 1.27.224 1.642.672.374.448.56 1.024.56 1.73V21h-1.17v-3.26c0-1.203-.443-1.805-1.33-1.805-.465 0-.847.178-1.146.535-.298.357-.448.826-.448 1.406V21h-1.17v-9.408h1.17v4.405Zm11.137-.186c.605.58.908 1.323.908 2.227 0 .904-.307 1.651-.92 2.24-.606.59-1.361.884-2.266.884-.904 0-1.659-.295-2.264-.884-.606-.589-.909-1.335-.909-2.24 0-.904.299-1.647.896-2.227.606-.581 1.365-.871 2.277-.871.913 0 1.672.29 2.278.87Zm-.846 3.745c.356-.423.535-.929.535-1.518s-.179-1.09-.535-1.506c-.349-.414-.826-.622-1.432-.622-.605 0-1.086.208-1.443.622-.349.415-.523.917-.523 1.506 0 .59.174 1.095.523 1.518.357.415.838.623 1.443.623.606 0 1.083-.208 1.431-.623Zm4.546.56v3.87H57.4v-8.885h1.145v.921h.038c.199-.323.485-.585.858-.784.374-.199.797-.298 1.27-.298.862 0 1.568.298 2.115.896.556.589.834 1.323.834 2.202 0 .888-.274 1.63-.821 2.228-.548.597-1.266.896-2.153.896-.423 0-.822-.091-1.195-.274a2.289 2.289 0 0 1-.883-.772h-.038Zm3.36-.56c.349-.423.523-.929.523-1.518s-.174-1.09-.523-1.506c-.348-.414-.83-.622-1.443-.622-.581 0-1.058.212-1.431.635a2.2 2.2 0 0 0-.56 1.506 2.2 2.2 0 0 0 .56 1.505c.373.415.85.623 1.43.623.614 0 1.096-.208 1.444-.623Zm4.54-4.455V21H65.3v-5.899h1.17Zm.199-2.128a.712.712 0 0 1-.237.535.767.767 0 0 1-.547.212.767.767 0 0 1-.548-.212.73.73 0 0 1-.224-.535.73.73 0 0 1 .224-.535.745.745 0 0 1 .548-.224c.216 0 .398.075.547.224.158.141.237.32.237.535Zm4.614 2.128v.959h-1.369V21h-1.17v-4.94h-1.17V15.1h1.17V13.87c0-.738.179-1.327.536-1.767.356-.44.912-.66 1.667-.66.282 0 .527.03.734.088l-.137 1.008a2.081 2.081 0 0 0-.584-.087c-.697 0-1.046.473-1.046 1.418v1.232h1.37Zm1.488 0 1.83 4.63h.024l1.63-4.63H77.5l-2.862 7.293c-.208.539-.465.937-.772 1.194-.299.266-.722.399-1.27.399-.273 0-.53-.03-.77-.087l.111-1.033c.2.066.394.1.585.1.282 0 .502-.08.66-.237.157-.15.303-.398.435-.747l.374-.983-2.527-5.899h1.307Z"/></svg>