<svg xmlns="http://www.w3.org/2000/svg" width="90" height="35" fill="none" viewBox="0 0 90 35"><g clip-path="url(#clip0_4477_50246)"><path fill="#5EA2C9" fill-opacity=".26" d="M72.25.18H17c-9.389 0-17 7.61-17 17 0 9.389 7.611 17 17 17h55.25c9.389 0 17-7.611 17-17 0-9.39-7.611-17-17-17Z"/><mask id="mask0_4477_50246" width="23" height="19" x="10" y="8" maskUnits="userSpaceOnUse" style="mask-type:luminance"><path fill="#fff" d="M32.737 8.18H10v18h22.737v-18Z"/></mask><g mask="url(#mask0_4477_50246)"><path fill="url(#paint0_linear_4477_50246)" d="M13.451 21.76a.74.74 0 0 1 .514-.205h17.773c.324 0 .486.378.257.599l-3.512 3.39a.74.74 0 0 1-.514.205H10.196c-.324 0-.486-.378-.257-.6l3.512-3.389Z"/><path fill="url(#paint1_linear_4477_50246)" d="M13.451 9.096a.74.74 0 0 1 .514-.205h17.773c.324 0 .486.378.257.599l-3.512 3.39a.74.74 0 0 1-.514.205H10.196c-.324 0-.486-.378-.257-.6l3.512-3.389Z"/><path fill="url(#paint2_linear_4477_50246)" d="M28.483 15.387a.74.74 0 0 0-.514-.205H10.196c-.324 0-.486.378-.257.599l3.512 3.39a.74.74 0 0 0 .514.205h17.773c.324 0 .486-.379.257-.6l-3.512-3.39Z"/></g><path fill="#242424" d="M41.002 18.4h2.191c.308 0 .558.283.558.631 0 .349-.25.631-.557.631H40.55a.161.161 0 0 0-.112.047l-.799.773c-.122.118-.048.345.113.345h3.31l.002-.003c0-.002 0-.003.002-.003.042.004.084.005.127.005.877 0 1.589-.803 1.589-1.795 0-.941-.642-1.713-1.458-1.789-.002 0-.003-.001-.003-.003 0-.001 0-.003-.002-.003h-2.361c-.308 0-.558-.282-.558-.63 0-.349.25-.631.558-.631h2.64a.163.163 0 0 0 .117-.052l.74-.773c.117-.12.041-.34-.116-.34H40.958c-.877 0-1.589.804-1.589 1.795 0 .992.712 1.796 1.59 1.796h.043ZM53.765 14.81c-.096 0-.173.088-.173.196v5.625c0 .108.078.195.173.195h4.014a.165.165 0 0 0 .126-.061l.502-.605c.104-.125.026-.33-.126-.33h-3.504c-.096 0-.174-.088-.174-.196v-4.628c0-.108-.077-.196-.173-.196h-.665Z"/><path fill="#242424" fill-rule="evenodd" d="m47.338 14.81-.001.002c-.513.024-.925.488-.947 1.065h-.001c0 .001 0 0 0 0v3.834c0 .6.42 1.089.948 1.115h3.642c.528-.026.949-.515.949-1.115l-.001-.048V15.878s.001 0 0 0c-.022-.578-.434-1.042-.947-1.066v-.002h-3.642Zm.678 1.068c-.32.015-.578.308-.592.67v2.412c0 .378.262.685.592.701l2.284.001c.33-.016.593-.324.593-.702V16.55c-.014-.364-.272-.656-.592-.671l-2.285-.001ZM64.243 20.63c0 .109.077.197.172.197h.68c.096 0 .173-.088.173-.196v-4.656h-.001v-.049c0-.6-.416-1.089-.938-1.114l-.001-.002h-3.496l-.001.002a.853.853 0 0 0-.042-.002c-.543 0-.982.5-.982 1.116v4.705c0 .108.076.195.172.195h.68c.095 0 .172-.087.172-.195v-1.937c0-.109.077-.196.172-.196h3.068c.095 0 .172.087.172.196v1.937ZM60.83 17.43v-.97c0-.374.268-.678.598-.678h2.216c.33 0 .598.304.598.679v.968c0 .109-.077.196-.172.196h-3.068c-.095 0-.172-.087-.172-.195ZM78.612 20.826c-.096 0-.174-.087-.174-.195v-1.937c0-.109-.077-.196-.173-.196h-3.102c-.096 0-.173.087-.173.196v1.937c0 .108-.078.195-.174.195h-.687c-.096 0-.174-.087-.174-.195v-4.656h.001v-.049c0-.616.443-1.116.99-1.116a.86.86 0 0 1 .043.002l.001-.002h3.534l.001.002c.527.025.948.514.948 1.114a1.273 1.273 0 0 1 0 .049v4.656c0 .108-.078.195-.174.195h-.687ZM74.99 16.46v.968c0 .109.078.196.173.196h3.102c.096 0 .173-.087.173-.195v-.97c0-.374-.27-.678-.603-.678h-2.242c-.333 0-.603.304-.603.679Z" clip-rule="evenodd"/><path fill="#242424" d="M67.832 14.81c.05 0 .099.026.131.07l3.053 4.086c.104.138.303.055.303-.127v-3.833c0-.108.077-.196.172-.196h.68c.096 0 .173.088.173.196v5.625c0 .108-.077.195-.172.195h-.847c-.003 0-.006-.003-.006-.007l-.002-.005-3.103-4.058c-.105-.136-.302-.052-.302.13v3.745c0 .108-.077.195-.172.195h-.685c-.095 0-.172-.087-.172-.195v-5.625c0-.108.077-.196.172-.196h.777Z"/></g><defs><linearGradient id="paint0_linear_4477_50246" x1="24.888" x2="13.245" y1="4.268" y2="27.356" gradientUnits="userSpaceOnUse"><stop stop-color="#00FFA3"/><stop offset="1" stop-color="#DC1FFF"/></linearGradient><linearGradient id="paint1_linear_4477_50246" x1="24.888" x2="13.245" y1="4.267" y2="27.355" gradientUnits="userSpaceOnUse"><stop stop-color="#00FFA3"/><stop offset="1" stop-color="#DC1FFF"/></linearGradient><linearGradient id="paint2_linear_4477_50246" x1="24.888" x2="13.245" y1="4.267" y2="27.355" gradientUnits="userSpaceOnUse"><stop stop-color="#00FFA3"/><stop offset="1" stop-color="#DC1FFF"/></linearGradient><clipPath id="clip0_4477_50246"><path fill="#fff" d="M0 .18h90v34H0z"/></clipPath></defs></svg>