<svg xmlns="http://www.w3.org/2000/svg" width="101" height="34" fill="none" viewBox="0 0 101 34"><path fill="url(#paint0_linear_9683_36428)" fill-opacity=".2" d="M89.159 0H11.84C5.301 0 0 7.611 0 17s5.302 17 11.841 17H89.16C95.699 34 101 26.389 101 17S95.698 0 89.159 0Z"/><path fill="#000" d="M34.933 19.484a1.61 1.61 0 0 0-.11-.615 1.171 1.171 0 0 0-.369-.492 2.893 2.893 0 0 0-.724-.417 10.113 10.113 0 0 0-1.163-.403 10.69 10.69 0 0 1-1.333-.486 4.66 4.66 0 0 1-1.018-.622 2.455 2.455 0 0 1-.65-.8c-.15-.3-.225-.644-.225-1.032a2.422 2.422 0 0 1 .923-1.928c.3-.246.658-.437 1.073-.574a4.417 4.417 0 0 1 1.388-.205c.747 0 1.38.144 1.9.43.524.283.923.655 1.196 1.115.274.456.41.943.41 1.463H34.92c0-.374-.08-.704-.24-.991a1.648 1.648 0 0 0-.724-.684c-.323-.168-.734-.253-1.23-.253-.47 0-.857.07-1.163.212-.305.141-.533.333-.683.574a1.569 1.569 0 0 0-.219.828c0 .21.043.4.13.574.091.168.23.326.417.471.191.146.433.28.725.404.296.123.65.241 1.06.355.564.16 1.052.337 1.462.533.41.196.748.417 1.012.664.269.241.467.517.594.827.133.305.199.651.199 1.039 0 .405-.082.772-.246 1.1a2.394 2.394 0 0 1-.704.841 3.4 3.4 0 0 1-1.101.54 5.092 5.092 0 0 1-1.422.185c-.46 0-.914-.064-1.36-.192a4.054 4.054 0 0 1-1.21-.574c-.36-.255-.65-.57-.868-.943-.214-.379-.322-.816-.322-1.313h1.313c0 .342.066.636.198.882.132.242.312.442.54.602.233.16.495.278.786.355.297.073.604.11.923.11.46 0 .85-.064 1.17-.192.318-.128.56-.31.724-.547.168-.237.253-.517.253-.84Zm7.341.807v-5.688h1.272V22h-1.21l-.062-1.709Zm.24-1.559.526-.013c0 .492-.052.948-.157 1.367-.1.415-.265.775-.492 1.08a2.327 2.327 0 0 1-.896.718c-.369.168-.818.253-1.347.253-.36 0-.69-.053-.99-.157a1.98 1.98 0 0 1-.766-.486 2.208 2.208 0 0 1-.5-.854c-.113-.351-.17-.773-.17-1.265v-4.771h1.264v4.785c0 .332.037.608.11.827.077.214.18.385.307.512.133.124.278.21.438.26.164.05.332.076.506.076.537 0 .963-.103 1.278-.308.315-.21.54-.49.677-.841.141-.355.212-.75.212-1.183Zm2.953-7.232h1.271v9.064L46.628 22h-1.161V11.5Zm6.268 6.74v.144c0 .538-.063 1.037-.191 1.497a3.68 3.68 0 0 1-.56 1.19c-.247.337-.547.599-.903.785a2.59 2.59 0 0 1-1.224.28c-.469 0-.881-.079-1.237-.238a2.433 2.433 0 0 1-.889-.705 3.641 3.641 0 0 1-.58-1.107 6.976 6.976 0 0 1-.295-1.463v-.629a6.987 6.987 0 0 1 .294-1.47 3.64 3.64 0 0 1 .581-1.107c.242-.31.538-.545.89-.704.35-.164.758-.246 1.223-.246.465 0 .877.09 1.237.273.36.178.66.433.902.766.247.332.433.731.56 1.196.129.46.192.973.192 1.538Zm-1.271.144v-.144c0-.369-.034-.715-.103-1.039a2.69 2.69 0 0 0-.328-.861 1.634 1.634 0 0 0-.595-.588c-.246-.146-.549-.219-.909-.219-.319 0-.597.055-.834.164-.232.11-.43.258-.594.445a2.356 2.356 0 0 0-.404.628 3.61 3.61 0 0 0-.225.725v1.648c.073.319.191.626.355.922.169.292.392.531.67.718.283.187.631.28 1.046.28.342 0 .633-.068.875-.205.246-.14.444-.335.595-.58.155-.247.269-.532.342-.855.072-.324.109-.67.109-1.04Zm7.663-3.78h1.148v7.239c0 .651-.132 1.207-.396 1.668-.264.46-.634.809-1.107 1.046-.47.241-1.012.362-1.627.362-.256 0-.556-.041-.903-.123a3.64 3.64 0 0 1-1.011-.403 2.528 2.528 0 0 1-.828-.76l.663-.751c.31.373.634.633.971.78.342.145.68.218 1.012.218.4 0 .747-.075 1.039-.226.292-.15.517-.373.677-.67.164-.291.246-.651.246-1.08V16.23l.116-1.627Zm-5.093 3.78v-.144c0-.565.066-1.078.198-1.538.137-.465.33-.864.581-1.196a2.61 2.61 0 0 1 2.14-1.04c.465 0 .87.083 1.217.247.35.16.647.394.889.704.246.305.44.675.58 1.107.142.433.24.923.295 1.47v.629a6.435 6.435 0 0 1-.294 1.463 3.45 3.45 0 0 1-.581 1.107c-.242.306-.538.54-.89.704-.35.16-.76.24-1.23.24-.442 0-.843-.094-1.203-.28a2.74 2.74 0 0 1-.916-.787 3.723 3.723 0 0 1-.588-1.19 5.409 5.409 0 0 1-.198-1.496Zm1.265-.144v.144c0 .369.036.715.11 1.039.077.323.193.608.348.854.16.246.362.44.608.581.246.137.54.206.882.206.42 0 .766-.09 1.04-.267a1.93 1.93 0 0 0 .648-.704c.165-.292.292-.609.383-.95v-1.648a3.36 3.36 0 0 0-.232-.725 2.231 2.231 0 0 0-.396-.628 1.715 1.715 0 0 0-.595-.445 1.973 1.973 0 0 0-.834-.164 1.75 1.75 0 0 0-.896.219 1.744 1.744 0 0 0-.608.588 2.822 2.822 0 0 0-.349.861 4.72 4.72 0 0 0-.11 1.04Zm8.162-2.474V22h-1.265v-7.396h1.23l.035 1.162Zm2.31-1.204-.006 1.176a1.818 1.818 0 0 0-.301-.04 3.202 3.202 0 0 0-.315-.014c-.291 0-.549.045-.772.136a1.6 1.6 0 0 0-.567.383c-.155.164-.278.36-.37.588-.086.223-.143.47-.17.738l-.356.205c0-.446.043-.866.13-1.257.091-.392.23-.739.417-1.04.187-.305.424-.542.71-.71.293-.174.639-.26 1.04-.26.091 0 .196.011.314.034.119.018.2.039.246.062Zm5.257 6.173v-3.807c0-.292-.059-.545-.177-.76a1.163 1.163 0 0 0-.52-.505c-.232-.118-.52-.178-.861-.178-.32 0-.6.055-.841.164-.237.11-.424.253-.56.431a.943.943 0 0 0-.199.574h-1.264c0-.264.068-.526.205-.786a2.3 2.3 0 0 1 .587-.704c.26-.214.57-.383.93-.506.365-.127.77-.191 1.217-.191.538 0 1.012.09 1.422.273.415.182.738.458.97.827.237.365.356.823.356 1.374v3.446c0 .246.02.508.061.786.046.278.112.517.199.718V22h-1.32a2.364 2.364 0 0 1-.15-.581 4.679 4.679 0 0 1-.055-.684Zm.22-3.22.013.89h-1.279c-.36 0-.68.029-.963.088-.283.055-.52.14-.711.253a1.202 1.202 0 0 0-.438.43c-.1.17-.15.368-.15.596 0 .232.052.444.157.635.105.192.262.344.472.458.214.11.476.164.786.164.387 0 .729-.082 1.025-.246.296-.164.531-.364.704-.601.178-.237.274-.467.287-.69l.54.608a1.837 1.837 0 0 1-.26.635 3.064 3.064 0 0 1-1.401 1.196c-.319.137-.679.206-1.08.206-.501 0-.94-.098-1.32-.294a2.255 2.255 0 0 1-.874-.786 2.08 2.08 0 0 1-.308-1.115c0-.396.078-.745.233-1.046.155-.305.378-.558.67-.758.291-.205.642-.36 1.052-.465a5.55 5.55 0 0 1 1.374-.157h1.47Zm4.299-1.49v8.819h-1.272v-10.24h1.162l.11 1.421Zm4.983 2.215v.144c0 .538-.064 1.037-.191 1.497a3.68 3.68 0 0 1-.56 1.19c-.242.337-.54.599-.896.785a2.59 2.59 0 0 1-1.224.28c-.47 0-.884-.077-1.244-.232a2.454 2.454 0 0 1-.916-.677 3.458 3.458 0 0 1-.602-1.066 6.169 6.169 0 0 1-.3-1.401v-.766a6.433 6.433 0 0 1 .307-1.47c.15-.433.349-.802.595-1.107.25-.31.554-.545.91-.704a2.907 2.907 0 0 1 1.23-.246c.465 0 .877.09 1.237.273.36.178.663.433.91.766.245.332.43.731.553 1.196.127.46.191.973.191 1.538Zm-1.271.144v-.144c0-.369-.039-.715-.116-1.039a2.627 2.627 0 0 0-.363-.861 1.725 1.725 0 0 0-.615-.588 1.75 1.75 0 0 0-.896-.219c-.319 0-.597.055-.834.164-.232.11-.43.258-.594.445a2.359 2.359 0 0 0-.403.628 3.61 3.61 0 0 0-.226.725v1.77c.091.32.219.62.383.903.164.278.383.504.656.677.273.168.617.253 1.032.253.342 0 .636-.071.882-.212.25-.146.456-.344.615-.595.164-.25.285-.538.363-.861a4.54 4.54 0 0 0 .116-1.046Zm4.15-6.884V22h-1.265V11.5h1.264Zm-.302 6.521-.526-.02c.005-.506.08-.973.226-1.401a3.5 3.5 0 0 1 .615-1.128 2.742 2.742 0 0 1 2.167-1.005c.365 0 .693.05.984.15.292.096.54.25.745.465.21.214.37.492.479.834.11.337.164.75.164 1.237V22h-1.272v-4.86c0-.388-.056-.698-.17-.93a1.05 1.05 0 0 0-.5-.513c-.218-.11-.487-.164-.806-.164-.315 0-.602.066-.861.198a2.06 2.06 0 0 0-.663.547 2.75 2.75 0 0 0-.431.8c-.1.296-.15.61-.15.944Zm11.054 2.017c0-.182-.04-.35-.123-.506-.077-.16-.24-.303-.485-.43-.242-.133-.606-.247-1.094-.342a8.664 8.664 0 0 1-1.114-.308 3.377 3.377 0 0 1-.841-.43 1.807 1.807 0 0 1-.526-.595 1.659 1.659 0 0 1-.185-.8c0-.292.064-.567.191-.827.133-.26.317-.49.554-.69.242-.201.531-.358.868-.472.337-.114.713-.171 1.128-.171.593 0 1.098.105 1.518.314.419.21.74.49.964.841.223.346.335.732.335 1.155h-1.265c0-.205-.062-.403-.185-.594a1.363 1.363 0 0 0-.526-.486c-.228-.127-.508-.191-.84-.191-.352 0-.637.054-.855.164-.215.105-.372.24-.472.403a1.016 1.016 0 0 0-.075.889c.05.105.136.203.26.294.123.086.296.168.52.246.222.077.507.155.854.232.606.137 1.105.301 1.497.493.392.191.683.426.875.704.191.278.287.615.287 1.011a1.97 1.97 0 0 1-.786 1.586c-.251.192-.552.342-.903.451a4.031 4.031 0 0 1-1.169.158c-.651 0-1.203-.117-1.654-.349-.451-.232-.793-.533-1.025-.902a2.158 2.158 0 0 1-.349-1.17h1.271c.019.347.119.623.301.828.183.2.406.344.67.43.264.083.527.124.786.124.347 0 .636-.046.868-.137a1.21 1.21 0 0 0 .54-.376.871.871 0 0 0 .185-.547Z"/><circle cx="13.904" cy="13.904" r="6.587" stroke="url(#paint1_linear_9683_36428)" stroke-width="2.635"/><path stroke="#2A53D5" stroke-linecap="round" stroke-width="2.503" d="M20.36 22.862 15.09 28"/><circle cx="22.994" cy="7.713" r="1.713" fill="#1495DE"/><defs><linearGradient id="paint0_linear_9683_36428" x1="51" x2="50.5" y1="4" y2="34" gradientUnits="userSpaceOnUse"><stop stop-color="#2A53D5"/><stop offset=".444" stop-color="#6F85C9"/><stop offset="1" stop-color="#08BCE3"/></linearGradient><linearGradient id="paint1_linear_9683_36428" x1="13.904" x2="13.904" y1="6" y2="21.808" gradientUnits="userSpaceOnUse"><stop stop-color="#03CBE5"/><stop offset="1" stop-color="#1F74D9"/></linearGradient></defs></svg>