<svg xmlns="http://www.w3.org/2000/svg" width="95" height="34" fill="none" viewBox="0 0 95 34"><path fill="#FFBBB0" d="M76.905 0h-58.81C8.102 0 0 7.611 0 17s8.102 17 18.095 17h58.81C86.898 34 95 26.389 95 17S86.898 0 76.905 0Z"/><path fill="#131313" d="M49.978 19.203c0-.312-.052-.591-.156-.836a1.698 1.698 0 0 0-.516-.656c-.234-.198-.552-.38-.953-.547-.396-.172-.89-.341-1.484-.508a13.522 13.522 0 0 1-1.54-.531 5.378 5.378 0 0 1-1.179-.664 2.626 2.626 0 0 1-.742-.875c-.172-.339-.258-.732-.258-1.18 0-.437.094-.836.281-1.195.188-.36.45-.67.79-.93.343-.26.747-.46 1.21-.601.469-.14.982-.211 1.54-.211.796 0 1.484.15 2.062.453a3.36 3.36 0 0 1 1.351 1.226c.323.51.485 1.084.485 1.72h-.961a2.49 2.49 0 0 0-.352-1.321 2.337 2.337 0 0 0-1-.914c-.432-.224-.96-.336-1.586-.336-.625 0-1.15.096-1.578.289-.422.187-.742.44-.96.758-.214.312-.321.661-.321 1.047 0 .27.052.52.156.75.104.224.274.434.508.632.24.193.555.375.945.547.39.167.873.326 1.446.477.604.166 1.14.351 1.609.555.469.203.865.437 1.188.703.322.26.567.565.734.914.166.349.25.755.25 1.218 0 .464-.1.88-.297 1.25a2.684 2.684 0 0 1-.82.93c-.35.255-.763.45-1.242.586a5.644 5.644 0 0 1-1.555.203 5.961 5.961 0 0 1-1.508-.195c-.5-.13-.958-.33-1.375-.602a3.178 3.178 0 0 1-.992-1.062c-.245-.432-.367-.948-.367-1.547h.953c0 .48.096.883.289 1.21.192.33.448.595.765.798.323.203.677.351 1.063.445.39.089.781.133 1.172.133.599 0 1.117-.089 1.554-.266.443-.177.784-.424 1.024-.742a1.81 1.81 0 0 0 .367-1.125Zm5.972.82 2.04-6.476h.655l-.39 1.742L56.122 22h-.656l.484-1.977Zm-2.117-6.476 1.789 6.515.383 1.938h-.68l-2.453-8.453h.96Zm7.351 6.492 1.743-6.492h.96L61.434 22h-.671l.421-1.96Zm-2.406-6.492 2.008 6.422.508 2.031h-.656l-2.18-6.719-.367-1.734h.687Zm8.745 0V22h-.93v-8.453h.93Zm-1.093-2.445c0-.178.054-.326.164-.446a.604.604 0 0 1 .469-.187c.197 0 .354.062.468.187.12.12.18.268.18.446a.618.618 0 0 1-.648.625.618.618 0 0 1-.47-.18.654.654 0 0 1-.163-.445ZM72.48 22h-.93v-9.5c0-.578.099-1.065.297-1.46.203-.397.49-.696.86-.9.374-.203.82-.304 1.335-.304.162 0 .328.01.5.031.172.016.339.05.5.102l-.07.789a2.063 2.063 0 0 0-.399-.07 3.934 3.934 0 0 0-.46-.024c-.339 0-.63.073-.876.219a1.38 1.38 0 0 0-.562.617c-.13.27-.195.604-.195 1V22Zm2.015-8.453v.765h-4.343v-.765h4.343Zm5.675 0v.765h-4.234v-.765h4.234Zm-2.68-2.172h.93v8.57c0 .39.052.685.157.883.104.198.24.33.406.399.166.067.346.101.539.101.14 0 .276-.008.406-.023.13-.021.248-.042.352-.063l.039.79a2.404 2.404 0 0 1-.446.085 3.867 3.867 0 0 1-.546.04 2.21 2.21 0 0 1-.954-.196c-.276-.135-.492-.365-.648-.688-.156-.328-.234-.773-.234-1.335v-8.563Z"/><path fill="url(#paint0_linear_7092_29316)" d="M27.985 24.533c-2.682 1.543-6.369 1.701-10.079.118-3.003-1.273-5.496-3.5-7.093-6.045.766.636 1.661 1.145 2.62 1.59 3.83 1.789 7.661 1.666 10.357.005-3.835-2.927-7.098-6.75-9.526-9.867-.512-.51-.895-1.146-1.279-1.718 2.94 2.672 7.605 6.045 9.267 7-3.515-3.691-6.646-8.273-6.519-8.146 5.56 5.6 10.737 8.782 10.737 8.782.171.096.303.176.41.248.112-.284.21-.579.293-.884.894-3.246-.128-6.937-2.365-9.991 5.176 3.118 8.244 8.972 6.966 13.872-.034.132-.07.263-.109.39 2.556 3.183 1.898 6.61 1.579 5.974-1.387-2.702-3.954-1.876-5.259-1.328Z"/><defs><linearGradient id="paint0_linear_7092_29316" x1="22.196" x2="22.196" y1="5.625" y2="25.939" gradientUnits="userSpaceOnUse"><stop stop-color="#F88A36"/><stop offset="1" stop-color="#FD2020"/></linearGradient></defs></svg>