<svg xmlns="http://www.w3.org/2000/svg" width="125" height="34" fill="none" viewBox="0 0 125 34"><path fill="#DEEEFF" d="M110.345 0h-95.69C6.561 0 0 7.611 0 17s6.561 17 14.655 17h95.69C118.439 34 125 26.389 125 17s-6.561-17-14.655-17Z"/><path fill="#131313" d="M46.23 19.203c0-.312-.052-.591-.157-.836a1.697 1.697 0 0 0-.515-.656c-.235-.198-.552-.38-.953-.547-.396-.172-.89-.341-1.485-.508a13.53 13.53 0 0 1-1.539-.531 5.377 5.377 0 0 1-1.18-.664 2.623 2.623 0 0 1-.742-.875c-.172-.339-.257-.732-.257-1.18 0-.437.093-.836.28-1.195a2.8 2.8 0 0 1 .79-.93c.344-.26.747-.46 1.21-.601.47-.14.983-.211 1.54-.211.797 0 1.484.15 2.062.453a3.36 3.36 0 0 1 1.352 1.226c.323.51.484 1.084.484 1.72h-.96a2.49 2.49 0 0 0-.352-1.321 2.337 2.337 0 0 0-1-.914c-.432-.224-.961-.336-1.586-.336-.625 0-1.151.096-1.578.289-.422.187-.742.44-.961.758-.214.312-.32.661-.32 1.047 0 .27.052.52.156.75.104.224.273.434.508.632.24.193.554.375.945.547.39.167.872.326 1.445.477.604.166 1.14.351 1.61.555a4.97 4.97 0 0 1 1.187.703c.323.26.568.565.734.914.167.349.25.755.25 1.218 0 .464-.099.88-.296 1.25a2.684 2.684 0 0 1-.82.93c-.35.255-.764.45-1.243.586a5.644 5.644 0 0 1-1.555.203 5.961 5.961 0 0 1-1.507-.195c-.5-.13-.959-.33-1.375-.602a3.178 3.178 0 0 1-.993-1.062c-.244-.432-.367-.948-.367-1.547h.953c0 .48.097.883.29 1.21.192.33.447.595.765.798a3.56 3.56 0 0 0 1.063.445c.39.089.78.133 1.171.133.6 0 1.118-.089 1.555-.266.443-.177.784-.424 1.023-.742a1.81 1.81 0 0 0 .368-1.125Zm5.972.82 2.039-6.476h.656l-.39 1.742L52.372 22h-.656l.485-1.977Zm-2.118-6.476 1.79 6.515.382 1.938h-.68l-2.453-8.453h.961Zm7.352 6.492 1.742-6.492h.961L57.686 22h-.672l.422-1.96Zm-2.406-6.492 2.008 6.422.507 2.031h-.656l-2.18-6.719-.367-1.734h.688Zm8.745 0V22h-.93v-8.453h.93Zm-1.094-2.445c0-.178.055-.326.164-.446a.604.604 0 0 1 .47-.187c.197 0 .353.062.468.187.12.12.18.268.18.446a.618.618 0 0 1-.648.625.618.618 0 0 1-.47-.18.654.654 0 0 1-.164-.445Zm5.37 4.07V25.25h-.937V13.547h.875l.063 1.625Zm5.876 2.523v.164c0 .63-.073 1.209-.22 1.735a4.296 4.296 0 0 1-.632 1.367c-.27.38-.607.674-1.008.883a2.923 2.923 0 0 1-1.367.312 3.66 3.66 0 0 1-1.352-.234 2.972 2.972 0 0 1-1.023-.664 3.507 3.507 0 0 1-.68-1.016 5.149 5.149 0 0 1-.351-1.281v-2.164c.078-.51.206-.974.383-1.39.177-.417.403-.777.68-1.079a2.86 2.86 0 0 1 1-.695 3.393 3.393 0 0 1 1.32-.242c.515 0 .973.101 1.375.304.406.198.747.487 1.023.867.281.376.492.829.633 1.36a6.64 6.64 0 0 1 .219 1.773Zm-.938.164v-.164c0-.494-.052-.953-.156-1.375a3.341 3.341 0 0 0-.461-1.101 2.173 2.173 0 0 0-.781-.742c-.313-.178-.685-.266-1.118-.266-.448 0-.83.075-1.148.226a2.27 2.27 0 0 0-.781.586c-.209.24-.373.503-.492.79-.12.286-.209.567-.266.843v2.492c.099.396.258.764.477 1.102.218.333.51.602.874.805.37.198.82.297 1.352.297.427 0 .797-.089 1.11-.266.312-.177.57-.424.773-.742.208-.318.362-.688.46-1.11.105-.422.157-.88.157-1.375Zm7.081 4.297c-.552 0-1.06-.101-1.523-.304a3.641 3.641 0 0 1-1.203-.86 3.96 3.96 0 0 1-.79-1.312 4.938 4.938 0 0 1-.273-1.672v-.336c0-.651.097-1.24.29-1.766a4.09 4.09 0 0 1 .796-1.351 3.529 3.529 0 0 1 1.156-.86 3.228 3.228 0 0 1 1.375-.304c.537 0 1.014.096 1.43.289.417.187.766.455 1.047.804.287.344.503.753.648 1.227.146.469.22.987.22 1.555v.57h-6.4v-.797h5.47v-.11a3.43 3.43 0 0 0-.29-1.327 2.4 2.4 0 0 0-.796-1.016c-.355-.26-.797-.39-1.329-.39-.395 0-.76.083-1.093.25a2.488 2.488 0 0 0-.852.718 3.466 3.466 0 0 0-.547 1.102 4.94 4.94 0 0 0-.187 1.406v.336c0 .469.068.906.203 1.312.14.401.338.756.594 1.063a2.8 2.8 0 0 0 .921.719 2.65 2.65 0 0 0 1.172.257c.5 0 .943-.09 1.329-.273.385-.188.731-.482 1.039-.883l.585.453c-.182.271-.411.521-.687.75-.27.23-.596.412-.977.547-.38.136-.822.203-1.328.203Zm6.746-7.21V22h-.93v-8.453h.906l.024 1.398Zm2.992-1.462-.024.86a6.864 6.864 0 0 0-.304-.04 3.074 3.074 0 0 0-.32-.015c-.407 0-.764.076-1.07.227a2.15 2.15 0 0 0-.767.617c-.208.26-.367.568-.476.922-.11.349-.172.724-.188 1.125l-.343.133c0-.553.057-1.066.171-1.54.115-.473.29-.888.524-1.242.24-.36.539-.638.898-.836.365-.203.792-.304 1.282-.304.12 0 .237.01.351.03a.99.99 0 0 1 .266.063Zm12.217 5.125v-7.984h.961v7.984c0 .766-.151 1.412-.453 1.938a3.01 3.01 0 0 1-1.219 1.203c-.516.27-1.104.406-1.766.406-.677 0-1.276-.12-1.796-.36a2.675 2.675 0 0 1-1.204-1.085c-.286-.49-.43-1.107-.43-1.852h.962c0 .547.096 1.006.289 1.375.198.365.481.641.851.828.37.183.813.274 1.328.274.464 0 .881-.102 1.25-.305.375-.208.672-.513.891-.914.224-.406.336-.909.336-1.508Zm11.027.594a2.12 2.12 0 0 0-.157-.836 1.7 1.7 0 0 0-.515-.656c-.235-.198-.552-.38-.953-.547a11.82 11.82 0 0 0-1.485-.508 13.481 13.481 0 0 1-1.539-.531 5.408 5.408 0 0 1-1.18-.664 2.637 2.637 0 0 1-.742-.875c-.172-.339-.258-.732-.258-1.18 0-.437.094-.836.282-1.195.187-.36.45-.67.789-.93a3.81 3.81 0 0 1 1.211-.601 5.33 5.33 0 0 1 1.539-.211c.797 0 1.484.15 2.062.453.584.302 1.034.71 1.352 1.226.323.51.484 1.084.484 1.72h-.961c0-.496-.117-.936-.351-1.321a2.339 2.339 0 0 0-1-.914c-.433-.224-.961-.336-1.586-.336-.625 0-1.151.096-1.578.289-.422.187-.743.44-.961.758a1.81 1.81 0 0 0-.321 1.047c0 .27.052.52.157.75.104.224.273.434.507.632.24.193.555.375.946.547.39.167.872.326 1.445.477.604.166 1.141.351 1.609.555.469.203.865.437 1.188.703.323.26.568.565.734.914.167.349.25.755.25 1.218 0 .464-.099.88-.297 1.25a2.678 2.678 0 0 1-.82.93c-.349.255-.763.45-1.242.586a5.644 5.644 0 0 1-1.555.203 5.964 5.964 0 0 1-1.508-.195c-.5-.13-.958-.33-1.375-.602a3.182 3.182 0 0 1-.992-1.062c-.245-.432-.367-.948-.367-1.547h.953c0 .48.097.883.289 1.21.193.33.448.595.766.798.323.203.677.351 1.062.445a5.29 5.29 0 0 0 1.172.133c.599 0 1.117-.089 1.555-.266.443-.177.784-.424 1.023-.742a1.81 1.81 0 0 0 .368-1.125Z"/><g clip-path="url(#clip0_7156_45271)"><path fill="#0080FF" d="M23.664 9.444a8.93 8.93 0 0 1-7.748 15.994l-.102-.037.166-.054.213-.07.106-.035.104-.035.206-.071.202-.071.199-.072.194-.073.096-.036.19-.073c.199-.078.392-.157.579-.237l.138-.06.17-.076.222-.101.108-.052.159-.077.078-.038.077-.04.15-.077c1.271-.667 2.135-1.39 2.593-2.185.971-1.682.123-3.479-2.312-5.311l-.198-.149-.12-.092-.117-.092-.113-.09-.11-.09-.054-.046-.052-.044-.104-.09-.074-.065-.074-.066-.094-.087-.09-.087-.088-.085-.043-.043-.041-.042-.081-.085c-.963-1.023-1.178-1.899-.74-2.655.222-.386.607-.764 1.155-1.133l.067-.044.105-.068.145-.09.075-.044.116-.067.12-.066.091-.05.094-.05.128-.065c.098-.05.2-.099.303-.147l.105-.05.143-.064.073-.032.148-.065.076-.032.154-.064.078-.032.16-.063.08-.032.165-.063.169-.062.085-.032.174-.062.178-.062.181-.061.092-.031.187-.061.19-.061.194-.06.197-.06.201-.06.257-.075.262-.073.322-.088.135-.036Zm-4.687-1.327c1.086 0 2.127.194 3.09.549l.102.039-.065.02-.318.097-.104.033-.205.067-.202.066-.198.068-.195.068-.19.068-.094.034-.23.087-.225.087-.176.07-.086.036-.17.072c-1.737.74-2.875 1.57-3.42 2.512-.95 1.646-.088 3.42 2.347 5.252l.198.148.12.093.117.091.057.046.112.09.081.068.08.067.102.09.05.044.098.088.155.145.074.072.106.108.102.106c.958 1.03 1.163 1.924.707 2.712-.294.51-.857 1.013-1.686 1.5l-.076.045-.124.07-.127.07c-.071.038-.144.077-.22.115l-.113.058-.14.069-.144.068-.147.069-.075.034-.153.068-.156.068-.16.067-.081.034-.166.067-.084.034-.085.033-.173.067-.177.066-.18.067-.184.065-.187.066-.095.033-.193.065-.098.032-.199.065-.202.064-.258.08-.263.08-.215.063-.3.087a8.93 8.93 0 0 1 4.641-16.561Z"/></g><defs><clipPath id="clip0_7156_45271"><path fill="#fff" d="M10 8h18v18H10z"/></clipPath></defs></svg>