<svg xmlns="http://www.w3.org/2000/svg" width="90" height="35" fill="none" viewBox="0 0 90 35"><g clip-path="url(#clip0_4477_50147)"><path fill="#FF060A" fill-opacity=".22" d="M72.5.18H17.25c-9.389 0-17 7.61-17 17 0 9.389 7.611 17 17 17H72.5c9.389 0 17-7.611 17-17 0-9.39-7.611-17-17-17Z"/><mask id="mask0_4477_50147" width="17" height="17" x="19" y="9" maskUnits="userSpaceOnUse" style="mask-type:luminance"><path fill="#fff" d="M35.25 9.18h-16v16h16v-16Z"/></mask><g mask="url(#mask0_4477_50147)"><path fill="#FF060A" d="M34.639 14c-.75-.693-1.788-1.75-2.633-2.5l-.05-.035a.955.955 0 0 0-.277-.155c-2.038-.38-11.52-2.153-11.705-2.13a.35.35 0 0 0-.145.055l-.048.037a.558.558 0 0 0-.13.21l-.012.033v.205c1.067 2.972 5.282 12.71 6.112 14.995.05.155.145.45.323.465h.04c.095 0 .5-.535.5-.535s7.24-8.78 7.972-9.715c.095-.115.179-.24.25-.37a.603.603 0 0 0-.197-.56Zm-6.168 1.022 3.09-2.562 1.813 1.67-4.903.892Zm-1.2-.167-5.32-4.36 8.608 1.587-3.288 2.773Zm.48 1.142 5.445-.877-6.225 7.5.78-6.623ZM21.23 10.93l5.597 4.75-.81 6.945L21.23 10.93Z"/></g><path fill="#1E1E1E" d="M44.25 23.18V13.005h-3.935V11.98h9.056v1.024h-3.937V23.18h-1.183Zm7.012 0v-11.2h4.192c.95 0 1.765.155 2.448.464.683.3 1.205.736 1.568 1.313.373.565.56 1.253.56 2.063 0 .79-.187 1.473-.56 2.049-.363.565-.885 1.002-1.568 1.311-.683.3-1.499.448-2.448.448h-3.536l.528-.544v4.096h-1.184Zm7.648 0-2.88-4.064h1.28l2.896 4.064H58.91Zm-6.464-4-.528-.56h3.504c1.12 0 1.968-.245 2.544-.736.587-.49.88-1.178.88-2.064 0-.896-.293-1.589-.88-2.08-.576-.49-1.424-.736-2.544-.736h-3.504l.528-.56v6.736Zm8.514 4 4.592-6.207v.912l-4.32-5.905h1.36l3.632 4.928-.528.016 3.632-4.944h1.28l-4.272 5.825v-.832l4.576 6.207h-1.376l-3.872-5.264h.496l-3.84 5.264h-1.36Z"/></g><defs><clipPath id="clip0_4477_50147"><path fill="#fff" d="M0 .18h90v34H0z"/></clipPath></defs></svg>