<svg xmlns="http://www.w3.org/2000/svg" width="120" height="34" fill="none" viewBox="0 0 120 34"><path fill="#3178C6" fill-opacity=".2" d="M105.931 0H14.069C6.299 0 0 7.611 0 17s6.299 17 14.069 17h91.862C113.701 34 120 26.389 120 17s-6.299-17-14.069-17Z"/><g clip-path="url(#clip0_7156_45255)"><path fill="#3178C6" d="M26.742 8H12.258c-.971 0-1.758.787-1.758 1.758v14.484c0 .971.787 1.758 1.758 1.758h14.484c.971 0 1.758-.787 1.758-1.758V9.758C28.5 8.787 27.713 8 26.742 8Z"/><path fill="#3178C6" d="M26.742 8H12.258c-.971 0-1.758.787-1.758 1.758v14.484c0 .971.787 1.758 1.758 1.758h14.484c.971 0 1.758-.787 1.758-1.758V9.758C28.5 8.787 27.713 8 26.742 8Z"/><path fill="#fff" fill-rule="evenodd" d="M21.642 22.323v1.76c.287.147.625.257 1.015.33.391.074.803.11 1.236.11.422 0 .822-.04 1.202-.12.38-.081.713-.214.999-.4.286-.184.512-.427.68-.725.166-.3.25-.668.25-1.108 0-.32-.048-.6-.144-.84a1.96 1.96 0 0 0-.412-.64 3.02 3.02 0 0 0-.647-.503 6.927 6.927 0 0 0-.85-.42 10.757 10.757 0 0 1-.622-.279 3.17 3.17 0 0 1-.467-.275 1.199 1.199 0 0 1-.297-.297.625.625 0 0 1-.105-.354c0-.121.031-.23.094-.328a.808.808 0 0 1 .264-.25c.113-.07.253-.124.418-.162.165-.039.348-.058.55-.058a3.682 3.682 0 0 1 1.439.308c.156.07.3.15.432.242V16.67a4.295 4.295 0 0 0-.878-.229 7.15 7.15 0 0 0-1.092-.074c-.418 0-.814.045-1.188.135-.374.09-.704.23-.988.42a2.1 2.1 0 0 0-.674.73c-.165.294-.248.647-.248 1.058 0 .524.152.972.454 1.342.303.37.762.684 1.379.94.242.1.467.197.676.292.21.095.39.194.542.297.152.103.273.215.36.335a.684.684 0 0 1 .05.73.731.731 0 0 1-.25.252 1.373 1.373 0 0 1-.418.168c-.167.04-.363.06-.586.06a3.381 3.381 0 0 1-2.173-.803Zm-2.958-4.336h2.257v-1.444h-6.293v1.444h2.247v6.431h1.789v-6.43Z" clip-rule="evenodd"/></g><path fill="#131313" d="M43.952 11.047V21h-.834v-9.953h.834Zm3.41 0v.724h-7.649v-.724h7.65Zm3.832 9.215 2.303-6.659h.882l-3.13 8.586a6.643 6.643 0 0 1-.247.561 2.599 2.599 0 0 1-.383.588c-.155.191-.35.346-.588.465-.232.123-.517.184-.854.184-.087 0-.198-.011-.335-.034a2.002 2.002 0 0 1-.287-.055l-.007-.69a2.504 2.504 0 0 0 .417.048c.296 0 .545-.05.745-.15.205-.1.376-.251.513-.452.137-.196.257-.442.362-.738l.609-1.654Zm-2.154-6.659 2.359 6.351.218.855-.594.335-2.871-7.54h.888Zm8.124 1.422v8.819h-.82v-10.24h.765l.055 1.421Zm5.14 2.208v.144a5.67 5.67 0 0 1-.19 1.518 3.76 3.76 0 0 1-.554 1.196 2.47 2.47 0 0 1-.882.772c-.351.183-.75.274-1.197.274a3.2 3.2 0 0 1-1.182-.205 2.6 2.6 0 0 1-.896-.581 3.068 3.068 0 0 1-.594-.89 4.503 4.503 0 0 1-.308-1.12v-1.894c.068-.446.18-.852.335-1.216.155-.365.353-.68.595-.944.246-.264.537-.467.875-.608a2.966 2.966 0 0 1 1.155-.212c.451 0 .852.089 1.203.266.355.174.654.426.896.76.246.327.43.724.553 1.189.128.46.192.977.192 1.551Zm-.82.144v-.144c0-.433-.045-.834-.136-1.203a2.925 2.925 0 0 0-.404-.964 1.901 1.901 0 0 0-.683-.649c-.274-.155-.6-.232-.978-.232-.392 0-.727.066-1.005.198a1.986 1.986 0 0 0-.683.513 2.54 2.54 0 0 0-.43.69c-.106.25-.183.497-.233.738v2.18c.086.347.225.668.417.965.191.291.446.526.765.704.324.173.718.26 1.183.26.374 0 .697-.078.97-.233a1.92 1.92 0 0 0 .677-.65c.183-.277.317-.6.404-.97.09-.37.136-.77.136-1.203Zm6.196 3.76c-.483 0-.927-.09-1.333-.267a3.186 3.186 0 0 1-1.052-.752 3.466 3.466 0 0 1-.69-1.148 4.32 4.32 0 0 1-.24-1.463v-.294c0-.57.084-1.085.253-1.545.169-.46.401-.854.697-1.183a3.088 3.088 0 0 1 1.012-.752 2.825 2.825 0 0 1 1.203-.266c.47 0 .886.084 1.251.253.365.164.67.398.916.704.25.3.44.658.567 1.073.128.41.192.864.192 1.36v.5h-5.599v-.698h4.785v-.095a3.002 3.002 0 0 0-.252-1.163 2.1 2.1 0 0 0-.698-.888c-.31-.228-.697-.342-1.162-.342a2.11 2.11 0 0 0-.957.219 2.177 2.177 0 0 0-.745.629 3.03 3.03 0 0 0-.479.963c-.109.37-.164.78-.164 1.23v.295c0 .41.06.793.178 1.148.123.351.296.661.52.93.228.269.496.479.806.629.31.15.652.226 1.026.226.437 0 .825-.08 1.162-.24.337-.164.64-.421.909-.772l.513.396a3.12 3.12 0 0 1-.602.656c-.237.201-.522.36-.854.479a3.46 3.46 0 0 1-1.163.178Zm9.519-2.024c0-.2-.05-.398-.15-.594-.1-.196-.295-.376-.582-.54-.282-.165-.7-.303-1.25-.418a9.6 9.6 0 0 1-1.101-.307 3.176 3.176 0 0 1-.807-.41 1.617 1.617 0 0 1-.499-.575 1.723 1.723 0 0 1-.17-.792c0-.274.058-.531.177-.773.123-.246.296-.46.52-.643a2.52 2.52 0 0 1 .82-.437 3.517 3.517 0 0 1 1.087-.157c.57 0 1.057.098 1.463.294.41.191.722.453.936.786.219.333.328.708.328 1.128h-.813c0-.255-.075-.497-.226-.725a1.615 1.615 0 0 0-.65-.56c-.282-.146-.628-.22-1.038-.22-.424 0-.768.065-1.032.192-.265.128-.459.29-.582.486a1.16 1.16 0 0 0-.177.608c0 .164.025.315.075.451.055.132.15.255.287.37.141.113.342.22.602.32.26.1.597.199 1.011.295.597.132 1.085.294 1.463.485.383.187.666.42.848.697.182.274.273.606.273.998 0 .306-.064.586-.191.841-.128.25-.312.467-.554.65a2.623 2.623 0 0 1-.861.423c-.333.1-.707.15-1.121.15-.625 0-1.153-.102-1.586-.307-.429-.21-.754-.483-.978-.82a1.982 1.982 0 0 1-.328-1.087h.814c.027.383.148.686.362.91.214.218.476.373.786.464.314.091.624.137.93.137.419 0 .77-.062 1.053-.185.282-.123.496-.285.642-.485.146-.2.219-.417.219-.65Zm6.093 1.32c.347 0 .67-.064.971-.192.305-.132.556-.326.752-.58.2-.26.314-.577.342-.951h.78c-.024.47-.167.889-.431 1.258-.26.364-.602.651-1.026.861-.42.205-.882.308-1.388.308-.515 0-.97-.094-1.367-.28a2.75 2.75 0 0 1-.984-.78 3.586 3.586 0 0 1-.602-1.176 5.157 5.157 0 0 1-.198-1.456v-.287c0-.52.066-1.002.198-1.449.137-.451.338-.843.602-1.176.264-.337.592-.6.984-.786.392-.187.846-.28 1.36-.28a3.08 3.08 0 0 1 1.422.321c.424.214.762.517 1.012.91.255.391.394.856.417 1.394h-.78a2.063 2.063 0 0 0-.314-1.026 1.884 1.884 0 0 0-.738-.663 2.219 2.219 0 0 0-1.019-.232c-.419 0-.776.082-1.073.246-.296.16-.538.38-.724.663a3.015 3.015 0 0 0-.404.957c-.086.356-.13.73-.13 1.121v.287c0 .397.042.775.124 1.135.086.356.22.672.403.95.187.278.428.5.725.663.3.16.663.24 1.086.24Zm6.005-5.606V21h-.813v-7.396h.793l.02 1.223Zm2.618-1.278-.02.752a6.035 6.035 0 0 0-.267-.034 2.688 2.688 0 0 0-.28-.014c-.356 0-.668.066-.937.198a1.88 1.88 0 0 0-.67.54 2.419 2.419 0 0 0-.417.807c-.095.305-.15.633-.164.984l-.3.116c0-.483.05-.931.15-1.346.1-.415.253-.777.458-1.087a2.23 2.23 0 0 1 .786-.732c.32-.177.693-.266 1.121-.266.105 0 .208.009.308.027a.87.87 0 0 1 .232.055Zm2.895.055V21h-.814v-7.396h.814Zm-.957-2.14c0-.155.047-.285.143-.39.1-.11.237-.164.41-.164s.31.055.41.164a.53.53 0 0 1 .158.39.54.54 0 0 1-.567.547.54.54 0 0 1-.41-.157.572.572 0 0 1-.144-.39Zm4.699 3.561v8.819h-.82v-10.24h.765l.055 1.421Zm5.14 2.208v.144c0 .551-.064 1.057-.191 1.518-.128.46-.312.859-.554 1.196a2.47 2.47 0 0 1-.882.772 2.555 2.555 0 0 1-1.196.274c-.442 0-.836-.069-1.183-.205a2.6 2.6 0 0 1-.895-.581 3.068 3.068 0 0 1-.595-.89 4.503 4.503 0 0 1-.308-1.12v-1.894c.069-.446.18-.852.335-1.216.155-.365.354-.68.595-.944.246-.264.538-.467.875-.608a2.963 2.963 0 0 1 1.155-.212c.452 0 .853.089 1.204.266.355.174.654.426.895.76.246.327.431.724.554 1.189.127.46.191.977.191 1.551Zm-.82.144v-.144c0-.433-.046-.834-.137-1.203a2.918 2.918 0 0 0-.403-.964 1.905 1.905 0 0 0-.684-.649c-.273-.155-.599-.232-.977-.232-.392 0-.727.066-1.005.198a1.986 1.986 0 0 0-.684.513 2.54 2.54 0 0 0-.43.69c-.105.25-.183.497-.233.738v2.18c.087.347.226.668.417.965.191.291.447.526.766.704.323.173.718.26 1.182.26.374 0 .698-.078.971-.233.274-.155.499-.371.677-.65a3 3 0 0 0 .403-.97c.091-.37.137-.77.137-1.203Zm6.134-3.773v.67h-3.705v-.67h3.705Zm-2.344-1.9h.813v7.498c0 .342.046.6.137.773.091.173.21.289.355.348.146.06.303.09.472.09.123 0 .242-.008.356-.021.113-.019.216-.037.307-.055l.034.69c-.1.032-.23.057-.389.075-.16.023-.319.035-.479.035-.314 0-.592-.057-.834-.171-.241-.119-.43-.32-.567-.602-.137-.287-.205-.677-.205-1.169v-7.492Z"/><defs><clipPath id="clip0_7156_45255"><path fill="#fff" d="M10.5 8h18v18h-18z"/></clipPath></defs></svg>