<svg xmlns="http://www.w3.org/2000/svg" width="175" height="30" fill="none" viewBox="0 0 175 30"><path fill="#2F1554" d="m25.94 5.979-8.927 10.686-.348 8.981c-.03.96-.45 1.769-1.263 2.425-.784.657-1.727.986-2.83.986h-.131c-1.133-.025-2.09-.392-2.874-1.1-.755-.732-1.104-1.59-1.045-2.576l.304-8.299L.901 5.41C.32 4.552.175 3.655.465 2.72c.29-.96.915-1.68 1.873-2.16C3.296.055 4.327-.072 5.43.181c1.103.227 1.93.758 2.482 1.592l5.138 7.579 6.271-7.542c.639-.783 1.51-1.25 2.613-1.402 1.132-.176 2.148.026 3.048.607.93.58 1.48 1.351 1.655 2.311.174.96-.058 1.844-.697 2.653Zm14.107-.985c2.235.505 4.166 1.49 5.791 2.955 1.655 1.44 2.787 3.158 3.397 5.154.639 1.97.668 3.98.087 6.025-.784 2.653-2.395 4.813-4.834 6.48-2.438 1.642-5.138 2.463-8.1 2.463a14.94 14.94 0 0 1-3.004-.303c-2.264-.53-4.224-1.515-5.879-2.955-1.654-1.44-2.801-3.158-3.44-5.154-.61-1.996-.624-4.017-.044-6.063.61-2.047 1.742-3.815 3.397-5.306a13.552 13.552 0 0 1 5.792-3.145 14.19 14.19 0 0 1 6.75-.19c.029 0 .043.013.043.039h.044Zm1.35 12.391c.348-1.212.188-2.362-.48-3.448-.667-1.086-1.64-1.781-2.917-2.084a4.903 4.903 0 0 0-1.045-.114c-.755 0-1.48.151-2.177.455a5.63 5.63 0 0 0-1.786 1.288 4.518 4.518 0 0 0-1.045 1.857c-.348 1.213-.189 2.362.479 3.448.668 1.087 1.655 1.781 2.961 2.085 1.277.277 2.511.075 3.702-.607 1.19-.682 1.96-1.642 2.308-2.88ZM71.802 7.381c.029.606.043 1.276.043 2.008.03.733-.014 1.807-.13 3.222a23.84 23.84 0 0 1-.566 3.978c-.29 1.238-.77 2.552-1.437 3.942-.668 1.364-1.48 2.5-2.439 3.41-1.945 1.819-4.34 2.728-7.185 2.728-2.932 0-5.313-.96-7.142-2.88-.87-.909-1.567-2.046-2.09-3.41-.523-1.364-.856-2.653-1.002-3.865a28.731 28.731 0 0 1-.174-3.941c.058-1.39.131-2.438.218-3.146a23.1 23.1 0 0 1 .392-1.97c.174-.985.726-1.756 1.655-2.312.929-.556 1.945-.745 3.048-.568 1.103.151 1.974.631 2.613 1.44.667.808.9 1.692.697 2.652-.378 1.617-.508 3.588-.392 5.912.116 2.324.551 3.878 1.306 4.661.203.202.494.303.87.303a1.8 1.8 0 0 0 1.22-.455c.93-.884 1.582-2.463 1.96-4.736.406-2.274.537-4.434.392-6.48a2.953 2.953 0 0 1 .392-1.781c.319-.581.769-1.049 1.35-1.403a4.222 4.222 0 0 1 2.003-.568 4.423 4.423 0 0 1 2.09.341c.668.278 1.205.682 1.611 1.213.407.505.639 1.073.697 1.705Zm30.218 16.295c.145.48.174.96.087 1.44a3.591 3.591 0 0 1-.523 1.288c-.232.38-.566.72-1.001 1.023-.407.278-.886.48-1.437.607a4.51 4.51 0 0 1-3.092-.341c-.987-.48-1.626-1.188-1.916-2.123l-2.352-7.465-1.872 4.964c-.174.48-.45.91-.828 1.289a4.124 4.124 0 0 1-1.35.834 4.767 4.767 0 0 1-1.61.34c-.9 0-1.699-.201-2.396-.606-.696-.43-1.204-.998-1.524-1.705l-1.916-4.472-2.047 7.352c-.232.808-.725 1.465-1.48 1.97-.726.506-1.553.758-2.482.758-.32 0-.639-.038-.958-.113-1.103-.228-1.945-.758-2.526-1.592-.58-.833-.74-1.73-.479-2.69L75.5 5.827c.203-.758.639-1.377 1.306-1.857a4.412 4.412 0 0 1 2.395-.833c.9-.05 1.728.139 2.483.568.755.404 1.291.973 1.61 1.705l2.483 5.798 2.482-6.555c.261-.733.755-1.327 1.48-1.781a4.469 4.469 0 0 1 2.483-.645c.9.026 1.698.278 2.395.758.726.48 1.205 1.1 1.437 1.857l5.966 18.834Zm15.905-3.373c1.132-.076 2.119.202 2.961.834.871.631 1.35 1.44 1.437 2.425a3.107 3.107 0 0 1-.392 1.819c-.319.556-.783 1.023-1.393 1.402a4.28 4.28 0 0 1-1.96.606c-3.077.203-5.617.304-7.62.304-2.729 0-4.616-.228-5.661-.683-1.045-.454-1.844-1.452-2.395-2.993-.523-1.566-.813-3.272-.871-5.116a58.694 58.694 0 0 1 .087-5.533c.116-1.844.261-3.347.435-4.51.174-1.186.276-1.818.305-1.894a5.98 5.98 0 0 1 .305-.644c.116-.177.319-.417.61-.72a4.246 4.246 0 0 1 1.045-.796c.377-.202.929-.43 1.654-.682a12.84 12.84 0 0 1 2.483-.568c.929-.152 2.09-.278 3.483-.38a55.255 55.255 0 0 1 4.703-.113c1.103.025 2.047.392 2.831 1.099.813.682 1.205 1.516 1.176 2.501 0 .48-.117.947-.349 1.402a3.08 3.08 0 0 1-.871 1.1 5.03 5.03 0 0 1-1.35.757 4.608 4.608 0 0 1-1.567.265c-2.613-.025-4.819.089-6.619.341-.029.329-.058.77-.087 1.327h7.664c1.132 0 2.09.353 2.874 1.06.813.683 1.219 1.516 1.219 2.502 0 .985-.406 1.819-1.219 2.5-.784.683-1.742 1.024-2.874 1.024h-7.752c.029.682.073 1.225.131 1.63 2.09.025 4.616-.064 7.577-.266Zm36.016 3.373c.145.48.174.96.087 1.44a3.591 3.591 0 0 1-.523 1.288c-.232.38-.566.72-1.001 1.023-.407.278-.886.48-1.437.607a4.51 4.51 0 0 1-3.092-.341c-.987-.48-1.626-1.188-1.916-2.123l-2.351-7.465-1.873 4.964c-.174.48-.45.91-.827 1.289a4.137 4.137 0 0 1-1.35.834 4.772 4.772 0 0 1-1.612.34c-.899 0-1.698-.201-2.395-.606-.696-.43-1.204-.998-1.524-1.705l-1.916-4.472-2.046 7.352c-.233.808-.726 1.465-1.481 1.97-.726.506-1.553.758-2.482.758-.319 0-.639-.038-.958-.113-1.103-.228-1.945-.758-2.526-1.592-.58-.833-.74-1.73-.479-2.69l5.182-18.607c.203-.758.639-1.377 1.307-1.857.696-.505 1.495-.783 2.395-.833.9-.05 1.727.139 2.482.568.755.404 1.292.973 1.611 1.705l2.482 5.798 2.482-6.555c.262-.733.755-1.327 1.481-1.781a4.468 4.468 0 0 1 2.482-.645c.9.026 1.698.278 2.395.758.726.48 1.205 1.1 1.437 1.857l5.966 18.834Zm15.905-3.373c1.132-.076 2.119.202 2.961.834.871.631 1.35 1.44 1.437 2.425a3.113 3.113 0 0 1-.391 1.819c-.32.556-.784 1.023-1.394 1.402a4.28 4.28 0 0 1-1.96.606c-3.077.203-5.617.304-7.62.304-2.729 0-4.616-.228-5.661-.683-1.045-.454-1.844-1.452-2.395-2.993-.523-1.566-.813-3.272-.871-5.116a58.694 58.694 0 0 1 .087-5.533c.116-1.844.261-3.347.435-4.51.175-1.186.276-1.818.305-1.894a5.98 5.98 0 0 1 .305-.644c.116-.177.319-.417.61-.72a4.246 4.246 0 0 1 1.045-.796c.377-.202.929-.43 1.655-.682a12.812 12.812 0 0 1 2.482-.568c.929-.152 2.09-.278 3.483-.38a55.266 55.266 0 0 1 4.703-.113c1.104.025 2.047.392 2.831 1.099.813.682 1.205 1.516 1.176 2.501 0 .48-.116.947-.349 1.402a3.08 3.08 0 0 1-.871 1.1 5.03 5.03 0 0 1-1.35.757 4.608 4.608 0 0 1-1.567.265c-2.613-.025-4.819.089-6.619.341-.029.329-.058.77-.087 1.327h7.664c1.132 0 2.09.353 2.874 1.06.813.683 1.219 1.516 1.219 2.502 0 .985-.406 1.819-1.219 2.5-.784.683-1.742 1.024-2.874 1.024h-7.751c.029.682.072 1.225.13 1.63 2.09.025 4.616-.064 7.577-.266Z"/></svg>